<svg xmlns="http://www.w3.org/2000/svg" xmlns:rdkit="http://www.rdkit.org/xml" xmlns:xlink="http://www.w3.org/1999/xlink" version="1.1" baseProfile="full" xml:space="preserve" width="450px" height="300px" viewBox="0 0 450 300">
<!-- END OF HEADER -->
<rect style="opacity:1.0;fill:#FFFFFF;stroke:none" width="450.0" height="300.0" x="0.0" y="0.0"> </rect>
<path class="bond-1 atom-1 atom-2" d="M 65.2,81.6 L 88.1,94.8" style="fill:none;fill-rule:evenodd;stroke:#ABABAB;stroke-width:8.0px;stroke-linecap:butt;stroke-linejoin:miter;stroke-opacity:1"/>
<path class="bond-1 atom-1 atom-2" d="M 57.1,95.6 L 80.0,108.9" style="fill:none;fill-rule:evenodd;stroke:#ABABAB;stroke-width:8.0px;stroke-linecap:butt;stroke-linejoin:miter;stroke-opacity:1"/>
<path class="bond-2 atom-2 atom-3" d="M 97.4,111.0 L 97.4,137.4" style="fill:none;fill-rule:evenodd;stroke:#006BA4;stroke-width:8.0px;stroke-linecap:butt;stroke-linejoin:miter;stroke-opacity:1"/>
<path class="bond-2 atom-2 atom-3" d="M 81.2,111.0 L 81.2,137.4" style="fill:none;fill-rule:evenodd;stroke:#006BA4;stroke-width:8.0px;stroke-linecap:butt;stroke-linejoin:miter;stroke-opacity:1"/>
<path class="bond-3 atom-3 atom-4" d="M 98.6,139.5 L 121.4,152.7" style="fill:none;fill-rule:evenodd;stroke:#006BA4;stroke-width:8.0px;stroke-linecap:butt;stroke-linejoin:miter;stroke-opacity:1"/>
<path class="bond-3 atom-3 atom-4" d="M 90.5,153.5 L 113.3,166.7" style="fill:none;fill-rule:evenodd;stroke:#006BA4;stroke-width:8.0px;stroke-linecap:butt;stroke-linejoin:miter;stroke-opacity:1"/>
<path class="bond-4 atom-4 atom-5" d="M 123.9,152.7 L 146.8,139.5" style="fill:none;fill-rule:evenodd;stroke:#006BA4;stroke-width:8.0px;stroke-linecap:butt;stroke-linejoin:miter;stroke-opacity:1"/>
<path class="bond-4 atom-4 atom-5" d="M 132.0,166.8 L 154.8,153.6" style="fill:none;fill-rule:evenodd;stroke:#006BA4;stroke-width:8.0px;stroke-linecap:butt;stroke-linejoin:miter;stroke-opacity:1"/>
<path class="bond-5 atom-5 atom-6" d="M 164.3,137.7 L 189.5,145.9" style="fill:none;fill-rule:evenodd;stroke:#FF800E;stroke-width:8.0px;stroke-linecap:butt;stroke-linejoin:miter;stroke-opacity:1"/>
<path class="bond-5 atom-5 atom-6" d="M 159.3,153.1 L 184.4,161.3" style="fill:none;fill-rule:evenodd;stroke:#FF800E;stroke-width:8.0px;stroke-linecap:butt;stroke-linejoin:miter;stroke-opacity:1"/>
<path class="bond-6 atom-6 atom-7" d="M 189.8,145.8 L 205.3,124.4" style="fill:none;fill-rule:evenodd;stroke:#FF800E;stroke-width:8.0px;stroke-linecap:butt;stroke-linejoin:miter;stroke-opacity:1"/>
<path class="bond-6 atom-6 atom-7" d="M 202.9,155.3 L 218.4,134.0" style="fill:none;fill-rule:evenodd;stroke:#FF800E;stroke-width:8.0px;stroke-linecap:butt;stroke-linejoin:miter;stroke-opacity:1"/>
<path class="bond-7 atom-7 atom-8" d="M 218.4,114.6 L 202.9,93.2" style="fill:none;fill-rule:evenodd;stroke:#FF800E;stroke-width:8.0px;stroke-linecap:butt;stroke-linejoin:miter;stroke-opacity:1"/>
<path class="bond-7 atom-7 atom-8" d="M 205.3,124.1 L 189.8,102.7" style="fill:none;fill-rule:evenodd;stroke:#ABABAB;stroke-width:8.0px;stroke-linecap:butt;stroke-linejoin:miter;stroke-opacity:1"/>
<path class="bond-8 atom-8 atom-9" d="M 184.5,87.2 L 159.4,95.4" style="fill:none;fill-rule:evenodd;stroke:#FF800E;stroke-width:8.0px;stroke-linecap:butt;stroke-linejoin:miter;stroke-opacity:1"/>
<path class="bond-8 atom-8 atom-9" d="M 189.5,102.6 L 164.4,110.8" style="fill:none;fill-rule:evenodd;stroke:#ABABAB;stroke-width:8.0px;stroke-linecap:butt;stroke-linejoin:miter;stroke-opacity:1"/>
<path class="bond-9 atom-9 atom-10" d="M 154.9,94.9 L 132.0,81.7" style="fill:none;fill-rule:evenodd;stroke:#006BA4;stroke-width:8.0px;stroke-linecap:butt;stroke-linejoin:miter;stroke-opacity:1"/>
<path class="bond-9 atom-9 atom-10" d="M 146.8,108.9 L 123.9,95.7" style="fill:none;fill-rule:evenodd;stroke:#ABABAB;stroke-width:8.0px;stroke-linecap:butt;stroke-linejoin:miter;stroke-opacity:1"/>
<path class="bond-14 atom-14 atom-15" d="M 307.8,148.4 L 321.1,125.6" style="fill:none;fill-rule:evenodd;stroke:#006BA4;stroke-width:8.0px;stroke-linecap:butt;stroke-linejoin:miter;stroke-opacity:1"/>
<path class="bond-14 atom-14 atom-15" d="M 321.9,156.6 L 335.1,133.7" style="fill:none;fill-rule:evenodd;stroke:#006BA4;stroke-width:8.0px;stroke-linecap:butt;stroke-linejoin:miter;stroke-opacity:1"/>
<path class="bond-15 atom-15 atom-16" d="M 337.2,116.3 L 363.6,116.3" style="fill:none;fill-rule:evenodd;stroke:#006BA4;stroke-width:8.0px;stroke-linecap:butt;stroke-linejoin:miter;stroke-opacity:1"/>
<path class="bond-15 atom-15 atom-16" d="M 337.2,132.5 L 363.6,132.5" style="fill:none;fill-rule:evenodd;stroke:#006BA4;stroke-width:8.0px;stroke-linecap:butt;stroke-linejoin:miter;stroke-opacity:1"/>
<path class="bond-16 atom-16 atom-17" d="M 379.7,125.6 L 392.9,148.5" style="fill:none;fill-rule:evenodd;stroke:#006BA4;stroke-width:8.0px;stroke-linecap:butt;stroke-linejoin:miter;stroke-opacity:1"/>
<path class="bond-16 atom-16 atom-17" d="M 365.7,133.7 L 378.9,156.6" style="fill:none;fill-rule:evenodd;stroke:#006BA4;stroke-width:8.0px;stroke-linecap:butt;stroke-linejoin:miter;stroke-opacity:1"/>
<path class="bond-18 atom-17 atom-19" d="M 392.9,167.1 L 379.7,190.0" style="fill:none;fill-rule:evenodd;stroke:#006BA4;stroke-width:8.0px;stroke-linecap:butt;stroke-linejoin:miter;stroke-opacity:1"/>
<path class="bond-18 atom-17 atom-19" d="M 378.9,159.0 L 365.7,181.9" style="fill:none;fill-rule:evenodd;stroke:#006BA4;stroke-width:8.0px;stroke-linecap:butt;stroke-linejoin:miter;stroke-opacity:1"/>
<path class="bond-21 atom-19 atom-22" d="M 363.5,199.3 L 337.1,199.3" style="fill:none;fill-rule:evenodd;stroke:#006BA4;stroke-width:8.0px;stroke-linecap:butt;stroke-linejoin:miter;stroke-opacity:1"/>
<path class="bond-21 atom-19 atom-22" d="M 363.6,183.1 L 337.1,183.1" style="fill:none;fill-rule:evenodd;stroke:#006BA4;stroke-width:8.0px;stroke-linecap:butt;stroke-linejoin:miter;stroke-opacity:1"/>
<path class="bond-23 atom-10 atom-2" d="M 113.4,81.7 L 90.5,94.8" style="fill:none;fill-rule:evenodd;stroke:#006BA4;stroke-width:8.0px;stroke-linecap:butt;stroke-linejoin:miter;stroke-opacity:1"/>
<path class="bond-23 atom-10 atom-2" d="M 121.5,95.7 L 98.6,108.9" style="fill:none;fill-rule:evenodd;stroke:#ABABAB;stroke-width:8.0px;stroke-linecap:butt;stroke-linejoin:miter;stroke-opacity:1"/>
<path class="bond-24 atom-22 atom-14" d="M 321.0,189.9 L 307.8,167.1" style="fill:none;fill-rule:evenodd;stroke:#006BA4;stroke-width:8.0px;stroke-linecap:butt;stroke-linejoin:miter;stroke-opacity:1"/>
<path class="bond-24 atom-22 atom-14" d="M 335.0,181.9 L 321.9,159.0" style="fill:none;fill-rule:evenodd;stroke:#006BA4;stroke-width:8.0px;stroke-linecap:butt;stroke-linejoin:miter;stroke-opacity:1"/>
<path class="bond-25 atom-9 atom-5" d="M 148.0,111.0 L 148.0,137.4" style="fill:none;fill-rule:evenodd;stroke:#006BA4;stroke-width:8.0px;stroke-linecap:butt;stroke-linejoin:miter;stroke-opacity:1"/>
<path class="bond-25 atom-9 atom-5" d="M 164.2,111.0 L 164.2,137.4" style="fill:none;fill-rule:evenodd;stroke:#FF800E;stroke-width:8.0px;stroke-linecap:butt;stroke-linejoin:miter;stroke-opacity:1"/>
<ellipse cx="55.9" cy="85.6" rx="10.1" ry="10.1" class="atom-1" style="fill:none;stroke:#ABABAB;stroke-width:6.2px;stroke-linecap:butt;stroke-linejoin:miter;stroke-opacity:1"/>
<path class="atom-2" d="M 89.3,94.8 L 90.1,94.8 L 91.0,94.9 L 91.8,95.1 L 92.7,95.4 L 93.5,95.7 L 94.2,96.1 L 95.0,96.5 L 95.6,97.0 L 96.3,97.6 L 96.9,98.2 L 97.4,98.9 L 97.9,99.6 L 98.3,100.3 L 98.7,101.1 L 99.0,101.9 L 99.2,102.8 L 99.3,103.6 L 99.4,104.5 L 99.4,105.3 L 99.3,106.2 L 99.2,107.0 L 99.0,107.9 L 98.7,108.7 L 98.3,109.5 L 97.9,110.2 L 97.4,110.9 L 96.9,111.6 L 96.3,112.2 L 95.6,112.8 L 95.0,113.3 L 94.2,113.7 L 93.5,114.1 L 92.7,114.4 L 91.8,114.7 L 91.0,114.9 L 90.1,115.0 L 89.3,115.0" style="fill:none;stroke:#006BA4;stroke-width:6.2px;stroke-linecap:butt;stroke-linejoin:miter;stroke-opacity:1;"/>
<path class="atom-2" d="M 89.3,115.0 L 88.4,115.0 L 87.6,114.9 L 86.7,114.7 L 85.9,114.4 L 85.1,114.1 L 84.4,113.7 L 83.6,113.3 L 82.9,112.8 L 82.3,112.2 L 81.7,111.6 L 81.1,110.9 L 80.7,110.2 L 80.2,109.5 L 79.9,108.7 L 79.6,107.9 L 79.4,107.0 L 79.2,106.2 L 79.2,105.3 L 79.2,104.5 L 79.2,103.6 L 79.4,102.8 L 79.6,101.9 L 79.9,101.1 L 80.2,100.3 L 80.7,99.6 L 81.1,98.9 L 81.7,98.2 L 82.3,97.6 L 82.9,97.0 L 83.6,96.5 L 84.4,96.1 L 85.1,95.7 L 85.9,95.4 L 86.7,95.1 L 87.6,94.9 L 88.4,94.8 L 89.3,94.8" style="fill:none;stroke:#ABABAB;stroke-width:6.2px;stroke-linecap:butt;stroke-linejoin:miter;stroke-opacity:1;"/>
<ellipse cx="89.3" cy="143.5" rx="10.1" ry="10.1" class="atom-3" style="fill:none;stroke:#006BA4;stroke-width:6.2px;stroke-linecap:butt;stroke-linejoin:miter;stroke-opacity:1"/>
<ellipse cx="122.6" cy="162.8" rx="10.1" ry="10.1" class="atom-4" style="fill:none;stroke:#006BA4;stroke-width:6.2px;stroke-linecap:butt;stroke-linejoin:miter;stroke-opacity:1"/>
<path class="atom-5" d="M 156.1,133.4 L 156.9,133.4 L 157.8,133.5 L 158.6,133.7 L 159.4,134.0 L 160.2,134.3 L 161.0,134.7 L 161.7,135.1 L 162.4,135.6 L 163.1,136.2 L 163.7,136.8 L 164.2,137.5 L 164.7,138.2 L 165.1,139.0 L 165.5,139.7 L 165.7,140.6 L 166.0,141.4 L 166.1,142.2 L 166.2,143.1 L 166.2,143.9 L 166.1,144.8 L 166.0,145.7 L 165.7,146.5 L 165.5,147.3 L 165.1,148.1 L 164.7,148.8 L 164.2,149.5 L 163.7,150.2 L 163.1,150.8 L 162.4,151.4 L 161.7,151.9 L 161.0,152.4 L 160.2,152.7 L 159.4,153.1 L 158.6,153.3 L 157.8,153.5 L 156.9,153.6 L 156.1,153.6" style="fill:none;stroke:#006BA4;stroke-width:6.2px;stroke-linecap:butt;stroke-linejoin:miter;stroke-opacity:1;"/>
<path class="atom-5" d="M 156.1,153.6 L 155.2,153.6 L 154.3,153.5 L 153.5,153.3 L 152.7,153.1 L 151.9,152.7 L 151.1,152.4 L 150.4,151.9 L 149.7,151.4 L 149.1,150.8 L 148.5,150.2 L 147.9,149.5 L 147.4,148.8 L 147.0,148.1 L 146.7,147.3 L 146.4,146.5 L 146.2,145.7 L 146.0,144.8 L 145.9,143.9 L 145.9,143.1 L 146.0,142.2 L 146.2,141.4 L 146.4,140.6 L 146.7,139.7 L 147.0,139.0 L 147.4,138.2 L 147.9,137.5 L 148.5,136.8 L 149.1,136.2 L 149.7,135.6 L 150.4,135.1 L 151.1,134.7 L 151.9,134.3 L 152.7,134.0 L 153.5,133.7 L 154.3,133.5 L 155.2,133.4 L 156.1,133.4" style="fill:none;stroke:#FF800E;stroke-width:6.2px;stroke-linecap:butt;stroke-linejoin:miter;stroke-opacity:1;"/>
<ellipse cx="192.7" cy="155.5" rx="10.1" ry="10.1" class="atom-6" style="fill:none;stroke:#FF800E;stroke-width:6.2px;stroke-linecap:butt;stroke-linejoin:miter;stroke-opacity:1"/>
<path class="atom-7" d="M 215.4,114.2 L 216.3,114.2 L 217.1,114.3 L 218.0,114.5 L 218.8,114.7 L 219.6,115.1 L 220.3,115.4 L 221.1,115.9 L 221.8,116.4 L 222.4,117.0 L 223.0,117.6 L 223.6,118.3 L 224.0,119.0 L 224.5,119.7 L 224.8,120.5 L 225.1,121.3 L 225.3,122.1 L 225.5,123.0 L 225.5,123.9 L 225.5,124.7 L 225.5,125.6 L 225.3,126.4 L 225.1,127.2 L 224.8,128.1 L 224.5,128.8 L 224.0,129.6 L 223.6,130.3 L 223.0,131.0 L 222.4,131.6 L 221.8,132.2 L 221.1,132.7 L 220.3,133.1 L 219.6,133.5 L 218.8,133.8 L 218.0,134.1 L 217.1,134.3 L 216.3,134.4 L 215.4,134.4" style="fill:none;stroke:#FF800E;stroke-width:6.2px;stroke-linecap:butt;stroke-linejoin:miter;stroke-opacity:1;"/>
<path class="atom-7" d="M 215.4,134.4 L 214.6,134.4 L 213.7,134.3 L 212.9,134.1 L 212.0,133.8 L 211.2,133.5 L 210.5,133.1 L 209.7,132.7 L 209.1,132.2 L 208.4,131.6 L 207.8,131.0 L 207.3,130.3 L 206.8,129.6 L 206.4,128.8 L 206.0,128.1 L 205.7,127.2 L 205.5,126.4 L 205.4,125.6 L 205.3,124.7 L 205.3,123.9 L 205.4,123.0 L 205.5,122.1 L 205.7,121.3 L 206.0,120.5 L 206.4,119.7 L 206.8,119.0 L 207.3,118.3 L 207.8,117.6 L 208.4,117.0 L 209.1,116.4 L 209.7,115.9 L 210.5,115.4 L 211.2,115.1 L 212.0,114.7 L 212.9,114.5 L 213.7,114.3 L 214.6,114.2 L 215.4,114.2" style="fill:none;stroke:#ABABAB;stroke-width:6.2px;stroke-linecap:butt;stroke-linejoin:miter;stroke-opacity:1;"/>
<path class="atom-8" d="M 192.8,82.9 L 193.6,83.0 L 194.5,83.1 L 195.3,83.3 L 196.2,83.5 L 197.0,83.8 L 197.7,84.2 L 198.5,84.7 L 199.1,85.2 L 199.8,85.8 L 200.4,86.4 L 200.9,87.0 L 201.4,87.8 L 201.8,88.5 L 202.2,89.3 L 202.5,90.1 L 202.7,90.9 L 202.8,91.8 L 202.9,92.6 L 202.9,93.5 L 202.8,94.3 L 202.7,95.2 L 202.5,96.0 L 202.2,96.8 L 201.8,97.6 L 201.4,98.4 L 200.9,99.1 L 200.4,99.7 L 199.8,100.4 L 199.1,100.9 L 198.5,101.4 L 197.7,101.9 L 197.0,102.3 L 196.2,102.6 L 195.3,102.9 L 194.5,103.0 L 193.6,103.1 L 192.8,103.2" style="fill:none;stroke:#FF800E;stroke-width:6.2px;stroke-linecap:butt;stroke-linejoin:miter;stroke-opacity:1;"/>
<path class="atom-8" d="M 192.8,103.2 L 191.9,103.1 L 191.1,103.0 L 190.2,102.9 L 189.4,102.6 L 188.6,102.3 L 187.8,101.9 L 187.1,101.4 L 186.4,100.9 L 185.8,100.4 L 185.2,99.7 L 184.6,99.1 L 184.2,98.4 L 183.7,97.6 L 183.4,96.8 L 183.1,96.0 L 182.9,95.2 L 182.7,94.3 L 182.7,93.5 L 182.7,92.6 L 182.7,91.8 L 182.9,90.9 L 183.1,90.1 L 183.4,89.3 L 183.7,88.5 L 184.2,87.8 L 184.6,87.0 L 185.2,86.4 L 185.8,85.8 L 186.4,85.2 L 187.1,84.7 L 187.8,84.2 L 188.6,83.8 L 189.4,83.5 L 190.2,83.3 L 191.1,83.1 L 191.9,83.0 L 192.8,82.9" style="fill:none;stroke:#ABABAB;stroke-width:6.2px;stroke-linecap:butt;stroke-linejoin:miter;stroke-opacity:1;"/>
<path class="atom-9" d="M 156.1,94.8 L 156.9,94.9 L 157.8,95.0 L 158.6,95.1 L 159.4,95.4 L 160.2,95.7 L 161.0,96.1 L 161.7,96.5 L 162.4,97.0 L 163.0,97.6 L 163.6,98.2 L 164.1,98.8 L 164.6,99.5 L 165.1,100.3 L 165.4,101.0 L 165.7,101.8 L 165.9,102.6 L 166.1,103.5 L 166.2,104.3 L 166.2,105.2 L 166.2,106.0 L 166.0,106.9 L 165.8,107.7 L 165.6,108.5 L 165.2,109.3 L 164.9,110.0" style="fill:none;stroke:#006BA4;stroke-width:6.2px;stroke-linecap:butt;stroke-linejoin:miter;stroke-opacity:1;"/>
<path class="atom-9" d="M 164.9,110.0 L 164.4,110.7 L 163.9,111.4 L 163.3,112.0 L 162.7,112.6 L 162.0,113.1 L 161.3,113.6 L 160.6,114.0 L 159.8,114.4 L 159.0,114.6 L 158.2,114.9 L 157.4,115.0 L 156.5,115.1 L 155.7,115.1 L 154.8,115.0 L 154.0,114.9 L 153.2,114.6 L 152.4,114.4 L 151.6,114.0 L 150.8,113.6 L 150.1,113.1 L 149.5,112.6 L 148.9,112.0 L 148.3,111.4 L 147.8,110.7 L 147.3,110.0" style="fill:none;stroke:#FF800E;stroke-width:6.2px;stroke-linecap:butt;stroke-linejoin:miter;stroke-opacity:1;"/>
<path class="atom-9" d="M 147.3,110.0 L 146.9,109.3 L 146.6,108.5 L 146.3,107.7 L 146.1,106.9 L 146.0,106.0 L 146.0,105.2 L 146.0,104.3 L 146.1,103.5 L 146.2,102.6 L 146.5,101.8 L 146.8,101.0 L 147.1,100.3 L 147.5,99.5 L 148.0,98.8 L 148.6,98.2 L 149.2,97.6 L 149.8,97.0 L 150.5,96.5 L 151.2,96.1 L 152.0,95.7 L 152.8,95.4 L 153.6,95.1 L 154.4,95.0 L 155.2,94.9 L 156.1,94.8" style="fill:none;stroke:#ABABAB;stroke-width:6.2px;stroke-linecap:butt;stroke-linejoin:miter;stroke-opacity:1;"/>
<path class="atom-10" d="M 122.7,75.5 L 123.6,75.6 L 124.4,75.7 L 125.3,75.9 L 126.1,76.1 L 126.9,76.4 L 127.6,76.8 L 128.4,77.3 L 129.1,77.8 L 129.7,78.3 L 130.3,79.0 L 130.8,79.6 L 131.3,80.3 L 131.7,81.1 L 132.1,81.9 L 132.4,82.7 L 132.6,83.5 L 132.8,84.4 L 132.8,85.2 L 132.8,86.1 L 132.8,86.9 L 132.6,87.8 L 132.4,88.6 L 132.1,89.4 L 131.7,90.2 L 131.3,91.0 L 130.8,91.7 L 130.3,92.3 L 129.7,93.0 L 129.1,93.5 L 128.4,94.0 L 127.6,94.5 L 126.9,94.9 L 126.1,95.2 L 125.3,95.4 L 124.4,95.6 L 123.6,95.7 L 122.7,95.8" style="fill:none;stroke:#006BA4;stroke-width:6.2px;stroke-linecap:butt;stroke-linejoin:miter;stroke-opacity:1;"/>
<path class="atom-10" d="M 122.7,95.8 L 121.9,95.7 L 121.0,95.6 L 120.2,95.4 L 119.3,95.2 L 118.5,94.9 L 117.8,94.5 L 117.0,94.0 L 116.3,93.5 L 115.7,93.0 L 115.1,92.3 L 114.6,91.7 L 114.1,91.0 L 113.7,90.2 L 113.3,89.4 L 113.0,88.6 L 112.8,87.8 L 112.7,86.9 L 112.6,86.1 L 112.6,85.2 L 112.7,84.4 L 112.8,83.5 L 113.0,82.7 L 113.3,81.9 L 113.7,81.1 L 114.1,80.3 L 114.6,79.6 L 115.1,79.0 L 115.7,78.3 L 116.3,77.8 L 117.0,77.3 L 117.8,76.8 L 118.5,76.4 L 119.3,76.1 L 120.2,75.9 L 121.0,75.7 L 121.9,75.6 L 122.7,75.5" style="fill:none;stroke:#ABABAB;stroke-width:6.2px;stroke-linecap:butt;stroke-linejoin:miter;stroke-opacity:1;"/>
<ellipse cx="311.8" cy="157.8" rx="10.1" ry="10.1" class="atom-14" style="fill:none;stroke:#006BA4;stroke-width:6.2px;stroke-linecap:butt;stroke-linejoin:miter;stroke-opacity:1"/>
<ellipse cx="331.1" cy="124.4" rx="10.1" ry="10.1" class="atom-15" style="fill:none;stroke:#006BA4;stroke-width:6.2px;stroke-linecap:butt;stroke-linejoin:miter;stroke-opacity:1"/>
<ellipse cx="369.7" cy="124.4" rx="10.1" ry="10.1" class="atom-16" style="fill:none;stroke:#006BA4;stroke-width:6.2px;stroke-linecap:butt;stroke-linejoin:miter;stroke-opacity:1"/>
<ellipse cx="388.9" cy="157.8" rx="10.1" ry="10.1" class="atom-17" style="fill:none;stroke:#006BA4;stroke-width:6.2px;stroke-linecap:butt;stroke-linejoin:miter;stroke-opacity:1"/>
<ellipse cx="369.6" cy="191.2" rx="10.1" ry="10.1" class="atom-19" style="fill:none;stroke:#006BA4;stroke-width:6.2px;stroke-linecap:butt;stroke-linejoin:miter;stroke-opacity:1"/>
<ellipse cx="331.1" cy="191.2" rx="10.1" ry="10.1" class="atom-22" style="fill:none;stroke:#006BA4;stroke-width:6.2px;stroke-linecap:butt;stroke-linejoin:miter;stroke-opacity:1"/>
<path class="bond-0 atom-0 atom-1" d="M 22.5,104.8 L 47.1,90.7" style="fill:none;fill-rule:evenodd;stroke:#000000;stroke-width:2.0px;stroke-linecap:butt;stroke-linejoin:miter;stroke-opacity:1"/>
<path class="bond-1 atom-1 atom-2" d="M 64.7,90.7 L 89.3,104.9" style="fill:none;fill-rule:evenodd;stroke:#000000;stroke-width:2.0px;stroke-linecap:butt;stroke-linejoin:miter;stroke-opacity:1"/>
<path class="bond-2 atom-2 atom-3" d="M 89.3,104.9 L 89.3,143.5" style="fill:none;fill-rule:evenodd;stroke:#000000;stroke-width:2.0px;stroke-linecap:butt;stroke-linejoin:miter;stroke-opacity:1"/>
<path class="bond-2 atom-2 atom-3" d="M 95.1,108.2 L 95.0,140.1" style="fill:none;fill-rule:evenodd;stroke:#000000;stroke-width:2.0px;stroke-linecap:butt;stroke-linejoin:miter;stroke-opacity:1"/>
<path class="bond-3 atom-3 atom-4" d="M 89.3,143.5 L 122.6,162.8" style="fill:none;fill-rule:evenodd;stroke:#000000;stroke-width:2.0px;stroke-linecap:butt;stroke-linejoin:miter;stroke-opacity:1"/>
<path class="bond-4 atom-4 atom-5" d="M 122.6,162.8 L 156.1,143.5" style="fill:none;fill-rule:evenodd;stroke:#000000;stroke-width:2.0px;stroke-linecap:butt;stroke-linejoin:miter;stroke-opacity:1"/>
<path class="bond-4 atom-4 atom-5" d="M 122.7,156.1 L 150.3,140.2" style="fill:none;fill-rule:evenodd;stroke:#000000;stroke-width:2.0px;stroke-linecap:butt;stroke-linejoin:miter;stroke-opacity:1"/>
<path class="bond-5 atom-5 atom-6" d="M 156.1,143.5 L 185.2,153.0" style="fill:none;fill-rule:evenodd;stroke:#000000;stroke-width:2.0px;stroke-linecap:butt;stroke-linejoin:miter;stroke-opacity:1"/>
<path class="bond-6 atom-6 atom-7" d="M 199.6,146.0 L 215.4,124.3" style="fill:none;fill-rule:evenodd;stroke:#000000;stroke-width:2.0px;stroke-linecap:butt;stroke-linejoin:miter;stroke-opacity:1"/>
<path class="bond-6 atom-6 atom-7" d="M 194.9,142.6 L 208.3,124.3" style="fill:none;fill-rule:evenodd;stroke:#000000;stroke-width:2.0px;stroke-linecap:butt;stroke-linejoin:miter;stroke-opacity:1"/>
<path class="bond-7 atom-7 atom-8" d="M 215.4,124.3 L 199.6,102.5" style="fill:none;fill-rule:evenodd;stroke:#000000;stroke-width:2.0px;stroke-linecap:butt;stroke-linejoin:miter;stroke-opacity:1"/>
<path class="bond-8 atom-8 atom-9" d="M 185.3,95.5 L 156.1,105.0" style="fill:none;fill-rule:evenodd;stroke:#000000;stroke-width:2.0px;stroke-linecap:butt;stroke-linejoin:miter;stroke-opacity:1"/>
<path class="bond-9 atom-9 atom-10" d="M 156.1,105.0 L 122.7,85.6" style="fill:none;fill-rule:evenodd;stroke:#000000;stroke-width:2.0px;stroke-linecap:butt;stroke-linejoin:miter;stroke-opacity:1"/>
<path class="bond-9 atom-9 atom-10" d="M 150.3,108.3 L 122.7,92.3" style="fill:none;fill-rule:evenodd;stroke:#000000;stroke-width:2.0px;stroke-linecap:butt;stroke-linejoin:miter;stroke-opacity:1"/>
<path class="bond-10 atom-7 atom-11" d="M 215.4,124.3 L 247.5,124.3" style="fill:none;fill-rule:evenodd;stroke:#000000;stroke-width:2.0px;stroke-linecap:butt;stroke-linejoin:miter;stroke-opacity:1"/>
<path class="bond-11 atom-11 atom-12" d="M 261.9,116.3 L 270.1,102.2" style="fill:none;fill-rule:evenodd;stroke:#000000;stroke-width:2.0px;stroke-linecap:butt;stroke-linejoin:miter;stroke-opacity:1"/>
<path class="bond-11 atom-11 atom-12" d="M 256.9,113.4 L 265.1,99.3" style="fill:none;fill-rule:evenodd;stroke:#000000;stroke-width:2.0px;stroke-linecap:butt;stroke-linejoin:miter;stroke-opacity:1"/>
<path class="bond-12 atom-11 atom-13" d="M 261.8,138.9 L 262.7,138.4" style="fill:none;fill-rule:evenodd;stroke:#000000;stroke-width:1.0px;stroke-linecap:butt;stroke-linejoin:miter;stroke-opacity:1"/>
<path class="bond-12 atom-11 atom-13" d="M 263.2,142.3 L 264.9,141.3" style="fill:none;fill-rule:evenodd;stroke:#000000;stroke-width:1.0px;stroke-linecap:butt;stroke-linejoin:miter;stroke-opacity:1"/>
<path class="bond-12 atom-11 atom-13" d="M 264.6,145.7 L 267.1,144.3" style="fill:none;fill-rule:evenodd;stroke:#000000;stroke-width:1.0px;stroke-linecap:butt;stroke-linejoin:miter;stroke-opacity:1"/>
<path class="bond-12 atom-11 atom-13" d="M 266.1,149.1 L 269.4,147.2" style="fill:none;fill-rule:evenodd;stroke:#000000;stroke-width:1.0px;stroke-linecap:butt;stroke-linejoin:miter;stroke-opacity:1"/>
<path class="bond-12 atom-11 atom-13" d="M 267.5,152.5 L 271.6,150.1" style="fill:none;fill-rule:evenodd;stroke:#000000;stroke-width:1.0px;stroke-linecap:butt;stroke-linejoin:miter;stroke-opacity:1"/>
<path class="bond-12 atom-11 atom-13" d="M 268.9,155.9 L 273.9,153.1" style="fill:none;fill-rule:evenodd;stroke:#000000;stroke-width:1.0px;stroke-linecap:butt;stroke-linejoin:miter;stroke-opacity:1"/>
<path class="bond-13 atom-13 atom-14" d="M 273.2,157.7 L 311.8,157.8" style="fill:none;fill-rule:evenodd;stroke:#000000;stroke-width:2.0px;stroke-linecap:butt;stroke-linejoin:miter;stroke-opacity:1"/>
<path class="bond-14 atom-14 atom-15" d="M 311.8,157.8 L 325.6,133.8" style="fill:none;fill-rule:evenodd;stroke:#000000;stroke-width:2.0px;stroke-linecap:butt;stroke-linejoin:miter;stroke-opacity:1"/>
<path class="bond-14 atom-14 atom-15" d="M 318.5,157.8 L 330.6,136.7" style="fill:none;fill-rule:evenodd;stroke:#000000;stroke-width:2.0px;stroke-linecap:butt;stroke-linejoin:miter;stroke-opacity:1"/>
<path class="bond-15 atom-15 atom-16" d="M 338.6,124.4 L 369.7,124.4" style="fill:none;fill-rule:evenodd;stroke:#000000;stroke-width:2.0px;stroke-linecap:butt;stroke-linejoin:miter;stroke-opacity:1"/>
<path class="bond-16 atom-16 atom-17" d="M 369.7,124.4 L 388.9,157.8" style="fill:none;fill-rule:evenodd;stroke:#000000;stroke-width:2.0px;stroke-linecap:butt;stroke-linejoin:miter;stroke-opacity:1"/>
<path class="bond-16 atom-16 atom-17" d="M 366.3,130.2 L 382.3,157.8" style="fill:none;fill-rule:evenodd;stroke:#000000;stroke-width:2.0px;stroke-linecap:butt;stroke-linejoin:miter;stroke-opacity:1"/>
<path class="bond-17 atom-17 atom-18" d="M 388.9,157.8 L 427.5,157.8" style="fill:none;fill-rule:evenodd;stroke:#000000;stroke-width:2.0px;stroke-linecap:butt;stroke-linejoin:miter;stroke-opacity:1"/>
<path class="bond-18 atom-17 atom-19" d="M 388.9,157.8 L 369.6,191.2" style="fill:none;fill-rule:evenodd;stroke:#000000;stroke-width:2.0px;stroke-linecap:butt;stroke-linejoin:miter;stroke-opacity:1"/>
<path class="bond-19 atom-19 atom-20" d="M 369.6,191.2 L 383.4,215.1" style="fill:none;fill-rule:evenodd;stroke:#000000;stroke-width:2.0px;stroke-linecap:butt;stroke-linejoin:miter;stroke-opacity:1"/>
<path class="bond-20 atom-20 atom-21" d="M 397.7,224.6 L 427.4,224.6" style="fill:none;fill-rule:evenodd;stroke:#000000;stroke-width:2.0px;stroke-linecap:butt;stroke-linejoin:miter;stroke-opacity:1"/>
<path class="bond-21 atom-19 atom-22" d="M 369.6,191.2 L 331.1,191.2" style="fill:none;fill-rule:evenodd;stroke:#000000;stroke-width:2.0px;stroke-linecap:butt;stroke-linejoin:miter;stroke-opacity:1"/>
<path class="bond-21 atom-19 atom-22" d="M 366.3,185.4 L 334.4,185.4" style="fill:none;fill-rule:evenodd;stroke:#000000;stroke-width:2.0px;stroke-linecap:butt;stroke-linejoin:miter;stroke-opacity:1"/>
<path class="bond-22 atom-22 atom-23" d="M 331.1,191.2 L 311.7,224.6" style="fill:none;fill-rule:evenodd;stroke:#000000;stroke-width:2.0px;stroke-linecap:butt;stroke-linejoin:miter;stroke-opacity:1"/>
<path class="bond-23 atom-10 atom-2" d="M 122.7,85.6 L 89.3,104.9" style="fill:none;fill-rule:evenodd;stroke:#000000;stroke-width:2.0px;stroke-linecap:butt;stroke-linejoin:miter;stroke-opacity:1"/>
<path class="bond-24 atom-22 atom-14" d="M 331.1,191.2 L 311.8,157.8" style="fill:none;fill-rule:evenodd;stroke:#000000;stroke-width:2.0px;stroke-linecap:butt;stroke-linejoin:miter;stroke-opacity:1"/>
<path class="bond-25 atom-9 atom-5" d="M 156.1,105.0 L 156.1,143.5" style="fill:none;fill-rule:evenodd;stroke:#000000;stroke-width:2.0px;stroke-linecap:butt;stroke-linejoin:miter;stroke-opacity:1"/>
<path d="M 89.3,141.5 L 89.3,143.5 L 90.9,144.4" style="fill:none;stroke:#000000;stroke-width:2.0px;stroke-linecap:butt;stroke-linejoin:miter;stroke-opacity:1;"/>
<path d="M 121.0,161.8 L 122.6,162.8 L 124.3,161.8" style="fill:none;stroke:#000000;stroke-width:2.0px;stroke-linecap:butt;stroke-linejoin:miter;stroke-opacity:1;"/>
<path d="M 124.4,86.6 L 122.7,85.6 L 121.0,86.6" style="fill:none;stroke:#000000;stroke-width:2.0px;stroke-linecap:butt;stroke-linejoin:miter;stroke-opacity:1;"/>
<path d="M 368.1,124.4 L 369.7,124.4 L 370.6,126.1" style="fill:none;stroke:#000000;stroke-width:2.0px;stroke-linecap:butt;stroke-linejoin:miter;stroke-opacity:1;"/>
<path class="atom-1" d="M 48.4 85.6 Q 48.4 81.7, 50.3 79.5 Q 52.3 77.3, 55.9 77.3 Q 59.5 77.3, 61.5 79.5 Q 63.4 81.7, 63.4 85.6 Q 63.4 89.6, 61.5 91.9 Q 59.5 94.1, 55.9 94.1 Q 52.3 94.1, 50.3 91.9 Q 48.4 89.6, 48.4 85.6 M 55.9 92.3 Q 58.4 92.3, 59.8 90.6 Q 61.1 88.9, 61.1 85.6 Q 61.1 82.4, 59.8 80.8 Q 58.4 79.2, 55.9 79.2 Q 53.4 79.2, 52.0 80.8 Q 50.7 82.4, 50.7 85.6 Q 50.7 88.9, 52.0 90.6 Q 53.4 92.3, 55.9 92.3 " fill="#000000"/>
<path class="atom-6" d="M 189.1 147.3 L 194.5 156.0 Q 195.0 156.8, 195.9 158.4 Q 196.7 159.9, 196.8 160.0 L 196.8 147.3 L 198.9 147.3 L 198.9 163.7 L 196.7 163.7 L 190.9 154.2 Q 190.3 153.1, 189.5 151.8 Q 188.9 150.5, 188.6 150.1 L 188.6 163.7 L 186.5 163.7 L 186.5 147.3 L 189.1 147.3 " fill="#000000"/>
<path class="atom-8" d="M 189.2 84.9 L 194.5 93.5 Q 195.1 94.4, 195.9 96.0 Q 196.8 97.5, 196.8 97.6 L 196.8 84.9 L 199.0 84.9 L 199.0 101.3 L 196.8 101.3 L 191.0 91.8 Q 190.3 90.7, 189.6 89.4 Q 188.9 88.1, 188.7 87.7 L 188.7 101.3 L 186.6 101.3 L 186.6 84.9 L 189.2 84.9 " fill="#000000"/>
<path class="atom-8" d="M 186.4 66.8 L 188.6 66.8 L 188.6 73.8 L 197.0 73.8 L 197.0 66.8 L 199.2 66.8 L 199.2 83.2 L 197.0 83.2 L 197.0 75.7 L 188.6 75.7 L 188.6 83.2 L 186.4 83.2 L 186.4 66.8 " fill="#000000"/>
<path class="atom-11" d="M 249.4 129.9 Q 249.5 130.0, 250.3 130.3 Q 251.1 130.7, 251.9 130.9 Q 252.8 131.0, 253.6 131.0 Q 255.1 131.0, 256.0 130.3 Q 256.9 129.5, 256.9 128.2 Q 256.9 127.3, 256.5 126.8 Q 256.0 126.2, 255.4 125.9 Q 254.7 125.6, 253.5 125.3 Q 252.0 124.8, 251.2 124.4 Q 250.3 124.0, 249.7 123.1 Q 249.1 122.2, 249.1 120.7 Q 249.1 118.7, 250.5 117.4 Q 251.9 116.1, 254.7 116.1 Q 256.6 116.1, 258.7 117.0 L 258.2 118.8 Q 256.2 118.0, 254.7 118.0 Q 253.1 118.0, 252.3 118.7 Q 251.4 119.3, 251.4 120.5 Q 251.4 121.4, 251.8 121.9 Q 252.3 122.4, 252.9 122.7 Q 253.6 123.0, 254.7 123.4 Q 256.2 123.8, 257.1 124.3 Q 258.0 124.8, 258.6 125.7 Q 259.2 126.6, 259.2 128.2 Q 259.2 130.5, 257.7 131.7 Q 256.2 132.9, 253.7 132.9 Q 252.2 132.9, 251.1 132.6 Q 250.0 132.3, 248.7 131.8 L 249.4 129.9 " fill="#000000"/>
<path class="atom-12" d="M 265.8 91.0 Q 265.8 87.0, 267.7 84.8 Q 269.7 82.6, 273.3 82.6 Q 276.9 82.6, 278.9 84.8 Q 280.8 87.0, 280.8 91.0 Q 280.8 95.0, 278.8 97.2 Q 276.9 99.5, 273.3 99.5 Q 269.7 99.5, 267.7 97.2 Q 265.8 95.0, 265.8 91.0 M 273.3 97.6 Q 275.8 97.6, 277.1 96.0 Q 278.5 94.3, 278.5 91.0 Q 278.5 87.8, 277.1 86.1 Q 275.8 84.5, 273.3 84.5 Q 270.8 84.5, 269.4 86.1 Q 268.1 87.7, 268.1 91.0 Q 268.1 94.3, 269.4 96.0 Q 270.8 97.6, 273.3 97.6 " fill="#000000"/>
<path class="atom-15" d="M 327.5 116.2 L 332.9 124.9 Q 333.4 125.7, 334.2 127.3 Q 335.1 128.8, 335.1 128.9 L 335.1 116.2 L 337.3 116.2 L 337.3 132.6 L 335.1 132.6 L 329.3 123.1 Q 328.6 122.0, 327.9 120.7 Q 327.2 119.4, 327.0 119.0 L 327.0 132.6 L 324.9 132.6 L 324.9 116.2 L 327.5 116.2 " fill="#000000"/>
<path class="atom-20" d="M 381.4 224.7 Q 381.4 220.7, 383.3 218.5 Q 385.2 216.3, 388.9 216.3 Q 392.5 216.3, 394.5 218.5 Q 396.4 220.7, 396.4 224.7 Q 396.4 228.6, 394.4 230.9 Q 392.5 233.2, 388.9 233.2 Q 385.3 233.2, 383.3 230.9 Q 381.4 228.7, 381.4 224.7 M 388.9 231.3 Q 391.4 231.3, 392.7 229.6 Q 394.1 227.9, 394.1 224.7 Q 394.1 221.4, 392.7 219.8 Q 391.4 218.2, 388.9 218.2 Q 386.4 218.2, 385.0 219.8 Q 383.7 221.4, 383.7 224.7 Q 383.7 228.0, 385.0 229.6 Q 386.4 231.3, 388.9 231.3 " fill="#000000"/>
</svg>