<svg xmlns="http://www.w3.org/2000/svg" xmlns:rdkit="http://www.rdkit.org/xml" xmlns:xlink="http://www.w3.org/1999/xlink" version="1.1" baseProfile="full" xml:space="preserve" width="350px" height="200px" viewBox="0 0 350 200">
<!-- END OF HEADER -->
<rect style="opacity:1.0;fill:#FFFFFF;stroke:none" width="350.0" height="200.0" x="0.0" y="0.0"> </rect>
<path class="bond-2 atom-2 atom-3" d="M 75.7,64.9 L 75.7,94.9 L 63.1,94.9 L 63.1,64.9 Z" style="fill:#006BA4;fill-rule:evenodd;fill-opacity:1;stroke:#006BA4;stroke-width:2.0px;stroke-linecap:butt;stroke-linejoin:miter;stroke-opacity:1;"/>
<path class="bond-3 atom-3 atom-4" d="M 72.6,89.5 L 98.5,104.5 L 92.2,115.4 L 66.3,100.4 Z" style="fill:#006BA4;fill-rule:evenodd;fill-opacity:1;stroke:#006BA4;stroke-width:2.0px;stroke-linecap:butt;stroke-linejoin:miter;stroke-opacity:1;"/>
<path class="bond-4 atom-4 atom-5" d="M 92.2,104.5 L 118.2,89.5 L 124.5,100.4 L 98.5,115.4 Z" style="fill:#006BA4;fill-rule:evenodd;fill-opacity:1;stroke:#006BA4;stroke-width:2.0px;stroke-linecap:butt;stroke-linejoin:miter;stroke-opacity:1;"/>
<path class="bond-5 atom-5 atom-6" d="M 123.3,89.0 L 151.9,98.3 L 147.9,110.2 L 119.4,100.9 Z" style="fill:#FF800E;fill-rule:evenodd;fill-opacity:1;stroke:#FF800E;stroke-width:2.0px;stroke-linecap:butt;stroke-linejoin:miter;stroke-opacity:1;"/>
<path class="bond-6 atom-6 atom-7" d="M 144.8,100.5 L 162.4,76.3 L 172.6,83.7 L 155.0,108.0 Z" style="fill:#FF800E;fill-rule:evenodd;fill-opacity:1;stroke:#FF800E;stroke-width:2.0px;stroke-linecap:butt;stroke-linejoin:miter;stroke-opacity:1;"/>
<path class="bond-7 atom-7 atom-8" d="M 162.4,83.7 L 144.8,59.4 L 155.0,52.0 L 172.6,76.3 Z" style="fill:#FF800E;fill-rule:evenodd;fill-opacity:1;stroke:#FF800E;stroke-width:2.0px;stroke-linecap:butt;stroke-linejoin:miter;stroke-opacity:1;"/>
<path class="bond-8 atom-8 atom-9" d="M 151.9,61.7 L 123.3,71.0 L 119.5,59.0 L 148.0,49.7 Z" style="fill:#FF800E;fill-rule:evenodd;fill-opacity:1;stroke:#FF800E;stroke-width:2.0px;stroke-linecap:butt;stroke-linejoin:miter;stroke-opacity:1;"/>
<path class="bond-9 atom-9 atom-10" d="M 118.2,70.4 L 92.3,55.4 L 98.6,44.5 L 124.6,59.5 Z" style="fill:#006BA4;fill-rule:evenodd;fill-opacity:1;stroke:#006BA4;stroke-width:2.0px;stroke-linecap:butt;stroke-linejoin:miter;stroke-opacity:1;"/>
<path class="bond-14 atom-14 atom-15" d="M 237.1,102.9 L 252.1,76.9 L 263.0,83.2 L 248.0,109.2 Z" style="fill:#006BA4;fill-rule:evenodd;fill-opacity:1;stroke:#006BA4;stroke-width:2.0px;stroke-linecap:butt;stroke-linejoin:miter;stroke-opacity:1;"/>
<path class="bond-15 atom-15 atom-16" d="M 257.5,73.8 L 287.5,73.8 L 287.5,86.4 L 257.5,86.4 Z" style="fill:#006BA4;fill-rule:evenodd;fill-opacity:1;stroke:#006BA4;stroke-width:2.0px;stroke-linecap:butt;stroke-linejoin:miter;stroke-opacity:1;"/>
<path class="bond-16 atom-16 atom-17" d="M 293.0,76.9 L 308.0,102.9 L 297.0,109.2 L 282.1,83.2 Z" style="fill:#006BA4;fill-rule:evenodd;fill-opacity:1;stroke:#006BA4;stroke-width:2.0px;stroke-linecap:butt;stroke-linejoin:miter;stroke-opacity:1;"/>
<path class="bond-18 atom-17 atom-19" d="M 308.0,109.2 L 292.9,135.2 L 282.0,128.9 L 297.1,102.9 Z" style="fill:#006BA4;fill-rule:evenodd;fill-opacity:1;stroke:#006BA4;stroke-width:2.0px;stroke-linecap:butt;stroke-linejoin:miter;stroke-opacity:1;"/>
<path class="bond-21 atom-19 atom-22" d="M 287.5,138.3 L 257.5,138.3 L 257.5,125.7 L 287.5,125.7 Z" style="fill:#006BA4;fill-rule:evenodd;fill-opacity:1;stroke:#006BA4;stroke-width:2.0px;stroke-linecap:butt;stroke-linejoin:miter;stroke-opacity:1;"/>
<path class="bond-23 atom-10 atom-2" d="M 98.6,55.4 L 72.6,70.4 L 66.3,59.5 L 92.3,44.5 Z" style="fill:#006BA4;fill-rule:evenodd;fill-opacity:1;stroke:#006BA4;stroke-width:2.0px;stroke-linecap:butt;stroke-linejoin:miter;stroke-opacity:1;"/>
<path class="bond-24 atom-22 atom-14" d="M 252.0,135.2 L 237.1,109.2 L 248.0,102.9 L 262.9,128.9 Z" style="fill:#006BA4;fill-rule:evenodd;fill-opacity:1;stroke:#006BA4;stroke-width:2.0px;stroke-linecap:butt;stroke-linejoin:miter;stroke-opacity:1;"/>
<path class="bond-25 atom-9 atom-5" d="M 115.1,65.0 L 121.4,65.0 L 121.4,95.0 L 115.1,95.0 Z" style="fill:#006BA4;fill-rule:evenodd;fill-opacity:1;stroke:#006BA4;stroke-width:2.0px;stroke-linecap:butt;stroke-linejoin:miter;stroke-opacity:1;"/>
<path class="bond-25 atom-9 atom-5" d="M 121.4,65.0 L 127.7,65.0 L 127.7,95.0 L 121.4,95.0 Z" style="fill:#FF800E;fill-rule:evenodd;fill-opacity:1;stroke:#FF800E;stroke-width:2.0px;stroke-linecap:butt;stroke-linejoin:miter;stroke-opacity:1;"/>
<ellipse cx="69.4" cy="64.9" rx="9.0" ry="9.0" class="atom-2" style="fill:#006BA4;fill-rule:evenodd;stroke:#006BA4;stroke-width:1.0px;stroke-linecap:butt;stroke-linejoin:miter;stroke-opacity:1"/>
<ellipse cx="69.4" cy="94.9" rx="9.0" ry="9.0" class="atom-3" style="fill:#006BA4;fill-rule:evenodd;stroke:#006BA4;stroke-width:1.0px;stroke-linecap:butt;stroke-linejoin:miter;stroke-opacity:1"/>
<ellipse cx="95.4" cy="109.9" rx="9.0" ry="9.0" class="atom-4" style="fill:#006BA4;fill-rule:evenodd;stroke:#006BA4;stroke-width:1.0px;stroke-linecap:butt;stroke-linejoin:miter;stroke-opacity:1"/>
<path class="atom-5" d="M 121.4,86.0 L 122.1,86.0 L 122.9,86.1 L 123.6,86.3 L 124.4,86.5 L 125.1,86.8 L 125.8,87.1 L 126.4,87.5 L 127.0,88.0 L 127.6,88.5 L 128.1,89.0 L 128.6,89.6 L 129.0,90.2 L 129.4,90.9 L 129.7,91.6 L 130.0,92.3 L 130.2,93.1 L 130.3,93.8 L 130.4,94.6 L 130.4,95.3 L 130.3,96.1 L 130.2,96.9 L 130.0,97.6 L 129.7,98.3 L 129.4,99.0 L 129.0,99.7 L 128.6,100.3 L 128.1,100.9 L 127.6,101.5 L 127.0,102.0 L 126.4,102.4 L 125.8,102.8 L 125.1,103.2 L 124.4,103.4 L 123.6,103.7 L 122.9,103.8 L 122.1,103.9 L 121.4,104.0 L 121.4,95.0 Z" style="fill:#006BA4;fill-rule:evenodd;fill-opacity:1;stroke:#006BA4;stroke-width:1.0px;stroke-linecap:butt;stroke-linejoin:miter;stroke-opacity:1;"/>
<path class="atom-5" d="M 121.4,104.0 L 120.6,103.9 L 119.9,103.8 L 119.1,103.7 L 118.4,103.4 L 117.7,103.2 L 117.0,102.8 L 116.3,102.4 L 115.7,102.0 L 115.2,101.5 L 114.6,100.9 L 114.1,100.3 L 113.7,99.7 L 113.3,99.0 L 113.0,98.3 L 112.8,97.6 L 112.6,96.9 L 112.5,96.1 L 112.4,95.3 L 112.4,94.6 L 112.5,93.8 L 112.6,93.1 L 112.8,92.3 L 113.0,91.6 L 113.3,90.9 L 113.7,90.2 L 114.1,89.6 L 114.6,89.0 L 115.2,88.5 L 115.7,88.0 L 116.3,87.5 L 117.0,87.1 L 117.7,86.8 L 118.4,86.5 L 119.1,86.3 L 119.9,86.1 L 120.6,86.0 L 121.4,86.0 L 121.4,95.0 Z" style="fill:#006BA4;fill-rule:evenodd;fill-opacity:1;stroke:#006BA4;stroke-width:1.0px;stroke-linecap:butt;stroke-linejoin:miter;stroke-opacity:1;"/>
<ellipse cx="149.9" cy="104.3" rx="9.0" ry="9.0" class="atom-6" style="fill:#006BA4;fill-rule:evenodd;stroke:#006BA4;stroke-width:1.0px;stroke-linecap:butt;stroke-linejoin:miter;stroke-opacity:1"/>
<ellipse cx="167.5" cy="80.0" rx="9.0" ry="9.0" class="atom-7" style="fill:#006BA4;fill-rule:evenodd;stroke:#006BA4;stroke-width:1.0px;stroke-linecap:butt;stroke-linejoin:miter;stroke-opacity:1"/>
<ellipse cx="149.9" cy="55.7" rx="9.0" ry="9.0" class="atom-8" style="fill:#006BA4;fill-rule:evenodd;stroke:#006BA4;stroke-width:1.0px;stroke-linecap:butt;stroke-linejoin:miter;stroke-opacity:1"/>
<path class="atom-9" d="M 121.4,56.0 L 122.2,56.0 L 122.9,56.1 L 123.7,56.3 L 124.4,56.5 L 125.1,56.8 L 125.8,57.1 L 126.4,57.5 L 127.1,58.0 L 127.6,58.5 L 128.2,59.0 L 128.6,59.6 L 129.1,60.2 L 129.4,60.9 L 129.7,61.6 L 130.0,62.3 L 130.2,63.1 L 130.3,63.8 L 130.4,64.6 L 130.4,65.3 L 130.3,66.1 L 130.2,66.9 L 130.0,67.6 L 129.7,68.3 L 129.4,69.0 L 129.1,69.7 L 128.6,70.3 L 128.2,70.9 L 127.6,71.5 L 127.1,72.0 L 126.4,72.4 L 125.8,72.8 L 125.1,73.2 L 124.4,73.4 L 123.7,73.7 L 122.9,73.8 L 122.2,73.9 L 121.4,74.0 L 121.4,65.0 Z" style="fill:#006BA4;fill-rule:evenodd;fill-opacity:1;stroke:#006BA4;stroke-width:1.0px;stroke-linecap:butt;stroke-linejoin:miter;stroke-opacity:1;"/>
<path class="atom-9" d="M 121.4,74.0 L 120.6,73.9 L 119.9,73.8 L 119.1,73.7 L 118.4,73.4 L 117.7,73.2 L 117.0,72.8 L 116.4,72.4 L 115.7,72.0 L 115.2,71.5 L 114.6,70.9 L 114.2,70.3 L 113.7,69.7 L 113.4,69.0 L 113.0,68.3 L 112.8,67.6 L 112.6,66.9 L 112.5,66.1 L 112.4,65.3 L 112.4,64.6 L 112.5,63.8 L 112.6,63.1 L 112.8,62.3 L 113.0,61.6 L 113.4,60.9 L 113.7,60.2 L 114.2,59.6 L 114.6,59.0 L 115.2,58.5 L 115.7,58.0 L 116.4,57.5 L 117.0,57.1 L 117.7,56.8 L 118.4,56.5 L 119.1,56.3 L 119.9,56.1 L 120.6,56.0 L 121.4,56.0 L 121.4,65.0 Z" style="fill:#006BA4;fill-rule:evenodd;fill-opacity:1;stroke:#006BA4;stroke-width:1.0px;stroke-linecap:butt;stroke-linejoin:miter;stroke-opacity:1;"/>
<ellipse cx="95.4" cy="49.9" rx="9.0" ry="9.0" class="atom-10" style="fill:#006BA4;fill-rule:evenodd;stroke:#006BA4;stroke-width:1.0px;stroke-linecap:butt;stroke-linejoin:miter;stroke-opacity:1"/>
<ellipse cx="242.5" cy="106.0" rx="9.0" ry="9.0" class="atom-14" style="fill:#006BA4;fill-rule:evenodd;stroke:#006BA4;stroke-width:1.0px;stroke-linecap:butt;stroke-linejoin:miter;stroke-opacity:1"/>
<ellipse cx="257.5" cy="80.1" rx="9.0" ry="9.0" class="atom-15" style="fill:#006BA4;fill-rule:evenodd;stroke:#006BA4;stroke-width:1.0px;stroke-linecap:butt;stroke-linejoin:miter;stroke-opacity:1"/>
<ellipse cx="287.5" cy="80.1" rx="9.0" ry="9.0" class="atom-16" style="fill:#006BA4;fill-rule:evenodd;stroke:#006BA4;stroke-width:1.0px;stroke-linecap:butt;stroke-linejoin:miter;stroke-opacity:1"/>
<ellipse cx="302.5" cy="106.1" rx="9.0" ry="9.0" class="atom-17" style="fill:#006BA4;fill-rule:evenodd;stroke:#006BA4;stroke-width:1.0px;stroke-linecap:butt;stroke-linejoin:miter;stroke-opacity:1"/>
<ellipse cx="287.5" cy="132.0" rx="9.0" ry="9.0" class="atom-19" style="fill:#006BA4;fill-rule:evenodd;stroke:#006BA4;stroke-width:1.0px;stroke-linecap:butt;stroke-linejoin:miter;stroke-opacity:1"/>
<ellipse cx="257.5" cy="132.0" rx="9.0" ry="9.0" class="atom-22" style="fill:#006BA4;fill-rule:evenodd;stroke:#006BA4;stroke-width:1.0px;stroke-linecap:butt;stroke-linejoin:miter;stroke-opacity:1"/>
<path class="bond-0 atom-0 atom-1" d="M 17.5,64.9 L 36.6,53.8" style="fill:none;fill-rule:evenodd;stroke:#000000;stroke-width:2.0px;stroke-linecap:butt;stroke-linejoin:miter;stroke-opacity:1"/>
<path class="bond-1 atom-1 atom-2" d="M 50.3,53.9 L 69.4,64.9" style="fill:none;fill-rule:evenodd;stroke:#000000;stroke-width:2.0px;stroke-linecap:butt;stroke-linejoin:miter;stroke-opacity:1"/>
<path class="bond-2 atom-2 atom-3" d="M 69.4,64.9 L 69.4,94.9" style="fill:none;fill-rule:evenodd;stroke:#000000;stroke-width:2.0px;stroke-linecap:butt;stroke-linejoin:miter;stroke-opacity:1"/>
<path class="bond-2 atom-2 atom-3" d="M 73.9,67.5 L 73.9,92.3" style="fill:none;fill-rule:evenodd;stroke:#000000;stroke-width:2.0px;stroke-linecap:butt;stroke-linejoin:miter;stroke-opacity:1"/>
<path class="bond-3 atom-3 atom-4" d="M 69.4,94.9 L 95.4,109.9" style="fill:none;fill-rule:evenodd;stroke:#000000;stroke-width:2.0px;stroke-linecap:butt;stroke-linejoin:miter;stroke-opacity:1"/>
<path class="bond-4 atom-4 atom-5" d="M 95.4,109.9 L 121.4,95.0" style="fill:none;fill-rule:evenodd;stroke:#000000;stroke-width:2.0px;stroke-linecap:butt;stroke-linejoin:miter;stroke-opacity:1"/>
<path class="bond-4 atom-4 atom-5" d="M 95.4,104.7 L 116.9,92.4" style="fill:none;fill-rule:evenodd;stroke:#000000;stroke-width:2.0px;stroke-linecap:butt;stroke-linejoin:miter;stroke-opacity:1"/>
<path class="bond-5 atom-5 atom-6" d="M 121.4,95.0 L 144.1,102.4" style="fill:none;fill-rule:evenodd;stroke:#000000;stroke-width:2.0px;stroke-linecap:butt;stroke-linejoin:miter;stroke-opacity:1"/>
<path class="bond-6 atom-6 atom-7" d="M 155.3,96.9 L 167.5,80.0" style="fill:none;fill-rule:evenodd;stroke:#000000;stroke-width:2.0px;stroke-linecap:butt;stroke-linejoin:miter;stroke-opacity:1"/>
<path class="bond-6 atom-6 atom-7" d="M 151.6,94.2 L 162.0,80.0" style="fill:none;fill-rule:evenodd;stroke:#000000;stroke-width:2.0px;stroke-linecap:butt;stroke-linejoin:miter;stroke-opacity:1"/>
<path class="bond-7 atom-7 atom-8" d="M 167.5,80.0 L 155.3,63.1" style="fill:none;fill-rule:evenodd;stroke:#000000;stroke-width:2.0px;stroke-linecap:butt;stroke-linejoin:miter;stroke-opacity:1"/>
<path class="bond-8 atom-8 atom-9" d="M 144.1,57.6 L 121.4,65.0" style="fill:none;fill-rule:evenodd;stroke:#000000;stroke-width:2.0px;stroke-linecap:butt;stroke-linejoin:miter;stroke-opacity:1"/>
<path class="bond-9 atom-9 atom-10" d="M 121.4,65.0 L 95.4,49.9" style="fill:none;fill-rule:evenodd;stroke:#000000;stroke-width:2.0px;stroke-linecap:butt;stroke-linejoin:miter;stroke-opacity:1"/>
<path class="bond-9 atom-9 atom-10" d="M 116.9,67.6 L 95.4,55.1" style="fill:none;fill-rule:evenodd;stroke:#000000;stroke-width:2.0px;stroke-linecap:butt;stroke-linejoin:miter;stroke-opacity:1"/>
<path class="bond-10 atom-7 atom-11" d="M 167.5,80.0 L 192.5,80.0" style="fill:none;fill-rule:evenodd;stroke:#000000;stroke-width:2.0px;stroke-linecap:butt;stroke-linejoin:miter;stroke-opacity:1"/>
<path class="bond-11 atom-11 atom-12" d="M 203.7,73.8 L 210.1,62.8" style="fill:none;fill-rule:evenodd;stroke:#000000;stroke-width:2.0px;stroke-linecap:butt;stroke-linejoin:miter;stroke-opacity:1"/>
<path class="bond-11 atom-11 atom-12" d="M 199.8,71.6 L 206.2,60.6" style="fill:none;fill-rule:evenodd;stroke:#000000;stroke-width:2.0px;stroke-linecap:butt;stroke-linejoin:miter;stroke-opacity:1"/>
<path class="bond-12 atom-11 atom-13" d="M 203.8,91.8 L 204.6,91.3" style="fill:none;fill-rule:evenodd;stroke:#000000;stroke-width:1.0px;stroke-linecap:butt;stroke-linejoin:miter;stroke-opacity:1"/>
<path class="bond-12 atom-11 atom-13" d="M 205.1,94.9 L 206.6,94.0" style="fill:none;fill-rule:evenodd;stroke:#000000;stroke-width:1.0px;stroke-linecap:butt;stroke-linejoin:miter;stroke-opacity:1"/>
<path class="bond-12 atom-11 atom-13" d="M 206.4,98.0 L 208.7,96.7" style="fill:none;fill-rule:evenodd;stroke:#000000;stroke-width:1.0px;stroke-linecap:butt;stroke-linejoin:miter;stroke-opacity:1"/>
<path class="bond-12 atom-11 atom-13" d="M 207.6,101.1 L 210.7,99.3" style="fill:none;fill-rule:evenodd;stroke:#000000;stroke-width:1.0px;stroke-linecap:butt;stroke-linejoin:miter;stroke-opacity:1"/>
<path class="bond-12 atom-11 atom-13" d="M 208.9,104.2 L 212.8,102.0" style="fill:none;fill-rule:evenodd;stroke:#000000;stroke-width:1.0px;stroke-linecap:butt;stroke-linejoin:miter;stroke-opacity:1"/>
<path class="bond-13 atom-13 atom-14" d="M 212.5,106.0 L 242.5,106.0" style="fill:none;fill-rule:evenodd;stroke:#000000;stroke-width:2.0px;stroke-linecap:butt;stroke-linejoin:miter;stroke-opacity:1"/>
<path class="bond-14 atom-14 atom-15" d="M 242.5,106.0 L 253.3,87.4" style="fill:none;fill-rule:evenodd;stroke:#000000;stroke-width:2.0px;stroke-linecap:butt;stroke-linejoin:miter;stroke-opacity:1"/>
<path class="bond-14 atom-14 atom-15" d="M 247.7,106.0 L 257.2,89.7" style="fill:none;fill-rule:evenodd;stroke:#000000;stroke-width:2.0px;stroke-linecap:butt;stroke-linejoin:miter;stroke-opacity:1"/>
<path class="bond-15 atom-15 atom-16" d="M 263.4,80.1 L 287.5,80.1" style="fill:none;fill-rule:evenodd;stroke:#000000;stroke-width:2.0px;stroke-linecap:butt;stroke-linejoin:miter;stroke-opacity:1"/>
<path class="bond-16 atom-16 atom-17" d="M 287.5,80.1 L 302.5,106.1" style="fill:none;fill-rule:evenodd;stroke:#000000;stroke-width:2.0px;stroke-linecap:butt;stroke-linejoin:miter;stroke-opacity:1"/>
<path class="bond-16 atom-16 atom-17" d="M 284.9,84.6 L 297.3,106.1" style="fill:none;fill-rule:evenodd;stroke:#000000;stroke-width:2.0px;stroke-linecap:butt;stroke-linejoin:miter;stroke-opacity:1"/>
<path class="bond-17 atom-17 atom-18" d="M 302.5,106.1 L 332.5,106.1" style="fill:none;fill-rule:evenodd;stroke:#000000;stroke-width:2.0px;stroke-linecap:butt;stroke-linejoin:miter;stroke-opacity:1"/>
<path class="bond-18 atom-17 atom-19" d="M 302.5,106.1 L 287.5,132.0" style="fill:none;fill-rule:evenodd;stroke:#000000;stroke-width:2.0px;stroke-linecap:butt;stroke-linejoin:miter;stroke-opacity:1"/>
<path class="bond-19 atom-19 atom-20" d="M 287.5,132.0 L 298.2,150.6" style="fill:none;fill-rule:evenodd;stroke:#000000;stroke-width:2.0px;stroke-linecap:butt;stroke-linejoin:miter;stroke-opacity:1"/>
<path class="bond-20 atom-20 atom-21" d="M 309.3,158.0 L 332.5,158.1" style="fill:none;fill-rule:evenodd;stroke:#000000;stroke-width:2.0px;stroke-linecap:butt;stroke-linejoin:miter;stroke-opacity:1"/>
<path class="bond-21 atom-19 atom-22" d="M 287.5,132.0 L 257.5,132.0" style="fill:none;fill-rule:evenodd;stroke:#000000;stroke-width:2.0px;stroke-linecap:butt;stroke-linejoin:miter;stroke-opacity:1"/>
<path class="bond-21 atom-19 atom-22" d="M 284.9,127.5 L 260.1,127.5" style="fill:none;fill-rule:evenodd;stroke:#000000;stroke-width:2.0px;stroke-linecap:butt;stroke-linejoin:miter;stroke-opacity:1"/>
<path class="bond-22 atom-22 atom-23" d="M 257.5,132.0 L 242.5,158.0" style="fill:none;fill-rule:evenodd;stroke:#000000;stroke-width:2.0px;stroke-linecap:butt;stroke-linejoin:miter;stroke-opacity:1"/>
<path class="bond-23 atom-10 atom-2" d="M 95.4,49.9 L 69.4,64.9" style="fill:none;fill-rule:evenodd;stroke:#000000;stroke-width:2.0px;stroke-linecap:butt;stroke-linejoin:miter;stroke-opacity:1"/>
<path class="bond-24 atom-22 atom-14" d="M 257.5,132.0 L 242.5,106.0" style="fill:none;fill-rule:evenodd;stroke:#000000;stroke-width:2.0px;stroke-linecap:butt;stroke-linejoin:miter;stroke-opacity:1"/>
<path class="bond-25 atom-9 atom-5" d="M 121.4,65.0 L 121.4,95.0" style="fill:none;fill-rule:evenodd;stroke:#000000;stroke-width:2.0px;stroke-linecap:butt;stroke-linejoin:miter;stroke-opacity:1"/>
<path d="M 69.4,93.4 L 69.4,94.9 L 70.7,95.7" style="fill:none;stroke:#000000;stroke-width:2.0px;stroke-linecap:butt;stroke-linejoin:miter;stroke-opacity:1;"/>
<path d="M 94.1,109.2 L 95.4,109.9 L 96.7,109.2" style="fill:none;stroke:#000000;stroke-width:2.0px;stroke-linecap:butt;stroke-linejoin:miter;stroke-opacity:1;"/>
<path d="M 96.7,50.7 L 95.4,49.9 L 94.1,50.7" style="fill:none;stroke:#000000;stroke-width:2.0px;stroke-linecap:butt;stroke-linejoin:miter;stroke-opacity:1;"/>
<path d="M 286.3,80.1 L 287.5,80.1 L 288.3,81.4" style="fill:none;stroke:#000000;stroke-width:2.0px;stroke-linecap:butt;stroke-linejoin:miter;stroke-opacity:1;"/>
<path class="atom-1" d="M 37.6 49.9 Q 37.6 46.9, 39.2 45.2 Q 40.7 43.5, 43.5 43.5 Q 46.3 43.5, 47.8 45.2 Q 49.3 46.9, 49.3 49.9 Q 49.3 53.0, 47.8 54.8 Q 46.3 56.5, 43.5 56.5 Q 40.7 56.5, 39.2 54.8 Q 37.6 53.1, 37.6 49.9 M 43.5 55.1 Q 45.4 55.1, 46.5 53.8 Q 47.5 52.5, 47.5 49.9 Q 47.5 47.4, 46.5 46.2 Q 45.4 44.9, 43.5 44.9 Q 41.5 44.9, 40.5 46.2 Q 39.4 47.4, 39.4 49.9 Q 39.4 52.5, 40.5 53.8 Q 41.5 55.1, 43.5 55.1 " fill="#000000"/>
<path class="atom-6" d="M 147.1 97.9 L 151.3 104.6 Q 151.7 105.3, 152.3 106.5 Q 153.0 107.7, 153.0 107.8 L 153.0 97.9 L 154.7 97.9 L 154.7 110.6 L 153.0 110.6 L 148.5 103.2 Q 148.0 102.4, 147.4 101.4 Q 146.9 100.4, 146.7 100.1 L 146.7 110.6 L 145.1 110.6 L 145.1 97.9 L 147.1 97.9 " fill="#000000"/>
<path class="atom-8" d="M 147.1 49.3 L 151.3 56.1 Q 151.7 56.8, 152.4 58.0 Q 153.0 59.2, 153.1 59.2 L 153.1 49.3 L 154.8 49.3 L 154.8 62.1 L 153.0 62.1 L 148.5 54.7 Q 148.0 53.8, 147.5 52.9 Q 146.9 51.9, 146.8 51.6 L 146.8 62.1 L 145.1 62.1 L 145.1 49.3 L 147.1 49.3 " fill="#000000"/>
<path class="atom-8" d="M 145.0 35.3 L 146.7 35.3 L 146.7 40.7 L 153.2 40.7 L 153.2 35.3 L 154.9 35.3 L 154.9 48.1 L 153.2 48.1 L 153.2 42.2 L 146.7 42.2 L 146.7 48.1 L 145.0 48.1 L 145.0 35.3 " fill="#000000"/>
<path class="atom-11" d="M 193.9 84.4 Q 194.1 84.4, 194.7 84.7 Q 195.3 85.0, 195.9 85.1 Q 196.6 85.3, 197.2 85.3 Q 198.4 85.3, 199.1 84.7 Q 199.8 84.1, 199.8 83.1 Q 199.8 82.4, 199.5 81.9 Q 199.1 81.5, 198.6 81.3 Q 198.1 81.0, 197.2 80.8 Q 196.0 80.4, 195.3 80.1 Q 194.7 79.8, 194.2 79.1 Q 193.7 78.4, 193.7 77.2 Q 193.7 75.6, 194.8 74.7 Q 195.9 73.7, 198.1 73.7 Q 199.5 73.7, 201.2 74.4 L 200.8 75.8 Q 199.3 75.1, 198.1 75.1 Q 196.9 75.1, 196.2 75.6 Q 195.5 76.2, 195.5 77.0 Q 195.5 77.7, 195.9 78.1 Q 196.2 78.5, 196.7 78.8 Q 197.3 79.0, 198.1 79.3 Q 199.3 79.6, 200.0 80.0 Q 200.6 80.4, 201.1 81.1 Q 201.6 81.8, 201.6 83.1 Q 201.6 84.8, 200.4 85.8 Q 199.3 86.7, 197.3 86.7 Q 196.2 86.7, 195.3 86.5 Q 194.5 86.2, 193.5 85.8 L 193.9 84.4 " fill="#000000"/>
<path class="atom-12" d="M 206.7 54.1 Q 206.7 51.0, 208.2 49.3 Q 209.7 47.6, 212.6 47.6 Q 215.4 47.6, 216.9 49.3 Q 218.4 51.0, 218.4 54.1 Q 218.4 57.2, 216.9 59.0 Q 215.3 60.7, 212.6 60.7 Q 209.8 60.7, 208.2 59.0 Q 206.7 57.2, 206.7 54.1 M 212.6 59.3 Q 214.5 59.3, 215.5 58.0 Q 216.6 56.6, 216.6 54.1 Q 216.6 51.6, 215.5 50.3 Q 214.5 49.1, 212.6 49.1 Q 210.6 49.1, 209.6 50.3 Q 208.5 51.6, 208.5 54.1 Q 208.5 56.7, 209.6 58.0 Q 210.6 59.3, 212.6 59.3 " fill="#000000"/>
<path class="atom-15" d="M 254.7 73.7 L 258.9 80.4 Q 259.3 81.1, 260.0 82.3 Q 260.6 83.5, 260.7 83.6 L 260.7 73.7 L 262.4 73.7 L 262.4 86.4 L 260.6 86.4 L 256.1 79.1 Q 255.6 78.2, 255.1 77.2 Q 254.5 76.2, 254.4 75.9 L 254.4 86.4 L 252.7 86.4 L 252.7 73.7 L 254.7 73.7 " fill="#000000"/>
<path class="atom-20" d="M 296.6 158.1 Q 296.6 155.0, 298.1 153.3 Q 299.6 151.6, 302.5 151.6 Q 305.3 151.6, 306.8 153.3 Q 308.3 155.0, 308.3 158.1 Q 308.3 161.2, 306.8 162.9 Q 305.3 164.7, 302.5 164.7 Q 299.7 164.7, 298.1 162.9 Q 296.6 161.2, 296.6 158.1 M 302.5 163.2 Q 304.4 163.2, 305.5 161.9 Q 306.5 160.6, 306.5 158.1 Q 306.5 155.6, 305.5 154.3 Q 304.4 153.0, 302.5 153.0 Q 300.5 153.0, 299.5 154.3 Q 298.4 155.5, 298.4 158.1 Q 298.4 160.6, 299.5 161.9 Q 300.5 163.2, 302.5 163.2 " fill="#000000"/>
</svg>