<svg xmlns="http://www.w3.org/2000/svg" xmlns:rdkit="http://www.rdkit.org/xml" xmlns:xlink="http://www.w3.org/1999/xlink" version="1.1" baseProfile="full" xml:space="preserve" width="350px" height="200px" viewBox="0 0 350 200">
<!-- END OF HEADER -->
<rect style="opacity:1.0;fill:#FFFFFF;stroke:none" width="350.0" height="200.0" x="0.0" y="0.0"> </rect>
<ellipse cx="69.4" cy="67.7" rx="12.0" ry="12.0" class="atom-2" style="fill:#006BA4;fill-rule:evenodd;stroke:#006BA4;stroke-width:1.0px;stroke-linecap:butt;stroke-linejoin:miter;stroke-opacity:1"/>
<ellipse cx="69.4" cy="97.7" rx="12.0" ry="12.0" class="atom-3" style="fill:#006BA4;fill-rule:evenodd;stroke:#006BA4;stroke-width:1.0px;stroke-linecap:butt;stroke-linejoin:miter;stroke-opacity:1"/>
<ellipse cx="95.4" cy="112.7" rx="12.0" ry="12.0" class="atom-4" style="fill:#006BA4;fill-rule:evenodd;stroke:#006BA4;stroke-width:1.0px;stroke-linecap:butt;stroke-linejoin:miter;stroke-opacity:1"/>
<path class="atom-5" d="M 121.4,85.7 L 122.4,85.8 L 123.4,85.9 L 124.4,86.1 L 125.4,86.4 L 126.3,86.8 L 127.2,87.3 L 128.1,87.8 L 128.9,88.4 L 129.7,89.1 L 130.4,89.8 L 131.0,90.6 L 131.6,91.4 L 132.1,92.3 L 132.5,93.3 L 132.9,94.2 L 133.1,95.2 L 133.3,96.2 L 133.4,97.2 L 133.4,98.2 L 133.3,99.3 L 133.1,100.3 L 132.9,101.2 L 132.5,102.2 L 132.1,103.1 L 131.6,104.0 L 131.0,104.9 L 130.4,105.7 L 129.7,106.4 L 128.9,107.1 L 128.1,107.7 L 127.2,108.2 L 126.3,108.7 L 125.4,109.0 L 124.4,109.3 L 123.4,109.6 L 122.4,109.7 L 121.4,109.7 L 121.4,97.7 Z" style="fill:#006BA4;fill-rule:evenodd;fill-opacity:1;stroke:#006BA4;stroke-width:1.0px;stroke-linecap:butt;stroke-linejoin:miter;stroke-opacity:1;"/>
<path class="atom-5" d="M 121.4,109.7 L 120.4,109.7 L 119.4,109.6 L 118.4,109.3 L 117.4,109.0 L 116.4,108.7 L 115.5,108.2 L 114.7,107.7 L 113.8,107.1 L 113.1,106.4 L 112.4,105.7 L 111.7,104.9 L 111.2,104.0 L 110.7,103.1 L 110.2,102.2 L 109.9,101.2 L 109.7,100.3 L 109.5,99.3 L 109.4,98.2 L 109.4,97.2 L 109.5,96.2 L 109.7,95.2 L 109.9,94.2 L 110.2,93.3 L 110.7,92.3 L 111.2,91.4 L 111.7,90.6 L 112.4,89.8 L 113.1,89.1 L 113.8,88.4 L 114.7,87.8 L 115.5,87.3 L 116.4,86.8 L 117.4,86.4 L 118.4,86.1 L 119.4,85.9 L 120.4,85.8 L 121.4,85.7 L 121.4,97.7 Z" style="fill:#FF800E;fill-rule:evenodd;fill-opacity:1;stroke:#FF800E;stroke-width:1.0px;stroke-linecap:butt;stroke-linejoin:miter;stroke-opacity:1;"/>
<ellipse cx="149.9" cy="107.0" rx="12.0" ry="12.0" class="atom-6" style="fill:#FF800E;fill-rule:evenodd;stroke:#FF800E;stroke-width:1.0px;stroke-linecap:butt;stroke-linejoin:miter;stroke-opacity:1"/>
<ellipse cx="167.5" cy="82.8" rx="12.0" ry="12.0" class="atom-7" style="fill:#FF800E;fill-rule:evenodd;stroke:#FF800E;stroke-width:1.0px;stroke-linecap:butt;stroke-linejoin:miter;stroke-opacity:1"/>
<ellipse cx="149.9" cy="51.5" rx="12.0" ry="18.9" class="atom-8" style="fill:#FF800E;fill-rule:evenodd;stroke:#FF800E;stroke-width:1.0px;stroke-linecap:butt;stroke-linejoin:miter;stroke-opacity:1"/>
<path class="atom-9" d="M 121.4,55.7 L 122.4,55.8 L 123.4,55.9 L 124.4,56.1 L 125.4,56.4 L 126.3,56.8 L 127.2,57.3 L 128.1,57.8 L 128.9,58.4 L 129.7,59.1 L 130.4,59.8 L 131.0,60.6 L 131.6,61.4 L 132.1,62.3 L 132.5,63.3 L 132.9,64.2 L 133.1,65.2 L 133.3,66.2 L 133.4,67.2 L 133.4,68.2 L 133.3,69.3 L 133.1,70.3 L 132.9,71.2 L 132.5,72.2 L 132.1,73.1 L 131.6,74.0 L 131.0,74.9 L 130.4,75.7 L 129.7,76.4 L 128.9,77.1 L 128.1,77.7 L 127.2,78.2 L 126.3,78.7 L 125.4,79.0 L 124.4,79.3 L 123.4,79.6 L 122.4,79.7 L 121.4,79.7 L 121.4,67.7 Z" style="fill:#006BA4;fill-rule:evenodd;fill-opacity:1;stroke:#006BA4;stroke-width:1.0px;stroke-linecap:butt;stroke-linejoin:miter;stroke-opacity:1;"/>
<path class="atom-9" d="M 121.4,79.7 L 120.4,79.7 L 119.4,79.6 L 118.4,79.3 L 117.4,79.0 L 116.5,78.7 L 115.5,78.2 L 114.7,77.7 L 113.9,77.1 L 113.1,76.4 L 112.4,75.7 L 111.8,74.9 L 111.2,74.0 L 110.7,73.1 L 110.3,72.2 L 109.9,71.2 L 109.7,70.3 L 109.5,69.3 L 109.4,68.2 L 109.4,67.2 L 109.5,66.2 L 109.7,65.2 L 109.9,64.2 L 110.3,63.3 L 110.7,62.3 L 111.2,61.4 L 111.8,60.6 L 112.4,59.8 L 113.1,59.1 L 113.9,58.4 L 114.7,57.8 L 115.5,57.3 L 116.5,56.8 L 117.4,56.4 L 118.4,56.1 L 119.4,55.9 L 120.4,55.8 L 121.4,55.7 L 121.4,67.7 Z" style="fill:#FF800E;fill-rule:evenodd;fill-opacity:1;stroke:#FF800E;stroke-width:1.0px;stroke-linecap:butt;stroke-linejoin:miter;stroke-opacity:1;"/>
<ellipse cx="95.4" cy="52.7" rx="12.0" ry="12.0" class="atom-10" style="fill:#006BA4;fill-rule:evenodd;stroke:#006BA4;stroke-width:1.0px;stroke-linecap:butt;stroke-linejoin:miter;stroke-opacity:1"/>
<ellipse cx="242.5" cy="108.8" rx="12.0" ry="12.0" class="atom-14" style="fill:#006BA4;fill-rule:evenodd;stroke:#006BA4;stroke-width:1.0px;stroke-linecap:butt;stroke-linejoin:miter;stroke-opacity:1"/>
<ellipse cx="257.5" cy="82.8" rx="12.0" ry="12.0" class="atom-15" style="fill:#006BA4;fill-rule:evenodd;stroke:#006BA4;stroke-width:1.0px;stroke-linecap:butt;stroke-linejoin:miter;stroke-opacity:1"/>
<ellipse cx="287.5" cy="82.9" rx="12.0" ry="12.0" class="atom-16" style="fill:#006BA4;fill-rule:evenodd;stroke:#006BA4;stroke-width:1.0px;stroke-linecap:butt;stroke-linejoin:miter;stroke-opacity:1"/>
<ellipse cx="302.5" cy="108.9" rx="12.0" ry="12.0" class="atom-17" style="fill:#006BA4;fill-rule:evenodd;stroke:#006BA4;stroke-width:1.0px;stroke-linecap:butt;stroke-linejoin:miter;stroke-opacity:1"/>
<ellipse cx="287.5" cy="134.8" rx="12.0" ry="12.0" class="atom-19" style="fill:#006BA4;fill-rule:evenodd;stroke:#006BA4;stroke-width:1.0px;stroke-linecap:butt;stroke-linejoin:miter;stroke-opacity:1"/>
<ellipse cx="257.5" cy="134.8" rx="12.0" ry="12.0" class="atom-22" style="fill:#006BA4;fill-rule:evenodd;stroke:#006BA4;stroke-width:1.0px;stroke-linecap:butt;stroke-linejoin:miter;stroke-opacity:1"/>
<path class="bond-0 atom-0 atom-1" d="M 17.5,67.7 L 36.6,56.6" style="fill:none;fill-rule:evenodd;stroke:#000000;stroke-width:2.0px;stroke-linecap:butt;stroke-linejoin:miter;stroke-opacity:1"/>
<path class="bond-1 atom-1 atom-2" d="M 50.3,56.6 L 69.4,67.7" style="fill:none;fill-rule:evenodd;stroke:#000000;stroke-width:2.0px;stroke-linecap:butt;stroke-linejoin:miter;stroke-opacity:1"/>
<path class="bond-2 atom-2 atom-3" d="M 69.4,67.7 L 69.4,97.7" style="fill:none;fill-rule:evenodd;stroke:#000000;stroke-width:2.0px;stroke-linecap:butt;stroke-linejoin:miter;stroke-opacity:1"/>
<path class="bond-2 atom-2 atom-3" d="M 73.9,70.3 L 73.9,95.1" style="fill:none;fill-rule:evenodd;stroke:#000000;stroke-width:2.0px;stroke-linecap:butt;stroke-linejoin:miter;stroke-opacity:1"/>
<path class="bond-3 atom-3 atom-4" d="M 69.4,97.7 L 95.4,112.7" style="fill:none;fill-rule:evenodd;stroke:#000000;stroke-width:2.0px;stroke-linecap:butt;stroke-linejoin:miter;stroke-opacity:1"/>
<path class="bond-4 atom-4 atom-5" d="M 95.4,112.7 L 121.4,97.7" style="fill:none;fill-rule:evenodd;stroke:#000000;stroke-width:2.0px;stroke-linecap:butt;stroke-linejoin:miter;stroke-opacity:1"/>
<path class="bond-4 atom-4 atom-5" d="M 95.4,107.5 L 116.9,95.1" style="fill:none;fill-rule:evenodd;stroke:#000000;stroke-width:2.0px;stroke-linecap:butt;stroke-linejoin:miter;stroke-opacity:1"/>
<path class="bond-5 atom-5 atom-6" d="M 121.4,97.7 L 144.1,105.1" style="fill:none;fill-rule:evenodd;stroke:#000000;stroke-width:2.0px;stroke-linecap:butt;stroke-linejoin:miter;stroke-opacity:1"/>
<path class="bond-6 atom-6 atom-7" d="M 155.3,99.7 L 167.5,82.8" style="fill:none;fill-rule:evenodd;stroke:#000000;stroke-width:2.0px;stroke-linecap:butt;stroke-linejoin:miter;stroke-opacity:1"/>
<path class="bond-6 atom-6 atom-7" d="M 151.6,97.0 L 162.0,82.8" style="fill:none;fill-rule:evenodd;stroke:#000000;stroke-width:2.0px;stroke-linecap:butt;stroke-linejoin:miter;stroke-opacity:1"/>
<path class="bond-7 atom-7 atom-8" d="M 167.5,82.8 L 155.3,65.8" style="fill:none;fill-rule:evenodd;stroke:#000000;stroke-width:2.0px;stroke-linecap:butt;stroke-linejoin:miter;stroke-opacity:1"/>
<path class="bond-8 atom-8 atom-9" d="M 144.1,60.4 L 121.4,67.7" style="fill:none;fill-rule:evenodd;stroke:#000000;stroke-width:2.0px;stroke-linecap:butt;stroke-linejoin:miter;stroke-opacity:1"/>
<path class="bond-9 atom-9 atom-10" d="M 121.4,67.7 L 95.4,52.7" style="fill:none;fill-rule:evenodd;stroke:#000000;stroke-width:2.0px;stroke-linecap:butt;stroke-linejoin:miter;stroke-opacity:1"/>
<path class="bond-9 atom-9 atom-10" d="M 116.9,70.3 L 95.4,57.9" style="fill:none;fill-rule:evenodd;stroke:#000000;stroke-width:2.0px;stroke-linecap:butt;stroke-linejoin:miter;stroke-opacity:1"/>
<path class="bond-10 atom-7 atom-11" d="M 167.5,82.8 L 192.5,82.8" style="fill:none;fill-rule:evenodd;stroke:#000000;stroke-width:2.0px;stroke-linecap:butt;stroke-linejoin:miter;stroke-opacity:1"/>
<path class="bond-11 atom-11 atom-12" d="M 203.7,76.6 L 210.1,65.6" style="fill:none;fill-rule:evenodd;stroke:#000000;stroke-width:2.0px;stroke-linecap:butt;stroke-linejoin:miter;stroke-opacity:1"/>
<path class="bond-11 atom-11 atom-12" d="M 199.8,74.3 L 206.2,63.3" style="fill:none;fill-rule:evenodd;stroke:#000000;stroke-width:2.0px;stroke-linecap:butt;stroke-linejoin:miter;stroke-opacity:1"/>
<path class="bond-12 atom-11 atom-13" d="M 203.8,94.6 L 204.6,94.1" style="fill:none;fill-rule:evenodd;stroke:#000000;stroke-width:1.0px;stroke-linecap:butt;stroke-linejoin:miter;stroke-opacity:1"/>
<path class="bond-12 atom-11 atom-13" d="M 205.1,97.7 L 206.6,96.8" style="fill:none;fill-rule:evenodd;stroke:#000000;stroke-width:1.0px;stroke-linecap:butt;stroke-linejoin:miter;stroke-opacity:1"/>
<path class="bond-12 atom-11 atom-13" d="M 206.4,100.8 L 208.7,99.4" style="fill:none;fill-rule:evenodd;stroke:#000000;stroke-width:1.0px;stroke-linecap:butt;stroke-linejoin:miter;stroke-opacity:1"/>
<path class="bond-12 atom-11 atom-13" d="M 207.6,103.9 L 210.7,102.1" style="fill:none;fill-rule:evenodd;stroke:#000000;stroke-width:1.0px;stroke-linecap:butt;stroke-linejoin:miter;stroke-opacity:1"/>
<path class="bond-12 atom-11 atom-13" d="M 208.9,107.0 L 212.8,104.7" style="fill:none;fill-rule:evenodd;stroke:#000000;stroke-width:1.0px;stroke-linecap:butt;stroke-linejoin:miter;stroke-opacity:1"/>
<path class="bond-13 atom-13 atom-14" d="M 212.5,108.8 L 242.5,108.8" style="fill:none;fill-rule:evenodd;stroke:#000000;stroke-width:2.0px;stroke-linecap:butt;stroke-linejoin:miter;stroke-opacity:1"/>
<path class="bond-14 atom-14 atom-15" d="M 242.5,108.8 L 253.3,90.2" style="fill:none;fill-rule:evenodd;stroke:#000000;stroke-width:2.0px;stroke-linecap:butt;stroke-linejoin:miter;stroke-opacity:1"/>
<path class="bond-14 atom-14 atom-15" d="M 247.7,108.8 L 257.2,92.5" style="fill:none;fill-rule:evenodd;stroke:#000000;stroke-width:2.0px;stroke-linecap:butt;stroke-linejoin:miter;stroke-opacity:1"/>
<path class="bond-15 atom-15 atom-16" d="M 263.4,82.8 L 287.5,82.9" style="fill:none;fill-rule:evenodd;stroke:#000000;stroke-width:2.0px;stroke-linecap:butt;stroke-linejoin:miter;stroke-opacity:1"/>
<path class="bond-16 atom-16 atom-17" d="M 287.5,82.9 L 302.5,108.9" style="fill:none;fill-rule:evenodd;stroke:#000000;stroke-width:2.0px;stroke-linecap:butt;stroke-linejoin:miter;stroke-opacity:1"/>
<path class="bond-16 atom-16 atom-17" d="M 284.9,87.4 L 297.3,108.8" style="fill:none;fill-rule:evenodd;stroke:#000000;stroke-width:2.0px;stroke-linecap:butt;stroke-linejoin:miter;stroke-opacity:1"/>
<path class="bond-17 atom-17 atom-18" d="M 302.5,108.9 L 332.5,108.9" style="fill:none;fill-rule:evenodd;stroke:#000000;stroke-width:2.0px;stroke-linecap:butt;stroke-linejoin:miter;stroke-opacity:1"/>
<path class="bond-18 atom-17 atom-19" d="M 302.5,108.9 L 287.5,134.8" style="fill:none;fill-rule:evenodd;stroke:#000000;stroke-width:2.0px;stroke-linecap:butt;stroke-linejoin:miter;stroke-opacity:1"/>
<path class="bond-19 atom-19 atom-20" d="M 287.5,134.8 L 298.2,153.4" style="fill:none;fill-rule:evenodd;stroke:#000000;stroke-width:2.0px;stroke-linecap:butt;stroke-linejoin:miter;stroke-opacity:1"/>
<path class="bond-20 atom-20 atom-21" d="M 309.3,160.8 L 332.5,160.8" style="fill:none;fill-rule:evenodd;stroke:#000000;stroke-width:2.0px;stroke-linecap:butt;stroke-linejoin:miter;stroke-opacity:1"/>
<path class="bond-21 atom-19 atom-22" d="M 287.5,134.8 L 257.5,134.8" style="fill:none;fill-rule:evenodd;stroke:#000000;stroke-width:2.0px;stroke-linecap:butt;stroke-linejoin:miter;stroke-opacity:1"/>
<path class="bond-21 atom-19 atom-22" d="M 284.9,130.3 L 260.1,130.3" style="fill:none;fill-rule:evenodd;stroke:#000000;stroke-width:2.0px;stroke-linecap:butt;stroke-linejoin:miter;stroke-opacity:1"/>
<path class="bond-22 atom-22 atom-23" d="M 257.5,134.8 L 242.5,160.8" style="fill:none;fill-rule:evenodd;stroke:#000000;stroke-width:2.0px;stroke-linecap:butt;stroke-linejoin:miter;stroke-opacity:1"/>
<path class="bond-23 atom-10 atom-2" d="M 95.4,52.7 L 69.4,67.7" style="fill:none;fill-rule:evenodd;stroke:#000000;stroke-width:2.0px;stroke-linecap:butt;stroke-linejoin:miter;stroke-opacity:1"/>
<path class="bond-24 atom-22 atom-14" d="M 257.5,134.8 L 242.5,108.8" style="fill:none;fill-rule:evenodd;stroke:#000000;stroke-width:2.0px;stroke-linecap:butt;stroke-linejoin:miter;stroke-opacity:1"/>
<path class="bond-25 atom-9 atom-5" d="M 121.4,67.7 L 121.4,97.7" style="fill:none;fill-rule:evenodd;stroke:#000000;stroke-width:2.0px;stroke-linecap:butt;stroke-linejoin:miter;stroke-opacity:1"/>
<path d="M 69.4,96.2 L 69.4,97.7 L 70.7,98.4" style="fill:none;stroke:#000000;stroke-width:2.0px;stroke-linecap:butt;stroke-linejoin:miter;stroke-opacity:1;"/>
<path d="M 94.1,112.0 L 95.4,112.7 L 96.7,112.0" style="fill:none;stroke:#000000;stroke-width:2.0px;stroke-linecap:butt;stroke-linejoin:miter;stroke-opacity:1;"/>
<path d="M 96.7,53.5 L 95.4,52.7 L 94.1,53.5" style="fill:none;stroke:#000000;stroke-width:2.0px;stroke-linecap:butt;stroke-linejoin:miter;stroke-opacity:1;"/>
<path d="M 286.3,82.9 L 287.5,82.9 L 288.3,84.2" style="fill:none;stroke:#000000;stroke-width:2.0px;stroke-linecap:butt;stroke-linejoin:miter;stroke-opacity:1;"/>
<path class="atom-1" d="M 37.6 52.7 Q 37.6 49.7, 39.2 47.9 Q 40.7 46.2, 43.5 46.2 Q 46.3 46.2, 47.8 47.9 Q 49.3 49.7, 49.3 52.7 Q 49.3 55.8, 47.8 57.6 Q 46.3 59.3, 43.5 59.3 Q 40.7 59.3, 39.2 57.6 Q 37.6 55.8, 37.6 52.7 M 43.5 57.9 Q 45.4 57.9, 46.5 56.6 Q 47.5 55.3, 47.5 52.7 Q 47.5 50.2, 46.5 49.0 Q 45.4 47.7, 43.5 47.7 Q 41.5 47.7, 40.5 48.9 Q 39.4 50.2, 39.4 52.7 Q 39.4 55.3, 40.5 56.6 Q 41.5 57.9, 43.5 57.9 " fill="#000000"/>
<path class="atom-6" d="M 147.1 100.7 L 151.3 107.4 Q 151.7 108.1, 152.3 109.3 Q 153.0 110.5, 153.0 110.5 L 153.0 100.7 L 154.7 100.7 L 154.7 113.4 L 153.0 113.4 L 148.5 106.0 Q 148.0 105.2, 147.4 104.2 Q 146.9 103.2, 146.7 102.9 L 146.7 113.4 L 145.1 113.4 L 145.1 100.7 L 147.1 100.7 " fill="#000000"/>
<path class="atom-8" d="M 147.1 52.1 L 151.3 58.9 Q 151.7 59.5, 152.4 60.7 Q 153.0 61.9, 153.1 62.0 L 153.1 52.1 L 154.8 52.1 L 154.8 64.9 L 153.0 64.9 L 148.5 57.5 Q 148.0 56.6, 147.5 55.6 Q 146.9 54.6, 146.8 54.3 L 146.8 64.9 L 145.1 64.9 L 145.1 52.1 L 147.1 52.1 " fill="#000000"/>
<path class="atom-8" d="M 145.0 38.1 L 146.7 38.1 L 146.7 43.5 L 153.2 43.5 L 153.2 38.1 L 154.9 38.1 L 154.9 50.8 L 153.2 50.8 L 153.2 45.0 L 146.7 45.0 L 146.7 50.8 L 145.0 50.8 L 145.0 38.1 " fill="#000000"/>
<path class="atom-11" d="M 193.9 87.2 Q 194.1 87.2, 194.7 87.5 Q 195.3 87.7, 195.9 87.9 Q 196.6 88.0, 197.2 88.0 Q 198.4 88.0, 199.1 87.5 Q 199.8 86.9, 199.8 85.8 Q 199.8 85.1, 199.5 84.7 Q 199.1 84.3, 198.6 84.0 Q 198.1 83.8, 197.2 83.5 Q 196.0 83.2, 195.3 82.9 Q 194.7 82.5, 194.2 81.9 Q 193.7 81.2, 193.7 80.0 Q 193.7 78.4, 194.8 77.4 Q 195.9 76.4, 198.1 76.4 Q 199.5 76.4, 201.2 77.1 L 200.8 78.5 Q 199.3 77.9, 198.1 77.9 Q 196.9 77.9, 196.2 78.4 Q 195.5 78.9, 195.5 79.8 Q 195.5 80.5, 195.9 80.9 Q 196.2 81.3, 196.7 81.6 Q 197.3 81.8, 198.1 82.1 Q 199.3 82.4, 200.0 82.8 Q 200.6 83.1, 201.1 83.9 Q 201.6 84.6, 201.6 85.8 Q 201.6 87.6, 200.4 88.6 Q 199.3 89.5, 197.3 89.5 Q 196.2 89.5, 195.3 89.2 Q 194.5 89.0, 193.5 88.6 L 193.9 87.2 " fill="#000000"/>
<path class="atom-12" d="M 206.7 56.9 Q 206.7 53.8, 208.2 52.1 Q 209.7 50.4, 212.6 50.4 Q 215.4 50.4, 216.9 52.1 Q 218.4 53.8, 218.4 56.9 Q 218.4 60.0, 216.9 61.7 Q 215.3 63.5, 212.6 63.5 Q 209.8 63.5, 208.2 61.7 Q 206.7 60.0, 206.7 56.9 M 212.6 62.0 Q 214.5 62.0, 215.5 60.7 Q 216.6 59.4, 216.6 56.9 Q 216.6 54.4, 215.5 53.1 Q 214.5 51.8, 212.6 51.8 Q 210.6 51.8, 209.6 53.1 Q 208.5 54.3, 208.5 56.9 Q 208.5 59.4, 209.6 60.7 Q 210.6 62.0, 212.6 62.0 " fill="#000000"/>
<path class="atom-15" d="M 254.7 76.5 L 258.9 83.2 Q 259.3 83.9, 260.0 85.1 Q 260.6 86.3, 260.7 86.4 L 260.7 76.5 L 262.4 76.5 L 262.4 89.2 L 260.6 89.2 L 256.1 81.8 Q 255.6 81.0, 255.1 80.0 Q 254.5 79.0, 254.4 78.7 L 254.4 89.2 L 252.7 89.2 L 252.7 76.5 L 254.7 76.5 " fill="#000000"/>
<path class="atom-20" d="M 296.6 160.8 Q 296.6 157.8, 298.1 156.1 Q 299.6 154.4, 302.5 154.4 Q 305.3 154.4, 306.8 156.1 Q 308.3 157.8, 308.3 160.8 Q 308.3 163.9, 306.8 165.7 Q 305.3 167.4, 302.5 167.4 Q 299.7 167.4, 298.1 165.7 Q 296.6 164.0, 296.6 160.8 M 302.5 166.0 Q 304.4 166.0, 305.5 164.7 Q 306.5 163.4, 306.5 160.8 Q 306.5 158.3, 305.5 157.1 Q 304.4 155.8, 302.5 155.8 Q 300.5 155.8, 299.5 157.1 Q 298.4 158.3, 298.4 160.8 Q 298.4 163.4, 299.5 164.7 Q 300.5 166.0, 302.5 166.0 " fill="#000000"/>
</svg>