<svg xmlns="http://www.w3.org/2000/svg" xmlns:rdkit="http://www.rdkit.org/xml" xmlns:xlink="http://www.w3.org/1999/xlink" version="1.1" baseProfile="full" xml:space="preserve" width="550px" height="350px" viewBox="0 0 550 350">
<!-- END OF HEADER -->
<rect style="opacity:1.0;fill:#FFFFFF;stroke:none" width="550.0" height="350.0" x="0.0" y="0.0"> </rect>
<ellipse cx="72.9" cy="123.6" rx="1.9" ry="1.9" class="atom-0" style="fill:#FF7F7F;fill-rule:evenodd;stroke:#FF7F7F;stroke-width:1.0px;stroke-linecap:butt;stroke-linejoin:miter;stroke-opacity:1"/>
<ellipse cx="106.5" cy="104.2" rx="7.8" ry="7.8" class="atom-1" style="fill:#7F7FFF;fill-rule:evenodd;stroke:#7F7FFF;stroke-width:1.0px;stroke-linecap:butt;stroke-linejoin:miter;stroke-opacity:1"/>
<ellipse cx="140.2" cy="123.6" rx="1.9" ry="1.9" class="atom-2" style="fill:#FF7F7F;fill-rule:evenodd;stroke:#FF7F7F;stroke-width:1.0px;stroke-linecap:butt;stroke-linejoin:miter;stroke-opacity:1"/>
<ellipse cx="140.2" cy="162.5" rx="3.9" ry="3.9" class="atom-3" style="fill:#7F7FFF;fill-rule:evenodd;stroke:#7F7FFF;stroke-width:1.0px;stroke-linecap:butt;stroke-linejoin:miter;stroke-opacity:1"/>
<ellipse cx="173.8" cy="182.0" rx="1.9" ry="1.9" class="atom-4" style="fill:#7F7FFF;fill-rule:evenodd;stroke:#7F7FFF;stroke-width:1.0px;stroke-linecap:butt;stroke-linejoin:miter;stroke-opacity:1"/>
<ellipse cx="244.5" cy="174.7" rx="11.7" ry="11.7" class="atom-6" style="fill:#7F7FFF;fill-rule:evenodd;stroke:#7F7FFF;stroke-width:1.0px;stroke-linecap:butt;stroke-linejoin:miter;stroke-opacity:1"/>
<ellipse cx="267.4" cy="143.2" rx="7.8" ry="7.8" class="atom-7" style="fill:#FF7F7F;fill-rule:evenodd;stroke:#FF7F7F;stroke-width:1.0px;stroke-linecap:butt;stroke-linejoin:miter;stroke-opacity:1"/>
<ellipse cx="244.6" cy="111.7" rx="5.8" ry="5.8" class="atom-8" style="fill:#7F7FFF;fill-rule:evenodd;stroke:#7F7FFF;stroke-width:1.0px;stroke-linecap:butt;stroke-linejoin:miter;stroke-opacity:1"/>
<ellipse cx="207.5" cy="123.7" rx="1.9" ry="1.9" class="atom-9" style="fill:#7F7FFF;fill-rule:evenodd;stroke:#7F7FFF;stroke-width:1.0px;stroke-linecap:butt;stroke-linejoin:miter;stroke-opacity:1"/>
<ellipse cx="174.0" cy="104.3" rx="3.9" ry="3.9" class="atom-10" style="fill:#7F7FFF;fill-rule:evenodd;stroke:#7F7FFF;stroke-width:1.0px;stroke-linecap:butt;stroke-linejoin:miter;stroke-opacity:1"/>
<ellipse cx="306.2" cy="143.2" rx="5.8" ry="5.8" class="atom-11" style="fill:#FF7F7F;fill-rule:evenodd;stroke:#FF7F7F;stroke-width:1.0px;stroke-linecap:butt;stroke-linejoin:miter;stroke-opacity:1"/>
<ellipse cx="325.7" cy="109.5" rx="11.7" ry="11.7" class="atom-12" style="fill:#7F7FFF;fill-rule:evenodd;stroke:#7F7FFF;stroke-width:1.0px;stroke-linecap:butt;stroke-linejoin:miter;stroke-opacity:1"/>
<ellipse cx="325.3" cy="176.7" rx="3.9" ry="3.9" class="atom-13" style="fill:#7F7FFF;fill-rule:evenodd;stroke:#7F7FFF;stroke-width:1.0px;stroke-linecap:butt;stroke-linejoin:miter;stroke-opacity:1"/>
<ellipse cx="364.6" cy="177.0" rx="7.8" ry="7.8" class="atom-14" style="fill:#FF7F7F;fill-rule:evenodd;stroke:#FF7F7F;stroke-width:1.0px;stroke-linecap:butt;stroke-linejoin:miter;stroke-opacity:1"/>
<ellipse cx="384.0" cy="143.3" rx="13.6" ry="13.6" class="atom-15" style="fill:#7F7FFF;fill-rule:evenodd;stroke:#7F7FFF;stroke-width:1.0px;stroke-linecap:butt;stroke-linejoin:miter;stroke-opacity:1"/>
<ellipse cx="423.0" cy="143.3" rx="5.8" ry="5.8" class="atom-16" style="fill:#FF7F7F;fill-rule:evenodd;stroke:#FF7F7F;stroke-width:1.0px;stroke-linecap:butt;stroke-linejoin:miter;stroke-opacity:1"/>
<ellipse cx="442.3" cy="176.9" rx="5.8" ry="5.8" class="atom-17" style="fill:#7F7FFF;fill-rule:evenodd;stroke:#7F7FFF;stroke-width:1.0px;stroke-linecap:butt;stroke-linejoin:miter;stroke-opacity:1"/>
<ellipse cx="484.9" cy="172.3" rx="1.9" ry="1.9" class="atom-18" style="fill:#7F7FFF;fill-rule:evenodd;stroke:#7F7FFF;stroke-width:1.0px;stroke-linecap:butt;stroke-linejoin:miter;stroke-opacity:1"/>
<ellipse cx="423.0" cy="210.7" rx="1.9" ry="1.9" class="atom-19" style="fill:#FF7F7F;fill-rule:evenodd;stroke:#FF7F7F;stroke-width:1.0px;stroke-linecap:butt;stroke-linejoin:miter;stroke-opacity:1"/>
<ellipse cx="441.7" cy="247.7" rx="7.8" ry="7.8" class="atom-20" style="fill:#7F7FFF;fill-rule:evenodd;stroke:#7F7FFF;stroke-width:1.0px;stroke-linecap:butt;stroke-linejoin:miter;stroke-opacity:1"/>
<ellipse cx="479.7" cy="250.3" rx="1.9" ry="1.9" class="atom-21" style="fill:#FF7F7F;fill-rule:evenodd;stroke:#FF7F7F;stroke-width:1.0px;stroke-linecap:butt;stroke-linejoin:miter;stroke-opacity:1"/>
<ellipse cx="384.0" cy="210.7" rx="3.9" ry="3.9" class="atom-22" style="fill:#7F7FFF;fill-rule:evenodd;stroke:#7F7FFF;stroke-width:1.0px;stroke-linecap:butt;stroke-linejoin:miter;stroke-opacity:1"/>
<ellipse cx="365.0" cy="245.0" rx="1.9" ry="1.9" class="atom-23" style="fill:#7F7FFF;fill-rule:evenodd;stroke:#7F7FFF;stroke-width:1.0px;stroke-linecap:butt;stroke-linejoin:miter;stroke-opacity:1"/>
<ellipse cx="106.5" cy="181.9" rx="1.9" ry="1.9" class="atom-27" style="fill:#FF7F7F;fill-rule:evenodd;stroke:#FF7F7F;stroke-width:1.0px;stroke-linecap:butt;stroke-linejoin:miter;stroke-opacity:1"/>
<ellipse cx="173.8" cy="220.9" rx="1.9" ry="1.9" class="atom-28" style="fill:#FF7F7F;fill-rule:evenodd;stroke:#FF7F7F;stroke-width:1.0px;stroke-linecap:butt;stroke-linejoin:miter;stroke-opacity:1"/>
<ellipse cx="256.6" cy="74.7" rx="5.8" ry="5.8" class="atom-29" style="fill:#FF7F7F;fill-rule:evenodd;stroke:#FF7F7F;stroke-width:1.0px;stroke-linecap:butt;stroke-linejoin:miter;stroke-opacity:1"/>
<ellipse cx="174.0" cy="65.4" rx="1.9" ry="1.9" class="atom-30" style="fill:#FF7F7F;fill-rule:evenodd;stroke:#FF7F7F;stroke-width:1.0px;stroke-linecap:butt;stroke-linejoin:miter;stroke-opacity:1"/>
<ellipse cx="324.7" cy="215.0" rx="1.9" ry="1.9" class="atom-31" style="fill:#FF7F7F;fill-rule:evenodd;stroke:#FF7F7F;stroke-width:1.0px;stroke-linecap:butt;stroke-linejoin:miter;stroke-opacity:1"/>
<ellipse cx="291.4" cy="195.8" rx="1.9" ry="1.9" class="atom-32" style="fill:#FF7F7F;fill-rule:evenodd;stroke:#FF7F7F;stroke-width:1.0px;stroke-linecap:butt;stroke-linejoin:miter;stroke-opacity:1"/>
<path class="bond-0 atom-0 atom-1" d="M 72.9,123.6 L 97.7,109.3" style="fill:none;fill-rule:evenodd;stroke:#000000;stroke-width:2.0px;stroke-linecap:butt;stroke-linejoin:miter;stroke-opacity:1"/>
<path class="bond-1 atom-1 atom-2" d="M 115.4,109.3 L 140.2,123.6" style="fill:none;fill-rule:evenodd;stroke:#000000;stroke-width:2.0px;stroke-linecap:butt;stroke-linejoin:miter;stroke-opacity:1"/>
<path class="bond-2 atom-2 atom-3" d="M 140.2,123.6 L 140.2,162.5" style="fill:none;fill-rule:evenodd;stroke:#000000;stroke-width:2.0px;stroke-linecap:butt;stroke-linejoin:miter;stroke-opacity:1"/>
<path class="bond-2 atom-2 atom-3" d="M 146.0,127.0 L 146.0,159.2" style="fill:none;fill-rule:evenodd;stroke:#000000;stroke-width:2.0px;stroke-linecap:butt;stroke-linejoin:miter;stroke-opacity:1"/>
<path class="bond-3 atom-3 atom-4" d="M 140.2,162.5 L 173.8,182.0" style="fill:none;fill-rule:evenodd;stroke:#000000;stroke-width:2.0px;stroke-linecap:butt;stroke-linejoin:miter;stroke-opacity:1"/>
<path class="bond-4 atom-4 atom-5" d="M 173.8,182.0 L 207.6,162.6" style="fill:none;fill-rule:evenodd;stroke:#000000;stroke-width:2.0px;stroke-linecap:butt;stroke-linejoin:miter;stroke-opacity:1"/>
<path class="bond-4 atom-4 atom-5" d="M 173.8,175.3 L 201.7,159.2" style="fill:none;fill-rule:evenodd;stroke:#000000;stroke-width:2.0px;stroke-linecap:butt;stroke-linejoin:miter;stroke-opacity:1"/>
<path class="bond-5 atom-5 atom-6" d="M 207.6,162.6 L 237.0,172.2" style="fill:none;fill-rule:evenodd;stroke:#000000;stroke-width:2.0px;stroke-linecap:butt;stroke-linejoin:miter;stroke-opacity:1"/>
<path class="bond-6 atom-6 atom-7" d="M 251.5,165.1 L 267.4,143.2" style="fill:none;fill-rule:evenodd;stroke:#000000;stroke-width:2.0px;stroke-linecap:butt;stroke-linejoin:miter;stroke-opacity:1"/>
<path class="bond-6 atom-6 atom-7" d="M 246.7,161.7 L 260.2,143.2" style="fill:none;fill-rule:evenodd;stroke:#000000;stroke-width:2.0px;stroke-linecap:butt;stroke-linejoin:miter;stroke-opacity:1"/>
<path class="bond-7 atom-7 atom-8" d="M 267.4,143.2 L 251.5,121.3" style="fill:none;fill-rule:evenodd;stroke:#000000;stroke-width:2.0px;stroke-linecap:butt;stroke-linejoin:miter;stroke-opacity:1"/>
<path class="bond-8 atom-8 atom-9" d="M 237.0,114.2 L 207.5,123.7" style="fill:none;fill-rule:evenodd;stroke:#000000;stroke-width:2.0px;stroke-linecap:butt;stroke-linejoin:miter;stroke-opacity:1"/>
<path class="bond-9 atom-9 atom-10" d="M 207.5,123.7 L 174.0,104.3" style="fill:none;fill-rule:evenodd;stroke:#000000;stroke-width:2.0px;stroke-linecap:butt;stroke-linejoin:miter;stroke-opacity:1"/>
<path class="bond-9 atom-9 atom-10" d="M 201.7,127.1 L 173.9,111.0" style="fill:none;fill-rule:evenodd;stroke:#000000;stroke-width:2.0px;stroke-linecap:butt;stroke-linejoin:miter;stroke-opacity:1"/>
<path class="bond-10 atom-7 atom-11" d="M 267.4,143.2 L 299.6,143.2" style="fill:none;fill-rule:evenodd;stroke:#000000;stroke-width:2.0px;stroke-linecap:butt;stroke-linejoin:miter;stroke-opacity:1"/>
<path class="bond-11 atom-11 atom-12" d="M 314.2,135.1 L 322.5,120.9" style="fill:none;fill-rule:evenodd;stroke:#000000;stroke-width:2.0px;stroke-linecap:butt;stroke-linejoin:miter;stroke-opacity:1"/>
<path class="bond-11 atom-11 atom-12" d="M 309.2,132.2 L 317.4,118.0" style="fill:none;fill-rule:evenodd;stroke:#000000;stroke-width:2.0px;stroke-linecap:butt;stroke-linejoin:miter;stroke-opacity:1"/>
<path class="bond-12 atom-11 atom-13" d="M 314.0,157.8 L 314.8,157.4" style="fill:none;fill-rule:evenodd;stroke:#000000;stroke-width:1.0px;stroke-linecap:butt;stroke-linejoin:miter;stroke-opacity:1"/>
<path class="bond-12 atom-11 atom-13" d="M 315.4,161.3 L 317.1,160.3" style="fill:none;fill-rule:evenodd;stroke:#000000;stroke-width:1.0px;stroke-linecap:butt;stroke-linejoin:miter;stroke-opacity:1"/>
<path class="bond-12 atom-11 atom-13" d="M 316.8,164.7 L 319.3,163.2" style="fill:none;fill-rule:evenodd;stroke:#000000;stroke-width:1.0px;stroke-linecap:butt;stroke-linejoin:miter;stroke-opacity:1"/>
<path class="bond-12 atom-11 atom-13" d="M 318.1,168.1 L 321.5,166.1" style="fill:none;fill-rule:evenodd;stroke:#000000;stroke-width:1.0px;stroke-linecap:butt;stroke-linejoin:miter;stroke-opacity:1"/>
<path class="bond-12 atom-11 atom-13" d="M 319.5,171.5 L 323.7,169.1" style="fill:none;fill-rule:evenodd;stroke:#000000;stroke-width:1.0px;stroke-linecap:butt;stroke-linejoin:miter;stroke-opacity:1"/>
<path class="bond-12 atom-11 atom-13" d="M 320.9,174.9 L 326.0,172.0" style="fill:none;fill-rule:evenodd;stroke:#000000;stroke-width:1.0px;stroke-linecap:butt;stroke-linejoin:miter;stroke-opacity:1"/>
<path class="bond-13 atom-13 atom-14" d="M 325.3,176.7 L 364.6,177.0" style="fill:none;fill-rule:evenodd;stroke:#000000;stroke-width:2.0px;stroke-linecap:butt;stroke-linejoin:miter;stroke-opacity:1"/>
<path class="bond-14 atom-14 atom-15" d="M 364.6,177.0 L 378.5,152.8" style="fill:none;fill-rule:evenodd;stroke:#000000;stroke-width:2.0px;stroke-linecap:butt;stroke-linejoin:miter;stroke-opacity:1"/>
<path class="bond-14 atom-14 atom-15" d="M 371.4,177.0 L 383.6,155.8" style="fill:none;fill-rule:evenodd;stroke:#000000;stroke-width:2.0px;stroke-linecap:butt;stroke-linejoin:miter;stroke-opacity:1"/>
<path class="bond-15 atom-15 atom-16" d="M 391.6,143.3 L 423.0,143.3" style="fill:none;fill-rule:evenodd;stroke:#000000;stroke-width:2.0px;stroke-linecap:butt;stroke-linejoin:miter;stroke-opacity:1"/>
<path class="bond-16 atom-16 atom-17" d="M 423.0,143.3 L 442.3,176.9" style="fill:none;fill-rule:evenodd;stroke:#000000;stroke-width:2.0px;stroke-linecap:butt;stroke-linejoin:miter;stroke-opacity:1"/>
<path class="bond-16 atom-16 atom-17" d="M 419.6,149.1 L 435.6,176.9" style="fill:none;fill-rule:evenodd;stroke:#000000;stroke-width:2.0px;stroke-linecap:butt;stroke-linejoin:miter;stroke-opacity:1"/>
<path class="bond-17 atom-17 atom-18" d="M 442.3,176.9 L 484.9,172.3" style="fill:none;fill-rule:evenodd;stroke:#000000;stroke-width:2.0px;stroke-linecap:butt;stroke-linejoin:miter;stroke-opacity:1"/>
<path class="bond-18 atom-17 atom-19" d="M 442.3,176.9 L 423.0,210.7" style="fill:none;fill-rule:evenodd;stroke:#000000;stroke-width:2.0px;stroke-linecap:butt;stroke-linejoin:miter;stroke-opacity:1"/>
<path class="bond-19 atom-19 atom-20" d="M 423.0,210.7 L 436.8,238.1" style="fill:none;fill-rule:evenodd;stroke:#000000;stroke-width:2.0px;stroke-linecap:butt;stroke-linejoin:miter;stroke-opacity:1"/>
<path class="bond-20 atom-20 atom-21" d="M 450.6,248.3 L 479.7,250.3" style="fill:none;fill-rule:evenodd;stroke:#000000;stroke-width:2.0px;stroke-linecap:butt;stroke-linejoin:miter;stroke-opacity:1"/>
<path class="bond-21 atom-19 atom-22" d="M 423.0,210.7 L 384.0,210.7" style="fill:none;fill-rule:evenodd;stroke:#000000;stroke-width:2.0px;stroke-linecap:butt;stroke-linejoin:miter;stroke-opacity:1"/>
<path class="bond-21 atom-19 atom-22" d="M 419.6,204.9 L 387.4,204.9" style="fill:none;fill-rule:evenodd;stroke:#000000;stroke-width:2.0px;stroke-linecap:butt;stroke-linejoin:miter;stroke-opacity:1"/>
<path class="bond-22 atom-22 atom-23" d="M 384.0,210.7 L 365.0,245.0" style="fill:none;fill-rule:evenodd;stroke:#000000;stroke-width:2.0px;stroke-linecap:butt;stroke-linejoin:miter;stroke-opacity:1"/>
<path class="bond-23 atom-10 atom-2" d="M 174.0,104.3 L 140.2,123.6" style="fill:none;fill-rule:evenodd;stroke:#000000;stroke-width:2.0px;stroke-linecap:butt;stroke-linejoin:miter;stroke-opacity:1"/>
<path class="bond-24 atom-22 atom-14" d="M 384.0,210.7 L 364.6,177.0" style="fill:none;fill-rule:evenodd;stroke:#000000;stroke-width:2.0px;stroke-linecap:butt;stroke-linejoin:miter;stroke-opacity:1"/>
<path class="bond-25 atom-9 atom-5" d="M 207.5,123.7 L 207.6,162.6" style="fill:none;fill-rule:evenodd;stroke:#000000;stroke-width:2.0px;stroke-linecap:butt;stroke-linejoin:miter;stroke-opacity:1"/>
<path class="bond-26 atom-0 atom-24" d="M 72.9,123.6 L 58.9,99.5" style="fill:none;fill-rule:evenodd;stroke:#000000;stroke-width:2.0px;stroke-linecap:butt;stroke-linejoin:miter;stroke-opacity:1"/>
<path class="bond-27 atom-0 atom-25" d="M 72.9,123.6 L 41.7,123.6" style="fill:none;fill-rule:evenodd;stroke:#000000;stroke-width:2.0px;stroke-linecap:butt;stroke-linejoin:miter;stroke-opacity:1"/>
<path class="bond-28 atom-0 atom-26" d="M 72.9,123.6 L 72.8,152.9" style="fill:none;fill-rule:evenodd;stroke:#000000;stroke-width:2.0px;stroke-linecap:butt;stroke-linejoin:miter;stroke-opacity:1"/>
<path class="bond-29 atom-3 atom-27" d="M 140.2,162.5 L 114.2,177.5" style="fill:none;fill-rule:evenodd;stroke:#000000;stroke-width:2.0px;stroke-linecap:butt;stroke-linejoin:miter;stroke-opacity:1"/>
<path class="bond-30 atom-4 atom-28" d="M 173.8,182.0 L 173.8,211.4" style="fill:none;fill-rule:evenodd;stroke:#000000;stroke-width:2.0px;stroke-linecap:butt;stroke-linejoin:miter;stroke-opacity:1"/>
<path class="bond-31 atom-8 atom-29" d="M 247.7,102.2 L 253.5,84.3" style="fill:none;fill-rule:evenodd;stroke:#000000;stroke-width:2.0px;stroke-linecap:butt;stroke-linejoin:miter;stroke-opacity:1"/>
<path class="bond-32 atom-10 atom-30" d="M 174.0,104.3 L 174.0,74.9" style="fill:none;fill-rule:evenodd;stroke:#000000;stroke-width:2.0px;stroke-linecap:butt;stroke-linejoin:miter;stroke-opacity:1"/>
<path class="bond-33 atom-13 atom-31" d="M 325.3,176.7 L 324.8,205.4" style="fill:none;fill-rule:evenodd;stroke:#000000;stroke-width:2.0px;stroke-linecap:butt;stroke-linejoin:miter;stroke-opacity:1"/>
<path class="bond-34 atom-13 atom-32" d="M 325.3,176.7 L 299.2,191.4" style="fill:none;fill-rule:evenodd;stroke:#000000;stroke-width:2.0px;stroke-linecap:butt;stroke-linejoin:miter;stroke-opacity:1"/>
<path class="bond-35 atom-16 atom-33" d="M 423.0,143.3 L 436.9,119.2" style="fill:none;fill-rule:evenodd;stroke:#000000;stroke-width:2.0px;stroke-linecap:butt;stroke-linejoin:miter;stroke-opacity:1"/>
<path class="bond-36 atom-18 atom-34" d="M 484.9,172.3 L 481.8,143.2" style="fill:none;fill-rule:evenodd;stroke:#000000;stroke-width:2.0px;stroke-linecap:butt;stroke-linejoin:miter;stroke-opacity:1"/>
<path class="bond-37 atom-18 atom-35" d="M 484.9,172.3 L 508.3,154.5" style="fill:none;fill-rule:evenodd;stroke:#000000;stroke-width:2.0px;stroke-linecap:butt;stroke-linejoin:miter;stroke-opacity:1"/>
<path class="bond-38 atom-18 atom-36" d="M 484.9,172.3 L 501.1,191.5" style="fill:none;fill-rule:evenodd;stroke:#000000;stroke-width:2.0px;stroke-linecap:butt;stroke-linejoin:miter;stroke-opacity:1"/>
<path class="bond-39 atom-21 atom-37" d="M 479.7,250.3 L 479.2,223.1" style="fill:none;fill-rule:evenodd;stroke:#000000;stroke-width:2.0px;stroke-linecap:butt;stroke-linejoin:miter;stroke-opacity:1"/>
<path class="bond-40 atom-21 atom-38" d="M 479.7,250.3 L 505.9,235.8" style="fill:none;fill-rule:evenodd;stroke:#000000;stroke-width:2.0px;stroke-linecap:butt;stroke-linejoin:miter;stroke-opacity:1"/>
<path class="bond-41 atom-21 atom-39" d="M 479.7,250.3 L 493.2,275.1" style="fill:none;fill-rule:evenodd;stroke:#000000;stroke-width:2.0px;stroke-linecap:butt;stroke-linejoin:miter;stroke-opacity:1"/>
<path class="bond-42 atom-23 atom-40" d="M 365.0,245.0 L 391.3,259.6" style="fill:none;fill-rule:evenodd;stroke:#000000;stroke-width:2.0px;stroke-linecap:butt;stroke-linejoin:miter;stroke-opacity:1"/>
<path class="bond-43 atom-23 atom-41" d="M 365.0,245.0 L 365.6,274.4" style="fill:none;fill-rule:evenodd;stroke:#000000;stroke-width:2.0px;stroke-linecap:butt;stroke-linejoin:miter;stroke-opacity:1"/>
<path class="bond-44 atom-23 atom-42" d="M 365.0,245.0 L 334.5,245.8" style="fill:none;fill-rule:evenodd;stroke:#000000;stroke-width:2.0px;stroke-linecap:butt;stroke-linejoin:miter;stroke-opacity:1"/>
<path class="atom-1" d="M 99.0 104.2 Q 99.0 100.3, 100.9 98.0 Q 102.9 95.8, 106.5 95.8 Q 110.2 95.8, 112.2 98.0 Q 114.1 100.3, 114.1 104.2 Q 114.1 108.2, 112.1 110.5 Q 110.2 112.8, 106.5 112.8 Q 102.9 112.8, 100.9 110.5 Q 99.0 108.3, 99.0 104.2 M 106.5 110.9 Q 109.1 110.9, 110.4 109.2 Q 111.8 107.5, 111.8 104.2 Q 111.8 101.0, 110.4 99.3 Q 109.1 97.7, 106.5 97.7 Q 104.0 97.7, 102.6 99.3 Q 101.3 101.0, 101.3 104.2 Q 101.3 107.6, 102.6 109.2 Q 104.0 110.9, 106.5 110.9 " fill="#000000"/>
<path class="atom-6" d="M 240.9 166.4 L 246.3 175.2 Q 246.8 176.0, 247.7 177.6 Q 248.6 179.2, 248.6 179.3 L 248.6 166.4 L 250.8 166.4 L 250.8 182.9 L 248.5 182.9 L 242.7 173.4 Q 242.0 172.3, 241.3 171.0 Q 240.6 169.7, 240.4 169.3 L 240.4 182.9 L 238.3 182.9 L 238.3 166.4 L 240.9 166.4 " fill="#000000"/>
<path class="atom-8" d="M 240.9 103.5 L 246.3 112.2 Q 246.9 113.1, 247.7 114.7 Q 248.6 116.2, 248.7 116.3 L 248.7 103.5 L 250.8 103.5 L 250.8 120.0 L 248.6 120.0 L 242.8 110.4 Q 242.1 109.3, 241.4 108.0 Q 240.7 106.7, 240.5 106.4 L 240.5 120.0 L 238.3 120.0 L 238.3 103.5 L 240.9 103.5 " fill="#000000"/>
<path class="atom-11" d="M 301.5 148.9 Q 301.7 148.9, 302.5 149.3 Q 303.2 149.6, 304.1 149.8 Q 304.9 150.0, 305.8 150.0 Q 307.3 150.0, 308.2 149.2 Q 309.2 148.5, 309.2 147.1 Q 309.2 146.2, 308.7 145.7 Q 308.2 145.1, 307.5 144.8 Q 306.8 144.5, 305.7 144.1 Q 304.2 143.7, 303.3 143.3 Q 302.5 142.9, 301.8 142.0 Q 301.2 141.1, 301.2 139.6 Q 301.2 137.5, 302.6 136.2 Q 304.0 135.0, 306.8 135.0 Q 308.8 135.0, 310.9 135.9 L 310.4 137.7 Q 308.4 136.8, 306.9 136.8 Q 305.3 136.8, 304.4 137.5 Q 303.5 138.2, 303.6 139.3 Q 303.6 140.2, 304.0 140.7 Q 304.5 141.3, 305.1 141.6 Q 305.8 141.9, 306.9 142.2 Q 308.4 142.7, 309.3 143.2 Q 310.2 143.6, 310.8 144.6 Q 311.5 145.5, 311.5 147.1 Q 311.5 149.4, 309.9 150.7 Q 308.4 151.9, 305.9 151.9 Q 304.4 151.9, 303.3 151.5 Q 302.2 151.2, 300.9 150.7 L 301.5 148.9 " fill="#000000"/>
<path class="atom-12" d="M 318.1 109.6 Q 318.1 105.6, 320.1 103.4 Q 322.0 101.2, 325.7 101.2 Q 329.3 101.2, 331.3 103.4 Q 333.3 105.6, 333.3 109.6 Q 333.3 113.6, 331.3 115.9 Q 329.3 118.1, 325.7 118.1 Q 322.0 118.1, 320.1 115.9 Q 318.1 113.6, 318.1 109.6 M 325.7 116.3 Q 328.2 116.3, 329.6 114.6 Q 330.9 112.9, 330.9 109.6 Q 330.9 106.3, 329.6 104.7 Q 328.2 103.0, 325.7 103.0 Q 323.2 103.0, 321.8 104.7 Q 320.4 106.3, 320.4 109.6 Q 320.4 112.9, 321.8 114.6 Q 323.2 116.3, 325.7 116.3 " fill="#000000"/>
<path class="atom-15" d="M 380.4 135.0 L 385.8 143.8 Q 386.3 144.7, 387.2 146.2 Q 388.1 147.8, 388.1 147.9 L 388.1 135.0 L 390.3 135.0 L 390.3 151.6 L 388.0 151.6 L 382.2 142.0 Q 381.5 140.9, 380.8 139.6 Q 380.1 138.3, 379.9 137.9 L 379.9 151.6 L 377.8 151.6 L 377.8 135.0 L 380.4 135.0 " fill="#000000"/>
<path class="atom-20" d="M 434.1 247.8 Q 434.1 243.8, 436.1 241.6 Q 438.1 239.4, 441.7 239.4 Q 445.4 239.4, 447.3 241.6 Q 449.3 243.8, 449.3 247.8 Q 449.3 251.8, 447.3 254.1 Q 445.3 256.4, 441.7 256.4 Q 438.1 256.4, 436.1 254.1 Q 434.1 251.8, 434.1 247.8 M 441.7 254.5 Q 444.2 254.5, 445.6 252.8 Q 447.0 251.1, 447.0 247.8 Q 447.0 244.5, 445.6 242.9 Q 444.2 241.3, 441.7 241.3 Q 439.2 241.3, 437.8 242.9 Q 436.5 244.5, 436.5 247.8 Q 436.5 251.1, 437.8 252.8 Q 439.2 254.5, 441.7 254.5 " fill="#000000"/>
<path class="atom-24" d="M 47.0 81.7 L 49.2 81.7 L 49.2 88.7 L 57.6 88.7 L 57.6 81.7 L 59.9 81.7 L 59.9 98.2 L 57.6 98.2 L 57.6 90.5 L 49.2 90.5 L 49.2 98.2 L 47.0 98.2 L 47.0 81.7 " fill="#000000"/>
<path class="atom-25" d="M 27.5 115.3 L 29.7 115.3 L 29.7 122.4 L 38.2 122.4 L 38.2 115.3 L 40.4 115.3 L 40.4 131.8 L 38.2 131.8 L 38.2 124.2 L 29.7 124.2 L 29.7 131.8 L 27.5 131.8 L 27.5 115.3 " fill="#000000"/>
<path class="atom-26" d="M 66.4 154.2 L 68.6 154.2 L 68.6 161.3 L 77.1 161.3 L 77.1 154.2 L 79.3 154.2 L 79.3 170.8 L 77.1 170.8 L 77.1 163.1 L 68.6 163.1 L 68.6 170.8 L 66.4 170.8 L 66.4 154.2 " fill="#000000"/>
<path class="atom-27" d="M 100.0 173.7 L 102.2 173.7 L 102.2 180.7 L 110.7 180.7 L 110.7 173.7 L 112.9 173.7 L 112.9 190.2 L 110.7 190.2 L 110.7 182.6 L 102.2 182.6 L 102.2 190.2 L 100.0 190.2 L 100.0 173.7 " fill="#000000"/>
<path class="atom-28" d="M 167.3 212.6 L 169.6 212.6 L 169.6 219.7 L 178.0 219.7 L 178.0 212.6 L 180.2 212.6 L 180.2 229.2 L 178.0 229.2 L 178.0 221.5 L 169.6 221.5 L 169.6 229.2 L 167.3 229.2 L 167.3 212.6 " fill="#000000"/>
<path class="atom-29" d="M 250.1 66.5 L 252.4 66.5 L 252.4 73.5 L 260.8 73.5 L 260.8 66.5 L 263.1 66.5 L 263.1 83.0 L 260.8 83.0 L 260.8 75.4 L 252.4 75.4 L 252.4 83.0 L 250.1 83.0 L 250.1 66.5 " fill="#000000"/>
<path class="atom-30" d="M 167.5 57.1 L 169.8 57.1 L 169.8 64.1 L 178.2 64.1 L 178.2 57.1 L 180.4 57.1 L 180.4 73.6 L 178.2 73.6 L 178.2 66.0 L 169.8 66.0 L 169.8 73.6 L 167.5 73.6 L 167.5 57.1 " fill="#000000"/>
<path class="atom-31" d="M 318.2 206.7 L 320.4 206.7 L 320.4 213.7 L 328.9 213.7 L 328.9 206.7 L 331.1 206.7 L 331.1 223.2 L 328.9 223.2 L 328.9 215.6 L 320.4 215.6 L 320.4 223.2 L 318.2 223.2 L 318.2 206.7 " fill="#000000"/>
<path class="atom-32" d="M 285.0 187.5 L 287.2 187.5 L 287.2 194.5 L 295.6 194.5 L 295.6 187.5 L 297.9 187.5 L 297.9 204.0 L 295.6 204.0 L 295.6 196.4 L 287.2 196.4 L 287.2 204.0 L 285.0 204.0 L 285.0 187.5 " fill="#000000"/>
<path class="atom-33" d="M 435.9 101.4 L 438.2 101.4 L 438.2 108.4 L 446.6 108.4 L 446.6 101.4 L 448.9 101.4 L 448.9 117.9 L 446.6 117.9 L 446.6 110.2 L 438.2 110.2 L 438.2 117.9 L 435.9 117.9 L 435.9 101.4 " fill="#000000"/>
<path class="atom-34" d="M 474.4 125.4 L 476.6 125.4 L 476.6 132.4 L 485.1 132.4 L 485.1 125.4 L 487.3 125.4 L 487.3 141.9 L 485.1 141.9 L 485.1 134.3 L 476.6 134.3 L 476.6 141.9 L 474.4 141.9 L 474.4 125.4 " fill="#000000"/>
<path class="atom-35" d="M 509.6 140.3 L 511.8 140.3 L 511.8 147.3 L 520.3 147.3 L 520.3 140.3 L 522.5 140.3 L 522.5 156.8 L 520.3 156.8 L 520.3 149.2 L 511.8 149.2 L 511.8 156.8 L 509.6 156.8 L 509.6 140.3 " fill="#000000"/>
<path class="atom-36" d="M 502.3 192.5 L 504.6 192.5 L 504.6 199.6 L 513.0 199.6 L 513.0 192.5 L 515.3 192.5 L 515.3 209.1 L 513.0 209.1 L 513.0 201.4 L 504.6 201.4 L 504.6 209.1 L 502.3 209.1 L 502.3 192.5 " fill="#000000"/>
<path class="atom-37" d="M 472.5 205.3 L 474.8 205.3 L 474.8 212.3 L 483.2 212.3 L 483.2 205.3 L 485.5 205.3 L 485.5 221.8 L 483.2 221.8 L 483.2 214.1 L 474.8 214.1 L 474.8 221.8 L 472.5 221.8 L 472.5 205.3 " fill="#000000"/>
<path class="atom-38" d="M 507.2 223.2 L 509.4 223.2 L 509.4 230.2 L 517.9 230.2 L 517.9 223.2 L 520.1 223.2 L 520.1 239.7 L 517.9 239.7 L 517.9 232.1 L 509.4 232.1 L 509.4 239.7 L 507.2 239.7 L 507.2 223.2 " fill="#000000"/>
<path class="atom-39" d="M 492.0 276.4 L 494.2 276.4 L 494.2 283.4 L 502.7 283.4 L 502.7 276.4 L 504.9 276.4 L 504.9 292.9 L 502.7 292.9 L 502.7 285.3 L 494.2 285.3 L 494.2 292.9 L 492.0 292.9 L 492.0 276.4 " fill="#000000"/>
<path class="atom-40" d="M 392.6 255.6 L 394.8 255.6 L 394.8 262.6 L 403.3 262.6 L 403.3 255.6 L 405.5 255.6 L 405.5 272.1 L 403.3 272.1 L 403.3 264.5 L 394.8 264.5 L 394.8 272.1 L 392.6 272.1 L 392.6 255.6 " fill="#000000"/>
<path class="atom-41" d="M 359.4 275.7 L 361.6 275.7 L 361.6 282.7 L 370.1 282.7 L 370.1 275.7 L 372.3 275.7 L 372.3 292.2 L 370.1 292.2 L 370.1 284.5 L 361.6 284.5 L 361.6 292.2 L 359.4 292.2 L 359.4 275.7 " fill="#000000"/>
<path class="atom-42" d="M 320.2 237.8 L 322.5 237.8 L 322.5 244.8 L 330.9 244.8 L 330.9 237.8 L 333.2 237.8 L 333.2 254.3 L 330.9 254.3 L 330.9 246.7 L 322.5 246.7 L 322.5 254.3 L 320.2 254.3 L 320.2 237.8 " fill="#000000"/>
</svg>