<svg xmlns="http://www.w3.org/2000/svg" xmlns:rdkit="http://www.rdkit.org/xml" xmlns:xlink="http://www.w3.org/1999/xlink" version="1.1" baseProfile="full" xml:space="preserve" width="550px" height="350px" viewBox="0 0 550 350">
<!-- END OF HEADER -->
<rect style="opacity:1.0;fill:#FFFFFF;stroke:none" width="550.0" height="350.0" x="0.0" y="0.0"> </rect>
<ellipse cx="72.9" cy="131.3" rx="1.9" ry="1.9" class="atom-0" style="fill:#FF7F7F;fill-rule:evenodd;stroke:#FF7F7F;stroke-width:1.0px;stroke-linecap:butt;stroke-linejoin:miter;stroke-opacity:1"/>
<ellipse cx="106.5" cy="111.9" rx="7.8" ry="7.8" class="atom-1" style="fill:#7F7FFF;fill-rule:evenodd;stroke:#7F7FFF;stroke-width:1.0px;stroke-linecap:butt;stroke-linejoin:miter;stroke-opacity:1"/>
<ellipse cx="140.2" cy="131.3" rx="1.9" ry="1.9" class="atom-2" style="fill:#FF7F7F;fill-rule:evenodd;stroke:#FF7F7F;stroke-width:1.0px;stroke-linecap:butt;stroke-linejoin:miter;stroke-opacity:1"/>
<ellipse cx="140.2" cy="170.2" rx="3.9" ry="3.9" class="atom-3" style="fill:#7F7FFF;fill-rule:evenodd;stroke:#7F7FFF;stroke-width:1.0px;stroke-linecap:butt;stroke-linejoin:miter;stroke-opacity:1"/>
<ellipse cx="173.8" cy="189.7" rx="1.9" ry="1.9" class="atom-4" style="fill:#7F7FFF;fill-rule:evenodd;stroke:#7F7FFF;stroke-width:1.0px;stroke-linecap:butt;stroke-linejoin:miter;stroke-opacity:1"/>
<ellipse cx="244.5" cy="182.4" rx="11.7" ry="11.7" class="atom-6" style="fill:#7F7FFF;fill-rule:evenodd;stroke:#7F7FFF;stroke-width:1.0px;stroke-linecap:butt;stroke-linejoin:miter;stroke-opacity:1"/>
<ellipse cx="267.4" cy="150.9" rx="7.8" ry="7.8" class="atom-7" style="fill:#FF7F7F;fill-rule:evenodd;stroke:#FF7F7F;stroke-width:1.0px;stroke-linecap:butt;stroke-linejoin:miter;stroke-opacity:1"/>
<ellipse cx="244.6" cy="119.4" rx="5.8" ry="5.8" class="atom-8" style="fill:#7F7FFF;fill-rule:evenodd;stroke:#7F7FFF;stroke-width:1.0px;stroke-linecap:butt;stroke-linejoin:miter;stroke-opacity:1"/>
<ellipse cx="207.5" cy="131.4" rx="1.9" ry="1.9" class="atom-9" style="fill:#7F7FFF;fill-rule:evenodd;stroke:#7F7FFF;stroke-width:1.0px;stroke-linecap:butt;stroke-linejoin:miter;stroke-opacity:1"/>
<ellipse cx="174.0" cy="112.0" rx="3.9" ry="3.9" class="atom-10" style="fill:#7F7FFF;fill-rule:evenodd;stroke:#7F7FFF;stroke-width:1.0px;stroke-linecap:butt;stroke-linejoin:miter;stroke-opacity:1"/>
<ellipse cx="306.2" cy="150.9" rx="5.8" ry="5.8" class="atom-11" style="fill:#FF7F7F;fill-rule:evenodd;stroke:#FF7F7F;stroke-width:1.0px;stroke-linecap:butt;stroke-linejoin:miter;stroke-opacity:1"/>
<ellipse cx="325.7" cy="117.2" rx="11.7" ry="11.7" class="atom-12" style="fill:#7F7FFF;fill-rule:evenodd;stroke:#7F7FFF;stroke-width:1.0px;stroke-linecap:butt;stroke-linejoin:miter;stroke-opacity:1"/>
<ellipse cx="325.3" cy="184.3" rx="3.9" ry="3.9" class="atom-13" style="fill:#7F7FFF;fill-rule:evenodd;stroke:#7F7FFF;stroke-width:1.0px;stroke-linecap:butt;stroke-linejoin:miter;stroke-opacity:1"/>
<ellipse cx="364.6" cy="184.7" rx="7.8" ry="7.8" class="atom-14" style="fill:#FF7F7F;fill-rule:evenodd;stroke:#FF7F7F;stroke-width:1.0px;stroke-linecap:butt;stroke-linejoin:miter;stroke-opacity:1"/>
<ellipse cx="384.0" cy="151.0" rx="13.6" ry="13.6" class="atom-15" style="fill:#7F7FFF;fill-rule:evenodd;stroke:#7F7FFF;stroke-width:1.0px;stroke-linecap:butt;stroke-linejoin:miter;stroke-opacity:1"/>
<ellipse cx="423.0" cy="151.0" rx="5.8" ry="5.8" class="atom-16" style="fill:#FF7F7F;fill-rule:evenodd;stroke:#FF7F7F;stroke-width:1.0px;stroke-linecap:butt;stroke-linejoin:miter;stroke-opacity:1"/>
<ellipse cx="442.3" cy="184.6" rx="5.8" ry="5.8" class="atom-17" style="fill:#7F7FFF;fill-rule:evenodd;stroke:#7F7FFF;stroke-width:1.0px;stroke-linecap:butt;stroke-linejoin:miter;stroke-opacity:1"/>
<ellipse cx="484.9" cy="180.0" rx="1.9" ry="1.9" class="atom-18" style="fill:#7F7FFF;fill-rule:evenodd;stroke:#7F7FFF;stroke-width:1.0px;stroke-linecap:butt;stroke-linejoin:miter;stroke-opacity:1"/>
<ellipse cx="423.0" cy="218.4" rx="1.9" ry="1.9" class="atom-19" style="fill:#FF7F7F;fill-rule:evenodd;stroke:#FF7F7F;stroke-width:1.0px;stroke-linecap:butt;stroke-linejoin:miter;stroke-opacity:1"/>
<ellipse cx="441.7" cy="255.4" rx="7.8" ry="7.8" class="atom-20" style="fill:#7F7FFF;fill-rule:evenodd;stroke:#7F7FFF;stroke-width:1.0px;stroke-linecap:butt;stroke-linejoin:miter;stroke-opacity:1"/>
<ellipse cx="479.7" cy="258.0" rx="1.9" ry="1.9" class="atom-21" style="fill:#FF7F7F;fill-rule:evenodd;stroke:#FF7F7F;stroke-width:1.0px;stroke-linecap:butt;stroke-linejoin:miter;stroke-opacity:1"/>
<ellipse cx="384.0" cy="218.4" rx="3.9" ry="3.9" class="atom-22" style="fill:#7F7FFF;fill-rule:evenodd;stroke:#7F7FFF;stroke-width:1.0px;stroke-linecap:butt;stroke-linejoin:miter;stroke-opacity:1"/>
<ellipse cx="365.0" cy="252.7" rx="1.9" ry="1.9" class="atom-23" style="fill:#7F7FFF;fill-rule:evenodd;stroke:#7F7FFF;stroke-width:1.0px;stroke-linecap:butt;stroke-linejoin:miter;stroke-opacity:1"/>
<ellipse cx="106.5" cy="189.6" rx="1.9" ry="1.9" class="atom-27" style="fill:#FF7F7F;fill-rule:evenodd;stroke:#FF7F7F;stroke-width:1.0px;stroke-linecap:butt;stroke-linejoin:miter;stroke-opacity:1"/>
<ellipse cx="173.8" cy="228.6" rx="1.9" ry="1.9" class="atom-28" style="fill:#FF7F7F;fill-rule:evenodd;stroke:#FF7F7F;stroke-width:1.0px;stroke-linecap:butt;stroke-linejoin:miter;stroke-opacity:1"/>
<ellipse cx="256.6" cy="82.4" rx="5.8" ry="5.8" class="atom-29" style="fill:#FF7F7F;fill-rule:evenodd;stroke:#FF7F7F;stroke-width:1.0px;stroke-linecap:butt;stroke-linejoin:miter;stroke-opacity:1"/>
<ellipse cx="174.0" cy="73.0" rx="1.9" ry="1.9" class="atom-30" style="fill:#FF7F7F;fill-rule:evenodd;stroke:#FF7F7F;stroke-width:1.0px;stroke-linecap:butt;stroke-linejoin:miter;stroke-opacity:1"/>
<ellipse cx="324.7" cy="222.6" rx="1.9" ry="1.9" class="atom-31" style="fill:#FF7F7F;fill-rule:evenodd;stroke:#FF7F7F;stroke-width:1.0px;stroke-linecap:butt;stroke-linejoin:miter;stroke-opacity:1"/>
<ellipse cx="291.4" cy="203.4" rx="1.9" ry="1.9" class="atom-32" style="fill:#FF7F7F;fill-rule:evenodd;stroke:#FF7F7F;stroke-width:1.0px;stroke-linecap:butt;stroke-linejoin:miter;stroke-opacity:1"/>
<path class="bond-0 atom-0 atom-1" d="M 72.9,131.3 L 97.7,117.0" style="fill:none;fill-rule:evenodd;stroke:#000000;stroke-width:2.0px;stroke-linecap:butt;stroke-linejoin:miter;stroke-opacity:1"/>
<path class="bond-1 atom-1 atom-2" d="M 115.4,117.0 L 140.2,131.3" style="fill:none;fill-rule:evenodd;stroke:#000000;stroke-width:2.0px;stroke-linecap:butt;stroke-linejoin:miter;stroke-opacity:1"/>
<path class="bond-2 atom-2 atom-3" d="M 140.2,131.3 L 140.2,170.2" style="fill:none;fill-rule:evenodd;stroke:#000000;stroke-width:2.0px;stroke-linecap:butt;stroke-linejoin:miter;stroke-opacity:1"/>
<path class="bond-2 atom-2 atom-3" d="M 146.0,134.7 L 146.0,166.8" style="fill:none;fill-rule:evenodd;stroke:#000000;stroke-width:2.0px;stroke-linecap:butt;stroke-linejoin:miter;stroke-opacity:1"/>
<path class="bond-3 atom-3 atom-4" d="M 140.2,170.2 L 173.8,189.7" style="fill:none;fill-rule:evenodd;stroke:#000000;stroke-width:2.0px;stroke-linecap:butt;stroke-linejoin:miter;stroke-opacity:1"/>
<path class="bond-4 atom-4 atom-5" d="M 173.8,189.7 L 207.6,170.3" style="fill:none;fill-rule:evenodd;stroke:#000000;stroke-width:2.0px;stroke-linecap:butt;stroke-linejoin:miter;stroke-opacity:1"/>
<path class="bond-4 atom-4 atom-5" d="M 173.8,183.0 L 201.7,166.9" style="fill:none;fill-rule:evenodd;stroke:#000000;stroke-width:2.0px;stroke-linecap:butt;stroke-linejoin:miter;stroke-opacity:1"/>
<path class="bond-5 atom-5 atom-6" d="M 207.6,170.3 L 237.0,179.9" style="fill:none;fill-rule:evenodd;stroke:#000000;stroke-width:2.0px;stroke-linecap:butt;stroke-linejoin:miter;stroke-opacity:1"/>
<path class="bond-6 atom-6 atom-7" d="M 251.5,172.8 L 267.4,150.9" style="fill:none;fill-rule:evenodd;stroke:#000000;stroke-width:2.0px;stroke-linecap:butt;stroke-linejoin:miter;stroke-opacity:1"/>
<path class="bond-6 atom-6 atom-7" d="M 246.7,169.4 L 260.2,150.9" style="fill:none;fill-rule:evenodd;stroke:#000000;stroke-width:2.0px;stroke-linecap:butt;stroke-linejoin:miter;stroke-opacity:1"/>
<path class="bond-7 atom-7 atom-8" d="M 267.4,150.9 L 251.5,129.0" style="fill:none;fill-rule:evenodd;stroke:#000000;stroke-width:2.0px;stroke-linecap:butt;stroke-linejoin:miter;stroke-opacity:1"/>
<path class="bond-8 atom-8 atom-9" d="M 237.0,121.9 L 207.5,131.4" style="fill:none;fill-rule:evenodd;stroke:#000000;stroke-width:2.0px;stroke-linecap:butt;stroke-linejoin:miter;stroke-opacity:1"/>
<path class="bond-9 atom-9 atom-10" d="M 207.5,131.4 L 174.0,112.0" style="fill:none;fill-rule:evenodd;stroke:#000000;stroke-width:2.0px;stroke-linecap:butt;stroke-linejoin:miter;stroke-opacity:1"/>
<path class="bond-9 atom-9 atom-10" d="M 201.7,134.8 L 173.9,118.7" style="fill:none;fill-rule:evenodd;stroke:#000000;stroke-width:2.0px;stroke-linecap:butt;stroke-linejoin:miter;stroke-opacity:1"/>
<path class="bond-10 atom-7 atom-11" d="M 267.4,150.9 L 299.6,150.9" style="fill:none;fill-rule:evenodd;stroke:#000000;stroke-width:2.0px;stroke-linecap:butt;stroke-linejoin:miter;stroke-opacity:1"/>
<path class="bond-11 atom-11 atom-12" d="M 314.2,142.8 L 322.5,128.6" style="fill:none;fill-rule:evenodd;stroke:#000000;stroke-width:2.0px;stroke-linecap:butt;stroke-linejoin:miter;stroke-opacity:1"/>
<path class="bond-11 atom-11 atom-12" d="M 309.2,139.9 L 317.4,125.6" style="fill:none;fill-rule:evenodd;stroke:#000000;stroke-width:2.0px;stroke-linecap:butt;stroke-linejoin:miter;stroke-opacity:1"/>
<path class="bond-12 atom-11 atom-13" d="M 314.0,165.5 L 314.8,165.0" style="fill:none;fill-rule:evenodd;stroke:#000000;stroke-width:1.0px;stroke-linecap:butt;stroke-linejoin:miter;stroke-opacity:1"/>
<path class="bond-12 atom-11 atom-13" d="M 315.4,168.9 L 317.1,168.0" style="fill:none;fill-rule:evenodd;stroke:#000000;stroke-width:1.0px;stroke-linecap:butt;stroke-linejoin:miter;stroke-opacity:1"/>
<path class="bond-12 atom-11 atom-13" d="M 316.8,172.3 L 319.3,170.9" style="fill:none;fill-rule:evenodd;stroke:#000000;stroke-width:1.0px;stroke-linecap:butt;stroke-linejoin:miter;stroke-opacity:1"/>
<path class="bond-12 atom-11 atom-13" d="M 318.1,175.8 L 321.5,173.8" style="fill:none;fill-rule:evenodd;stroke:#000000;stroke-width:1.0px;stroke-linecap:butt;stroke-linejoin:miter;stroke-opacity:1"/>
<path class="bond-12 atom-11 atom-13" d="M 319.5,179.2 L 323.7,176.8" style="fill:none;fill-rule:evenodd;stroke:#000000;stroke-width:1.0px;stroke-linecap:butt;stroke-linejoin:miter;stroke-opacity:1"/>
<path class="bond-12 atom-11 atom-13" d="M 320.9,182.6 L 326.0,179.7" style="fill:none;fill-rule:evenodd;stroke:#000000;stroke-width:1.0px;stroke-linecap:butt;stroke-linejoin:miter;stroke-opacity:1"/>
<path class="bond-13 atom-13 atom-14" d="M 325.3,184.3 L 364.6,184.7" style="fill:none;fill-rule:evenodd;stroke:#000000;stroke-width:2.0px;stroke-linecap:butt;stroke-linejoin:miter;stroke-opacity:1"/>
<path class="bond-14 atom-14 atom-15" d="M 364.6,184.7 L 378.5,160.5" style="fill:none;fill-rule:evenodd;stroke:#000000;stroke-width:2.0px;stroke-linecap:butt;stroke-linejoin:miter;stroke-opacity:1"/>
<path class="bond-14 atom-14 atom-15" d="M 371.4,184.7 L 383.6,163.4" style="fill:none;fill-rule:evenodd;stroke:#000000;stroke-width:2.0px;stroke-linecap:butt;stroke-linejoin:miter;stroke-opacity:1"/>
<path class="bond-15 atom-15 atom-16" d="M 391.6,151.0 L 423.0,151.0" style="fill:none;fill-rule:evenodd;stroke:#000000;stroke-width:2.0px;stroke-linecap:butt;stroke-linejoin:miter;stroke-opacity:1"/>
<path class="bond-16 atom-16 atom-17" d="M 423.0,151.0 L 442.3,184.6" style="fill:none;fill-rule:evenodd;stroke:#000000;stroke-width:2.0px;stroke-linecap:butt;stroke-linejoin:miter;stroke-opacity:1"/>
<path class="bond-16 atom-16 atom-17" d="M 419.6,156.8 L 435.6,184.6" style="fill:none;fill-rule:evenodd;stroke:#000000;stroke-width:2.0px;stroke-linecap:butt;stroke-linejoin:miter;stroke-opacity:1"/>
<path class="bond-17 atom-17 atom-18" d="M 442.3,184.6 L 484.9,180.0" style="fill:none;fill-rule:evenodd;stroke:#000000;stroke-width:2.0px;stroke-linecap:butt;stroke-linejoin:miter;stroke-opacity:1"/>
<path class="bond-18 atom-17 atom-19" d="M 442.3,184.6 L 423.0,218.4" style="fill:none;fill-rule:evenodd;stroke:#000000;stroke-width:2.0px;stroke-linecap:butt;stroke-linejoin:miter;stroke-opacity:1"/>
<path class="bond-19 atom-19 atom-20" d="M 423.0,218.4 L 436.8,245.8" style="fill:none;fill-rule:evenodd;stroke:#000000;stroke-width:2.0px;stroke-linecap:butt;stroke-linejoin:miter;stroke-opacity:1"/>
<path class="bond-20 atom-20 atom-21" d="M 450.6,256.0 L 479.7,258.0" style="fill:none;fill-rule:evenodd;stroke:#000000;stroke-width:2.0px;stroke-linecap:butt;stroke-linejoin:miter;stroke-opacity:1"/>
<path class="bond-21 atom-19 atom-22" d="M 423.0,218.4 L 384.0,218.4" style="fill:none;fill-rule:evenodd;stroke:#000000;stroke-width:2.0px;stroke-linecap:butt;stroke-linejoin:miter;stroke-opacity:1"/>
<path class="bond-21 atom-19 atom-22" d="M 419.6,212.6 L 387.4,212.6" style="fill:none;fill-rule:evenodd;stroke:#000000;stroke-width:2.0px;stroke-linecap:butt;stroke-linejoin:miter;stroke-opacity:1"/>
<path class="bond-22 atom-22 atom-23" d="M 384.0,218.4 L 365.0,252.7" style="fill:none;fill-rule:evenodd;stroke:#000000;stroke-width:2.0px;stroke-linecap:butt;stroke-linejoin:miter;stroke-opacity:1"/>
<path class="bond-23 atom-10 atom-2" d="M 174.0,112.0 L 140.2,131.3" style="fill:none;fill-rule:evenodd;stroke:#000000;stroke-width:2.0px;stroke-linecap:butt;stroke-linejoin:miter;stroke-opacity:1"/>
<path class="bond-24 atom-22 atom-14" d="M 384.0,218.4 L 364.6,184.7" style="fill:none;fill-rule:evenodd;stroke:#000000;stroke-width:2.0px;stroke-linecap:butt;stroke-linejoin:miter;stroke-opacity:1"/>
<path class="bond-25 atom-9 atom-5" d="M 207.5,131.4 L 207.6,170.3" style="fill:none;fill-rule:evenodd;stroke:#000000;stroke-width:2.0px;stroke-linecap:butt;stroke-linejoin:miter;stroke-opacity:1"/>
<path class="bond-26 atom-0 atom-24" d="M 72.9,131.3 L 58.9,107.1" style="fill:none;fill-rule:evenodd;stroke:#000000;stroke-width:2.0px;stroke-linecap:butt;stroke-linejoin:miter;stroke-opacity:1"/>
<path class="bond-27 atom-0 atom-25" d="M 72.9,131.3 L 41.7,131.3" style="fill:none;fill-rule:evenodd;stroke:#000000;stroke-width:2.0px;stroke-linecap:butt;stroke-linejoin:miter;stroke-opacity:1"/>
<path class="bond-28 atom-0 atom-26" d="M 72.9,131.3 L 72.8,160.6" style="fill:none;fill-rule:evenodd;stroke:#000000;stroke-width:2.0px;stroke-linecap:butt;stroke-linejoin:miter;stroke-opacity:1"/>
<path class="bond-29 atom-3 atom-27" d="M 140.2,170.2 L 114.2,185.2" style="fill:none;fill-rule:evenodd;stroke:#000000;stroke-width:2.0px;stroke-linecap:butt;stroke-linejoin:miter;stroke-opacity:1"/>
<path class="bond-30 atom-4 atom-28" d="M 173.8,189.7 L 173.8,219.0" style="fill:none;fill-rule:evenodd;stroke:#000000;stroke-width:2.0px;stroke-linecap:butt;stroke-linejoin:miter;stroke-opacity:1"/>
<path class="bond-31 atom-8 atom-29" d="M 247.7,109.9 L 253.5,92.0" style="fill:none;fill-rule:evenodd;stroke:#000000;stroke-width:2.0px;stroke-linecap:butt;stroke-linejoin:miter;stroke-opacity:1"/>
<path class="bond-32 atom-10 atom-30" d="M 174.0,112.0 L 174.0,82.6" style="fill:none;fill-rule:evenodd;stroke:#000000;stroke-width:2.0px;stroke-linecap:butt;stroke-linejoin:miter;stroke-opacity:1"/>
<path class="bond-33 atom-13 atom-31" d="M 325.3,184.3 L 324.8,213.1" style="fill:none;fill-rule:evenodd;stroke:#000000;stroke-width:2.0px;stroke-linecap:butt;stroke-linejoin:miter;stroke-opacity:1"/>
<path class="bond-34 atom-13 atom-32" d="M 325.3,184.3 L 299.2,199.1" style="fill:none;fill-rule:evenodd;stroke:#000000;stroke-width:2.0px;stroke-linecap:butt;stroke-linejoin:miter;stroke-opacity:1"/>
<path class="bond-35 atom-16 atom-33" d="M 423.0,151.0 L 436.9,126.8" style="fill:none;fill-rule:evenodd;stroke:#000000;stroke-width:2.0px;stroke-linecap:butt;stroke-linejoin:miter;stroke-opacity:1"/>
<path class="bond-36 atom-18 atom-34" d="M 484.9,180.0 L 481.8,150.8" style="fill:none;fill-rule:evenodd;stroke:#000000;stroke-width:2.0px;stroke-linecap:butt;stroke-linejoin:miter;stroke-opacity:1"/>
<path class="bond-37 atom-18 atom-35" d="M 484.9,180.0 L 508.3,162.2" style="fill:none;fill-rule:evenodd;stroke:#000000;stroke-width:2.0px;stroke-linecap:butt;stroke-linejoin:miter;stroke-opacity:1"/>
<path class="bond-38 atom-18 atom-36" d="M 484.9,180.0 L 501.1,199.2" style="fill:none;fill-rule:evenodd;stroke:#000000;stroke-width:2.0px;stroke-linecap:butt;stroke-linejoin:miter;stroke-opacity:1"/>
<path class="bond-39 atom-21 atom-37" d="M 479.7,258.0 L 479.2,230.7" style="fill:none;fill-rule:evenodd;stroke:#000000;stroke-width:2.0px;stroke-linecap:butt;stroke-linejoin:miter;stroke-opacity:1"/>
<path class="bond-40 atom-21 atom-38" d="M 479.7,258.0 L 505.9,243.4" style="fill:none;fill-rule:evenodd;stroke:#000000;stroke-width:2.0px;stroke-linecap:butt;stroke-linejoin:miter;stroke-opacity:1"/>
<path class="bond-41 atom-21 atom-39" d="M 479.7,258.0 L 493.2,282.8" style="fill:none;fill-rule:evenodd;stroke:#000000;stroke-width:2.0px;stroke-linecap:butt;stroke-linejoin:miter;stroke-opacity:1"/>
<path class="bond-42 atom-23 atom-40" d="M 365.0,252.7 L 391.3,267.2" style="fill:none;fill-rule:evenodd;stroke:#000000;stroke-width:2.0px;stroke-linecap:butt;stroke-linejoin:miter;stroke-opacity:1"/>
<path class="bond-43 atom-23 atom-41" d="M 365.0,252.7 L 365.6,282.1" style="fill:none;fill-rule:evenodd;stroke:#000000;stroke-width:2.0px;stroke-linecap:butt;stroke-linejoin:miter;stroke-opacity:1"/>
<path class="bond-44 atom-23 atom-42" d="M 365.0,252.7 L 334.5,253.5" style="fill:none;fill-rule:evenodd;stroke:#000000;stroke-width:2.0px;stroke-linecap:butt;stroke-linejoin:miter;stroke-opacity:1"/>
<path class="atom-1" d="M 99.0 111.9 Q 99.0 107.9, 100.9 105.7 Q 102.9 103.5, 106.5 103.5 Q 110.2 103.5, 112.2 105.7 Q 114.1 107.9, 114.1 111.9 Q 114.1 115.9, 112.1 118.2 Q 110.2 120.5, 106.5 120.5 Q 102.9 120.5, 100.9 118.2 Q 99.0 115.9, 99.0 111.9 M 106.5 118.6 Q 109.1 118.6, 110.4 116.9 Q 111.8 115.2, 111.8 111.9 Q 111.8 108.7, 110.4 107.0 Q 109.1 105.4, 106.5 105.4 Q 104.0 105.4, 102.6 107.0 Q 101.3 108.6, 101.3 111.9 Q 101.3 115.2, 102.6 116.9 Q 104.0 118.6, 106.5 118.6 " fill="#000000"/>
<path class="atom-6" d="M 240.9 174.1 L 246.3 182.9 Q 246.8 183.7, 247.7 185.3 Q 248.6 186.8, 248.6 186.9 L 248.6 174.1 L 250.8 174.1 L 250.8 190.6 L 248.5 190.6 L 242.7 181.1 Q 242.0 179.9, 241.3 178.7 Q 240.6 177.4, 240.4 177.0 L 240.4 190.6 L 238.3 190.6 L 238.3 174.1 L 240.9 174.1 " fill="#000000"/>
<path class="atom-8" d="M 240.9 111.2 L 246.3 119.9 Q 246.9 120.8, 247.7 122.3 Q 248.6 123.9, 248.7 124.0 L 248.7 111.2 L 250.8 111.2 L 250.8 127.7 L 248.6 127.7 L 242.8 118.1 Q 242.1 117.0, 241.4 115.7 Q 240.7 114.4, 240.5 114.0 L 240.5 127.7 L 238.3 127.7 L 238.3 111.2 L 240.9 111.2 " fill="#000000"/>
<path class="atom-11" d="M 301.5 156.5 Q 301.7 156.6, 302.5 156.9 Q 303.2 157.3, 304.1 157.5 Q 304.9 157.7, 305.8 157.7 Q 307.3 157.7, 308.2 156.9 Q 309.2 156.1, 309.2 154.8 Q 309.2 153.9, 308.7 153.3 Q 308.2 152.8, 307.5 152.5 Q 306.8 152.2, 305.7 151.8 Q 304.2 151.4, 303.3 151.0 Q 302.5 150.5, 301.8 149.7 Q 301.2 148.8, 301.2 147.3 Q 301.2 145.2, 302.6 143.9 Q 304.0 142.6, 306.8 142.6 Q 308.8 142.6, 310.9 143.5 L 310.4 145.3 Q 308.4 144.5, 306.9 144.5 Q 305.3 144.5, 304.4 145.2 Q 303.5 145.9, 303.6 147.0 Q 303.6 147.9, 304.0 148.4 Q 304.5 149.0, 305.1 149.3 Q 305.8 149.6, 306.9 149.9 Q 308.4 150.4, 309.3 150.8 Q 310.2 151.3, 310.8 152.3 Q 311.5 153.2, 311.5 154.8 Q 311.5 157.1, 309.9 158.3 Q 308.4 159.5, 305.9 159.5 Q 304.4 159.5, 303.3 159.2 Q 302.2 158.9, 300.9 158.4 L 301.5 156.5 " fill="#000000"/>
<path class="atom-12" d="M 318.1 117.3 Q 318.1 113.3, 320.1 111.1 Q 322.0 108.9, 325.7 108.9 Q 329.3 108.9, 331.3 111.1 Q 333.3 113.3, 333.3 117.3 Q 333.3 121.3, 331.3 123.6 Q 329.3 125.8, 325.7 125.8 Q 322.0 125.8, 320.1 123.6 Q 318.1 121.3, 318.1 117.3 M 325.7 124.0 Q 328.2 124.0, 329.6 122.3 Q 330.9 120.6, 330.9 117.3 Q 330.9 114.0, 329.6 112.4 Q 328.2 110.7, 325.7 110.7 Q 323.2 110.7, 321.8 112.4 Q 320.4 114.0, 320.4 117.3 Q 320.4 120.6, 321.8 122.3 Q 323.2 124.0, 325.7 124.0 " fill="#000000"/>
<path class="atom-15" d="M 380.4 142.7 L 385.8 151.5 Q 386.3 152.3, 387.2 153.9 Q 388.1 155.5, 388.1 155.6 L 388.1 142.7 L 390.3 142.7 L 390.3 159.2 L 388.0 159.2 L 382.2 149.7 Q 381.5 148.6, 380.8 147.3 Q 380.1 146.0, 379.9 145.6 L 379.9 159.2 L 377.8 159.2 L 377.8 142.7 L 380.4 142.7 " fill="#000000"/>
<path class="atom-20" d="M 434.1 255.5 Q 434.1 251.5, 436.1 249.3 Q 438.1 247.1, 441.7 247.1 Q 445.4 247.1, 447.3 249.3 Q 449.3 251.5, 449.3 255.5 Q 449.3 259.5, 447.3 261.8 Q 445.3 264.0, 441.7 264.0 Q 438.1 264.0, 436.1 261.8 Q 434.1 259.5, 434.1 255.5 M 441.7 262.2 Q 444.2 262.2, 445.6 260.5 Q 447.0 258.8, 447.0 255.5 Q 447.0 252.2, 445.6 250.6 Q 444.2 248.9, 441.7 248.9 Q 439.2 248.9, 437.8 250.6 Q 436.5 252.2, 436.5 255.5 Q 436.5 258.8, 437.8 260.5 Q 439.2 262.2, 441.7 262.2 " fill="#000000"/>
<path class="atom-24" d="M 47.0 89.3 L 49.2 89.3 L 49.2 96.4 L 57.6 96.4 L 57.6 89.3 L 59.9 89.3 L 59.9 105.9 L 57.6 105.9 L 57.6 98.2 L 49.2 98.2 L 49.2 105.9 L 47.0 105.9 L 47.0 89.3 " fill="#000000"/>
<path class="atom-25" d="M 27.5 123.0 L 29.7 123.0 L 29.7 130.0 L 38.2 130.0 L 38.2 123.0 L 40.4 123.0 L 40.4 139.5 L 38.2 139.5 L 38.2 131.9 L 29.7 131.9 L 29.7 139.5 L 27.5 139.5 L 27.5 123.0 " fill="#000000"/>
<path class="atom-26" d="M 66.4 161.9 L 68.6 161.9 L 68.6 168.9 L 77.1 168.9 L 77.1 161.9 L 79.3 161.9 L 79.3 178.4 L 77.1 178.4 L 77.1 170.8 L 68.6 170.8 L 68.6 178.4 L 66.4 178.4 L 66.4 161.9 " fill="#000000"/>
<path class="atom-27" d="M 100.0 181.4 L 102.2 181.4 L 102.2 188.4 L 110.7 188.4 L 110.7 181.4 L 112.9 181.4 L 112.9 197.9 L 110.7 197.9 L 110.7 190.3 L 102.2 190.3 L 102.2 197.9 L 100.0 197.9 L 100.0 181.4 " fill="#000000"/>
<path class="atom-28" d="M 167.3 220.3 L 169.6 220.3 L 169.6 227.3 L 178.0 227.3 L 178.0 220.3 L 180.2 220.3 L 180.2 236.8 L 178.0 236.8 L 178.0 229.2 L 169.6 229.2 L 169.6 236.8 L 167.3 236.8 L 167.3 220.3 " fill="#000000"/>
<path class="atom-29" d="M 250.1 74.1 L 252.4 74.1 L 252.4 81.2 L 260.8 81.2 L 260.8 74.1 L 263.1 74.1 L 263.1 90.7 L 260.8 90.7 L 260.8 83.0 L 252.4 83.0 L 252.4 90.7 L 250.1 90.7 L 250.1 74.1 " fill="#000000"/>
<path class="atom-30" d="M 167.5 64.8 L 169.8 64.8 L 169.8 71.8 L 178.2 71.8 L 178.2 64.8 L 180.4 64.8 L 180.4 81.3 L 178.2 81.3 L 178.2 73.7 L 169.8 73.7 L 169.8 81.3 L 167.5 81.3 L 167.5 64.8 " fill="#000000"/>
<path class="atom-31" d="M 318.2 214.4 L 320.4 214.4 L 320.4 221.4 L 328.9 221.4 L 328.9 214.4 L 331.1 214.4 L 331.1 230.9 L 328.9 230.9 L 328.9 223.3 L 320.4 223.3 L 320.4 230.9 L 318.2 230.9 L 318.2 214.4 " fill="#000000"/>
<path class="atom-32" d="M 285.0 195.2 L 287.2 195.2 L 287.2 202.2 L 295.6 202.2 L 295.6 195.2 L 297.9 195.2 L 297.9 211.7 L 295.6 211.7 L 295.6 204.1 L 287.2 204.1 L 287.2 211.7 L 285.0 211.7 L 285.0 195.2 " fill="#000000"/>
<path class="atom-33" d="M 435.9 109.0 L 438.2 109.0 L 438.2 116.1 L 446.6 116.1 L 446.6 109.0 L 448.9 109.0 L 448.9 125.6 L 446.6 125.6 L 446.6 117.9 L 438.2 117.9 L 438.2 125.6 L 435.9 125.6 L 435.9 109.0 " fill="#000000"/>
<path class="atom-34" d="M 474.4 133.0 L 476.6 133.0 L 476.6 140.1 L 485.1 140.1 L 485.1 133.0 L 487.3 133.0 L 487.3 149.6 L 485.1 149.6 L 485.1 141.9 L 476.6 141.9 L 476.6 149.6 L 474.4 149.6 L 474.4 133.0 " fill="#000000"/>
<path class="atom-35" d="M 509.6 148.0 L 511.8 148.0 L 511.8 155.0 L 520.3 155.0 L 520.3 148.0 L 522.5 148.0 L 522.5 164.5 L 520.3 164.5 L 520.3 156.9 L 511.8 156.9 L 511.8 164.5 L 509.6 164.5 L 509.6 148.0 " fill="#000000"/>
<path class="atom-36" d="M 502.3 200.2 L 504.6 200.2 L 504.6 207.2 L 513.0 207.2 L 513.0 200.2 L 515.3 200.2 L 515.3 216.7 L 513.0 216.7 L 513.0 209.1 L 504.6 209.1 L 504.6 216.7 L 502.3 216.7 L 502.3 200.2 " fill="#000000"/>
<path class="atom-37" d="M 472.5 212.9 L 474.8 212.9 L 474.8 220.0 L 483.2 220.0 L 483.2 212.9 L 485.5 212.9 L 485.5 229.5 L 483.2 229.5 L 483.2 221.8 L 474.8 221.8 L 474.8 229.5 L 472.5 229.5 L 472.5 212.9 " fill="#000000"/>
<path class="atom-38" d="M 507.2 230.9 L 509.4 230.9 L 509.4 237.9 L 517.9 237.9 L 517.9 230.9 L 520.1 230.9 L 520.1 247.4 L 517.9 247.4 L 517.9 239.8 L 509.4 239.8 L 509.4 247.4 L 507.2 247.4 L 507.2 230.9 " fill="#000000"/>
<path class="atom-39" d="M 492.0 284.1 L 494.2 284.1 L 494.2 291.1 L 502.7 291.1 L 502.7 284.1 L 504.9 284.1 L 504.9 300.6 L 502.7 300.6 L 502.7 292.9 L 494.2 292.9 L 494.2 300.6 L 492.0 300.6 L 492.0 284.1 " fill="#000000"/>
<path class="atom-40" d="M 392.6 263.3 L 394.8 263.3 L 394.8 270.3 L 403.3 270.3 L 403.3 263.3 L 405.5 263.3 L 405.5 279.8 L 403.3 279.8 L 403.3 272.2 L 394.8 272.2 L 394.8 279.8 L 392.6 279.8 L 392.6 263.3 " fill="#000000"/>
<path class="atom-41" d="M 359.4 283.3 L 361.6 283.3 L 361.6 290.4 L 370.1 290.4 L 370.1 283.3 L 372.3 283.3 L 372.3 299.9 L 370.1 299.9 L 370.1 292.2 L 361.6 292.2 L 361.6 299.9 L 359.4 299.9 L 359.4 283.3 " fill="#000000"/>
<path class="atom-42" d="M 320.2 245.4 L 322.5 245.4 L 322.5 252.5 L 330.9 252.5 L 330.9 245.4 L 333.2 245.4 L 333.2 262.0 L 330.9 262.0 L 330.9 254.3 L 322.5 254.3 L 322.5 262.0 L 320.2 262.0 L 320.2 245.4 " fill="#000000"/>
<path class="note" d="M 70.1 116.8 Q 68.6 116.8, 67.8 115.7 Q 67.1 114.5, 67.1 112.5 Q 67.1 110.5, 67.8 109.4 Q 68.6 108.3, 70.1 108.3 Q 71.6 108.3, 72.4 109.4 Q 73.1 110.5, 73.1 112.5 Q 73.1 114.5, 72.4 115.7 Q 71.6 116.8, 70.1 116.8 M 70.1 115.8 Q 71.0 115.8, 71.5 115.0 Q 72.0 114.2, 72.0 112.5 Q 72.0 110.9, 71.5 110.1 Q 71.0 109.3, 70.1 109.3 Q 69.2 109.3, 68.7 110.1 Q 68.3 110.9, 68.3 112.5 Q 68.3 114.2, 68.7 115.0 Q 69.2 115.8, 70.1 115.8 " fill="#000000"/>
<path class="note" d="M 74.3 115.5 L 75.5 115.5 L 75.5 116.7 L 74.3 116.7 L 74.3 115.5 " fill="#000000"/>
<path class="note" d="M 77.2 115.7 L 79.0 115.7 L 79.0 109.6 L 77.0 110.2 L 76.7 109.5 L 79.3 108.4 L 80.1 108.5 L 80.1 115.7 L 81.7 115.7 L 81.7 116.7 L 77.2 116.7 L 77.2 115.7 " fill="#000000"/>
<path class="note" d="M 85.7 116.8 Q 84.2 116.8, 83.4 115.7 Q 82.7 114.5, 82.7 112.5 Q 82.7 110.5, 83.4 109.4 Q 84.1 108.3, 85.7 108.3 Q 87.2 108.3, 88.0 109.4 Q 88.7 110.5, 88.7 112.5 Q 88.7 114.5, 87.9 115.7 Q 87.2 116.8, 85.7 116.8 M 85.7 115.8 Q 86.6 115.8, 87.1 115.0 Q 87.5 114.2, 87.5 112.5 Q 87.5 110.9, 87.1 110.1 Q 86.6 109.3, 85.7 109.3 Q 84.8 109.3, 84.3 110.1 Q 83.8 110.9, 83.8 112.5 Q 83.8 114.2, 84.3 115.0 Q 84.8 115.8, 85.7 115.8 " fill="#000000"/>
<path class="note" d="M 93.0 92.4 L 97.2 92.4 L 97.2 93.3 L 93.0 93.3 L 93.0 92.4 " fill="#000000"/>
<path class="note" d="M 101.3 96.7 Q 99.8 96.7, 99.0 95.6 Q 98.3 94.4, 98.3 92.4 Q 98.3 90.4, 99.0 89.3 Q 99.8 88.2, 101.3 88.2 Q 102.8 88.2, 103.6 89.3 Q 104.3 90.4, 104.3 92.4 Q 104.3 94.4, 103.6 95.6 Q 102.8 96.7, 101.3 96.7 M 101.3 95.7 Q 102.2 95.7, 102.7 94.9 Q 103.2 94.1, 103.2 92.4 Q 103.2 90.8, 102.7 90.0 Q 102.2 89.2, 101.3 89.2 Q 100.4 89.2, 99.9 90.0 Q 99.4 90.8, 99.4 92.4 Q 99.4 94.1, 99.9 94.9 Q 100.4 95.7, 101.3 95.7 " fill="#000000"/>
<path class="note" d="M 105.5 95.4 L 106.7 95.4 L 106.7 96.6 L 105.5 96.6 L 105.5 95.4 " fill="#000000"/>
<path class="note" d="M 111.9 92.2 Q 112.7 92.5, 113.1 93.0 Q 113.5 93.5, 113.5 94.3 Q 113.5 95.0, 113.1 95.6 Q 112.8 96.1, 112.1 96.4 Q 111.5 96.7, 110.6 96.7 Q 109.7 96.7, 109.1 96.4 Q 108.4 96.1, 107.9 95.5 L 108.6 94.8 Q 109.1 95.3, 109.5 95.6 Q 109.9 95.8, 110.6 95.8 Q 111.4 95.8, 111.8 95.4 Q 112.3 95.0, 112.3 94.3 Q 112.3 93.5, 111.8 93.1 Q 111.3 92.7, 110.3 92.7 L 109.7 92.7 L 109.7 91.9 L 110.3 91.9 Q 111.2 91.9, 111.6 91.5 Q 112.1 91.1, 112.1 90.3 Q 112.1 89.8, 111.7 89.5 Q 111.3 89.2, 110.6 89.2 Q 110.0 89.2, 109.5 89.4 Q 109.1 89.7, 108.8 90.3 L 108.0 89.8 Q 108.3 89.2, 109.0 88.7 Q 109.7 88.2, 110.6 88.2 Q 111.9 88.2, 112.6 88.8 Q 113.3 89.4, 113.3 90.3 Q 113.3 91.0, 112.9 91.5 Q 112.6 92.0, 111.9 92.2 " fill="#000000"/>
<path class="note" d="M 118.6 92.2 Q 119.4 92.5, 119.8 93.0 Q 120.2 93.5, 120.2 94.3 Q 120.2 95.0, 119.8 95.6 Q 119.5 96.1, 118.8 96.4 Q 118.2 96.7, 117.3 96.7 Q 116.4 96.7, 115.8 96.4 Q 115.1 96.1, 114.6 95.5 L 115.3 94.8 Q 115.8 95.3, 116.2 95.6 Q 116.6 95.8, 117.3 95.8 Q 118.1 95.8, 118.5 95.4 Q 119.0 95.0, 119.0 94.3 Q 119.0 93.5, 118.5 93.1 Q 118.0 92.7, 117.0 92.7 L 116.4 92.7 L 116.4 91.9 L 117.0 91.9 Q 117.9 91.9, 118.3 91.5 Q 118.8 91.1, 118.8 90.3 Q 118.8 89.8, 118.4 89.5 Q 118.0 89.2, 117.3 89.2 Q 116.7 89.2, 116.2 89.4 Q 115.8 89.7, 115.5 90.3 L 114.7 89.8 Q 115.0 89.2, 115.7 88.7 Q 116.4 88.2, 117.3 88.2 Q 118.6 88.2, 119.3 88.8 Q 120.0 89.4, 120.0 90.3 Q 120.0 91.0, 119.6 91.5 Q 119.3 92.0, 118.6 92.2 " fill="#000000"/>
<path class="note" d="M 115.4 145.3 Q 113.9 145.3, 113.1 144.2 Q 112.3 143.1, 112.3 141.1 Q 112.3 139.1, 113.1 138.0 Q 113.8 136.9, 115.4 136.9 Q 116.9 136.9, 117.6 138.0 Q 118.4 139.1, 118.4 141.1 Q 118.4 143.1, 117.6 144.2 Q 116.9 145.3, 115.4 145.3 M 115.4 144.4 Q 116.3 144.4, 116.7 143.5 Q 117.2 142.7, 117.2 141.1 Q 117.2 139.4, 116.7 138.6 Q 116.3 137.8, 115.4 137.8 Q 114.5 137.8, 114.0 138.6 Q 113.5 139.4, 113.5 141.1 Q 113.5 142.7, 114.0 143.5 Q 114.5 144.4, 115.4 144.4 " fill="#000000"/>
<path class="note" d="M 119.6 144.0 L 120.8 144.0 L 120.8 145.2 L 119.6 145.2 L 119.6 144.0 " fill="#000000"/>
<path class="note" d="M 122.5 144.3 L 124.3 144.3 L 124.3 138.1 L 122.3 138.7 L 122.0 138.0 L 124.5 136.9 L 125.4 137.0 L 125.4 144.3 L 127.0 144.3 L 127.0 145.2 L 122.5 145.2 L 122.5 144.3 " fill="#000000"/>
<path class="note" d="M 133.3 142.4 L 134.3 142.4 L 134.3 143.3 L 133.3 143.3 L 133.3 145.2 L 132.2 145.2 L 132.2 143.3 L 127.9 143.3 L 127.9 142.6 L 131.6 137.0 L 133.3 137.0 L 133.3 142.4 M 129.3 142.4 L 132.2 142.4 L 132.2 137.7 L 129.3 142.4 " fill="#000000"/>
<path class="note" d="M 127.0 189.6 L 131.3 189.6 L 131.3 190.6 L 127.0 190.6 L 127.0 189.6 " fill="#000000"/>
<path class="note" d="M 135.3 193.9 Q 133.8 193.9, 133.1 192.8 Q 132.3 191.7, 132.3 189.7 Q 132.3 187.7, 133.1 186.6 Q 133.8 185.5, 135.3 185.5 Q 136.9 185.5, 137.6 186.6 Q 138.4 187.7, 138.4 189.7 Q 138.4 191.7, 137.6 192.8 Q 136.9 193.9, 135.3 193.9 M 135.3 193.0 Q 136.2 193.0, 136.7 192.2 Q 137.2 191.3, 137.2 189.7 Q 137.2 188.1, 136.7 187.2 Q 136.2 186.4, 135.3 186.4 Q 134.5 186.4, 134.0 187.2 Q 133.5 188.1, 133.5 189.7 Q 133.5 191.3, 134.0 192.2 Q 134.5 193.0, 135.3 193.0 " fill="#000000"/>
<path class="note" d="M 139.6 192.7 L 140.7 192.7 L 140.7 193.8 L 139.6 193.8 L 139.6 192.7 " fill="#000000"/>
<path class="note" d="M 142.4 192.9 L 144.2 192.9 L 144.2 186.7 L 142.2 187.3 L 141.9 186.6 L 144.5 185.5 L 145.3 185.7 L 145.3 192.9 L 146.9 192.9 L 146.9 193.8 L 142.4 193.8 L 142.4 192.9 " fill="#000000"/>
<path class="note" d="M 152.2 186.5 L 147.8 186.5 L 147.8 185.6 L 153.3 185.6 L 153.3 186.4 L 150.0 193.8 L 148.9 193.8 L 152.2 186.5 " fill="#000000"/>
<path class="note" d="M 237.0 200.9 L 241.2 200.9 L 241.2 201.8 L 237.0 201.8 L 237.0 200.9 " fill="#000000"/>
<path class="note" d="M 245.3 205.1 Q 243.8 205.1, 243.0 204.0 Q 242.3 202.9, 242.3 200.9 Q 242.3 198.9, 243.0 197.8 Q 243.8 196.7, 245.3 196.7 Q 246.8 196.7, 247.6 197.8 Q 248.3 198.9, 248.3 200.9 Q 248.3 202.9, 247.6 204.0 Q 246.8 205.1, 245.3 205.1 M 245.3 204.2 Q 246.2 204.2, 246.7 203.4 Q 247.2 202.5, 247.2 200.9 Q 247.2 199.3, 246.7 198.4 Q 246.2 197.6, 245.3 197.6 Q 244.4 197.6, 243.9 198.4 Q 243.5 199.3, 243.5 200.9 Q 243.5 202.5, 243.9 203.4 Q 244.4 204.2, 245.3 204.2 " fill="#000000"/>
<path class="note" d="M 249.5 203.9 L 250.7 203.9 L 250.7 205.0 L 249.5 205.0 L 249.5 203.9 " fill="#000000"/>
<path class="note" d="M 254.9 199.9 Q 255.6 199.9, 256.2 200.2 Q 256.8 200.5, 257.2 201.1 Q 257.5 201.6, 257.5 202.4 Q 257.5 203.3, 257.1 203.9 Q 256.7 204.5, 256.0 204.8 Q 255.3 205.1, 254.6 205.1 Q 253.8 205.1, 253.1 204.9 Q 252.4 204.6, 251.9 204.0 L 252.6 203.3 Q 253.0 203.7, 253.5 204.0 Q 254.1 204.2, 254.6 204.2 Q 255.3 204.2, 255.8 203.7 Q 256.3 203.3, 256.3 202.4 Q 256.3 201.6, 255.8 201.2 Q 255.3 200.7, 254.5 200.7 Q 253.8 200.7, 253.0 201.1 L 252.3 200.8 L 252.7 196.8 L 257.0 196.8 L 256.9 197.7 L 253.7 197.7 L 253.5 200.2 Q 254.2 199.9, 254.9 199.9 " fill="#000000"/>
<path class="note" d="M 262.5 200.7 Q 263.3 200.9, 263.7 201.4 Q 264.1 202.0, 264.1 202.8 Q 264.1 203.5, 263.7 204.0 Q 263.4 204.6, 262.7 204.9 Q 262.1 205.2, 261.2 205.2 Q 260.4 205.2, 259.7 204.9 Q 259.0 204.5, 258.5 203.9 L 259.2 203.2 Q 259.7 203.8, 260.1 204.0 Q 260.6 204.2, 261.2 204.2 Q 262.0 204.2, 262.4 203.8 Q 262.9 203.4, 262.9 202.8 Q 262.9 201.9, 262.4 201.6 Q 262.0 201.2, 260.9 201.2 L 260.3 201.2 L 260.3 200.3 L 260.9 200.3 Q 261.8 200.3, 262.3 199.9 Q 262.7 199.5, 262.7 198.8 Q 262.7 198.3, 262.3 197.9 Q 261.9 197.6, 261.3 197.6 Q 260.6 197.6, 260.1 197.9 Q 259.7 198.1, 259.4 198.7 L 258.6 198.3 Q 258.9 197.6, 259.6 197.2 Q 260.3 196.7, 261.3 196.7 Q 262.5 196.7, 263.2 197.3 Q 263.9 197.8, 263.9 198.8 Q 263.9 199.5, 263.5 199.9 Q 263.2 200.4, 262.5 200.7 " fill="#000000"/>
<path class="note" d="M 268.6 138.3 Q 267.0 138.3, 266.3 137.2 Q 265.5 136.1, 265.5 134.1 Q 265.5 132.1, 266.3 131.0 Q 267.0 129.9, 268.6 129.9 Q 270.1 129.9, 270.8 131.0 Q 271.6 132.1, 271.6 134.1 Q 271.6 136.1, 270.8 137.2 Q 270.1 138.3, 268.6 138.3 M 268.6 137.4 Q 269.5 137.4, 269.9 136.6 Q 270.4 135.7, 270.4 134.1 Q 270.4 132.5, 269.9 131.6 Q 269.5 130.8, 268.6 130.8 Q 267.7 130.8, 267.2 131.6 Q 266.7 132.5, 266.7 134.1 Q 266.7 135.7, 267.2 136.6 Q 267.7 137.4, 268.6 137.4 " fill="#000000"/>
<path class="note" d="M 272.8 137.1 L 274.0 137.1 L 274.0 138.2 L 272.8 138.2 L 272.8 137.1 " fill="#000000"/>
<path class="note" d="M 280.6 135.4 L 281.6 135.4 L 281.6 136.3 L 280.6 136.3 L 280.6 138.2 L 279.5 138.2 L 279.5 136.3 L 275.2 136.3 L 275.2 135.6 L 278.9 130.0 L 280.6 130.0 L 280.6 135.4 M 276.6 135.4 L 279.5 135.4 L 279.5 130.7 L 276.6 135.4 " fill="#000000"/>
<path class="note" d="M 285.7 138.3 Q 284.2 138.3, 283.4 137.2 Q 282.7 136.1, 282.7 134.1 Q 282.7 132.1, 283.4 131.0 Q 284.2 129.9, 285.7 129.9 Q 287.2 129.9, 288.0 131.0 Q 288.7 132.1, 288.7 134.1 Q 288.7 136.1, 288.0 137.2 Q 287.2 138.3, 285.7 138.3 M 285.7 137.4 Q 286.6 137.4, 287.1 136.6 Q 287.5 135.7, 287.5 134.1 Q 287.5 132.5, 287.1 131.6 Q 286.6 130.8, 285.7 130.8 Q 284.8 130.8, 284.3 131.6 Q 283.8 132.5, 283.8 134.1 Q 283.8 135.7, 284.3 136.6 Q 284.8 137.4, 285.7 137.4 " fill="#000000"/>
<path class="note" d="M 224.9 137.9 L 229.2 137.9 L 229.2 138.8 L 224.9 138.8 L 224.9 137.9 " fill="#000000"/>
<path class="note" d="M 233.3 142.2 Q 231.8 142.2, 231.0 141.1 Q 230.3 139.9, 230.3 137.9 Q 230.3 135.9, 231.0 134.8 Q 231.7 133.7, 233.3 133.7 Q 234.8 133.7, 235.5 134.8 Q 236.3 135.9, 236.3 137.9 Q 236.3 139.9, 235.5 141.1 Q 234.8 142.2, 233.3 142.2 M 233.3 141.2 Q 234.2 141.2, 234.6 140.4 Q 235.1 139.6, 235.1 137.9 Q 235.1 136.3, 234.6 135.5 Q 234.2 134.7, 233.3 134.7 Q 232.4 134.7, 231.9 135.5 Q 231.4 136.3, 231.4 137.9 Q 231.4 139.6, 231.9 140.4 Q 232.4 141.2, 233.3 141.2 " fill="#000000"/>
<path class="note" d="M 237.5 140.9 L 238.7 140.9 L 238.7 142.1 L 237.5 142.1 L 237.5 140.9 " fill="#000000"/>
<path class="note" d="M 239.9 135.4 Q 240.2 134.6, 240.9 134.2 Q 241.7 133.7, 242.7 133.7 Q 243.9 133.7, 244.6 134.4 Q 245.3 135.1, 245.3 136.3 Q 245.3 137.5, 244.4 138.7 Q 243.5 139.8, 241.6 141.2 L 245.4 141.2 L 245.4 142.1 L 239.9 142.1 L 239.9 141.3 Q 241.4 140.2, 242.3 139.4 Q 243.3 138.6, 243.7 137.8 Q 244.1 137.1, 244.1 136.3 Q 244.1 135.6, 243.7 135.1 Q 243.3 134.7, 242.7 134.7 Q 242.0 134.7, 241.6 134.9 Q 241.1 135.2, 240.8 135.8 L 239.9 135.4 " fill="#000000"/>
<path class="note" d="M 246.6 135.4 Q 246.9 134.6, 247.7 134.2 Q 248.4 133.7, 249.4 133.7 Q 250.6 133.7, 251.3 134.4 Q 252.0 135.1, 252.0 136.3 Q 252.0 137.5, 251.1 138.7 Q 250.2 139.8, 248.4 141.2 L 252.2 141.2 L 252.2 142.1 L 246.6 142.1 L 246.6 141.3 Q 248.1 140.2, 249.1 139.4 Q 250.0 138.6, 250.4 137.8 Q 250.9 137.1, 250.9 136.3 Q 250.9 135.6, 250.5 135.1 Q 250.1 134.7, 249.4 134.7 Q 248.7 134.7, 248.3 134.9 Q 247.8 135.2, 247.5 135.8 L 246.6 135.4 " fill="#000000"/>
<path class="note" d="M 150.9 128.8 L 155.1 128.8 L 155.1 129.7 L 150.9 129.7 L 150.9 128.8 " fill="#000000"/>
<path class="note" d="M 159.2 133.1 Q 157.7 133.1, 156.9 131.9 Q 156.2 130.8, 156.2 128.8 Q 156.2 126.8, 156.9 125.7 Q 157.7 124.6, 159.2 124.6 Q 160.7 124.6, 161.5 125.7 Q 162.2 126.8, 162.2 128.8 Q 162.2 130.8, 161.5 131.9 Q 160.7 133.1, 159.2 133.1 M 159.2 132.1 Q 160.1 132.1, 160.6 131.3 Q 161.0 130.5, 161.0 128.8 Q 161.0 127.2, 160.6 126.4 Q 160.1 125.5, 159.2 125.5 Q 158.3 125.5, 157.8 126.4 Q 157.3 127.2, 157.3 128.8 Q 157.3 130.5, 157.8 131.3 Q 158.3 132.1, 159.2 132.1 " fill="#000000"/>
<path class="note" d="M 163.4 131.8 L 164.6 131.8 L 164.6 133.0 L 163.4 133.0 L 163.4 131.8 " fill="#000000"/>
<path class="note" d="M 166.2 132.0 L 168.0 132.0 L 168.0 125.9 L 166.1 126.5 L 165.8 125.8 L 168.3 124.7 L 169.1 124.8 L 169.1 132.0 L 170.8 132.0 L 170.8 133.0 L 166.2 133.0 L 166.2 132.0 " fill="#000000"/>
<path class="note" d="M 175.9 128.6 Q 176.7 128.9, 177.1 129.4 Q 177.5 129.9, 177.5 130.7 Q 177.5 131.4, 177.2 131.9 Q 176.8 132.5, 176.2 132.8 Q 175.5 133.1, 174.7 133.1 Q 173.3 133.1, 172.5 132.4 Q 171.7 131.8, 171.7 130.7 Q 171.7 130.0, 172.1 129.5 Q 172.4 129.0, 173.1 128.6 Q 172.6 128.3, 172.3 127.9 Q 172.0 127.4, 172.0 126.7 Q 172.0 125.7, 172.7 125.2 Q 173.4 124.6, 174.6 124.6 Q 175.8 124.6, 176.5 125.2 Q 177.2 125.7, 177.2 126.7 Q 177.2 127.3, 176.9 127.8 Q 176.6 128.2, 175.9 128.6 M 174.6 125.5 Q 173.9 125.5, 173.5 125.8 Q 173.2 126.1, 173.2 126.7 Q 173.2 127.1, 173.4 127.4 Q 173.7 127.7, 174.0 127.9 Q 174.4 128.0, 175.1 128.3 Q 175.6 127.9, 175.8 127.6 Q 176.1 127.2, 176.1 126.7 Q 176.1 126.1, 175.7 125.8 Q 175.3 125.5, 174.6 125.5 M 174.7 132.2 Q 175.4 132.2, 175.9 131.8 Q 176.4 131.4, 176.4 130.7 Q 176.4 130.2, 176.1 130.0 Q 175.9 129.7, 175.5 129.5 Q 175.1 129.4, 174.5 129.1 L 174.0 129.0 Q 173.4 129.3, 173.1 129.7 Q 172.9 130.1, 172.9 130.7 Q 172.9 131.4, 173.4 131.8 Q 173.8 132.2, 174.7 132.2 " fill="#000000"/>
<path class="note" d="M 287.9 172.0 Q 286.4 172.0, 285.6 170.9 Q 284.9 169.7, 284.9 167.7 Q 284.9 165.7, 285.6 164.6 Q 286.3 163.5, 287.9 163.5 Q 289.4 163.5, 290.1 164.6 Q 290.9 165.7, 290.9 167.7 Q 290.9 169.7, 290.1 170.9 Q 289.4 172.0, 287.9 172.0 M 287.9 171.0 Q 288.8 171.0, 289.2 170.2 Q 289.7 169.4, 289.7 167.7 Q 289.7 166.1, 289.2 165.3 Q 288.8 164.5, 287.9 164.5 Q 287.0 164.5, 286.5 165.3 Q 286.0 166.1, 286.0 167.7 Q 286.0 169.4, 286.5 170.2 Q 287.0 171.0, 287.9 171.0 " fill="#000000"/>
<path class="note" d="M 292.1 170.7 L 293.3 170.7 L 293.3 171.9 L 292.1 171.9 L 292.1 170.7 " fill="#000000"/>
<path class="note" d="M 299.9 169.0 L 300.9 169.0 L 300.9 170.0 L 299.9 170.0 L 299.9 171.9 L 298.8 171.9 L 298.8 170.0 L 294.6 170.0 L 294.6 169.2 L 298.2 163.6 L 299.9 163.6 L 299.9 169.0 M 295.9 169.0 L 298.8 169.0 L 298.8 164.4 L 295.9 169.0 " fill="#000000"/>
<path class="note" d="M 305.0 172.0 Q 303.5 172.0, 302.7 170.9 Q 302.0 169.7, 302.0 167.7 Q 302.0 165.7, 302.7 164.6 Q 303.5 163.5, 305.0 163.5 Q 306.5 163.5, 307.3 164.6 Q 308.0 165.7, 308.0 167.7 Q 308.0 169.7, 307.3 170.9 Q 306.5 172.0, 305.0 172.0 M 305.0 171.0 Q 305.9 171.0, 306.4 170.2 Q 306.9 169.4, 306.9 167.7 Q 306.9 166.1, 306.4 165.3 Q 305.9 164.5, 305.0 164.5 Q 304.1 164.5, 303.6 165.3 Q 303.1 166.1, 303.1 167.7 Q 303.1 169.4, 303.6 170.2 Q 304.1 171.0, 305.0 171.0 " fill="#000000"/>
<path class="note" d="M 322.2 100.4 L 326.5 100.4 L 326.5 101.3 L 322.2 101.3 L 322.2 100.4 " fill="#000000"/>
<path class="note" d="M 330.5 104.7 Q 329.0 104.7, 328.2 103.5 Q 327.5 102.4, 327.5 100.4 Q 327.5 98.4, 328.2 97.3 Q 329.0 96.2, 330.5 96.2 Q 332.0 96.2, 332.8 97.3 Q 333.5 98.4, 333.5 100.4 Q 333.5 102.4, 332.8 103.5 Q 332.0 104.7, 330.5 104.7 M 330.5 103.7 Q 331.4 103.7, 331.9 102.9 Q 332.4 102.1, 332.4 100.4 Q 332.4 98.8, 331.9 98.0 Q 331.4 97.1, 330.5 97.1 Q 329.6 97.1, 329.1 98.0 Q 328.7 98.8, 328.7 100.4 Q 328.7 102.1, 329.1 102.9 Q 329.6 103.7, 330.5 103.7 " fill="#000000"/>
<path class="note" d="M 334.7 103.4 L 335.9 103.4 L 335.9 104.6 L 334.7 104.6 L 334.7 103.4 " fill="#000000"/>
<path class="note" d="M 340.1 99.4 Q 340.8 99.4, 341.4 99.7 Q 342.0 100.0, 342.4 100.6 Q 342.7 101.2, 342.7 102.0 Q 342.7 102.8, 342.3 103.4 Q 341.9 104.0, 341.2 104.3 Q 340.5 104.7, 339.7 104.7 Q 339.0 104.7, 338.3 104.4 Q 337.6 104.1, 337.1 103.6 L 337.8 102.8 Q 338.2 103.3, 338.7 103.5 Q 339.2 103.7, 339.8 103.7 Q 340.5 103.7, 341.0 103.3 Q 341.5 102.8, 341.5 102.0 Q 341.5 101.1, 341.0 100.7 Q 340.5 100.3, 339.7 100.3 Q 339.0 100.3, 338.2 100.6 L 337.5 100.3 L 337.9 96.3 L 342.2 96.3 L 342.1 97.2 L 338.9 97.2 L 338.6 99.7 Q 339.4 99.4, 340.1 99.4 " fill="#000000"/>
<path class="note" d="M 344.1 103.6 L 346.0 103.6 L 346.0 97.5 L 344.0 98.1 L 343.7 97.4 L 346.2 96.3 L 347.1 96.4 L 347.1 103.6 L 348.7 103.6 L 348.7 104.6 L 344.1 104.6 L 344.1 103.6 " fill="#000000"/>
<path class="note" d="M 321.8 167.6 L 326.1 167.6 L 326.1 168.5 L 321.8 168.5 L 321.8 167.6 " fill="#000000"/>
<path class="note" d="M 330.2 171.8 Q 328.7 171.8, 327.9 170.7 Q 327.1 169.6, 327.1 167.6 Q 327.1 165.6, 327.9 164.5 Q 328.6 163.4, 330.2 163.4 Q 331.7 163.4, 332.4 164.5 Q 333.2 165.6, 333.2 167.6 Q 333.2 169.6, 332.4 170.7 Q 331.7 171.8, 330.2 171.8 M 330.2 170.9 Q 331.1 170.9, 331.5 170.1 Q 332.0 169.2, 332.0 167.6 Q 332.0 166.0, 331.5 165.2 Q 331.1 164.3, 330.2 164.3 Q 329.3 164.3, 328.8 165.2 Q 328.3 166.0, 328.3 167.6 Q 328.3 169.2, 328.8 170.1 Q 329.3 170.9, 330.2 170.9 " fill="#000000"/>
<path class="note" d="M 334.4 170.6 L 335.6 170.6 L 335.6 171.7 L 334.4 171.7 L 334.4 170.6 " fill="#000000"/>
<path class="note" d="M 337.2 170.8 L 339.0 170.8 L 339.0 164.6 L 337.0 165.3 L 336.8 164.6 L 339.3 163.4 L 340.1 163.6 L 340.1 170.8 L 341.7 170.8 L 341.7 171.7 L 337.2 171.7 L 337.2 170.8 " fill="#000000"/>
<path class="note" d="M 345.9 166.6 Q 346.6 166.6, 347.2 166.9 Q 347.8 167.2, 348.1 167.8 Q 348.4 168.4, 348.4 169.1 Q 348.4 169.9, 348.0 170.5 Q 347.7 171.1, 347.1 171.5 Q 346.4 171.8, 345.6 171.8 Q 344.2 171.8, 343.4 170.8 Q 342.7 169.8, 342.7 167.9 Q 342.7 165.7, 343.6 164.5 Q 344.5 163.4, 346.3 163.4 Q 346.8 163.4, 347.2 163.5 Q 347.7 163.6, 348.1 163.9 L 347.6 164.7 Q 347.0 164.3, 346.3 164.3 Q 345.1 164.3, 344.5 165.1 Q 343.9 165.8, 343.9 167.4 Q 344.3 167.0, 344.8 166.8 Q 345.3 166.6, 345.9 166.6 M 345.6 170.9 Q 346.1 170.9, 346.4 170.7 Q 346.8 170.4, 347.0 170.0 Q 347.2 169.6, 347.2 169.1 Q 347.2 168.4, 346.8 167.9 Q 346.4 167.5, 345.7 167.5 Q 345.2 167.5, 344.7 167.7 Q 344.2 167.9, 343.9 168.3 Q 343.9 169.6, 344.3 170.3 Q 344.8 170.9, 345.6 170.9 " fill="#000000"/>
<path class="note" d="M 346.1 205.8 Q 344.6 205.8, 343.8 204.6 Q 343.1 203.5, 343.1 201.5 Q 343.1 199.5, 343.8 198.4 Q 344.6 197.3, 346.1 197.3 Q 347.6 197.3, 348.4 198.4 Q 349.1 199.5, 349.1 201.5 Q 349.1 203.5, 348.4 204.6 Q 347.6 205.8, 346.1 205.8 M 346.1 204.8 Q 347.0 204.8, 347.5 204.0 Q 348.0 203.2, 348.0 201.5 Q 348.0 199.9, 347.5 199.1 Q 347.0 198.2, 346.1 198.2 Q 345.2 198.2, 344.7 199.1 Q 344.3 199.9, 344.3 201.5 Q 344.3 203.2, 344.7 204.0 Q 345.2 204.8, 346.1 204.8 " fill="#000000"/>
<path class="note" d="M 350.4 204.5 L 351.6 204.5 L 351.6 205.7 L 350.4 205.7 L 350.4 204.5 " fill="#000000"/>
<path class="note" d="M 358.2 202.8 L 359.2 202.8 L 359.2 203.8 L 358.2 203.8 L 358.2 205.7 L 357.1 205.7 L 357.1 203.8 L 352.8 203.8 L 352.8 203.0 L 356.4 197.4 L 358.2 197.4 L 358.2 202.8 M 354.2 202.8 L 357.1 202.8 L 357.1 198.2 L 354.2 202.8 " fill="#000000"/>
<path class="note" d="M 365.6 202.8 L 366.6 202.8 L 366.6 203.8 L 365.6 203.8 L 365.6 205.7 L 364.5 205.7 L 364.5 203.8 L 360.2 203.8 L 360.2 203.0 L 363.9 197.4 L 365.6 197.4 L 365.6 202.8 M 361.6 202.8 L 364.5 202.8 L 364.5 198.2 L 361.6 202.8 " fill="#000000"/>
<path class="note" d="M 360.6 134.1 L 364.9 134.1 L 364.9 135.1 L 360.6 135.1 L 360.6 134.1 " fill="#000000"/>
<path class="note" d="M 369.0 138.4 Q 367.4 138.4, 366.7 137.3 Q 365.9 136.2, 365.9 134.2 Q 365.9 132.2, 366.7 131.1 Q 367.4 130.0, 369.0 130.0 Q 370.5 130.0, 371.2 131.1 Q 372.0 132.2, 372.0 134.2 Q 372.0 136.2, 371.2 137.3 Q 370.5 138.4, 369.0 138.4 M 369.0 137.5 Q 369.9 137.5, 370.3 136.7 Q 370.8 135.8, 370.8 134.2 Q 370.8 132.6, 370.3 131.7 Q 369.9 130.9, 369.0 130.9 Q 368.1 130.9, 367.6 131.7 Q 367.1 132.6, 367.1 134.2 Q 367.1 135.8, 367.6 136.7 Q 368.1 137.5, 369.0 137.5 " fill="#000000"/>
<path class="note" d="M 373.2 137.2 L 374.4 137.2 L 374.4 138.3 L 373.2 138.3 L 373.2 137.2 " fill="#000000"/>
<path class="note" d="M 378.8 133.2 Q 379.5 133.2, 380.1 133.5 Q 380.7 133.8, 381.0 134.4 Q 381.3 134.9, 381.3 135.7 Q 381.3 136.5, 380.9 137.1 Q 380.6 137.7, 380.0 138.1 Q 379.3 138.4, 378.5 138.4 Q 377.1 138.4, 376.3 137.4 Q 375.6 136.4, 375.6 134.4 Q 375.6 132.2, 376.5 131.1 Q 377.4 130.0, 379.2 130.0 Q 379.7 130.0, 380.1 130.1 Q 380.6 130.2, 381.0 130.4 L 380.5 131.2 Q 379.9 130.9, 379.2 130.9 Q 378.0 130.9, 377.4 131.7 Q 376.8 132.4, 376.8 134.0 Q 377.2 133.6, 377.7 133.4 Q 378.2 133.2, 378.8 133.2 M 378.5 137.5 Q 379.0 137.5, 379.4 137.2 Q 379.7 137.0, 379.9 136.6 Q 380.1 136.2, 380.1 135.7 Q 380.1 134.9, 379.7 134.5 Q 379.3 134.1, 378.6 134.1 Q 378.1 134.1, 377.6 134.3 Q 377.1 134.5, 376.8 134.9 Q 376.8 136.2, 377.2 136.8 Q 377.7 137.5, 378.5 137.5 " fill="#000000"/>
<path class="note" d="M 386.4 134.0 Q 387.2 134.2, 387.6 134.7 Q 388.0 135.2, 388.0 136.1 Q 388.0 136.8, 387.6 137.3 Q 387.3 137.8, 386.6 138.1 Q 386.0 138.4, 385.1 138.4 Q 384.3 138.4, 383.6 138.1 Q 382.9 137.8, 382.4 137.2 L 383.1 136.5 Q 383.6 137.1, 384.0 137.3 Q 384.4 137.5, 385.1 137.5 Q 385.9 137.5, 386.3 137.1 Q 386.8 136.7, 386.8 136.0 Q 386.8 135.2, 386.3 134.8 Q 385.8 134.4, 384.8 134.4 L 384.2 134.4 L 384.2 133.6 L 384.8 133.6 Q 385.7 133.6, 386.1 133.2 Q 386.6 132.8, 386.6 132.1 Q 386.6 131.5, 386.2 131.2 Q 385.8 130.9, 385.1 130.9 Q 384.5 130.9, 384.0 131.1 Q 383.6 131.4, 383.3 132.0 L 382.5 131.6 Q 382.8 130.9, 383.5 130.4 Q 384.2 130.0, 385.1 130.0 Q 386.4 130.0, 387.1 130.5 Q 387.8 131.1, 387.8 132.1 Q 387.8 132.7, 387.4 133.2 Q 387.1 133.7, 386.4 134.0 " fill="#000000"/>
<path class="note" d="M 397.6 165.0 Q 396.1 165.0, 395.3 163.8 Q 394.6 162.7, 394.6 160.7 Q 394.6 158.7, 395.3 157.6 Q 396.0 156.5, 397.6 156.5 Q 399.1 156.5, 399.9 157.6 Q 400.6 158.7, 400.6 160.7 Q 400.6 162.7, 399.8 163.8 Q 399.1 165.0, 397.6 165.0 M 397.6 164.0 Q 398.5 164.0, 399.0 163.2 Q 399.4 162.3, 399.4 160.7 Q 399.4 159.1, 399.0 158.3 Q 398.5 157.4, 397.6 157.4 Q 396.7 157.4, 396.2 158.3 Q 395.7 159.1, 395.7 160.7 Q 395.7 162.3, 396.2 163.2 Q 396.7 164.0, 397.6 164.0 " fill="#000000"/>
<path class="note" d="M 401.8 163.7 L 403.0 163.7 L 403.0 164.9 L 401.8 164.9 L 401.8 163.7 " fill="#000000"/>
<path class="note" d="M 409.6 162.0 L 410.6 162.0 L 410.6 163.0 L 409.6 163.0 L 409.6 164.9 L 408.5 164.9 L 408.5 163.0 L 404.3 163.0 L 404.3 162.2 L 407.9 156.6 L 409.6 156.6 L 409.6 162.0 M 405.6 162.0 L 408.5 162.0 L 408.5 157.3 L 405.6 162.0 " fill="#000000"/>
<path class="note" d="M 414.7 165.0 Q 413.2 165.0, 412.4 163.8 Q 411.7 162.7, 411.7 160.7 Q 411.7 158.7, 412.4 157.6 Q 413.2 156.5, 414.7 156.5 Q 416.2 156.5, 417.0 157.6 Q 417.7 158.7, 417.7 160.7 Q 417.7 162.7, 417.0 163.8 Q 416.2 165.0, 414.7 165.0 M 414.7 164.0 Q 415.6 164.0, 416.1 163.2 Q 416.6 162.3, 416.6 160.7 Q 416.6 159.1, 416.1 158.3 Q 415.6 157.4, 414.7 157.4 Q 413.8 157.4, 413.3 158.3 Q 412.9 159.1, 412.9 160.7 Q 412.9 162.3, 413.3 163.2 Q 413.8 164.0, 414.7 164.0 " fill="#000000"/>
<path class="note" d="M 437.3 167.3 L 441.6 167.3 L 441.6 168.2 L 437.3 168.2 L 437.3 167.3 " fill="#000000"/>
<path class="note" d="M 445.6 171.6 Q 444.1 171.6, 443.3 170.4 Q 442.6 169.3, 442.6 167.3 Q 442.6 165.3, 443.3 164.2 Q 444.1 163.1, 445.6 163.1 Q 447.2 163.1, 447.9 164.2 Q 448.6 165.3, 448.6 167.3 Q 448.6 169.3, 447.9 170.4 Q 447.1 171.6, 445.6 171.6 M 445.6 170.6 Q 446.5 170.6, 447.0 169.8 Q 447.5 169.0, 447.5 167.3 Q 447.5 165.7, 447.0 164.9 Q 446.5 164.0, 445.6 164.0 Q 444.7 164.0, 444.2 164.9 Q 443.8 165.7, 443.8 167.3 Q 443.8 169.0, 444.2 169.8 Q 444.7 170.6, 445.6 170.6 " fill="#000000"/>
<path class="note" d="M 449.9 170.3 L 451.0 170.3 L 451.0 171.5 L 449.9 171.5 L 449.9 170.3 " fill="#000000"/>
<path class="note" d="M 452.3 164.8 Q 452.6 164.0, 453.3 163.6 Q 454.0 163.1, 455.0 163.1 Q 456.3 163.1, 457.0 163.8 Q 457.7 164.5, 457.7 165.7 Q 457.7 166.9, 456.8 168.0 Q 455.9 169.2, 454.0 170.5 L 457.8 170.5 L 457.8 171.5 L 452.3 171.5 L 452.3 170.7 Q 453.8 169.6, 454.7 168.8 Q 455.6 168.0, 456.1 167.2 Q 456.5 166.5, 456.5 165.7 Q 456.5 164.9, 456.1 164.5 Q 455.7 164.0, 455.0 164.0 Q 454.4 164.0, 453.9 164.3 Q 453.5 164.6, 453.2 165.2 L 452.3 164.8 " fill="#000000"/>
<path class="note" d="M 462.0 171.6 Q 460.5 171.6, 459.7 170.4 Q 459.0 169.3, 459.0 167.3 Q 459.0 165.3, 459.7 164.2 Q 460.5 163.1, 462.0 163.1 Q 463.5 163.1, 464.3 164.2 Q 465.0 165.3, 465.0 167.3 Q 465.0 169.3, 464.3 170.4 Q 463.5 171.6, 462.0 171.6 M 462.0 170.6 Q 462.9 170.6, 463.4 169.8 Q 463.9 169.0, 463.9 167.3 Q 463.9 165.7, 463.4 164.9 Q 462.9 164.0, 462.0 164.0 Q 461.1 164.0, 460.6 164.9 Q 460.1 165.7, 460.1 167.3 Q 460.1 169.0, 460.6 169.8 Q 461.1 170.6, 462.0 170.6 " fill="#000000"/>
<path class="note" d="M 434.9 223.2 Q 433.4 223.2, 432.6 222.1 Q 431.8 220.9, 431.8 218.9 Q 431.8 216.9, 432.6 215.8 Q 433.3 214.7, 434.9 214.7 Q 436.4 214.7, 437.1 215.8 Q 437.9 216.9, 437.9 218.9 Q 437.9 220.9, 437.1 222.1 Q 436.4 223.2, 434.9 223.2 M 434.9 222.2 Q 435.8 222.2, 436.2 221.4 Q 436.7 220.6, 436.7 218.9 Q 436.7 217.3, 436.2 216.5 Q 435.8 215.7, 434.9 215.7 Q 434.0 215.7, 433.5 216.5 Q 433.0 217.3, 433.0 218.9 Q 433.0 220.6, 433.5 221.4 Q 434.0 222.2, 434.9 222.2 " fill="#000000"/>
<path class="note" d="M 439.1 221.9 L 440.3 221.9 L 440.3 223.1 L 439.1 223.1 L 439.1 221.9 " fill="#000000"/>
<path class="note" d="M 441.9 222.1 L 443.7 222.1 L 443.7 216.0 L 441.7 216.6 L 441.5 215.9 L 444.0 214.8 L 444.8 214.9 L 444.8 222.1 L 446.4 222.1 L 446.4 223.1 L 441.9 223.1 L 441.9 222.1 " fill="#000000"/>
<path class="note" d="M 447.4 216.4 Q 447.7 215.6, 448.4 215.2 Q 449.2 214.7, 450.2 214.7 Q 451.4 214.7, 452.1 215.4 Q 452.8 216.1, 452.8 217.3 Q 452.8 218.5, 451.9 219.7 Q 451.0 220.8, 449.1 222.1 L 452.9 222.1 L 452.9 223.1 L 447.4 223.1 L 447.4 222.3 Q 448.9 221.2, 449.8 220.4 Q 450.7 219.6, 451.2 218.8 Q 451.6 218.1, 451.6 217.3 Q 451.6 216.5, 451.2 216.1 Q 450.8 215.7, 450.2 215.7 Q 449.5 215.7, 449.0 215.9 Q 448.6 216.2, 448.3 216.8 L 447.4 216.4 " fill="#000000"/>
<path class="note" d="M 417.0 271.6 L 421.2 271.6 L 421.2 272.6 L 417.0 272.6 L 417.0 271.6 " fill="#000000"/>
<path class="note" d="M 425.3 275.9 Q 423.8 275.9, 423.0 274.8 Q 422.3 273.7, 422.3 271.7 Q 422.3 269.7, 423.0 268.6 Q 423.8 267.5, 425.3 267.5 Q 426.8 267.5, 427.6 268.6 Q 428.3 269.7, 428.3 271.7 Q 428.3 273.7, 427.6 274.8 Q 426.8 275.9, 425.3 275.9 M 425.3 275.0 Q 426.2 275.0, 426.7 274.1 Q 427.2 273.3, 427.2 271.7 Q 427.2 270.1, 426.7 269.2 Q 426.2 268.4, 425.3 268.4 Q 424.4 268.4, 423.9 269.2 Q 423.5 270.1, 423.5 271.7 Q 423.5 273.3, 423.9 274.1 Q 424.4 275.0, 425.3 275.0 " fill="#000000"/>
<path class="note" d="M 429.6 274.6 L 430.7 274.6 L 430.7 275.8 L 429.6 275.8 L 429.6 274.6 " fill="#000000"/>
<path class="note" d="M 435.9 271.5 Q 436.7 271.7, 437.1 272.2 Q 437.5 272.7, 437.5 273.6 Q 437.5 274.3, 437.2 274.8 Q 436.8 275.3, 436.2 275.6 Q 435.5 275.9, 434.7 275.9 Q 433.8 275.9, 433.1 275.6 Q 432.5 275.3, 432.0 274.7 L 432.6 274.0 Q 433.1 274.6, 433.6 274.8 Q 434.0 275.0, 434.7 275.0 Q 435.4 275.0, 435.9 274.6 Q 436.3 274.2, 436.3 273.5 Q 436.3 272.7, 435.9 272.3 Q 435.4 271.9, 434.4 271.9 L 433.8 271.9 L 433.8 271.1 L 434.3 271.1 Q 435.2 271.1, 435.7 270.7 Q 436.2 270.3, 436.2 269.6 Q 436.2 269.0, 435.8 268.7 Q 435.4 268.4, 434.7 268.4 Q 434.0 268.4, 433.6 268.6 Q 433.2 268.9, 432.8 269.5 L 432.0 269.1 Q 432.3 268.4, 433.0 267.9 Q 433.7 267.5, 434.7 267.5 Q 435.9 267.5, 436.6 268.0 Q 437.3 268.6, 437.3 269.6 Q 437.3 270.2, 437.0 270.7 Q 436.6 271.2, 435.9 271.5 " fill="#000000"/>
<path class="note" d="M 444.0 273.0 L 445.0 273.0 L 445.0 273.9 L 444.0 273.9 L 444.0 275.8 L 442.9 275.8 L 442.9 273.9 L 438.7 273.9 L 438.7 273.2 L 442.3 267.6 L 444.0 267.6 L 444.0 273.0 M 440.0 273.0 L 442.9 273.0 L 442.9 268.3 L 440.0 273.0 " fill="#000000"/>
<path class="note" d="M 458.8 248.2 Q 457.3 248.2, 456.5 247.0 Q 455.8 245.9, 455.8 243.9 Q 455.8 241.9, 456.5 240.8 Q 457.3 239.7, 458.8 239.7 Q 460.3 239.7, 461.1 240.8 Q 461.8 241.9, 461.8 243.9 Q 461.8 245.9, 461.1 247.0 Q 460.3 248.2, 458.8 248.2 M 458.8 247.2 Q 459.7 247.2, 460.2 246.4 Q 460.6 245.6, 460.6 243.9 Q 460.6 242.3, 460.2 241.5 Q 459.7 240.7, 458.8 240.7 Q 457.9 240.7, 457.4 241.5 Q 456.9 242.3, 456.9 243.9 Q 456.9 245.6, 457.4 246.4 Q 457.9 247.2, 458.8 247.2 " fill="#000000"/>
<path class="note" d="M 463.0 246.9 L 464.2 246.9 L 464.2 248.1 L 463.0 248.1 L 463.0 246.9 " fill="#000000"/>
<path class="note" d="M 465.8 247.1 L 467.7 247.1 L 467.7 241.0 L 465.7 241.6 L 465.4 240.9 L 467.9 239.8 L 468.7 239.9 L 468.7 247.1 L 470.4 247.1 L 470.4 248.1 L 465.8 248.1 L 465.8 247.1 " fill="#000000"/>
<path class="note" d="M 471.3 241.4 Q 471.6 240.6, 472.4 240.2 Q 473.1 239.7, 474.1 239.7 Q 475.3 239.7, 476.0 240.4 Q 476.7 241.1, 476.7 242.3 Q 476.7 243.5, 475.8 244.6 Q 474.9 245.8, 473.1 247.1 L 476.9 247.1 L 476.9 248.1 L 471.3 248.1 L 471.3 247.3 Q 472.8 246.2, 473.8 245.4 Q 474.7 244.6, 475.1 243.8 Q 475.6 243.1, 475.6 242.3 Q 475.6 241.5, 475.2 241.1 Q 474.8 240.7, 474.1 240.7 Q 473.4 240.7, 473.0 240.9 Q 472.5 241.2, 472.2 241.8 L 471.3 241.4 " fill="#000000"/>
<path class="note" d="M 380.6 235.1 L 384.9 235.1 L 384.9 236.1 L 380.6 236.1 L 380.6 235.1 " fill="#000000"/>
<path class="note" d="M 388.9 239.4 Q 387.4 239.4, 386.6 238.3 Q 385.9 237.2, 385.9 235.2 Q 385.9 233.2, 386.6 232.1 Q 387.4 231.0, 388.9 231.0 Q 390.4 231.0, 391.2 232.1 Q 391.9 233.2, 391.9 235.2 Q 391.9 237.2, 391.2 238.3 Q 390.4 239.4, 388.9 239.4 M 388.9 238.5 Q 389.8 238.5, 390.3 237.7 Q 390.8 236.8, 390.8 235.2 Q 390.8 233.6, 390.3 232.7 Q 389.8 231.9, 388.9 231.9 Q 388.0 231.9, 387.5 232.7 Q 387.0 233.6, 387.0 235.2 Q 387.0 236.8, 387.5 237.7 Q 388.0 238.5, 388.9 238.5 " fill="#000000"/>
<path class="note" d="M 393.1 238.2 L 394.3 238.2 L 394.3 239.3 L 393.1 239.3 L 393.1 238.2 " fill="#000000"/>
<path class="note" d="M 396.0 238.4 L 397.8 238.4 L 397.8 232.2 L 395.8 232.8 L 395.5 232.1 L 398.0 231.0 L 398.9 231.2 L 398.9 238.4 L 400.5 238.4 L 400.5 239.3 L 396.0 239.3 L 396.0 238.4 " fill="#000000"/>
<path class="note" d="M 404.2 231.0 Q 405.7 231.0, 406.4 232.0 Q 407.1 233.0, 407.1 234.9 Q 407.1 237.1, 406.2 238.3 Q 405.3 239.4, 403.5 239.4 Q 403.0 239.4, 402.6 239.3 Q 402.2 239.2, 401.7 238.9 L 402.2 238.2 Q 402.8 238.5, 403.5 238.5 Q 404.7 238.5, 405.3 237.7 Q 405.9 237.0, 406.0 235.4 Q 405.5 235.8, 405.0 236.0 Q 404.5 236.2, 403.9 236.2 Q 403.2 236.2, 402.6 235.9 Q 402.0 235.6, 401.7 235.0 Q 401.4 234.4, 401.4 233.7 Q 401.4 232.9, 401.8 232.3 Q 402.1 231.7, 402.8 231.3 Q 403.4 231.0, 404.2 231.0 M 402.6 233.7 Q 402.6 234.4, 403.0 234.9 Q 403.4 235.3, 404.1 235.3 Q 404.6 235.3, 405.1 235.1 Q 405.6 234.9, 406.0 234.5 Q 405.9 233.2, 405.5 232.5 Q 405.1 231.9, 404.2 231.9 Q 403.7 231.9, 403.4 232.2 Q 403.0 232.4, 402.8 232.8 Q 402.6 233.2, 402.6 233.7 " fill="#000000"/>
<path class="note" d="M 89.2 177.0 Q 87.7 177.0, 87.0 175.9 Q 86.2 174.8, 86.2 172.8 Q 86.2 170.8, 87.0 169.7 Q 87.7 168.6, 89.2 168.6 Q 90.8 168.6, 91.5 169.7 Q 92.3 170.8, 92.3 172.8 Q 92.3 174.8, 91.5 175.9 Q 90.7 177.0, 89.2 177.0 M 89.2 176.1 Q 90.1 176.1, 90.6 175.3 Q 91.1 174.4, 91.1 172.8 Q 91.1 171.2, 90.6 170.4 Q 90.1 169.5, 89.2 169.5 Q 88.3 169.5, 87.9 170.4 Q 87.4 171.2, 87.4 172.8 Q 87.4 174.4, 87.9 175.3 Q 88.3 176.1, 89.2 176.1 " fill="#000000"/>
<path class="note" d="M 93.5 175.8 L 94.6 175.8 L 94.6 177.0 L 93.5 177.0 L 93.5 175.8 " fill="#000000"/>
<path class="note" d="M 96.3 176.0 L 98.1 176.0 L 98.1 169.8 L 96.1 170.5 L 95.8 169.8 L 98.4 168.6 L 99.2 168.8 L 99.2 176.0 L 100.8 176.0 L 100.8 177.0 L 96.3 177.0 L 96.3 176.0 " fill="#000000"/>
<path class="note" d="M 105.7 172.6 Q 106.5 172.8, 106.9 173.4 Q 107.3 173.9, 107.3 174.7 Q 107.3 175.4, 106.9 175.9 Q 106.6 176.5, 105.9 176.8 Q 105.3 177.1, 104.5 177.1 Q 103.6 177.1, 102.9 176.8 Q 102.3 176.5, 101.7 175.8 L 102.4 175.1 Q 102.9 175.7, 103.3 175.9 Q 103.8 176.1, 104.5 176.1 Q 105.2 176.1, 105.7 175.7 Q 106.1 175.3, 106.1 174.7 Q 106.1 173.8, 105.6 173.5 Q 105.2 173.1, 104.2 173.1 L 103.6 173.1 L 103.6 172.2 L 104.1 172.2 Q 105.0 172.2, 105.5 171.8 Q 105.9 171.4, 105.9 170.7 Q 105.9 170.2, 105.6 169.9 Q 105.2 169.5, 104.5 169.5 Q 103.8 169.5, 103.4 169.8 Q 102.9 170.0, 102.6 170.6 L 101.8 170.2 Q 102.1 169.5, 102.8 169.1 Q 103.5 168.6, 104.5 168.6 Q 105.7 168.6, 106.4 169.2 Q 107.1 169.7, 107.1 170.7 Q 107.1 171.4, 106.8 171.9 Q 106.4 172.3, 105.7 172.6 " fill="#000000"/>
<path class="note" d="M 166.2 252.3 Q 164.7 252.3, 164.0 251.2 Q 163.2 250.1, 163.2 248.1 Q 163.2 246.1, 164.0 245.0 Q 164.7 243.9, 166.2 243.9 Q 167.8 243.9, 168.5 245.0 Q 169.3 246.1, 169.3 248.1 Q 169.3 250.1, 168.5 251.2 Q 167.8 252.3, 166.2 252.3 M 166.2 251.4 Q 167.1 251.4, 167.6 250.5 Q 168.1 249.7, 168.1 248.1 Q 168.1 246.4, 167.6 245.6 Q 167.1 244.8, 166.2 244.8 Q 165.4 244.8, 164.9 245.6 Q 164.4 246.4, 164.4 248.1 Q 164.4 249.7, 164.9 250.5 Q 165.4 251.4, 166.2 251.4 " fill="#000000"/>
<path class="note" d="M 170.5 251.0 L 171.6 251.0 L 171.6 252.2 L 170.5 252.2 L 170.5 251.0 " fill="#000000"/>
<path class="note" d="M 173.3 251.3 L 175.1 251.3 L 175.1 245.1 L 173.1 245.7 L 172.8 245.0 L 175.4 243.9 L 176.2 244.0 L 176.2 251.3 L 177.8 251.3 L 177.8 252.2 L 173.3 252.2 L 173.3 251.3 " fill="#000000"/>
<path class="note" d="M 178.8 245.5 Q 179.1 244.7, 179.8 244.3 Q 180.5 243.9, 181.5 243.9 Q 182.8 243.9, 183.5 244.5 Q 184.2 245.2, 184.2 246.4 Q 184.2 247.6, 183.3 248.8 Q 182.4 249.9, 180.5 251.3 L 184.3 251.3 L 184.3 252.2 L 178.8 252.2 L 178.8 251.4 Q 180.3 250.3, 181.2 249.5 Q 182.1 248.7, 182.6 248.0 Q 183.0 247.2, 183.0 246.5 Q 183.0 245.7, 182.6 245.2 Q 182.2 244.8, 181.5 244.8 Q 180.9 244.8, 180.4 245.1 Q 180.0 245.3, 179.7 245.9 L 178.8 245.5 " fill="#000000"/>
<path class="note" d="M 254.7 68.2 Q 253.1 68.2, 252.4 67.1 Q 251.6 65.9, 251.6 63.9 Q 251.6 62.0, 252.4 60.8 Q 253.1 59.7, 254.7 59.7 Q 256.2 59.7, 256.9 60.8 Q 257.7 62.0, 257.7 63.9 Q 257.7 65.9, 256.9 67.1 Q 256.2 68.2, 254.7 68.2 M 254.7 67.2 Q 255.6 67.2, 256.0 66.4 Q 256.5 65.6, 256.5 63.9 Q 256.5 62.3, 256.0 61.5 Q 255.6 60.7, 254.7 60.7 Q 253.8 60.7, 253.3 61.5 Q 252.8 62.3, 252.8 63.9 Q 252.8 65.6, 253.3 66.4 Q 253.8 67.2, 254.7 67.2 " fill="#000000"/>
<path class="note" d="M 258.9 66.9 L 260.1 66.9 L 260.1 68.1 L 258.9 68.1 L 258.9 66.9 " fill="#000000"/>
<path class="note" d="M 265.2 63.7 Q 266.1 64.0, 266.4 64.5 Q 266.8 65.0, 266.8 65.8 Q 266.8 66.5, 266.5 67.1 Q 266.1 67.6, 265.5 67.9 Q 264.9 68.2, 264.0 68.2 Q 263.1 68.2, 262.5 67.9 Q 261.8 67.6, 261.3 67.0 L 261.9 66.3 Q 262.5 66.8, 262.9 67.1 Q 263.3 67.3, 264.0 67.3 Q 264.8 67.3, 265.2 66.9 Q 265.7 66.5, 265.7 65.8 Q 265.7 65.0, 265.2 64.6 Q 264.7 64.2, 263.7 64.2 L 263.1 64.2 L 263.1 63.4 L 263.6 63.4 Q 264.5 63.4, 265.0 63.0 Q 265.5 62.6, 265.5 61.8 Q 265.5 61.3, 265.1 61.0 Q 264.7 60.7, 264.0 60.7 Q 263.3 60.7, 262.9 60.9 Q 262.5 61.2, 262.2 61.8 L 261.4 61.3 Q 261.6 60.7, 262.3 60.2 Q 263.0 59.7, 264.0 59.7 Q 265.2 59.7, 265.9 60.3 Q 266.7 60.9, 266.7 61.8 Q 266.7 62.5, 266.3 63.0 Q 265.9 63.5, 265.2 63.7 " fill="#000000"/>
<path class="note" d="M 268.0 61.4 Q 268.3 60.6, 269.0 60.2 Q 269.8 59.7, 270.8 59.7 Q 272.0 59.7, 272.7 60.4 Q 273.4 61.1, 273.4 62.3 Q 273.4 63.5, 272.5 64.7 Q 271.6 65.8, 269.7 67.2 L 273.5 67.2 L 273.5 68.1 L 268.0 68.1 L 268.0 67.3 Q 269.5 66.2, 270.4 65.4 Q 271.4 64.6, 271.8 63.8 Q 272.2 63.1, 272.2 62.3 Q 272.2 61.6, 271.8 61.1 Q 271.4 60.7, 270.8 60.7 Q 270.1 60.7, 269.7 60.9 Q 269.2 61.2, 268.9 61.8 L 268.0 61.4 " fill="#000000"/>
<path class="note" d="M 166.5 57.9 Q 164.9 57.9, 164.2 56.7 Q 163.4 55.6, 163.4 53.6 Q 163.4 51.6, 164.2 50.5 Q 164.9 49.4, 166.5 49.4 Q 168.0 49.4, 168.7 50.5 Q 169.5 51.6, 169.5 53.6 Q 169.5 55.6, 168.7 56.7 Q 168.0 57.9, 166.5 57.9 M 166.5 56.9 Q 167.4 56.9, 167.8 56.1 Q 168.3 55.3, 168.3 53.6 Q 168.3 52.0, 167.8 51.2 Q 167.4 50.4, 166.5 50.4 Q 165.6 50.4, 165.1 51.2 Q 164.6 52.0, 164.6 53.6 Q 164.6 55.3, 165.1 56.1 Q 165.6 56.9, 166.5 56.9 " fill="#000000"/>
<path class="note" d="M 170.7 56.6 L 171.9 56.6 L 171.9 57.8 L 170.7 57.8 L 170.7 56.6 " fill="#000000"/>
<path class="note" d="M 173.5 56.8 L 175.3 56.8 L 175.3 50.7 L 173.3 51.3 L 173.1 50.6 L 175.6 49.5 L 176.4 49.6 L 176.4 56.8 L 178.0 56.8 L 178.0 57.8 L 173.5 57.8 L 173.5 56.8 " fill="#000000"/>
<path class="note" d="M 182.0 52.6 Q 182.7 52.6, 183.3 52.9 Q 183.9 53.2, 184.2 53.8 Q 184.6 54.4, 184.6 55.2 Q 184.6 56.0, 184.1 56.6 Q 183.7 57.2, 183.1 57.6 Q 182.4 57.9, 181.6 57.9 Q 180.8 57.9, 180.1 57.6 Q 179.4 57.3, 179.0 56.8 L 179.7 56.0 Q 180.1 56.5, 180.6 56.7 Q 181.1 56.9, 181.6 56.9 Q 182.4 56.9, 182.9 56.5 Q 183.4 56.0, 183.4 55.2 Q 183.4 54.3, 182.9 53.9 Q 182.4 53.5, 181.6 53.5 Q 180.8 53.5, 180.0 53.8 L 179.4 53.5 L 179.8 49.5 L 184.0 49.5 L 183.9 50.4 L 180.8 50.4 L 180.5 52.9 Q 181.2 52.6, 182.0 52.6 " fill="#000000"/>
<path class="note" d="M 291.4 241.1 Q 289.9 241.1, 289.1 240.0 Q 288.4 238.8, 288.4 236.9 Q 288.4 234.9, 289.1 233.7 Q 289.9 232.6, 291.4 232.6 Q 292.9 232.6, 293.7 233.7 Q 294.4 234.9, 294.4 236.9 Q 294.4 238.8, 293.7 240.0 Q 292.9 241.1, 291.4 241.1 M 291.4 240.2 Q 292.3 240.2, 292.8 239.3 Q 293.2 238.5, 293.2 236.9 Q 293.2 235.2, 292.8 234.4 Q 292.3 233.6, 291.4 233.6 Q 290.5 233.6, 290.0 234.4 Q 289.5 235.2, 289.5 236.9 Q 289.5 238.5, 290.0 239.3 Q 290.5 240.2, 291.4 240.2 " fill="#000000"/>
<path class="note" d="M 295.6 239.8 L 296.8 239.8 L 296.8 241.0 L 295.6 241.0 L 295.6 239.8 " fill="#000000"/>
<path class="note" d="M 298.5 240.1 L 300.3 240.1 L 300.3 233.9 L 298.3 234.5 L 298.0 233.8 L 300.5 232.7 L 301.4 232.8 L 301.4 240.1 L 303.0 240.1 L 303.0 241.0 L 298.5 241.0 L 298.5 240.1 " fill="#000000"/>
<path class="note" d="M 307.0 241.1 Q 305.4 241.1, 304.7 240.0 Q 303.9 238.8, 303.9 236.9 Q 303.9 234.9, 304.7 233.7 Q 305.4 232.6, 307.0 232.6 Q 308.5 232.6, 309.2 233.7 Q 310.0 234.9, 310.0 236.9 Q 310.0 238.8, 309.2 240.0 Q 308.5 241.1, 307.0 241.1 M 307.0 240.2 Q 307.9 240.2, 308.3 239.3 Q 308.8 238.5, 308.8 236.9 Q 308.8 235.2, 308.3 234.4 Q 307.9 233.6, 307.0 233.6 Q 306.1 233.6, 305.6 234.4 Q 305.1 235.2, 305.1 236.9 Q 305.1 238.5, 305.6 239.3 Q 306.1 240.2, 307.0 240.2 " fill="#000000"/>
<path class="note" d="M 274.1 190.8 Q 272.6 190.8, 271.8 189.7 Q 271.1 188.5, 271.1 186.5 Q 271.1 184.5, 271.8 183.4 Q 272.6 182.3, 274.1 182.3 Q 275.6 182.3, 276.4 183.4 Q 277.1 184.5, 277.1 186.5 Q 277.1 188.5, 276.4 189.7 Q 275.6 190.8, 274.1 190.8 M 274.1 189.8 Q 275.0 189.8, 275.5 189.0 Q 275.9 188.2, 275.9 186.5 Q 275.9 184.9, 275.5 184.1 Q 275.0 183.3, 274.1 183.3 Q 273.2 183.3, 272.7 184.1 Q 272.2 184.9, 272.2 186.5 Q 272.2 188.2, 272.7 189.0 Q 273.2 189.8, 274.1 189.8 " fill="#000000"/>
<path class="note" d="M 278.3 189.5 L 279.5 189.5 L 279.5 190.7 L 278.3 190.7 L 278.3 189.5 " fill="#000000"/>
<path class="note" d="M 281.2 189.7 L 283.0 189.7 L 283.0 183.6 L 281.0 184.2 L 280.7 183.5 L 283.2 182.4 L 284.1 182.5 L 284.1 189.7 L 285.7 189.7 L 285.7 190.7 L 281.2 190.7 L 281.2 189.7 " fill="#000000"/>
<path class="note" d="M 289.7 190.8 Q 288.1 190.8, 287.4 189.7 Q 286.6 188.5, 286.6 186.5 Q 286.6 184.5, 287.4 183.4 Q 288.1 182.3, 289.7 182.3 Q 291.2 182.3, 291.9 183.4 Q 292.7 184.5, 292.7 186.5 Q 292.7 188.5, 291.9 189.7 Q 291.2 190.8, 289.7 190.8 M 289.7 189.8 Q 290.6 189.8, 291.0 189.0 Q 291.5 188.2, 291.5 186.5 Q 291.5 184.9, 291.0 184.1 Q 290.6 183.3, 289.7 183.3 Q 288.8 183.3, 288.3 184.1 Q 287.8 184.9, 287.8 186.5 Q 287.8 188.2, 288.3 189.0 Q 288.8 189.8, 289.7 189.8 " fill="#000000"/>
</svg>