<svg xmlns="http://www.w3.org/2000/svg" xmlns:rdkit="http://www.rdkit.org/xml" xmlns:xlink="http://www.w3.org/1999/xlink" version="1.1" baseProfile="full" xml:space="preserve" width="400px" height="400px" viewBox="0 0 400 400">
<!-- END OF HEADER -->
<rect style="opacity:1.0;fill:#FFFFFF;stroke:none" width="400.0" height="400.0" x="0.0" y="0.0"> </rect>
<ellipse cx="140.0" cy="56.9" rx="10.4" ry="10.4" class="atom-37" style="fill:#FF33FF4C;fill-rule:evenodd;stroke:#FF33FF4C;stroke-width:1.0px;stroke-linecap:butt;stroke-linejoin:miter;stroke-opacity:1"/>
<ellipse cx="63.0" cy="279.1" rx="10.4" ry="10.4" class="atom-38" style="fill:#FF33FF4C;fill-rule:evenodd;stroke:#FF33FF4C;stroke-width:1.0px;stroke-linecap:butt;stroke-linejoin:miter;stroke-opacity:1"/>
<ellipse cx="330.2" cy="307.1" rx="10.4" ry="10.4" class="atom-39" style="fill:#FF33FF4C;fill-rule:evenodd;stroke:#FF33FF4C;stroke-width:1.0px;stroke-linecap:butt;stroke-linejoin:miter;stroke-opacity:1"/>
<ellipse cx="275.7" cy="130.4" rx="10.4" ry="10.4" class="atom-40" style="fill:#FF33FF4C;fill-rule:evenodd;stroke:#FF33FF4C;stroke-width:1.0px;stroke-linecap:butt;stroke-linejoin:miter;stroke-opacity:1"/>
<path class="bond-0 atom-0 atom-1" d="M 185.9,99.0 L 156.2,108.4" style="fill:none;fill-rule:evenodd;stroke:#000000;stroke-width:2.0px;stroke-linecap:butt;stroke-linejoin:miter;stroke-opacity:1"/>
<path class="bond-1 atom-1 atom-2" d="M 156.2,108.4 L 147.3,100.2" style="fill:none;fill-rule:evenodd;stroke:#000000;stroke-width:2.0px;stroke-linecap:butt;stroke-linejoin:miter;stroke-opacity:1"/>
<path class="bond-1 atom-1 atom-2" d="M 147.3,100.2 L 138.3,92.0" style="fill:none;fill-rule:evenodd;stroke:#FF0000;stroke-width:2.0px;stroke-linecap:butt;stroke-linejoin:miter;stroke-opacity:1"/>
<path class="bond-1 atom-1 atom-2" d="M 157.4,103.1 L 149.4,95.8" style="fill:none;fill-rule:evenodd;stroke:#000000;stroke-width:2.0px;stroke-linecap:butt;stroke-linejoin:miter;stroke-opacity:1"/>
<path class="bond-1 atom-1 atom-2" d="M 149.4,95.8 L 141.5,88.5" style="fill:none;fill-rule:evenodd;stroke:#FF0000;stroke-width:2.0px;stroke-linecap:butt;stroke-linejoin:miter;stroke-opacity:1"/>
<path class="bond-2 atom-1 atom-3" d="M 156.2,108.4 L 153.4,120.8" style="fill:none;fill-rule:evenodd;stroke:#000000;stroke-width:2.0px;stroke-linecap:butt;stroke-linejoin:miter;stroke-opacity:1"/>
<path class="bond-2 atom-1 atom-3" d="M 153.4,120.8 L 150.7,133.3" style="fill:none;fill-rule:evenodd;stroke:#0000FF;stroke-width:2.0px;stroke-linecap:butt;stroke-linejoin:miter;stroke-opacity:1"/>
<path class="bond-3 atom-3 atom-4" d="M 145.1,140.1 L 132.4,144.1" style="fill:none;fill-rule:evenodd;stroke:#0000FF;stroke-width:2.0px;stroke-linecap:butt;stroke-linejoin:miter;stroke-opacity:1"/>
<path class="bond-3 atom-3 atom-4" d="M 132.4,144.1 L 119.7,148.1" style="fill:none;fill-rule:evenodd;stroke:#000000;stroke-width:2.0px;stroke-linecap:butt;stroke-linejoin:miter;stroke-opacity:1"/>
<path class="bond-4 atom-4 atom-5" d="M 119.7,148.1 L 113.0,178.5" style="fill:none;fill-rule:evenodd;stroke:#000000;stroke-width:2.0px;stroke-linecap:butt;stroke-linejoin:miter;stroke-opacity:1"/>
<path class="bond-5 atom-5 atom-6" d="M 113.0,178.5 L 135.9,199.6" style="fill:none;fill-rule:evenodd;stroke:#000000;stroke-width:2.0px;stroke-linecap:butt;stroke-linejoin:miter;stroke-opacity:1"/>
<path class="bond-5 atom-5 atom-6" d="M 111.8,183.8 L 130.8,201.2" style="fill:none;fill-rule:evenodd;stroke:#000000;stroke-width:2.0px;stroke-linecap:butt;stroke-linejoin:miter;stroke-opacity:1"/>
<path class="bond-6 atom-6 atom-7" d="M 135.9,199.6 L 129.2,230.0" style="fill:none;fill-rule:evenodd;stroke:#000000;stroke-width:2.0px;stroke-linecap:butt;stroke-linejoin:miter;stroke-opacity:1"/>
<path class="bond-7 atom-7 atom-8" d="M 129.2,230.0 L 99.5,239.3" style="fill:none;fill-rule:evenodd;stroke:#000000;stroke-width:2.0px;stroke-linecap:butt;stroke-linejoin:miter;stroke-opacity:1"/>
<path class="bond-7 atom-7 atom-8" d="M 125.2,226.3 L 100.6,234.0" style="fill:none;fill-rule:evenodd;stroke:#000000;stroke-width:2.0px;stroke-linecap:butt;stroke-linejoin:miter;stroke-opacity:1"/>
<path class="bond-8 atom-8 atom-9" d="M 99.5,239.3 L 76.5,218.3" style="fill:none;fill-rule:evenodd;stroke:#000000;stroke-width:2.0px;stroke-linecap:butt;stroke-linejoin:miter;stroke-opacity:1"/>
<path class="bond-9 atom-9 atom-10" d="M 76.5,218.3 L 83.3,187.9" style="fill:none;fill-rule:evenodd;stroke:#000000;stroke-width:2.0px;stroke-linecap:butt;stroke-linejoin:miter;stroke-opacity:1"/>
<path class="bond-9 atom-9 atom-10" d="M 81.7,216.6 L 87.3,191.5" style="fill:none;fill-rule:evenodd;stroke:#000000;stroke-width:2.0px;stroke-linecap:butt;stroke-linejoin:miter;stroke-opacity:1"/>
<path class="bond-10 atom-10 atom-11" d="M 83.3,187.9 L 73.6,179.0" style="fill:none;fill-rule:evenodd;stroke:#000000;stroke-width:2.0px;stroke-linecap:butt;stroke-linejoin:miter;stroke-opacity:1"/>
<path class="bond-10 atom-10 atom-11" d="M 73.6,179.0 L 64.0,170.1" style="fill:none;fill-rule:evenodd;stroke:#33CCCC;stroke-width:2.0px;stroke-linecap:butt;stroke-linejoin:miter;stroke-opacity:1"/>
<path class="bond-11 atom-8 atom-12" d="M 99.5,239.3 L 96.7,251.8" style="fill:none;fill-rule:evenodd;stroke:#000000;stroke-width:2.0px;stroke-linecap:butt;stroke-linejoin:miter;stroke-opacity:1"/>
<path class="bond-11 atom-8 atom-12" d="M 96.7,251.8 L 93.9,264.2" style="fill:none;fill-rule:evenodd;stroke:#FF0000;stroke-width:2.0px;stroke-linecap:butt;stroke-linejoin:miter;stroke-opacity:1"/>
<path class="bond-12 atom-7 atom-13" d="M 129.2,230.0 L 138.1,238.2" style="fill:none;fill-rule:evenodd;stroke:#000000;stroke-width:2.0px;stroke-linecap:butt;stroke-linejoin:miter;stroke-opacity:1"/>
<path class="bond-12 atom-7 atom-13" d="M 138.1,238.2 L 147.0,246.4" style="fill:none;fill-rule:evenodd;stroke:#FF0000;stroke-width:2.0px;stroke-linecap:butt;stroke-linejoin:miter;stroke-opacity:1"/>
<path class="bond-13 atom-13 atom-14" d="M 157.2,249.4 L 169.5,245.5" style="fill:none;fill-rule:evenodd;stroke:#FF0000;stroke-width:2.0px;stroke-linecap:butt;stroke-linejoin:miter;stroke-opacity:1"/>
<path class="bond-13 atom-13 atom-14" d="M 169.5,245.5 L 181.8,241.7" style="fill:none;fill-rule:evenodd;stroke:#000000;stroke-width:2.0px;stroke-linecap:butt;stroke-linejoin:miter;stroke-opacity:1"/>
<path class="bond-14 atom-14 atom-15" d="M 181.8,241.7 L 204.8,262.7" style="fill:none;fill-rule:evenodd;stroke:#000000;stroke-width:2.0px;stroke-linecap:butt;stroke-linejoin:miter;stroke-opacity:1"/>
<path class="bond-14 atom-14 atom-15" d="M 187.0,240.0 L 205.9,257.4" style="fill:none;fill-rule:evenodd;stroke:#000000;stroke-width:2.0px;stroke-linecap:butt;stroke-linejoin:miter;stroke-opacity:1"/>
<path class="bond-15 atom-15 atom-16" d="M 204.8,262.7 L 234.5,253.4" style="fill:none;fill-rule:evenodd;stroke:#000000;stroke-width:2.0px;stroke-linecap:butt;stroke-linejoin:miter;stroke-opacity:1"/>
<path class="bond-16 atom-16 atom-17" d="M 234.5,253.4 L 241.2,223.0" style="fill:none;fill-rule:evenodd;stroke:#000000;stroke-width:2.0px;stroke-linecap:butt;stroke-linejoin:miter;stroke-opacity:1"/>
<path class="bond-16 atom-16 atom-17" d="M 230.5,249.7 L 236.1,224.6" style="fill:none;fill-rule:evenodd;stroke:#000000;stroke-width:2.0px;stroke-linecap:butt;stroke-linejoin:miter;stroke-opacity:1"/>
<path class="bond-17 atom-17 atom-18" d="M 241.2,223.0 L 218.3,201.9" style="fill:none;fill-rule:evenodd;stroke:#000000;stroke-width:2.0px;stroke-linecap:butt;stroke-linejoin:miter;stroke-opacity:1"/>
<path class="bond-18 atom-18 atom-19" d="M 218.3,201.9 L 188.6,211.3" style="fill:none;fill-rule:evenodd;stroke:#000000;stroke-width:2.0px;stroke-linecap:butt;stroke-linejoin:miter;stroke-opacity:1"/>
<path class="bond-18 atom-18 atom-19" d="M 217.1,207.2 L 192.6,214.9" style="fill:none;fill-rule:evenodd;stroke:#000000;stroke-width:2.0px;stroke-linecap:butt;stroke-linejoin:miter;stroke-opacity:1"/>
<path class="bond-19 atom-17 atom-20" d="M 241.2,223.0 L 253.9,219.0" style="fill:none;fill-rule:evenodd;stroke:#000000;stroke-width:2.0px;stroke-linecap:butt;stroke-linejoin:miter;stroke-opacity:1"/>
<path class="bond-19 atom-17 atom-20" d="M 253.9,219.0 L 266.6,215.0" style="fill:none;fill-rule:evenodd;stroke:#0000FF;stroke-width:2.0px;stroke-linecap:butt;stroke-linejoin:miter;stroke-opacity:1"/>
<path class="bond-20 atom-20 atom-21" d="M 275.3,216.9 L 285.6,224.5" style="fill:none;fill-rule:evenodd;stroke:#0000FF;stroke-width:2.0px;stroke-linecap:butt;stroke-linejoin:miter;stroke-opacity:1"/>
<path class="bond-20 atom-20 atom-21" d="M 285.6,224.5 L 296.0,232.2" style="fill:none;fill-rule:evenodd;stroke:#000000;stroke-width:2.0px;stroke-linecap:butt;stroke-linejoin:miter;stroke-opacity:1"/>
<path class="bond-21 atom-21 atom-22" d="M 296.0,232.2 L 298.9,263.2" style="fill:none;fill-rule:evenodd;stroke:#000000;stroke-width:2.0px;stroke-linecap:butt;stroke-linejoin:miter;stroke-opacity:1"/>
<path class="bond-21 atom-21 atom-22" d="M 300.9,234.4 L 303.3,260.0" style="fill:none;fill-rule:evenodd;stroke:#000000;stroke-width:2.0px;stroke-linecap:butt;stroke-linejoin:miter;stroke-opacity:1"/>
<path class="bond-22 atom-22 atom-23" d="M 298.9,263.2 L 310.9,268.6" style="fill:none;fill-rule:evenodd;stroke:#000000;stroke-width:2.0px;stroke-linecap:butt;stroke-linejoin:miter;stroke-opacity:1"/>
<path class="bond-22 atom-22 atom-23" d="M 310.9,268.6 L 322.9,274.1" style="fill:none;fill-rule:evenodd;stroke:#0000FF;stroke-width:2.0px;stroke-linecap:butt;stroke-linejoin:miter;stroke-opacity:1"/>
<path class="bond-23 atom-23 atom-24" d="M 331.6,273.0 L 342.1,265.5" style="fill:none;fill-rule:evenodd;stroke:#0000FF;stroke-width:2.0px;stroke-linecap:butt;stroke-linejoin:miter;stroke-opacity:1"/>
<path class="bond-23 atom-23 atom-24" d="M 342.1,265.5 L 352.6,258.0" style="fill:none;fill-rule:evenodd;stroke:#000000;stroke-width:2.0px;stroke-linecap:butt;stroke-linejoin:miter;stroke-opacity:1"/>
<path class="bond-23 atom-23 atom-24" d="M 328.9,269.2 L 338.3,262.5" style="fill:none;fill-rule:evenodd;stroke:#0000FF;stroke-width:2.0px;stroke-linecap:butt;stroke-linejoin:miter;stroke-opacity:1"/>
<path class="bond-23 atom-23 atom-24" d="M 338.3,262.5 L 347.7,255.8" style="fill:none;fill-rule:evenodd;stroke:#000000;stroke-width:2.0px;stroke-linecap:butt;stroke-linejoin:miter;stroke-opacity:1"/>
<path class="bond-24 atom-24 atom-25" d="M 352.6,258.0 L 351.4,245.2" style="fill:none;fill-rule:evenodd;stroke:#000000;stroke-width:2.0px;stroke-linecap:butt;stroke-linejoin:miter;stroke-opacity:1"/>
<path class="bond-24 atom-24 atom-25" d="M 351.4,245.2 L 350.2,232.5" style="fill:none;fill-rule:evenodd;stroke:#0000FF;stroke-width:2.0px;stroke-linecap:butt;stroke-linejoin:miter;stroke-opacity:1"/>
<path class="bond-25 atom-25 atom-26" d="M 345.3,225.0 L 333.3,219.6" style="fill:none;fill-rule:evenodd;stroke:#0000FF;stroke-width:2.0px;stroke-linecap:butt;stroke-linejoin:miter;stroke-opacity:1"/>
<path class="bond-25 atom-25 atom-26" d="M 333.3,219.6 L 321.3,214.1" style="fill:none;fill-rule:evenodd;stroke:#000000;stroke-width:2.0px;stroke-linecap:butt;stroke-linejoin:miter;stroke-opacity:1"/>
<path class="bond-25 atom-25 atom-26" d="M 343.3,229.3 L 332.6,224.4" style="fill:none;fill-rule:evenodd;stroke:#0000FF;stroke-width:2.0px;stroke-linecap:butt;stroke-linejoin:miter;stroke-opacity:1"/>
<path class="bond-25 atom-25 atom-26" d="M 332.6,224.4 L 321.8,219.5" style="fill:none;fill-rule:evenodd;stroke:#000000;stroke-width:2.0px;stroke-linecap:butt;stroke-linejoin:miter;stroke-opacity:1"/>
<path class="bond-26 atom-26 atom-27" d="M 321.3,214.1 L 317.5,202.0" style="fill:none;fill-rule:evenodd;stroke:#000000;stroke-width:2.0px;stroke-linecap:butt;stroke-linejoin:miter;stroke-opacity:1"/>
<path class="bond-26 atom-26 atom-27" d="M 317.5,202.0 L 313.7,189.8" style="fill:none;fill-rule:evenodd;stroke:#0000FF;stroke-width:2.0px;stroke-linecap:butt;stroke-linejoin:miter;stroke-opacity:1"/>
<path class="bond-27 atom-27 atom-28" d="M 307.6,184.3 L 294.2,184.2" style="fill:none;fill-rule:evenodd;stroke:#0000FF;stroke-width:2.0px;stroke-linecap:butt;stroke-linejoin:miter;stroke-opacity:1"/>
<path class="bond-27 atom-27 atom-28" d="M 294.2,184.2 L 280.8,184.1" style="fill:none;fill-rule:evenodd;stroke:#000000;stroke-width:2.0px;stroke-linecap:butt;stroke-linejoin:miter;stroke-opacity:1"/>
<path class="bond-28 atom-28 atom-29" d="M 280.8,184.1 L 273.8,174.2" style="fill:none;fill-rule:evenodd;stroke:#000000;stroke-width:2.0px;stroke-linecap:butt;stroke-linejoin:miter;stroke-opacity:1"/>
<path class="bond-28 atom-28 atom-29" d="M 273.8,174.2 L 266.8,164.4" style="fill:none;fill-rule:evenodd;stroke:#FF0000;stroke-width:2.0px;stroke-linecap:butt;stroke-linejoin:miter;stroke-opacity:1"/>
<path class="bond-28 atom-28 atom-29" d="M 283.3,179.4 L 276.9,170.5" style="fill:none;fill-rule:evenodd;stroke:#000000;stroke-width:2.0px;stroke-linecap:butt;stroke-linejoin:miter;stroke-opacity:1"/>
<path class="bond-28 atom-28 atom-29" d="M 276.9,170.5 L 270.6,161.6" style="fill:none;fill-rule:evenodd;stroke:#FF0000;stroke-width:2.0px;stroke-linecap:butt;stroke-linejoin:miter;stroke-opacity:1"/>
<path class="bond-29 atom-27 atom-30" d="M 316.0,178.9 L 323.3,169.2" style="fill:none;fill-rule:evenodd;stroke:#0000FF;stroke-width:2.0px;stroke-linecap:butt;stroke-linejoin:miter;stroke-opacity:1"/>
<path class="bond-29 atom-27 atom-30" d="M 323.3,169.2 L 330.5,159.4" style="fill:none;fill-rule:evenodd;stroke:#000000;stroke-width:2.0px;stroke-linecap:butt;stroke-linejoin:miter;stroke-opacity:1"/>
<path class="bond-30 atom-30 atom-31" d="M 330.5,159.4 L 361.5,162.9" style="fill:none;fill-rule:evenodd;stroke:#000000;stroke-width:2.0px;stroke-linecap:butt;stroke-linejoin:miter;stroke-opacity:1"/>
<path class="bond-31 atom-31 atom-32" d="M 361.5,162.9 L 380.0,137.9" style="fill:none;fill-rule:evenodd;stroke:#000000;stroke-width:2.0px;stroke-linecap:butt;stroke-linejoin:miter;stroke-opacity:1"/>
<path class="bond-32 atom-32 atom-33" d="M 380.0,137.9 L 375.0,126.3" style="fill:none;fill-rule:evenodd;stroke:#000000;stroke-width:2.0px;stroke-linecap:butt;stroke-linejoin:miter;stroke-opacity:1"/>
<path class="bond-32 atom-32 atom-33" d="M 375.0,126.3 L 370.0,114.8" style="fill:none;fill-rule:evenodd;stroke:#0000FF;stroke-width:2.0px;stroke-linecap:butt;stroke-linejoin:miter;stroke-opacity:1"/>
<path class="bond-33 atom-33 atom-34" d="M 363.2,108.8 L 349.9,107.3" style="fill:none;fill-rule:evenodd;stroke:#0000FF;stroke-width:2.0px;stroke-linecap:butt;stroke-linejoin:miter;stroke-opacity:1"/>
<path class="bond-33 atom-33 atom-34" d="M 349.9,107.3 L 336.7,105.8" style="fill:none;fill-rule:evenodd;stroke:#000000;stroke-width:2.0px;stroke-linecap:butt;stroke-linejoin:miter;stroke-opacity:1"/>
<path class="bond-34 atom-34 atom-35" d="M 336.7,105.8 L 318.1,130.8" style="fill:none;fill-rule:evenodd;stroke:#000000;stroke-width:2.0px;stroke-linecap:butt;stroke-linejoin:miter;stroke-opacity:1"/>
<path class="bond-35 atom-22 atom-36" d="M 298.9,263.2 L 288.4,270.6" style="fill:none;fill-rule:evenodd;stroke:#000000;stroke-width:2.0px;stroke-linecap:butt;stroke-linejoin:miter;stroke-opacity:1"/>
<path class="bond-35 atom-22 atom-36" d="M 288.4,270.6 L 277.9,278.1" style="fill:none;fill-rule:evenodd;stroke:#0000FF;stroke-width:2.0px;stroke-linecap:butt;stroke-linejoin:miter;stroke-opacity:1"/>
<path class="bond-36 atom-10 atom-5" d="M 83.3,187.9 L 113.0,178.5" style="fill:none;fill-rule:evenodd;stroke:#000000;stroke-width:2.0px;stroke-linecap:butt;stroke-linejoin:miter;stroke-opacity:1"/>
<path class="bond-37 atom-19 atom-14" d="M 188.6,211.3 L 181.8,241.7" style="fill:none;fill-rule:evenodd;stroke:#000000;stroke-width:2.0px;stroke-linecap:butt;stroke-linejoin:miter;stroke-opacity:1"/>
<path class="bond-38 atom-28 atom-20" d="M 280.8,184.1 L 276.8,196.1" style="fill:none;fill-rule:evenodd;stroke:#000000;stroke-width:2.0px;stroke-linecap:butt;stroke-linejoin:miter;stroke-opacity:1"/>
<path class="bond-38 atom-28 atom-20" d="M 276.8,196.1 L 272.8,208.2" style="fill:none;fill-rule:evenodd;stroke:#0000FF;stroke-width:2.0px;stroke-linecap:butt;stroke-linejoin:miter;stroke-opacity:1"/>
<path class="bond-39 atom-26 atom-21" d="M 321.3,214.1 L 296.0,232.2" style="fill:none;fill-rule:evenodd;stroke:#000000;stroke-width:2.0px;stroke-linecap:butt;stroke-linejoin:miter;stroke-opacity:1"/>
<path class="bond-40 atom-35 atom-30" d="M 318.1,130.8 L 330.5,159.4" style="fill:none;fill-rule:evenodd;stroke:#000000;stroke-width:2.0px;stroke-linecap:butt;stroke-linejoin:miter;stroke-opacity:1"/>
<path class="bond-41 atom-37 atom-2" d="M 138.8,62.5 L 136.6,72.2" style="fill:none;fill-rule:evenodd;stroke:#000000;stroke-width:2.0px;stroke-linecap:butt;stroke-linejoin:miter;stroke-opacity:1;stroke-dasharray:1,1.33333"/>
<path class="bond-41 atom-37 atom-2" d="M 136.6,72.2 L 134.5,81.8" style="fill:none;fill-rule:evenodd;stroke:#FF0000;stroke-width:2.0px;stroke-linecap:butt;stroke-linejoin:miter;stroke-opacity:1;stroke-dasharray:1,1.33333"/>
<path class="bond-42 atom-38 atom-12" d="M 67.0,277.8 L 77.3,274.5" style="fill:none;fill-rule:evenodd;stroke:#000000;stroke-width:2.0px;stroke-linecap:butt;stroke-linejoin:miter;stroke-opacity:1;stroke-dasharray:1,1.33333"/>
<path class="bond-42 atom-38 atom-12" d="M 77.3,274.5 L 87.6,271.3" style="fill:none;fill-rule:evenodd;stroke:#FF0000;stroke-width:2.0px;stroke-linecap:butt;stroke-linejoin:miter;stroke-opacity:1;stroke-dasharray:1,1.33333"/>
<path class="bond-43 atom-39 atom-23" d="M 329.7,301.7 L 328.8,291.6" style="fill:none;fill-rule:evenodd;stroke:#000000;stroke-width:2.0px;stroke-linecap:butt;stroke-linejoin:miter;stroke-opacity:1;stroke-dasharray:1,1.33333"/>
<path class="bond-43 atom-39 atom-23" d="M 328.8,291.6 L 327.8,281.5" style="fill:none;fill-rule:evenodd;stroke:#0000FF;stroke-width:2.0px;stroke-linecap:butt;stroke-linejoin:miter;stroke-opacity:1;stroke-dasharray:1,1.33333"/>
<path class="bond-44 atom-40 atom-29" d="M 273.2,135.9 L 269.2,144.6" style="fill:none;fill-rule:evenodd;stroke:#000000;stroke-width:2.0px;stroke-linecap:butt;stroke-linejoin:miter;stroke-opacity:1;stroke-dasharray:1,1.33333"/>
<path class="bond-44 atom-40 atom-29" d="M 269.2,144.6 L 265.3,153.2" style="fill:none;fill-rule:evenodd;stroke:#FF0000;stroke-width:2.0px;stroke-linecap:butt;stroke-linejoin:miter;stroke-opacity:1;stroke-dasharray:1,1.33333"/>
<path d="M 120.4,147.9 L 119.7,148.1 L 119.4,149.6" style="fill:none;stroke:#000000;stroke-width:2.0px;stroke-linecap:butt;stroke-linejoin:miter;stroke-miterlimit:10;stroke-opacity:1;"/>
<path d="M 134.8,198.5 L 135.9,199.6 L 135.6,201.1" style="fill:none;stroke:#000000;stroke-width:2.0px;stroke-linecap:butt;stroke-linejoin:miter;stroke-miterlimit:10;stroke-opacity:1;"/>
<path d="M 77.7,219.3 L 76.5,218.3 L 76.9,216.7" style="fill:none;stroke:#000000;stroke-width:2.0px;stroke-linecap:butt;stroke-linejoin:miter;stroke-miterlimit:10;stroke-opacity:1;"/>
<path d="M 203.6,261.7 L 204.8,262.7 L 206.3,262.2" style="fill:none;stroke:#000000;stroke-width:2.0px;stroke-linecap:butt;stroke-linejoin:miter;stroke-miterlimit:10;stroke-opacity:1;"/>
<path d="M 233.0,253.8 L 234.5,253.4 L 234.8,251.8" style="fill:none;stroke:#000000;stroke-width:2.0px;stroke-linecap:butt;stroke-linejoin:miter;stroke-miterlimit:10;stroke-opacity:1;"/>
<path d="M 219.4,203.0 L 218.3,201.9 L 216.8,202.4" style="fill:none;stroke:#000000;stroke-width:2.0px;stroke-linecap:butt;stroke-linejoin:miter;stroke-miterlimit:10;stroke-opacity:1;"/>
<path d="M 190.1,210.8 L 188.6,211.3 L 188.2,212.8" style="fill:none;stroke:#000000;stroke-width:2.0px;stroke-linecap:butt;stroke-linejoin:miter;stroke-miterlimit:10;stroke-opacity:1;"/>
<path d="M 352.1,258.4 L 352.6,258.0 L 352.6,257.4" style="fill:none;stroke:#000000;stroke-width:2.0px;stroke-linecap:butt;stroke-linejoin:miter;stroke-miterlimit:10;stroke-opacity:1;"/>
<path d="M 359.9,162.7 L 361.5,162.9 L 362.4,161.7" style="fill:none;stroke:#000000;stroke-width:2.0px;stroke-linecap:butt;stroke-linejoin:miter;stroke-miterlimit:10;stroke-opacity:1;"/>
<path d="M 379.1,139.1 L 380.0,137.9 L 379.7,137.3" style="fill:none;stroke:#000000;stroke-width:2.0px;stroke-linecap:butt;stroke-linejoin:miter;stroke-miterlimit:10;stroke-opacity:1;"/>
<path d="M 337.3,105.9 L 336.7,105.8 L 335.7,107.0" style="fill:none;stroke:#000000;stroke-width:2.0px;stroke-linecap:butt;stroke-linejoin:miter;stroke-miterlimit:10;stroke-opacity:1;"/>
<path d="M 319.0,129.5 L 318.1,130.8 L 318.7,132.2" style="fill:none;stroke:#000000;stroke-width:2.0px;stroke-linecap:butt;stroke-linejoin:miter;stroke-miterlimit:10;stroke-opacity:1;"/>
<path class="atom-2" d="M 129.2 87.3 Q 129.2 85.2, 130.3 84.0 Q 131.3 82.8, 133.3 82.8 Q 135.2 82.8, 136.3 84.0 Q 137.3 85.2, 137.3 87.3 Q 137.3 89.5, 136.3 90.7 Q 135.2 91.9, 133.3 91.9 Q 131.3 91.9, 130.3 90.7 Q 129.2 89.5, 129.2 87.3 M 133.3 90.9 Q 134.6 90.9, 135.3 90.0 Q 136.1 89.1, 136.1 87.3 Q 136.1 85.6, 135.3 84.7 Q 134.6 83.8, 133.3 83.8 Q 131.9 83.8, 131.2 84.7 Q 130.5 85.6, 130.5 87.3 Q 130.5 89.1, 131.2 90.0 Q 131.9 90.9, 133.3 90.9 " fill="#FF0000"/>
<path class="atom-3" d="M 147.5 134.4 L 150.4 139.0 Q 150.7 139.5, 151.1 140.3 Q 151.6 141.2, 151.6 141.2 L 151.6 134.4 L 152.8 134.4 L 152.8 143.2 L 151.6 143.2 L 148.5 138.1 Q 148.1 137.5, 147.7 136.8 Q 147.4 136.1, 147.3 135.9 L 147.3 143.2 L 146.1 143.2 L 146.1 134.4 L 147.5 134.4 " fill="#0000FF"/>
<path class="atom-3" d="M 154.5 134.4 L 155.7 134.4 L 155.7 138.1 L 160.2 138.1 L 160.2 134.4 L 161.4 134.4 L 161.4 143.2 L 160.2 143.2 L 160.2 139.1 L 155.7 139.1 L 155.7 143.2 L 154.5 143.2 L 154.5 134.4 " fill="#0000FF"/>
<path class="atom-11" d="M 57.7 162.4 L 63.0 162.4 L 63.0 163.4 L 58.9 163.4 L 58.9 166.1 L 62.5 166.1 L 62.5 167.1 L 58.9 167.1 L 58.9 171.2 L 57.7 171.2 L 57.7 162.4 " fill="#33CCCC"/>
<path class="atom-12" d="M 88.7 269.7 Q 88.7 267.6, 89.7 266.4 Q 90.8 265.2, 92.7 265.2 Q 94.7 265.2, 95.7 266.4 Q 96.8 267.6, 96.8 269.7 Q 96.8 271.9, 95.7 273.1 Q 94.6 274.3, 92.7 274.3 Q 90.8 274.3, 89.7 273.1 Q 88.7 271.9, 88.7 269.7 M 92.7 273.3 Q 94.1 273.3, 94.8 272.4 Q 95.5 271.5, 95.5 269.7 Q 95.5 268.0, 94.8 267.1 Q 94.1 266.2, 92.7 266.2 Q 91.4 266.2, 90.6 267.1 Q 89.9 268.0, 89.9 269.7 Q 89.9 271.5, 90.6 272.4 Q 91.4 273.3, 92.7 273.3 " fill="#FF0000"/>
<path class="atom-12" d="M 98.1 265.3 L 99.3 265.3 L 99.3 269.1 L 103.8 269.1 L 103.8 265.3 L 105.0 265.3 L 105.0 274.2 L 103.8 274.2 L 103.8 270.1 L 99.3 270.1 L 99.3 274.2 L 98.1 274.2 L 98.1 265.3 " fill="#FF0000"/>
<path class="atom-13" d="M 148.1 251.0 Q 148.1 248.9, 149.1 247.7 Q 150.2 246.6, 152.1 246.6 Q 154.1 246.6, 155.1 247.7 Q 156.2 248.9, 156.2 251.0 Q 156.2 253.2, 155.1 254.4 Q 154.1 255.6, 152.1 255.6 Q 150.2 255.6, 149.1 254.4 Q 148.1 253.2, 148.1 251.0 M 152.1 254.6 Q 153.5 254.6, 154.2 253.7 Q 154.9 252.8, 154.9 251.0 Q 154.9 249.3, 154.2 248.4 Q 153.5 247.5, 152.1 247.5 Q 150.8 247.5, 150.0 248.4 Q 149.3 249.3, 149.3 251.0 Q 149.3 252.8, 150.0 253.7 Q 150.8 254.6, 152.1 254.6 " fill="#FF0000"/>
<path class="atom-20" d="M 269.0 209.2 L 271.9 213.9 Q 272.2 214.3, 272.6 215.2 Q 273.1 216.0, 273.1 216.1 L 273.1 209.2 L 274.3 209.2 L 274.3 218.0 L 273.1 218.0 L 270.0 212.9 Q 269.6 212.3, 269.2 211.6 Q 268.9 211.0, 268.7 210.7 L 268.7 218.0 L 267.6 218.0 L 267.6 209.2 L 269.0 209.2 " fill="#0000FF"/>
<path class="atom-23" d="M 325.3 271.7 L 328.2 276.4 Q 328.5 276.8, 329.0 277.6 Q 329.4 278.5, 329.4 278.5 L 329.4 271.7 L 330.6 271.7 L 330.6 280.5 L 329.4 280.5 L 326.3 275.4 Q 325.9 274.8, 325.6 274.1 Q 325.2 273.4, 325.1 273.2 L 325.1 280.5 L 323.9 280.5 L 323.9 271.7 L 325.3 271.7 " fill="#0000FF"/>
<path class="atom-25" d="M 347.7 222.6 L 350.6 227.3 Q 350.9 227.7, 351.3 228.6 Q 351.8 229.4, 351.8 229.5 L 351.8 222.6 L 353.0 222.6 L 353.0 231.4 L 351.8 231.4 L 348.7 226.3 Q 348.3 225.7, 347.9 225.0 Q 347.6 224.4, 347.5 224.1 L 347.5 231.4 L 346.3 231.4 L 346.3 222.6 L 347.7 222.6 " fill="#0000FF"/>
<path class="atom-27" d="M 310.0 180.0 L 312.9 184.6 Q 313.2 185.1, 313.7 185.9 Q 314.1 186.8, 314.2 186.8 L 314.2 180.0 L 315.3 180.0 L 315.3 188.8 L 314.1 188.8 L 311.0 183.7 Q 310.7 183.1, 310.3 182.4 Q 309.9 181.7, 309.8 181.5 L 309.8 188.8 L 308.6 188.8 L 308.6 180.0 L 310.0 180.0 " fill="#0000FF"/>
<path class="atom-29" d="M 258.7 158.8 Q 258.7 156.6, 259.8 155.5 Q 260.8 154.3, 262.8 154.3 Q 264.7 154.3, 265.8 155.5 Q 266.8 156.6, 266.8 158.8 Q 266.8 160.9, 265.8 162.1 Q 264.7 163.3, 262.8 163.3 Q 260.8 163.3, 259.8 162.1 Q 258.7 160.9, 258.7 158.8 M 262.8 162.3 Q 264.1 162.3, 264.8 161.4 Q 265.6 160.5, 265.6 158.8 Q 265.6 157.0, 264.8 156.2 Q 264.1 155.3, 262.8 155.3 Q 261.4 155.3, 260.7 156.1 Q 260.0 157.0, 260.0 158.8 Q 260.0 160.5, 260.7 161.4 Q 261.4 162.3, 262.8 162.3 " fill="#FF0000"/>
<path class="atom-33" d="M 365.6 104.9 L 368.5 109.6 Q 368.8 110.0, 369.3 110.9 Q 369.7 111.7, 369.8 111.8 L 369.8 104.9 L 370.9 104.9 L 370.9 113.7 L 369.7 113.7 L 366.6 108.6 Q 366.3 108.0, 365.9 107.3 Q 365.5 106.7, 365.4 106.4 L 365.4 113.7 L 364.3 113.7 L 364.3 104.9 L 365.6 104.9 " fill="#0000FF"/>
<path class="atom-33" d="M 372.7 104.9 L 373.9 104.9 L 373.9 108.7 L 378.4 108.7 L 378.4 104.9 L 379.6 104.9 L 379.6 113.7 L 378.4 113.7 L 378.4 109.7 L 373.9 109.7 L 373.9 113.7 L 372.7 113.7 L 372.7 104.9 " fill="#0000FF"/>
<path class="atom-36" d="M 256.6 276.8 L 257.7 276.8 L 257.7 280.6 L 262.3 280.6 L 262.3 276.8 L 263.5 276.8 L 263.5 285.6 L 262.3 285.6 L 262.3 281.6 L 257.7 281.6 L 257.7 285.6 L 256.6 285.6 L 256.6 276.8 " fill="#0000FF"/>
<path class="atom-36" d="M 265.2 285.3 Q 265.4 284.8, 265.9 284.5 Q 266.4 284.2, 267.1 284.2 Q 268.0 284.2, 268.5 284.6 Q 269.0 285.1, 269.0 286.0 Q 269.0 286.8, 268.3 287.6 Q 267.7 288.4, 266.4 289.4 L 269.1 289.4 L 269.1 290.0 L 265.2 290.0 L 265.2 289.5 Q 266.2 288.7, 266.9 288.1 Q 267.5 287.6, 267.8 287.1 Q 268.2 286.5, 268.2 286.0 Q 268.2 285.4, 267.9 285.1 Q 267.6 284.8, 267.1 284.8 Q 266.6 284.8, 266.3 285.0 Q 266.0 285.2, 265.8 285.6 L 265.2 285.3 " fill="#0000FF"/>
<path class="atom-36" d="M 271.6 276.8 L 274.5 281.5 Q 274.8 282.0, 275.3 282.8 Q 275.7 283.6, 275.7 283.7 L 275.7 276.8 L 276.9 276.8 L 276.9 285.6 L 275.7 285.6 L 272.6 280.5 Q 272.2 279.9, 271.9 279.2 Q 271.5 278.6, 271.4 278.4 L 271.4 285.6 L 270.2 285.6 L 270.2 276.8 L 271.6 276.8 " fill="#0000FF"/>
<path class="atom-37" d="M 143.6 57.0 L 143.6 60.8 Q 142.3 61.5, 140.4 61.5 Q 138.5 61.5, 137.5 60.3 Q 136.5 59.1, 136.5 56.9 Q 136.5 54.8, 137.5 53.6 Q 138.5 52.5, 140.5 52.5 Q 141.5 52.5, 142.3 52.8 Q 143.0 53.1, 143.5 53.7 L 142.7 54.4 Q 141.9 53.4, 140.5 53.4 Q 139.2 53.4, 138.4 54.3 Q 137.7 55.2, 137.7 56.9 Q 137.7 58.7, 138.5 59.6 Q 139.2 60.5, 140.6 60.5 Q 141.5 60.5, 142.4 60.2 L 142.4 57.0 L 143.6 57.0 " fill="#000000"/>
<path class="atom-37" d="M 145.0 52.6 L 146.2 52.6 L 146.2 60.3 L 150.2 60.3 L 150.2 61.4 L 145.0 61.4 L 145.0 52.6 " fill="#000000"/>
<path class="atom-37" d="M 154.0 57.7 L 151.1 52.6 L 152.4 52.6 L 154.6 56.5 L 156.8 52.6 L 158.1 52.6 L 155.2 57.7 L 155.2 61.4 L 154.0 61.4 L 154.0 57.7 " fill="#000000"/>
<path class="atom-37" d="" fill="#000000"/>
<path class="atom-37" d="M 166.3 52.5 Q 167.8 52.5, 168.6 53.5 Q 169.4 54.6, 169.4 56.7 Q 169.4 59.0, 168.4 60.3 Q 167.5 61.5, 165.6 61.5 Q 165.0 61.5, 164.6 61.3 Q 164.1 61.2, 163.7 61.0 L 164.1 60.1 Q 164.8 60.5, 165.6 60.5 Q 166.8 60.5, 167.5 59.7 Q 168.1 58.9, 168.2 57.2 Q 167.7 57.6, 167.1 57.8 Q 166.6 58.1, 166.0 58.1 Q 165.2 58.1, 164.6 57.7 Q 164.0 57.4, 163.6 56.8 Q 163.3 56.2, 163.3 55.4 Q 163.3 54.5, 163.7 53.9 Q 164.1 53.2, 164.7 52.8 Q 165.4 52.5, 166.3 52.5 M 164.5 55.4 Q 164.5 56.2, 165.0 56.6 Q 165.4 57.1, 166.2 57.1 Q 166.7 57.1, 167.3 56.8 Q 167.8 56.6, 168.2 56.2 Q 168.1 54.8, 167.7 54.1 Q 167.2 53.5, 166.3 53.5 Q 165.8 53.5, 165.4 53.7 Q 165.0 54.0, 164.8 54.4 Q 164.5 54.8, 164.5 55.4 " fill="#000000"/>
<path class="atom-38" d="M 26.5 283.5 L 25.6 280.9 L 22.1 280.9 L 21.2 283.5 L 20.0 283.5 L 23.0 274.7 L 24.5 274.7 L 27.7 283.5 L 26.5 283.5 M 22.4 279.9 L 25.2 279.9 L 23.8 275.9 L 22.4 279.9 " fill="#000000"/>
<path class="atom-38" d="M 28.7 282.1 Q 28.8 282.2, 29.2 282.4 Q 29.6 282.5, 30.0 282.6 Q 30.5 282.7, 30.9 282.7 Q 31.8 282.7, 32.3 282.3 Q 32.7 281.9, 32.7 281.2 Q 32.7 280.7, 32.5 280.4 Q 32.3 280.1, 31.9 280.0 Q 31.5 279.8, 30.9 279.6 Q 30.1 279.4, 29.6 279.2 Q 29.2 278.9, 28.8 278.5 Q 28.5 278.0, 28.5 277.2 Q 28.5 276.1, 29.3 275.4 Q 30.0 274.7, 31.5 274.7 Q 32.5 274.7, 33.7 275.2 L 33.4 276.2 Q 32.4 275.7, 31.6 275.7 Q 30.7 275.7, 30.2 276.1 Q 29.7 276.4, 29.8 277.0 Q 29.8 277.5, 30.0 277.8 Q 30.2 278.1, 30.6 278.3 Q 31.0 278.4, 31.6 278.6 Q 32.4 278.9, 32.8 279.1 Q 33.3 279.3, 33.6 279.9 Q 34.0 280.4, 34.0 281.2 Q 34.0 282.4, 33.2 283.1 Q 32.4 283.7, 31.0 283.7 Q 30.2 283.7, 29.6 283.6 Q 29.0 283.4, 28.3 283.1 L 28.7 282.1 " fill="#000000"/>
<path class="atom-38" d="M 37.7 274.7 Q 39.2 274.7, 40.0 275.4 Q 40.7 276.0, 40.7 277.3 Q 40.7 278.5, 39.9 279.2 Q 39.2 279.9, 37.7 279.9 L 36.3 279.9 L 36.3 283.5 L 35.1 283.5 L 35.1 274.7 L 37.7 274.7 M 37.7 278.9 Q 38.5 278.9, 39.0 278.5 Q 39.5 278.1, 39.5 277.3 Q 39.5 276.5, 39.0 276.1 Q 38.6 275.7, 37.7 275.7 L 36.3 275.7 L 36.3 278.9 L 37.7 278.9 " fill="#000000"/>
<path class="atom-38" d="" fill="#000000"/>
<path class="atom-38" d="M 47.0 282.5 L 48.9 282.5 L 48.9 275.9 L 46.8 276.6 L 46.5 275.8 L 49.2 274.6 L 50.1 274.8 L 50.1 282.5 L 51.8 282.5 L 51.8 283.5 L 47.0 283.5 L 47.0 282.5 " fill="#000000"/>
<path class="atom-38" d="M 57.1 278.9 Q 57.9 279.1, 58.3 279.7 Q 58.8 280.2, 58.8 281.1 Q 58.8 281.8, 58.4 282.4 Q 58.0 283.0, 57.3 283.3 Q 56.7 283.6, 55.8 283.6 Q 54.8 283.6, 54.1 283.3 Q 53.4 283.0, 52.8 282.3 L 53.6 281.6 Q 54.1 282.2, 54.6 282.4 Q 55.0 282.6, 55.8 282.6 Q 56.6 282.6, 57.0 282.2 Q 57.5 281.8, 57.5 281.1 Q 57.5 280.2, 57.0 279.8 Q 56.5 279.4, 55.4 279.4 L 54.8 279.4 L 54.8 278.5 L 55.4 278.5 Q 56.3 278.5, 56.8 278.1 Q 57.3 277.6, 57.3 276.8 Q 57.3 276.3, 56.9 275.9 Q 56.5 275.6, 55.8 275.6 Q 55.0 275.6, 54.6 275.8 Q 54.1 276.1, 53.8 276.8 L 52.9 276.3 Q 53.2 275.6, 54.0 275.1 Q 54.7 274.6, 55.8 274.6 Q 57.1 274.6, 57.8 275.2 Q 58.6 275.8, 58.6 276.8 Q 58.6 277.6, 58.2 278.1 Q 57.8 278.6, 57.1 278.9 " fill="#000000"/>
<path class="atom-38" d="M 63.2 278.0 Q 64.0 278.0, 64.6 278.3 Q 65.3 278.7, 65.6 279.3 Q 66.0 279.9, 66.0 280.7 Q 66.0 281.6, 65.5 282.3 Q 65.1 282.9, 64.4 283.3 Q 63.7 283.6, 62.8 283.6 Q 62.0 283.6, 61.3 283.3 Q 60.5 283.0, 60.0 282.4 L 60.8 281.7 Q 61.2 282.1, 61.7 282.4 Q 62.3 282.6, 62.9 282.6 Q 63.7 282.6, 64.2 282.1 Q 64.7 281.6, 64.7 280.7 Q 64.7 279.8, 64.2 279.4 Q 63.7 278.9, 62.8 278.9 Q 62.0 278.9, 61.2 279.3 L 60.5 278.9 L 60.9 274.7 L 65.4 274.7 L 65.3 275.7 L 61.9 275.7 L 61.7 278.3 Q 62.5 278.0, 63.2 278.0 " fill="#000000"/>
<path class="atom-39" d="M 329.7 303.7 L 327.0 303.7 L 327.0 302.7 L 333.5 302.7 L 333.5 303.7 L 330.9 303.7 L 330.9 311.5 L 329.7 311.5 L 329.7 303.7 " fill="#000000"/>
<path class="atom-39" d="M 334.0 302.7 L 335.2 302.7 L 335.2 306.5 L 339.7 306.5 L 339.7 302.7 L 340.9 302.7 L 340.9 311.5 L 339.7 311.5 L 339.7 307.5 L 335.2 307.5 L 335.2 311.5 L 334.0 311.5 L 334.0 302.7 " fill="#000000"/>
<path class="atom-39" d="M 347.3 311.5 L 345.2 307.9 L 345.1 307.9 L 343.7 307.9 L 343.7 311.5 L 342.5 311.5 L 342.5 302.7 L 345.1 302.7 Q 346.6 302.7, 347.4 303.4 Q 348.2 304.1, 348.2 305.3 Q 348.2 306.3, 347.7 306.9 Q 347.2 307.5, 346.4 307.8 L 348.6 311.5 L 347.3 311.5 M 343.7 306.9 L 345.1 306.9 Q 346.0 306.9, 346.4 306.5 Q 346.9 306.1, 346.9 305.3 Q 346.9 304.5, 346.4 304.1 Q 346.0 303.7, 345.1 303.7 L 343.7 303.7 L 343.7 306.9 " fill="#000000"/>
<path class="atom-39" d="" fill="#000000"/>
<path class="atom-39" d="M 359.9 308.5 L 360.9 308.5 L 360.9 309.5 L 359.9 309.5 L 359.9 311.5 L 358.7 311.5 L 358.7 309.5 L 354.1 309.5 L 354.1 308.7 L 358.0 302.7 L 359.9 302.7 L 359.9 308.5 M 355.6 308.5 L 358.7 308.5 L 358.7 303.5 L 355.6 308.5 " fill="#000000"/>
<path class="atom-39" d="M 366.6 306.9 Q 367.4 307.2, 367.8 307.8 Q 368.3 308.3, 368.3 309.1 Q 368.3 309.9, 367.9 310.5 Q 367.5 311.0, 366.8 311.4 Q 366.1 311.7, 365.2 311.7 Q 363.8 311.7, 362.9 311.0 Q 362.1 310.3, 362.1 309.1 Q 362.1 308.4, 362.4 307.9 Q 362.8 307.3, 363.6 306.9 Q 363.0 306.6, 362.7 306.1 Q 362.4 305.6, 362.4 304.9 Q 362.4 303.9, 363.1 303.2 Q 363.9 302.6, 365.2 302.6 Q 366.5 302.6, 367.2 303.2 Q 368.0 303.9, 368.0 304.9 Q 368.0 305.5, 367.6 306.0 Q 367.3 306.5, 366.6 306.9 M 365.2 303.6 Q 364.4 303.6, 364.0 303.9 Q 363.6 304.3, 363.6 304.9 Q 363.6 305.3, 363.9 305.7 Q 364.2 306.0, 364.6 306.1 Q 365.0 306.3, 365.7 306.6 Q 366.3 306.2, 366.5 305.8 Q 366.7 305.4, 366.7 304.9 Q 366.7 304.3, 366.3 303.9 Q 365.9 303.6, 365.2 303.6 M 365.2 310.7 Q 366.1 310.7, 366.6 310.3 Q 367.0 309.9, 367.0 309.1 Q 367.0 308.6, 366.8 308.3 Q 366.5 308.0, 366.1 307.9 Q 365.7 307.7, 365.0 307.5 L 364.5 307.3 Q 363.9 307.7, 363.6 308.1 Q 363.3 308.5, 363.3 309.1 Q 363.3 309.9, 363.8 310.3 Q 364.4 310.7, 365.2 310.7 " fill="#000000"/>
<path class="atom-40" d="M 272.3 126.0 L 273.5 126.0 L 273.5 129.8 L 278.0 129.8 L 278.0 126.0 L 279.2 126.0 L 279.2 134.9 L 278.0 134.9 L 278.0 130.8 L 273.5 130.8 L 273.5 134.9 L 272.3 134.9 L 272.3 126.0 " fill="#000000"/>
<path class="atom-40" d="M 280.8 130.4 Q 280.8 128.3, 281.8 127.1 Q 282.9 125.9, 284.8 125.9 Q 286.8 125.9, 287.8 127.1 Q 288.9 128.3, 288.9 130.4 Q 288.9 132.6, 287.8 133.8 Q 286.8 135.0, 284.8 135.0 Q 282.9 135.0, 281.8 133.8 Q 280.8 132.6, 280.8 130.4 M 284.8 134.0 Q 286.2 134.0, 286.9 133.1 Q 287.6 132.2, 287.6 130.4 Q 287.6 128.7, 286.9 127.8 Q 286.2 126.9, 284.8 126.9 Q 283.5 126.9, 282.8 127.8 Q 282.0 128.7, 282.0 130.4 Q 282.0 132.2, 282.8 133.1 Q 283.5 134.0, 284.8 134.0 " fill="#000000"/>
<path class="atom-40" d="M 290.1 126.0 L 291.3 126.0 L 291.3 129.8 L 295.8 129.8 L 295.8 126.0 L 297.0 126.0 L 297.0 134.9 L 295.8 134.9 L 295.8 130.8 L 291.3 130.8 L 291.3 134.9 L 290.1 134.9 L 290.1 126.0 " fill="#000000"/>
<path class="atom-40" d="" fill="#000000"/>
<path class="atom-40" d="M 306.8 129.4 Q 307.5 129.4, 308.2 129.7 Q 308.8 130.0, 309.1 130.6 Q 309.4 131.2, 309.4 132.0 Q 309.4 132.9, 309.1 133.6 Q 308.7 134.2, 308.0 134.6 Q 307.3 135.0, 306.5 135.0 Q 304.9 135.0, 304.1 133.9 Q 303.3 132.8, 303.3 130.7 Q 303.3 128.4, 304.3 127.2 Q 305.3 125.9, 307.2 125.9 Q 307.7 125.9, 308.2 126.1 Q 308.6 126.2, 309.1 126.5 L 308.6 127.3 Q 308.0 126.9, 307.2 126.9 Q 305.9 126.9, 305.3 127.7 Q 304.7 128.5, 304.6 130.2 Q 305.0 129.8, 305.6 129.6 Q 306.2 129.4, 306.8 129.4 M 306.5 133.9 Q 307.0 133.9, 307.3 133.7 Q 307.7 133.4, 308.0 133.0 Q 308.2 132.6, 308.2 132.0 Q 308.2 131.2, 307.8 130.8 Q 307.3 130.4, 306.5 130.4 Q 306.0 130.4, 305.5 130.6 Q 305.0 130.8, 304.6 131.2 Q 304.6 132.6, 305.1 133.3 Q 305.6 133.9, 306.5 133.9 " fill="#000000"/>
<path class="atom-40" d="M 314.9 130.2 Q 315.8 130.5, 316.2 131.0 Q 316.6 131.6, 316.6 132.4 Q 316.6 133.2, 316.2 133.8 Q 315.9 134.4, 315.2 134.7 Q 314.5 135.0, 313.6 135.0 Q 312.7 135.0, 311.9 134.7 Q 311.3 134.3, 310.7 133.7 L 311.4 132.9 Q 311.9 133.5, 312.4 133.8 Q 312.9 134.0, 313.6 134.0 Q 314.4 134.0, 314.9 133.6 Q 315.4 133.1, 315.4 132.4 Q 315.4 131.5, 314.9 131.1 Q 314.4 130.7, 313.3 130.7 L 312.6 130.7 L 312.6 129.8 L 313.2 129.8 Q 314.2 129.8, 314.7 129.4 Q 315.2 129.0, 315.2 128.2 Q 315.2 127.6, 314.8 127.3 Q 314.3 126.9, 313.6 126.9 Q 312.9 126.9, 312.4 127.2 Q 312.0 127.5, 311.6 128.1 L 310.8 127.7 Q 311.1 126.9, 311.8 126.4 Q 312.6 125.9, 313.6 125.9 Q 314.9 125.9, 315.7 126.6 Q 316.4 127.2, 316.4 128.2 Q 316.4 128.9, 316.0 129.4 Q 315.7 129.9, 314.9 130.2 " fill="#000000"/>
<path class="atom-40" d="M 322.5 127.0 L 317.9 127.0 L 317.9 126.0 L 323.8 126.0 L 323.8 126.9 L 320.2 134.9 L 319.0 134.9 L 322.5 127.0 " fill="#000000"/>
<path class="legend" d="M 148.8 377.5 L 147.6 374.2 L 143.1 374.2 L 142.0 377.5 L 140.4 377.5 L 144.4 366.2 L 146.2 366.2 L 150.3 377.5 L 148.8 377.5 M 143.6 372.9 L 147.2 372.9 L 145.3 367.8 L 143.6 372.9 " fill="#000000"/>
<path class="legend" d="M 151.7 376.2 L 154.2 376.2 L 154.2 367.8 L 151.5 368.6 L 151.1 367.7 L 154.6 366.1 L 155.7 366.3 L 155.7 376.2 L 157.9 376.2 L 157.9 377.5 L 151.7 377.5 L 151.7 376.2 " fill="#000000"/>
<path class="legend" d="M 159.2 366.2 L 166.0 366.2 L 166.0 367.5 L 160.8 367.5 L 160.8 370.9 L 165.4 370.9 L 165.4 372.2 L 160.8 372.2 L 160.8 376.2 L 166.1 376.2 L 166.1 377.5 L 159.2 377.5 L 159.2 366.2 " fill="#000000"/>
<path class="legend" d="M 173.7 377.5 L 170.9 372.8 L 170.9 372.8 L 169.1 372.8 L 169.1 377.5 L 167.6 377.5 L 167.6 366.2 L 170.9 366.2 Q 172.8 366.2, 173.8 367.1 Q 174.8 367.9, 174.8 369.5 Q 174.8 370.7, 174.2 371.5 Q 173.6 372.3, 172.5 372.6 L 175.3 377.5 L 173.7 377.5 M 169.1 371.6 L 170.9 371.6 Q 172.0 371.6, 172.6 371.0 Q 173.2 370.5, 173.2 369.5 Q 173.2 368.5, 172.6 368.0 Q 172.0 367.5, 170.9 367.5 L 169.1 367.5 L 169.1 371.6 " fill="#000000"/>
<path class="legend" d="M 182.5 377.5 L 179.7 372.8 L 179.7 372.8 L 177.9 372.8 L 177.9 377.5 L 176.4 377.5 L 176.4 366.2 L 179.7 366.2 Q 181.6 366.2, 182.6 367.1 Q 183.6 367.9, 183.6 369.5 Q 183.6 370.7, 183.0 371.5 Q 182.4 372.3, 181.3 372.6 L 184.1 377.5 L 182.5 377.5 M 177.9 371.6 L 179.7 371.6 Q 180.8 371.6, 181.4 371.0 Q 182.0 370.5, 182.0 369.5 Q 182.0 368.5, 181.4 368.0 Q 180.8 367.5, 179.7 367.5 L 177.9 367.5 L 177.9 371.6 " fill="#000000"/>
<path class="legend" d="" fill="#000000"/>
<path class="legend" d="M 191.1 370.4 L 191.1 369.3 L 192.6 369.3 L 192.6 368.1 Q 192.6 366.7, 193.3 366.0 Q 194.0 365.3, 195.2 365.3 Q 195.7 365.3, 196.2 365.5 Q 196.6 365.6, 197.2 365.8 L 196.7 366.8 Q 196.0 366.5, 195.3 366.5 Q 194.7 366.5, 194.4 366.9 Q 194.1 367.3, 194.1 368.0 L 194.1 369.3 L 196.6 369.3 L 196.6 370.4 L 194.1 370.4 L 194.1 380.0 L 192.6 380.0 L 192.6 370.4 L 191.1 370.4 " fill="#000000"/>
<path class="legend" d="M 198.6 369.3 L 198.8 370.4 Q 199.6 369.1, 201.0 369.1 Q 201.5 369.1, 202.1 369.3 L 201.8 370.6 Q 201.2 370.5, 200.8 370.5 Q 200.1 370.5, 199.6 370.8 Q 199.2 371.0, 198.9 371.6 L 198.9 377.5 L 197.4 377.5 L 197.4 369.3 L 198.6 369.3 " fill="#000000"/>
<path class="legend" d="M 202.9 373.4 Q 202.9 371.4, 204.0 370.3 Q 205.0 369.1, 206.8 369.1 Q 208.7 369.1, 209.7 370.3 Q 210.8 371.4, 210.8 373.4 Q 210.8 375.4, 209.7 376.5 Q 208.7 377.6, 206.8 377.6 Q 205.0 377.6, 204.0 376.5 Q 202.9 375.4, 202.9 373.4 M 204.5 373.4 Q 204.5 374.9, 205.1 375.7 Q 205.7 376.4, 206.8 376.4 Q 208.0 376.4, 208.6 375.7 Q 209.2 374.9, 209.2 373.4 Q 209.2 371.9, 208.6 371.1 Q 208.0 370.3, 206.8 370.3 Q 205.7 370.3, 205.1 371.1 Q 204.5 371.9, 204.5 373.4 " fill="#000000"/>
<path class="legend" d="M 221.6 369.1 Q 223.0 369.1, 223.7 369.9 Q 224.4 370.6, 224.4 372.1 L 224.4 377.5 L 222.9 377.5 L 222.9 372.2 Q 222.9 371.2, 222.5 370.8 Q 222.2 370.3, 221.3 370.3 Q 220.6 370.3, 220.0 370.7 Q 219.4 371.0, 219.0 371.6 Q 219.0 371.8, 219.0 372.1 L 219.0 377.5 L 217.5 377.5 L 217.5 372.2 Q 217.5 371.2, 217.1 370.8 Q 216.8 370.3, 215.9 370.3 Q 215.2 370.3, 214.6 370.7 Q 214.0 371.0, 213.6 371.6 L 213.6 377.5 L 212.1 377.5 L 212.1 369.3 L 213.3 369.3 L 213.5 370.4 Q 214.6 369.1, 216.2 369.1 Q 218.2 369.1, 218.8 370.6 Q 219.9 369.1, 221.6 369.1 " fill="#000000"/>
<path class="legend" d="" fill="#000000"/>
<path class="legend" d="M 236.0 366.0 Q 238.1 366.0, 239.1 367.4 Q 240.1 368.8, 240.1 371.5 Q 240.1 374.5, 238.8 376.1 Q 237.6 377.6, 235.2 377.6 Q 234.5 377.6, 233.9 377.5 Q 233.3 377.3, 232.7 377.0 L 233.3 375.9 Q 234.1 376.4, 235.1 376.4 Q 236.7 376.4, 237.6 375.3 Q 238.4 374.3, 238.5 372.2 Q 237.9 372.7, 237.2 373.0 Q 236.4 373.2, 235.7 373.2 Q 234.7 373.2, 233.9 372.8 Q 233.1 372.4, 232.7 371.6 Q 232.2 370.8, 232.2 369.8 Q 232.2 368.7, 232.7 367.9 Q 233.2 367.0, 234.1 366.5 Q 234.9 366.0, 236.0 366.0 M 233.8 369.8 Q 233.8 370.8, 234.4 371.4 Q 235.0 372.0, 235.9 372.0 Q 236.6 372.0, 237.3 371.7 Q 238.0 371.4, 238.5 370.9 Q 238.4 369.1, 237.8 368.2 Q 237.2 367.4, 236.0 367.4 Q 235.4 367.4, 234.9 367.7 Q 234.4 368.0, 234.1 368.6 Q 233.8 369.1, 233.8 369.8 " fill="#000000"/>
<path class="legend" d="M 248.0 369.3 L 249.5 369.3 L 246.6 377.5 L 244.7 377.5 L 241.8 369.3 L 243.4 369.3 L 245.7 376.2 L 248.0 369.3 " fill="#000000"/>
<path class="legend" d="M 250.3 373.4 Q 250.3 371.4, 251.3 370.3 Q 252.3 369.1, 254.2 369.1 Q 256.1 369.1, 257.1 370.5 L 256.1 371.2 Q 255.7 370.8, 255.2 370.6 Q 254.8 370.3, 254.2 370.3 Q 253.1 370.3, 252.4 371.1 Q 251.8 371.9, 251.8 373.4 Q 251.8 374.9, 252.5 375.7 Q 253.1 376.4, 254.3 376.4 Q 255.0 376.4, 255.5 376.3 Q 255.9 376.1, 256.5 375.9 L 256.9 376.9 Q 255.7 377.6, 254.2 377.6 Q 252.3 377.6, 251.3 376.5 Q 250.3 375.4, 250.3 373.4 " fill="#000000"/>
<path class="legend" d="M 258.1 366.2 L 259.6 366.2 L 259.6 367.6 L 258.1 367.6 L 258.1 366.2 M 258.1 369.3 L 259.6 369.3 L 259.6 377.5 L 258.1 377.5 L 258.1 369.3 " fill="#000000"/>
</svg>