<svg xmlns="http://www.w3.org/2000/svg" xmlns:rdkit="http://www.rdkit.org/xml" xmlns:xlink="http://www.w3.org/1999/xlink" version="1.1" baseProfile="full" xml:space="preserve" width="400px" height="400px" viewBox="0 0 400 400">
<!-- END OF HEADER -->
<rect style="opacity:1.0;fill:#FFFFFF;stroke:none" width="400.0" height="400.0" x="0.0" y="0.0"> </rect>
<ellipse cx="346.5" cy="162.5" rx="9.6" ry="9.6" class="atom-36" style="fill:#FF33FF4C;fill-rule:evenodd;stroke:#FF33FF4C;stroke-width:1.0px;stroke-linecap:butt;stroke-linejoin:miter;stroke-opacity:1"/>
<ellipse cx="313.0" cy="242.6" rx="9.6" ry="9.6" class="atom-37" style="fill:#FF33FF4C;fill-rule:evenodd;stroke:#FF33FF4C;stroke-width:1.0px;stroke-linecap:butt;stroke-linejoin:miter;stroke-opacity:1"/>
<ellipse cx="300.3" cy="143.2" rx="9.6" ry="9.6" class="atom-38" style="fill:#FF33FF4C;fill-rule:evenodd;stroke:#FF33FF4C;stroke-width:1.0px;stroke-linecap:butt;stroke-linejoin:miter;stroke-opacity:1"/>
<ellipse cx="215.6" cy="73.2" rx="9.6" ry="9.6" class="atom-39" style="fill:#FF33FF4C;fill-rule:evenodd;stroke:#FF33FF4C;stroke-width:1.0px;stroke-linecap:butt;stroke-linejoin:miter;stroke-opacity:1"/>
<ellipse cx="66.3" cy="160.3" rx="9.6" ry="9.6" class="atom-40" style="fill:#FF33FF4C;fill-rule:evenodd;stroke:#FF33FF4C;stroke-width:1.0px;stroke-linecap:butt;stroke-linejoin:miter;stroke-opacity:1"/>
<ellipse cx="176.9" cy="165.7" rx="9.6" ry="9.6" class="atom-41" style="fill:#FF33FF4C;fill-rule:evenodd;stroke:#FF33FF4C;stroke-width:1.0px;stroke-linecap:butt;stroke-linejoin:miter;stroke-opacity:1"/>
<path class="bond-0 atom-0 atom-1" d="M 356.3,186.5 L 333.3,204.0" style="fill:none;fill-rule:evenodd;stroke:#000000;stroke-width:2.0px;stroke-linecap:butt;stroke-linejoin:miter;stroke-opacity:1"/>
<path class="bond-1 atom-1 atom-2" d="M 333.3,204.0 L 321.8,199.2" style="fill:none;fill-rule:evenodd;stroke:#000000;stroke-width:2.0px;stroke-linecap:butt;stroke-linejoin:miter;stroke-opacity:1"/>
<path class="bond-1 atom-1 atom-2" d="M 321.8,199.2 L 310.3,194.4" style="fill:none;fill-rule:evenodd;stroke:#CCCC00;stroke-width:2.0px;stroke-linecap:butt;stroke-linejoin:miter;stroke-opacity:1"/>
<path class="bond-2 atom-2 atom-3" d="M 306.7,186.9 L 310.1,178.7" style="fill:none;fill-rule:evenodd;stroke:#CCCC00;stroke-width:2.0px;stroke-linecap:butt;stroke-linejoin:miter;stroke-opacity:1"/>
<path class="bond-2 atom-2 atom-3" d="M 310.1,178.7 L 313.5,170.6" style="fill:none;fill-rule:evenodd;stroke:#FF0000;stroke-width:2.0px;stroke-linecap:butt;stroke-linejoin:miter;stroke-opacity:1"/>
<path class="bond-2 atom-2 atom-3" d="M 310.9,188.7 L 314.3,180.5" style="fill:none;fill-rule:evenodd;stroke:#CCCC00;stroke-width:2.0px;stroke-linecap:butt;stroke-linejoin:miter;stroke-opacity:1"/>
<path class="bond-2 atom-2 atom-3" d="M 314.3,180.5 L 317.7,172.3" style="fill:none;fill-rule:evenodd;stroke:#FF0000;stroke-width:2.0px;stroke-linecap:butt;stroke-linejoin:miter;stroke-opacity:1"/>
<path class="bond-3 atom-2 atom-4" d="M 306.5,199.0 L 303.1,207.2" style="fill:none;fill-rule:evenodd;stroke:#CCCC00;stroke-width:2.0px;stroke-linecap:butt;stroke-linejoin:miter;stroke-opacity:1"/>
<path class="bond-3 atom-2 atom-4" d="M 303.1,207.2 L 299.7,215.3" style="fill:none;fill-rule:evenodd;stroke:#FF0000;stroke-width:2.0px;stroke-linecap:butt;stroke-linejoin:miter;stroke-opacity:1"/>
<path class="bond-3 atom-2 atom-4" d="M 302.3,197.3 L 298.9,205.4" style="fill:none;fill-rule:evenodd;stroke:#CCCC00;stroke-width:2.0px;stroke-linecap:butt;stroke-linejoin:miter;stroke-opacity:1"/>
<path class="bond-3 atom-2 atom-4" d="M 298.9,205.4 L 295.5,213.5" style="fill:none;fill-rule:evenodd;stroke:#FF0000;stroke-width:2.0px;stroke-linecap:butt;stroke-linejoin:miter;stroke-opacity:1"/>
<path class="bond-4 atom-2 atom-5" d="M 303.0,191.3 L 293.5,187.4" style="fill:none;fill-rule:evenodd;stroke:#CCCC00;stroke-width:2.0px;stroke-linecap:butt;stroke-linejoin:miter;stroke-opacity:1"/>
<path class="bond-4 atom-2 atom-5" d="M 293.5,187.4 L 284.1,183.4" style="fill:none;fill-rule:evenodd;stroke:#0000FF;stroke-width:2.0px;stroke-linecap:butt;stroke-linejoin:miter;stroke-opacity:1"/>
<path class="bond-5 atom-5 atom-6" d="M 275.8,184.8 L 266.4,192.0" style="fill:none;fill-rule:evenodd;stroke:#0000FF;stroke-width:2.0px;stroke-linecap:butt;stroke-linejoin:miter;stroke-opacity:1"/>
<path class="bond-5 atom-5 atom-6" d="M 266.4,192.0 L 256.9,199.2" style="fill:none;fill-rule:evenodd;stroke:#000000;stroke-width:2.0px;stroke-linecap:butt;stroke-linejoin:miter;stroke-opacity:1"/>
<path class="bond-6 atom-6 atom-7" d="M 256.9,199.2 L 230.2,188.0" style="fill:none;fill-rule:evenodd;stroke:#000000;stroke-width:2.0px;stroke-linecap:butt;stroke-linejoin:miter;stroke-opacity:1"/>
<path class="bond-7 atom-7 atom-8" d="M 230.2,188.0 L 226.6,159.3" style="fill:none;fill-rule:evenodd;stroke:#000000;stroke-width:2.0px;stroke-linecap:butt;stroke-linejoin:miter;stroke-opacity:1"/>
<path class="bond-8 atom-8 atom-9" d="M 226.6,159.3 L 249.6,141.8" style="fill:none;fill-rule:evenodd;stroke:#000000;stroke-width:2.0px;stroke-linecap:butt;stroke-linejoin:miter;stroke-opacity:1"/>
<path class="bond-9 atom-9 atom-10" d="M 249.6,141.8 L 276.3,153.0" style="fill:none;fill-rule:evenodd;stroke:#000000;stroke-width:2.0px;stroke-linecap:butt;stroke-linejoin:miter;stroke-opacity:1"/>
<path class="bond-10 atom-8 atom-11" d="M 226.6,159.3 L 215.3,154.6" style="fill:none;fill-rule:evenodd;stroke:#000000;stroke-width:2.0px;stroke-linecap:butt;stroke-linejoin:miter;stroke-opacity:1"/>
<path class="bond-10 atom-8 atom-11" d="M 215.3,154.6 L 204.0,149.9" style="fill:none;fill-rule:evenodd;stroke:#0000FF;stroke-width:2.0px;stroke-linecap:butt;stroke-linejoin:miter;stroke-opacity:1"/>
<path class="bond-11 atom-11 atom-12" d="M 198.1,134.0 L 197.2,126.7" style="fill:none;fill-rule:evenodd;stroke:#0000FF;stroke-width:2.0px;stroke-linecap:butt;stroke-linejoin:miter;stroke-opacity:1"/>
<path class="bond-11 atom-11 atom-12" d="M 197.2,126.7 L 196.2,119.5" style="fill:none;fill-rule:evenodd;stroke:#000000;stroke-width:2.0px;stroke-linecap:butt;stroke-linejoin:miter;stroke-opacity:1"/>
<path class="bond-12 atom-12 atom-13" d="M 196.2,119.5 L 205.4,112.5" style="fill:none;fill-rule:evenodd;stroke:#000000;stroke-width:2.0px;stroke-linecap:butt;stroke-linejoin:miter;stroke-opacity:1"/>
<path class="bond-12 atom-12 atom-13" d="M 205.4,112.5 L 214.5,105.6" style="fill:none;fill-rule:evenodd;stroke:#FF0000;stroke-width:2.0px;stroke-linecap:butt;stroke-linejoin:miter;stroke-opacity:1"/>
<path class="bond-12 atom-12 atom-13" d="M 193.5,115.8 L 202.6,108.9" style="fill:none;fill-rule:evenodd;stroke:#000000;stroke-width:2.0px;stroke-linecap:butt;stroke-linejoin:miter;stroke-opacity:1"/>
<path class="bond-12 atom-12 atom-13" d="M 202.6,108.9 L 211.8,101.9" style="fill:none;fill-rule:evenodd;stroke:#FF0000;stroke-width:2.0px;stroke-linecap:butt;stroke-linejoin:miter;stroke-opacity:1"/>
<path class="bond-13 atom-12 atom-14" d="M 196.2,119.5 L 169.6,108.3" style="fill:none;fill-rule:evenodd;stroke:#000000;stroke-width:2.0px;stroke-linecap:butt;stroke-linejoin:miter;stroke-opacity:1"/>
<path class="bond-14 atom-14 atom-15" d="M 169.6,108.3 L 144.8,123.3" style="fill:none;fill-rule:evenodd;stroke:#000000;stroke-width:2.0px;stroke-linecap:butt;stroke-linejoin:miter;stroke-opacity:1"/>
<path class="bond-14 atom-14 atom-15" d="M 164.4,106.1 L 145.3,117.7" style="fill:none;fill-rule:evenodd;stroke:#000000;stroke-width:2.0px;stroke-linecap:butt;stroke-linejoin:miter;stroke-opacity:1"/>
<path class="bond-15 atom-15 atom-16" d="M 144.8,123.3 L 122.9,104.4" style="fill:none;fill-rule:evenodd;stroke:#000000;stroke-width:2.0px;stroke-linecap:butt;stroke-linejoin:miter;stroke-opacity:1"/>
<path class="bond-16 atom-16 atom-17" d="M 122.9,104.4 L 127.4,93.6" style="fill:none;fill-rule:evenodd;stroke:#000000;stroke-width:2.0px;stroke-linecap:butt;stroke-linejoin:miter;stroke-opacity:1"/>
<path class="bond-16 atom-16 atom-17" d="M 127.4,93.6 L 132.0,82.8" style="fill:none;fill-rule:evenodd;stroke:#0000FF;stroke-width:2.0px;stroke-linecap:butt;stroke-linejoin:miter;stroke-opacity:1"/>
<path class="bond-16 atom-16 atom-17" d="M 128.4,103.1 L 132.2,93.9" style="fill:none;fill-rule:evenodd;stroke:#000000;stroke-width:2.0px;stroke-linecap:butt;stroke-linejoin:miter;stroke-opacity:1"/>
<path class="bond-16 atom-16 atom-17" d="M 132.2,93.9 L 136.1,84.6" style="fill:none;fill-rule:evenodd;stroke:#0000FF;stroke-width:2.0px;stroke-linecap:butt;stroke-linejoin:miter;stroke-opacity:1"/>
<path class="bond-17 atom-17 atom-18" d="M 138.2,78.1 L 158.8,79.8" style="fill:none;fill-rule:evenodd;stroke:#0000FF;stroke-width:2.0px;stroke-linecap:butt;stroke-linejoin:miter;stroke-opacity:1"/>
<path class="bond-18 atom-15 atom-19" d="M 144.8,123.3 L 143.9,135.2" style="fill:none;fill-rule:evenodd;stroke:#000000;stroke-width:2.0px;stroke-linecap:butt;stroke-linejoin:miter;stroke-opacity:1"/>
<path class="bond-18 atom-15 atom-19" d="M 143.9,135.2 L 142.9,147.0" style="fill:none;fill-rule:evenodd;stroke:#0000FF;stroke-width:2.0px;stroke-linecap:butt;stroke-linejoin:miter;stroke-opacity:1"/>
<path class="bond-19 atom-19 atom-20" d="M 138.3,154.1 L 127.3,159.3" style="fill:none;fill-rule:evenodd;stroke:#0000FF;stroke-width:2.0px;stroke-linecap:butt;stroke-linejoin:miter;stroke-opacity:1"/>
<path class="bond-19 atom-19 atom-20" d="M 127.3,159.3 L 116.3,164.5" style="fill:none;fill-rule:evenodd;stroke:#000000;stroke-width:2.0px;stroke-linecap:butt;stroke-linejoin:miter;stroke-opacity:1"/>
<path class="bond-20 atom-20 atom-21" d="M 116.3,164.5 L 106.8,157.9" style="fill:none;fill-rule:evenodd;stroke:#000000;stroke-width:2.0px;stroke-linecap:butt;stroke-linejoin:miter;stroke-opacity:1"/>
<path class="bond-20 atom-20 atom-21" d="M 106.8,157.9 L 97.3,151.3" style="fill:none;fill-rule:evenodd;stroke:#FF0000;stroke-width:2.0px;stroke-linecap:butt;stroke-linejoin:miter;stroke-opacity:1"/>
<path class="bond-20 atom-20 atom-21" d="M 113.7,168.2 L 104.2,161.6" style="fill:none;fill-rule:evenodd;stroke:#000000;stroke-width:2.0px;stroke-linecap:butt;stroke-linejoin:miter;stroke-opacity:1"/>
<path class="bond-20 atom-20 atom-21" d="M 104.2,161.6 L 94.7,155.0" style="fill:none;fill-rule:evenodd;stroke:#FF0000;stroke-width:2.0px;stroke-linecap:butt;stroke-linejoin:miter;stroke-opacity:1"/>
<path class="bond-21 atom-20 atom-22" d="M 116.3,164.5 L 113.9,193.3" style="fill:none;fill-rule:evenodd;stroke:#000000;stroke-width:2.0px;stroke-linecap:butt;stroke-linejoin:miter;stroke-opacity:1"/>
<path class="bond-22 atom-22 atom-23" d="M 113.9,193.3 L 87.7,205.7" style="fill:none;fill-rule:evenodd;stroke:#000000;stroke-width:2.0px;stroke-linecap:butt;stroke-linejoin:miter;stroke-opacity:1"/>
<path class="bond-22 atom-22 atom-23" d="M 113.5,198.5 L 92.0,208.6" style="fill:none;fill-rule:evenodd;stroke:#000000;stroke-width:2.0px;stroke-linecap:butt;stroke-linejoin:miter;stroke-opacity:1"/>
<path class="bond-23 atom-23 atom-24" d="M 87.7,205.7 L 85.4,234.5" style="fill:none;fill-rule:evenodd;stroke:#000000;stroke-width:2.0px;stroke-linecap:butt;stroke-linejoin:miter;stroke-opacity:1"/>
<path class="bond-24 atom-24 atom-25" d="M 85.4,234.5 L 109.1,251.0" style="fill:none;fill-rule:evenodd;stroke:#000000;stroke-width:2.0px;stroke-linecap:butt;stroke-linejoin:miter;stroke-opacity:1"/>
<path class="bond-24 atom-24 atom-25" d="M 90.1,232.3 L 109.6,245.8" style="fill:none;fill-rule:evenodd;stroke:#000000;stroke-width:2.0px;stroke-linecap:butt;stroke-linejoin:miter;stroke-opacity:1"/>
<path class="bond-25 atom-25 atom-26" d="M 109.1,251.0 L 135.3,238.6" style="fill:none;fill-rule:evenodd;stroke:#000000;stroke-width:2.0px;stroke-linecap:butt;stroke-linejoin:miter;stroke-opacity:1"/>
<path class="bond-26 atom-26 atom-27" d="M 135.3,238.6 L 137.7,209.8" style="fill:none;fill-rule:evenodd;stroke:#000000;stroke-width:2.0px;stroke-linecap:butt;stroke-linejoin:miter;stroke-opacity:1"/>
<path class="bond-26 atom-26 atom-27" d="M 131.0,235.6 L 133.0,212.0" style="fill:none;fill-rule:evenodd;stroke:#000000;stroke-width:2.0px;stroke-linecap:butt;stroke-linejoin:miter;stroke-opacity:1"/>
<path class="bond-27 atom-27 atom-28" d="M 137.7,209.8 L 149.0,204.4" style="fill:none;fill-rule:evenodd;stroke:#000000;stroke-width:2.0px;stroke-linecap:butt;stroke-linejoin:miter;stroke-opacity:1"/>
<path class="bond-27 atom-27 atom-28" d="M 149.0,204.4 L 160.4,199.1" style="fill:none;fill-rule:evenodd;stroke:#33CCCC;stroke-width:2.0px;stroke-linecap:butt;stroke-linejoin:miter;stroke-opacity:1"/>
<path class="bond-28 atom-26 atom-29" d="M 135.3,238.6 L 159.1,255.1" style="fill:none;fill-rule:evenodd;stroke:#000000;stroke-width:2.0px;stroke-linecap:butt;stroke-linejoin:miter;stroke-opacity:1"/>
<path class="bond-29 atom-29 atom-30" d="M 159.1,255.1 L 156.7,283.9" style="fill:none;fill-rule:evenodd;stroke:#000000;stroke-width:2.0px;stroke-linecap:butt;stroke-linejoin:miter;stroke-opacity:1"/>
<path class="bond-30 atom-30 atom-31" d="M 156.7,283.9 L 180.5,300.4" style="fill:none;fill-rule:evenodd;stroke:#000000;stroke-width:2.0px;stroke-linecap:butt;stroke-linejoin:miter;stroke-opacity:1"/>
<path class="bond-31 atom-31 atom-32" d="M 180.5,300.4 L 191.2,295.4" style="fill:none;fill-rule:evenodd;stroke:#000000;stroke-width:2.0px;stroke-linecap:butt;stroke-linejoin:miter;stroke-opacity:1"/>
<path class="bond-31 atom-31 atom-32" d="M 191.2,295.4 L 201.9,290.3" style="fill:none;fill-rule:evenodd;stroke:#FF0000;stroke-width:2.0px;stroke-linecap:butt;stroke-linejoin:miter;stroke-opacity:1"/>
<path class="bond-32 atom-32 atom-33" d="M 207.0,282.9 L 208.0,271.1" style="fill:none;fill-rule:evenodd;stroke:#FF0000;stroke-width:2.0px;stroke-linecap:butt;stroke-linejoin:miter;stroke-opacity:1"/>
<path class="bond-32 atom-32 atom-33" d="M 208.0,271.1 L 209.0,259.2" style="fill:none;fill-rule:evenodd;stroke:#000000;stroke-width:2.0px;stroke-linecap:butt;stroke-linejoin:miter;stroke-opacity:1"/>
<path class="bond-33 atom-33 atom-34" d="M 209.0,259.2 L 185.2,242.7" style="fill:none;fill-rule:evenodd;stroke:#000000;stroke-width:2.0px;stroke-linecap:butt;stroke-linejoin:miter;stroke-opacity:1"/>
<path class="bond-34 atom-23 atom-35" d="M 87.7,205.7 L 77.6,198.6" style="fill:none;fill-rule:evenodd;stroke:#000000;stroke-width:2.0px;stroke-linecap:butt;stroke-linejoin:miter;stroke-opacity:1"/>
<path class="bond-34 atom-23 atom-35" d="M 77.6,198.6 L 67.4,191.6" style="fill:none;fill-rule:evenodd;stroke:#33CCCC;stroke-width:2.0px;stroke-linecap:butt;stroke-linejoin:miter;stroke-opacity:1"/>
<path class="bond-35 atom-10 atom-5" d="M 276.3,153.0 L 277.8,164.8" style="fill:none;fill-rule:evenodd;stroke:#000000;stroke-width:2.0px;stroke-linecap:butt;stroke-linejoin:miter;stroke-opacity:1"/>
<path class="bond-35 atom-10 atom-5" d="M 277.8,164.8 L 279.3,176.6" style="fill:none;fill-rule:evenodd;stroke:#0000FF;stroke-width:2.0px;stroke-linecap:butt;stroke-linejoin:miter;stroke-opacity:1"/>
<path class="bond-36 atom-18 atom-14" d="M 164.1,85.2 L 166.8,96.7" style="fill:none;fill-rule:evenodd;stroke:#0000FF;stroke-width:2.0px;stroke-linecap:butt;stroke-linejoin:miter;stroke-opacity:1"/>
<path class="bond-36 atom-18 atom-14" d="M 166.8,96.7 L 169.6,108.3" style="fill:none;fill-rule:evenodd;stroke:#000000;stroke-width:2.0px;stroke-linecap:butt;stroke-linejoin:miter;stroke-opacity:1"/>
<path class="bond-37 atom-27 atom-22" d="M 137.7,209.8 L 113.9,193.3" style="fill:none;fill-rule:evenodd;stroke:#000000;stroke-width:2.0px;stroke-linecap:butt;stroke-linejoin:miter;stroke-opacity:1"/>
<path class="bond-38 atom-34 atom-29" d="M 185.2,242.7 L 159.1,255.1" style="fill:none;fill-rule:evenodd;stroke:#000000;stroke-width:2.0px;stroke-linecap:butt;stroke-linejoin:miter;stroke-opacity:1"/>
<path class="bond-39 atom-36 atom-3" d="M 343.1,162.9 L 332.8,164.3" style="fill:none;fill-rule:evenodd;stroke:#000000;stroke-width:2.0px;stroke-linecap:butt;stroke-linejoin:miter;stroke-opacity:1;stroke-dasharray:1,1.33333"/>
<path class="bond-39 atom-36 atom-3" d="M 332.8,164.3 L 322.6,165.6" style="fill:none;fill-rule:evenodd;stroke:#FF0000;stroke-width:2.0px;stroke-linecap:butt;stroke-linejoin:miter;stroke-opacity:1;stroke-dasharray:1,1.33333"/>
<path class="bond-40 atom-37 atom-4" d="M 309.1,237.5 L 304.3,231.2" style="fill:none;fill-rule:evenodd;stroke:#000000;stroke-width:2.0px;stroke-linecap:butt;stroke-linejoin:miter;stroke-opacity:1;stroke-dasharray:1,1.33333"/>
<path class="bond-40 atom-37 atom-4" d="M 304.3,231.2 L 299.5,224.8" style="fill:none;fill-rule:evenodd;stroke:#FF0000;stroke-width:2.0px;stroke-linecap:butt;stroke-linejoin:miter;stroke-opacity:1;stroke-dasharray:1,1.33333"/>
<path class="bond-41 atom-38 atom-3" d="M 304.2,148.3 L 309.1,154.7" style="fill:none;fill-rule:evenodd;stroke:#000000;stroke-width:2.0px;stroke-linecap:butt;stroke-linejoin:miter;stroke-opacity:1;stroke-dasharray:1,1.33333"/>
<path class="bond-41 atom-38 atom-3" d="M 309.1,154.7 L 313.9,161.0" style="fill:none;fill-rule:evenodd;stroke:#FF0000;stroke-width:2.0px;stroke-linecap:butt;stroke-linejoin:miter;stroke-opacity:1;stroke-dasharray:1,1.33333"/>
<path class="bond-42 atom-39 atom-13" d="M 216.3,78.4 L 217.4,87.6" style="fill:none;fill-rule:evenodd;stroke:#000000;stroke-width:2.0px;stroke-linecap:butt;stroke-linejoin:miter;stroke-opacity:1;stroke-dasharray:1,1.33333"/>
<path class="bond-42 atom-39 atom-13" d="M 217.4,87.6 L 218.6,96.8" style="fill:none;fill-rule:evenodd;stroke:#FF0000;stroke-width:2.0px;stroke-linecap:butt;stroke-linejoin:miter;stroke-opacity:1;stroke-dasharray:1,1.33333"/>
<path class="bond-43 atom-40 atom-21" d="M 70.1,158.6 L 78.9,154.4" style="fill:none;fill-rule:evenodd;stroke:#000000;stroke-width:2.0px;stroke-linecap:butt;stroke-linejoin:miter;stroke-opacity:1;stroke-dasharray:1,1.33333"/>
<path class="bond-43 atom-40 atom-21" d="M 78.9,154.4 L 87.8,150.2" style="fill:none;fill-rule:evenodd;stroke:#FF0000;stroke-width:2.0px;stroke-linecap:butt;stroke-linejoin:miter;stroke-opacity:1;stroke-dasharray:1,1.33333"/>
<path class="bond-44 atom-41 atom-18" d="M 176.1,160.6 L 169.9,122.9" style="fill:none;fill-rule:evenodd;stroke:#000000;stroke-width:2.0px;stroke-linecap:butt;stroke-linejoin:miter;stroke-opacity:1;stroke-dasharray:2,2"/>
<path class="bond-44 atom-41 atom-18" d="M 169.9,122.9 L 163.7,85.2" style="fill:none;fill-rule:evenodd;stroke:#0000FF;stroke-width:2.0px;stroke-linecap:butt;stroke-linejoin:miter;stroke-opacity:1;stroke-dasharray:2,2"/>
<path class="bond-45 atom-41 atom-11" d="M 183.6,160.5 L 189.7,155.9" style="fill:none;fill-rule:evenodd;stroke:#000000;stroke-width:2.0px;stroke-linecap:butt;stroke-linejoin:miter;stroke-opacity:1;stroke-dasharray:1,1.33333"/>
<path class="bond-45 atom-41 atom-11" d="M 189.7,155.9 L 195.8,151.3" style="fill:none;fill-rule:evenodd;stroke:#0000FF;stroke-width:2.0px;stroke-linecap:butt;stroke-linejoin:miter;stroke-opacity:1;stroke-dasharray:1,1.33333"/>
<path d="M 334.5,203.2 L 333.3,204.0 L 332.7,203.8" style="fill:none;stroke:#000000;stroke-width:2.0px;stroke-linecap:butt;stroke-linejoin:miter;stroke-miterlimit:10;stroke-opacity:1;"/>
<path d="M 257.4,198.8 L 256.9,199.2 L 255.6,198.6" style="fill:none;stroke:#000000;stroke-width:2.0px;stroke-linecap:butt;stroke-linejoin:miter;stroke-miterlimit:10;stroke-opacity:1;"/>
<path d="M 231.6,188.6 L 230.2,188.0 L 230.1,186.6" style="fill:none;stroke:#000000;stroke-width:2.0px;stroke-linecap:butt;stroke-linejoin:miter;stroke-miterlimit:10;stroke-opacity:1;"/>
<path d="M 248.5,142.7 L 249.6,141.8 L 250.9,142.4" style="fill:none;stroke:#000000;stroke-width:2.0px;stroke-linecap:butt;stroke-linejoin:miter;stroke-miterlimit:10;stroke-opacity:1;"/>
<path d="M 275.0,152.4 L 276.3,153.0 L 276.4,153.6" style="fill:none;stroke:#000000;stroke-width:2.0px;stroke-linecap:butt;stroke-linejoin:miter;stroke-miterlimit:10;stroke-opacity:1;"/>
<path d="M 124.0,105.4 L 122.9,104.4 L 123.1,103.9" style="fill:none;stroke:#000000;stroke-width:2.0px;stroke-linecap:butt;stroke-linejoin:miter;stroke-miterlimit:10;stroke-opacity:1;"/>
<path d="M 85.5,233.0 L 85.4,234.5 L 86.5,235.3" style="fill:none;stroke:#000000;stroke-width:2.0px;stroke-linecap:butt;stroke-linejoin:miter;stroke-miterlimit:10;stroke-opacity:1;"/>
<path d="M 107.9,250.1 L 109.1,251.0 L 110.4,250.3" style="fill:none;stroke:#000000;stroke-width:2.0px;stroke-linecap:butt;stroke-linejoin:miter;stroke-miterlimit:10;stroke-opacity:1;"/>
<path d="M 156.8,282.5 L 156.7,283.9 L 157.9,284.8" style="fill:none;stroke:#000000;stroke-width:2.0px;stroke-linecap:butt;stroke-linejoin:miter;stroke-miterlimit:10;stroke-opacity:1;"/>
<path d="M 179.3,299.6 L 180.5,300.4 L 181.0,300.2" style="fill:none;stroke:#000000;stroke-width:2.0px;stroke-linecap:butt;stroke-linejoin:miter;stroke-miterlimit:10;stroke-opacity:1;"/>
<path d="M 209.0,259.8 L 209.0,259.2 L 207.8,258.4" style="fill:none;stroke:#000000;stroke-width:2.0px;stroke-linecap:butt;stroke-linejoin:miter;stroke-miterlimit:10;stroke-opacity:1;"/>
<path d="M 186.4,243.6 L 185.2,242.7 L 183.9,243.4" style="fill:none;stroke:#000000;stroke-width:2.0px;stroke-linecap:butt;stroke-linejoin:miter;stroke-miterlimit:10;stroke-opacity:1;"/>
<path class="atom-2" d="M 304.3 195.7 Q 304.4 195.7, 304.8 195.9 Q 305.2 196.0, 305.6 196.1 Q 306.0 196.2, 306.4 196.2 Q 307.2 196.2, 307.7 195.9 Q 308.1 195.5, 308.1 194.8 Q 308.1 194.4, 307.9 194.1 Q 307.7 193.8, 307.3 193.7 Q 307.0 193.5, 306.4 193.3 Q 305.7 193.1, 305.2 192.9 Q 304.8 192.7, 304.5 192.3 Q 304.2 191.8, 304.2 191.1 Q 304.2 190.0, 304.9 189.4 Q 305.6 188.8, 307.0 188.8 Q 307.9 188.8, 309.0 189.2 L 308.7 190.1 Q 307.7 189.7, 307.0 189.7 Q 306.2 189.7, 305.8 190.0 Q 305.3 190.4, 305.3 190.9 Q 305.3 191.4, 305.6 191.6 Q 305.8 191.9, 306.1 192.1 Q 306.5 192.2, 307.0 192.4 Q 307.7 192.6, 308.2 192.8 Q 308.6 193.1, 308.9 193.6 Q 309.3 194.0, 309.3 194.8 Q 309.3 195.9, 308.5 196.6 Q 307.7 197.2, 306.5 197.2 Q 305.8 197.2, 305.2 197.0 Q 304.7 196.8, 304.0 196.6 L 304.3 195.7 " fill="#CCCC00"/>
<path class="atom-3" d="M 314.1 166.2 Q 314.1 164.2, 315.0 163.1 Q 316.0 162.0, 317.8 162.0 Q 319.6 162.0, 320.6 163.1 Q 321.6 164.2, 321.6 166.2 Q 321.6 168.2, 320.6 169.3 Q 319.6 170.4, 317.8 170.4 Q 316.0 170.4, 315.0 169.3 Q 314.1 168.2, 314.1 166.2 M 317.8 169.5 Q 319.1 169.5, 319.7 168.7 Q 320.4 167.8, 320.4 166.2 Q 320.4 164.6, 319.7 163.8 Q 319.1 163.0, 317.8 163.0 Q 316.6 163.0, 315.9 163.8 Q 315.2 164.6, 315.2 166.2 Q 315.2 167.9, 315.9 168.7 Q 316.6 169.5, 317.8 169.5 " fill="#FF0000"/>
<path class="atom-4" d="M 291.7 219.6 Q 291.7 217.6, 292.7 216.5 Q 293.6 215.4, 295.5 215.4 Q 297.3 215.4, 298.2 216.5 Q 299.2 217.6, 299.2 219.6 Q 299.2 221.6, 298.2 222.7 Q 297.3 223.8, 295.5 223.8 Q 293.7 223.8, 292.7 222.7 Q 291.7 221.6, 291.7 219.6 M 295.5 222.9 Q 296.7 222.9, 297.4 222.1 Q 298.1 221.2, 298.1 219.6 Q 298.1 218.0, 297.4 217.1 Q 296.7 216.3, 295.5 216.3 Q 294.2 216.3, 293.5 217.1 Q 292.9 217.9, 292.9 219.6 Q 292.9 221.2, 293.5 222.1 Q 294.2 222.9, 295.5 222.9 " fill="#FF0000"/>
<path class="atom-5" d="M 278.1 177.6 L 280.8 181.9 Q 281.1 182.4, 281.5 183.1 Q 281.9 183.9, 282.0 183.9 L 282.0 177.6 L 283.1 177.6 L 283.1 185.8 L 281.9 185.8 L 279.1 181.0 Q 278.7 180.5, 278.4 179.8 Q 278.0 179.2, 277.9 179.0 L 277.9 185.8 L 276.8 185.8 L 276.8 177.6 L 278.1 177.6 " fill="#0000FF"/>
<path class="atom-11" d="M 198.1 144.1 L 200.8 148.4 Q 201.0 148.8, 201.5 149.6 Q 201.9 150.4, 201.9 150.4 L 201.9 144.1 L 203.0 144.1 L 203.0 152.2 L 201.9 152.2 L 199.0 147.5 Q 198.7 146.9, 198.3 146.3 Q 198.0 145.7, 197.9 145.5 L 197.9 152.2 L 196.8 152.2 L 196.8 144.1 L 198.1 144.1 " fill="#0000FF"/>
<path class="atom-11" d="M 196.7 135.0 L 197.8 135.0 L 197.8 138.5 L 202.0 138.5 L 202.0 135.0 L 203.1 135.0 L 203.1 143.2 L 202.0 143.2 L 202.0 139.4 L 197.8 139.4 L 197.8 143.2 L 196.7 143.2 L 196.7 135.0 " fill="#0000FF"/>
<path class="atom-13" d="M 215.5 102.0 Q 215.5 100.0, 216.5 98.9 Q 217.4 97.8, 219.3 97.8 Q 221.1 97.8, 222.1 98.9 Q 223.0 100.0, 223.0 102.0 Q 223.0 103.9, 222.0 105.1 Q 221.1 106.2, 219.3 106.2 Q 217.5 106.2, 216.5 105.1 Q 215.5 104.0, 215.5 102.0 M 219.3 105.3 Q 220.5 105.3, 221.2 104.4 Q 221.9 103.6, 221.9 102.0 Q 221.9 100.3, 221.2 99.5 Q 220.5 98.7, 219.3 98.7 Q 218.0 98.7, 217.3 99.5 Q 216.7 100.3, 216.7 102.0 Q 216.7 103.6, 217.3 104.4 Q 218.0 105.3, 219.3 105.3 " fill="#FF0000"/>
<path class="atom-17" d="M 132.3 73.6 L 135.0 78.0 Q 135.2 78.4, 135.7 79.2 Q 136.1 80.0, 136.1 80.0 L 136.1 73.6 L 137.2 73.6 L 137.2 81.8 L 136.1 81.8 L 133.2 77.1 Q 132.9 76.5, 132.5 75.9 Q 132.1 75.3, 132.0 75.1 L 132.0 81.8 L 131.0 81.8 L 131.0 73.6 L 132.3 73.6 " fill="#0000FF"/>
<path class="atom-18" d="M 161.1 76.0 L 163.8 80.4 Q 164.1 80.8, 164.5 81.6 Q 164.9 82.3, 164.9 82.4 L 164.9 76.0 L 166.0 76.0 L 166.0 84.2 L 164.9 84.2 L 162.0 79.5 Q 161.7 78.9, 161.3 78.3 Q 161.0 77.6, 160.9 77.4 L 160.9 84.2 L 159.8 84.2 L 159.8 76.0 L 161.1 76.0 " fill="#0000FF"/>
<path class="atom-18" d="M 159.7 67.0 L 160.8 67.0 L 160.8 70.5 L 165.0 70.5 L 165.0 67.0 L 166.1 67.0 L 166.1 75.2 L 165.0 75.2 L 165.0 71.4 L 160.8 71.4 L 160.8 75.2 L 159.7 75.2 L 159.7 67.0 " fill="#0000FF"/>
<path class="atom-19" d="M 140.6 148.0 L 143.3 152.4 Q 143.6 152.8, 144.0 153.6 Q 144.4 154.3, 144.5 154.4 L 144.5 148.0 L 145.6 148.0 L 145.6 156.2 L 144.4 156.2 L 141.6 151.5 Q 141.2 150.9, 140.9 150.3 Q 140.5 149.6, 140.4 149.4 L 140.4 156.2 L 139.3 156.2 L 139.3 148.0 L 140.6 148.0 " fill="#0000FF"/>
<path class="atom-19" d="M 147.1 148.0 L 148.3 148.0 L 148.3 151.5 L 152.4 151.5 L 152.4 148.0 L 153.6 148.0 L 153.6 156.2 L 152.4 156.2 L 152.4 152.4 L 148.3 152.4 L 148.3 156.2 L 147.1 156.2 L 147.1 148.0 " fill="#0000FF"/>
<path class="atom-21" d="M 88.7 148.0 Q 88.7 146.0, 89.7 144.9 Q 90.7 143.8, 92.5 143.8 Q 94.3 143.8, 95.3 144.9 Q 96.3 146.0, 96.3 148.0 Q 96.3 150.0, 95.3 151.1 Q 94.3 152.3, 92.5 152.3 Q 90.7 152.3, 89.7 151.1 Q 88.7 150.0, 88.7 148.0 M 92.5 151.3 Q 93.8 151.3, 94.4 150.5 Q 95.1 149.7, 95.1 148.0 Q 95.1 146.4, 94.4 145.6 Q 93.8 144.8, 92.5 144.8 Q 91.3 144.8, 90.6 145.6 Q 89.9 146.4, 89.9 148.0 Q 89.9 149.7, 90.6 150.5 Q 91.3 151.3, 92.5 151.3 " fill="#FF0000"/>
<path class="atom-28" d="M 161.4 193.3 L 166.3 193.3 L 166.3 194.3 L 162.5 194.3 L 162.5 196.8 L 165.9 196.8 L 165.9 197.7 L 162.5 197.7 L 162.5 201.5 L 161.4 201.5 L 161.4 193.3 " fill="#33CCCC"/>
<path class="atom-32" d="M 202.9 288.1 Q 202.9 286.1, 203.8 285.0 Q 204.8 283.9, 206.6 283.9 Q 208.4 283.9, 209.4 285.0 Q 210.4 286.1, 210.4 288.1 Q 210.4 290.1, 209.4 291.2 Q 208.4 292.3, 206.6 292.3 Q 204.8 292.3, 203.8 291.2 Q 202.9 290.1, 202.9 288.1 M 206.6 291.4 Q 207.9 291.4, 208.5 290.6 Q 209.2 289.7, 209.2 288.1 Q 209.2 286.5, 208.5 285.7 Q 207.9 284.8, 206.6 284.8 Q 205.4 284.8, 204.7 285.7 Q 204.0 286.5, 204.0 288.1 Q 204.0 289.7, 204.7 290.6 Q 205.4 291.4, 206.6 291.4 " fill="#FF0000"/>
<path class="atom-35" d="M 61.5 185.1 L 66.4 185.1 L 66.4 186.0 L 62.6 186.0 L 62.6 188.5 L 66.0 188.5 L 66.0 189.5 L 62.6 189.5 L 62.6 193.3 L 61.5 193.3 L 61.5 185.1 " fill="#33CCCC"/>
<path class="atom-36" d="M 344.1 158.5 L 345.2 158.5 L 345.2 165.7 L 348.9 165.7 L 348.9 166.7 L 344.1 166.7 L 344.1 158.5 " fill="#000000"/>
<path class="atom-36" d="M 352.4 163.2 L 349.7 158.5 L 350.9 158.5 L 353.0 162.1 L 355.0 158.5 L 356.3 158.5 L 353.5 163.2 L 353.5 166.7 L 352.4 166.7 L 352.4 163.2 " fill="#000000"/>
<path class="atom-36" d="M 357.1 165.4 Q 357.1 165.4, 357.5 165.6 Q 357.9 165.7, 358.3 165.8 Q 358.8 165.9, 359.2 165.9 Q 359.9 165.9, 360.4 165.6 Q 360.9 165.2, 360.9 164.5 Q 360.9 164.1, 360.6 163.8 Q 360.4 163.5, 360.1 163.4 Q 359.7 163.2, 359.1 163.0 Q 358.4 162.8, 358.0 162.6 Q 357.5 162.4, 357.2 162.0 Q 356.9 161.5, 356.9 160.8 Q 356.9 159.8, 357.6 159.1 Q 358.3 158.5, 359.7 158.5 Q 360.7 158.5, 361.7 158.9 L 361.5 159.8 Q 360.5 159.4, 359.7 159.4 Q 358.9 159.4, 358.5 159.8 Q 358.1 160.1, 358.1 160.6 Q 358.1 161.1, 358.3 161.4 Q 358.5 161.6, 358.8 161.8 Q 359.2 161.9, 359.7 162.1 Q 360.5 162.3, 360.9 162.6 Q 361.4 162.8, 361.7 163.3 Q 362.0 163.7, 362.0 164.5 Q 362.0 165.7, 361.2 166.3 Q 360.5 166.9, 359.2 166.9 Q 358.5 166.9, 357.9 166.7 Q 357.4 166.6, 356.7 166.3 L 357.1 165.4 " fill="#000000"/>
<path class="atom-36" d="" fill="#000000"/>
<path class="atom-36" d="M 371.5 162.3 Q 372.3 162.6, 372.7 163.1 Q 373.1 163.6, 373.1 164.4 Q 373.1 165.1, 372.8 165.6 Q 372.4 166.2, 371.8 166.5 Q 371.1 166.8, 370.3 166.8 Q 368.9 166.8, 368.1 166.1 Q 367.3 165.5, 367.3 164.4 Q 367.3 163.7, 367.7 163.2 Q 368.0 162.7, 368.7 162.3 Q 368.2 162.0, 367.9 161.6 Q 367.6 161.2, 367.6 160.5 Q 367.6 159.5, 368.3 158.9 Q 369.0 158.4, 370.2 158.4 Q 371.4 158.4, 372.1 158.9 Q 372.8 159.5, 372.8 160.5 Q 372.8 161.1, 372.5 161.5 Q 372.2 162.0, 371.5 162.3 M 370.2 159.2 Q 369.5 159.2, 369.2 159.6 Q 368.8 159.9, 368.8 160.5 Q 368.8 160.9, 369.0 161.2 Q 369.3 161.5, 369.7 161.6 Q 370.0 161.8, 370.7 162.0 Q 371.2 161.7, 371.4 161.3 Q 371.7 160.9, 371.7 160.5 Q 371.7 159.9, 371.3 159.6 Q 370.9 159.2, 370.2 159.2 M 370.3 165.9 Q 371.0 165.9, 371.5 165.5 Q 372.0 165.1, 372.0 164.4 Q 372.0 164.0, 371.7 163.7 Q 371.5 163.4, 371.1 163.2 Q 370.7 163.1, 370.1 162.9 L 369.6 162.7 Q 369.0 163.0, 368.7 163.5 Q 368.5 163.9, 368.5 164.4 Q 368.5 165.1, 369.0 165.5 Q 369.5 165.9, 370.3 165.9 " fill="#000000"/>
<path class="atom-36" d="M 377.1 158.4 Q 378.5 158.4, 379.3 159.4 Q 380.0 160.3, 380.0 162.3 Q 380.0 164.5, 379.1 165.6 Q 378.2 166.7, 376.4 166.7 Q 375.9 166.7, 375.5 166.6 Q 375.1 166.5, 374.6 166.3 L 375.1 165.5 Q 375.7 165.8, 376.4 165.8 Q 377.6 165.8, 378.2 165.1 Q 378.8 164.3, 378.8 162.8 Q 378.4 163.2, 377.9 163.4 Q 377.4 163.6, 376.8 163.6 Q 376.1 163.6, 375.5 163.3 Q 374.9 163.0, 374.6 162.4 Q 374.3 161.8, 374.3 161.1 Q 374.3 160.3, 374.7 159.7 Q 375.0 159.1, 375.6 158.7 Q 376.3 158.4, 377.1 158.4 M 375.5 161.1 Q 375.5 161.8, 375.9 162.2 Q 376.3 162.7, 377.0 162.7 Q 377.5 162.7, 378.0 162.5 Q 378.5 162.2, 378.8 161.9 Q 378.8 160.5, 378.4 159.9 Q 377.9 159.3, 377.1 159.3 Q 376.6 159.3, 376.3 159.5 Q 375.9 159.8, 375.7 160.2 Q 375.5 160.6, 375.5 161.1 " fill="#000000"/>
<path class="atom-37" d="M 315.5 246.7 L 314.6 244.3 L 311.4 244.3 L 310.5 246.7 L 309.4 246.7 L 312.2 238.5 L 313.6 238.5 L 316.5 246.7 L 315.5 246.7 M 311.7 243.4 L 314.3 243.4 L 312.9 239.7 L 311.7 243.4 " fill="#000000"/>
<path class="atom-37" d="M 317.5 245.4 Q 317.6 245.5, 317.9 245.6 Q 318.3 245.8, 318.7 245.9 Q 319.2 246.0, 319.6 246.0 Q 320.4 246.0, 320.8 245.6 Q 321.3 245.2, 321.3 244.6 Q 321.3 244.1, 321.0 243.8 Q 320.8 243.6, 320.5 243.4 Q 320.1 243.3, 319.5 243.1 Q 318.8 242.9, 318.4 242.7 Q 317.9 242.5, 317.6 242.0 Q 317.3 241.6, 317.3 240.8 Q 317.3 239.8, 318.0 239.2 Q 318.7 238.5, 320.1 238.5 Q 321.1 238.5, 322.1 239.0 L 321.9 239.9 Q 320.9 239.5, 320.2 239.5 Q 319.4 239.5, 318.9 239.8 Q 318.5 240.1, 318.5 240.7 Q 318.5 241.1, 318.7 241.4 Q 318.9 241.7, 319.3 241.8 Q 319.6 242.0, 320.2 242.1 Q 320.9 242.4, 321.3 242.6 Q 321.8 242.8, 322.1 243.3 Q 322.4 243.8, 322.4 244.6 Q 322.4 245.7, 321.6 246.3 Q 320.9 246.9, 319.6 246.9 Q 318.9 246.9, 318.4 246.8 Q 317.8 246.6, 317.2 246.3 L 317.5 245.4 " fill="#000000"/>
<path class="atom-37" d="M 325.9 238.5 Q 327.3 238.5, 328.0 239.1 Q 328.7 239.8, 328.7 240.9 Q 328.7 242.1, 327.9 242.7 Q 327.2 243.3, 325.9 243.3 L 324.6 243.3 L 324.6 246.7 L 323.4 246.7 L 323.4 238.5 L 325.9 238.5 M 325.9 242.4 Q 326.7 242.4, 327.1 242.0 Q 327.5 241.6, 327.5 240.9 Q 327.5 240.2, 327.1 239.8 Q 326.7 239.4, 325.9 239.4 L 324.6 239.4 L 324.6 242.4 L 325.9 242.4 " fill="#000000"/>
<path class="atom-37" d="" fill="#000000"/>
<path class="atom-37" d="M 338.2 242.4 Q 339.0 242.7, 339.4 243.2 Q 339.8 243.6, 339.8 244.5 Q 339.8 245.2, 339.5 245.7 Q 339.1 246.2, 338.5 246.5 Q 337.8 246.8, 337.0 246.8 Q 335.6 246.8, 334.8 246.2 Q 334.0 245.6, 334.0 244.5 Q 334.0 243.8, 334.4 243.3 Q 334.7 242.8, 335.5 242.4 Q 334.9 242.1, 334.6 241.7 Q 334.3 241.2, 334.3 240.5 Q 334.3 239.6, 335.0 239.0 Q 335.7 238.4, 336.9 238.4 Q 338.1 238.4, 338.8 239.0 Q 339.5 239.6, 339.5 240.5 Q 339.5 241.1, 339.2 241.6 Q 338.9 242.0, 338.2 242.4 M 336.9 239.3 Q 336.3 239.3, 335.9 239.6 Q 335.5 239.9, 335.5 240.5 Q 335.5 240.9, 335.8 241.2 Q 336.0 241.5, 336.4 241.7 Q 336.7 241.8, 337.4 242.1 Q 337.9 241.7, 338.2 241.4 Q 338.4 241.0, 338.4 240.5 Q 338.4 239.9, 338.0 239.6 Q 337.6 239.3, 336.9 239.3 M 337.0 246.0 Q 337.7 246.0, 338.2 245.5 Q 338.7 245.1, 338.7 244.4 Q 338.7 244.0, 338.4 243.7 Q 338.2 243.5, 337.8 243.3 Q 337.5 243.1, 336.8 242.9 L 336.3 242.7 Q 335.7 243.1, 335.5 243.5 Q 335.2 243.9, 335.2 244.4 Q 335.2 245.1, 335.7 245.5 Q 336.2 246.0, 337.0 246.0 " fill="#000000"/>
<path class="atom-37" d="M 344.2 241.6 Q 345.0 241.6, 345.5 241.9 Q 346.1 242.2, 346.4 242.8 Q 346.7 243.3, 346.7 244.1 Q 346.7 244.9, 346.4 245.5 Q 346.0 246.1, 345.4 246.4 Q 344.8 246.8, 344.0 246.8 Q 342.5 246.8, 341.8 245.8 Q 341.0 244.8, 341.0 242.9 Q 341.0 240.7, 341.9 239.6 Q 342.9 238.4, 344.6 238.4 Q 345.1 238.4, 345.5 238.5 Q 346.0 238.6, 346.4 238.9 L 345.9 239.7 Q 345.3 239.3, 344.6 239.3 Q 343.5 239.3, 342.9 240.1 Q 342.3 240.8, 342.2 242.4 Q 342.6 242.0, 343.1 241.8 Q 343.7 241.6, 344.2 241.6 M 344.0 245.8 Q 344.4 245.8, 344.8 245.6 Q 345.1 245.4, 345.4 245.0 Q 345.6 244.6, 345.6 244.1 Q 345.6 243.3, 345.2 242.9 Q 344.8 242.5, 344.0 242.5 Q 343.5 242.5, 343.0 242.7 Q 342.6 242.9, 342.2 243.3 Q 342.3 244.6, 342.7 245.2 Q 343.1 245.8, 344.0 245.8 " fill="#000000"/>
<path class="atom-38" d="M 253.3 139.1 L 254.4 139.1 L 254.4 142.6 L 258.6 142.6 L 258.6 139.1 L 259.7 139.1 L 259.7 147.3 L 258.6 147.3 L 258.6 143.5 L 254.4 143.5 L 254.4 147.3 L 253.3 147.3 L 253.3 139.1 " fill="#000000"/>
<path class="atom-38" d="M 261.2 143.2 Q 261.2 141.2, 262.2 140.1 Q 263.2 139.0, 265.0 139.0 Q 266.8 139.0, 267.8 140.1 Q 268.8 141.2, 268.8 143.2 Q 268.8 145.2, 267.8 146.3 Q 266.8 147.4, 265.0 147.4 Q 263.2 147.4, 262.2 146.3 Q 261.2 145.2, 261.2 143.2 M 265.0 146.5 Q 266.2 146.5, 266.9 145.7 Q 267.6 144.8, 267.6 143.2 Q 267.6 141.6, 266.9 140.8 Q 266.2 139.9, 265.0 139.9 Q 263.7 139.9, 263.1 140.7 Q 262.4 141.6, 262.4 143.2 Q 262.4 144.8, 263.1 145.7 Q 263.7 146.5, 265.0 146.5 " fill="#000000"/>
<path class="atom-38" d="M 269.9 139.1 L 271.0 139.1 L 271.0 142.6 L 275.2 142.6 L 275.2 139.1 L 276.3 139.1 L 276.3 147.3 L 275.2 147.3 L 275.2 143.5 L 271.0 143.5 L 271.0 147.3 L 269.9 147.3 L 269.9 139.1 " fill="#000000"/>
<path class="atom-38" d="" fill="#000000"/>
<path class="atom-38" d="M 287.6 144.5 L 288.6 144.5 L 288.6 145.4 L 287.6 145.4 L 287.6 147.3 L 286.5 147.3 L 286.5 145.4 L 282.3 145.4 L 282.3 144.7 L 285.9 139.1 L 287.6 139.1 L 287.6 144.5 M 283.6 144.5 L 286.5 144.5 L 286.5 139.8 L 283.6 144.5 " fill="#000000"/>
<path class="atom-38" d="M 295.0 144.5 L 296.0 144.5 L 296.0 145.4 L 295.0 145.4 L 295.0 147.3 L 293.9 147.3 L 293.9 145.4 L 289.7 145.4 L 289.7 144.7 L 293.3 139.1 L 295.0 139.1 L 295.0 144.5 M 291.0 144.5 L 293.9 144.5 L 293.9 139.8 L 291.0 144.5 " fill="#000000"/>
<path class="atom-38" d="M 302.5 144.5 L 303.4 144.5 L 303.4 145.4 L 302.5 145.4 L 302.5 147.3 L 301.4 147.3 L 301.4 145.4 L 297.1 145.4 L 297.1 144.7 L 300.7 139.1 L 302.5 139.1 L 302.5 144.5 M 298.5 144.5 L 301.4 144.5 L 301.4 139.8 L 298.5 144.5 " fill="#000000"/>
<path class="atom-39" d="M 212.4 69.2 L 213.5 69.2 L 213.5 72.7 L 217.7 72.7 L 217.7 69.2 L 218.8 69.2 L 218.8 77.4 L 217.7 77.4 L 217.7 73.6 L 213.5 73.6 L 213.5 77.4 L 212.4 77.4 L 212.4 69.2 " fill="#000000"/>
<path class="atom-39" d="M 220.3 73.3 Q 220.3 71.3, 221.3 70.2 Q 222.3 69.1, 224.1 69.1 Q 225.9 69.1, 226.9 70.2 Q 227.9 71.3, 227.9 73.3 Q 227.9 75.2, 226.9 76.4 Q 225.9 77.5, 224.1 77.5 Q 222.3 77.5, 221.3 76.4 Q 220.3 75.3, 220.3 73.3 M 224.1 76.6 Q 225.3 76.6, 226.0 75.7 Q 226.7 74.9, 226.7 73.3 Q 226.7 71.6, 226.0 70.8 Q 225.3 70.0, 224.1 70.0 Q 222.8 70.0, 222.2 70.8 Q 221.5 71.6, 221.5 73.3 Q 221.5 74.9, 222.2 75.7 Q 222.8 76.6, 224.1 76.6 " fill="#000000"/>
<path class="atom-39" d="M 229.0 69.2 L 230.1 69.2 L 230.1 72.7 L 234.3 72.7 L 234.3 69.2 L 235.4 69.2 L 235.4 77.4 L 234.3 77.4 L 234.3 73.6 L 230.1 73.6 L 230.1 77.4 L 229.0 77.4 L 229.0 69.2 " fill="#000000"/>
<path class="atom-39" d="" fill="#000000"/>
<path class="atom-39" d="M 246.6 74.6 L 247.6 74.6 L 247.6 75.5 L 246.6 75.5 L 246.6 77.4 L 245.5 77.4 L 245.5 75.5 L 241.3 75.5 L 241.3 74.8 L 244.9 69.2 L 246.6 69.2 L 246.6 74.6 M 242.6 74.6 L 245.5 74.6 L 245.5 69.9 L 242.6 74.6 " fill="#000000"/>
<path class="atom-39" d="M 254.0 74.6 L 255.0 74.6 L 255.0 75.5 L 254.0 75.5 L 254.0 77.4 L 253.0 77.4 L 253.0 75.5 L 248.7 75.5 L 248.7 74.8 L 252.3 69.2 L 254.0 69.2 L 254.0 74.6 M 250.1 74.6 L 253.0 74.6 L 253.0 69.9 L 250.1 74.6 " fill="#000000"/>
<path class="atom-39" d="M 256.6 76.5 L 258.4 76.5 L 258.4 70.3 L 256.4 70.9 L 256.1 70.3 L 258.6 69.1 L 259.5 69.3 L 259.5 76.5 L 261.1 76.5 L 261.1 77.4 L 256.6 77.4 L 256.6 76.5 " fill="#000000"/>
<path class="atom-40" d="M 20.0 156.3 L 21.1 156.3 L 21.1 159.8 L 25.3 159.8 L 25.3 156.3 L 26.4 156.3 L 26.4 164.5 L 25.3 164.5 L 25.3 160.7 L 21.1 160.7 L 21.1 164.5 L 20.0 164.5 L 20.0 156.3 " fill="#000000"/>
<path class="atom-40" d="M 27.9 160.4 Q 27.9 158.4, 28.9 157.3 Q 29.9 156.2, 31.7 156.2 Q 33.5 156.2, 34.5 157.3 Q 35.5 158.4, 35.5 160.4 Q 35.5 162.4, 34.5 163.5 Q 33.5 164.6, 31.7 164.6 Q 29.9 164.6, 28.9 163.5 Q 27.9 162.4, 27.9 160.4 M 31.7 163.7 Q 32.9 163.7, 33.6 162.9 Q 34.3 162.0, 34.3 160.4 Q 34.3 158.8, 33.6 157.9 Q 32.9 157.1, 31.7 157.1 Q 30.4 157.1, 29.8 157.9 Q 29.1 158.7, 29.1 160.4 Q 29.1 162.0, 29.8 162.9 Q 30.4 163.7, 31.7 163.7 " fill="#000000"/>
<path class="atom-40" d="M 36.6 156.3 L 37.7 156.3 L 37.7 159.8 L 41.9 159.8 L 41.9 156.3 L 43.0 156.3 L 43.0 164.5 L 41.9 164.5 L 41.9 160.7 L 37.7 160.7 L 37.7 164.5 L 36.6 164.5 L 36.6 156.3 " fill="#000000"/>
<path class="atom-40" d="" fill="#000000"/>
<path class="atom-40" d="M 54.2 161.7 L 55.2 161.7 L 55.2 162.6 L 54.2 162.6 L 54.2 164.5 L 53.2 164.5 L 53.2 162.6 L 48.9 162.6 L 48.9 161.9 L 52.5 156.3 L 54.2 156.3 L 54.2 161.7 M 50.3 161.7 L 53.2 161.7 L 53.2 157.0 L 50.3 161.7 " fill="#000000"/>
<path class="atom-40" d="M 59.3 164.6 Q 57.8 164.6, 57.1 163.5 Q 56.3 162.4, 56.3 160.4 Q 56.3 158.4, 57.1 157.3 Q 57.8 156.2, 59.3 156.2 Q 60.9 156.2, 61.6 157.3 Q 62.3 158.4, 62.3 160.4 Q 62.3 162.4, 61.6 163.5 Q 60.8 164.6, 59.3 164.6 M 59.3 163.7 Q 60.2 163.7, 60.7 162.8 Q 61.2 162.0, 61.2 160.4 Q 61.2 158.8, 60.7 157.9 Q 60.2 157.1, 59.3 157.1 Q 58.5 157.1, 58.0 157.9 Q 57.5 158.8, 57.5 160.4 Q 57.5 162.0, 58.0 162.8 Q 58.5 163.7, 59.3 163.7 " fill="#000000"/>
<path class="atom-40" d="M 67.9 157.2 L 63.6 157.2 L 63.6 156.3 L 69.1 156.3 L 69.1 157.1 L 65.8 164.5 L 64.6 164.5 L 67.9 157.2 " fill="#000000"/>
<path class="atom-41" d="M 158.8 161.6 L 159.9 161.6 L 159.9 168.9 L 163.6 168.9 L 163.6 169.8 L 158.8 169.8 L 158.8 161.6 " fill="#000000"/>
<path class="atom-41" d="M 164.4 161.6 L 169.3 161.6 L 169.3 162.6 L 165.5 162.6 L 165.5 165.0 L 168.9 165.0 L 168.9 166.0 L 165.5 166.0 L 165.5 168.9 L 169.4 168.9 L 169.4 169.8 L 164.4 169.8 L 164.4 161.6 " fill="#000000"/>
<path class="atom-41" d="M 171.5 161.6 L 171.5 167.1 Q 171.5 168.1, 172.1 168.5 Q 172.6 168.9, 173.6 168.9 Q 174.7 168.9, 175.2 168.5 Q 175.7 168.1, 175.7 167.2 L 175.7 161.6 L 176.8 161.6 L 176.8 167.2 Q 176.8 168.5, 176.0 169.2 Q 175.2 169.9, 173.6 169.9 Q 172.0 169.9, 171.2 169.2 Q 170.4 168.5, 170.4 167.2 L 170.4 161.6 L 171.5 161.6 " fill="#000000"/>
<path class="atom-41" d="" fill="#000000"/>
<path class="atom-41" d="M 186.7 165.5 Q 187.4 165.8, 187.9 166.3 Q 188.3 166.8, 188.3 167.6 Q 188.3 168.3, 187.9 168.8 Q 187.6 169.3, 186.9 169.6 Q 186.3 169.9, 185.4 169.9 Q 184.1 169.9, 183.3 169.3 Q 182.5 168.7, 182.5 167.6 Q 182.5 166.9, 182.9 166.4 Q 183.2 165.9, 183.9 165.5 Q 183.4 165.2, 183.1 164.8 Q 182.8 164.3, 182.8 163.6 Q 182.8 162.7, 183.5 162.1 Q 184.2 161.5, 185.4 161.5 Q 186.6 161.5, 187.3 162.1 Q 188.0 162.7, 188.0 163.6 Q 188.0 164.2, 187.7 164.7 Q 187.3 165.1, 186.7 165.5 M 185.4 162.4 Q 184.7 162.4, 184.3 162.7 Q 184.0 163.0, 184.0 163.6 Q 184.0 164.0, 184.2 164.3 Q 184.5 164.6, 184.8 164.8 Q 185.2 164.9, 185.9 165.2 Q 186.4 164.8, 186.6 164.5 Q 186.8 164.1, 186.8 163.6 Q 186.8 163.0, 186.5 162.7 Q 186.1 162.4, 185.4 162.4 M 185.4 169.1 Q 186.2 169.1, 186.7 168.7 Q 187.1 168.2, 187.1 167.6 Q 187.1 167.1, 186.9 166.8 Q 186.7 166.6, 186.3 166.4 Q 185.9 166.2, 185.3 166.0 L 184.8 165.9 Q 184.2 166.2, 183.9 166.6 Q 183.7 167.0, 183.7 167.6 Q 183.7 168.2, 184.2 168.7 Q 184.6 169.1, 185.4 169.1 " fill="#000000"/>
<path class="atom-41" d="M 193.4 165.5 Q 194.2 165.7, 194.6 166.2 Q 195.0 166.8, 195.0 167.6 Q 195.0 168.3, 194.6 168.8 Q 194.3 169.3, 193.7 169.6 Q 193.0 169.9, 192.2 169.9 Q 191.3 169.9, 190.7 169.6 Q 190.0 169.3, 189.5 168.7 L 190.1 168.0 Q 190.7 168.6, 191.1 168.8 Q 191.5 169.0, 192.2 169.0 Q 192.9 169.0, 193.4 168.6 Q 193.8 168.2, 193.8 167.6 Q 193.8 166.7, 193.4 166.4 Q 192.9 166.0, 191.9 166.0 L 191.3 166.0 L 191.3 165.1 L 191.8 165.1 Q 192.7 165.1, 193.2 164.7 Q 193.7 164.3, 193.7 163.6 Q 193.7 163.1, 193.3 162.8 Q 192.9 162.5, 192.2 162.5 Q 191.5 162.5, 191.1 162.7 Q 190.7 162.9, 190.3 163.6 L 189.6 163.1 Q 189.8 162.4, 190.5 162.0 Q 191.2 161.5, 192.2 161.5 Q 193.4 161.5, 194.1 162.1 Q 194.8 162.7, 194.8 163.6 Q 194.8 164.3, 194.5 164.8 Q 194.1 165.2, 193.4 165.5 " fill="#000000"/>
<path class="legend" d="M 142.8 376.1 L 141.6 372.7 L 137.1 372.7 L 136.0 376.1 L 134.5 376.1 L 138.4 364.7 L 140.3 364.7 L 144.3 376.1 L 142.8 376.1 M 137.6 371.5 L 141.2 371.5 L 139.3 366.3 L 137.6 371.5 " fill="#000000"/>
<path class="legend" d="M 145.8 374.8 L 148.3 374.8 L 148.3 366.3 L 145.5 367.2 L 145.2 366.2 L 148.7 364.7 L 149.8 364.9 L 149.8 374.8 L 152.0 374.8 L 152.0 376.1 L 145.8 376.1 L 145.8 374.8 " fill="#000000"/>
<path class="legend" d="M 157.0 364.7 Q 159.5 364.7, 160.9 366.2 Q 162.2 367.7, 162.2 370.4 Q 162.2 373.1, 160.9 374.6 Q 159.5 376.1, 157.0 376.1 L 153.4 376.1 L 153.4 364.7 L 157.0 364.7 M 157.0 374.8 Q 158.8 374.8, 159.7 373.7 Q 160.6 372.6, 160.6 370.4 Q 160.6 368.2, 159.7 367.1 Q 158.8 366.0, 157.0 366.0 L 154.9 366.0 L 154.9 374.8 L 157.0 374.8 " fill="#000000"/>
<path class="legend" d="M 168.1 369.0 Q 169.1 369.0, 169.8 369.4 Q 170.6 369.9, 171.1 370.6 Q 171.5 371.4, 171.5 372.4 Q 171.5 373.5, 171.0 374.4 Q 170.5 375.2, 169.7 375.7 Q 168.8 376.2, 167.7 376.2 Q 165.7 376.2, 164.6 374.8 Q 163.6 373.5, 163.6 370.7 Q 163.6 367.7, 164.9 366.2 Q 166.2 364.6, 168.6 364.6 Q 169.3 364.6, 169.9 364.8 Q 170.5 364.9, 171.0 365.3 L 170.4 366.3 Q 169.6 365.9, 168.6 365.9 Q 167.0 365.9, 166.2 366.9 Q 165.4 368.0, 165.3 370.1 Q 165.8 369.6, 166.6 369.3 Q 167.3 369.0, 168.1 369.0 M 167.7 374.9 Q 168.3 374.9, 168.8 374.6 Q 169.3 374.2, 169.6 373.7 Q 169.9 373.1, 169.9 372.4 Q 169.9 371.4, 169.3 370.8 Q 168.8 370.3, 167.8 370.3 Q 167.1 370.3, 166.4 370.6 Q 165.7 370.8, 165.3 371.3 Q 165.3 373.2, 165.9 374.0 Q 166.5 374.9, 167.7 374.9 " fill="#000000"/>
<path class="legend" d="M 177.2 376.2 Q 175.1 376.2, 174.1 374.7 Q 173.1 373.1, 173.1 370.4 Q 173.1 367.6, 174.1 366.1 Q 175.1 364.6, 177.2 364.6 Q 179.3 364.6, 180.3 366.1 Q 181.4 367.6, 181.4 370.4 Q 181.4 373.1, 180.3 374.7 Q 179.3 376.2, 177.2 376.2 M 177.2 374.9 Q 178.4 374.9, 179.1 373.8 Q 179.8 372.6, 179.8 370.4 Q 179.8 368.2, 179.1 367.0 Q 178.4 365.9, 177.2 365.9 Q 176.0 365.9, 175.3 367.0 Q 174.7 368.2, 174.7 370.4 Q 174.7 372.6, 175.3 373.8 Q 176.0 374.9, 177.2 374.9 " fill="#000000"/>
<path class="legend" d="" fill="#000000"/>
<path class="legend" d="M 189.1 369.0 L 189.1 367.8 L 190.5 367.8 L 190.5 366.6 Q 190.5 365.2, 191.3 364.6 Q 192.0 363.9, 193.2 363.9 Q 193.7 363.9, 194.2 364.0 Q 194.6 364.1, 195.1 364.3 L 194.7 365.4 Q 193.9 365.1, 193.3 365.1 Q 192.7 365.1, 192.4 365.5 Q 192.0 365.8, 192.0 366.5 L 192.0 367.8 L 194.6 367.8 L 194.6 369.0 L 192.0 369.0 L 192.0 378.6 L 190.5 378.6 L 190.5 369.0 L 189.1 369.0 " fill="#000000"/>
<path class="legend" d="M 196.6 367.8 L 196.8 369.0 Q 197.7 367.7, 199.1 367.7 Q 199.5 367.7, 200.1 367.9 L 199.9 369.2 Q 199.2 369.0, 198.8 369.0 Q 198.1 369.0, 197.7 369.3 Q 197.3 369.6, 196.9 370.2 L 196.9 376.1 L 195.4 376.1 L 195.4 367.8 L 196.6 367.8 " fill="#000000"/>
<path class="legend" d="M 201.0 371.9 Q 201.0 369.9, 202.1 368.8 Q 203.1 367.7, 205.0 367.7 Q 206.8 367.7, 207.8 368.8 Q 208.9 369.9, 208.9 371.9 Q 208.9 373.9, 207.8 375.1 Q 206.8 376.2, 205.0 376.2 Q 203.1 376.2, 202.1 375.1 Q 201.0 373.9, 201.0 371.9 M 202.6 371.9 Q 202.6 373.4, 203.2 374.2 Q 203.8 375.0, 205.0 375.0 Q 206.1 375.0, 206.7 374.2 Q 207.3 373.4, 207.3 371.9 Q 207.3 370.4, 206.7 369.7 Q 206.1 368.9, 205.0 368.9 Q 203.8 368.9, 203.2 369.7 Q 202.6 370.4, 202.6 371.9 " fill="#000000"/>
<path class="legend" d="M 219.8 367.7 Q 221.2 367.7, 221.9 368.4 Q 222.6 369.2, 222.6 370.6 L 222.6 376.1 L 221.1 376.1 L 221.1 370.7 Q 221.1 369.8, 220.7 369.3 Q 220.3 368.9, 219.5 368.9 Q 218.8 368.9, 218.1 369.2 Q 217.5 369.6, 217.2 370.2 Q 217.2 370.3, 217.2 370.6 L 217.2 376.1 L 215.7 376.1 L 215.7 370.7 Q 215.7 369.8, 215.3 369.3 Q 214.9 368.9, 214.1 368.9 Q 213.4 368.9, 212.8 369.2 Q 212.2 369.6, 211.8 370.2 L 211.8 376.1 L 210.3 376.1 L 210.3 367.8 L 211.5 367.8 L 211.7 369.0 Q 212.7 367.7, 214.4 367.7 Q 216.3 367.7, 216.9 369.1 Q 218.0 367.7, 219.8 367.7 " fill="#000000"/>
<path class="legend" d="" fill="#000000"/>
<path class="legend" d="M 236.3 370.1 Q 237.3 370.5, 237.9 371.2 Q 238.5 371.8, 238.5 373.0 Q 238.5 373.9, 238.0 374.7 Q 237.5 375.4, 236.6 375.8 Q 235.8 376.2, 234.6 376.2 Q 232.7 376.2, 231.6 375.4 Q 230.5 374.5, 230.5 373.0 Q 230.5 372.0, 231.0 371.3 Q 231.5 370.6, 232.5 370.1 Q 231.7 369.7, 231.3 369.1 Q 230.9 368.5, 230.9 367.5 Q 230.9 366.2, 231.9 365.4 Q 232.9 364.6, 234.5 364.6 Q 236.2 364.6, 237.1 365.4 Q 238.1 366.2, 238.1 367.5 Q 238.1 368.3, 237.6 369.0 Q 237.2 369.6, 236.3 370.1 M 234.5 365.8 Q 233.6 365.8, 233.0 366.3 Q 232.5 366.7, 232.5 367.5 Q 232.5 368.1, 232.9 368.5 Q 233.2 368.9, 233.7 369.1 Q 234.2 369.3, 235.2 369.7 Q 235.9 369.2, 236.2 368.7 Q 236.5 368.2, 236.5 367.5 Q 236.5 366.7, 236.0 366.3 Q 235.5 365.8, 234.5 365.8 M 234.6 375.0 Q 235.6 375.0, 236.3 374.5 Q 236.9 373.9, 236.9 372.9 Q 236.9 372.3, 236.6 372.0 Q 236.2 371.6, 235.7 371.3 Q 235.2 371.1, 234.3 370.8 L 233.6 370.6 Q 232.8 371.1, 232.5 371.6 Q 232.1 372.2, 232.1 372.9 Q 232.1 373.9, 232.8 374.5 Q 233.5 375.0, 234.6 375.0 " fill="#000000"/>
<path class="legend" d="M 246.5 367.8 L 248.0 367.8 L 243.8 380.0 L 242.4 380.0 L 243.7 376.1 L 243.1 376.1 L 240.2 367.8 L 241.8 367.8 L 244.2 374.8 L 246.5 367.8 " fill="#000000"/>
<path class="legend" d="M 248.9 372.2 Q 248.9 370.8, 249.3 369.8 Q 249.9 368.8, 250.8 368.3 Q 251.8 367.7, 253.1 367.7 Q 254.8 367.7, 256.2 368.3 L 256.2 380.0 L 254.7 380.0 L 254.7 375.2 Q 253.8 376.2, 252.4 376.2 Q 250.9 376.2, 249.8 375.2 Q 248.9 374.2, 248.9 372.2 M 250.3 372.2 Q 250.3 373.0, 250.6 373.7 Q 250.9 374.3, 251.4 374.7 Q 251.9 375.0, 252.5 375.0 Q 253.4 375.0, 253.9 374.5 Q 254.4 374.0, 254.7 373.4 L 254.7 370.8 L 254.7 369.1 Q 254.0 368.8, 253.1 368.8 Q 252.3 368.8, 251.7 369.2 Q 251.1 369.6, 250.7 370.4 Q 250.3 371.1, 250.3 372.2 " fill="#000000"/>
<path class="legend" d="M 258.3 371.9 Q 258.3 369.9, 259.3 368.8 Q 260.3 367.7, 262.1 367.7 Q 263.9 367.7, 264.7 368.8 Q 265.5 369.9, 265.5 371.9 L 265.5 372.1 L 259.8 372.1 Q 259.8 373.5, 260.5 374.3 Q 261.1 375.0, 262.2 375.0 Q 262.9 375.0, 263.5 374.9 Q 264.1 374.7, 264.8 374.4 L 265.2 375.4 Q 264.4 375.8, 263.7 376.0 Q 262.9 376.2, 262.2 376.2 Q 260.3 376.2, 259.3 375.1 Q 258.3 374.0, 258.3 371.9 M 262.1 368.9 Q 261.2 368.9, 260.6 369.4 Q 260.0 370.0, 259.9 371.0 L 264.0 371.0 Q 263.8 369.9, 263.4 369.4 Q 262.9 368.9, 262.1 368.9 " fill="#000000"/>
</svg>