<svg xmlns="http://www.w3.org/2000/svg" xmlns:rdkit="http://www.rdkit.org/xml" xmlns:xlink="http://www.w3.org/1999/xlink" version="1.1" baseProfile="full" xml:space="preserve" width="400px" height="400px" viewBox="0 0 400 400">
<!-- END OF HEADER -->
<rect style="opacity:1.0;fill:#FFFFFF;stroke:none" width="400.0" height="400.0" x="0.0" y="0.0"> </rect>
<ellipse cx="238.6" cy="78.4" rx="8.7" ry="8.7" class="atom-37" style="fill:#FF33FF4C;fill-rule:evenodd;stroke:#FF33FF4C;stroke-width:1.0px;stroke-linecap:butt;stroke-linejoin:miter;stroke-opacity:1"/>
<ellipse cx="184.2" cy="91.7" rx="8.7" ry="8.7" class="atom-38" style="fill:#FF33FF4C;fill-rule:evenodd;stroke:#FF33FF4C;stroke-width:1.0px;stroke-linecap:butt;stroke-linejoin:miter;stroke-opacity:1"/>
<ellipse cx="113.2" cy="267.7" rx="8.7" ry="8.7" class="atom-39" style="fill:#FF33FF4C;fill-rule:evenodd;stroke:#FF33FF4C;stroke-width:1.0px;stroke-linecap:butt;stroke-linejoin:miter;stroke-opacity:1"/>
<ellipse cx="58.3" cy="195.7" rx="8.7" ry="8.7" class="atom-40" style="fill:#FF33FF4C;fill-rule:evenodd;stroke:#FF33FF4C;stroke-width:1.0px;stroke-linecap:butt;stroke-linejoin:miter;stroke-opacity:1"/>
<path class="bond-0 atom-0 atom-1" d="M 40.8,237.5 L 64.9,247.6" style="fill:none;fill-rule:evenodd;stroke:#000000;stroke-width:2.0px;stroke-linecap:butt;stroke-linejoin:miter;stroke-opacity:1"/>
<path class="bond-1 atom-1 atom-2" d="M 64.9,247.6 L 85.8,231.7" style="fill:none;fill-rule:evenodd;stroke:#000000;stroke-width:2.0px;stroke-linecap:butt;stroke-linejoin:miter;stroke-opacity:1"/>
<path class="bond-2 atom-2 atom-3" d="M 85.8,231.7 L 84.4,221.1" style="fill:none;fill-rule:evenodd;stroke:#000000;stroke-width:2.0px;stroke-linecap:butt;stroke-linejoin:miter;stroke-opacity:1"/>
<path class="bond-2 atom-2 atom-3" d="M 84.4,221.1 L 83.0,210.5" style="fill:none;fill-rule:evenodd;stroke:#FF0000;stroke-width:2.0px;stroke-linecap:butt;stroke-linejoin:miter;stroke-opacity:1"/>
<path class="bond-2 atom-2 atom-3" d="M 81.6,230.0 L 80.4,220.5" style="fill:none;fill-rule:evenodd;stroke:#000000;stroke-width:2.0px;stroke-linecap:butt;stroke-linejoin:miter;stroke-opacity:1"/>
<path class="bond-2 atom-2 atom-3" d="M 80.4,220.5 L 79.1,211.0" style="fill:none;fill-rule:evenodd;stroke:#FF0000;stroke-width:2.0px;stroke-linecap:butt;stroke-linejoin:miter;stroke-opacity:1"/>
<path class="bond-3 atom-2 atom-4" d="M 85.8,231.7 L 96.0,236.0" style="fill:none;fill-rule:evenodd;stroke:#000000;stroke-width:2.0px;stroke-linecap:butt;stroke-linejoin:miter;stroke-opacity:1"/>
<path class="bond-3 atom-2 atom-4" d="M 96.0,236.0 L 106.2,240.3" style="fill:none;fill-rule:evenodd;stroke:#0000FF;stroke-width:2.0px;stroke-linecap:butt;stroke-linejoin:miter;stroke-opacity:1"/>
<path class="bond-4 atom-4 atom-5" d="M 113.6,239.0 L 122.1,232.5" style="fill:none;fill-rule:evenodd;stroke:#0000FF;stroke-width:2.0px;stroke-linecap:butt;stroke-linejoin:miter;stroke-opacity:1"/>
<path class="bond-4 atom-4 atom-5" d="M 122.1,232.5 L 130.7,225.9" style="fill:none;fill-rule:evenodd;stroke:#000000;stroke-width:2.0px;stroke-linecap:butt;stroke-linejoin:miter;stroke-opacity:1"/>
<path class="bond-5 atom-5 atom-6" d="M 130.7,225.9 L 127.4,200.0" style="fill:none;fill-rule:evenodd;stroke:#000000;stroke-width:2.0px;stroke-linecap:butt;stroke-linejoin:miter;stroke-opacity:1"/>
<path class="bond-5 atom-5 atom-6" d="M 134.3,223.2 L 131.5,201.7" style="fill:none;fill-rule:evenodd;stroke:#000000;stroke-width:2.0px;stroke-linecap:butt;stroke-linejoin:miter;stroke-opacity:1"/>
<path class="bond-6 atom-6 atom-7" d="M 127.4,200.0 L 148.2,184.1" style="fill:none;fill-rule:evenodd;stroke:#000000;stroke-width:2.0px;stroke-linecap:butt;stroke-linejoin:miter;stroke-opacity:1"/>
<path class="bond-7 atom-7 atom-8" d="M 148.2,184.1 L 172.3,194.2" style="fill:none;fill-rule:evenodd;stroke:#000000;stroke-width:2.0px;stroke-linecap:butt;stroke-linejoin:miter;stroke-opacity:1"/>
<path class="bond-7 atom-7 atom-8" d="M 148.8,188.6 L 168.7,197.0" style="fill:none;fill-rule:evenodd;stroke:#000000;stroke-width:2.0px;stroke-linecap:butt;stroke-linejoin:miter;stroke-opacity:1"/>
<path class="bond-8 atom-8 atom-9" d="M 172.3,194.2 L 175.6,220.2" style="fill:none;fill-rule:evenodd;stroke:#000000;stroke-width:2.0px;stroke-linecap:butt;stroke-linejoin:miter;stroke-opacity:1"/>
<path class="bond-9 atom-9 atom-10" d="M 175.6,220.2 L 154.8,236.0" style="fill:none;fill-rule:evenodd;stroke:#000000;stroke-width:2.0px;stroke-linecap:butt;stroke-linejoin:miter;stroke-opacity:1"/>
<path class="bond-9 atom-9 atom-10" d="M 171.5,218.4 L 154.3,231.5" style="fill:none;fill-rule:evenodd;stroke:#000000;stroke-width:2.0px;stroke-linecap:butt;stroke-linejoin:miter;stroke-opacity:1"/>
<path class="bond-10 atom-9 atom-11" d="M 175.6,220.2 L 186.7,222.3" style="fill:none;fill-rule:evenodd;stroke:#000000;stroke-width:2.0px;stroke-linecap:butt;stroke-linejoin:miter;stroke-opacity:1"/>
<path class="bond-10 atom-9 atom-11" d="M 186.7,222.3 L 197.7,224.3" style="fill:none;fill-rule:evenodd;stroke:#0000FF;stroke-width:2.0px;stroke-linecap:butt;stroke-linejoin:miter;stroke-opacity:1"/>
<path class="bond-11 atom-11 atom-12" d="M 203.8,220.5 L 208.9,211.3" style="fill:none;fill-rule:evenodd;stroke:#0000FF;stroke-width:2.0px;stroke-linecap:butt;stroke-linejoin:miter;stroke-opacity:1"/>
<path class="bond-11 atom-11 atom-12" d="M 208.9,211.3 L 213.9,202.1" style="fill:none;fill-rule:evenodd;stroke:#000000;stroke-width:2.0px;stroke-linecap:butt;stroke-linejoin:miter;stroke-opacity:1"/>
<path class="bond-12 atom-12 atom-13" d="M 213.9,202.1 L 196.0,183.1" style="fill:none;fill-rule:evenodd;stroke:#000000;stroke-width:2.0px;stroke-linecap:butt;stroke-linejoin:miter;stroke-opacity:1"/>
<path class="bond-12 atom-12 atom-13" d="M 209.1,202.7 L 195.1,187.8" style="fill:none;fill-rule:evenodd;stroke:#000000;stroke-width:2.0px;stroke-linecap:butt;stroke-linejoin:miter;stroke-opacity:1"/>
<path class="bond-13 atom-13 atom-14" d="M 196.0,183.1 L 200.8,157.4" style="fill:none;fill-rule:evenodd;stroke:#000000;stroke-width:2.0px;stroke-linecap:butt;stroke-linejoin:miter;stroke-opacity:1"/>
<path class="bond-14 atom-14 atom-15" d="M 200.8,157.4 L 182.9,138.3" style="fill:none;fill-rule:evenodd;stroke:#000000;stroke-width:2.0px;stroke-linecap:butt;stroke-linejoin:miter;stroke-opacity:1"/>
<path class="bond-14 atom-14 atom-15" d="M 201.7,152.6 L 187.7,137.7" style="fill:none;fill-rule:evenodd;stroke:#000000;stroke-width:2.0px;stroke-linecap:butt;stroke-linejoin:miter;stroke-opacity:1"/>
<path class="bond-15 atom-15 atom-16" d="M 182.9,138.3 L 187.9,129.1" style="fill:none;fill-rule:evenodd;stroke:#000000;stroke-width:2.0px;stroke-linecap:butt;stroke-linejoin:miter;stroke-opacity:1"/>
<path class="bond-15 atom-15 atom-16" d="M 187.9,129.1 L 192.9,119.9" style="fill:none;fill-rule:evenodd;stroke:#0000FF;stroke-width:2.0px;stroke-linecap:butt;stroke-linejoin:miter;stroke-opacity:1"/>
<path class="bond-16 atom-16 atom-17" d="M 199.1,116.1 L 210.1,118.1" style="fill:none;fill-rule:evenodd;stroke:#0000FF;stroke-width:2.0px;stroke-linecap:butt;stroke-linejoin:miter;stroke-opacity:1"/>
<path class="bond-16 atom-16 atom-17" d="M 210.1,118.1 L 221.1,120.2" style="fill:none;fill-rule:evenodd;stroke:#000000;stroke-width:2.0px;stroke-linecap:butt;stroke-linejoin:miter;stroke-opacity:1"/>
<path class="bond-17 atom-17 atom-18" d="M 221.1,120.2 L 224.5,146.2" style="fill:none;fill-rule:evenodd;stroke:#000000;stroke-width:2.0px;stroke-linecap:butt;stroke-linejoin:miter;stroke-opacity:1"/>
<path class="bond-17 atom-17 atom-18" d="M 217.6,123.5 L 220.2,143.8" style="fill:none;fill-rule:evenodd;stroke:#000000;stroke-width:2.0px;stroke-linecap:butt;stroke-linejoin:miter;stroke-opacity:1"/>
<path class="bond-18 atom-18 atom-19" d="M 224.5,146.2 L 234.7,150.4" style="fill:none;fill-rule:evenodd;stroke:#000000;stroke-width:2.0px;stroke-linecap:butt;stroke-linejoin:miter;stroke-opacity:1"/>
<path class="bond-18 atom-18 atom-19" d="M 234.7,150.4 L 244.9,154.7" style="fill:none;fill-rule:evenodd;stroke:#0000FF;stroke-width:2.0px;stroke-linecap:butt;stroke-linejoin:miter;stroke-opacity:1"/>
<path class="bond-19 atom-19 atom-20" d="M 252.3,153.5 L 260.8,146.9" style="fill:none;fill-rule:evenodd;stroke:#0000FF;stroke-width:2.0px;stroke-linecap:butt;stroke-linejoin:miter;stroke-opacity:1"/>
<path class="bond-19 atom-19 atom-20" d="M 260.8,146.9 L 269.4,140.4" style="fill:none;fill-rule:evenodd;stroke:#000000;stroke-width:2.0px;stroke-linecap:butt;stroke-linejoin:miter;stroke-opacity:1"/>
<path class="bond-19 atom-19 atom-20" d="M 249.9,150.3 L 257.6,144.5" style="fill:none;fill-rule:evenodd;stroke:#0000FF;stroke-width:2.0px;stroke-linecap:butt;stroke-linejoin:miter;stroke-opacity:1"/>
<path class="bond-19 atom-19 atom-20" d="M 257.6,144.5 L 265.2,138.7" style="fill:none;fill-rule:evenodd;stroke:#000000;stroke-width:2.0px;stroke-linecap:butt;stroke-linejoin:miter;stroke-opacity:1"/>
<path class="bond-20 atom-20 atom-21" d="M 269.4,140.4 L 266.1,114.5" style="fill:none;fill-rule:evenodd;stroke:#000000;stroke-width:2.0px;stroke-linecap:butt;stroke-linejoin:miter;stroke-opacity:1"/>
<path class="bond-21 atom-21 atom-22" d="M 266.1,114.5 L 255.8,110.2" style="fill:none;fill-rule:evenodd;stroke:#000000;stroke-width:2.0px;stroke-linecap:butt;stroke-linejoin:miter;stroke-opacity:1"/>
<path class="bond-21 atom-21 atom-22" d="M 255.8,110.2 L 245.6,105.9" style="fill:none;fill-rule:evenodd;stroke:#0000FF;stroke-width:2.0px;stroke-linecap:butt;stroke-linejoin:miter;stroke-opacity:1"/>
<path class="bond-21 atom-21 atom-22" d="M 262.5,117.2 L 253.3,113.4" style="fill:none;fill-rule:evenodd;stroke:#000000;stroke-width:2.0px;stroke-linecap:butt;stroke-linejoin:miter;stroke-opacity:1"/>
<path class="bond-21 atom-21 atom-22" d="M 253.3,113.4 L 244.1,109.5" style="fill:none;fill-rule:evenodd;stroke:#0000FF;stroke-width:2.0px;stroke-linecap:butt;stroke-linejoin:miter;stroke-opacity:1"/>
<path class="bond-22 atom-20 atom-23" d="M 269.4,140.4 L 293.5,150.5" style="fill:none;fill-rule:evenodd;stroke:#000000;stroke-width:2.0px;stroke-linecap:butt;stroke-linejoin:miter;stroke-opacity:1"/>
<path class="bond-23 atom-23 atom-24" d="M 293.5,150.5 L 315.9,136.9" style="fill:none;fill-rule:evenodd;stroke:#000000;stroke-width:2.0px;stroke-linecap:butt;stroke-linejoin:miter;stroke-opacity:1"/>
<path class="bond-24 atom-24 atom-25" d="M 315.9,136.9 L 324.0,143.9" style="fill:none;fill-rule:evenodd;stroke:#000000;stroke-width:2.0px;stroke-linecap:butt;stroke-linejoin:miter;stroke-opacity:1"/>
<path class="bond-24 atom-24 atom-25" d="M 324.0,143.9 L 332.0,150.8" style="fill:none;fill-rule:evenodd;stroke:#0000FF;stroke-width:2.0px;stroke-linecap:butt;stroke-linejoin:miter;stroke-opacity:1"/>
<path class="bond-24 atom-24 atom-25" d="M 315.5,141.7 L 322.5,147.8" style="fill:none;fill-rule:evenodd;stroke:#000000;stroke-width:2.0px;stroke-linecap:butt;stroke-linejoin:miter;stroke-opacity:1"/>
<path class="bond-24 atom-24 atom-25" d="M 322.5,147.8 L 329.5,153.8" style="fill:none;fill-rule:evenodd;stroke:#0000FF;stroke-width:2.0px;stroke-linecap:butt;stroke-linejoin:miter;stroke-opacity:1"/>
<path class="bond-25 atom-25 atom-26" d="M 333.8,158.5 L 327.5,173.5" style="fill:none;fill-rule:evenodd;stroke:#0000FF;stroke-width:2.0px;stroke-linecap:butt;stroke-linejoin:miter;stroke-opacity:1"/>
<path class="bond-26 atom-26 atom-27" d="M 322.0,177.8 L 310.8,176.9" style="fill:none;fill-rule:evenodd;stroke:#0000FF;stroke-width:2.0px;stroke-linecap:butt;stroke-linejoin:miter;stroke-opacity:1"/>
<path class="bond-26 atom-26 atom-27" d="M 310.8,176.9 L 299.6,176.0" style="fill:none;fill-rule:evenodd;stroke:#000000;stroke-width:2.0px;stroke-linecap:butt;stroke-linejoin:miter;stroke-opacity:1"/>
<path class="bond-27 atom-26 atom-28" d="M 328.4,182.7 L 333.8,191.6" style="fill:none;fill-rule:evenodd;stroke:#0000FF;stroke-width:2.0px;stroke-linecap:butt;stroke-linejoin:miter;stroke-opacity:1"/>
<path class="bond-27 atom-26 atom-28" d="M 333.8,191.6 L 339.2,200.4" style="fill:none;fill-rule:evenodd;stroke:#000000;stroke-width:2.0px;stroke-linecap:butt;stroke-linejoin:miter;stroke-opacity:1"/>
<path class="bond-28 atom-28 atom-29" d="M 339.2,200.4 L 326.7,223.4" style="fill:none;fill-rule:evenodd;stroke:#000000;stroke-width:2.0px;stroke-linecap:butt;stroke-linejoin:miter;stroke-opacity:1"/>
<path class="bond-29 atom-29 atom-30" d="M 326.7,223.4 L 332.1,232.3" style="fill:none;fill-rule:evenodd;stroke:#000000;stroke-width:2.0px;stroke-linecap:butt;stroke-linejoin:miter;stroke-opacity:1"/>
<path class="bond-29 atom-29 atom-30" d="M 332.1,232.3 L 337.5,241.2" style="fill:none;fill-rule:evenodd;stroke:#0000FF;stroke-width:2.0px;stroke-linecap:butt;stroke-linejoin:miter;stroke-opacity:1"/>
<path class="bond-30 atom-30 atom-31" d="M 337.8,250.3 L 332.7,259.5" style="fill:none;fill-rule:evenodd;stroke:#0000FF;stroke-width:2.0px;stroke-linecap:butt;stroke-linejoin:miter;stroke-opacity:1"/>
<path class="bond-30 atom-30 atom-31" d="M 332.7,259.5 L 327.7,268.7" style="fill:none;fill-rule:evenodd;stroke:#000000;stroke-width:2.0px;stroke-linecap:butt;stroke-linejoin:miter;stroke-opacity:1"/>
<path class="bond-31 atom-31 atom-32" d="M 327.7,268.7 L 341.3,291.0" style="fill:none;fill-rule:evenodd;stroke:#000000;stroke-width:2.0px;stroke-linecap:butt;stroke-linejoin:miter;stroke-opacity:1"/>
<path class="bond-32 atom-32 atom-33" d="M 341.3,291.0 L 352.2,290.8" style="fill:none;fill-rule:evenodd;stroke:#000000;stroke-width:2.0px;stroke-linecap:butt;stroke-linejoin:miter;stroke-opacity:1"/>
<path class="bond-32 atom-32 atom-33" d="M 352.2,290.8 L 363.2,290.5" style="fill:none;fill-rule:evenodd;stroke:#FF0000;stroke-width:2.0px;stroke-linecap:butt;stroke-linejoin:miter;stroke-opacity:1"/>
<path class="bond-33 atom-33 atom-34" d="M 370.0,285.8 L 375.0,276.7" style="fill:none;fill-rule:evenodd;stroke:#FF0000;stroke-width:2.0px;stroke-linecap:butt;stroke-linejoin:miter;stroke-opacity:1"/>
<path class="bond-33 atom-33 atom-34" d="M 375.0,276.7 L 380.0,267.5" style="fill:none;fill-rule:evenodd;stroke:#000000;stroke-width:2.0px;stroke-linecap:butt;stroke-linejoin:miter;stroke-opacity:1"/>
<path class="bond-34 atom-34 atom-35" d="M 380.0,267.5 L 366.4,245.1" style="fill:none;fill-rule:evenodd;stroke:#000000;stroke-width:2.0px;stroke-linecap:butt;stroke-linejoin:miter;stroke-opacity:1"/>
<path class="bond-35 atom-11 atom-36" d="M 203.5,229.6 L 208.0,239.1" style="fill:none;fill-rule:evenodd;stroke:#0000FF;stroke-width:2.0px;stroke-linecap:butt;stroke-linejoin:miter;stroke-opacity:1"/>
<path class="bond-35 atom-11 atom-36" d="M 208.0,239.1 L 212.5,248.7" style="fill:none;fill-rule:evenodd;stroke:#000000;stroke-width:2.0px;stroke-linecap:butt;stroke-linejoin:miter;stroke-opacity:1"/>
<path class="bond-36 atom-10 atom-5" d="M 154.8,236.0 L 130.7,225.9" style="fill:none;fill-rule:evenodd;stroke:#000000;stroke-width:2.0px;stroke-linecap:butt;stroke-linejoin:miter;stroke-opacity:1"/>
<path class="bond-37 atom-13 atom-8" d="M 196.0,183.1 L 172.3,194.2" style="fill:none;fill-rule:evenodd;stroke:#000000;stroke-width:2.0px;stroke-linecap:butt;stroke-linejoin:miter;stroke-opacity:1"/>
<path class="bond-38 atom-18 atom-14" d="M 224.5,146.2 L 200.8,157.4" style="fill:none;fill-rule:evenodd;stroke:#000000;stroke-width:2.0px;stroke-linecap:butt;stroke-linejoin:miter;stroke-opacity:1"/>
<path class="bond-39 atom-22 atom-17" d="M 238.3,107.2 L 229.7,113.7" style="fill:none;fill-rule:evenodd;stroke:#0000FF;stroke-width:2.0px;stroke-linecap:butt;stroke-linejoin:miter;stroke-opacity:1"/>
<path class="bond-39 atom-22 atom-17" d="M 229.7,113.7 L 221.1,120.2" style="fill:none;fill-rule:evenodd;stroke:#000000;stroke-width:2.0px;stroke-linecap:butt;stroke-linejoin:miter;stroke-opacity:1"/>
<path class="bond-40 atom-27 atom-23" d="M 299.6,176.0 L 293.5,150.5" style="fill:none;fill-rule:evenodd;stroke:#000000;stroke-width:2.0px;stroke-linecap:butt;stroke-linejoin:miter;stroke-opacity:1"/>
<path class="bond-40 atom-27 atom-23" d="M 302.7,172.3 L 298.0,152.4" style="fill:none;fill-rule:evenodd;stroke:#000000;stroke-width:2.0px;stroke-linecap:butt;stroke-linejoin:miter;stroke-opacity:1"/>
<path class="bond-41 atom-35 atom-30" d="M 366.4,245.1 L 355.2,245.4" style="fill:none;fill-rule:evenodd;stroke:#000000;stroke-width:2.0px;stroke-linecap:butt;stroke-linejoin:miter;stroke-opacity:1"/>
<path class="bond-41 atom-35 atom-30" d="M 355.2,245.4 L 343.9,245.7" style="fill:none;fill-rule:evenodd;stroke:#0000FF;stroke-width:2.0px;stroke-linecap:butt;stroke-linejoin:miter;stroke-opacity:1"/>
<path class="bond-42 atom-37 atom-22" d="M 239.2,83.0 L 240.3,91.4" style="fill:none;fill-rule:evenodd;stroke:#000000;stroke-width:2.0px;stroke-linecap:butt;stroke-linejoin:miter;stroke-opacity:1;stroke-dasharray:1,1.33333"/>
<path class="bond-42 atom-37 atom-22" d="M 240.3,91.4 L 241.4,99.8" style="fill:none;fill-rule:evenodd;stroke:#0000FF;stroke-width:2.0px;stroke-linecap:butt;stroke-linejoin:miter;stroke-opacity:1;stroke-dasharray:1,1.33333"/>
<path class="bond-43 atom-38 atom-16" d="M 186.4,96.3 L 189.8,103.6" style="fill:none;fill-rule:evenodd;stroke:#000000;stroke-width:2.0px;stroke-linecap:butt;stroke-linejoin:miter;stroke-opacity:1;stroke-dasharray:1,1.33333"/>
<path class="bond-43 atom-38 atom-16" d="M 189.8,103.6 L 193.3,110.8" style="fill:none;fill-rule:evenodd;stroke:#0000FF;stroke-width:2.0px;stroke-linecap:butt;stroke-linejoin:miter;stroke-opacity:1;stroke-dasharray:1,1.33333"/>
<path class="bond-44 atom-39 atom-4" d="M 112.6,263.2 L 112.1,258.9" style="fill:none;fill-rule:evenodd;stroke:#000000;stroke-width:2.0px;stroke-linecap:butt;stroke-linejoin:miter;stroke-opacity:1;stroke-dasharray:0.5,0.666667"/>
<path class="bond-44 atom-39 atom-4" d="M 112.1,258.9 L 111.5,254.5" style="fill:none;fill-rule:evenodd;stroke:#0000FF;stroke-width:2.0px;stroke-linecap:butt;stroke-linejoin:miter;stroke-opacity:1;stroke-dasharray:0.5,0.666667"/>
<path class="bond-45 atom-40 atom-3" d="M 61.8,197.1 L 70.0,200.6" style="fill:none;fill-rule:evenodd;stroke:#000000;stroke-width:2.0px;stroke-linecap:butt;stroke-linejoin:miter;stroke-opacity:1;stroke-dasharray:1,1.33333"/>
<path class="bond-45 atom-40 atom-3" d="M 70.0,200.6 L 78.2,204.0" style="fill:none;fill-rule:evenodd;stroke:#FF0000;stroke-width:2.0px;stroke-linecap:butt;stroke-linejoin:miter;stroke-opacity:1;stroke-dasharray:1,1.33333"/>
<path d="M 63.7,247.1 L 64.9,247.6 L 66.0,246.8" style="fill:none;stroke:#000000;stroke-width:2.0px;stroke-linecap:butt;stroke-linejoin:miter;stroke-miterlimit:10;stroke-opacity:1;"/>
<path d="M 127.5,201.3 L 127.4,200.0 L 128.4,199.2" style="fill:none;stroke:#000000;stroke-width:2.0px;stroke-linecap:butt;stroke-linejoin:miter;stroke-miterlimit:10;stroke-opacity:1;"/>
<path d="M 147.1,184.9 L 148.2,184.1 L 149.4,184.7" style="fill:none;stroke:#000000;stroke-width:2.0px;stroke-linecap:butt;stroke-linejoin:miter;stroke-miterlimit:10;stroke-opacity:1;"/>
<path d="M 155.9,235.2 L 154.8,236.0 L 153.6,235.5" style="fill:none;stroke:#000000;stroke-width:2.0px;stroke-linecap:butt;stroke-linejoin:miter;stroke-miterlimit:10;stroke-opacity:1;"/>
<path d="M 213.6,202.5 L 213.9,202.1 L 213.0,201.1" style="fill:none;stroke:#000000;stroke-width:2.0px;stroke-linecap:butt;stroke-linejoin:miter;stroke-miterlimit:10;stroke-opacity:1;"/>
<path d="M 183.8,139.3 L 182.9,138.3 L 183.1,137.9" style="fill:none;stroke:#000000;stroke-width:2.0px;stroke-linecap:butt;stroke-linejoin:miter;stroke-miterlimit:10;stroke-opacity:1;"/>
<path d="M 266.2,115.8 L 266.1,114.5 L 265.6,114.2" style="fill:none;stroke:#000000;stroke-width:2.0px;stroke-linecap:butt;stroke-linejoin:miter;stroke-miterlimit:10;stroke-opacity:1;"/>
<path d="M 314.8,137.6 L 315.9,136.9 L 316.3,137.3" style="fill:none;stroke:#000000;stroke-width:2.0px;stroke-linecap:butt;stroke-linejoin:miter;stroke-miterlimit:10;stroke-opacity:1;"/>
<path d="M 300.1,176.0 L 299.6,176.0 L 299.3,174.7" style="fill:none;stroke:#000000;stroke-width:2.0px;stroke-linecap:butt;stroke-linejoin:miter;stroke-miterlimit:10;stroke-opacity:1;"/>
<path d="M 339.0,200.0 L 339.2,200.4 L 338.6,201.6" style="fill:none;stroke:#000000;stroke-width:2.0px;stroke-linecap:butt;stroke-linejoin:miter;stroke-miterlimit:10;stroke-opacity:1;"/>
<path d="M 327.3,222.2 L 326.7,223.4 L 326.9,223.8" style="fill:none;stroke:#000000;stroke-width:2.0px;stroke-linecap:butt;stroke-linejoin:miter;stroke-miterlimit:10;stroke-opacity:1;"/>
<path d="M 327.9,268.2 L 327.7,268.7 L 328.4,269.8" style="fill:none;stroke:#000000;stroke-width:2.0px;stroke-linecap:butt;stroke-linejoin:miter;stroke-miterlimit:10;stroke-opacity:1;"/>
<path d="M 340.6,289.9 L 341.3,291.0 L 341.8,291.0" style="fill:none;stroke:#000000;stroke-width:2.0px;stroke-linecap:butt;stroke-linejoin:miter;stroke-miterlimit:10;stroke-opacity:1;"/>
<path d="M 379.7,268.0 L 380.0,267.5 L 379.3,266.4" style="fill:none;stroke:#000000;stroke-width:2.0px;stroke-linecap:butt;stroke-linejoin:miter;stroke-miterlimit:10;stroke-opacity:1;"/>
<path d="M 367.1,246.3 L 366.4,245.1 L 365.8,245.2" style="fill:none;stroke:#000000;stroke-width:2.0px;stroke-linecap:butt;stroke-linejoin:miter;stroke-miterlimit:10;stroke-opacity:1;"/>
<path class="atom-3" d="M 79.0 205.8 Q 79.0 204.0, 79.9 203.0 Q 80.8 202.0, 82.4 202.0 Q 84.1 202.0, 85.0 203.0 Q 85.8 204.0, 85.8 205.8 Q 85.8 207.6, 84.9 208.6 Q 84.1 209.6, 82.4 209.6 Q 80.8 209.6, 79.9 208.6 Q 79.0 207.6, 79.0 205.8 M 82.4 208.8 Q 83.6 208.8, 84.2 208.0 Q 84.8 207.3, 84.8 205.8 Q 84.8 204.3, 84.2 203.6 Q 83.6 202.9, 82.4 202.9 Q 81.3 202.9, 80.7 203.6 Q 80.1 204.3, 80.1 205.8 Q 80.1 207.3, 80.7 208.0 Q 81.3 208.8, 82.4 208.8 " fill="#FF0000"/>
<path class="atom-4" d="M 108.3 238.1 L 110.7 242.0 Q 110.9 242.4, 111.3 243.1 Q 111.7 243.8, 111.7 243.9 L 111.7 238.1 L 112.7 238.1 L 112.7 245.5 L 111.7 245.5 L 109.1 241.2 Q 108.8 240.7, 108.5 240.1 Q 108.1 239.6, 108.0 239.4 L 108.0 245.5 L 107.1 245.5 L 107.1 238.1 L 108.3 238.1 " fill="#0000FF"/>
<path class="atom-4" d="M 107.0 246.2 L 108.0 246.2 L 108.0 249.4 L 111.8 249.4 L 111.8 246.2 L 112.8 246.2 L 112.8 253.7 L 111.8 253.7 L 111.8 250.2 L 108.0 250.2 L 108.0 253.7 L 107.0 253.7 L 107.0 246.2 " fill="#0000FF"/>
<path class="atom-11" d="M 199.7 221.3 L 202.1 225.3 Q 202.4 225.6, 202.8 226.3 Q 203.1 227.0, 203.2 227.1 L 203.2 221.3 L 204.2 221.3 L 204.2 228.7 L 203.1 228.7 L 200.5 224.5 Q 200.2 223.9, 199.9 223.4 Q 199.6 222.8, 199.5 222.6 L 199.5 228.7 L 198.5 228.7 L 198.5 221.3 L 199.7 221.3 " fill="#0000FF"/>
<path class="atom-16" d="M 185.4 111.7 L 186.4 111.7 L 186.4 114.8 L 190.2 114.8 L 190.2 111.7 L 191.2 111.7 L 191.2 119.1 L 190.2 119.1 L 190.2 115.7 L 186.4 115.7 L 186.4 119.1 L 185.4 119.1 L 185.4 111.7 " fill="#0000FF"/>
<path class="atom-16" d="M 193.8 111.7 L 196.2 115.6 Q 196.5 116.0, 196.8 116.7 Q 197.2 117.4, 197.3 117.4 L 197.3 111.7 L 198.2 111.7 L 198.2 119.1 L 197.2 119.1 L 194.6 114.8 Q 194.3 114.3, 194.0 113.7 Q 193.7 113.1, 193.6 113.0 L 193.6 119.1 L 192.6 119.1 L 192.6 111.7 L 193.8 111.7 " fill="#0000FF"/>
<path class="atom-19" d="M 247.0 152.6 L 249.4 156.5 Q 249.6 156.9, 250.0 157.6 Q 250.4 158.3, 250.4 158.3 L 250.4 152.6 L 251.4 152.6 L 251.4 160.0 L 250.4 160.0 L 247.8 155.7 Q 247.5 155.2, 247.2 154.6 Q 246.8 154.0, 246.7 153.8 L 246.7 160.0 L 245.8 160.0 L 245.8 152.6 L 247.0 152.6 " fill="#0000FF"/>
<path class="atom-22" d="M 240.3 100.7 L 242.7 104.6 Q 243.0 105.0, 243.4 105.7 Q 243.7 106.4, 243.8 106.4 L 243.8 100.7 L 244.7 100.7 L 244.7 108.1 L 243.7 108.1 L 241.1 103.8 Q 240.8 103.3, 240.5 102.7 Q 240.2 102.1, 240.1 101.9 L 240.1 108.1 L 239.1 108.1 L 239.1 100.7 L 240.3 100.7 " fill="#0000FF"/>
<path class="atom-25" d="M 334.1 150.3 L 336.5 154.2 Q 336.7 154.6, 337.1 155.3 Q 337.5 156.0, 337.5 156.0 L 337.5 150.3 L 338.5 150.3 L 338.5 157.7 L 337.5 157.7 L 334.9 153.4 Q 334.6 152.9, 334.3 152.3 Q 334.0 151.7, 333.9 151.5 L 333.9 157.7 L 332.9 157.7 L 332.9 150.3 L 334.1 150.3 " fill="#0000FF"/>
<path class="atom-26" d="M 324.0 174.4 L 326.4 178.3 Q 326.7 178.7, 327.0 179.4 Q 327.4 180.1, 327.5 180.1 L 327.5 174.4 L 328.4 174.4 L 328.4 181.8 L 327.4 181.8 L 324.8 177.5 Q 324.5 177.0, 324.2 176.4 Q 323.9 175.9, 323.8 175.7 L 323.8 181.8 L 322.8 181.8 L 322.8 174.4 L 324.0 174.4 " fill="#0000FF"/>
<path class="atom-30" d="M 338.6 242.0 L 341.0 246.0 Q 341.3 246.3, 341.7 247.0 Q 342.1 247.7, 342.1 247.8 L 342.1 242.0 L 343.1 242.0 L 343.1 249.4 L 342.0 249.4 L 339.4 245.2 Q 339.1 244.7, 338.8 244.1 Q 338.5 243.5, 338.4 243.3 L 338.4 249.4 L 337.4 249.4 L 337.4 242.0 L 338.6 242.0 " fill="#0000FF"/>
<path class="atom-33" d="M 364.0 290.5 Q 364.0 288.7, 364.9 287.7 Q 365.8 286.7, 367.4 286.7 Q 369.1 286.7, 370.0 287.7 Q 370.8 288.7, 370.8 290.5 Q 370.8 292.3, 370.0 293.3 Q 369.1 294.3, 367.4 294.3 Q 365.8 294.3, 364.9 293.3 Q 364.0 292.3, 364.0 290.5 M 367.4 293.5 Q 368.6 293.5, 369.2 292.7 Q 369.8 291.9, 369.8 290.5 Q 369.8 289.0, 369.2 288.3 Q 368.6 287.5, 367.4 287.5 Q 366.3 287.5, 365.7 288.3 Q 365.1 289.0, 365.1 290.5 Q 365.1 292.0, 365.7 292.7 Q 366.3 293.5, 367.4 293.5 " fill="#FF0000"/>
<path class="atom-37" d="M 240.9 82.2 L 240.1 80.0 L 237.1 80.0 L 236.4 82.2 L 235.4 82.2 L 237.9 74.8 L 239.2 74.8 L 241.8 82.2 L 240.9 82.2 M 237.4 79.2 L 239.8 79.2 L 238.6 75.8 L 237.4 79.2 " fill="#000000"/>
<path class="atom-37" d="M 242.4 74.8 L 243.4 74.8 L 243.4 81.3 L 246.8 81.3 L 246.8 82.2 L 242.4 82.2 L 242.4 74.8 " fill="#000000"/>
<path class="atom-37" d="M 253.0 82.2 L 252.3 80.0 L 249.3 80.0 L 248.6 82.2 L 247.6 82.2 L 250.1 74.8 L 251.4 74.8 L 254.0 82.2 L 253.0 82.2 M 249.6 79.2 L 252.0 79.2 L 250.8 75.8 L 249.6 79.2 " fill="#000000"/>
<path class="atom-37" d="" fill="#000000"/>
<path class="atom-37" d="M 261.3 77.5 Q 261.9 77.5, 262.4 77.8 Q 263.0 78.1, 263.3 78.6 Q 263.6 79.1, 263.6 79.8 Q 263.6 80.6, 263.2 81.1 Q 262.8 81.7, 262.2 82.0 Q 261.6 82.2, 260.9 82.2 Q 260.3 82.2, 259.6 82.0 Q 259.0 81.7, 258.6 81.3 L 259.2 80.6 Q 259.5 81.0, 260.0 81.2 Q 260.5 81.4, 261.0 81.4 Q 261.6 81.4, 262.1 81.0 Q 262.5 80.6, 262.5 79.8 Q 262.5 79.1, 262.1 78.7 Q 261.6 78.3, 260.9 78.3 Q 260.3 78.3, 259.5 78.6 L 259.0 78.3 L 259.3 74.8 L 263.1 74.8 L 263.0 75.6 L 260.2 75.6 L 260.0 77.8 Q 260.6 77.5, 261.3 77.5 " fill="#000000"/>
<path class="atom-37" d="M 267.5 77.5 Q 268.1 77.5, 268.6 77.8 Q 269.1 78.1, 269.4 78.6 Q 269.7 79.1, 269.7 79.8 Q 269.7 80.5, 269.4 81.1 Q 269.1 81.6, 268.5 81.9 Q 267.9 82.2, 267.2 82.2 Q 265.9 82.2, 265.2 81.4 Q 264.6 80.5, 264.6 78.7 Q 264.6 76.7, 265.4 75.7 Q 266.2 74.7, 267.8 74.7 Q 268.2 74.7, 268.6 74.8 Q 269.0 74.9, 269.4 75.1 L 269.0 75.8 Q 268.5 75.5, 267.8 75.5 Q 266.7 75.5, 266.2 76.2 Q 265.7 76.9, 265.6 78.3 Q 266.0 77.9, 266.5 77.7 Q 266.9 77.5, 267.5 77.5 M 267.2 81.4 Q 267.6 81.4, 267.9 81.2 Q 268.3 81.0, 268.5 80.6 Q 268.7 80.2, 268.7 79.8 Q 268.7 79.1, 268.3 78.8 Q 267.9 78.4, 267.3 78.4 Q 266.8 78.4, 266.4 78.6 Q 265.9 78.7, 265.6 79.1 Q 265.7 80.3, 266.0 80.8 Q 266.4 81.4, 267.2 81.4 " fill="#000000"/>
<path class="atom-37" d="M 275.6 79.6 L 276.4 79.6 L 276.4 80.5 L 275.6 80.5 L 275.6 82.2 L 274.6 82.2 L 274.6 80.5 L 270.7 80.5 L 270.7 79.8 L 274.0 74.8 L 275.6 74.8 L 275.6 79.6 M 272.0 79.6 L 274.6 79.6 L 274.6 75.4 L 272.0 79.6 " fill="#000000"/>
<path class="atom-38" d="M 152.3 91.8 L 152.3 95.0 Q 151.2 95.6, 149.7 95.6 Q 148.1 95.6, 147.2 94.6 Q 146.3 93.6, 146.3 91.8 Q 146.3 89.9, 147.2 88.9 Q 148.1 88.0, 149.7 88.0 Q 150.6 88.0, 151.2 88.2 Q 151.8 88.5, 152.3 89.1 L 151.6 89.6 Q 150.9 88.8, 149.7 88.8 Q 148.6 88.8, 148.0 89.6 Q 147.4 90.3, 147.4 91.8 Q 147.4 93.2, 148.0 94.0 Q 148.6 94.7, 149.8 94.7 Q 150.6 94.7, 151.3 94.5 L 151.3 91.8 L 152.3 91.8 " fill="#000000"/>
<path class="atom-38" d="M 153.5 88.1 L 154.5 88.1 L 154.5 94.6 L 157.9 94.6 L 157.9 95.5 L 153.5 95.5 L 153.5 88.1 " fill="#000000"/>
<path class="atom-38" d="M 159.6 88.1 L 159.6 93.1 Q 159.6 93.9, 160.1 94.3 Q 160.6 94.7, 161.5 94.7 Q 162.5 94.7, 162.9 94.3 Q 163.4 93.9, 163.4 93.1 L 163.4 88.1 L 164.4 88.1 L 164.4 93.1 Q 164.4 94.3, 163.7 94.9 Q 163.0 95.5, 161.5 95.5 Q 160.1 95.5, 159.4 94.9 Q 158.6 94.3, 158.6 93.1 L 158.6 88.1 L 159.6 88.1 " fill="#000000"/>
<path class="atom-38" d="" fill="#000000"/>
<path class="atom-38" d="M 172.3 90.8 Q 173.0 90.8, 173.5 91.1 Q 174.0 91.4, 174.3 91.9 Q 174.6 92.4, 174.6 93.1 Q 174.6 93.9, 174.3 94.4 Q 173.9 95.0, 173.3 95.3 Q 172.7 95.5, 172.0 95.5 Q 171.3 95.5, 170.7 95.3 Q 170.1 95.0, 169.6 94.6 L 170.3 93.9 Q 170.6 94.3, 171.1 94.5 Q 171.5 94.7, 172.0 94.7 Q 172.7 94.7, 173.1 94.3 Q 173.6 93.9, 173.6 93.1 Q 173.6 92.4, 173.1 92.0 Q 172.7 91.6, 172.0 91.6 Q 171.3 91.6, 170.6 91.9 L 170.0 91.6 L 170.4 88.1 L 174.2 88.1 L 174.1 88.9 L 171.2 88.9 L 171.0 91.1 Q 171.7 90.8, 172.3 90.8 " fill="#000000"/>
<path class="atom-38" d="M 178.5 90.8 Q 179.1 90.8, 179.6 91.1 Q 180.2 91.4, 180.4 91.9 Q 180.7 92.4, 180.7 93.1 Q 180.7 93.8, 180.4 94.4 Q 180.1 94.9, 179.5 95.2 Q 179.0 95.5, 178.2 95.5 Q 176.9 95.5, 176.2 94.7 Q 175.6 93.8, 175.6 92.0 Q 175.6 90.0, 176.4 89.0 Q 177.2 88.0, 178.8 88.0 Q 179.3 88.0, 179.7 88.1 Q 180.1 88.2, 180.4 88.4 L 180.0 89.1 Q 179.5 88.8, 178.8 88.8 Q 177.8 88.8, 177.2 89.5 Q 176.7 90.2, 176.6 91.6 Q 177.0 91.2, 177.5 91.0 Q 178.0 90.8, 178.5 90.8 M 178.2 94.7 Q 178.6 94.7, 179.0 94.5 Q 179.3 94.3, 179.5 93.9 Q 179.7 93.5, 179.7 93.1 Q 179.7 92.4, 179.3 92.1 Q 178.9 91.7, 178.3 91.7 Q 177.9 91.7, 177.4 91.9 Q 177.0 92.0, 176.6 92.4 Q 176.7 93.6, 177.1 94.1 Q 177.5 94.7, 178.2 94.7 " fill="#000000"/>
<path class="atom-38" d="M 181.8 89.5 Q 182.0 88.8, 182.7 88.4 Q 183.3 88.0, 184.2 88.0 Q 185.4 88.0, 186.0 88.6 Q 186.6 89.2, 186.6 90.3 Q 186.6 91.4, 185.8 92.4 Q 185.0 93.4, 183.3 94.6 L 186.7 94.6 L 186.7 95.5 L 181.7 95.5 L 181.7 94.8 Q 183.1 93.8, 183.9 93.0 Q 184.8 92.3, 185.2 91.7 Q 185.6 91.0, 185.6 90.3 Q 185.6 89.6, 185.2 89.2 Q 184.9 88.8, 184.2 88.8 Q 183.6 88.8, 183.2 89.1 Q 182.8 89.3, 182.6 89.8 L 181.8 89.5 " fill="#000000"/>
<path class="atom-39" d="M 115.5 271.5 L 114.7 269.3 L 111.7 269.3 L 111.0 271.5 L 110.0 271.5 L 112.6 264.1 L 113.8 264.1 L 116.4 271.5 L 115.5 271.5 M 112.0 268.5 L 114.4 268.5 L 113.2 265.1 L 112.0 268.5 " fill="#000000"/>
<path class="atom-39" d="M 117.3 270.3 Q 117.4 270.4, 117.7 270.5 Q 118.1 270.7, 118.4 270.8 Q 118.8 270.8, 119.2 270.8 Q 119.9 270.8, 120.3 270.5 Q 120.7 270.2, 120.7 269.6 Q 120.7 269.2, 120.5 268.9 Q 120.3 268.7, 120.0 268.5 Q 119.7 268.4, 119.2 268.2 Q 118.5 268.0, 118.1 267.8 Q 117.7 267.7, 117.4 267.3 Q 117.2 266.9, 117.2 266.2 Q 117.2 265.3, 117.8 264.7 Q 118.4 264.1, 119.7 264.1 Q 120.5 264.1, 121.5 264.5 L 121.3 265.3 Q 120.4 265.0, 119.7 265.0 Q 119.0 265.0, 118.6 265.3 Q 118.2 265.6, 118.2 266.1 Q 118.2 266.5, 118.4 266.7 Q 118.6 266.9, 118.9 267.1 Q 119.2 267.2, 119.7 267.4 Q 120.4 267.6, 120.8 267.8 Q 121.2 268.0, 121.5 268.4 Q 121.8 268.8, 121.8 269.6 Q 121.8 270.6, 121.1 271.1 Q 120.4 271.7, 119.2 271.7 Q 118.6 271.7, 118.1 271.5 Q 117.6 271.4, 117.0 271.2 L 117.3 270.3 " fill="#000000"/>
<path class="atom-39" d="M 124.9 264.1 Q 126.1 264.1, 126.8 264.7 Q 127.4 265.2, 127.4 266.3 Q 127.4 267.3, 126.8 267.9 Q 126.1 268.4, 124.9 268.4 L 123.7 268.4 L 123.7 271.5 L 122.7 271.5 L 122.7 264.1 L 124.9 264.1 M 124.9 267.6 Q 125.6 267.6, 126.0 267.3 Q 126.4 266.9, 126.4 266.3 Q 126.4 265.6, 126.0 265.3 Q 125.6 264.9, 124.9 264.9 L 123.7 264.9 L 123.7 267.6 L 124.9 267.6 " fill="#000000"/>
<path class="atom-39" d="" fill="#000000"/>
<path class="atom-39" d="M 135.2 266.9 Q 135.8 266.9, 136.4 267.2 Q 136.9 267.4, 137.2 267.9 Q 137.4 268.5, 137.4 269.1 Q 137.4 269.8, 137.1 270.4 Q 136.8 271.0, 136.2 271.3 Q 135.7 271.6, 134.9 271.6 Q 133.6 271.6, 133.0 270.7 Q 132.3 269.8, 132.3 268.0 Q 132.3 266.0, 133.1 265.0 Q 133.9 264.0, 135.5 264.0 Q 136.0 264.0, 136.4 264.1 Q 136.8 264.2, 137.1 264.4 L 136.7 265.1 Q 136.2 264.8, 135.5 264.8 Q 134.5 264.8, 133.9 265.5 Q 133.4 266.2, 133.4 267.6 Q 133.7 267.2, 134.2 267.1 Q 134.7 266.9, 135.2 266.9 M 135.0 270.7 Q 135.4 270.7, 135.7 270.5 Q 136.0 270.3, 136.2 269.9 Q 136.4 269.6, 136.4 269.1 Q 136.4 268.5, 136.0 268.1 Q 135.7 267.7, 135.0 267.7 Q 134.6 267.7, 134.1 267.9 Q 133.7 268.1, 133.4 268.4 Q 133.4 269.6, 133.8 270.2 Q 134.2 270.7, 135.0 270.7 " fill="#000000"/>
<path class="atom-39" d="M 143.3 269.0 L 144.2 269.0 L 144.2 269.8 L 143.3 269.8 L 143.3 271.5 L 142.3 271.5 L 142.3 269.8 L 138.5 269.8 L 138.5 269.1 L 141.7 264.1 L 143.3 264.1 L 143.3 269.0 M 139.7 269.0 L 142.3 269.0 L 142.3 264.8 L 139.7 269.0 " fill="#000000"/>
<path class="atom-39" d="M 145.5 270.7 L 147.1 270.7 L 147.1 265.1 L 145.4 265.7 L 145.1 265.1 L 147.4 264.0 L 148.1 264.2 L 148.1 270.7 L 149.6 270.7 L 149.6 271.5 L 145.5 271.5 L 145.5 270.7 " fill="#000000"/>
<path class="atom-40" d="M 20.0 195.7 Q 20.0 193.9, 20.9 192.9 Q 21.7 191.9, 23.4 191.9 Q 24.9 191.9, 25.7 193.0 L 25.0 193.6 Q 24.4 192.8, 23.4 192.8 Q 22.2 192.8, 21.7 193.5 Q 21.1 194.3, 21.1 195.7 Q 21.1 197.2, 21.7 197.9 Q 22.3 198.7, 23.5 198.7 Q 24.3 198.7, 25.3 198.2 L 25.5 199.0 Q 25.2 199.2, 24.6 199.4 Q 24.0 199.5, 23.3 199.5 Q 21.7 199.5, 20.9 198.5 Q 20.0 197.5, 20.0 195.7 " fill="#000000"/>
<path class="atom-40" d="M 29.0 196.3 L 26.6 192.0 L 27.7 192.0 L 29.5 195.3 L 31.4 192.0 L 32.5 192.0 L 30.0 196.3 L 30.0 199.4 L 29.0 199.4 L 29.0 196.3 " fill="#000000"/>
<path class="atom-40" d="M 33.3 198.3 Q 33.3 198.3, 33.7 198.4 Q 34.0 198.6, 34.4 198.7 Q 34.8 198.8, 35.2 198.8 Q 35.9 198.8, 36.3 198.4 Q 36.7 198.1, 36.7 197.5 Q 36.7 197.1, 36.5 196.8 Q 36.3 196.6, 36.0 196.4 Q 35.7 196.3, 35.1 196.2 Q 34.5 196.0, 34.1 195.8 Q 33.7 195.6, 33.4 195.2 Q 33.1 194.8, 33.1 194.1 Q 33.1 193.2, 33.8 192.6 Q 34.4 192.0, 35.7 192.0 Q 36.5 192.0, 37.5 192.4 L 37.3 193.2 Q 36.4 192.9, 35.7 192.9 Q 35.0 192.9, 34.6 193.2 Q 34.2 193.5, 34.2 194.0 Q 34.2 194.4, 34.4 194.6 Q 34.6 194.9, 34.9 195.0 Q 35.2 195.1, 35.7 195.3 Q 36.4 195.5, 36.8 195.7 Q 37.2 195.9, 37.4 196.4 Q 37.7 196.8, 37.7 197.5 Q 37.7 198.5, 37.0 199.1 Q 36.4 199.6, 35.2 199.6 Q 34.6 199.6, 34.1 199.5 Q 33.6 199.3, 33.0 199.1 L 33.3 198.3 " fill="#000000"/>
<path class="atom-40" d="" fill="#000000"/>
<path class="atom-40" d="M 47.5 196.9 L 48.3 196.9 L 48.3 197.7 L 47.5 197.7 L 47.5 199.4 L 46.5 199.4 L 46.5 197.7 L 42.6 197.7 L 42.6 197.1 L 45.9 192.0 L 47.5 192.0 L 47.5 196.9 M 43.9 196.9 L 46.5 196.9 L 46.5 192.7 L 43.9 196.9 " fill="#000000"/>
<path class="atom-40" d="M 53.1 195.5 Q 53.8 195.8, 54.2 196.2 Q 54.6 196.7, 54.6 197.4 Q 54.6 198.0, 54.2 198.5 Q 53.9 199.0, 53.3 199.3 Q 52.7 199.5, 52.0 199.5 Q 50.7 199.5, 50.0 199.0 Q 49.3 198.4, 49.3 197.4 Q 49.3 196.8, 49.6 196.3 Q 50.0 195.9, 50.6 195.5 Q 50.1 195.3, 49.9 194.9 Q 49.6 194.4, 49.6 193.8 Q 49.6 193.0, 50.2 192.4 Q 50.9 191.9, 51.9 191.9 Q 53.0 191.9, 53.6 192.4 Q 54.3 193.0, 54.3 193.8 Q 54.3 194.4, 54.0 194.8 Q 53.7 195.2, 53.1 195.5 M 51.9 192.7 Q 51.3 192.7, 51.0 193.0 Q 50.6 193.3, 50.6 193.8 Q 50.6 194.2, 50.9 194.5 Q 51.1 194.7, 51.4 194.9 Q 51.8 195.0, 52.4 195.2 Q 52.8 194.9, 53.0 194.6 Q 53.2 194.2, 53.2 193.8 Q 53.2 193.3, 52.9 193.0 Q 52.6 192.7, 51.9 192.7 M 52.0 198.7 Q 52.7 198.7, 53.1 198.4 Q 53.5 198.0, 53.5 197.4 Q 53.5 197.0, 53.3 196.7 Q 53.1 196.5, 52.7 196.3 Q 52.4 196.2, 51.8 196.0 L 51.4 195.8 Q 50.8 196.2, 50.6 196.5 Q 50.4 196.9, 50.4 197.4 Q 50.4 198.0, 50.8 198.4 Q 51.2 198.7, 52.0 198.7 " fill="#000000"/>
<path class="atom-40" d="M 59.5 195.5 Q 60.1 195.8, 60.5 196.2 Q 60.9 196.7, 60.9 197.4 Q 60.9 198.0, 60.6 198.5 Q 60.3 199.0, 59.7 199.3 Q 59.1 199.5, 58.3 199.5 Q 57.1 199.5, 56.4 199.0 Q 55.7 198.4, 55.7 197.4 Q 55.7 196.8, 56.0 196.3 Q 56.3 195.9, 57.0 195.5 Q 56.5 195.3, 56.2 194.9 Q 56.0 194.4, 56.0 193.8 Q 56.0 193.0, 56.6 192.4 Q 57.2 191.9, 58.3 191.9 Q 59.4 191.9, 60.0 192.4 Q 60.6 193.0, 60.6 193.8 Q 60.6 194.4, 60.3 194.8 Q 60.0 195.2, 59.5 195.5 M 58.3 192.7 Q 57.7 192.7, 57.3 193.0 Q 57.0 193.3, 57.0 193.8 Q 57.0 194.2, 57.2 194.5 Q 57.5 194.7, 57.8 194.9 Q 58.1 195.0, 58.8 195.2 Q 59.2 194.9, 59.4 194.6 Q 59.6 194.2, 59.6 193.8 Q 59.6 193.3, 59.2 193.0 Q 58.9 192.7, 58.3 192.7 M 58.3 198.7 Q 59.0 198.7, 59.4 198.4 Q 59.9 198.0, 59.9 197.4 Q 59.9 197.0, 59.6 196.7 Q 59.4 196.5, 59.1 196.3 Q 58.8 196.2, 58.2 196.0 L 57.7 195.8 Q 57.2 196.2, 57.0 196.5 Q 56.7 196.9, 56.7 197.4 Q 56.7 198.0, 57.2 198.4 Q 57.6 198.7, 58.3 198.7 " fill="#000000"/>
<path class="legend" d="M 145.6 377.5 L 144.4 374.2 L 139.9 374.2 L 138.8 377.5 L 137.2 377.5 L 141.1 366.2 L 143.0 366.2 L 147.1 377.5 L 145.6 377.5 M 140.3 372.9 L 143.9 372.9 L 142.1 367.8 L 140.3 372.9 " fill="#000000"/>
<path class="legend" d="M 148.5 376.2 L 151.0 376.2 L 151.0 367.8 L 148.3 368.6 L 147.9 367.7 L 151.4 366.1 L 152.5 366.3 L 152.5 376.2 L 154.7 376.2 L 154.7 377.5 L 148.5 377.5 L 148.5 376.2 " fill="#000000"/>
<path class="legend" d="M 156.1 366.2 L 162.8 366.2 L 162.8 367.5 L 157.6 367.5 L 157.6 370.9 L 162.3 370.9 L 162.3 372.2 L 157.6 372.2 L 157.6 376.2 L 163.0 376.2 L 163.0 377.5 L 156.1 377.5 L 156.1 366.2 " fill="#000000"/>
<path class="legend" d="M 167.7 366.2 Q 169.7 366.2, 170.7 367.1 Q 171.6 367.9, 171.6 369.5 Q 171.6 371.1, 170.6 372.0 Q 169.6 372.8, 167.7 372.8 L 165.9 372.8 L 165.9 377.5 L 164.4 377.5 L 164.4 366.2 L 167.7 366.2 M 167.7 371.6 Q 168.8 371.6, 169.4 371.0 Q 170.0 370.5, 170.0 369.5 Q 170.0 368.5, 169.4 368.0 Q 168.9 367.5, 167.7 367.5 L 165.9 367.5 L 165.9 371.6 L 167.7 371.6 " fill="#000000"/>
<path class="legend" d="M 173.0 366.2 L 179.8 366.2 L 179.8 367.5 L 174.5 367.5 L 174.5 370.9 L 179.2 370.9 L 179.2 372.2 L 174.5 372.2 L 174.5 376.2 L 179.9 376.2 L 179.9 377.5 L 173.0 377.5 L 173.0 366.2 " fill="#000000"/>
<path class="legend" d="" fill="#000000"/>
<path class="legend" d="M 187.4 370.4 L 187.4 369.3 L 188.8 369.3 L 188.8 368.1 Q 188.8 366.7, 189.5 366.0 Q 190.3 365.3, 191.4 365.3 Q 192.0 365.3, 192.4 365.5 Q 192.9 365.6, 193.4 365.8 L 192.9 366.8 Q 192.2 366.5, 191.6 366.5 Q 191.0 366.5, 190.6 366.9 Q 190.3 367.3, 190.3 368.0 L 190.3 369.3 L 192.8 369.3 L 192.8 370.4 L 190.3 370.4 L 190.3 380.0 L 188.8 380.0 L 188.8 370.4 L 187.4 370.4 " fill="#000000"/>
<path class="legend" d="M 194.8 369.3 L 195.0 370.4 Q 195.9 369.1, 197.3 369.1 Q 197.7 369.1, 198.3 369.3 L 198.1 370.6 Q 197.4 370.5, 197.0 370.5 Q 196.4 370.5, 195.9 370.8 Q 195.5 371.0, 195.1 371.6 L 195.1 377.5 L 193.6 377.5 L 193.6 369.3 L 194.8 369.3 " fill="#000000"/>
<path class="legend" d="M 199.2 373.4 Q 199.2 371.4, 200.2 370.3 Q 201.3 369.1, 203.1 369.1 Q 205.0 369.1, 206.0 370.3 Q 207.0 371.4, 207.0 373.4 Q 207.0 375.4, 206.0 376.5 Q 205.0 377.6, 203.1 377.6 Q 201.3 377.6, 200.2 376.5 Q 199.2 375.4, 199.2 373.4 M 200.8 373.4 Q 200.8 374.9, 201.4 375.7 Q 202.0 376.4, 203.1 376.4 Q 204.3 376.4, 204.9 375.7 Q 205.5 374.9, 205.5 373.4 Q 205.5 371.9, 204.9 371.1 Q 204.3 370.3, 203.1 370.3 Q 202.0 370.3, 201.4 371.1 Q 200.8 371.9, 200.8 373.4 " fill="#000000"/>
<path class="legend" d="M 217.9 369.1 Q 219.3 369.1, 220.0 369.9 Q 220.7 370.6, 220.7 372.1 L 220.7 377.5 L 219.2 377.5 L 219.2 372.2 Q 219.2 371.2, 218.8 370.8 Q 218.5 370.3, 217.6 370.3 Q 216.9 370.3, 216.3 370.7 Q 215.7 371.0, 215.3 371.6 Q 215.3 371.8, 215.3 372.1 L 215.3 377.5 L 213.8 377.5 L 213.8 372.2 Q 213.8 371.2, 213.4 370.8 Q 213.1 370.3, 212.2 370.3 Q 211.5 370.3, 210.9 370.7 Q 210.3 371.0, 209.9 371.6 L 209.9 377.5 L 208.4 377.5 L 208.4 369.3 L 209.6 369.3 L 209.8 370.4 Q 210.9 369.1, 212.5 369.1 Q 214.5 369.1, 215.1 370.6 Q 216.2 369.1, 217.9 369.1 " fill="#000000"/>
<path class="legend" d="" fill="#000000"/>
<path class="legend" d="M 232.4 366.0 Q 234.4 366.0, 235.4 367.4 Q 236.4 368.8, 236.4 371.5 Q 236.4 374.5, 235.2 376.1 Q 233.9 377.6, 231.5 377.6 Q 230.8 377.6, 230.2 377.5 Q 229.6 377.3, 229.0 377.0 L 229.7 375.9 Q 230.5 376.4, 231.5 376.4 Q 233.1 376.4, 233.9 375.3 Q 234.7 374.3, 234.8 372.2 Q 234.2 372.7, 233.5 373.0 Q 232.8 373.2, 232.0 373.2 Q 231.0 373.2, 230.2 372.8 Q 229.4 372.4, 229.0 371.6 Q 228.6 370.8, 228.6 369.8 Q 228.6 368.7, 229.1 367.9 Q 229.6 367.0, 230.4 366.5 Q 231.3 366.0, 232.4 366.0 M 230.2 369.8 Q 230.2 370.8, 230.7 371.4 Q 231.3 372.0, 232.3 372.0 Q 233.0 372.0, 233.7 371.7 Q 234.3 371.4, 234.8 370.9 Q 234.8 369.1, 234.2 368.2 Q 233.6 367.4, 232.4 367.4 Q 231.8 367.4, 231.3 367.7 Q 230.8 368.0, 230.5 368.6 Q 230.2 369.1, 230.2 369.8 " fill="#000000"/>
<path class="legend" d="M 245.2 369.3 L 245.2 377.5 L 243.9 377.5 L 243.8 376.4 Q 242.7 377.6, 241.0 377.6 Q 239.6 377.6, 238.9 376.9 Q 238.2 376.2, 238.2 374.7 L 238.2 369.3 L 239.7 369.3 L 239.7 374.6 Q 239.7 375.6, 240.0 376.0 Q 240.4 376.5, 241.3 376.5 Q 242.0 376.5, 242.6 376.1 Q 243.3 375.8, 243.7 375.2 L 243.7 369.3 L 245.2 369.3 " fill="#000000"/>
<path class="legend" d="M 251.4 369.1 Q 252.7 369.1, 253.4 369.9 Q 254.1 370.6, 254.1 372.1 L 254.1 377.5 L 252.6 377.5 L 252.6 372.2 Q 252.6 371.2, 252.2 370.8 Q 251.9 370.3, 251.0 370.3 Q 250.3 370.3, 249.7 370.7 Q 249.0 371.0, 248.6 371.6 L 248.6 377.5 L 247.1 377.5 L 247.1 365.4 L 248.6 365.4 L 248.6 370.3 Q 249.7 369.1, 251.4 369.1 " fill="#000000"/>
<path class="legend" d="M 256.0 373.4 Q 256.0 371.4, 257.0 370.3 Q 258.0 369.1, 259.9 369.1 Q 261.8 369.1, 262.8 370.5 L 261.8 371.2 Q 261.4 370.8, 260.9 370.6 Q 260.5 370.3, 259.9 370.3 Q 258.8 370.3, 258.2 371.1 Q 257.5 371.9, 257.5 373.4 Q 257.5 374.9, 258.2 375.7 Q 258.8 376.4, 260.0 376.4 Q 260.7 376.4, 261.2 376.3 Q 261.6 376.1, 262.2 375.9 L 262.6 376.9 Q 261.4 377.6, 259.9 377.6 Q 258.0 377.6, 257.0 376.5 Q 256.0 375.4, 256.0 373.4 " fill="#000000"/>
</svg>