<svg xmlns="http://www.w3.org/2000/svg" xmlns:rdkit="http://www.rdkit.org/xml" xmlns:xlink="http://www.w3.org/1999/xlink" version="1.1" baseProfile="full" xml:space="preserve" width="450px" height="250px" viewBox="0 0 450 250">
<!-- END OF HEADER -->
<rect style="opacity:1.0;fill:#FFFFFF;stroke:none" width="450.0" height="250.0" x="0.0" y="0.0"> </rect>
<path class="bond-0 atom-0 atom-1" d="M 161.5,12.5 L 191.6,29.8" style="fill:none;fill-rule:evenodd;stroke:#7F7F7F;stroke-width:2.0px;stroke-linecap:butt;stroke-linejoin:miter;stroke-opacity:1;stroke-dasharray:2,6"/>
<path class="bond-1 atom-1 atom-2" d="M 191.6,29.8 L 191.6,64.4" style="fill:none;fill-rule:evenodd;stroke:#7F7F7F;stroke-width:2.0px;stroke-linecap:butt;stroke-linejoin:miter;stroke-opacity:1"/>
<ellipse cx="191.6" cy="50.5" rx="3.5" ry="3.5" style="fill:none;stroke:#7F7F7F;stroke-width:1.0px;stroke-linecap:butt;stroke-linejoin:miter;stroke-opacity:1"/>
<ellipse cx="191.6" cy="43.6" rx="3.5" ry="3.5" style="fill:none;stroke:#7F7F7F;stroke-width:1.0px;stroke-linecap:butt;stroke-linejoin:miter;stroke-opacity:1"/>
<path class="bond-2 atom-2 atom-3" d="M 191.6,64.4 L 199.9,69.2" style="fill:none;fill-rule:evenodd;stroke:#7F7F7F;stroke-width:2.0px;stroke-linecap:butt;stroke-linejoin:miter;stroke-opacity:1"/>
<path class="bond-2 atom-2 atom-3" d="M 199.9,69.2 L 208.2,73.9" style="fill:none;fill-rule:evenodd;stroke:#7F7F7F;stroke-width:2.0px;stroke-linecap:butt;stroke-linejoin:miter;stroke-opacity:1"/>
<ellipse cx="206.3" cy="72.8" rx="3.5" ry="3.5" style="fill:none;stroke:#7F7F7F;stroke-width:1.0px;stroke-linecap:butt;stroke-linejoin:miter;stroke-opacity:1"/>
<ellipse cx="200.3" cy="69.4" rx="3.5" ry="3.5" style="fill:none;stroke:#7F7F7F;stroke-width:1.0px;stroke-linecap:butt;stroke-linejoin:miter;stroke-opacity:1"/>
<path class="bond-3 atom-3 atom-4" d="M 235.1,73.9 L 243.4,69.1" style="fill:none;fill-rule:evenodd;stroke:#7F7F7F;stroke-width:2.0px;stroke-linecap:butt;stroke-linejoin:miter;stroke-opacity:1"/>
<path class="bond-3 atom-3 atom-4" d="M 243.4,69.1 L 251.6,64.3" style="fill:none;fill-rule:evenodd;stroke:#7F7F7F;stroke-width:2.0px;stroke-linecap:butt;stroke-linejoin:miter;stroke-opacity:1"/>
<path class="bond-3 atom-3 atom-4" d="M 245.0,68.1 L 245.0,73.9 L 240.0,76.8 L 235.0,73.9 L 235.0,68.1 L 240.0,65.2 L 245.0,68.1" style="fill:none;stroke:#7F7F7F;stroke-width:1.0px;stroke-linecap:butt;stroke-linejoin:miter;stroke-miterlimit:10;stroke-opacity:1;"/>
<path class="bond-4 atom-4 atom-5" d="M 251.6,64.3 L 281.7,81.5" style="fill:none;fill-rule:evenodd;stroke:#7F7F7F;stroke-width:2.0px;stroke-linecap:butt;stroke-linejoin:miter;stroke-opacity:1"/>
<path class="bond-4 atom-4 atom-5" d="M 271.7,75.8 L 266.7,78.7 L 261.6,75.8 L 261.6,70.0 L 266.6,67.1 L 271.6,70.0 L 271.7,75.8" style="fill:none;stroke:#7F7F7F;stroke-width:1.0px;stroke-linecap:butt;stroke-linejoin:miter;stroke-miterlimit:10;stroke-opacity:1;"/>
<path class="bond-5 atom-5 atom-6" d="M 281.7,81.5 L 281.7,90.3" style="fill:none;fill-rule:evenodd;stroke:#7F7F7F;stroke-width:2.0px;stroke-linecap:butt;stroke-linejoin:miter;stroke-opacity:1"/>
<path class="bond-5 atom-5 atom-6" d="M 281.7,90.3 L 281.7,99.0" style="fill:none;fill-rule:evenodd;stroke:#7F7F7F;stroke-width:2.0px;stroke-linecap:butt;stroke-linejoin:miter;stroke-opacity:1"/>
<path class="bond-5 atom-5 atom-6" d="M 281.7,100.3 L 276.7,97.5 L 276.7,91.7 L 281.7,88.8 L 286.7,91.7 L 286.7,97.4 L 281.7,100.3" style="fill:none;stroke:#7F7F7F;stroke-width:1.0px;stroke-linecap:butt;stroke-linejoin:miter;stroke-miterlimit:10;stroke-opacity:1;"/>
<path class="bond-6 atom-6 atom-7" d="M 265.9,125.4 L 258.8,129.5" style="fill:none;fill-rule:evenodd;stroke:#7F7F7F;stroke-width:2.0px;stroke-linecap:butt;stroke-linejoin:miter;stroke-opacity:1"/>
<path class="bond-6 atom-6 atom-7" d="M 258.8,129.5 L 251.8,133.6" style="fill:none;fill-rule:evenodd;stroke:#7F7F7F;stroke-width:2.0px;stroke-linecap:butt;stroke-linejoin:miter;stroke-opacity:1"/>
<path class="bond-6 atom-6 atom-7" d="M 257.8,130.1 L 257.8,124.3 L 262.8,121.4 L 267.8,124.3 L 267.8,130.0 L 262.8,132.9 L 257.8,130.1" style="fill:none;stroke:#7F7F7F;stroke-width:1.0px;stroke-linecap:butt;stroke-linejoin:miter;stroke-miterlimit:10;stroke-opacity:1;"/>
<path class="bond-7 atom-7 atom-8" d="M 251.8,133.6 L 221.7,116.3" style="fill:none;fill-rule:evenodd;stroke:#7F7F7F;stroke-width:2.0px;stroke-linecap:butt;stroke-linejoin:miter;stroke-opacity:1"/>
<path class="bond-7 atom-7 atom-8" d="M 231.7,122.1 L 236.7,119.2 L 241.7,122.0 L 241.8,127.8 L 236.8,130.7 L 231.8,127.8 L 231.7,122.1" style="fill:none;stroke:#7F7F7F;stroke-width:1.0px;stroke-linecap:butt;stroke-linejoin:miter;stroke-miterlimit:10;stroke-opacity:1;"/>
<path class="bond-8 atom-7 atom-9" d="M 251.8,133.6 L 251.8,168.2" style="fill:none;fill-rule:evenodd;stroke:#7F7F7F;stroke-width:2.0px;stroke-linecap:butt;stroke-linejoin:miter;stroke-opacity:1"/>
<ellipse cx="251.8" cy="154.4" rx="3.5" ry="3.5" style="fill:none;stroke:#7F7F7F;stroke-width:1.0px;stroke-linecap:butt;stroke-linejoin:miter;stroke-opacity:1"/>
<ellipse cx="251.8" cy="147.4" rx="3.5" ry="3.5" style="fill:none;stroke:#7F7F7F;stroke-width:1.0px;stroke-linecap:butt;stroke-linejoin:miter;stroke-opacity:1"/>
<path class="bond-9 atom-9 atom-10" d="M 251.8,168.2 L 281.9,185.5" style="fill:none;fill-rule:evenodd;stroke:#7F7F7F;stroke-width:2.0px;stroke-linecap:butt;stroke-linejoin:miter;stroke-opacity:1"/>
<path class="bond-9 atom-9 atom-10" d="M 251.8,174.2 L 276.7,188.5" style="fill:none;fill-rule:evenodd;stroke:#7F7F7F;stroke-width:2.0px;stroke-linecap:butt;stroke-linejoin:miter;stroke-opacity:1;stroke-dasharray:6,4"/>
<path class="bond-9 atom-9 atom-10" d="M 271.9,179.7 L 266.9,182.6 L 261.9,179.7 L 261.8,174.0 L 266.8,171.1 L 271.9,173.9 L 271.9,179.7" style="fill:none;stroke:#7F7F7F;stroke-width:1.0px;stroke-linecap:butt;stroke-linejoin:miter;stroke-miterlimit:10;stroke-opacity:1;"/>
<path class="bond-10 atom-10 atom-11" d="M 281.9,185.5 L 281.9,220.1" style="fill:none;fill-rule:evenodd;stroke:#7F7F7F;stroke-width:2.0px;stroke-linecap:butt;stroke-linejoin:miter;stroke-opacity:1"/>
<path class="bond-10 atom-10 atom-11" d="M 276.7,188.5 L 276.7,217.1" style="fill:none;fill-rule:evenodd;stroke:#7F7F7F;stroke-width:2.0px;stroke-linecap:butt;stroke-linejoin:miter;stroke-opacity:1;stroke-dasharray:6,4"/>
<path class="bond-10 atom-10 atom-11" d="M 281.9,208.6 L 276.9,205.7 L 276.9,199.9 L 281.9,197.0 L 286.9,199.9 L 286.9,205.7 L 281.9,208.6" style="fill:none;stroke:#7F7F7F;stroke-width:1.0px;stroke-linecap:butt;stroke-linejoin:miter;stroke-miterlimit:10;stroke-opacity:1;"/>
<path class="bond-11 atom-11 atom-12" d="M 281.9,220.1 L 252.0,237.5" style="fill:none;fill-rule:evenodd;stroke:#7F7F7F;stroke-width:2.0px;stroke-linecap:butt;stroke-linejoin:miter;stroke-opacity:1"/>
<path class="bond-11 atom-11 atom-12" d="M 276.7,217.1 L 252.0,231.5" style="fill:none;fill-rule:evenodd;stroke:#7F7F7F;stroke-width:2.0px;stroke-linecap:butt;stroke-linejoin:miter;stroke-opacity:1;stroke-dasharray:6,4"/>
<path class="bond-11 atom-11 atom-12" d="M 262.0,231.7 L 261.9,225.9 L 266.9,223.0 L 272.0,225.9 L 272.0,231.7 L 267.0,234.6 L 262.0,231.7" style="fill:none;stroke:#7F7F7F;stroke-width:1.0px;stroke-linecap:butt;stroke-linejoin:miter;stroke-miterlimit:10;stroke-opacity:1;"/>
<path class="bond-12 atom-12 atom-13" d="M 252.0,237.5 L 221.9,220.2" style="fill:none;fill-rule:evenodd;stroke:#7F7F7F;stroke-width:2.0px;stroke-linecap:butt;stroke-linejoin:miter;stroke-opacity:1"/>
<path class="bond-12 atom-12 atom-13" d="M 252.0,231.5 L 227.1,217.2" style="fill:none;fill-rule:evenodd;stroke:#7F7F7F;stroke-width:2.0px;stroke-linecap:butt;stroke-linejoin:miter;stroke-opacity:1;stroke-dasharray:6,4"/>
<path class="bond-12 atom-12 atom-13" d="M 231.9,226.0 L 236.9,223.1 L 241.9,226.0 L 242.0,231.7 L 237.0,234.6 L 232.0,231.8 L 231.9,226.0" style="fill:none;stroke:#7F7F7F;stroke-width:1.0px;stroke-linecap:butt;stroke-linejoin:miter;stroke-miterlimit:10;stroke-opacity:1;"/>
<path class="bond-13 atom-13 atom-14" d="M 221.9,220.2 L 221.9,185.6" style="fill:none;fill-rule:evenodd;stroke:#7F7F7F;stroke-width:2.0px;stroke-linecap:butt;stroke-linejoin:miter;stroke-opacity:1"/>
<path class="bond-13 atom-13 atom-14" d="M 227.1,217.2 L 227.1,188.6" style="fill:none;fill-rule:evenodd;stroke:#7F7F7F;stroke-width:2.0px;stroke-linecap:butt;stroke-linejoin:miter;stroke-opacity:1;stroke-dasharray:6,4"/>
<path class="bond-13 atom-13 atom-14" d="M 221.9,197.1 L 226.9,200.0 L 226.9,205.8 L 221.9,208.7 L 216.9,205.8 L 216.9,200.0 L 221.9,197.1" style="fill:none;stroke:#7F7F7F;stroke-width:1.0px;stroke-linecap:butt;stroke-linejoin:miter;stroke-miterlimit:10;stroke-opacity:1;"/>
<path class="bond-14 atom-8 atom-3" d="M 221.7,116.3 L 221.7,107.5" style="fill:none;fill-rule:evenodd;stroke:#7F7F7F;stroke-width:2.0px;stroke-linecap:butt;stroke-linejoin:miter;stroke-opacity:1"/>
<path class="bond-14 atom-8 atom-3" d="M 221.7,107.5 L 221.7,98.7" style="fill:none;fill-rule:evenodd;stroke:#7F7F7F;stroke-width:2.0px;stroke-linecap:butt;stroke-linejoin:miter;stroke-opacity:1"/>
<path class="bond-14 atom-8 atom-3" d="M 221.7,97.5 L 226.7,100.3 L 226.7,106.1 L 221.7,109.0 L 216.7,106.1 L 216.7,100.4 L 221.7,97.5" style="fill:none;stroke:#7F7F7F;stroke-width:1.0px;stroke-linecap:butt;stroke-linejoin:miter;stroke-miterlimit:10;stroke-opacity:1;"/>
<path class="bond-15 atom-14 atom-9" d="M 221.9,185.6 L 251.8,168.2" style="fill:none;fill-rule:evenodd;stroke:#7F7F7F;stroke-width:2.0px;stroke-linecap:butt;stroke-linejoin:miter;stroke-opacity:1"/>
<path class="bond-15 atom-14 atom-9" d="M 227.1,188.6 L 251.8,174.2" style="fill:none;fill-rule:evenodd;stroke:#7F7F7F;stroke-width:2.0px;stroke-linecap:butt;stroke-linejoin:miter;stroke-opacity:1;stroke-dasharray:6,4"/>
<path class="bond-15 atom-14 atom-9" d="M 241.8,174.0 L 241.9,179.8 L 236.9,182.7 L 231.9,179.8 L 231.8,174.0 L 236.8,171.1 L 241.8,174.0" style="fill:none;stroke:#7F7F7F;stroke-width:1.0px;stroke-linecap:butt;stroke-linejoin:miter;stroke-miterlimit:10;stroke-opacity:1;"/>
<path d="M 191.6,62.7 L 191.6,64.4 L 192.0,64.6" style="fill:none;stroke:#7F7F7F;stroke-width:2.0px;stroke-linecap:butt;stroke-linejoin:miter;stroke-miterlimit:10;stroke-opacity:1;"/>
<path d="M 251.2,64.5 L 251.6,64.3 L 253.1,65.1" style="fill:none;stroke:#7F7F7F;stroke-width:2.0px;stroke-linecap:butt;stroke-linejoin:miter;stroke-miterlimit:10;stroke-opacity:1;"/>
<path d="M 280.2,80.7 L 281.7,81.5 L 281.7,82.0" style="fill:none;stroke:#7F7F7F;stroke-width:2.0px;stroke-linecap:butt;stroke-linejoin:miter;stroke-miterlimit:10;stroke-opacity:1;"/>
<path d="M 223.2,117.2 L 221.7,116.3 L 221.7,115.9" style="fill:none;stroke:#7F7F7F;stroke-width:2.0px;stroke-linecap:butt;stroke-linejoin:miter;stroke-miterlimit:10;stroke-opacity:1;"/>
<path d="M 280.4,184.6 L 281.9,185.5 L 281.9,187.2" style="fill:none;stroke:#7F7F7F;stroke-width:2.0px;stroke-linecap:butt;stroke-linejoin:miter;stroke-miterlimit:10;stroke-opacity:1;"/>
<path d="M 281.9,218.4 L 281.9,220.1 L 280.4,221.0" style="fill:none;stroke:#7F7F7F;stroke-width:2.0px;stroke-linecap:butt;stroke-linejoin:miter;stroke-miterlimit:10;stroke-opacity:1;"/>
<path d="M 253.5,236.6 L 252.0,237.5 L 250.5,236.6" style="fill:none;stroke:#7F7F7F;stroke-width:2.0px;stroke-linecap:butt;stroke-linejoin:miter;stroke-miterlimit:10;stroke-opacity:1;"/>
<path d="M 223.4,221.1 L 221.9,220.2 L 221.9,218.5" style="fill:none;stroke:#7F7F7F;stroke-width:2.0px;stroke-linecap:butt;stroke-linejoin:miter;stroke-miterlimit:10;stroke-opacity:1;"/>
<path d="M 221.9,187.3 L 221.9,185.6 L 223.4,184.7" style="fill:none;stroke:#7F7F7F;stroke-width:2.0px;stroke-linecap:butt;stroke-linejoin:miter;stroke-miterlimit:10;stroke-opacity:1;"/>
<path class="atom-3" d="M 218.4 74.3 L 223.2 82.1 Q 223.7 82.9, 224.5 84.3 Q 225.2 85.7, 225.3 85.7 L 225.3 74.3 L 227.2 74.3 L 227.2 89.0 L 225.2 89.0 L 220.0 80.5 Q 219.4 79.5, 218.8 78.4 Q 218.2 77.2, 218.0 76.9 L 218.0 89.0 L 216.1 89.0 L 216.1 74.3 L 218.4 74.3 " fill="#0000FF"/>
<path class="atom-6" d="M 275.0 116.2 Q 275.0 112.7, 276.7 110.7 Q 278.5 108.7, 281.7 108.7 Q 285.0 108.7, 286.7 110.7 Q 288.5 112.7, 288.5 116.2 Q 288.5 119.8, 286.7 121.8 Q 285.0 123.9, 281.7 123.9 Q 278.5 123.9, 276.7 121.8 Q 275.0 119.8, 275.0 116.2 M 281.7 122.2 Q 284.0 122.2, 285.2 120.7 Q 286.4 119.2, 286.4 116.2 Q 286.4 113.3, 285.2 111.9 Q 284.0 110.4, 281.7 110.4 Q 279.5 110.4, 278.3 111.9 Q 277.1 113.3, 277.1 116.2 Q 277.1 119.2, 278.3 120.7 Q 279.5 122.2, 281.7 122.2 " fill="#FF0000"/>
</svg>