<svg xmlns="http://www.w3.org/2000/svg" xmlns:rdkit="http://www.rdkit.org/xml" xmlns:xlink="http://www.w3.org/1999/xlink" version="1.1" baseProfile="full" xml:space="preserve" width="750px" height="150px" viewBox="0 0 750 150">
<!-- END OF HEADER -->
<rect style="opacity:1.0;fill:#FFFFFF;stroke:none" width="150.0" height="150.0" x="0.0" y="0.0"> </rect>
<ellipse cx="75.0" cy="49.7" rx="10.4" ry="10.4" class="atom-1" style="fill:#E5E533;fill-rule:evenodd;stroke:#E5E533;stroke-width:1.0px;stroke-linecap:butt;stroke-linejoin:miter;stroke-opacity:1"/>
<ellipse cx="45.0" cy="67.0" rx="10.4" ry="10.4" class="atom-2" style="fill:#E5E533;fill-rule:evenodd;stroke:#E5E533;stroke-width:1.0px;stroke-linecap:butt;stroke-linejoin:miter;stroke-opacity:1"/>
<ellipse cx="105.0" cy="67.0" rx="10.4" ry="10.4" class="atom-3" style="fill:#E5E533;fill-rule:evenodd;stroke:#E5E533;stroke-width:1.0px;stroke-linecap:butt;stroke-linejoin:miter;stroke-opacity:1"/>
<ellipse cx="45.0" cy="101.7" rx="10.4" ry="10.4" class="atom-4" style="fill:#E5E533;fill-rule:evenodd;stroke:#E5E533;stroke-width:1.0px;stroke-linecap:butt;stroke-linejoin:miter;stroke-opacity:1"/>
<ellipse cx="105.0" cy="101.7" rx="10.4" ry="10.4" class="atom-5" style="fill:#E5E533;fill-rule:evenodd;stroke:#E5E533;stroke-width:1.0px;stroke-linecap:butt;stroke-linejoin:miter;stroke-opacity:1"/>
<ellipse cx="75.0" cy="119.1" rx="10.4" ry="10.4" class="atom-6" style="fill:#9999E5;fill-rule:evenodd;stroke:#9999E5;stroke-width:1.0px;stroke-linecap:butt;stroke-linejoin:miter;stroke-opacity:1"/>
<path class="bond-0 atom-0 atom-1" d="M 75.0,15.4 L 75.0,49.7" style="fill:none;fill-rule:evenodd;stroke:#E5E5E5;stroke-width:2.8px;stroke-linecap:butt;stroke-linejoin:miter;stroke-opacity:1"/>
<path class="bond-1 atom-1 atom-2" d="M 75.0,49.7 L 45.0,67.0" style="fill:none;fill-rule:evenodd;stroke:#000000;stroke-width:2.0px;stroke-linecap:butt;stroke-linejoin:miter;stroke-opacity:1"/>
<path class="bond-2 atom-1 atom-3" d="M 75.0,49.7 L 105.0,67.0" style="fill:none;fill-rule:evenodd;stroke:#000000;stroke-width:2.0px;stroke-linecap:butt;stroke-linejoin:miter;stroke-opacity:1"/>
<path class="bond-2 atom-1 atom-3" d="M 75.0,55.7 L 99.8,70.0" style="fill:none;fill-rule:evenodd;stroke:#000000;stroke-width:2.0px;stroke-linecap:butt;stroke-linejoin:miter;stroke-opacity:1"/>
<path class="bond-3 atom-2 atom-4" d="M 45.0,67.0 L 45.0,101.7" style="fill:none;fill-rule:evenodd;stroke:#000000;stroke-width:2.0px;stroke-linecap:butt;stroke-linejoin:miter;stroke-opacity:1"/>
<path class="bond-3 atom-2 atom-4" d="M 50.2,70.0 L 50.2,98.7" style="fill:none;fill-rule:evenodd;stroke:#000000;stroke-width:2.0px;stroke-linecap:butt;stroke-linejoin:miter;stroke-opacity:1"/>
<path class="bond-4 atom-3 atom-5" d="M 105.0,67.0 L 105.0,101.7" style="fill:none;fill-rule:evenodd;stroke:#000000;stroke-width:2.0px;stroke-linecap:butt;stroke-linejoin:miter;stroke-opacity:1"/>
<path class="bond-5 atom-4 atom-6" d="M 45.0,101.7 L 75.0,119.1" style="fill:none;fill-rule:evenodd;stroke:#000000;stroke-width:2.0px;stroke-linecap:butt;stroke-linejoin:miter;stroke-opacity:1"/>
<path class="bond-6 atom-5 atom-6" d="M 105.0,101.7 L 75.0,119.1" style="fill:none;fill-rule:evenodd;stroke:#000000;stroke-width:2.0px;stroke-linecap:butt;stroke-linejoin:miter;stroke-opacity:1"/>
<path class="bond-6 atom-5 atom-6" d="M 99.8,98.7 L 75.0,113.1" style="fill:none;fill-rule:evenodd;stroke:#000000;stroke-width:2.0px;stroke-linecap:butt;stroke-linejoin:miter;stroke-opacity:1"/>
<path d="M 46.5,66.2 L 45.0,67.0 L 45.0,68.8" style="fill:none;stroke:#000000;stroke-width:2.0px;stroke-linecap:butt;stroke-linejoin:miter;stroke-opacity:1;"/>
<path d="M 103.5,66.2 L 105.0,67.0 L 105.0,68.8" style="fill:none;stroke:#000000;stroke-width:2.0px;stroke-linecap:butt;stroke-linejoin:miter;stroke-opacity:1;"/>
<path d="M 45.0,100.0 L 45.0,101.7 L 46.5,102.6" style="fill:none;stroke:#000000;stroke-width:2.0px;stroke-linecap:butt;stroke-linejoin:miter;stroke-opacity:1;"/>
<path d="M 105.0,100.0 L 105.0,101.7 L 103.5,102.6" style="fill:none;stroke:#000000;stroke-width:2.0px;stroke-linecap:butt;stroke-linejoin:miter;stroke-opacity:1;"/>
<path d="M 73.5,118.2 L 75.0,119.1 L 76.5,118.2" style="fill:none;stroke:#000000;stroke-width:2.0px;stroke-linecap:butt;stroke-linejoin:miter;stroke-opacity:1;"/>
<path class="atom-0" d="M 72.2 13.4 L 74.4 11.1 L 71.5 10.6 L 72.0 9.1 L 74.6 10.4 L 74.2 7.5 L 75.8 7.5 L 75.3 10.4 L 78.0 9.1 L 78.5 10.6 L 75.6 11.1 L 77.7 13.3 L 76.4 14.2 L 74.9 11.5 L 73.5 14.2 L 72.2 13.4 " fill="#191919"/>
<path class="legend" d="M 38.0 135.3 Q 39.0 135.3, 39.8 135.7 Q 40.6 136.1, 41.0 136.9 Q 41.4 137.7, 41.4 138.7 Q 41.4 139.8, 40.9 140.7 Q 40.4 141.5, 39.6 142.0 Q 38.7 142.5, 37.6 142.5 Q 35.6 142.5, 34.6 141.1 Q 33.6 139.7, 33.6 137.0 Q 33.6 134.0, 34.8 132.5 Q 36.1 130.9, 38.5 130.9 Q 39.2 130.9, 39.8 131.0 Q 40.4 131.2, 41.0 131.5 L 40.4 132.6 Q 39.5 132.2, 38.5 132.2 Q 36.9 132.2, 36.1 133.2 Q 35.3 134.2, 35.2 136.4 Q 35.8 135.8, 36.5 135.6 Q 37.2 135.3, 38.0 135.3 M 37.6 141.2 Q 38.2 141.2, 38.7 140.8 Q 39.2 140.5, 39.5 140.0 Q 39.8 139.4, 39.8 138.7 Q 39.8 137.7, 39.3 137.1 Q 38.7 136.5, 37.7 136.5 Q 37.0 136.5, 36.3 136.8 Q 35.7 137.1, 35.2 137.6 Q 35.2 139.5, 35.8 140.3 Q 36.4 141.2, 37.6 141.2 " fill="#000000"/>
<path class="legend" d="M 48.5 136.4 Q 49.6 136.7, 50.1 137.4 Q 50.7 138.1, 50.7 139.2 Q 50.7 140.2, 50.2 140.9 Q 49.7 141.7, 48.8 142.1 Q 48.0 142.5, 46.8 142.5 Q 45.6 142.5, 44.7 142.1 Q 43.8 141.7, 43.1 140.8 L 44.0 139.9 Q 44.7 140.6, 45.3 140.9 Q 45.9 141.2, 46.8 141.2 Q 47.8 141.2, 48.5 140.7 Q 49.1 140.1, 49.1 139.2 Q 49.1 138.1, 48.4 137.6 Q 47.8 137.0, 46.4 137.0 L 45.6 137.0 L 45.6 135.9 L 46.3 135.9 Q 47.5 135.9, 48.2 135.3 Q 48.8 134.8, 48.8 133.8 Q 48.8 133.0, 48.3 132.6 Q 47.8 132.2, 46.8 132.2 Q 45.9 132.2, 45.3 132.5 Q 44.7 132.8, 44.3 133.7 L 43.2 133.1 Q 43.6 132.1, 44.5 131.5 Q 45.5 130.9, 46.8 130.9 Q 48.5 130.9, 49.5 131.7 Q 50.4 132.5, 50.4 133.8 Q 50.4 134.7, 49.9 135.3 Q 49.4 136.0, 48.5 136.4 " fill="#000000"/>
<path class="legend" d="M 58.2 136.3 Q 59.2 136.8, 59.8 137.5 Q 60.4 138.1, 60.4 139.2 Q 60.4 140.2, 59.9 140.9 Q 59.4 141.7, 58.5 142.1 Q 57.6 142.5, 56.5 142.5 Q 54.6 142.5, 53.5 141.6 Q 52.4 140.8, 52.4 139.2 Q 52.4 138.3, 52.9 137.6 Q 53.3 136.9, 54.3 136.4 Q 53.6 136.0, 53.2 135.4 Q 52.8 134.7, 52.8 133.8 Q 52.8 132.5, 53.8 131.7 Q 54.7 130.9, 56.4 130.9 Q 58.0 130.9, 59.0 131.7 Q 60.0 132.5, 60.0 133.8 Q 60.0 134.6, 59.5 135.2 Q 59.1 135.8, 58.2 136.3 M 56.4 132.1 Q 55.4 132.1, 54.9 132.5 Q 54.4 133.0, 54.4 133.8 Q 54.4 134.4, 54.8 134.8 Q 55.1 135.2, 55.6 135.4 Q 56.1 135.6, 57.1 135.9 Q 57.8 135.5, 58.1 134.9 Q 58.4 134.4, 58.4 133.8 Q 58.4 133.0, 57.8 132.5 Q 57.3 132.1, 56.4 132.1 M 56.5 141.3 Q 57.5 141.3, 58.1 140.7 Q 58.8 140.2, 58.8 139.2 Q 58.8 138.6, 58.5 138.2 Q 58.1 137.8, 57.6 137.6 Q 57.1 137.4, 56.2 137.1 L 55.5 136.9 Q 54.7 137.3, 54.3 137.9 Q 54.0 138.5, 54.0 139.2 Q 54.0 140.2, 54.7 140.7 Q 55.3 141.3, 56.5 141.3 " fill="#000000"/>
<path class="legend" d="M 62.2 133.2 Q 62.6 132.1, 63.6 131.5 Q 64.6 130.9, 66.0 130.9 Q 67.7 130.9, 68.6 131.8 Q 69.6 132.7, 69.6 134.4 Q 69.6 136.1, 68.3 137.6 Q 67.1 139.2, 64.6 141.1 L 69.8 141.1 L 69.8 142.3 L 62.2 142.3 L 62.2 141.3 Q 64.3 139.8, 65.5 138.6 Q 66.8 137.5, 67.4 136.5 Q 68.0 135.5, 68.0 134.5 Q 68.0 133.4, 67.5 132.8 Q 66.9 132.2, 66.0 132.2 Q 65.1 132.2, 64.4 132.5 Q 63.8 132.9, 63.4 133.7 L 62.2 133.2 " fill="#000000"/>
<path class="legend" d="M 72.1 141.1 L 74.6 141.1 L 74.6 132.6 L 71.9 133.4 L 71.5 132.5 L 75.0 130.9 L 76.1 131.1 L 76.1 141.1 L 78.3 141.1 L 78.3 142.3 L 72.1 142.3 L 72.1 141.1 " fill="#000000"/>
<path class="legend" d="M 85.2 136.4 Q 86.3 136.7, 86.8 137.4 Q 87.4 138.1, 87.4 139.2 Q 87.4 140.2, 86.9 140.9 Q 86.4 141.7, 85.5 142.1 Q 84.7 142.5, 83.5 142.5 Q 82.3 142.5, 81.4 142.1 Q 80.5 141.7, 79.8 140.8 L 80.7 139.9 Q 81.4 140.6, 82.0 140.9 Q 82.6 141.2, 83.5 141.2 Q 84.5 141.2, 85.2 140.7 Q 85.8 140.1, 85.8 139.2 Q 85.8 138.1, 85.1 137.6 Q 84.5 137.0, 83.1 137.0 L 82.3 137.0 L 82.3 135.9 L 83.0 135.9 Q 84.2 135.9, 84.9 135.3 Q 85.5 134.8, 85.5 133.8 Q 85.5 133.0, 85.0 132.6 Q 84.5 132.2, 83.5 132.2 Q 82.6 132.2, 82.0 132.5 Q 81.4 132.8, 81.0 133.7 L 79.9 133.1 Q 80.3 132.1, 81.2 131.5 Q 82.2 130.9, 83.5 130.9 Q 85.2 130.9, 86.2 131.7 Q 87.1 132.5, 87.1 133.8 Q 87.1 134.7, 86.7 135.3 Q 86.2 136.0, 85.2 136.4 " fill="#000000"/>
<path class="legend" d="M 94.5 136.4 Q 95.6 136.7, 96.2 137.4 Q 96.7 138.1, 96.7 139.2 Q 96.7 140.2, 96.2 140.9 Q 95.7 141.7, 94.9 142.1 Q 94.0 142.5, 92.8 142.5 Q 91.6 142.5, 90.7 142.1 Q 89.8 141.7, 89.1 140.8 L 90.0 139.9 Q 90.7 140.6, 91.3 140.9 Q 91.9 141.2, 92.8 141.2 Q 93.9 141.2, 94.5 140.7 Q 95.1 140.1, 95.1 139.2 Q 95.1 138.1, 94.5 137.6 Q 93.8 137.0, 92.4 137.0 L 91.6 137.0 L 91.6 135.9 L 92.3 135.9 Q 93.6 135.9, 94.2 135.3 Q 94.9 134.8, 94.9 133.8 Q 94.9 133.0, 94.3 132.6 Q 93.8 132.2, 92.9 132.2 Q 91.9 132.2, 91.3 132.5 Q 90.7 132.8, 90.3 133.7 L 89.2 133.1 Q 89.6 132.1, 90.5 131.5 Q 91.5 130.9, 92.9 130.9 Q 94.5 130.9, 95.5 131.7 Q 96.5 132.5, 96.5 133.8 Q 96.5 134.7, 96.0 135.3 Q 95.5 136.0, 94.5 136.4 " fill="#000000"/>
<path class="legend" d="M 98.4 133.2 Q 98.9 132.1, 99.9 131.5 Q 100.8 130.9, 102.2 130.9 Q 103.9 130.9, 104.9 131.8 Q 105.9 132.7, 105.9 134.4 Q 105.9 136.1, 104.6 137.6 Q 103.4 139.2, 100.8 141.1 L 106.0 141.1 L 106.0 142.3 L 98.4 142.3 L 98.4 141.3 Q 100.5 139.8, 101.8 138.6 Q 103.0 137.5, 103.6 136.5 Q 104.3 135.5, 104.3 134.5 Q 104.3 133.4, 103.7 132.8 Q 103.2 132.2, 102.2 132.2 Q 101.3 132.2, 100.7 132.5 Q 100.1 132.9, 99.7 133.7 L 98.4 133.2 " fill="#000000"/>
<path class="legend" d="M 111.9 135.3 Q 112.9 135.3, 113.7 135.7 Q 114.5 136.1, 115.0 136.9 Q 115.4 137.7, 115.4 138.8 Q 115.4 139.9, 114.9 140.8 Q 114.3 141.6, 113.4 142.0 Q 112.4 142.5, 111.4 142.5 Q 110.3 142.5, 109.4 142.1 Q 108.4 141.7, 107.8 141.0 L 108.7 140.0 Q 109.3 140.5, 110.0 140.9 Q 110.7 141.2, 111.4 141.2 Q 112.4 141.2, 113.1 140.5 Q 113.8 139.9, 113.8 138.8 Q 113.8 137.6, 113.1 137.0 Q 112.4 136.5, 111.3 136.5 Q 110.3 136.5, 109.2 136.9 L 108.4 136.5 L 108.9 131.0 L 114.7 131.0 L 114.6 132.3 L 110.2 132.3 L 109.9 135.7 Q 110.9 135.3, 111.9 135.3 " fill="#000000"/>
</svg>