<svg xmlns="http://www.w3.org/2000/svg" xmlns:rdkit="http://www.rdkit.org/xml" xmlns:xlink="http://www.w3.org/1999/xlink" version="1.1" baseProfile="full" xml:space="preserve" width="450px" height="300px" viewBox="0 0 450 300">
<!-- END OF HEADER -->
<rect style="opacity:1.0;fill:#FFFFFF;stroke:none" width="150.0" height="150.0" x="0.0" y="0.0"> </rect>
<ellipse cx="75.0" cy="58.2" rx="5.7" ry="5.7" class="atom-1" style="fill:#E5E533;fill-rule:evenodd;stroke:#E5E533;stroke-width:1.0px;stroke-linecap:butt;stroke-linejoin:miter;stroke-opacity:1"/>
<ellipse cx="91.4" cy="67.7" rx="5.7" ry="5.7" class="atom-3" style="fill:#E5E533;fill-rule:evenodd;stroke:#E5E533;stroke-width:1.0px;stroke-linecap:butt;stroke-linejoin:miter;stroke-opacity:1"/>
<ellipse cx="58.6" cy="86.6" rx="5.7" ry="5.7" class="atom-4" style="fill:#E5E533;fill-rule:evenodd;stroke:#E5E533;stroke-width:1.0px;stroke-linecap:butt;stroke-linejoin:miter;stroke-opacity:1"/>
<ellipse cx="91.4" cy="86.6" rx="5.7" ry="5.7" class="atom-5" style="fill:#9999E5;fill-rule:evenodd;stroke:#9999E5;stroke-width:1.0px;stroke-linecap:butt;stroke-linejoin:miter;stroke-opacity:1"/>
<ellipse cx="75.0" cy="96.1" rx="5.7" ry="5.7" class="atom-6" style="fill:#E5E533;fill-rule:evenodd;stroke:#E5E533;stroke-width:1.0px;stroke-linecap:butt;stroke-linejoin:miter;stroke-opacity:1"/>
<path class="bond-0 atom-0 atom-1" d="M 75.0,39.5 L 75.0,58.2" style="fill:none;fill-rule:evenodd;stroke:#E5E5E5;stroke-width:1.5px;stroke-linecap:butt;stroke-linejoin:miter;stroke-opacity:1"/>
<path class="bond-1 atom-1 atom-2" d="M 75.0,58.2 L 61.1,66.2" style="fill:none;fill-rule:evenodd;stroke:#E5E5E5;stroke-width:1.5px;stroke-linecap:butt;stroke-linejoin:miter;stroke-opacity:1"/>
<path class="bond-2 atom-1 atom-3" d="M 75.0,58.2 L 91.4,67.7" style="fill:none;fill-rule:evenodd;stroke:#000000;stroke-width:2.0px;stroke-linecap:butt;stroke-linejoin:miter;stroke-opacity:1"/>
<path class="bond-2 atom-1 atom-3" d="M 75.0,61.5 L 88.6,69.3" style="fill:none;fill-rule:evenodd;stroke:#000000;stroke-width:2.0px;stroke-linecap:butt;stroke-linejoin:miter;stroke-opacity:1"/>
<path class="bond-3 atom-2 atom-4" d="M 58.6,67.9 L 58.6,86.6" style="fill:none;fill-rule:evenodd;stroke:#E5E5E5;stroke-width:1.5px;stroke-linecap:butt;stroke-linejoin:miter;stroke-opacity:1"/>
<path class="bond-3 atom-2 atom-4" d="M 61.4,67.9 L 61.4,85.0" style="fill:none;fill-rule:evenodd;stroke:#E5E5E5;stroke-width:1.5px;stroke-linecap:butt;stroke-linejoin:miter;stroke-opacity:1"/>
<path class="bond-4 atom-3 atom-5" d="M 91.4,67.7 L 91.4,86.6" style="fill:none;fill-rule:evenodd;stroke:#000000;stroke-width:2.0px;stroke-linecap:butt;stroke-linejoin:miter;stroke-opacity:1"/>
<path class="bond-5 atom-4 atom-6" d="M 58.6,86.6 L 75.0,96.1" style="fill:none;fill-rule:evenodd;stroke:#000000;stroke-width:2.0px;stroke-linecap:butt;stroke-linejoin:miter;stroke-opacity:1"/>
<path class="bond-6 atom-5 atom-6" d="M 91.4,86.6 L 75.0,96.1" style="fill:none;fill-rule:evenodd;stroke:#000000;stroke-width:2.0px;stroke-linecap:butt;stroke-linejoin:miter;stroke-opacity:1"/>
<path class="bond-6 atom-5 atom-6" d="M 88.6,85.0 L 75.0,92.8" style="fill:none;fill-rule:evenodd;stroke:#000000;stroke-width:2.0px;stroke-linecap:butt;stroke-linejoin:miter;stroke-opacity:1"/>
<path d="M 90.6,67.2 L 91.4,67.7 L 91.4,68.7" style="fill:none;stroke:#000000;stroke-width:2.0px;stroke-linecap:butt;stroke-linejoin:miter;stroke-opacity:1;"/>
<path d="M 58.6,86.2 L 58.6,86.6 L 59.0,86.9" style="fill:none;stroke:#E5E5E5;stroke-width:1.5px;stroke-linecap:butt;stroke-linejoin:miter;stroke-opacity:1;"/>
<path d="M 91.4,85.7 L 91.4,86.6 L 90.6,87.1" style="fill:none;stroke:#000000;stroke-width:2.0px;stroke-linecap:butt;stroke-linejoin:miter;stroke-opacity:1;"/>
<path d="M 74.2,95.6 L 75.0,96.1 L 75.8,95.6" style="fill:none;stroke:#000000;stroke-width:2.0px;stroke-linecap:butt;stroke-linejoin:miter;stroke-opacity:1;"/>
<path class="atom-0" d="M 73.5 38.4 L 74.7 37.2 L 73.1 36.9 L 73.3 36.1 L 74.8 36.8 L 74.6 35.2 L 75.4 35.2 L 75.2 36.8 L 76.7 36.1 L 76.9 36.9 L 75.3 37.2 L 76.4 38.4 L 75.8 38.9 L 75.0 37.4 L 74.2 38.9 L 73.5 38.4 " fill="#191919"/>
<path class="atom-2" d="M 57.1 66.8 L 58.3 65.6 L 56.7 65.3 L 56.9 64.5 L 58.4 65.2 L 58.2 63.6 L 59.0 63.6 L 58.8 65.2 L 60.3 64.5 L 60.5 65.3 L 58.9 65.6 L 60.0 66.8 L 59.4 67.3 L 58.6 65.8 L 57.8 67.3 L 57.1 66.8 " fill="#191919"/>
<path class="legend" d="M 38.0 135.3 Q 39.0 135.3, 39.8 135.7 Q 40.6 136.1, 41.0 136.9 Q 41.4 137.7, 41.4 138.7 Q 41.4 139.8, 40.9 140.7 Q 40.4 141.5, 39.6 142.0 Q 38.7 142.5, 37.6 142.5 Q 35.6 142.5, 34.6 141.1 Q 33.6 139.7, 33.6 137.0 Q 33.6 134.0, 34.8 132.5 Q 36.1 130.9, 38.5 130.9 Q 39.2 130.9, 39.8 131.0 Q 40.4 131.2, 41.0 131.5 L 40.4 132.6 Q 39.5 132.2, 38.5 132.2 Q 36.9 132.2, 36.1 133.2 Q 35.3 134.2, 35.2 136.4 Q 35.8 135.8, 36.5 135.6 Q 37.2 135.3, 38.0 135.3 M 37.6 141.2 Q 38.2 141.2, 38.7 140.8 Q 39.2 140.5, 39.5 140.0 Q 39.8 139.4, 39.8 138.7 Q 39.8 137.7, 39.3 137.1 Q 38.7 136.5, 37.7 136.5 Q 37.0 136.5, 36.3 136.8 Q 35.7 137.1, 35.2 137.6 Q 35.2 139.5, 35.8 140.3 Q 36.4 141.2, 37.6 141.2 " fill="#000000"/>
<path class="legend" d="M 48.5 136.4 Q 49.6 136.7, 50.1 137.4 Q 50.7 138.1, 50.7 139.2 Q 50.7 140.2, 50.2 140.9 Q 49.7 141.7, 48.8 142.1 Q 48.0 142.5, 46.8 142.5 Q 45.6 142.5, 44.7 142.1 Q 43.8 141.7, 43.1 140.8 L 44.0 139.9 Q 44.7 140.6, 45.3 140.9 Q 45.9 141.2, 46.8 141.2 Q 47.8 141.2, 48.5 140.7 Q 49.1 140.1, 49.1 139.2 Q 49.1 138.1, 48.4 137.6 Q 47.8 137.0, 46.4 137.0 L 45.6 137.0 L 45.6 135.9 L 46.3 135.9 Q 47.5 135.9, 48.2 135.3 Q 48.8 134.8, 48.8 133.8 Q 48.8 133.0, 48.3 132.6 Q 47.8 132.2, 46.8 132.2 Q 45.9 132.2, 45.3 132.5 Q 44.7 132.8, 44.3 133.7 L 43.2 133.1 Q 43.6 132.1, 44.5 131.5 Q 45.5 130.9, 46.8 130.9 Q 48.5 130.9, 49.5 131.7 Q 50.4 132.5, 50.4 133.8 Q 50.4 134.7, 49.9 135.3 Q 49.4 136.0, 48.5 136.4 " fill="#000000"/>
<path class="legend" d="M 58.2 136.3 Q 59.2 136.8, 59.8 137.5 Q 60.4 138.1, 60.4 139.2 Q 60.4 140.2, 59.9 140.9 Q 59.4 141.7, 58.5 142.1 Q 57.6 142.5, 56.5 142.5 Q 54.6 142.5, 53.5 141.6 Q 52.4 140.8, 52.4 139.2 Q 52.4 138.3, 52.9 137.6 Q 53.3 136.9, 54.3 136.4 Q 53.6 136.0, 53.2 135.4 Q 52.8 134.7, 52.8 133.8 Q 52.8 132.5, 53.8 131.7 Q 54.7 130.9, 56.4 130.9 Q 58.0 130.9, 59.0 131.7 Q 60.0 132.5, 60.0 133.8 Q 60.0 134.6, 59.5 135.2 Q 59.1 135.8, 58.2 136.3 M 56.4 132.1 Q 55.4 132.1, 54.9 132.5 Q 54.4 133.0, 54.4 133.8 Q 54.4 134.4, 54.8 134.8 Q 55.1 135.2, 55.6 135.4 Q 56.1 135.6, 57.1 135.9 Q 57.8 135.5, 58.1 134.9 Q 58.4 134.4, 58.4 133.8 Q 58.4 133.0, 57.8 132.5 Q 57.3 132.1, 56.4 132.1 M 56.5 141.3 Q 57.5 141.3, 58.1 140.7 Q 58.8 140.2, 58.8 139.2 Q 58.8 138.6, 58.5 138.2 Q 58.1 137.8, 57.6 137.6 Q 57.1 137.4, 56.2 137.1 L 55.5 136.9 Q 54.7 137.3, 54.3 137.9 Q 54.0 138.5, 54.0 139.2 Q 54.0 140.2, 54.7 140.7 Q 55.3 141.3, 56.5 141.3 " fill="#000000"/>
<path class="legend" d="M 62.2 133.2 Q 62.6 132.1, 63.6 131.5 Q 64.6 130.9, 66.0 130.9 Q 67.7 130.9, 68.6 131.8 Q 69.6 132.7, 69.6 134.4 Q 69.6 136.1, 68.3 137.6 Q 67.1 139.2, 64.6 141.1 L 69.8 141.1 L 69.8 142.3 L 62.2 142.3 L 62.2 141.3 Q 64.3 139.8, 65.5 138.6 Q 66.8 137.5, 67.4 136.5 Q 68.0 135.5, 68.0 134.5 Q 68.0 133.4, 67.5 132.8 Q 66.9 132.2, 66.0 132.2 Q 65.1 132.2, 64.4 132.5 Q 63.8 132.9, 63.4 133.7 L 62.2 133.2 " fill="#000000"/>
<path class="legend" d="M 72.1 141.1 L 74.6 141.1 L 74.6 132.6 L 71.9 133.4 L 71.5 132.5 L 75.0 130.9 L 76.1 131.1 L 76.1 141.1 L 78.3 141.1 L 78.3 142.3 L 72.1 142.3 L 72.1 141.1 " fill="#000000"/>
<path class="legend" d="M 85.2 136.4 Q 86.3 136.7, 86.8 137.4 Q 87.4 138.1, 87.4 139.2 Q 87.4 140.2, 86.9 140.9 Q 86.4 141.7, 85.5 142.1 Q 84.7 142.5, 83.5 142.5 Q 82.3 142.5, 81.4 142.1 Q 80.5 141.7, 79.8 140.8 L 80.7 139.9 Q 81.4 140.6, 82.0 140.9 Q 82.6 141.2, 83.5 141.2 Q 84.5 141.2, 85.2 140.7 Q 85.8 140.1, 85.8 139.2 Q 85.8 138.1, 85.1 137.6 Q 84.5 137.0, 83.1 137.0 L 82.3 137.0 L 82.3 135.9 L 83.0 135.9 Q 84.2 135.9, 84.9 135.3 Q 85.5 134.8, 85.5 133.8 Q 85.5 133.0, 85.0 132.6 Q 84.5 132.2, 83.5 132.2 Q 82.6 132.2, 82.0 132.5 Q 81.4 132.8, 81.0 133.7 L 79.9 133.1 Q 80.3 132.1, 81.2 131.5 Q 82.2 130.9, 83.5 130.9 Q 85.2 130.9, 86.2 131.7 Q 87.1 132.5, 87.1 133.8 Q 87.1 134.7, 86.7 135.3 Q 86.2 136.0, 85.2 136.4 " fill="#000000"/>
<path class="legend" d="M 94.5 136.4 Q 95.6 136.7, 96.2 137.4 Q 96.7 138.1, 96.7 139.2 Q 96.7 140.2, 96.2 140.9 Q 95.7 141.7, 94.9 142.1 Q 94.0 142.5, 92.8 142.5 Q 91.6 142.5, 90.7 142.1 Q 89.8 141.7, 89.1 140.8 L 90.0 139.9 Q 90.7 140.6, 91.3 140.9 Q 91.9 141.2, 92.8 141.2 Q 93.9 141.2, 94.5 140.7 Q 95.1 140.1, 95.1 139.2 Q 95.1 138.1, 94.5 137.6 Q 93.8 137.0, 92.4 137.0 L 91.6 137.0 L 91.6 135.9 L 92.3 135.9 Q 93.6 135.9, 94.2 135.3 Q 94.9 134.8, 94.9 133.8 Q 94.9 133.0, 94.3 132.6 Q 93.8 132.2, 92.9 132.2 Q 91.9 132.2, 91.3 132.5 Q 90.7 132.8, 90.3 133.7 L 89.2 133.1 Q 89.6 132.1, 90.5 131.5 Q 91.5 130.9, 92.9 130.9 Q 94.5 130.9, 95.5 131.7 Q 96.5 132.5, 96.5 133.8 Q 96.5 134.7, 96.0 135.3 Q 95.5 136.0, 94.5 136.4 " fill="#000000"/>
<path class="legend" d="M 98.4 133.2 Q 98.9 132.1, 99.9 131.5 Q 100.8 130.9, 102.2 130.9 Q 103.9 130.9, 104.9 131.8 Q 105.9 132.7, 105.9 134.4 Q 105.9 136.1, 104.6 137.6 Q 103.4 139.2, 100.8 141.1 L 106.0 141.1 L 106.0 142.3 L 98.4 142.3 L 98.4 141.3 Q 100.5 139.8, 101.8 138.6 Q 103.0 137.5, 103.6 136.5 Q 104.3 135.5, 104.3 134.5 Q 104.3 133.4, 103.7 132.8 Q 103.2 132.2, 102.2 132.2 Q 101.3 132.2, 100.7 132.5 Q 100.1 132.9, 99.7 133.7 L 98.4 133.2 " fill="#000000"/>
<path class="legend" d="M 111.9 135.3 Q 112.9 135.3, 113.7 135.7 Q 114.5 136.1, 115.0 136.9 Q 115.4 137.7, 115.4 138.8 Q 115.4 139.9, 114.9 140.8 Q 114.3 141.6, 113.4 142.0 Q 112.4 142.5, 111.4 142.5 Q 110.3 142.5, 109.4 142.1 Q 108.4 141.7, 107.8 141.0 L 108.7 140.0 Q 109.3 140.5, 110.0 140.9 Q 110.7 141.2, 111.4 141.2 Q 112.4 141.2, 113.1 140.5 Q 113.8 139.9, 113.8 138.8 Q 113.8 137.6, 113.1 137.0 Q 112.4 136.5, 111.3 136.5 Q 110.3 136.5, 109.2 136.9 L 108.4 136.5 L 108.9 131.0 L 114.7 131.0 L 114.6 132.3 L 110.2 132.3 L 109.9 135.7 Q 110.9 135.3, 111.9 135.3 " fill="#000000"/>
<ellipse cx="208.6" cy="58.2" rx="5.7" ry="5.7" class="atom-1" style="fill:#E5E533;fill-rule:evenodd;stroke:#E5E533;stroke-width:1.0px;stroke-linecap:butt;stroke-linejoin:miter;stroke-opacity:1"/>
<ellipse cx="241.4" cy="58.2" rx="5.7" ry="5.7" class="atom-2" style="fill:#E5E533;fill-rule:evenodd;stroke:#E5E533;stroke-width:1.0px;stroke-linecap:butt;stroke-linejoin:miter;stroke-opacity:1"/>
<ellipse cx="208.6" cy="77.2" rx="5.7" ry="5.7" class="atom-3" style="fill:#E5E533;fill-rule:evenodd;stroke:#E5E533;stroke-width:1.0px;stroke-linecap:butt;stroke-linejoin:miter;stroke-opacity:1"/>
<ellipse cx="241.4" cy="77.2" rx="5.7" ry="5.7" class="atom-4" style="fill:#E5E533;fill-rule:evenodd;stroke:#E5E533;stroke-width:1.0px;stroke-linecap:butt;stroke-linejoin:miter;stroke-opacity:1"/>
<ellipse cx="225.0" cy="86.6" rx="5.7" ry="5.7" class="atom-5" style="fill:#9999E5;fill-rule:evenodd;stroke:#9999E5;stroke-width:1.0px;stroke-linecap:butt;stroke-linejoin:miter;stroke-opacity:1"/>
<path class="bond-0 atom-0 atom-1" d="M 224.6,49.0 L 208.6,58.2" style="fill:none;fill-rule:evenodd;stroke:#E5E5E5;stroke-width:1.5px;stroke-linecap:butt;stroke-linejoin:miter;stroke-opacity:1"/>
<path class="bond-1 atom-0 atom-2" d="M 225.4,49.0 L 241.4,58.2" style="fill:none;fill-rule:evenodd;stroke:#E5E5E5;stroke-width:1.5px;stroke-linecap:butt;stroke-linejoin:miter;stroke-opacity:1"/>
<path class="bond-1 atom-0 atom-2" d="M 224.0,51.4 L 238.6,59.9" style="fill:none;fill-rule:evenodd;stroke:#E5E5E5;stroke-width:1.5px;stroke-linecap:butt;stroke-linejoin:miter;stroke-opacity:1"/>
<path class="bond-2 atom-1 atom-3" d="M 208.6,58.2 L 208.6,77.2" style="fill:none;fill-rule:evenodd;stroke:#000000;stroke-width:2.0px;stroke-linecap:butt;stroke-linejoin:miter;stroke-opacity:1"/>
<path class="bond-2 atom-1 atom-3" d="M 211.4,59.9 L 211.4,75.5" style="fill:none;fill-rule:evenodd;stroke:#000000;stroke-width:2.0px;stroke-linecap:butt;stroke-linejoin:miter;stroke-opacity:1"/>
<path class="bond-3 atom-2 atom-4" d="M 241.4,58.2 L 241.4,77.2" style="fill:none;fill-rule:evenodd;stroke:#000000;stroke-width:2.0px;stroke-linecap:butt;stroke-linejoin:miter;stroke-opacity:1"/>
<path class="bond-4 atom-3 atom-5" d="M 208.6,77.2 L 225.0,86.6" style="fill:none;fill-rule:evenodd;stroke:#000000;stroke-width:2.0px;stroke-linecap:butt;stroke-linejoin:miter;stroke-opacity:1"/>
<path class="bond-5 atom-4 atom-5" d="M 241.4,77.2 L 225.0,86.6" style="fill:none;fill-rule:evenodd;stroke:#000000;stroke-width:2.0px;stroke-linecap:butt;stroke-linejoin:miter;stroke-opacity:1"/>
<path class="bond-5 atom-4 atom-5" d="M 238.6,75.5 L 225.0,83.4" style="fill:none;fill-rule:evenodd;stroke:#000000;stroke-width:2.0px;stroke-linecap:butt;stroke-linejoin:miter;stroke-opacity:1"/>
<path d="M 209.0,58.0 L 208.6,58.2 L 208.6,58.7" style="fill:none;stroke:#E5E5E5;stroke-width:1.5px;stroke-linecap:butt;stroke-linejoin:miter;stroke-opacity:1;"/>
<path d="M 241.0,58.0 L 241.4,58.2 L 241.4,58.7" style="fill:none;stroke:#E5E5E5;stroke-width:1.5px;stroke-linecap:butt;stroke-linejoin:miter;stroke-opacity:1;"/>
<path d="M 208.6,76.2 L 208.6,77.2 L 209.4,77.6" style="fill:none;stroke:#000000;stroke-width:2.0px;stroke-linecap:butt;stroke-linejoin:miter;stroke-opacity:1;"/>
<path d="M 241.4,76.2 L 241.4,77.2 L 240.6,77.6" style="fill:none;stroke:#000000;stroke-width:2.0px;stroke-linecap:butt;stroke-linejoin:miter;stroke-opacity:1;"/>
<path d="M 224.2,86.2 L 225.0,86.6 L 225.8,86.2" style="fill:none;stroke:#000000;stroke-width:2.0px;stroke-linecap:butt;stroke-linejoin:miter;stroke-opacity:1;"/>
<path class="atom-0" d="M 223.5 47.9 L 224.7 46.7 L 223.1 46.3 L 223.3 45.5 L 224.8 46.3 L 224.6 44.7 L 225.4 44.7 L 225.2 46.3 L 226.7 45.6 L 226.9 46.3 L 225.3 46.6 L 226.4 47.9 L 225.8 48.4 L 225.0 46.9 L 224.2 48.4 L 223.5 47.9 " fill="#191919"/>
<path class="legend" d="M 186.5 135.3 Q 187.5 135.3, 188.3 135.7 Q 189.1 136.1, 189.6 136.9 Q 190.0 137.7, 190.0 138.8 Q 190.0 140.0, 189.4 140.8 Q 188.9 141.6, 188.0 142.1 Q 187.0 142.5, 186.0 142.5 Q 184.9 142.5, 184.0 142.1 Q 183.0 141.7, 182.4 141.0 L 183.3 140.0 Q 183.8 140.6, 184.6 140.9 Q 185.3 141.2, 186.0 141.2 Q 187.0 141.2, 187.7 140.6 Q 188.4 140.0, 188.4 138.8 Q 188.4 137.6, 187.7 137.1 Q 187.0 136.5, 185.9 136.5 Q 184.9 136.5, 183.8 136.9 L 183.0 136.5 L 183.5 131.0 L 189.3 131.0 L 189.2 132.3 L 184.8 132.3 L 184.5 135.7 Q 185.5 135.3, 186.5 135.3 " fill="#000000"/>
<path class="legend" d="M 192.2 141.1 L 194.7 141.1 L 194.7 132.6 L 192.0 133.5 L 191.6 132.5 L 195.1 131.0 L 196.2 131.2 L 196.2 141.1 L 198.4 141.1 L 198.4 142.4 L 192.2 142.4 L 192.2 141.1 " fill="#000000"/>
<path class="legend" d="M 207.2 138.5 L 208.6 138.5 L 208.6 139.8 L 207.2 139.8 L 207.2 142.4 L 205.7 142.4 L 205.7 139.8 L 199.9 139.8 L 199.9 138.8 L 204.8 131.0 L 207.2 131.0 L 207.2 138.5 M 201.7 138.5 L 205.7 138.5 L 205.7 132.1 L 201.7 138.5 " fill="#000000"/>
<path class="legend" d="M 216.1 132.3 L 210.2 132.3 L 210.2 131.0 L 217.7 131.0 L 217.7 132.2 L 213.1 142.4 L 211.6 142.4 L 216.1 132.3 " fill="#000000"/>
<path class="legend" d="M 219.0 133.2 Q 219.4 132.1, 220.4 131.5 Q 221.4 130.9, 222.8 130.9 Q 224.5 130.9, 225.4 131.8 Q 226.4 132.8, 226.4 134.4 Q 226.4 136.1, 225.2 137.7 Q 223.9 139.2, 221.4 141.1 L 226.6 141.1 L 226.6 142.4 L 219.0 142.4 L 219.0 141.3 Q 221.1 139.8, 222.3 138.7 Q 223.6 137.6, 224.2 136.5 Q 224.8 135.5, 224.8 134.5 Q 224.8 133.4, 224.3 132.8 Q 223.7 132.2, 222.8 132.2 Q 221.9 132.2, 221.3 132.6 Q 220.6 132.9, 220.2 133.7 L 219.0 133.2 " fill="#000000"/>
<path class="legend" d="M 232.8 135.3 Q 233.8 135.3, 234.6 135.7 Q 235.3 136.2, 235.8 136.9 Q 236.2 137.7, 236.2 138.7 Q 236.2 139.8, 235.7 140.7 Q 235.2 141.5, 234.4 142.0 Q 233.5 142.5, 232.4 142.5 Q 230.4 142.5, 229.4 141.1 Q 228.4 139.8, 228.4 137.0 Q 228.4 134.0, 229.6 132.5 Q 230.9 130.9, 233.3 130.9 Q 234.0 130.9, 234.6 131.1 Q 235.2 131.2, 235.8 131.6 L 235.1 132.6 Q 234.3 132.2, 233.3 132.2 Q 231.7 132.2, 230.9 133.2 Q 230.1 134.3, 230.0 136.4 Q 230.5 135.9, 231.3 135.6 Q 232.0 135.3, 232.8 135.3 M 232.4 141.2 Q 233.0 141.2, 233.5 140.9 Q 234.0 140.5, 234.3 140.0 Q 234.6 139.4, 234.6 138.7 Q 234.6 137.7, 234.0 137.2 Q 233.5 136.6, 232.5 136.6 Q 231.8 136.6, 231.1 136.9 Q 230.4 137.1, 230.0 137.6 Q 230.0 139.5, 230.6 140.3 Q 231.2 141.2, 232.4 141.2 " fill="#000000"/>
<path class="legend" d="M 245.2 138.5 L 246.6 138.5 L 246.6 139.8 L 245.2 139.8 L 245.2 142.4 L 243.7 142.4 L 243.7 139.8 L 237.9 139.8 L 237.9 138.8 L 242.8 131.0 L 245.2 131.0 L 245.2 138.5 M 239.7 138.5 L 243.7 138.5 L 243.7 132.1 L 239.7 138.5 " fill="#000000"/>
<path class="legend" d="M 252.0 130.9 Q 254.0 130.9, 255.0 132.3 Q 256.0 133.7, 256.0 136.4 Q 256.0 139.4, 254.8 140.9 Q 253.5 142.5, 251.1 142.5 Q 250.4 142.5, 249.8 142.3 Q 249.2 142.2, 248.6 141.8 L 249.3 140.8 Q 250.1 141.2, 251.1 141.2 Q 252.7 141.2, 253.5 140.2 Q 254.3 139.2, 254.4 137.0 Q 253.8 137.6, 253.1 137.8 Q 252.4 138.1, 251.6 138.1 Q 250.6 138.1, 249.8 137.7 Q 249.0 137.3, 248.6 136.5 Q 248.2 135.7, 248.2 134.7 Q 248.2 133.6, 248.7 132.7 Q 249.2 131.9, 250.0 131.4 Q 250.9 130.9, 252.0 130.9 M 249.8 134.7 Q 249.8 135.7, 250.3 136.3 Q 250.9 136.8, 251.9 136.8 Q 252.6 136.8, 253.3 136.6 Q 253.9 136.3, 254.4 135.8 Q 254.4 133.9, 253.8 133.1 Q 253.2 132.2, 252.0 132.2 Q 251.4 132.2, 250.9 132.5 Q 250.4 132.9, 250.1 133.4 Q 249.8 134.0, 249.8 134.7 " fill="#000000"/>
<path class="legend" d="M 265.3 138.5 L 266.6 138.5 L 266.6 139.8 L 265.3 139.8 L 265.3 142.4 L 263.8 142.4 L 263.8 139.8 L 257.9 139.8 L 257.9 138.8 L 262.9 131.0 L 265.3 131.0 L 265.3 138.5 M 259.8 138.5 L 263.8 138.5 L 263.8 132.1 L 259.8 138.5 " fill="#000000"/>
<ellipse cx="391.4" cy="58.2" rx="5.7" ry="5.7" class="atom-1" style="fill:#E5E533;fill-rule:evenodd;stroke:#E5E533;stroke-width:1.0px;stroke-linecap:butt;stroke-linejoin:miter;stroke-opacity:1"/>
<ellipse cx="358.6" cy="58.2" rx="5.7" ry="5.7" class="atom-2" style="fill:#E5E533;fill-rule:evenodd;stroke:#E5E533;stroke-width:1.0px;stroke-linecap:butt;stroke-linejoin:miter;stroke-opacity:1"/>
<ellipse cx="358.6" cy="77.2" rx="5.7" ry="5.7" class="atom-4" style="fill:#E5E533;fill-rule:evenodd;stroke:#E5E533;stroke-width:1.0px;stroke-linecap:butt;stroke-linejoin:miter;stroke-opacity:1"/>
<ellipse cx="391.4" cy="77.2" rx="5.7" ry="5.7" class="atom-6" style="fill:#E5E533;fill-rule:evenodd;stroke:#E5E533;stroke-width:1.0px;stroke-linecap:butt;stroke-linejoin:miter;stroke-opacity:1"/>
<ellipse cx="375.0" cy="86.6" rx="5.7" ry="5.7" class="atom-7" style="fill:#9999E5;fill-rule:evenodd;stroke:#9999E5;stroke-width:1.0px;stroke-linecap:butt;stroke-linejoin:miter;stroke-opacity:1"/>
<path class="bond-0 atom-0 atom-1" d="M 407.4,49.0 L 391.4,58.2" style="fill:none;fill-rule:evenodd;stroke:#E5E5E5;stroke-width:1.5px;stroke-linecap:butt;stroke-linejoin:miter;stroke-opacity:1"/>
<path class="bond-1 atom-2 atom-3" d="M 358.6,58.2 L 374.6,49.0" style="fill:none;fill-rule:evenodd;stroke:#E5E5E5;stroke-width:1.5px;stroke-linecap:butt;stroke-linejoin:miter;stroke-opacity:1"/>
<path class="bond-1 atom-2 atom-3" d="M 361.4,59.9 L 376.0,51.4" style="fill:none;fill-rule:evenodd;stroke:#E5E5E5;stroke-width:1.5px;stroke-linecap:butt;stroke-linejoin:miter;stroke-opacity:1"/>
<path class="bond-2 atom-2 atom-4" d="M 358.6,58.2 L 358.6,77.2" style="fill:none;fill-rule:evenodd;stroke:#000000;stroke-width:2.0px;stroke-linecap:butt;stroke-linejoin:miter;stroke-opacity:1"/>
<path class="bond-3 atom-2 atom-5" d="M 358.6,58.2 L 342.6,49.0" style="fill:none;fill-rule:evenodd;stroke:#E5E5E5;stroke-width:1.5px;stroke-linecap:butt;stroke-linejoin:miter;stroke-opacity:1"/>
<path class="bond-4 atom-3 atom-1" d="M 375.4,49.0 L 391.4,58.2" style="fill:none;fill-rule:evenodd;stroke:#E5E5E5;stroke-width:1.5px;stroke-linecap:butt;stroke-linejoin:miter;stroke-opacity:1"/>
<path class="bond-5 atom-1 atom-6" d="M 391.4,58.2 L 391.4,77.2" style="fill:none;fill-rule:evenodd;stroke:#000000;stroke-width:2.0px;stroke-linecap:butt;stroke-linejoin:miter;stroke-opacity:1"/>
<path class="bond-5 atom-1 atom-6" d="M 388.6,59.9 L 388.6,75.5" style="fill:none;fill-rule:evenodd;stroke:#000000;stroke-width:2.0px;stroke-linecap:butt;stroke-linejoin:miter;stroke-opacity:1"/>
<path class="bond-6 atom-4 atom-7" d="M 358.6,77.2 L 375.0,86.6" style="fill:none;fill-rule:evenodd;stroke:#000000;stroke-width:2.0px;stroke-linecap:butt;stroke-linejoin:miter;stroke-opacity:1"/>
<path class="bond-6 atom-4 atom-7" d="M 361.4,75.5 L 375.0,83.4" style="fill:none;fill-rule:evenodd;stroke:#000000;stroke-width:2.0px;stroke-linecap:butt;stroke-linejoin:miter;stroke-opacity:1"/>
<path class="bond-7 atom-6 atom-7" d="M 391.4,77.2 L 375.0,86.6" style="fill:none;fill-rule:evenodd;stroke:#000000;stroke-width:2.0px;stroke-linecap:butt;stroke-linejoin:miter;stroke-opacity:1"/>
<path d="M 358.6,76.2 L 358.6,77.2 L 359.4,77.6" style="fill:none;stroke:#000000;stroke-width:2.0px;stroke-linecap:butt;stroke-linejoin:miter;stroke-opacity:1;"/>
<path d="M 391.4,76.2 L 391.4,77.2 L 390.6,77.6" style="fill:none;stroke:#000000;stroke-width:2.0px;stroke-linecap:butt;stroke-linejoin:miter;stroke-opacity:1;"/>
<path d="M 374.2,86.2 L 375.0,86.6 L 375.8,86.2" style="fill:none;stroke:#000000;stroke-width:2.0px;stroke-linecap:butt;stroke-linejoin:miter;stroke-opacity:1;"/>
<path class="atom-0" d="M 406.3 47.9 L 407.5 46.7 L 405.9 46.3 L 406.1 45.5 L 407.6 46.3 L 407.4 44.7 L 408.2 44.7 L 408.0 46.3 L 409.5 45.6 L 409.7 46.3 L 408.1 46.6 L 409.2 47.9 L 408.6 48.4 L 407.8 46.9 L 407.0 48.4 L 406.3 47.9 " fill="#191919"/>
<path class="atom-3" d="M 373.5 47.9 L 374.7 46.7 L 373.1 46.3 L 373.3 45.5 L 374.8 46.3 L 374.6 44.7 L 375.4 44.7 L 375.2 46.3 L 376.7 45.6 L 376.9 46.3 L 375.3 46.6 L 376.4 47.9 L 375.8 48.4 L 375.0 46.9 L 374.2 48.4 L 373.5 47.9 " fill="#191919"/>
<path class="atom-5" d="M 340.7 47.9 L 341.9 46.7 L 340.3 46.3 L 340.5 45.5 L 342.0 46.3 L 341.8 44.7 L 342.6 44.7 L 342.4 46.3 L 343.9 45.6 L 344.1 46.3 L 342.5 46.6 L 343.7 47.9 L 343.0 48.4 L 342.2 46.9 L 341.4 48.4 L 340.7 47.9 " fill="#191919"/>
<path class="legend" d="M 337.7 136.4 Q 338.8 136.7, 339.3 137.4 Q 339.8 138.1, 339.8 139.2 Q 339.8 140.2, 339.4 140.9 Q 338.9 141.7, 338.0 142.1 Q 337.1 142.5, 336.0 142.5 Q 334.8 142.5, 333.8 142.1 Q 333.0 141.7, 332.2 140.8 L 333.1 139.9 Q 333.8 140.6, 334.4 140.9 Q 335.0 141.2, 336.0 141.2 Q 337.0 141.2, 337.6 140.7 Q 338.2 140.1, 338.2 139.2 Q 338.2 138.1, 337.6 137.6 Q 337.0 137.0, 335.6 137.0 L 334.7 137.0 L 334.7 135.9 L 335.5 135.9 Q 336.7 135.9, 337.4 135.3 Q 338.0 134.8, 338.0 133.8 Q 338.0 133.0, 337.5 132.6 Q 336.9 132.2, 336.0 132.2 Q 335.0 132.2, 334.5 132.5 Q 333.9 132.8, 333.4 133.7 L 332.3 133.1 Q 332.7 132.1, 333.7 131.5 Q 334.6 130.9, 336.0 130.9 Q 337.7 130.9, 338.6 131.7 Q 339.6 132.5, 339.6 133.8 Q 339.6 134.7, 339.1 135.3 Q 338.6 136.0, 337.7 136.4 " fill="#000000"/>
<path class="legend" d="M 348.9 138.5 L 350.3 138.5 L 350.3 139.7 L 348.9 139.7 L 348.9 142.3 L 347.4 142.3 L 347.4 139.7 L 341.6 139.7 L 341.6 138.7 L 346.5 131.0 L 348.9 131.0 L 348.9 138.5 M 343.4 138.5 L 347.4 138.5 L 347.4 132.0 L 343.4 138.5 " fill="#000000"/>
<path class="legend" d="M 359.2 138.5 L 360.6 138.5 L 360.6 139.7 L 359.2 139.7 L 359.2 142.3 L 357.7 142.3 L 357.7 139.7 L 351.9 139.7 L 351.9 138.7 L 356.8 131.0 L 359.2 131.0 L 359.2 138.5 M 353.7 138.5 L 357.7 138.5 L 357.7 132.0 L 353.7 138.5 " fill="#000000"/>
<path class="legend" d="M 366.3 135.3 Q 367.3 135.3, 368.1 135.7 Q 368.9 136.1, 369.4 136.9 Q 369.8 137.7, 369.8 138.8 Q 369.8 139.9, 369.3 140.8 Q 368.7 141.6, 367.8 142.0 Q 366.9 142.5, 365.8 142.5 Q 364.8 142.5, 363.8 142.1 Q 362.8 141.7, 362.2 141.0 L 363.1 140.0 Q 363.7 140.5, 364.4 140.9 Q 365.1 141.2, 365.8 141.2 Q 366.9 141.2, 367.5 140.5 Q 368.2 139.9, 368.2 138.8 Q 368.2 137.6, 367.5 137.0 Q 366.9 136.5, 365.8 136.5 Q 364.8 136.5, 363.7 136.9 L 362.8 136.5 L 363.3 131.0 L 369.1 131.0 L 369.0 132.3 L 364.6 132.3 L 364.3 135.7 Q 365.3 135.3, 366.3 135.3 " fill="#000000"/>
<path class="legend" d="M 377.2 136.3 Q 378.2 136.8, 378.8 137.5 Q 379.4 138.1, 379.4 139.2 Q 379.4 140.2, 378.9 140.9 Q 378.4 141.7, 377.5 142.1 Q 376.6 142.5, 375.5 142.5 Q 373.6 142.5, 372.5 141.6 Q 371.4 140.8, 371.4 139.2 Q 371.4 138.3, 371.9 137.6 Q 372.4 136.9, 373.4 136.4 Q 372.6 136.0, 372.2 135.4 Q 371.8 134.7, 371.8 133.8 Q 371.8 132.5, 372.8 131.7 Q 373.8 130.9, 375.4 130.9 Q 377.1 130.9, 378.0 131.7 Q 379.0 132.5, 379.0 133.8 Q 379.0 134.6, 378.5 135.2 Q 378.1 135.8, 377.2 136.3 M 375.4 132.1 Q 374.5 132.1, 373.9 132.5 Q 373.4 133.0, 373.4 133.8 Q 373.4 134.4, 373.8 134.8 Q 374.1 135.2, 374.6 135.4 Q 375.1 135.6, 376.1 135.9 Q 376.8 135.5, 377.1 134.9 Q 377.4 134.4, 377.4 133.8 Q 377.4 133.0, 376.9 132.5 Q 376.4 132.1, 375.4 132.1 M 375.5 141.3 Q 376.5 141.3, 377.2 140.7 Q 377.8 140.2, 377.8 139.2 Q 377.8 138.6, 377.5 138.2 Q 377.1 137.8, 376.6 137.6 Q 376.1 137.4, 375.2 137.1 L 374.5 136.9 Q 373.7 137.3, 373.4 137.9 Q 373.0 138.5, 373.0 139.2 Q 373.0 140.2, 373.7 140.7 Q 374.4 141.3, 375.5 141.3 " fill="#000000"/>
<path class="legend" d="M 387.2 132.3 L 381.2 132.3 L 381.2 131.0 L 388.7 131.0 L 388.7 132.1 L 384.2 142.3 L 382.6 142.3 L 387.2 132.3 " fill="#000000"/>
<path class="legend" d="M 394.4 135.3 Q 395.4 135.3, 396.2 135.7 Q 397.0 136.1, 397.4 136.9 Q 397.9 137.7, 397.9 138.7 Q 397.9 139.8, 397.4 140.7 Q 396.9 141.5, 396.0 142.0 Q 395.1 142.5, 394.0 142.5 Q 392.0 142.5, 391.0 141.1 Q 390.0 139.7, 390.0 137.0 Q 390.0 134.0, 391.2 132.5 Q 392.5 130.9, 394.9 130.9 Q 395.6 130.9, 396.2 131.0 Q 396.8 131.2, 397.4 131.5 L 396.8 132.6 Q 395.9 132.2, 394.9 132.2 Q 393.3 132.2, 392.5 133.2 Q 391.7 134.2, 391.6 136.4 Q 392.2 135.8, 392.9 135.6 Q 393.6 135.3, 394.4 135.3 M 394.1 141.2 Q 394.7 141.2, 395.2 140.8 Q 395.7 140.5, 396.0 140.0 Q 396.3 139.4, 396.3 138.7 Q 396.3 137.7, 395.7 137.1 Q 395.1 136.5, 394.1 136.5 Q 393.5 136.5, 392.8 136.8 Q 392.1 137.1, 391.6 137.6 Q 391.7 139.5, 392.3 140.3 Q 392.9 141.2, 394.1 141.2 " fill="#000000"/>
<path class="legend" d="M 399.6 133.2 Q 400.0 132.1, 401.0 131.5 Q 402.0 130.9, 403.3 130.9 Q 405.0 130.9, 406.0 131.8 Q 407.0 132.7, 407.0 134.4 Q 407.0 136.1, 405.7 137.6 Q 404.5 139.2, 401.9 141.1 L 407.2 141.1 L 407.2 142.3 L 399.5 142.3 L 399.5 141.3 Q 401.6 139.8, 402.9 138.6 Q 404.2 137.5, 404.8 136.5 Q 405.4 135.5, 405.4 134.5 Q 405.4 133.4, 404.8 132.8 Q 404.3 132.2, 403.3 132.2 Q 402.4 132.2, 401.8 132.5 Q 401.2 132.9, 400.8 133.7 L 399.6 133.2 " fill="#000000"/>
<path class="legend" d="M 413.3 135.3 Q 414.3 135.3, 415.1 135.7 Q 415.9 136.1, 416.3 136.9 Q 416.8 137.7, 416.8 138.7 Q 416.8 139.8, 416.3 140.7 Q 415.8 141.5, 414.9 142.0 Q 414.1 142.5, 413.0 142.5 Q 410.9 142.5, 409.9 141.1 Q 408.9 139.7, 408.9 137.0 Q 408.9 134.0, 410.2 132.5 Q 411.4 130.9, 413.8 130.9 Q 414.5 130.9, 415.1 131.0 Q 415.7 131.2, 416.3 131.5 L 415.7 132.6 Q 414.9 132.2, 413.9 132.2 Q 412.3 132.2, 411.4 133.2 Q 410.6 134.2, 410.5 136.4 Q 411.1 135.8, 411.8 135.6 Q 412.6 135.3, 413.3 135.3 M 413.0 141.2 Q 413.6 141.2, 414.1 140.8 Q 414.6 140.5, 414.9 140.0 Q 415.2 139.4, 415.2 138.7 Q 415.2 137.7, 414.6 137.1 Q 414.0 136.5, 413.1 136.5 Q 412.4 136.5, 411.7 136.8 Q 411.0 137.1, 410.5 137.6 Q 410.6 139.5, 411.2 140.3 Q 411.8 141.2, 413.0 141.2 " fill="#000000"/>
<ellipse cx="75.0" cy="208.2" rx="5.7" ry="5.7" class="atom-0" style="fill:#E5E533;fill-rule:evenodd;stroke:#E5E533;stroke-width:1.0px;stroke-linecap:butt;stroke-linejoin:miter;stroke-opacity:1"/>
<ellipse cx="58.6" cy="217.7" rx="5.7" ry="5.7" class="atom-1" style="fill:#E5E533;fill-rule:evenodd;stroke:#E5E533;stroke-width:1.0px;stroke-linecap:butt;stroke-linejoin:miter;stroke-opacity:1"/>
<ellipse cx="91.4" cy="217.7" rx="5.7" ry="5.7" class="atom-2" style="fill:#E5E533;fill-rule:evenodd;stroke:#E5E533;stroke-width:1.0px;stroke-linecap:butt;stroke-linejoin:miter;stroke-opacity:1"/>
<ellipse cx="58.6" cy="236.6" rx="5.7" ry="5.7" class="atom-4" style="fill:#E5E533;fill-rule:evenodd;stroke:#E5E533;stroke-width:1.0px;stroke-linecap:butt;stroke-linejoin:miter;stroke-opacity:1"/>
<ellipse cx="91.4" cy="236.6" rx="5.7" ry="5.7" class="atom-5" style="fill:#E5E533;fill-rule:evenodd;stroke:#E5E533;stroke-width:1.0px;stroke-linecap:butt;stroke-linejoin:miter;stroke-opacity:1"/>
<ellipse cx="75.0" cy="246.1" rx="5.7" ry="5.7" class="atom-6" style="fill:#9999E5;fill-rule:evenodd;stroke:#9999E5;stroke-width:1.0px;stroke-linecap:butt;stroke-linejoin:miter;stroke-opacity:1"/>
<path class="bond-0 atom-0 atom-1" d="M 75.0,208.2 L 58.6,217.7" style="fill:none;fill-rule:evenodd;stroke:#000000;stroke-width:2.0px;stroke-linecap:butt;stroke-linejoin:miter;stroke-opacity:1"/>
<path class="bond-1 atom-0 atom-2" d="M 75.0,208.2 L 91.4,217.7" style="fill:none;fill-rule:evenodd;stroke:#000000;stroke-width:2.0px;stroke-linecap:butt;stroke-linejoin:miter;stroke-opacity:1"/>
<path class="bond-1 atom-0 atom-2" d="M 75.0,211.5 L 88.6,219.3" style="fill:none;fill-rule:evenodd;stroke:#000000;stroke-width:2.0px;stroke-linecap:butt;stroke-linejoin:miter;stroke-opacity:1"/>
<path class="bond-2 atom-0 atom-3" d="M 75.0,208.2 L 75.0,189.5" style="fill:none;fill-rule:evenodd;stroke:#E5E5E5;stroke-width:1.5px;stroke-linecap:butt;stroke-linejoin:miter;stroke-opacity:1"/>
<path class="bond-3 atom-1 atom-4" d="M 58.6,217.7 L 58.6,236.6" style="fill:none;fill-rule:evenodd;stroke:#000000;stroke-width:2.0px;stroke-linecap:butt;stroke-linejoin:miter;stroke-opacity:1"/>
<path class="bond-3 atom-1 atom-4" d="M 61.4,219.3 L 61.4,235.0" style="fill:none;fill-rule:evenodd;stroke:#000000;stroke-width:2.0px;stroke-linecap:butt;stroke-linejoin:miter;stroke-opacity:1"/>
<path class="bond-4 atom-2 atom-5" d="M 91.4,217.7 L 91.4,236.6" style="fill:none;fill-rule:evenodd;stroke:#000000;stroke-width:2.0px;stroke-linecap:butt;stroke-linejoin:miter;stroke-opacity:1"/>
<path class="bond-5 atom-4 atom-6" d="M 58.6,236.6 L 75.0,246.1" style="fill:none;fill-rule:evenodd;stroke:#000000;stroke-width:2.0px;stroke-linecap:butt;stroke-linejoin:miter;stroke-opacity:1"/>
<path class="bond-6 atom-5 atom-6" d="M 91.4,236.6 L 75.0,246.1" style="fill:none;fill-rule:evenodd;stroke:#000000;stroke-width:2.0px;stroke-linecap:butt;stroke-linejoin:miter;stroke-opacity:1"/>
<path class="bond-6 atom-5 atom-6" d="M 88.6,235.0 L 75.0,242.8" style="fill:none;fill-rule:evenodd;stroke:#000000;stroke-width:2.0px;stroke-linecap:butt;stroke-linejoin:miter;stroke-opacity:1"/>
<path d="M 59.4,217.2 L 58.6,217.7 L 58.6,218.7" style="fill:none;stroke:#000000;stroke-width:2.0px;stroke-linecap:butt;stroke-linejoin:miter;stroke-opacity:1;"/>
<path d="M 90.6,217.2 L 91.4,217.7 L 91.4,218.7" style="fill:none;stroke:#000000;stroke-width:2.0px;stroke-linecap:butt;stroke-linejoin:miter;stroke-opacity:1;"/>
<path d="M 58.6,235.7 L 58.6,236.6 L 59.4,237.1" style="fill:none;stroke:#000000;stroke-width:2.0px;stroke-linecap:butt;stroke-linejoin:miter;stroke-opacity:1;"/>
<path d="M 91.4,235.7 L 91.4,236.6 L 90.6,237.1" style="fill:none;stroke:#000000;stroke-width:2.0px;stroke-linecap:butt;stroke-linejoin:miter;stroke-opacity:1;"/>
<path d="M 74.2,245.6 L 75.0,246.1 L 75.8,245.6" style="fill:none;stroke:#000000;stroke-width:2.0px;stroke-linecap:butt;stroke-linejoin:miter;stroke-opacity:1;"/>
<path class="atom-3" d="M 73.5 188.4 L 74.7 187.2 L 73.1 186.9 L 73.3 186.1 L 74.8 186.8 L 74.6 185.2 L 75.4 185.2 L 75.2 186.8 L 76.7 186.1 L 76.9 186.9 L 75.3 187.2 L 76.4 188.4 L 75.8 188.9 L 75.0 187.4 L 74.2 188.9 L 73.5 188.4 " fill="#191919"/>
<path class="legend" d="M 34.1 283.2 Q 34.5 282.1, 35.5 281.5 Q 36.5 280.9, 37.9 280.9 Q 39.6 280.9, 40.6 281.8 Q 41.5 282.7, 41.5 284.4 Q 41.5 286.1, 40.3 287.6 Q 39.1 289.2, 36.5 291.1 L 41.7 291.1 L 41.7 292.3 L 34.1 292.3 L 34.1 291.3 Q 36.2 289.8, 37.5 288.6 Q 38.7 287.5, 39.3 286.5 Q 39.9 285.5, 39.9 284.5 Q 39.9 283.4, 39.4 282.8 Q 38.8 282.2, 37.9 282.2 Q 37.0 282.2, 36.4 282.5 Q 35.8 282.9, 35.3 283.7 L 34.1 283.2 " fill="#000000"/>
<path class="legend" d="M 48.9 286.4 Q 50.0 286.7, 50.5 287.4 Q 51.1 288.1, 51.1 289.2 Q 51.1 290.2, 50.6 290.9 Q 50.1 291.7, 49.2 292.1 Q 48.3 292.5, 47.2 292.5 Q 46.0 292.5, 45.1 292.1 Q 44.2 291.7, 43.4 290.8 L 44.4 289.9 Q 45.1 290.6, 45.6 290.9 Q 46.2 291.2, 47.2 291.2 Q 48.2 291.2, 48.8 290.7 Q 49.5 290.1, 49.5 289.2 Q 49.5 288.1, 48.8 287.6 Q 48.2 287.0, 46.8 287.0 L 46.0 287.0 L 46.0 285.9 L 46.7 285.9 Q 47.9 285.9, 48.6 285.3 Q 49.2 284.8, 49.2 283.8 Q 49.2 283.0, 48.7 282.6 Q 48.1 282.2, 47.2 282.2 Q 46.3 282.2, 45.7 282.5 Q 45.1 282.8, 44.6 283.7 L 43.5 283.1 Q 43.9 282.1, 44.9 281.5 Q 45.9 280.9, 47.2 280.9 Q 48.9 280.9, 49.8 281.7 Q 50.8 282.5, 50.8 283.8 Q 50.8 284.7, 50.3 285.3 Q 49.8 286.0, 48.9 286.4 " fill="#000000"/>
<path class="legend" d="M 57.2 285.3 Q 58.2 285.3, 59.0 285.7 Q 59.8 286.1, 60.2 286.9 Q 60.6 287.7, 60.6 288.7 Q 60.6 289.8, 60.1 290.7 Q 59.6 291.5, 58.8 292.0 Q 57.9 292.5, 56.8 292.5 Q 54.8 292.5, 53.8 291.1 Q 52.8 289.7, 52.8 287.0 Q 52.8 284.0, 54.0 282.5 Q 55.3 280.9, 57.7 280.9 Q 58.4 280.9, 59.0 281.0 Q 59.6 281.2, 60.2 281.5 L 59.5 282.6 Q 58.7 282.2, 57.7 282.2 Q 56.1 282.2, 55.3 283.2 Q 54.5 284.2, 54.4 286.4 Q 55.0 285.8, 55.7 285.6 Q 56.4 285.3, 57.2 285.3 M 56.8 291.2 Q 57.4 291.2, 57.9 290.8 Q 58.4 290.5, 58.7 290.0 Q 59.0 289.4, 59.0 288.7 Q 59.0 287.7, 58.5 287.1 Q 57.9 286.5, 56.9 286.5 Q 56.2 286.5, 55.5 286.8 Q 54.9 287.1, 54.4 287.6 Q 54.4 289.5, 55.0 290.3 Q 55.6 291.2, 56.8 291.2 " fill="#000000"/>
<path class="legend" d="M 62.9 291.1 L 65.4 291.1 L 65.4 282.6 L 62.6 283.4 L 62.3 282.5 L 65.7 280.9 L 66.9 281.1 L 66.9 291.1 L 69.1 291.1 L 69.1 292.3 L 62.9 292.3 L 62.9 291.1 " fill="#000000"/>
<path class="legend" d="M 76.5 282.3 L 70.5 282.3 L 70.5 281.0 L 78.0 281.0 L 78.0 282.1 L 73.5 292.3 L 71.9 292.3 L 76.5 282.3 " fill="#000000"/>
<path class="legend" d="M 79.3 283.2 Q 79.7 282.1, 80.7 281.5 Q 81.7 280.9, 83.1 280.9 Q 84.8 280.9, 85.7 281.8 Q 86.7 282.7, 86.7 284.4 Q 86.7 286.1, 85.5 287.6 Q 84.2 289.2, 81.7 291.1 L 86.9 291.1 L 86.9 292.3 L 79.3 292.3 L 79.3 291.3 Q 81.4 289.8, 82.6 288.6 Q 83.9 287.5, 84.5 286.5 Q 85.1 285.5, 85.1 284.5 Q 85.1 283.4, 84.6 282.8 Q 84.0 282.2, 83.1 282.2 Q 82.2 282.2, 81.5 282.5 Q 80.9 282.9, 80.5 283.7 L 79.3 283.2 " fill="#000000"/>
<path class="legend" d="M 89.2 291.1 L 91.7 291.1 L 91.7 282.6 L 89.0 283.4 L 88.6 282.5 L 92.1 280.9 L 93.2 281.1 L 93.2 291.1 L 95.4 291.1 L 95.4 292.3 L 89.2 292.3 L 89.2 291.1 " fill="#000000"/>
<path class="legend" d="M 102.3 286.4 Q 103.4 286.7, 103.9 287.4 Q 104.5 288.1, 104.5 289.2 Q 104.5 290.2, 104.0 290.9 Q 103.5 291.7, 102.6 292.1 Q 101.8 292.5, 100.6 292.5 Q 99.4 292.5, 98.5 292.1 Q 97.6 291.7, 96.9 290.8 L 97.8 289.9 Q 98.5 290.6, 99.1 290.9 Q 99.7 291.2, 100.6 291.2 Q 101.6 291.2, 102.3 290.7 Q 102.9 290.1, 102.9 289.2 Q 102.9 288.1, 102.2 287.6 Q 101.6 287.0, 100.2 287.0 L 99.4 287.0 L 99.4 285.9 L 100.1 285.9 Q 101.3 285.9, 102.0 285.3 Q 102.6 284.8, 102.6 283.8 Q 102.6 283.0, 102.1 282.6 Q 101.6 282.2, 100.6 282.2 Q 99.7 282.2, 99.1 282.5 Q 98.5 282.8, 98.1 283.7 L 97.0 283.1 Q 97.4 282.1, 98.3 281.5 Q 99.3 280.9, 100.6 280.9 Q 102.3 280.9, 103.3 281.7 Q 104.2 282.5, 104.2 283.8 Q 104.2 284.7, 103.8 285.3 Q 103.3 286.0, 102.3 286.4 " fill="#000000"/>
<path class="legend" d="M 113.5 288.5 L 114.9 288.5 L 114.9 289.7 L 113.5 289.7 L 113.5 292.3 L 112.0 292.3 L 112.0 289.7 L 106.2 289.7 L 106.2 288.7 L 111.1 281.0 L 113.5 281.0 L 113.5 288.5 M 108.0 288.5 L 112.0 288.5 L 112.0 282.0 L 108.0 288.5 " fill="#000000"/>
<ellipse cx="225.0" cy="213.0" rx="5.7" ry="5.7" class="atom-1" style="fill:#E5E533;fill-rule:evenodd;stroke:#E5E533;stroke-width:1.0px;stroke-linecap:butt;stroke-linejoin:miter;stroke-opacity:1"/>
<ellipse cx="208.6" cy="222.4" rx="5.7" ry="5.7" class="atom-3" style="fill:#E5E533;fill-rule:evenodd;stroke:#E5E533;stroke-width:1.0px;stroke-linecap:butt;stroke-linejoin:miter;stroke-opacity:1"/>
<ellipse cx="241.4" cy="222.4" rx="5.7" ry="5.7" class="atom-4" style="fill:#E5E533;fill-rule:evenodd;stroke:#E5E533;stroke-width:1.0px;stroke-linecap:butt;stroke-linejoin:miter;stroke-opacity:1"/>
<ellipse cx="208.6" cy="241.4" rx="5.7" ry="5.7" class="atom-5" style="fill:#9999E5;fill-rule:evenodd;stroke:#9999E5;stroke-width:1.0px;stroke-linecap:butt;stroke-linejoin:miter;stroke-opacity:1"/>
<ellipse cx="241.4" cy="241.4" rx="5.7" ry="5.7" class="atom-6" style="fill:#E5E533;fill-rule:evenodd;stroke:#E5E533;stroke-width:1.0px;stroke-linecap:butt;stroke-linejoin:miter;stroke-opacity:1"/>
<ellipse cx="225.0" cy="250.8" rx="5.7" ry="5.7" class="atom-7" style="fill:#E5E533;fill-rule:evenodd;stroke:#E5E533;stroke-width:1.0px;stroke-linecap:butt;stroke-linejoin:miter;stroke-opacity:1"/>
<path class="bond-0 atom-0 atom-1" d="M 225.0,194.0 L 225.0,213.0" style="fill:none;fill-rule:evenodd;stroke:#000000;stroke-width:2.0px;stroke-linecap:butt;stroke-linejoin:miter;stroke-opacity:1"/>
<path class="bond-1 atom-0 atom-2" d="M 225.0,194.0 L 241.0,184.8" style="fill:none;fill-rule:evenodd;stroke:#E5E5E5;stroke-width:1.5px;stroke-linecap:butt;stroke-linejoin:miter;stroke-opacity:1"/>
<path class="bond-2 atom-1 atom-3" d="M 225.0,213.0 L 208.6,222.4" style="fill:none;fill-rule:evenodd;stroke:#000000;stroke-width:2.0px;stroke-linecap:butt;stroke-linejoin:miter;stroke-opacity:1"/>
<path class="bond-3 atom-1 atom-4" d="M 225.0,213.0 L 241.4,222.4" style="fill:none;fill-rule:evenodd;stroke:#000000;stroke-width:2.0px;stroke-linecap:butt;stroke-linejoin:miter;stroke-opacity:1"/>
<path class="bond-3 atom-1 atom-4" d="M 225.0,216.3 L 238.6,224.1" style="fill:none;fill-rule:evenodd;stroke:#000000;stroke-width:2.0px;stroke-linecap:butt;stroke-linejoin:miter;stroke-opacity:1"/>
<path class="bond-4 atom-3 atom-5" d="M 208.6,222.4 L 208.6,241.4" style="fill:none;fill-rule:evenodd;stroke:#000000;stroke-width:2.0px;stroke-linecap:butt;stroke-linejoin:miter;stroke-opacity:1"/>
<path class="bond-4 atom-3 atom-5" d="M 211.4,224.1 L 211.4,239.7" style="fill:none;fill-rule:evenodd;stroke:#000000;stroke-width:2.0px;stroke-linecap:butt;stroke-linejoin:miter;stroke-opacity:1"/>
<path class="bond-5 atom-4 atom-6" d="M 241.4,222.4 L 241.4,241.4" style="fill:none;fill-rule:evenodd;stroke:#000000;stroke-width:2.0px;stroke-linecap:butt;stroke-linejoin:miter;stroke-opacity:1"/>
<path class="bond-6 atom-5 atom-7" d="M 208.6,241.4 L 225.0,250.8" style="fill:none;fill-rule:evenodd;stroke:#000000;stroke-width:2.0px;stroke-linecap:butt;stroke-linejoin:miter;stroke-opacity:1"/>
<path class="bond-7 atom-6 atom-7" d="M 241.4,241.4 L 225.0,250.8" style="fill:none;fill-rule:evenodd;stroke:#000000;stroke-width:2.0px;stroke-linecap:butt;stroke-linejoin:miter;stroke-opacity:1"/>
<path class="bond-7 atom-6 atom-7" d="M 238.6,239.7 L 225.0,247.6" style="fill:none;fill-rule:evenodd;stroke:#000000;stroke-width:2.0px;stroke-linecap:butt;stroke-linejoin:miter;stroke-opacity:1"/>
<path d="M 225.0,194.5 L 225.0,194.0 L 225.4,193.8" style="fill:none;stroke:#000000;stroke-width:2.0px;stroke-linecap:butt;stroke-linejoin:miter;stroke-opacity:1;"/>
<path d="M 209.4,222.0 L 208.6,222.4 L 208.6,223.4" style="fill:none;stroke:#000000;stroke-width:2.0px;stroke-linecap:butt;stroke-linejoin:miter;stroke-opacity:1;"/>
<path d="M 240.6,222.0 L 241.4,222.4 L 241.4,223.4" style="fill:none;stroke:#000000;stroke-width:2.0px;stroke-linecap:butt;stroke-linejoin:miter;stroke-opacity:1;"/>
<path d="M 208.6,240.4 L 208.6,241.4 L 209.4,241.8" style="fill:none;stroke:#000000;stroke-width:2.0px;stroke-linecap:butt;stroke-linejoin:miter;stroke-opacity:1;"/>
<path d="M 241.4,240.4 L 241.4,241.4 L 240.6,241.8" style="fill:none;stroke:#000000;stroke-width:2.0px;stroke-linecap:butt;stroke-linejoin:miter;stroke-opacity:1;"/>
<path d="M 224.2,250.4 L 225.0,250.8 L 225.8,250.4" style="fill:none;stroke:#000000;stroke-width:2.0px;stroke-linecap:butt;stroke-linejoin:miter;stroke-opacity:1;"/>
<path class="atom-2" d="M 239.9 183.7 L 241.1 182.5 L 239.5 182.1 L 239.7 181.3 L 241.2 182.1 L 241.0 180.5 L 241.8 180.5 L 241.6 182.1 L 243.1 181.4 L 243.3 182.1 L 241.7 182.4 L 242.8 183.7 L 242.2 184.2 L 241.4 182.7 L 240.6 184.2 L 239.9 183.7 " fill="#191919"/>
<path class="legend" d="M 182.8 283.2 Q 183.2 282.1, 184.2 281.5 Q 185.2 280.9, 186.6 280.9 Q 188.3 280.9, 189.3 281.8 Q 190.2 282.7, 190.2 284.4 Q 190.2 286.1, 189.0 287.6 Q 187.7 289.2, 185.2 291.1 L 190.4 291.1 L 190.4 292.3 L 182.8 292.3 L 182.8 291.3 Q 184.9 289.8, 186.1 288.6 Q 187.4 287.5, 188.0 286.5 Q 188.6 285.5, 188.6 284.5 Q 188.6 283.4, 188.1 282.8 Q 187.5 282.2, 186.6 282.2 Q 185.7 282.2, 185.1 282.5 Q 184.5 282.9, 184.0 283.7 L 182.8 283.2 " fill="#000000"/>
<path class="legend" d="M 192.2 283.2 Q 192.6 282.1, 193.6 281.5 Q 194.6 280.9, 196.0 280.9 Q 197.7 280.9, 198.6 281.8 Q 199.6 282.7, 199.6 284.4 Q 199.6 286.1, 198.3 287.6 Q 197.1 289.2, 194.5 291.1 L 199.8 291.1 L 199.8 292.3 L 192.1 292.3 L 192.1 291.3 Q 194.3 289.8, 195.5 288.6 Q 196.8 287.5, 197.4 286.5 Q 198.0 285.5, 198.0 284.5 Q 198.0 283.4, 197.4 282.8 Q 196.9 282.2, 196.0 282.2 Q 195.0 282.2, 194.4 282.5 Q 193.8 282.9, 193.4 283.7 L 192.2 283.2 " fill="#000000"/>
<path class="legend" d="M 207.3 286.3 Q 208.3 286.8, 208.9 287.5 Q 209.5 288.1, 209.5 289.2 Q 209.5 290.2, 209.0 290.9 Q 208.5 291.7, 207.6 292.1 Q 206.8 292.5, 205.6 292.5 Q 203.7 292.5, 202.6 291.6 Q 201.5 290.8, 201.5 289.2 Q 201.5 288.3, 202.0 287.6 Q 202.5 286.9, 203.5 286.4 Q 202.7 286.0, 202.3 285.4 Q 201.9 284.7, 201.9 283.8 Q 201.9 282.5, 202.9 281.7 Q 203.9 280.9, 205.5 280.9 Q 207.2 280.9, 208.1 281.7 Q 209.1 282.5, 209.1 283.8 Q 209.1 284.6, 208.6 285.2 Q 208.2 285.8, 207.3 286.3 M 205.5 282.1 Q 204.6 282.1, 204.0 282.5 Q 203.5 283.0, 203.5 283.8 Q 203.5 284.4, 203.9 284.8 Q 204.2 285.2, 204.7 285.4 Q 205.2 285.6, 206.2 285.9 Q 206.9 285.5, 207.2 284.9 Q 207.5 284.4, 207.5 283.8 Q 207.5 283.0, 207.0 282.5 Q 206.5 282.1, 205.5 282.1 M 205.6 291.3 Q 206.6 291.3, 207.3 290.7 Q 207.9 290.2, 207.9 289.2 Q 207.9 288.6, 207.6 288.2 Q 207.2 287.8, 206.7 287.6 Q 206.2 287.4, 205.3 287.1 L 204.6 286.9 Q 203.8 287.3, 203.5 287.9 Q 203.1 288.5, 203.1 289.2 Q 203.1 290.2, 203.8 290.7 Q 204.5 291.3, 205.6 291.3 " fill="#000000"/>
<path class="legend" d="M 211.9 291.1 L 214.4 291.1 L 214.4 282.6 L 211.7 283.4 L 211.3 282.5 L 214.8 280.9 L 215.9 281.1 L 215.9 291.1 L 218.1 291.1 L 218.1 292.3 L 211.9 292.3 L 211.9 291.1 " fill="#000000"/>
<path class="legend" d="M 223.7 292.5 Q 221.7 292.5, 220.6 290.9 Q 219.6 289.4, 219.6 286.7 Q 219.6 283.9, 220.6 282.4 Q 221.6 280.9, 223.7 280.9 Q 225.8 280.9, 226.9 282.4 Q 227.9 283.9, 227.9 286.7 Q 227.9 289.4, 226.8 290.9 Q 225.8 292.5, 223.7 292.5 M 223.7 291.2 Q 225.0 291.2, 225.6 290.1 Q 226.3 288.9, 226.3 286.7 Q 226.3 284.4, 225.6 283.3 Q 225.0 282.2, 223.7 282.2 Q 222.5 282.2, 221.8 283.3 Q 221.2 284.4, 221.2 286.7 Q 221.2 288.9, 221.8 290.1 Q 222.5 291.2, 223.7 291.2 " fill="#000000"/>
<path class="legend" d="M 233.8 292.5 Q 231.8 292.5, 230.7 290.9 Q 229.7 289.4, 229.7 286.7 Q 229.7 283.9, 230.7 282.4 Q 231.7 280.9, 233.8 280.9 Q 235.9 280.9, 237.0 282.4 Q 238.0 283.9, 238.0 286.7 Q 238.0 289.4, 236.9 290.9 Q 235.9 292.5, 233.8 292.5 M 233.8 291.2 Q 235.1 291.2, 235.7 290.1 Q 236.4 288.9, 236.4 286.7 Q 236.4 284.4, 235.7 283.3 Q 235.1 282.2, 233.8 282.2 Q 232.6 282.2, 232.0 283.3 Q 231.3 284.4, 231.3 286.7 Q 231.3 288.9, 232.0 290.1 Q 232.6 291.2, 233.8 291.2 " fill="#000000"/>
<path class="legend" d="M 240.4 291.1 L 242.9 291.1 L 242.9 282.6 L 240.2 283.4 L 239.8 282.5 L 243.3 280.9 L 244.4 281.1 L 244.4 291.1 L 246.6 291.1 L 246.6 292.3 L 240.4 292.3 L 240.4 291.1 " fill="#000000"/>
<path class="legend" d="M 255.4 288.5 L 256.8 288.5 L 256.8 289.7 L 255.4 289.7 L 255.4 292.3 L 253.9 292.3 L 253.9 289.7 L 248.1 289.7 L 248.1 288.7 L 253.0 281.0 L 255.4 281.0 L 255.4 288.5 M 249.9 288.5 L 253.9 288.5 L 253.9 282.0 L 249.9 288.5 " fill="#000000"/>
<path class="legend" d="M 262.2 280.9 Q 264.2 280.9, 265.2 282.3 Q 266.2 283.6, 266.2 286.3 Q 266.2 289.3, 265.0 290.9 Q 263.7 292.5, 261.3 292.5 Q 260.6 292.5, 260.0 292.3 Q 259.4 292.1, 258.8 291.8 L 259.4 290.7 Q 260.3 291.2, 261.3 291.2 Q 262.9 291.2, 263.7 290.2 Q 264.5 289.1, 264.6 287.0 Q 264.0 287.5, 263.3 287.8 Q 262.6 288.1, 261.8 288.1 Q 260.8 288.1, 260.0 287.7 Q 259.2 287.2, 258.8 286.4 Q 258.4 285.7, 258.4 284.7 Q 258.4 283.6, 258.8 282.7 Q 259.3 281.8, 260.2 281.4 Q 261.1 280.9, 262.2 280.9 M 260.0 284.6 Q 260.0 285.7, 260.5 286.2 Q 261.1 286.8, 262.1 286.8 Q 262.8 286.8, 263.4 286.5 Q 264.1 286.2, 264.6 285.8 Q 264.5 283.9, 264.0 283.0 Q 263.4 282.2, 262.2 282.2 Q 261.6 282.2, 261.0 282.5 Q 260.5 282.8, 260.3 283.4 Q 260.0 284.0, 260.0 284.6 " fill="#000000"/>
<ellipse cx="375.0" cy="216.6" rx="5.7" ry="5.7" class="atom-4" style="fill:#9999E5;fill-rule:evenodd;stroke:#9999E5;stroke-width:1.0px;stroke-linecap:butt;stroke-linejoin:miter;stroke-opacity:1"/>
<path class="bond-0 atom-0 atom-1" d="M 309.8,216.8 L 325.8,226.1" style="fill:none;fill-rule:evenodd;stroke:#E5E5E5;stroke-width:1.5px;stroke-linecap:butt;stroke-linejoin:miter;stroke-opacity:1"/>
<path class="bond-1 atom-1 atom-2" d="M 325.8,226.1 L 342.2,216.6" style="fill:none;fill-rule:evenodd;stroke:#000000;stroke-width:2.0px;stroke-linecap:butt;stroke-linejoin:miter;stroke-opacity:1"/>
<path class="bond-2 atom-2 atom-3" d="M 342.2,216.6 L 358.6,226.1" style="fill:none;fill-rule:evenodd;stroke:#000000;stroke-width:2.0px;stroke-linecap:butt;stroke-linejoin:miter;stroke-opacity:1"/>
<path class="bond-3 atom-3 atom-4" d="M 358.6,226.1 L 375.0,216.6" style="fill:none;fill-rule:evenodd;stroke:#000000;stroke-width:2.0px;stroke-linecap:butt;stroke-linejoin:miter;stroke-opacity:1"/>
<path class="bond-4 atom-4 atom-5" d="M 375.0,216.6 L 391.4,226.1" style="fill:none;fill-rule:evenodd;stroke:#000000;stroke-width:2.0px;stroke-linecap:butt;stroke-linejoin:miter;stroke-opacity:1"/>
<path class="bond-5 atom-5 atom-6" d="M 391.4,226.1 L 407.8,216.6" style="fill:none;fill-rule:evenodd;stroke:#000000;stroke-width:2.0px;stroke-linecap:butt;stroke-linejoin:miter;stroke-opacity:1"/>
<path class="bond-6 atom-6 atom-7" d="M 407.8,216.6 L 424.2,226.1" style="fill:none;fill-rule:evenodd;stroke:#000000;stroke-width:2.0px;stroke-linecap:butt;stroke-linejoin:miter;stroke-opacity:1"/>
<path class="bond-7 atom-7 atom-8" d="M 424.2,226.1 L 440.2,216.8" style="fill:none;fill-rule:evenodd;stroke:#E5E5E5;stroke-width:1.5px;stroke-linecap:butt;stroke-linejoin:miter;stroke-opacity:1"/>
<path d="M 325.4,225.8 L 325.8,226.1 L 326.2,225.8" style="fill:none;stroke:#E5E5E5;stroke-width:1.5px;stroke-linecap:butt;stroke-linejoin:miter;stroke-opacity:1;"/>
<path d="M 341.4,217.1 L 342.2,216.6 L 343.0,217.1" style="fill:none;stroke:#000000;stroke-width:2.0px;stroke-linecap:butt;stroke-linejoin:miter;stroke-opacity:1;"/>
<path d="M 357.8,225.6 L 358.6,226.1 L 359.4,225.6" style="fill:none;stroke:#000000;stroke-width:2.0px;stroke-linecap:butt;stroke-linejoin:miter;stroke-opacity:1;"/>
<path d="M 374.2,217.1 L 375.0,216.6 L 375.8,217.1" style="fill:none;stroke:#000000;stroke-width:2.0px;stroke-linecap:butt;stroke-linejoin:miter;stroke-opacity:1;"/>
<path d="M 390.6,225.6 L 391.4,226.1 L 392.2,225.6" style="fill:none;stroke:#000000;stroke-width:2.0px;stroke-linecap:butt;stroke-linejoin:miter;stroke-opacity:1;"/>
<path d="M 407.0,217.1 L 407.8,216.6 L 408.6,217.1" style="fill:none;stroke:#000000;stroke-width:2.0px;stroke-linecap:butt;stroke-linejoin:miter;stroke-opacity:1;"/>
<path d="M 423.8,225.8 L 424.2,226.1 L 424.6,225.8" style="fill:none;stroke:#000000;stroke-width:2.0px;stroke-linecap:butt;stroke-linejoin:miter;stroke-opacity:1;"/>
<path class="atom-0" d="M 307.9 215.7 L 309.1 214.5 L 307.5 214.2 L 307.7 213.4 L 309.2 214.1 L 309.0 212.5 L 309.8 212.5 L 309.6 214.1 L 311.1 213.4 L 311.3 214.2 L 309.7 214.5 L 310.9 215.7 L 310.2 216.2 L 309.4 214.7 L 308.6 216.2 L 307.9 215.7 " fill="#191919"/>
<path class="atom-8" d="M 439.1 215.7 L 440.3 214.5 L 438.7 214.2 L 438.9 213.4 L 440.4 214.1 L 440.2 212.5 L 441.0 212.5 L 440.8 214.1 L 442.3 213.4 L 442.5 214.2 L 440.9 214.5 L 442.0 215.7 L 441.4 216.2 L 440.6 214.7 L 439.8 216.2 L 439.1 215.7 " fill="#191919"/>
<path class="legend" d="M 333.2 283.2 Q 333.6 282.1, 334.6 281.5 Q 335.6 280.9, 337.0 280.9 Q 338.7 280.9, 339.6 281.8 Q 340.6 282.7, 340.6 284.4 Q 340.6 286.1, 339.4 287.6 Q 338.1 289.2, 335.6 291.1 L 340.8 291.1 L 340.8 292.3 L 333.2 292.3 L 333.2 291.3 Q 335.3 289.8, 336.5 288.6 Q 337.8 287.5, 338.4 286.5 Q 339.0 285.5, 339.0 284.5 Q 339.0 283.4, 338.5 282.8 Q 337.9 282.2, 337.0 282.2 Q 336.1 282.2, 335.5 282.5 Q 334.8 282.9, 334.4 283.7 L 333.2 283.2 " fill="#000000"/>
<path class="legend" d="M 342.6 283.2 Q 343.0 282.1, 344.0 281.5 Q 345.0 280.9, 346.3 280.9 Q 348.1 280.9, 349.0 281.8 Q 350.0 282.7, 350.0 284.4 Q 350.0 286.1, 348.7 287.6 Q 347.5 289.2, 344.9 291.1 L 350.2 291.1 L 350.2 292.3 L 342.5 292.3 L 342.5 291.3 Q 344.6 289.8, 345.9 288.6 Q 347.2 287.5, 347.8 286.5 Q 348.4 285.5, 348.4 284.5 Q 348.4 283.4, 347.8 282.8 Q 347.3 282.2, 346.3 282.2 Q 345.4 282.2, 344.8 282.5 Q 344.2 282.9, 343.8 283.7 L 342.6 283.2 " fill="#000000"/>
<path class="legend" d="M 357.8 282.3 L 351.9 282.3 L 351.9 281.0 L 359.4 281.0 L 359.4 282.1 L 354.8 292.3 L 353.3 292.3 L 357.8 282.3 " fill="#000000"/>
<path class="legend" d="M 361.3 291.1 L 363.8 291.1 L 363.8 282.6 L 361.0 283.4 L 360.7 282.5 L 364.1 280.9 L 365.3 281.1 L 365.3 291.1 L 367.5 291.1 L 367.5 292.3 L 361.3 292.3 L 361.3 291.1 " fill="#000000"/>
<path class="legend" d="M 374.7 286.3 Q 375.8 286.8, 376.4 287.5 Q 376.9 288.1, 376.9 289.2 Q 376.9 290.2, 376.5 290.9 Q 376.0 291.7, 375.1 292.1 Q 374.2 292.5, 373.0 292.5 Q 371.1 292.5, 370.0 291.6 Q 368.9 290.8, 368.9 289.2 Q 368.9 288.3, 369.4 287.6 Q 369.9 286.9, 370.9 286.4 Q 370.2 286.0, 369.8 285.4 Q 369.4 284.7, 369.4 283.8 Q 369.4 282.5, 370.3 281.7 Q 371.3 280.9, 372.9 280.9 Q 374.6 280.9, 375.6 281.7 Q 376.5 282.5, 376.5 283.8 Q 376.5 284.6, 376.1 285.2 Q 375.6 285.8, 374.7 286.3 M 372.9 282.1 Q 372.0 282.1, 371.5 282.5 Q 371.0 283.0, 371.0 283.8 Q 371.0 284.4, 371.3 284.8 Q 371.7 285.2, 372.2 285.4 Q 372.7 285.6, 373.7 285.9 Q 374.3 285.5, 374.6 284.9 Q 374.9 284.4, 374.9 283.8 Q 374.9 283.0, 374.4 282.5 Q 373.9 282.1, 372.9 282.1 M 373.0 291.3 Q 374.1 291.3, 374.7 290.7 Q 375.3 290.2, 375.3 289.2 Q 375.3 288.6, 375.0 288.2 Q 374.7 287.8, 374.2 287.6 Q 373.7 287.4, 372.8 287.1 L 372.1 286.9 Q 371.3 287.3, 370.9 287.9 Q 370.5 288.5, 370.5 289.2 Q 370.5 290.2, 371.2 290.7 Q 371.9 291.3, 373.0 291.3 " fill="#000000"/>
<path class="legend" d="M 384.7 282.3 L 378.7 282.3 L 378.7 281.0 L 386.3 281.0 L 386.3 282.1 L 381.7 292.3 L 380.1 292.3 L 384.7 282.3 " fill="#000000"/>
<path class="legend" d="M 391.9 285.3 Q 392.9 285.3, 393.7 285.7 Q 394.5 286.1, 394.9 286.9 Q 395.4 287.7, 395.4 288.7 Q 395.4 289.8, 394.9 290.7 Q 394.4 291.5, 393.5 292.0 Q 392.6 292.5, 391.5 292.5 Q 389.5 292.5, 388.5 291.1 Q 387.5 289.7, 387.5 287.0 Q 387.5 284.0, 388.7 282.5 Q 390.0 280.9, 392.4 280.9 Q 393.1 280.9, 393.7 281.0 Q 394.3 281.2, 394.9 281.5 L 394.3 282.6 Q 393.4 282.2, 392.4 282.2 Q 390.8 282.2, 390.0 283.2 Q 389.2 284.2, 389.1 286.4 Q 389.7 285.8, 390.4 285.6 Q 391.1 285.3, 391.9 285.3 M 391.6 291.2 Q 392.2 291.2, 392.7 290.8 Q 393.2 290.5, 393.5 290.0 Q 393.8 289.4, 393.8 288.7 Q 393.8 287.7, 393.2 287.1 Q 392.6 286.5, 391.6 286.5 Q 391.0 286.5, 390.3 286.8 Q 389.6 287.1, 389.1 287.6 Q 389.2 289.5, 389.8 290.3 Q 390.4 291.2, 391.6 291.2 " fill="#000000"/>
<path class="legend" d="M 401.2 292.5 Q 399.1 292.5, 398.0 290.9 Q 397.0 289.4, 397.0 286.7 Q 397.0 283.9, 398.0 282.4 Q 399.1 280.9, 401.2 280.9 Q 403.2 280.9, 404.3 282.4 Q 405.3 283.9, 405.3 286.7 Q 405.3 289.4, 404.3 290.9 Q 403.2 292.5, 401.2 292.5 M 401.2 291.2 Q 402.4 291.2, 403.0 290.1 Q 403.7 288.9, 403.7 286.7 Q 403.7 284.4, 403.0 283.3 Q 402.4 282.2, 401.2 282.2 Q 399.9 282.2, 399.3 283.3 Q 398.6 284.4, 398.6 286.7 Q 398.6 288.9, 399.3 290.1 Q 399.9 291.2, 401.2 291.2 " fill="#000000"/>
<path class="legend" d="M 414.5 288.5 L 415.8 288.5 L 415.8 289.7 L 414.5 289.7 L 414.5 292.3 L 413.0 292.3 L 413.0 289.7 L 407.1 289.7 L 407.1 288.7 L 412.1 281.0 L 414.5 281.0 L 414.5 288.5 M 409.0 288.5 L 413.0 288.5 L 413.0 282.0 L 409.0 288.5 " fill="#000000"/>
</svg>