<svg xmlns="http://www.w3.org/2000/svg" xmlns:rdkit="http://www.rdkit.org/xml" xmlns:xlink="http://www.w3.org/1999/xlink" version="1.1" baseProfile="full" xml:space="preserve" width="1200px" height="400px" viewBox="0 0 1200 400">
<!-- END OF HEADER -->
<rect style="opacity:1.0;fill:#FFFFFF;stroke:none" width="1200.0" height="400.0" x="0.0" y="0.0"> </rect>
<path class="bond-0 atom-0 atom-1" d="M 146.9,232.1 L 147.8,223.3" style="fill:none;fill-rule:evenodd;stroke:#0000FF;stroke-width:2.0px;stroke-linecap:butt;stroke-linejoin:miter;stroke-opacity:1"/>
<path class="bond-0 atom-0 atom-1" d="M 147.8,223.3 L 148.7,214.5" style="fill:none;fill-rule:evenodd;stroke:#000000;stroke-width:2.0px;stroke-linecap:butt;stroke-linejoin:miter;stroke-opacity:1"/>
<path class="bond-1 atom-1 atom-2" d="M 148.7,214.5 L 131.2,202.0" style="fill:none;fill-rule:evenodd;stroke:#000000;stroke-width:2.0px;stroke-linecap:butt;stroke-linejoin:miter;stroke-opacity:1"/>
<path class="bond-2 atom-2 atom-3" d="M 131.2,202.0 L 111.6,210.8" style="fill:none;fill-rule:evenodd;stroke:#000000;stroke-width:2.0px;stroke-linecap:butt;stroke-linejoin:miter;stroke-opacity:1"/>
<path class="bond-3 atom-3 atom-4" d="M 111.6,210.8 L 94.2,198.2" style="fill:none;fill-rule:evenodd;stroke:#000000;stroke-width:2.0px;stroke-linecap:butt;stroke-linejoin:miter;stroke-opacity:1"/>
<path class="bond-4 atom-4 atom-5" d="M 94.2,198.2 L 96.4,176.9" style="fill:none;fill-rule:evenodd;stroke:#000000;stroke-width:2.0px;stroke-linecap:butt;stroke-linejoin:miter;stroke-opacity:1"/>
<path class="bond-5 atom-5 atom-6" d="M 96.4,176.9 L 78.9,164.3" style="fill:none;fill-rule:evenodd;stroke:#000000;stroke-width:2.0px;stroke-linecap:butt;stroke-linejoin:miter;stroke-opacity:1"/>
<path class="bond-6 atom-6 atom-7" d="M 78.9,164.3 L 59.4,173.1" style="fill:none;fill-rule:evenodd;stroke:#000000;stroke-width:2.0px;stroke-linecap:butt;stroke-linejoin:miter;stroke-opacity:1"/>
<path class="bond-7 atom-7 atom-8" d="M 59.4,173.1 L 57.2,194.5" style="fill:none;fill-rule:evenodd;stroke:#000000;stroke-width:2.0px;stroke-linecap:butt;stroke-linejoin:miter;stroke-opacity:1"/>
<path class="bond-8 atom-8 atom-9" d="M 57.2,194.5 L 74.6,207.0" style="fill:none;fill-rule:evenodd;stroke:#000000;stroke-width:2.0px;stroke-linecap:butt;stroke-linejoin:miter;stroke-opacity:1"/>
<path class="bond-9 atom-8 atom-10" d="M 57.2,194.5 L 37.6,203.3" style="fill:none;fill-rule:evenodd;stroke:#000000;stroke-width:2.0px;stroke-linecap:butt;stroke-linejoin:miter;stroke-opacity:1"/>
<path class="bond-10 atom-10 atom-11" d="M 37.6,203.3 L 20.2,190.8" style="fill:none;fill-rule:evenodd;stroke:#000000;stroke-width:2.0px;stroke-linecap:butt;stroke-linejoin:miter;stroke-opacity:1"/>
<path class="bond-11 atom-11 atom-12" d="M 20.2,190.8 L 22.4,169.4" style="fill:none;fill-rule:evenodd;stroke:#000000;stroke-width:2.0px;stroke-linecap:butt;stroke-linejoin:miter;stroke-opacity:1"/>
<path class="bond-12 atom-12 atom-13" d="M 22.4,169.4 L 30.6,165.7" style="fill:none;fill-rule:evenodd;stroke:#000000;stroke-width:2.0px;stroke-linecap:butt;stroke-linejoin:miter;stroke-opacity:1"/>
<path class="bond-12 atom-12 atom-13" d="M 30.6,165.7 L 38.9,161.9" style="fill:none;fill-rule:evenodd;stroke:#0000FF;stroke-width:2.0px;stroke-linecap:butt;stroke-linejoin:miter;stroke-opacity:1"/>
<path class="bond-13 atom-13 atom-14" d="M 41.6,164.3 L 40.1,178.5" style="fill:none;fill-rule:evenodd;stroke:#0000FF;stroke-width:2.0px;stroke-linecap:butt;stroke-linejoin:miter;stroke-opacity:1"/>
<path class="bond-14 atom-14 atom-15" d="M 39.8,182.2 L 39.8,181.7" style="fill:none;fill-rule:evenodd;stroke:#0000FF;stroke-width:2.0px;stroke-linecap:butt;stroke-linejoin:miter;stroke-opacity:1"/>
<path class="bond-15 atom-1 atom-16" d="M 148.7,214.5 L 168.2,205.7" style="fill:none;fill-rule:evenodd;stroke:#000000;stroke-width:2.0px;stroke-linecap:butt;stroke-linejoin:miter;stroke-opacity:1"/>
<path class="bond-16 atom-16 atom-17" d="M 168.2,205.7 L 185.7,218.2" style="fill:none;fill-rule:evenodd;stroke:#000000;stroke-width:2.0px;stroke-linecap:butt;stroke-linejoin:miter;stroke-opacity:1"/>
<path class="bond-17 atom-17 atom-18" d="M 184.2,217.2 L 183.2,226.4" style="fill:none;fill-rule:evenodd;stroke:#000000;stroke-width:2.0px;stroke-linecap:butt;stroke-linejoin:miter;stroke-opacity:1"/>
<path class="bond-17 atom-17 atom-18" d="M 183.2,226.4 L 182.3,235.7" style="fill:none;fill-rule:evenodd;stroke:#FF0000;stroke-width:2.0px;stroke-linecap:butt;stroke-linejoin:miter;stroke-opacity:1"/>
<path class="bond-17 atom-17 atom-18" d="M 187.3,217.5 L 186.4,226.7" style="fill:none;fill-rule:evenodd;stroke:#000000;stroke-width:2.0px;stroke-linecap:butt;stroke-linejoin:miter;stroke-opacity:1"/>
<path class="bond-17 atom-17 atom-18" d="M 186.4,226.7 L 185.5,236.0" style="fill:none;fill-rule:evenodd;stroke:#FF0000;stroke-width:2.0px;stroke-linecap:butt;stroke-linejoin:miter;stroke-opacity:1"/>
<path class="bond-18 atom-17 atom-19" d="M 185.7,218.2 L 205.2,209.4" style="fill:none;fill-rule:evenodd;stroke:#000000;stroke-width:2.0px;stroke-linecap:butt;stroke-linejoin:miter;stroke-opacity:1"/>
<path class="bond-19 atom-19 atom-20" d="M 205.2,209.4 L 222.7,222.0" style="fill:none;fill-rule:evenodd;stroke:#000000;stroke-width:2.0px;stroke-linecap:butt;stroke-linejoin:miter;stroke-opacity:1"/>
<path class="bond-20 atom-20 atom-21" d="M 222.7,222.0 L 242.2,213.1" style="fill:none;fill-rule:evenodd;stroke:#000000;stroke-width:2.0px;stroke-linecap:butt;stroke-linejoin:miter;stroke-opacity:1"/>
<path class="bond-21 atom-21 atom-22" d="M 242.2,213.1 L 254.0,231.1" style="fill:none;fill-rule:evenodd;stroke:#000000;stroke-width:2.0px;stroke-linecap:butt;stroke-linejoin:miter;stroke-opacity:1"/>
<path class="bond-21 atom-21 atom-22" d="M 245.2,211.8 L 256.4,228.9" style="fill:none;fill-rule:evenodd;stroke:#000000;stroke-width:2.0px;stroke-linecap:butt;stroke-linejoin:miter;stroke-opacity:1"/>
<path class="bond-22 atom-22 atom-23" d="M 254.0,231.1 L 267.7,242.1" style="fill:none;fill-rule:evenodd;stroke:#000000;stroke-width:2.0px;stroke-linecap:butt;stroke-linejoin:miter;stroke-opacity:1"/>
<path class="bond-23 atom-23 atom-24" d="M 273.8,245.7 L 287.8,251.0" style="fill:none;fill-rule:evenodd;stroke:#000000;stroke-width:2.0px;stroke-linecap:butt;stroke-linejoin:miter;stroke-opacity:1"/>
<path class="bond-24 atom-24 atom-25" d="M 293.9,252.3 L 312.3,253.2" style="fill:none;fill-rule:evenodd;stroke:#000000;stroke-width:2.0px;stroke-linecap:butt;stroke-linejoin:miter;stroke-opacity:1"/>
<path class="bond-25 atom-25 atom-26" d="M 312.3,253.2 L 306.8,274.0" style="fill:none;fill-rule:evenodd;stroke:#000000;stroke-width:2.0px;stroke-linecap:butt;stroke-linejoin:miter;stroke-opacity:1"/>
<path class="bond-26 atom-26 atom-27" d="M 306.8,274.0 L 322.1,289.1" style="fill:none;fill-rule:evenodd;stroke:#000000;stroke-width:2.0px;stroke-linecap:butt;stroke-linejoin:miter;stroke-opacity:1"/>
<path class="bond-27 atom-27 atom-28" d="M 322.1,289.1 L 342.8,283.4" style="fill:none;fill-rule:evenodd;stroke:#000000;stroke-width:2.0px;stroke-linecap:butt;stroke-linejoin:miter;stroke-opacity:1"/>
<path class="bond-28 atom-28 atom-29" d="M 342.8,283.4 L 348.3,262.7" style="fill:none;fill-rule:evenodd;stroke:#000000;stroke-width:2.0px;stroke-linecap:butt;stroke-linejoin:miter;stroke-opacity:1"/>
<path class="bond-29 atom-29 atom-30" d="M 348.3,262.7 L 333.0,247.5" style="fill:none;fill-rule:evenodd;stroke:#000000;stroke-width:2.0px;stroke-linecap:butt;stroke-linejoin:miter;stroke-opacity:1"/>
<path class="bond-30 atom-30 atom-31" d="M 333.0,247.5 L 347.9,237.8" style="fill:none;fill-rule:evenodd;stroke:#000000;stroke-width:2.0px;stroke-linecap:butt;stroke-linejoin:miter;stroke-opacity:1"/>
<path class="bond-31 atom-31 atom-32" d="M 354.0,232.0 L 361.4,222.8" style="fill:none;fill-rule:evenodd;stroke:#000000;stroke-width:2.0px;stroke-linecap:butt;stroke-linejoin:miter;stroke-opacity:1"/>
<path class="bond-32 atom-32 atom-33" d="M 365.8,215.2 L 370.6,202.8" style="fill:none;fill-rule:evenodd;stroke:#000000;stroke-width:2.0px;stroke-linecap:butt;stroke-linejoin:miter;stroke-opacity:1"/>
<path class="bond-33 atom-33 atom-34" d="M 372.2,195.2 L 372.9,181.3" style="fill:none;fill-rule:evenodd;stroke:#000000;stroke-width:2.0px;stroke-linecap:butt;stroke-linejoin:miter;stroke-opacity:1"/>
<path class="bond-34 atom-34 atom-35" d="M 372.0,173.7 L 367.4,156.8" style="fill:none;fill-rule:evenodd;stroke:#000000;stroke-width:2.0px;stroke-linecap:butt;stroke-linejoin:miter;stroke-opacity:1"/>
<path class="bond-35 atom-35 atom-36" d="M 367.4,156.8 L 379.8,138.5" style="fill:none;fill-rule:evenodd;stroke:#000000;stroke-width:2.0px;stroke-linecap:butt;stroke-linejoin:miter;stroke-opacity:1"/>
<path class="bond-36 atom-36 atom-37" d="M 379.8,138.5 L 375.2,117.5" style="fill:none;fill-rule:evenodd;stroke:#000000;stroke-width:2.0px;stroke-linecap:butt;stroke-linejoin:miter;stroke-opacity:1"/>
<path class="bond-37 atom-37 atom-38" d="M 375.2,117.5 L 354.8,110.9" style="fill:none;fill-rule:evenodd;stroke:#000000;stroke-width:2.0px;stroke-linecap:butt;stroke-linejoin:miter;stroke-opacity:1"/>
<path class="bond-38 atom-38 atom-39" d="M 354.8,110.9 L 338.9,125.4" style="fill:none;fill-rule:evenodd;stroke:#000000;stroke-width:2.0px;stroke-linecap:butt;stroke-linejoin:miter;stroke-opacity:1"/>
<path class="bond-39 atom-39 atom-40" d="M 338.9,125.4 L 321.9,118.9" style="fill:none;fill-rule:evenodd;stroke:#000000;stroke-width:2.0px;stroke-linecap:butt;stroke-linejoin:miter;stroke-opacity:1"/>
<path class="bond-40 atom-40 atom-41" d="M 315.8,117.6 L 300.4,116.9" style="fill:none;fill-rule:evenodd;stroke:#000000;stroke-width:2.0px;stroke-linecap:butt;stroke-linejoin:miter;stroke-opacity:1"/>
<path class="bond-41 atom-41 atom-42" d="M 294.3,117.6 L 279.7,121.5" style="fill:none;fill-rule:evenodd;stroke:#000000;stroke-width:2.0px;stroke-linecap:butt;stroke-linejoin:miter;stroke-opacity:1"/>
<path class="bond-42 atom-42 atom-43" d="M 273.6,124.4 L 261.7,132.2" style="fill:none;fill-rule:evenodd;stroke:#000000;stroke-width:2.0px;stroke-linecap:butt;stroke-linejoin:miter;stroke-opacity:1"/>
<path class="bond-43 atom-43 atom-44" d="M 255.6,137.9 L 248.3,147.1" style="fill:none;fill-rule:evenodd;stroke:#000000;stroke-width:2.0px;stroke-linecap:butt;stroke-linejoin:miter;stroke-opacity:1"/>
<path class="bond-44 atom-44 atom-45" d="M 243.8,154.7 L 239.1,167.2" style="fill:none;fill-rule:evenodd;stroke:#000000;stroke-width:2.0px;stroke-linecap:butt;stroke-linejoin:miter;stroke-opacity:1"/>
<path class="bond-45 atom-45 atom-46" d="M 237.4,174.8 L 236.8,188.7" style="fill:none;fill-rule:evenodd;stroke:#000000;stroke-width:2.0px;stroke-linecap:butt;stroke-linejoin:miter;stroke-opacity:1"/>
<path class="bond-46 atom-39 atom-47" d="M 338.9,125.4 L 352.6,136.4" style="fill:none;fill-rule:evenodd;stroke:#000000;stroke-width:2.0px;stroke-linecap:butt;stroke-linejoin:miter;stroke-opacity:1"/>
<path class="bond-47 atom-9 atom-4" d="M 74.6,207.0 L 94.2,198.2" style="fill:none;fill-rule:evenodd;stroke:#000000;stroke-width:2.0px;stroke-linecap:butt;stroke-linejoin:miter;stroke-opacity:1"/>
<path class="bond-48 atom-15 atom-10" d="M 39.4,185.4 L 38.5,194.4" style="fill:none;fill-rule:evenodd;stroke:#0000FF;stroke-width:2.0px;stroke-linecap:butt;stroke-linejoin:miter;stroke-opacity:1"/>
<path class="bond-48 atom-15 atom-10" d="M 38.5,194.4 L 37.6,203.3" style="fill:none;fill-rule:evenodd;stroke:#000000;stroke-width:2.0px;stroke-linecap:butt;stroke-linejoin:miter;stroke-opacity:1"/>
<path class="bond-49 atom-46 atom-21" d="M 237.6,196.3 L 242.2,213.1" style="fill:none;fill-rule:evenodd;stroke:#000000;stroke-width:2.0px;stroke-linecap:butt;stroke-linejoin:miter;stroke-opacity:1"/>
<path class="bond-50 atom-13 atom-7" d="M 44.9,162.8 L 52.2,167.9" style="fill:none;fill-rule:evenodd;stroke:#0000FF;stroke-width:2.0px;stroke-linecap:butt;stroke-linejoin:miter;stroke-opacity:1"/>
<path class="bond-50 atom-13 atom-7" d="M 52.2,167.9 L 59.4,173.1" style="fill:none;fill-rule:evenodd;stroke:#000000;stroke-width:2.0px;stroke-linecap:butt;stroke-linejoin:miter;stroke-opacity:1"/>
<path class="bond-51 atom-30 atom-25" d="M 333.0,247.5 L 312.3,253.2" style="fill:none;fill-rule:evenodd;stroke:#000000;stroke-width:2.0px;stroke-linecap:butt;stroke-linejoin:miter;stroke-opacity:1"/>
<path class="bond-52 atom-47 atom-35" d="M 358.2,142.7 L 367.4,156.8" style="fill:none;fill-rule:evenodd;stroke:#000000;stroke-width:2.0px;stroke-linecap:butt;stroke-linejoin:miter;stroke-opacity:1"/>
<path d="M 132.1,202.6 L 131.2,202.0 L 130.2,202.4" style="fill:none;stroke:#000000;stroke-width:2.0px;stroke-linecap:butt;stroke-linejoin:miter;stroke-opacity:1;"/>
<path d="M 112.6,210.3 L 111.6,210.8 L 110.8,210.1" style="fill:none;stroke:#000000;stroke-width:2.0px;stroke-linecap:butt;stroke-linejoin:miter;stroke-opacity:1;"/>
<path d="M 96.3,177.9 L 96.4,176.9 L 95.5,176.2" style="fill:none;stroke:#000000;stroke-width:2.0px;stroke-linecap:butt;stroke-linejoin:miter;stroke-opacity:1;"/>
<path d="M 79.8,164.9 L 78.9,164.3 L 78.0,164.8" style="fill:none;stroke:#000000;stroke-width:2.0px;stroke-linecap:butt;stroke-linejoin:miter;stroke-opacity:1;"/>
<path d="M 73.8,206.4 L 74.6,207.0 L 75.6,206.6" style="fill:none;stroke:#000000;stroke-width:2.0px;stroke-linecap:butt;stroke-linejoin:miter;stroke-opacity:1;"/>
<path d="M 21.1,191.4 L 20.2,190.8 L 20.3,189.7" style="fill:none;stroke:#000000;stroke-width:2.0px;stroke-linecap:butt;stroke-linejoin:miter;stroke-opacity:1;"/>
<path d="M 22.3,170.5 L 22.4,169.4 L 22.8,169.2" style="fill:none;stroke:#000000;stroke-width:2.0px;stroke-linecap:butt;stroke-linejoin:miter;stroke-opacity:1;"/>
<path d="M 167.3,206.1 L 168.2,205.7 L 169.1,206.3" style="fill:none;stroke:#000000;stroke-width:2.0px;stroke-linecap:butt;stroke-linejoin:miter;stroke-opacity:1;"/>
<path d="M 184.8,217.6 L 185.7,218.2 L 186.6,217.8" style="fill:none;stroke:#000000;stroke-width:2.0px;stroke-linecap:butt;stroke-linejoin:miter;stroke-opacity:1;"/>
<path d="M 204.3,209.9 L 205.2,209.4 L 206.1,210.0" style="fill:none;stroke:#000000;stroke-width:2.0px;stroke-linecap:butt;stroke-linejoin:miter;stroke-opacity:1;"/>
<path d="M 221.8,221.3 L 222.7,222.0 L 223.6,221.5" style="fill:none;stroke:#000000;stroke-width:2.0px;stroke-linecap:butt;stroke-linejoin:miter;stroke-opacity:1;"/>
<path d="M 253.4,230.2 L 254.0,231.1 L 254.7,231.7" style="fill:none;stroke:#000000;stroke-width:2.0px;stroke-linecap:butt;stroke-linejoin:miter;stroke-opacity:1;"/>
<path d="M 307.1,272.9 L 306.8,274.0 L 307.6,274.7" style="fill:none;stroke:#000000;stroke-width:2.0px;stroke-linecap:butt;stroke-linejoin:miter;stroke-opacity:1;"/>
<path d="M 321.3,288.3 L 322.1,289.1 L 323.1,288.8" style="fill:none;stroke:#000000;stroke-width:2.0px;stroke-linecap:butt;stroke-linejoin:miter;stroke-opacity:1;"/>
<path d="M 341.8,283.7 L 342.8,283.4 L 343.1,282.4" style="fill:none;stroke:#000000;stroke-width:2.0px;stroke-linecap:butt;stroke-linejoin:miter;stroke-opacity:1;"/>
<path d="M 348.0,263.7 L 348.3,262.7 L 347.5,261.9" style="fill:none;stroke:#000000;stroke-width:2.0px;stroke-linecap:butt;stroke-linejoin:miter;stroke-opacity:1;"/>
<path d="M 379.2,139.4 L 379.8,138.5 L 379.6,137.4" style="fill:none;stroke:#000000;stroke-width:2.0px;stroke-linecap:butt;stroke-linejoin:miter;stroke-opacity:1;"/>
<path d="M 375.5,118.5 L 375.2,117.5 L 374.2,117.2" style="fill:none;stroke:#000000;stroke-width:2.0px;stroke-linecap:butt;stroke-linejoin:miter;stroke-opacity:1;"/>
<path d="M 355.8,111.3 L 354.8,110.9 L 354.0,111.7" style="fill:none;stroke:#000000;stroke-width:2.0px;stroke-linecap:butt;stroke-linejoin:miter;stroke-opacity:1;"/>
<path class="atom-0" d="M 145.2 232.8 L 147.2 236.1 Q 147.3 236.4, 147.7 236.9 Q 148.0 237.5, 148.0 237.6 L 148.0 232.8 L 148.8 232.8 L 148.8 238.9 L 148.0 238.9 L 145.8 235.4 Q 145.6 235.0, 145.3 234.5 Q 145.1 234.0, 145.0 233.9 L 145.0 238.9 L 144.2 238.9 L 144.2 232.8 L 145.2 232.8 " fill="#0000FF"/>
<path class="atom-0" d="M 150.0 232.8 L 150.8 232.8 L 150.8 235.4 L 153.9 235.4 L 153.9 232.8 L 154.7 232.8 L 154.7 238.9 L 153.9 238.9 L 153.9 236.1 L 150.8 236.1 L 150.8 238.9 L 150.0 238.9 L 150.0 232.8 " fill="#0000FF"/>
<path class="atom-0" d="M 155.9 238.7 Q 156.1 238.3, 156.4 238.1 Q 156.8 237.9, 157.3 237.9 Q 157.9 237.9, 158.2 238.2 Q 158.5 238.6, 158.5 239.1 Q 158.5 239.7, 158.1 240.3 Q 157.7 240.8, 156.8 241.5 L 158.6 241.5 L 158.6 242.0 L 155.9 242.0 L 155.9 241.6 Q 156.7 241.0, 157.1 240.6 Q 157.5 240.2, 157.8 239.9 Q 158.0 239.5, 158.0 239.2 Q 158.0 238.8, 157.8 238.6 Q 157.6 238.3, 157.3 238.3 Q 156.9 238.3, 156.7 238.5 Q 156.5 238.6, 156.4 238.9 L 155.9 238.7 " fill="#0000FF"/>
<path class="atom-13" d="M 40.6 157.5 L 42.6 160.8 Q 42.8 161.1, 43.1 161.7 Q 43.4 162.2, 43.4 162.3 L 43.4 157.5 L 44.2 157.5 L 44.2 163.6 L 43.4 163.6 L 41.3 160.1 Q 41.0 159.7, 40.8 159.2 Q 40.5 158.8, 40.4 158.6 L 40.4 163.6 L 39.6 163.6 L 39.6 157.5 L 40.6 157.5 " fill="#0000FF"/>
<path class="atom-14" d="M 38.4 179.2 L 40.4 182.4 Q 40.6 182.7, 40.9 183.3 Q 41.2 183.9, 41.3 183.9 L 41.3 179.2 L 42.1 179.2 L 42.1 185.3 L 41.2 185.3 L 39.1 181.7 Q 38.8 181.3, 38.6 180.9 Q 38.3 180.4, 38.2 180.2 L 38.2 185.3 L 37.5 185.3 L 37.5 179.2 L 38.4 179.2 " fill="#0000FF"/>
<path class="atom-14" d="M 37.4 185.9 L 38.2 185.9 L 38.2 188.5 L 41.3 188.5 L 41.3 185.9 L 42.1 185.9 L 42.1 192.0 L 41.3 192.0 L 41.3 189.1 L 38.2 189.1 L 38.2 192.0 L 37.4 192.0 L 37.4 185.9 " fill="#0000FF"/>
<path class="atom-15" d="M 38.5 178.6 L 40.5 181.9 Q 40.7 182.2, 41.0 182.8 Q 41.3 183.3, 41.3 183.4 L 41.3 178.6 L 42.1 178.6 L 42.1 184.7 L 41.3 184.7 L 39.1 181.2 Q 38.9 180.8, 38.6 180.3 Q 38.4 179.9, 38.3 179.7 L 38.3 184.7 L 37.5 184.7 L 37.5 178.6 L 38.5 178.6 " fill="#0000FF"/>
<path class="atom-15" d="M 37.4 172.0 L 38.3 172.0 L 38.3 174.5 L 41.4 174.5 L 41.4 172.0 L 42.2 172.0 L 42.2 178.0 L 41.4 178.0 L 41.4 175.2 L 38.3 175.2 L 38.3 178.0 L 37.4 178.0 L 37.4 172.0 " fill="#0000FF"/>
<path class="atom-18" d="M 180.7 239.6 Q 180.7 238.2, 181.4 237.3 Q 182.2 236.5, 183.5 236.5 Q 184.9 236.5, 185.6 237.3 Q 186.3 238.2, 186.3 239.6 Q 186.3 241.1, 185.6 241.9 Q 184.8 242.8, 183.5 242.8 Q 182.2 242.8, 181.4 241.9 Q 180.7 241.1, 180.7 239.6 M 183.5 242.1 Q 184.4 242.1, 184.9 241.5 Q 185.4 240.8, 185.4 239.6 Q 185.4 238.4, 184.9 237.8 Q 184.4 237.2, 183.5 237.2 Q 182.6 237.2, 182.1 237.8 Q 181.6 238.4, 181.6 239.6 Q 181.6 240.8, 182.1 241.5 Q 182.6 242.1, 183.5 242.1 " fill="#FF0000"/>
<path class="atom-23" d="M 268.4 244.6 Q 268.4 243.1, 269.1 242.3 Q 269.8 241.5, 271.2 241.5 Q 272.4 241.5, 273.1 242.4 L 272.5 242.8 Q 272.1 242.2, 271.2 242.2 Q 270.3 242.2, 269.8 242.8 Q 269.3 243.4, 269.3 244.6 Q 269.3 245.8, 269.8 246.4 Q 270.3 247.0, 271.3 247.0 Q 272.0 247.0, 272.7 246.6 L 273.0 247.2 Q 272.7 247.5, 272.2 247.6 Q 271.7 247.7, 271.2 247.7 Q 269.8 247.7, 269.1 246.9 Q 268.4 246.1, 268.4 244.6 " fill="#000000"/>
<path class="atom-24" d="M 288.5 252.2 Q 288.5 250.7, 289.2 249.9 Q 289.9 249.1, 291.3 249.1 Q 292.5 249.1, 293.2 250.0 L 292.6 250.4 Q 292.1 249.8, 291.3 249.8 Q 290.4 249.8, 289.9 250.4 Q 289.4 251.0, 289.4 252.2 Q 289.4 253.4, 289.9 254.0 Q 290.4 254.6, 291.4 254.6 Q 292.0 254.6, 292.8 254.2 L 293.1 254.9 Q 292.7 255.1, 292.3 255.2 Q 291.8 255.3, 291.2 255.3 Q 289.9 255.3, 289.2 254.5 Q 288.5 253.7, 288.5 252.2 " fill="#000000"/>
<path class="atom-31" d="M 348.6 235.8 Q 348.6 234.3, 349.3 233.5 Q 350.0 232.7, 351.4 232.7 Q 352.6 232.7, 353.3 233.6 L 352.8 234.0 Q 352.3 233.4, 351.4 233.4 Q 350.5 233.4, 350.0 234.0 Q 349.5 234.6, 349.5 235.8 Q 349.5 237.0, 350.0 237.6 Q 350.5 238.2, 351.5 238.2 Q 352.2 238.2, 352.9 237.8 L 353.2 238.5 Q 352.9 238.7, 352.4 238.8 Q 351.9 238.9, 351.4 238.9 Q 350.0 238.9, 349.3 238.1 Q 348.6 237.3, 348.6 235.8 " fill="#000000"/>
<path class="atom-32" d="M 362.1 219.0 Q 362.1 217.5, 362.8 216.7 Q 363.5 215.9, 364.8 215.9 Q 366.1 215.9, 366.8 216.8 L 366.2 217.3 Q 365.7 216.6, 364.8 216.6 Q 363.9 216.6, 363.4 217.3 Q 362.9 217.9, 362.9 219.0 Q 362.9 220.2, 363.4 220.9 Q 364.0 221.5, 364.9 221.5 Q 365.6 221.5, 366.4 221.1 L 366.6 221.7 Q 366.3 221.9, 365.8 222.0 Q 365.3 222.2, 364.8 222.2 Q 363.5 222.2, 362.8 221.4 Q 362.1 220.6, 362.1 219.0 " fill="#000000"/>
<path class="atom-33" d="M 369.7 199.0 Q 369.7 197.5, 370.4 196.7 Q 371.1 195.9, 372.4 195.9 Q 373.7 195.9, 374.4 196.7 L 373.8 197.2 Q 373.3 196.6, 372.4 196.6 Q 371.5 196.6, 371.0 197.2 Q 370.6 197.8, 370.6 199.0 Q 370.6 200.2, 371.1 200.8 Q 371.6 201.4, 372.5 201.4 Q 373.2 201.4, 374.0 201.0 L 374.2 201.6 Q 373.9 201.8, 373.4 202.0 Q 373.0 202.1, 372.4 202.1 Q 371.1 202.1, 370.4 201.3 Q 369.7 200.5, 369.7 199.0 " fill="#000000"/>
<path class="atom-34" d="M 370.7 177.5 Q 370.7 176.0, 371.4 175.2 Q 372.1 174.4, 373.5 174.4 Q 374.7 174.4, 375.4 175.3 L 374.8 175.8 Q 374.3 175.1, 373.5 175.1 Q 372.6 175.1, 372.1 175.7 Q 371.6 176.3, 371.6 177.5 Q 371.6 178.7, 372.1 179.3 Q 372.6 180.0, 373.6 180.0 Q 374.2 180.0, 375.0 179.5 L 375.3 180.2 Q 374.9 180.4, 374.5 180.5 Q 374.0 180.6, 373.5 180.6 Q 372.1 180.6, 371.4 179.8 Q 370.7 179.0, 370.7 177.5 " fill="#000000"/>
<path class="atom-40" d="M 316.5 117.8 Q 316.5 116.3, 317.2 115.5 Q 317.9 114.7, 319.2 114.7 Q 320.5 114.7, 321.2 115.6 L 320.6 116.0 Q 320.1 115.4, 319.2 115.4 Q 318.3 115.4, 317.8 116.0 Q 317.3 116.6, 317.3 117.8 Q 317.3 119.0, 317.8 119.6 Q 318.3 120.2, 319.3 120.2 Q 320.0 120.2, 320.8 119.8 L 321.0 120.5 Q 320.7 120.7, 320.2 120.8 Q 319.7 120.9, 319.2 120.9 Q 317.9 120.9, 317.2 120.1 Q 316.5 119.3, 316.5 117.8 " fill="#000000"/>
<path class="atom-41" d="M 295.0 116.8 Q 295.0 115.2, 295.7 114.5 Q 296.4 113.7, 297.8 113.7 Q 299.0 113.7, 299.7 114.5 L 299.1 115.0 Q 298.6 114.4, 297.8 114.4 Q 296.9 114.4, 296.4 115.0 Q 295.9 115.6, 295.9 116.8 Q 295.9 118.0, 296.4 118.6 Q 296.9 119.2, 297.9 119.2 Q 298.5 119.2, 299.3 118.8 L 299.6 119.4 Q 299.2 119.6, 298.8 119.8 Q 298.3 119.9, 297.8 119.9 Q 296.4 119.9, 295.7 119.1 Q 295.0 118.3, 295.0 116.8 " fill="#000000"/>
<path class="atom-42" d="M 274.3 122.4 Q 274.3 120.9, 275.0 120.1 Q 275.7 119.3, 277.1 119.3 Q 278.3 119.3, 279.0 120.2 L 278.4 120.6 Q 277.9 120.0, 277.1 120.0 Q 276.1 120.0, 275.7 120.6 Q 275.2 121.2, 275.2 122.4 Q 275.2 123.6, 275.7 124.2 Q 276.2 124.8, 277.2 124.8 Q 277.8 124.8, 278.6 124.4 L 278.8 125.1 Q 278.5 125.3, 278.1 125.4 Q 277.6 125.5, 277.0 125.5 Q 275.7 125.5, 275.0 124.7 Q 274.3 123.9, 274.3 122.4 " fill="#000000"/>
<path class="atom-43" d="M 256.3 134.2 Q 256.3 132.7, 257.0 131.9 Q 257.8 131.1, 259.1 131.1 Q 260.4 131.1, 261.0 132.0 L 260.5 132.4 Q 260.0 131.8, 259.1 131.8 Q 258.2 131.8, 257.7 132.4 Q 257.2 133.0, 257.2 134.2 Q 257.2 135.4, 257.7 136.0 Q 258.2 136.6, 259.2 136.6 Q 259.9 136.6, 260.6 136.2 L 260.9 136.9 Q 260.6 137.1, 260.1 137.2 Q 259.6 137.3, 259.1 137.3 Q 257.8 137.3, 257.0 136.5 Q 256.3 135.7, 256.3 134.2 " fill="#000000"/>
<path class="atom-44" d="M 242.9 150.9 Q 242.9 149.4, 243.6 148.6 Q 244.3 147.8, 245.7 147.8 Q 246.9 147.8, 247.6 148.7 L 247.0 149.2 Q 246.5 148.5, 245.7 148.5 Q 244.7 148.5, 244.3 149.1 Q 243.8 149.8, 243.8 150.9 Q 243.8 152.1, 244.3 152.7 Q 244.8 153.4, 245.8 153.4 Q 246.4 153.4, 247.2 153.0 L 247.4 153.6 Q 247.1 153.8, 246.6 153.9 Q 246.2 154.0, 245.6 154.0 Q 244.3 154.0, 243.6 153.2 Q 242.9 152.4, 242.9 150.9 " fill="#000000"/>
<path class="atom-45" d="M 235.3 171.0 Q 235.3 169.5, 236.0 168.7 Q 236.7 167.9, 238.1 167.9 Q 239.3 167.9, 240.0 168.8 L 239.4 169.2 Q 238.9 168.6, 238.1 168.6 Q 237.1 168.6, 236.6 169.2 Q 236.2 169.8, 236.2 171.0 Q 236.2 172.2, 236.7 172.8 Q 237.2 173.4, 238.1 173.4 Q 238.8 173.4, 239.6 173.0 L 239.8 173.7 Q 239.5 173.9, 239.0 174.0 Q 238.6 174.1, 238.0 174.1 Q 236.7 174.1, 236.0 173.3 Q 235.3 172.5, 235.3 171.0 " fill="#000000"/>
<path class="atom-46" d="M 234.3 192.5 Q 234.3 190.9, 235.0 190.1 Q 235.7 189.3, 237.0 189.3 Q 238.3 189.3, 238.9 190.2 L 238.4 190.7 Q 237.9 190.1, 237.0 190.1 Q 236.1 190.1, 235.6 190.7 Q 235.1 191.3, 235.1 192.5 Q 235.1 193.7, 235.6 194.3 Q 236.1 194.9, 237.1 194.9 Q 237.8 194.9, 238.6 194.5 L 238.8 195.1 Q 238.5 195.3, 238.0 195.5 Q 237.5 195.6, 237.0 195.6 Q 235.7 195.6, 235.0 194.8 Q 234.3 194.0, 234.3 192.5 " fill="#000000"/>
<path class="atom-47" d="M 353.3 138.8 Q 353.3 137.3, 354.0 136.5 Q 354.7 135.7, 356.1 135.7 Q 357.3 135.7, 358.0 136.6 L 357.4 137.1 Q 356.9 136.4, 356.1 136.4 Q 355.1 136.4, 354.6 137.1 Q 354.2 137.7, 354.2 138.8 Q 354.2 140.0, 354.7 140.7 Q 355.2 141.3, 356.2 141.3 Q 356.8 141.3, 357.6 140.9 L 357.8 141.5 Q 357.5 141.7, 357.0 141.8 Q 356.6 142.0, 356.0 142.0 Q 354.7 142.0, 354.0 141.2 Q 353.3 140.3, 353.3 138.8 " fill="#000000"/>
<path class="atom-14" d="M 38.3,180.8 L 38.3,183.7 L 41.2,183.7 L 41.2,180.8 L 38.3,180.8" style="fill:none;stroke:#FF0000;stroke-width:2.0px;stroke-linecap:butt;stroke-linejoin:miter;stroke-opacity:1;"/>
<path class="bond-0 atom-0 atom-1" d="M 642.0,192.2 L 643.1,200.9" style="fill:none;fill-rule:evenodd;stroke:#0000FF;stroke-width:2.0px;stroke-linecap:butt;stroke-linejoin:miter;stroke-opacity:1"/>
<path class="bond-0 atom-0 atom-1" d="M 643.1,200.9 L 644.1,209.7" style="fill:none;fill-rule:evenodd;stroke:#000000;stroke-width:2.0px;stroke-linecap:butt;stroke-linejoin:miter;stroke-opacity:1"/>
<path class="bond-1 atom-1 atom-2" d="M 644.1,209.7 L 663.9,218.1" style="fill:none;fill-rule:evenodd;stroke:#000000;stroke-width:2.0px;stroke-linecap:butt;stroke-linejoin:miter;stroke-opacity:1"/>
<path class="bond-2 atom-2 atom-3" d="M 663.9,218.1 L 681.1,205.2" style="fill:none;fill-rule:evenodd;stroke:#000000;stroke-width:2.0px;stroke-linecap:butt;stroke-linejoin:miter;stroke-opacity:1"/>
<path class="bond-3 atom-3 atom-4" d="M 681.1,205.2 L 700.8,213.6" style="fill:none;fill-rule:evenodd;stroke:#000000;stroke-width:2.0px;stroke-linecap:butt;stroke-linejoin:miter;stroke-opacity:1"/>
<path class="bond-4 atom-4 atom-5" d="M 700.8,213.6 L 704.1,235.7" style="fill:none;fill-rule:evenodd;stroke:#000000;stroke-width:2.0px;stroke-linecap:butt;stroke-linejoin:miter;stroke-opacity:1"/>
<path class="bond-5 atom-5 atom-6" d="M 704.1,235.7 L 724.5,244.3" style="fill:none;fill-rule:evenodd;stroke:#000000;stroke-width:2.0px;stroke-linecap:butt;stroke-linejoin:miter;stroke-opacity:1"/>
<path class="bond-6 atom-6 atom-7" d="M 724.5,244.3 L 742.1,231.0" style="fill:none;fill-rule:evenodd;stroke:#000000;stroke-width:2.0px;stroke-linecap:butt;stroke-linejoin:miter;stroke-opacity:1"/>
<path class="bond-7 atom-7 atom-8" d="M 742.1,231.0 L 739.4,209.2" style="fill:none;fill-rule:evenodd;stroke:#000000;stroke-width:2.0px;stroke-linecap:butt;stroke-linejoin:miter;stroke-opacity:1"/>
<path class="bond-8 atom-8 atom-9" d="M 739.4,209.2 L 719.1,200.6" style="fill:none;fill-rule:evenodd;stroke:#000000;stroke-width:2.0px;stroke-linecap:butt;stroke-linejoin:miter;stroke-opacity:1"/>
<path class="bond-9 atom-8 atom-10" d="M 739.4,209.2 L 756.9,195.9" style="fill:none;fill-rule:evenodd;stroke:#000000;stroke-width:2.0px;stroke-linecap:butt;stroke-linejoin:miter;stroke-opacity:1"/>
<path class="bond-10 atom-10 atom-11" d="M 756.9,195.9 L 777.3,204.5" style="fill:none;fill-rule:evenodd;stroke:#000000;stroke-width:2.0px;stroke-linecap:butt;stroke-linejoin:miter;stroke-opacity:1"/>
<path class="bond-11 atom-11 atom-12" d="M 777.3,204.5 L 780.0,226.4" style="fill:none;fill-rule:evenodd;stroke:#000000;stroke-width:2.0px;stroke-linecap:butt;stroke-linejoin:miter;stroke-opacity:1"/>
<path class="bond-12 atom-12 atom-13" d="M 780.0,226.4 L 772.7,231.9" style="fill:none;fill-rule:evenodd;stroke:#000000;stroke-width:2.0px;stroke-linecap:butt;stroke-linejoin:miter;stroke-opacity:1"/>
<path class="bond-12 atom-12 atom-13" d="M 772.7,231.9 L 765.3,237.4" style="fill:none;fill-rule:evenodd;stroke:#0000FF;stroke-width:2.0px;stroke-linecap:butt;stroke-linejoin:miter;stroke-opacity:1"/>
<path class="bond-13 atom-13 atom-14" d="M 762.8,235.9 L 763.8,228.3" style="fill:none;fill-rule:evenodd;stroke:#0000FF;stroke-width:2.0px;stroke-linecap:butt;stroke-linejoin:miter;stroke-opacity:1"/>
<path class="bond-14 atom-14 atom-15" d="M 763.9,220.8 L 763.0,213.8" style="fill:none;fill-rule:evenodd;stroke:#0000FF;stroke-width:2.0px;stroke-linecap:butt;stroke-linejoin:miter;stroke-opacity:1"/>
<path class="bond-15 atom-1 atom-16" d="M 644.1,209.7 L 627.0,222.6" style="fill:none;fill-rule:evenodd;stroke:#000000;stroke-width:2.0px;stroke-linecap:butt;stroke-linejoin:miter;stroke-opacity:1"/>
<path class="bond-16 atom-16 atom-17" d="M 627.0,222.6 L 607.2,214.3" style="fill:none;fill-rule:evenodd;stroke:#000000;stroke-width:2.0px;stroke-linecap:butt;stroke-linejoin:miter;stroke-opacity:1"/>
<path class="bond-17 atom-17 atom-18" d="M 608.9,215.0 L 607.8,205.8" style="fill:none;fill-rule:evenodd;stroke:#000000;stroke-width:2.0px;stroke-linecap:butt;stroke-linejoin:miter;stroke-opacity:1"/>
<path class="bond-17 atom-17 atom-18" d="M 607.8,205.8 L 606.7,196.6" style="fill:none;fill-rule:evenodd;stroke:#FF0000;stroke-width:2.0px;stroke-linecap:butt;stroke-linejoin:miter;stroke-opacity:1"/>
<path class="bond-17 atom-17 atom-18" d="M 605.8,215.4 L 604.6,206.2" style="fill:none;fill-rule:evenodd;stroke:#000000;stroke-width:2.0px;stroke-linecap:butt;stroke-linejoin:miter;stroke-opacity:1"/>
<path class="bond-17 atom-17 atom-18" d="M 604.6,206.2 L 603.5,197.0" style="fill:none;fill-rule:evenodd;stroke:#FF0000;stroke-width:2.0px;stroke-linecap:butt;stroke-linejoin:miter;stroke-opacity:1"/>
<path class="bond-18 atom-17 atom-19" d="M 607.2,214.3 L 590.1,227.2" style="fill:none;fill-rule:evenodd;stroke:#000000;stroke-width:2.0px;stroke-linecap:butt;stroke-linejoin:miter;stroke-opacity:1"/>
<path class="bond-19 atom-19 atom-20" d="M 590.1,227.2 L 570.3,218.8" style="fill:none;fill-rule:evenodd;stroke:#000000;stroke-width:2.0px;stroke-linecap:butt;stroke-linejoin:miter;stroke-opacity:1"/>
<path class="bond-20 atom-20 atom-21" d="M 570.3,218.8 L 553.1,231.7" style="fill:none;fill-rule:evenodd;stroke:#000000;stroke-width:2.0px;stroke-linecap:butt;stroke-linejoin:miter;stroke-opacity:1"/>
<path class="bond-21 atom-21 atom-22" d="M 553.1,231.7 L 533.4,223.3" style="fill:none;fill-rule:evenodd;stroke:#000000;stroke-width:2.0px;stroke-linecap:butt;stroke-linejoin:miter;stroke-opacity:1"/>
<path class="bond-21 atom-21 atom-22" d="M 552.7,228.1 L 536.3,221.1" style="fill:none;fill-rule:evenodd;stroke:#000000;stroke-width:2.0px;stroke-linecap:butt;stroke-linejoin:miter;stroke-opacity:1"/>
<path class="bond-22 atom-22 atom-23" d="M 533.4,223.3 L 530.8,202.0" style="fill:none;fill-rule:evenodd;stroke:#000000;stroke-width:2.0px;stroke-linecap:butt;stroke-linejoin:miter;stroke-opacity:1"/>
<path class="bond-23 atom-23 atom-24" d="M 530.8,202.0 L 547.9,189.1" style="fill:none;fill-rule:evenodd;stroke:#000000;stroke-width:2.0px;stroke-linecap:butt;stroke-linejoin:miter;stroke-opacity:1"/>
<path class="bond-24 atom-24 atom-25" d="M 547.9,189.1 L 545.3,167.7" style="fill:none;fill-rule:evenodd;stroke:#000000;stroke-width:2.0px;stroke-linecap:butt;stroke-linejoin:miter;stroke-opacity:1"/>
<path class="bond-25 atom-25 atom-26" d="M 545.3,167.7 L 562.5,154.8" style="fill:none;fill-rule:evenodd;stroke:#000000;stroke-width:2.0px;stroke-linecap:butt;stroke-linejoin:miter;stroke-opacity:1"/>
<path class="bond-26 atom-26 atom-27" d="M 562.5,154.8 L 559.9,133.5" style="fill:none;fill-rule:evenodd;stroke:#000000;stroke-width:2.0px;stroke-linecap:butt;stroke-linejoin:miter;stroke-opacity:1"/>
<path class="bond-27 atom-27 atom-28" d="M 559.9,133.5 L 540.1,125.1" style="fill:none;fill-rule:evenodd;stroke:#000000;stroke-width:2.0px;stroke-linecap:butt;stroke-linejoin:miter;stroke-opacity:1"/>
<path class="bond-28 atom-28 atom-29" d="M 540.1,125.1 L 522.9,138.0" style="fill:none;fill-rule:evenodd;stroke:#000000;stroke-width:2.0px;stroke-linecap:butt;stroke-linejoin:miter;stroke-opacity:1"/>
<path class="bond-29 atom-29 atom-30" d="M 522.9,138.0 L 525.5,159.3" style="fill:none;fill-rule:evenodd;stroke:#000000;stroke-width:2.0px;stroke-linecap:butt;stroke-linejoin:miter;stroke-opacity:1"/>
<path class="bond-30 atom-30 atom-31" d="M 525.5,159.3 L 508.4,172.3" style="fill:none;fill-rule:evenodd;stroke:#000000;stroke-width:2.0px;stroke-linecap:butt;stroke-linejoin:miter;stroke-opacity:1"/>
<path class="bond-31 atom-31 atom-32" d="M 508.4,172.3 L 488.6,163.9" style="fill:none;fill-rule:evenodd;stroke:#000000;stroke-width:2.0px;stroke-linecap:butt;stroke-linejoin:miter;stroke-opacity:1"/>
<path class="bond-32 atom-32 atom-33" d="M 488.6,163.9 L 471.5,176.8" style="fill:none;fill-rule:evenodd;stroke:#000000;stroke-width:2.0px;stroke-linecap:butt;stroke-linejoin:miter;stroke-opacity:1"/>
<path class="bond-33 atom-33 atom-34" d="M 471.5,176.8 L 474.1,198.1" style="fill:none;fill-rule:evenodd;stroke:#000000;stroke-width:2.0px;stroke-linecap:butt;stroke-linejoin:miter;stroke-opacity:1"/>
<path class="bond-34 atom-34 atom-35" d="M 474.1,198.1 L 456.9,211.1" style="fill:none;fill-rule:evenodd;stroke:#000000;stroke-width:2.0px;stroke-linecap:butt;stroke-linejoin:miter;stroke-opacity:1"/>
<path class="bond-35 atom-35 atom-36" d="M 456.9,211.1 L 437.2,202.7" style="fill:none;fill-rule:evenodd;stroke:#000000;stroke-width:2.0px;stroke-linecap:butt;stroke-linejoin:miter;stroke-opacity:1"/>
<path class="bond-36 atom-36 atom-37" d="M 437.2,202.7 L 420.0,215.6" style="fill:none;fill-rule:evenodd;stroke:#000000;stroke-width:2.0px;stroke-linecap:butt;stroke-linejoin:miter;stroke-opacity:1"/>
<path class="bond-37 atom-37 atom-38" d="M 420.0,215.6 L 422.6,236.9" style="fill:none;fill-rule:evenodd;stroke:#000000;stroke-width:2.0px;stroke-linecap:butt;stroke-linejoin:miter;stroke-opacity:1"/>
<path class="bond-38 atom-38 atom-39" d="M 422.6,236.9 L 442.4,245.3" style="fill:none;fill-rule:evenodd;stroke:#000000;stroke-width:2.0px;stroke-linecap:butt;stroke-linejoin:miter;stroke-opacity:1"/>
<path class="bond-39 atom-39 atom-40" d="M 442.4,245.3 L 445.0,266.5" style="fill:none;fill-rule:evenodd;stroke:#000000;stroke-width:2.0px;stroke-linecap:butt;stroke-linejoin:miter;stroke-opacity:1"/>
<path class="bond-40 atom-40 atom-41" d="M 445.0,266.5 L 464.8,274.9" style="fill:none;fill-rule:evenodd;stroke:#000000;stroke-width:2.0px;stroke-linecap:butt;stroke-linejoin:miter;stroke-opacity:1"/>
<path class="bond-41 atom-41 atom-42" d="M 464.8,274.9 L 481.9,262.1" style="fill:none;fill-rule:evenodd;stroke:#000000;stroke-width:2.0px;stroke-linecap:butt;stroke-linejoin:miter;stroke-opacity:1"/>
<path class="bond-42 atom-42 atom-43" d="M 481.9,262.1 L 501.7,270.5" style="fill:none;fill-rule:evenodd;stroke:#000000;stroke-width:2.0px;stroke-linecap:butt;stroke-linejoin:miter;stroke-opacity:1"/>
<path class="bond-43 atom-43 atom-44" d="M 501.7,270.5 L 518.8,257.6" style="fill:none;fill-rule:evenodd;stroke:#000000;stroke-width:2.0px;stroke-linecap:butt;stroke-linejoin:miter;stroke-opacity:1"/>
<path class="bond-44 atom-44 atom-45" d="M 518.8,257.6 L 538.6,266.0" style="fill:none;fill-rule:evenodd;stroke:#000000;stroke-width:2.0px;stroke-linecap:butt;stroke-linejoin:miter;stroke-opacity:1"/>
<path class="bond-45 atom-45 atom-46" d="M 538.6,266.0 L 555.8,253.0" style="fill:none;fill-rule:evenodd;stroke:#000000;stroke-width:2.0px;stroke-linecap:butt;stroke-linejoin:miter;stroke-opacity:1"/>
<path class="bond-46 atom-39 atom-47" d="M 442.4,245.3 L 459.5,232.4" style="fill:none;fill-rule:evenodd;stroke:#000000;stroke-width:2.0px;stroke-linecap:butt;stroke-linejoin:miter;stroke-opacity:1"/>
<path class="bond-47 atom-9 atom-4" d="M 719.1,200.6 L 700.8,213.6" style="fill:none;fill-rule:evenodd;stroke:#000000;stroke-width:2.0px;stroke-linecap:butt;stroke-linejoin:miter;stroke-opacity:1"/>
<path class="bond-48 atom-15 atom-10" d="M 761.1,206.3 L 759.0,201.1" style="fill:none;fill-rule:evenodd;stroke:#0000FF;stroke-width:2.0px;stroke-linecap:butt;stroke-linejoin:miter;stroke-opacity:1"/>
<path class="bond-48 atom-15 atom-10" d="M 759.0,201.1 L 756.9,195.9" style="fill:none;fill-rule:evenodd;stroke:#000000;stroke-width:2.0px;stroke-linecap:butt;stroke-linejoin:miter;stroke-opacity:1"/>
<path class="bond-49 atom-46 atom-21" d="M 555.8,253.0 L 553.1,231.7" style="fill:none;fill-rule:evenodd;stroke:#000000;stroke-width:2.0px;stroke-linecap:butt;stroke-linejoin:miter;stroke-opacity:1"/>
<path class="bond-50 atom-13 atom-7" d="M 759.3,238.4 L 750.7,234.7" style="fill:none;fill-rule:evenodd;stroke:#0000FF;stroke-width:2.0px;stroke-linecap:butt;stroke-linejoin:miter;stroke-opacity:1"/>
<path class="bond-50 atom-13 atom-7" d="M 750.7,234.7 L 742.1,231.0" style="fill:none;fill-rule:evenodd;stroke:#000000;stroke-width:2.0px;stroke-linecap:butt;stroke-linejoin:miter;stroke-opacity:1"/>
<path class="bond-51 atom-30 atom-25" d="M 525.5,159.3 L 545.3,167.7" style="fill:none;fill-rule:evenodd;stroke:#000000;stroke-width:2.0px;stroke-linecap:butt;stroke-linejoin:miter;stroke-opacity:1"/>
<path class="bond-52 atom-47 atom-35" d="M 459.5,232.4 L 456.9,211.1" style="fill:none;fill-rule:evenodd;stroke:#000000;stroke-width:2.0px;stroke-linecap:butt;stroke-linejoin:miter;stroke-opacity:1"/>
<path d="M 662.9,217.7 L 663.9,218.1 L 664.8,217.5" style="fill:none;stroke:#000000;stroke-width:2.0px;stroke-linecap:butt;stroke-linejoin:miter;stroke-opacity:1;"/>
<path d="M 680.2,205.8 L 681.1,205.2 L 682.0,205.6" style="fill:none;stroke:#000000;stroke-width:2.0px;stroke-linecap:butt;stroke-linejoin:miter;stroke-opacity:1;"/>
<path d="M 704.0,234.6 L 704.1,235.7 L 705.1,236.2" style="fill:none;stroke:#000000;stroke-width:2.0px;stroke-linecap:butt;stroke-linejoin:miter;stroke-opacity:1;"/>
<path d="M 723.5,243.9 L 724.5,244.3 L 725.4,243.7" style="fill:none;stroke:#000000;stroke-width:2.0px;stroke-linecap:butt;stroke-linejoin:miter;stroke-opacity:1;"/>
<path d="M 720.1,201.0 L 719.1,200.6 L 718.2,201.2" style="fill:none;stroke:#000000;stroke-width:2.0px;stroke-linecap:butt;stroke-linejoin:miter;stroke-opacity:1;"/>
<path d="M 776.3,204.0 L 777.3,204.5 L 777.4,205.6" style="fill:none;stroke:#000000;stroke-width:2.0px;stroke-linecap:butt;stroke-linejoin:miter;stroke-opacity:1;"/>
<path d="M 779.9,225.3 L 780.0,226.4 L 779.6,226.6" style="fill:none;stroke:#000000;stroke-width:2.0px;stroke-linecap:butt;stroke-linejoin:miter;stroke-opacity:1;"/>
<path d="M 627.8,222.0 L 627.0,222.6 L 626.0,222.2" style="fill:none;stroke:#000000;stroke-width:2.0px;stroke-linecap:butt;stroke-linejoin:miter;stroke-opacity:1;"/>
<path d="M 608.2,214.7 L 607.2,214.3 L 606.4,214.9" style="fill:none;stroke:#000000;stroke-width:2.0px;stroke-linecap:butt;stroke-linejoin:miter;stroke-opacity:1;"/>
<path d="M 590.9,226.5 L 590.1,227.2 L 589.1,226.8" style="fill:none;stroke:#000000;stroke-width:2.0px;stroke-linecap:butt;stroke-linejoin:miter;stroke-opacity:1;"/>
<path d="M 571.3,219.2 L 570.3,218.8 L 569.4,219.4" style="fill:none;stroke:#000000;stroke-width:2.0px;stroke-linecap:butt;stroke-linejoin:miter;stroke-opacity:1;"/>
<path d="M 534.4,223.7 L 533.4,223.3 L 533.2,222.2" style="fill:none;stroke:#000000;stroke-width:2.0px;stroke-linecap:butt;stroke-linejoin:miter;stroke-opacity:1;"/>
<path d="M 530.9,203.1 L 530.8,202.0 L 531.6,201.3" style="fill:none;stroke:#000000;stroke-width:2.0px;stroke-linecap:butt;stroke-linejoin:miter;stroke-opacity:1;"/>
<path d="M 547.1,189.7 L 547.9,189.1 L 547.8,188.0" style="fill:none;stroke:#000000;stroke-width:2.0px;stroke-linecap:butt;stroke-linejoin:miter;stroke-opacity:1;"/>
<path d="M 561.6,155.4 L 562.5,154.8 L 562.3,153.7" style="fill:none;stroke:#000000;stroke-width:2.0px;stroke-linecap:butt;stroke-linejoin:miter;stroke-opacity:1;"/>
<path d="M 560.0,134.5 L 559.9,133.5 L 558.9,133.0" style="fill:none;stroke:#000000;stroke-width:2.0px;stroke-linecap:butt;stroke-linejoin:miter;stroke-opacity:1;"/>
<path d="M 541.1,125.5 L 540.1,125.1 L 539.2,125.7" style="fill:none;stroke:#000000;stroke-width:2.0px;stroke-linecap:butt;stroke-linejoin:miter;stroke-opacity:1;"/>
<path d="M 523.8,137.4 L 522.9,138.0 L 523.1,139.1" style="fill:none;stroke:#000000;stroke-width:2.0px;stroke-linecap:butt;stroke-linejoin:miter;stroke-opacity:1;"/>
<path d="M 509.2,171.6 L 508.4,172.3 L 507.4,171.9" style="fill:none;stroke:#000000;stroke-width:2.0px;stroke-linecap:butt;stroke-linejoin:miter;stroke-opacity:1;"/>
<path d="M 489.6,164.3 L 488.6,163.9 L 487.8,164.5" style="fill:none;stroke:#000000;stroke-width:2.0px;stroke-linecap:butt;stroke-linejoin:miter;stroke-opacity:1;"/>
<path d="M 472.3,176.2 L 471.5,176.8 L 471.6,177.9" style="fill:none;stroke:#000000;stroke-width:2.0px;stroke-linecap:butt;stroke-linejoin:miter;stroke-opacity:1;"/>
<path d="M 473.9,197.1 L 474.1,198.1 L 473.2,198.8" style="fill:none;stroke:#000000;stroke-width:2.0px;stroke-linecap:butt;stroke-linejoin:miter;stroke-opacity:1;"/>
<path d="M 438.1,203.1 L 437.2,202.7 L 436.3,203.3" style="fill:none;stroke:#000000;stroke-width:2.0px;stroke-linecap:butt;stroke-linejoin:miter;stroke-opacity:1;"/>
<path d="M 420.9,215.0 L 420.0,215.6 L 420.1,216.7" style="fill:none;stroke:#000000;stroke-width:2.0px;stroke-linecap:butt;stroke-linejoin:miter;stroke-opacity:1;"/>
<path d="M 422.5,235.9 L 422.6,236.9 L 423.6,237.4" style="fill:none;stroke:#000000;stroke-width:2.0px;stroke-linecap:butt;stroke-linejoin:miter;stroke-opacity:1;"/>
<path d="M 444.9,265.5 L 445.0,266.5 L 446.0,267.0" style="fill:none;stroke:#000000;stroke-width:2.0px;stroke-linecap:butt;stroke-linejoin:miter;stroke-opacity:1;"/>
<path d="M 463.8,274.5 L 464.8,274.9 L 465.7,274.3" style="fill:none;stroke:#000000;stroke-width:2.0px;stroke-linecap:butt;stroke-linejoin:miter;stroke-opacity:1;"/>
<path d="M 481.1,262.8 L 481.9,262.1 L 482.9,262.5" style="fill:none;stroke:#000000;stroke-width:2.0px;stroke-linecap:butt;stroke-linejoin:miter;stroke-opacity:1;"/>
<path d="M 500.7,270.1 L 501.7,270.5 L 502.5,269.9" style="fill:none;stroke:#000000;stroke-width:2.0px;stroke-linecap:butt;stroke-linejoin:miter;stroke-opacity:1;"/>
<path d="M 518.0,258.2 L 518.8,257.6 L 519.8,258.0" style="fill:none;stroke:#000000;stroke-width:2.0px;stroke-linecap:butt;stroke-linejoin:miter;stroke-opacity:1;"/>
<path d="M 537.6,265.5 L 538.6,266.0 L 539.5,265.3" style="fill:none;stroke:#000000;stroke-width:2.0px;stroke-linecap:butt;stroke-linejoin:miter;stroke-opacity:1;"/>
<path d="M 554.9,253.7 L 555.8,253.0 L 555.6,252.0" style="fill:none;stroke:#000000;stroke-width:2.0px;stroke-linecap:butt;stroke-linejoin:miter;stroke-opacity:1;"/>
<path d="M 458.7,233.1 L 459.5,232.4 L 459.4,231.3" style="fill:none;stroke:#000000;stroke-width:2.0px;stroke-linecap:butt;stroke-linejoin:miter;stroke-opacity:1;"/>
<path class="atom-0" d="M 640.2 185.4 L 642.2 188.6 Q 642.4 188.9, 642.7 189.5 Q 643.0 190.1, 643.0 190.1 L 643.0 185.4 L 643.8 185.4 L 643.8 191.5 L 643.0 191.5 L 640.9 187.9 Q 640.6 187.5, 640.3 187.0 Q 640.1 186.6, 640.0 186.4 L 640.0 191.5 L 639.2 191.5 L 639.2 185.4 L 640.2 185.4 " fill="#0000FF"/>
<path class="atom-0" d="M 645.0 185.4 L 645.8 185.4 L 645.8 188.0 L 648.9 188.0 L 648.9 185.4 L 649.8 185.4 L 649.8 191.5 L 648.9 191.5 L 648.9 188.6 L 645.8 188.6 L 645.8 191.5 L 645.0 191.5 L 645.0 185.4 " fill="#0000FF"/>
<path class="atom-0" d="M 650.9 191.2 Q 651.1 190.9, 651.4 190.7 Q 651.8 190.4, 652.3 190.4 Q 652.9 190.4, 653.2 190.8 Q 653.6 191.1, 653.6 191.7 Q 653.6 192.3, 653.1 192.8 Q 652.7 193.4, 651.8 194.0 L 653.6 194.0 L 653.6 194.5 L 650.9 194.5 L 650.9 194.1 Q 651.7 193.6, 652.1 193.2 Q 652.6 192.8, 652.8 192.4 Q 653.0 192.1, 653.0 191.7 Q 653.0 191.3, 652.8 191.1 Q 652.6 190.9, 652.3 190.9 Q 652.0 190.9, 651.7 191.0 Q 651.5 191.2, 651.4 191.4 L 650.9 191.2 " fill="#0000FF"/>
<path class="atom-13" d="M 761.0 236.6 L 763.0 239.8 Q 763.2 240.1, 763.5 240.7 Q 763.8 241.3, 763.8 241.3 L 763.8 236.6 L 764.6 236.6 L 764.6 242.7 L 763.8 242.7 L 761.6 239.2 Q 761.4 238.8, 761.1 238.3 Q 760.9 237.8, 760.8 237.7 L 760.8 242.7 L 760.0 242.7 L 760.0 236.6 L 761.0 236.6 " fill="#0000FF"/>
<path class="atom-14" d="M 763.0 221.5 L 765.0 224.7 Q 765.2 225.0, 765.5 225.6 Q 765.8 226.2, 765.8 226.2 L 765.8 221.5 L 766.6 221.5 L 766.6 227.6 L 765.8 227.6 L 763.7 224.1 Q 763.4 223.6, 763.2 223.2 Q 762.9 222.7, 762.8 222.6 L 762.8 227.6 L 762.0 227.6 L 762.0 221.5 L 763.0 221.5 " fill="#0000FF"/>
<path class="atom-14" d="M 767.8 221.5 L 768.7 221.5 L 768.7 224.1 L 771.8 224.1 L 771.8 221.5 L 772.6 221.5 L 772.6 227.6 L 771.8 227.6 L 771.8 224.8 L 768.7 224.8 L 768.7 227.6 L 767.8 227.6 L 767.8 221.5 " fill="#0000FF"/>
<path class="atom-15" d="M 761.2 207.0 L 763.2 210.2 Q 763.4 210.5, 763.7 211.1 Q 764.0 211.7, 764.0 211.7 L 764.0 207.0 L 764.9 207.0 L 764.9 213.1 L 764.0 213.1 L 761.9 209.6 Q 761.6 209.2, 761.4 208.7 Q 761.1 208.2, 761.0 208.1 L 761.0 213.1 L 760.2 213.1 L 760.2 207.0 L 761.2 207.0 " fill="#0000FF"/>
<path class="atom-15" d="M 766.0 207.0 L 766.9 207.0 L 766.9 209.6 L 770.0 209.6 L 770.0 207.0 L 770.8 207.0 L 770.8 213.1 L 770.0 213.1 L 770.0 210.3 L 766.9 210.3 L 766.9 213.1 L 766.0 213.1 L 766.0 207.0 " fill="#0000FF"/>
<path class="atom-18" d="M 601.8 193.0 Q 601.8 191.5, 602.5 190.7 Q 603.3 189.9, 604.6 189.9 Q 606.0 189.9, 606.7 190.7 Q 607.4 191.5, 607.4 193.0 Q 607.4 194.4, 606.7 195.3 Q 605.9 196.1, 604.6 196.1 Q 603.3 196.1, 602.5 195.3 Q 601.8 194.4, 601.8 193.0 M 604.6 195.4 Q 605.5 195.4, 606.0 194.8 Q 606.5 194.2, 606.5 193.0 Q 606.5 191.8, 606.0 191.2 Q 605.5 190.6, 604.6 190.6 Q 603.7 190.6, 603.2 191.2 Q 602.7 191.8, 602.7 193.0 Q 602.7 194.2, 603.2 194.8 Q 603.7 195.4, 604.6 195.4 " fill="#FF0000"/>
</svg>