<svg xmlns="http://www.w3.org/2000/svg" xmlns:rdkit="http://www.rdkit.org/xml" xmlns:xlink="http://www.w3.org/1999/xlink" version="1.1" baseProfile="full" xml:space="preserve" width="900px" height="300px" viewBox="0 0 900 300">
<!-- END OF HEADER -->
<rect style="opacity:1.0;fill:#FFFFFF;stroke:none" width="900.0" height="300.0" x="0.0" y="0.0"> </rect>
<path class="bond-0 atom-0 atom-1" d="M 64.2,244.1 L 35.8,190.0" style="fill:none;fill-rule:evenodd;stroke:#000000;stroke-width:2.0px;stroke-linecap:butt;stroke-linejoin:miter;stroke-opacity:1"/>
<path class="bond-1 atom-1 atom-2" d="M 35.8,190.0 L 68.4,138.4" style="fill:none;fill-rule:evenodd;stroke:#000000;stroke-width:2.0px;stroke-linecap:butt;stroke-linejoin:miter;stroke-opacity:1"/>
<path class="bond-2 atom-2 atom-3" d="M 68.4,138.4 L 40.1,84.3" style="fill:none;fill-rule:evenodd;stroke:#000000;stroke-width:2.0px;stroke-linecap:butt;stroke-linejoin:miter;stroke-opacity:1"/>
<path class="bond-3 atom-3 atom-4" d="M 40.1,84.3 L 72.7,32.7" style="fill:none;fill-rule:evenodd;stroke:#000000;stroke-width:2.0px;stroke-linecap:butt;stroke-linejoin:miter;stroke-opacity:1"/>
<path class="bond-4 atom-4 atom-5" d="M 72.7,32.7 L 98.3,33.7" style="fill:none;fill-rule:evenodd;stroke:#000000;stroke-width:2.0px;stroke-linecap:butt;stroke-linejoin:miter;stroke-opacity:1"/>
<path class="bond-4 atom-4 atom-5" d="M 98.3,33.7 L 123.9,34.8" style="fill:none;fill-rule:evenodd;stroke:#FF0000;stroke-width:2.0px;stroke-linecap:butt;stroke-linejoin:miter;stroke-opacity:1"/>
<path class="bond-5 atom-5 atom-6" d="M 139.5,46.1 L 150.8,67.7" style="fill:none;fill-rule:evenodd;stroke:#FF0000;stroke-width:2.0px;stroke-linecap:butt;stroke-linejoin:miter;stroke-opacity:1"/>
<path class="bond-5 atom-5 atom-6" d="M 150.8,67.7 L 162.1,89.3" style="fill:none;fill-rule:evenodd;stroke:#000000;stroke-width:2.0px;stroke-linecap:butt;stroke-linejoin:miter;stroke-opacity:1"/>
<path class="bond-6 atom-6 atom-7" d="M 162.1,89.3 L 182.2,103.4" style="fill:none;fill-rule:evenodd;stroke:#000000;stroke-width:2.0px;stroke-linecap:butt;stroke-linejoin:miter;stroke-opacity:1"/>
<path class="bond-6 atom-6 atom-7" d="M 182.2,103.4 L 202.2,117.4" style="fill:none;fill-rule:evenodd;stroke:#FF0000;stroke-width:2.0px;stroke-linecap:butt;stroke-linejoin:miter;stroke-opacity:1"/>
<path class="bond-7 atom-7 atom-8" d="M 221.9,120.7 L 242.0,113.2" style="fill:none;fill-rule:evenodd;stroke:#FF0000;stroke-width:2.0px;stroke-linecap:butt;stroke-linejoin:miter;stroke-opacity:1"/>
<path class="bond-7 atom-7 atom-8" d="M 242.0,113.2 L 262.1,105.8" style="fill:none;fill-rule:evenodd;stroke:#000000;stroke-width:2.0px;stroke-linecap:butt;stroke-linejoin:miter;stroke-opacity:1"/>
<path class="bond-8 atom-8 atom-9" d="M 262.1,105.8 L 264.2,166.8" style="fill:none;fill-rule:evenodd;stroke:#000000;stroke-width:2.0px;stroke-linecap:butt;stroke-linejoin:miter;stroke-opacity:1"/>
<path class="bond-9 atom-9 atom-10" d="M 264.2,166.8 L 217.8,206.5" style="fill:none;fill-rule:evenodd;stroke:#000000;stroke-width:2.0px;stroke-linecap:butt;stroke-linejoin:miter;stroke-opacity:1"/>
<path class="bond-10 atom-10 atom-11" d="M 217.8,206.5 L 157.8,195.0" style="fill:none;fill-rule:evenodd;stroke:#000000;stroke-width:2.0px;stroke-linecap:butt;stroke-linejoin:miter;stroke-opacity:1"/>
<path class="bond-11 atom-11 atom-12" d="M 157.8,195.0 L 125.2,246.6" style="fill:none;fill-rule:evenodd;stroke:#000000;stroke-width:2.0px;stroke-linecap:butt;stroke-linejoin:miter;stroke-opacity:1"/>
<path class="bond-12 atom-11 atom-13" d="M 157.8,195.0 L 129.5,140.9" style="fill:none;fill-rule:evenodd;stroke:#000000;stroke-width:2.0px;stroke-linecap:butt;stroke-linejoin:miter;stroke-opacity:1"/>
<path class="bond-13 atom-13 atom-14" d="M 129.5,140.9 L 155.2,134.1" style="fill:none;fill-rule:evenodd;stroke:#000000;stroke-width:2.0px;stroke-linecap:butt;stroke-linejoin:miter;stroke-opacity:1"/>
<path class="bond-13 atom-13 atom-14" d="M 155.2,134.1 L 181.0,127.2" style="fill:none;fill-rule:evenodd;stroke:#FF0000;stroke-width:2.0px;stroke-linecap:butt;stroke-linejoin:miter;stroke-opacity:1"/>
<path class="bond-14 atom-14 atom-15" d="M 190.9,124.6 L 200.7,122.0" style="fill:none;fill-rule:evenodd;stroke:#FF0000;stroke-width:2.0px;stroke-linecap:butt;stroke-linejoin:miter;stroke-opacity:1"/>
<path class="bond-15 atom-12 atom-0" d="M 125.2,246.6 L 64.2,244.1" style="fill:none;fill-rule:evenodd;stroke:#000000;stroke-width:2.0px;stroke-linecap:butt;stroke-linejoin:miter;stroke-opacity:1"/>
<path class="bond-16 atom-13 atom-2" d="M 129.5,140.9 L 68.4,138.4" style="fill:none;fill-rule:evenodd;stroke:#000000;stroke-width:2.0px;stroke-linecap:butt;stroke-linejoin:miter;stroke-opacity:1"/>
<path class="bond-17 atom-13 atom-6" d="M 129.5,140.9 L 162.1,89.3" style="fill:none;fill-rule:evenodd;stroke:#000000;stroke-width:2.0px;stroke-linecap:butt;stroke-linejoin:miter;stroke-opacity:1"/>
<path class="bond-18 atom-15 atom-8" d="M 210.6,119.4 L 236.3,112.6" style="fill:none;fill-rule:evenodd;stroke:#FF0000;stroke-width:2.0px;stroke-linecap:butt;stroke-linejoin:miter;stroke-opacity:1"/>
<path class="bond-18 atom-15 atom-8" d="M 236.3,112.6 L 262.1,105.8" style="fill:none;fill-rule:evenodd;stroke:#000000;stroke-width:2.0px;stroke-linecap:butt;stroke-linejoin:miter;stroke-opacity:1"/>
<path d="M 62.7,241.4 L 64.2,244.1 L 67.2,244.2" style="fill:none;stroke:#000000;stroke-width:2.0px;stroke-linecap:butt;stroke-linejoin:miter;stroke-opacity:1;"/>
<path d="M 37.2,192.7 L 35.8,190.0 L 37.4,187.4" style="fill:none;stroke:#000000;stroke-width:2.0px;stroke-linecap:butt;stroke-linejoin:miter;stroke-opacity:1;"/>
<path d="M 41.5,87.0 L 40.1,84.3 L 41.7,81.7" style="fill:none;stroke:#000000;stroke-width:2.0px;stroke-linecap:butt;stroke-linejoin:miter;stroke-opacity:1;"/>
<path d="M 71.1,35.3 L 72.7,32.7 L 74.0,32.8" style="fill:none;stroke:#000000;stroke-width:2.0px;stroke-linecap:butt;stroke-linejoin:miter;stroke-opacity:1;"/>
<path d="M 264.1,163.8 L 264.2,166.8 L 261.9,168.8" style="fill:none;stroke:#000000;stroke-width:2.0px;stroke-linecap:butt;stroke-linejoin:miter;stroke-opacity:1;"/>
<path d="M 220.1,204.5 L 217.8,206.5 L 214.8,205.9" style="fill:none;stroke:#000000;stroke-width:2.0px;stroke-linecap:butt;stroke-linejoin:miter;stroke-opacity:1;"/>
<path d="M 126.8,244.0 L 125.2,246.6 L 122.1,246.4" style="fill:none;stroke:#000000;stroke-width:2.0px;stroke-linecap:butt;stroke-linejoin:miter;stroke-opacity:1;"/>
<path class="atom-5" d="M 125.8 35.2 Q 125.8 31.1, 127.9 28.8 Q 129.9 26.4, 133.8 26.4 Q 137.6 26.4, 139.6 28.8 Q 141.7 31.1, 141.7 35.2 Q 141.7 39.4, 139.6 41.8 Q 137.5 44.2, 133.8 44.2 Q 129.9 44.2, 127.9 41.8 Q 125.8 39.5, 125.8 35.2 M 133.8 42.2 Q 136.4 42.2, 137.8 40.5 Q 139.3 38.7, 139.3 35.2 Q 139.3 31.8, 137.8 30.1 Q 136.4 28.4, 133.8 28.4 Q 131.1 28.4, 129.7 30.1 Q 128.3 31.8, 128.3 35.2 Q 128.3 38.7, 129.7 40.5 Q 131.1 42.2, 133.8 42.2 " fill="#FF0000"/>
<path class="atom-7" d="M 204.1 124.4 Q 204.1 120.3, 206.2 118.0 Q 208.3 115.6, 212.1 115.6 Q 215.9 115.6, 218.0 118.0 Q 220.0 120.3, 220.0 124.4 Q 220.0 128.6, 218.0 131.0 Q 215.9 133.4, 212.1 133.4 Q 208.3 133.4, 206.2 131.0 Q 204.1 128.6, 204.1 124.4 M 212.1 131.4 Q 214.7 131.4, 216.1 129.7 Q 217.6 127.9, 217.6 124.4 Q 217.6 121.0, 216.1 119.3 Q 214.7 117.6, 212.1 117.6 Q 209.5 117.6, 208.0 119.3 Q 206.6 121.0, 206.6 124.4 Q 206.6 127.9, 208.0 129.7 Q 209.5 131.4, 212.1 131.4 " fill="#FF0000"/>
<path class="atom-14" d="M 183.0 124.7 Q 183.0 120.5, 185.0 118.2 Q 187.1 115.9, 190.9 115.9 Q 194.7 115.9, 196.8 118.2 Q 198.8 120.5, 198.8 124.7 Q 198.8 128.9, 196.8 131.3 Q 194.7 133.6, 190.9 133.6 Q 187.1 133.6, 185.0 131.3 Q 183.0 128.9, 183.0 124.7 M 190.9 131.7 Q 193.5 131.7, 194.9 129.9 Q 196.4 128.1, 196.4 124.7 Q 196.4 121.3, 194.9 119.6 Q 193.5 117.8, 190.9 117.8 Q 188.3 117.8, 186.8 119.5 Q 185.4 121.3, 185.4 124.7 Q 185.4 128.2, 186.8 129.9 Q 188.3 131.7, 190.9 131.7 " fill="#FF0000"/>
<path class="atom-15" d="M 192.8 122.1 Q 192.8 117.9, 194.8 115.6 Q 196.9 113.3, 200.7 113.3 Q 204.5 113.3, 206.6 115.6 Q 208.6 117.9, 208.6 122.1 Q 208.6 126.3, 206.6 128.7 Q 204.5 131.0, 200.7 131.0 Q 196.9 131.0, 194.8 128.7 Q 192.8 126.3, 192.8 122.1 M 200.7 129.1 Q 203.3 129.1, 204.7 127.3 Q 206.2 125.5, 206.2 122.1 Q 206.2 118.7, 204.7 117.0 Q 203.3 115.2, 200.7 115.2 Q 198.1 115.2, 196.6 116.9 Q 195.2 118.7, 195.2 122.1 Q 195.2 125.6, 196.6 127.3 Q 198.1 129.1, 200.7 129.1 " fill="#FF0000"/>
<path class="legend" d="M 103.4 269.8 L 107.1 275.8 Q 107.4 276.3, 108.0 277.4 Q 108.6 278.5, 108.7 278.6 L 108.7 269.8 L 110.2 269.8 L 110.2 281.1 L 108.6 281.1 L 104.6 274.5 Q 104.2 273.8, 103.7 272.9 Q 103.2 272.0, 103.0 271.7 L 103.0 281.1 L 101.6 281.1 L 101.6 269.8 L 103.4 269.8 " fill="#000000"/>
<path class="legend" d="M 112.1 277.0 Q 112.1 275.0, 113.1 273.8 Q 114.1 272.7, 116.0 272.7 Q 117.9 272.7, 118.9 273.8 Q 119.9 275.0, 119.9 277.0 Q 119.9 279.0, 118.9 280.1 Q 117.9 281.2, 116.0 281.2 Q 114.1 281.2, 113.1 280.1 Q 112.1 279.0, 112.1 277.0 M 113.7 277.0 Q 113.7 278.5, 114.3 279.2 Q 114.9 280.0, 116.0 280.0 Q 117.2 280.0, 117.8 279.2 Q 118.4 278.5, 118.4 277.0 Q 118.4 275.4, 117.8 274.7 Q 117.2 273.9, 116.0 273.9 Q 114.9 273.9, 114.3 274.7 Q 113.7 275.4, 113.7 277.0 " fill="#000000"/>
<path class="legend" d="" fill="#000000"/>
<path class="legend" d="M 127.3 274.0 L 127.3 272.9 L 128.8 272.9 L 129.1 270.5 L 130.2 270.5 L 130.2 272.9 L 132.7 272.9 L 132.7 274.0 L 130.2 274.0 L 130.2 278.6 Q 130.2 280.0, 131.4 280.0 Q 131.9 280.0, 132.6 279.8 L 132.8 280.8 Q 132.0 281.2, 131.1 281.2 Q 130.1 281.2, 129.4 280.5 Q 128.7 279.9, 128.7 278.6 L 128.7 274.0 L 127.3 274.0 " fill="#000000"/>
<path class="legend" d="M 133.9 277.0 Q 133.9 274.9, 134.9 273.8 Q 135.9 272.7, 137.7 272.7 Q 139.5 272.7, 140.3 273.8 Q 141.2 274.9, 141.2 276.9 L 141.2 277.2 L 135.4 277.2 Q 135.4 278.6, 136.1 279.3 Q 136.7 280.0, 137.9 280.0 Q 138.5 280.0, 139.1 279.9 Q 139.7 279.7, 140.4 279.4 L 140.8 280.4 Q 140.0 280.8, 139.3 281.0 Q 138.5 281.2, 137.8 281.2 Q 135.9 281.2, 134.9 280.1 Q 133.9 279.0, 133.9 277.0 M 137.7 273.9 Q 136.8 273.9, 136.2 274.4 Q 135.7 275.0, 135.5 276.0 L 139.6 276.0 Q 139.5 274.9, 139.0 274.4 Q 138.6 273.9, 137.7 273.9 " fill="#000000"/>
<path class="legend" d="M 151.9 272.7 Q 153.3 272.7, 154.0 273.5 Q 154.7 274.2, 154.7 275.6 L 154.7 281.1 L 153.2 281.1 L 153.2 275.8 Q 153.2 274.8, 152.8 274.3 Q 152.4 273.9, 151.6 273.9 Q 150.9 273.9, 150.3 274.2 Q 149.7 274.6, 149.3 275.2 Q 149.3 275.3, 149.3 275.6 L 149.3 281.1 L 147.8 281.1 L 147.8 275.8 Q 147.8 274.8, 147.4 274.3 Q 147.1 273.9, 146.2 273.9 Q 145.5 273.9, 144.9 274.2 Q 144.3 274.6, 143.9 275.2 L 143.9 281.1 L 142.4 281.1 L 142.4 272.9 L 143.6 272.9 L 143.8 274.0 Q 144.9 272.7, 146.5 272.7 Q 148.4 272.7, 149.1 274.2 Q 150.1 272.7, 151.9 272.7 " fill="#000000"/>
<path class="legend" d="M 160.4 272.7 Q 162.1 272.7, 163.0 273.8 Q 164.0 274.8, 164.0 276.8 Q 164.0 278.9, 162.9 280.1 Q 161.8 281.2, 159.8 281.2 Q 158.9 281.2, 158.1 281.0 L 158.1 285.0 L 156.6 285.0 L 156.6 272.9 L 157.8 272.9 L 158.0 273.8 Q 158.4 273.3, 159.0 273.0 Q 159.6 272.7, 160.4 272.7 M 159.8 280.0 Q 161.0 280.0, 161.8 279.2 Q 162.5 278.3, 162.5 276.8 Q 162.5 275.4, 161.9 274.7 Q 161.3 273.9, 160.3 273.9 Q 159.5 273.9, 158.9 274.3 Q 158.3 274.8, 158.1 275.5 L 158.1 279.8 Q 158.9 280.0, 159.8 280.0 " fill="#000000"/>
<path class="legend" d="M 165.4 268.9 L 166.8 268.9 L 166.8 281.1 L 165.4 281.1 L 165.4 268.9 " fill="#000000"/>
<path class="legend" d="M 168.8 278.9 Q 168.8 277.5, 169.9 276.8 Q 171.0 276.1, 172.9 276.1 L 174.1 276.1 L 174.1 275.8 Q 174.1 274.8, 173.7 274.3 Q 173.3 273.9, 172.2 273.9 Q 171.6 273.9, 171.1 274.0 Q 170.6 274.1, 169.8 274.5 L 169.3 273.4 Q 170.8 272.7, 172.3 272.7 Q 174.0 272.7, 174.8 273.5 Q 175.6 274.2, 175.6 275.8 L 175.6 281.1 L 174.4 281.1 Q 174.4 281.0, 174.4 280.8 Q 174.3 280.5, 174.2 280.1 Q 173.1 281.3, 171.5 281.3 Q 170.3 281.3, 169.6 280.6 Q 168.8 280.0, 168.8 278.9 M 170.3 278.8 Q 170.3 279.4, 170.7 279.8 Q 171.1 280.1, 171.8 280.1 Q 172.5 280.1, 173.1 279.8 Q 173.7 279.5, 174.1 279.0 L 174.1 277.2 L 173.0 277.2 Q 171.7 277.2, 171.0 277.6 Q 170.3 278.0, 170.3 278.8 " fill="#000000"/>
<path class="legend" d="M 177.5 274.0 L 177.5 272.9 L 179.0 272.9 L 179.3 270.5 L 180.4 270.5 L 180.4 272.9 L 182.9 272.9 L 182.9 274.0 L 180.4 274.0 L 180.4 278.6 Q 180.4 280.0, 181.6 280.0 Q 182.1 280.0, 182.8 279.8 L 183.1 280.8 Q 182.2 281.2, 181.3 281.2 Q 180.3 281.2, 179.6 280.5 Q 178.9 279.9, 178.9 278.6 L 178.9 274.0 L 177.5 274.0 " fill="#000000"/>
<path class="legend" d="M 184.1 277.0 Q 184.1 274.9, 185.1 273.8 Q 186.1 272.7, 187.9 272.7 Q 189.8 272.7, 190.6 273.8 Q 191.4 274.9, 191.4 276.9 L 191.4 277.2 L 185.6 277.2 Q 185.7 278.6, 186.3 279.3 Q 186.9 280.0, 188.1 280.0 Q 188.7 280.0, 189.3 279.9 Q 189.9 279.7, 190.6 279.4 L 191.1 280.4 Q 190.2 280.8, 189.5 281.0 Q 188.8 281.2, 188.0 281.2 Q 186.1 281.2, 185.1 280.1 Q 184.1 279.0, 184.1 277.0 M 187.9 273.9 Q 187.0 273.9, 186.4 274.4 Q 185.9 275.0, 185.7 276.0 L 189.8 276.0 Q 189.7 274.9, 189.2 274.4 Q 188.8 273.9, 187.9 273.9 " fill="#000000"/>
<path class="legend" d="M 193.1 279.4 Q 193.8 279.7, 194.3 279.8 Q 194.8 280.0, 195.4 280.0 Q 196.1 280.0, 196.5 279.7 Q 196.9 279.4, 196.9 278.8 Q 196.9 278.4, 196.7 278.2 Q 196.5 277.9, 196.2 277.8 Q 196.0 277.7, 195.3 277.5 Q 195.1 277.4, 194.4 277.2 Q 193.7 276.9, 193.3 276.4 Q 192.9 275.8, 192.9 275.0 Q 192.9 274.1, 193.7 273.4 Q 194.4 272.7, 195.9 272.7 Q 196.5 272.7, 197.1 272.9 Q 197.6 273.0, 198.2 273.2 L 197.8 274.4 Q 197.3 274.2, 196.9 274.1 Q 196.4 274.0, 195.9 274.0 Q 195.2 274.0, 194.8 274.3 Q 194.4 274.6, 194.4 275.0 Q 194.4 275.5, 194.7 275.7 Q 195.0 275.9, 195.7 276.2 Q 195.8 276.2, 196.0 276.3 L 196.4 276.4 Q 197.0 276.6, 197.4 276.9 Q 197.9 277.1, 198.1 277.5 Q 198.4 278.0, 198.4 278.7 Q 198.4 279.9, 197.6 280.6 Q 196.8 281.2, 195.4 281.2 Q 194.6 281.2, 194.0 281.1 Q 193.3 280.9, 192.6 280.6 L 193.1 279.4 " fill="#000000"/>
<path class="bond-0 atom-0 atom-1" d="M 526.6,250.4 L 561.4,199.2" style="fill:none;fill-rule:evenodd;stroke:#000000;stroke-width:2.0px;stroke-linecap:butt;stroke-linejoin:miter;stroke-opacity:1"/>
<path class="bond-1 atom-1 atom-2" d="M 561.4,199.2 L 534.4,143.4" style="fill:none;fill-rule:evenodd;stroke:#000000;stroke-width:2.0px;stroke-linecap:butt;stroke-linejoin:miter;stroke-opacity:1"/>
<path class="bond-2 atom-2 atom-3" d="M 534.4,143.4 L 569.5,91.9" style="fill:none;fill-rule:evenodd;stroke:#000000;stroke-width:2.0px;stroke-linecap:butt;stroke-linejoin:miter;stroke-opacity:1"/>
<path class="bond-3 atom-3 atom-4" d="M 569.5,91.9 L 542.5,36.1" style="fill:none;fill-rule:evenodd;stroke:#000000;stroke-width:2.0px;stroke-linecap:butt;stroke-linejoin:miter;stroke-opacity:1"/>
<path class="bond-4 atom-4 atom-5" d="M 542.5,36.1 L 516.5,34.1" style="fill:none;fill-rule:evenodd;stroke:#000000;stroke-width:2.0px;stroke-linecap:butt;stroke-linejoin:miter;stroke-opacity:1"/>
<path class="bond-4 atom-4 atom-5" d="M 516.5,34.1 L 490.6,32.1" style="fill:none;fill-rule:evenodd;stroke:#FF0000;stroke-width:2.0px;stroke-linecap:butt;stroke-linejoin:miter;stroke-opacity:1"/>
<path class="bond-5 atom-5 atom-6" d="M 473.1,42.4 L 459.3,62.7" style="fill:none;fill-rule:evenodd;stroke:#FF0000;stroke-width:2.0px;stroke-linecap:butt;stroke-linejoin:miter;stroke-opacity:1"/>
<path class="bond-5 atom-5 atom-6" d="M 459.3,62.7 L 445.6,82.9" style="fill:none;fill-rule:evenodd;stroke:#000000;stroke-width:2.0px;stroke-linecap:butt;stroke-linejoin:miter;stroke-opacity:1"/>
<path class="bond-6 atom-6 atom-7" d="M 445.6,82.9 L 421.1,74.6" style="fill:none;fill-rule:evenodd;stroke:#000000;stroke-width:2.0px;stroke-linecap:butt;stroke-linejoin:miter;stroke-opacity:1"/>
<path class="bond-6 atom-6 atom-7" d="M 421.1,74.6 L 396.7,66.4" style="fill:none;fill-rule:evenodd;stroke:#FF0000;stroke-width:2.0px;stroke-linecap:butt;stroke-linejoin:miter;stroke-opacity:1"/>
<path class="bond-7 atom-7 atom-8" d="M 376.7,69.6 L 356.0,83.5" style="fill:none;fill-rule:evenodd;stroke:#FF0000;stroke-width:2.0px;stroke-linecap:butt;stroke-linejoin:miter;stroke-opacity:1"/>
<path class="bond-7 atom-7 atom-8" d="M 356.0,83.5 L 335.2,97.4" style="fill:none;fill-rule:evenodd;stroke:#000000;stroke-width:2.0px;stroke-linecap:butt;stroke-linejoin:miter;stroke-opacity:1"/>
<path class="bond-8 atom-8 atom-9" d="M 335.2,97.4 L 330.5,159.2" style="fill:none;fill-rule:evenodd;stroke:#000000;stroke-width:2.0px;stroke-linecap:butt;stroke-linejoin:miter;stroke-opacity:1"/>
<path class="bond-9 atom-9 atom-10" d="M 330.5,159.2 L 376.5,200.9" style="fill:none;fill-rule:evenodd;stroke:#000000;stroke-width:2.0px;stroke-linecap:butt;stroke-linejoin:miter;stroke-opacity:1"/>
<path class="bond-10 atom-10 atom-11" d="M 376.5,200.9 L 437.7,189.9" style="fill:none;fill-rule:evenodd;stroke:#000000;stroke-width:2.0px;stroke-linecap:butt;stroke-linejoin:miter;stroke-opacity:1"/>
<path class="bond-11 atom-11 atom-12" d="M 437.7,189.9 L 464.5,246.0" style="fill:none;fill-rule:evenodd;stroke:#000000;stroke-width:2.0px;stroke-linecap:butt;stroke-linejoin:miter;stroke-opacity:1"/>
<path class="bond-12 atom-11 atom-13" d="M 437.7,189.9 L 472.6,138.7" style="fill:none;fill-rule:evenodd;stroke:#000000;stroke-width:2.0px;stroke-linecap:butt;stroke-linejoin:miter;stroke-opacity:1"/>
<path class="bond-13 atom-13 atom-14" d="M 472.6,138.7 L 451.6,146.9" style="fill:none;fill-rule:evenodd;stroke:#000000;stroke-width:2.0px;stroke-linecap:butt;stroke-linejoin:miter;stroke-opacity:1"/>
<path class="bond-13 atom-13 atom-14" d="M 451.6,146.9 L 430.7,155.2" style="fill:none;fill-rule:evenodd;stroke:#FF0000;stroke-width:2.0px;stroke-linecap:butt;stroke-linejoin:miter;stroke-opacity:1"/>
<path class="bond-14 atom-14 atom-15" d="M 410.8,156.1 L 377.0,146.1" style="fill:none;fill-rule:evenodd;stroke:#FF0000;stroke-width:2.0px;stroke-linecap:butt;stroke-linejoin:miter;stroke-opacity:1"/>
<path class="bond-15 atom-12 atom-0" d="M 464.5,246.0 L 526.6,250.4" style="fill:none;fill-rule:evenodd;stroke:#000000;stroke-width:2.0px;stroke-linecap:butt;stroke-linejoin:miter;stroke-opacity:1"/>
<path class="bond-16 atom-13 atom-2" d="M 472.6,138.7 L 534.4,143.4" style="fill:none;fill-rule:evenodd;stroke:#000000;stroke-width:2.0px;stroke-linecap:butt;stroke-linejoin:miter;stroke-opacity:1"/>
<path class="bond-17 atom-13 atom-6" d="M 472.6,138.7 L 445.6,82.9" style="fill:none;fill-rule:evenodd;stroke:#000000;stroke-width:2.0px;stroke-linecap:butt;stroke-linejoin:miter;stroke-opacity:1"/>
<path class="bond-18 atom-15 atom-8" d="M 359.6,132.4 L 347.4,114.9" style="fill:none;fill-rule:evenodd;stroke:#FF0000;stroke-width:2.0px;stroke-linecap:butt;stroke-linejoin:miter;stroke-opacity:1"/>
<path class="bond-18 atom-15 atom-8" d="M 347.4,114.9 L 335.2,97.4" style="fill:none;fill-rule:evenodd;stroke:#000000;stroke-width:2.0px;stroke-linecap:butt;stroke-linejoin:miter;stroke-opacity:1"/>
<path d="M 528.3,247.8 L 526.6,250.4 L 523.5,250.1" style="fill:none;stroke:#000000;stroke-width:2.0px;stroke-linecap:butt;stroke-linejoin:miter;stroke-opacity:1;"/>
<path d="M 559.7,201.8 L 561.4,199.2 L 560.1,196.4" style="fill:none;stroke:#000000;stroke-width:2.0px;stroke-linecap:butt;stroke-linejoin:miter;stroke-opacity:1;"/>
<path d="M 567.7,94.5 L 569.5,91.9 L 568.1,89.1" style="fill:none;stroke:#000000;stroke-width:2.0px;stroke-linecap:butt;stroke-linejoin:miter;stroke-opacity:1;"/>
<path d="M 543.8,38.9 L 542.5,36.1 L 541.2,36.0" style="fill:none;stroke:#000000;stroke-width:2.0px;stroke-linecap:butt;stroke-linejoin:miter;stroke-opacity:1;"/>
<path d="M 330.8,156.1 L 330.5,159.2 L 332.8,161.3" style="fill:none;stroke:#000000;stroke-width:2.0px;stroke-linecap:butt;stroke-linejoin:miter;stroke-opacity:1;"/>
<path d="M 374.2,198.8 L 376.5,200.9 L 379.6,200.3" style="fill:none;stroke:#000000;stroke-width:2.0px;stroke-linecap:butt;stroke-linejoin:miter;stroke-opacity:1;"/>
<path d="M 463.2,243.2 L 464.5,246.0 L 467.6,246.2" style="fill:none;stroke:#000000;stroke-width:2.0px;stroke-linecap:butt;stroke-linejoin:miter;stroke-opacity:1;"/>
<path class="atom-5" d="M 472.7 31.4 Q 472.7 27.3, 474.7 25.0 Q 476.8 22.6, 480.6 22.6 Q 484.5 22.6, 486.5 25.0 Q 488.6 27.3, 488.6 31.4 Q 488.6 35.6, 486.5 38.0 Q 484.4 40.4, 480.6 40.4 Q 476.8 40.4, 474.7 38.0 Q 472.7 35.7, 472.7 31.4 M 480.6 38.5 Q 483.3 38.5, 484.7 36.7 Q 486.1 34.9, 486.1 31.4 Q 486.1 28.0, 484.7 26.3 Q 483.3 24.6, 480.6 24.6 Q 478.0 24.6, 476.5 26.3 Q 475.1 28.0, 475.1 31.4 Q 475.1 34.9, 476.5 36.7 Q 478.0 38.5, 480.6 38.5 " fill="#FF0000"/>
<path class="atom-7" d="M 378.8 63.0 Q 378.8 58.9, 380.8 56.6 Q 382.9 54.2, 386.7 54.2 Q 390.5 54.2, 392.6 56.6 Q 394.6 58.9, 394.6 63.0 Q 394.6 67.2, 392.6 69.6 Q 390.5 72.0, 386.7 72.0 Q 382.9 72.0, 380.8 69.6 Q 378.8 67.3, 378.8 63.0 M 386.7 70.0 Q 389.3 70.0, 390.8 68.3 Q 392.2 66.5, 392.2 63.0 Q 392.2 59.6, 390.8 57.9 Q 389.3 56.2, 386.7 56.2 Q 384.1 56.2, 382.6 57.9 Q 381.2 59.6, 381.2 63.0 Q 381.2 66.5, 382.6 68.3 Q 384.1 70.0, 386.7 70.0 " fill="#FF0000"/>
<path class="atom-14" d="M 412.8 159.1 Q 412.8 155.0, 414.9 152.7 Q 416.9 150.3, 420.8 150.3 Q 424.6 150.3, 426.6 152.7 Q 428.7 155.0, 428.7 159.1 Q 428.7 163.3, 426.6 165.7 Q 424.5 168.1, 420.8 168.1 Q 417.0 168.1, 414.9 165.7 Q 412.8 163.4, 412.8 159.1 M 420.8 166.1 Q 423.4 166.1, 424.8 164.4 Q 426.3 162.6, 426.3 159.1 Q 426.3 155.7, 424.8 154.0 Q 423.4 152.3, 420.8 152.3 Q 418.1 152.3, 416.7 154.0 Q 415.3 155.7, 415.3 159.1 Q 415.3 162.6, 416.7 164.4 Q 418.1 166.1, 420.8 166.1 " fill="#FF0000"/>
<path class="atom-15" d="M 359.1 143.2 Q 359.1 139.1, 361.2 136.8 Q 363.2 134.4, 367.1 134.4 Q 370.9 134.4, 372.9 136.8 Q 375.0 139.1, 375.0 143.2 Q 375.0 147.4, 372.9 149.8 Q 370.8 152.2, 367.1 152.2 Q 363.2 152.2, 361.2 149.8 Q 359.1 147.5, 359.1 143.2 M 367.1 150.3 Q 369.7 150.3, 371.1 148.5 Q 372.6 146.7, 372.6 143.2 Q 372.6 139.8, 371.1 138.1 Q 369.7 136.4, 367.1 136.4 Q 364.4 136.4, 363.0 138.1 Q 361.6 139.8, 361.6 143.2 Q 361.6 146.7, 363.0 148.5 Q 364.4 150.3, 367.1 150.3 " fill="#FF0000"/>
<path class="legend" d="M 389.0 269.8 Q 391.5 269.8, 392.9 271.2 Q 394.2 272.7, 394.2 275.4 Q 394.2 278.1, 392.8 279.6 Q 391.5 281.1, 389.0 281.1 L 385.3 281.1 L 385.3 269.8 L 389.0 269.8 M 389.0 279.8 Q 390.7 279.8, 391.7 278.7 Q 392.6 277.6, 392.6 275.4 Q 392.6 273.2, 391.7 272.1 Q 390.7 271.0, 389.0 271.0 L 386.9 271.0 L 386.9 279.8 L 389.0 279.8 " fill="#000000"/>
<path class="legend" d="M 395.5 277.0 Q 395.5 274.9, 396.5 273.8 Q 397.5 272.7, 399.4 272.7 Q 401.2 272.7, 402.0 273.8 Q 402.8 274.9, 402.8 276.9 L 402.8 277.2 L 397.1 277.2 Q 397.1 278.6, 397.7 279.3 Q 398.3 280.0, 399.5 280.0 Q 400.2 280.0, 400.7 279.9 Q 401.3 279.7, 402.1 279.4 L 402.5 280.4 Q 401.7 280.8, 400.9 281.0 Q 400.2 281.2, 399.4 281.2 Q 397.6 281.2, 396.6 280.1 Q 395.5 279.0, 395.5 277.0 M 399.4 273.9 Q 398.4 273.9, 397.9 274.4 Q 397.3 275.0, 397.1 276.0 L 401.2 276.0 Q 401.1 274.9, 400.7 274.4 Q 400.2 273.9, 399.4 273.9 " fill="#000000"/>
<path class="legend" d="M 404.0 274.0 L 404.0 272.9 L 405.5 272.9 L 405.5 271.6 Q 405.5 270.2, 406.2 269.6 Q 406.9 268.9, 408.1 268.9 Q 408.6 268.9, 409.1 269.0 Q 409.5 269.1, 410.1 269.4 L 409.6 270.4 Q 408.9 270.1, 408.2 270.1 Q 407.6 270.1, 407.3 270.5 Q 407.0 270.9, 407.0 271.5 L 407.0 272.9 L 409.5 272.9 L 409.5 274.0 L 407.0 274.0 L 407.0 283.6 L 405.5 283.6 L 405.5 274.0 L 404.0 274.0 " fill="#000000"/>
<path class="legend" d="M 410.2 278.9 Q 410.2 277.5, 411.3 276.8 Q 412.3 276.1, 414.3 276.1 L 415.5 276.1 L 415.5 275.8 Q 415.5 274.8, 415.1 274.3 Q 414.7 273.9, 413.6 273.9 Q 413.0 273.9, 412.5 274.0 Q 411.9 274.1, 411.1 274.5 L 410.7 273.4 Q 412.2 272.7, 413.7 272.7 Q 415.4 272.7, 416.2 273.5 Q 417.0 274.2, 417.0 275.8 L 417.0 281.1 L 415.8 281.1 Q 415.8 281.0, 415.8 280.8 Q 415.7 280.5, 415.6 280.1 Q 414.5 281.3, 412.9 281.3 Q 411.7 281.3, 411.0 280.6 Q 410.2 280.0, 410.2 278.9 M 411.7 278.8 Q 411.7 279.4, 412.1 279.8 Q 412.5 280.1, 413.2 280.1 Q 413.9 280.1, 414.5 279.8 Q 415.1 279.5, 415.5 279.0 L 415.5 277.2 L 414.4 277.2 Q 413.1 277.2, 412.4 277.6 Q 411.7 278.0, 411.7 278.8 " fill="#000000"/>
<path class="legend" d="M 425.8 272.9 L 425.8 281.1 L 424.6 281.1 L 424.4 279.9 Q 423.4 281.2, 421.6 281.2 Q 420.2 281.2, 419.5 280.5 Q 418.8 279.7, 418.8 278.3 L 418.8 272.9 L 420.3 272.9 L 420.3 278.2 Q 420.3 279.2, 420.7 279.6 Q 421.1 280.0, 421.9 280.0 Q 422.7 280.0, 423.3 279.7 Q 423.9 279.4, 424.3 278.7 L 424.3 272.9 L 425.8 272.9 " fill="#000000"/>
<path class="legend" d="M 427.7 268.9 L 429.2 268.9 L 429.2 281.1 L 427.7 281.1 L 427.7 268.9 " fill="#000000"/>
<path class="legend" d="M 431.2 274.0 L 431.2 272.9 L 432.8 272.9 L 433.0 270.5 L 434.1 270.5 L 434.1 272.9 L 436.7 272.9 L 436.7 274.0 L 434.1 274.0 L 434.1 278.6 Q 434.1 280.0, 435.3 280.0 Q 435.8 280.0, 436.5 279.8 L 436.8 280.8 Q 435.9 281.2, 435.1 281.2 Q 434.0 281.2, 433.3 280.5 Q 432.6 279.9, 432.6 278.6 L 432.6 274.0 L 431.2 274.0 " fill="#000000"/>
<path class="legend" d="" fill="#000000"/>
<path class="legend" d="M 443.7 274.0 L 443.7 272.9 L 445.3 272.9 L 445.5 270.5 L 446.7 270.5 L 446.7 272.9 L 449.2 272.9 L 449.2 274.0 L 446.7 274.0 L 446.7 278.6 Q 446.7 280.0, 447.9 280.0 Q 448.3 280.0, 449.1 279.8 L 449.3 280.8 Q 448.4 281.2, 447.6 281.2 Q 446.5 281.2, 445.8 280.5 Q 445.2 279.9, 445.2 278.6 L 445.2 274.0 L 443.7 274.0 " fill="#000000"/>
<path class="legend" d="M 450.3 277.0 Q 450.3 274.9, 451.3 273.8 Q 452.3 272.7, 454.2 272.7 Q 456.0 272.7, 456.8 273.8 Q 457.6 274.9, 457.6 276.9 L 457.6 277.2 L 451.8 277.2 Q 451.9 278.6, 452.5 279.3 Q 453.1 280.0, 454.3 280.0 Q 454.9 280.0, 455.5 279.9 Q 456.1 279.7, 456.8 279.4 L 457.3 280.4 Q 456.5 280.8, 455.7 281.0 Q 455.0 281.2, 454.2 281.2 Q 452.4 281.2, 451.3 280.1 Q 450.3 279.0, 450.3 277.0 M 454.2 273.9 Q 453.2 273.9, 452.6 274.4 Q 452.1 275.0, 451.9 276.0 L 456.0 276.0 Q 455.9 274.9, 455.4 274.4 Q 455.0 273.9, 454.2 273.9 " fill="#000000"/>
<path class="legend" d="M 468.3 272.7 Q 469.7 272.7, 470.4 273.5 Q 471.1 274.2, 471.1 275.6 L 471.1 281.1 L 469.6 281.1 L 469.6 275.8 Q 469.6 274.8, 469.2 274.3 Q 468.8 273.9, 468.0 273.9 Q 467.3 273.9, 466.7 274.2 Q 466.1 274.6, 465.7 275.2 Q 465.7 275.3, 465.7 275.6 L 465.7 281.1 L 464.2 281.1 L 464.2 275.8 Q 464.2 274.8, 463.8 274.3 Q 463.5 273.9, 462.6 273.9 Q 461.9 273.9, 461.3 274.2 Q 460.7 274.6, 460.3 275.2 L 460.3 281.1 L 458.8 281.1 L 458.8 272.9 L 460.0 272.9 L 460.2 274.0 Q 461.3 272.7, 462.9 272.7 Q 464.8 272.7, 465.5 274.2 Q 466.5 272.7, 468.3 272.7 " fill="#000000"/>
<path class="legend" d="M 476.8 272.7 Q 478.5 272.7, 479.4 273.8 Q 480.4 274.8, 480.4 276.8 Q 480.4 278.9, 479.2 280.1 Q 478.1 281.2, 476.2 281.2 Q 475.2 281.2, 474.4 281.0 L 474.4 285.0 L 472.9 285.0 L 472.9 272.9 L 474.2 272.9 L 474.3 273.8 Q 474.8 273.3, 475.4 273.0 Q 476.0 272.7, 476.8 272.7 M 476.1 280.0 Q 477.4 280.0, 478.1 279.2 Q 478.8 278.3, 478.8 276.8 Q 478.8 275.4, 478.3 274.7 Q 477.7 273.9, 476.7 273.9 Q 475.9 273.9, 475.3 274.3 Q 474.7 274.8, 474.4 275.5 L 474.4 279.8 Q 475.3 280.0, 476.1 280.0 " fill="#000000"/>
<path class="legend" d="M 481.7 268.9 L 483.2 268.9 L 483.2 281.1 L 481.7 281.1 L 481.7 268.9 " fill="#000000"/>
<path class="legend" d="M 485.2 278.9 Q 485.2 277.5, 486.2 276.8 Q 487.3 276.1, 489.2 276.1 L 490.4 276.1 L 490.4 275.8 Q 490.4 274.8, 490.0 274.3 Q 489.6 273.9, 488.5 273.9 Q 487.9 273.9, 487.4 274.0 Q 486.9 274.1, 486.1 274.5 L 485.6 273.4 Q 487.1 272.7, 488.6 272.7 Q 490.3 272.7, 491.1 273.5 Q 491.9 274.2, 491.9 275.8 L 491.9 281.1 L 490.8 281.1 Q 490.7 281.0, 490.7 280.8 Q 490.6 280.5, 490.5 280.1 Q 489.4 281.3, 487.9 281.3 Q 486.6 281.3, 485.9 280.6 Q 485.2 280.0, 485.2 278.9 M 486.7 278.8 Q 486.7 279.4, 487.0 279.8 Q 487.4 280.1, 488.1 280.1 Q 488.8 280.1, 489.4 279.8 Q 490.0 279.5, 490.4 279.0 L 490.4 277.2 L 489.3 277.2 Q 488.0 277.2, 487.3 277.6 Q 486.7 278.0, 486.7 278.8 " fill="#000000"/>
<path class="legend" d="M 493.8 274.0 L 493.8 272.9 L 495.3 272.9 L 495.6 270.5 L 496.7 270.5 L 496.7 272.9 L 499.2 272.9 L 499.2 274.0 L 496.7 274.0 L 496.7 278.6 Q 496.7 280.0, 497.9 280.0 Q 498.4 280.0, 499.1 279.8 L 499.3 280.8 Q 498.5 281.2, 497.6 281.2 Q 496.6 281.2, 495.9 280.5 Q 495.2 279.9, 495.2 278.6 L 495.2 274.0 L 493.8 274.0 " fill="#000000"/>
<path class="legend" d="M 500.3 277.0 Q 500.3 274.9, 501.4 273.8 Q 502.4 272.7, 504.2 272.7 Q 506.0 272.7, 506.8 273.8 Q 507.6 274.9, 507.6 276.9 L 507.6 277.2 L 501.9 277.2 Q 501.9 278.6, 502.5 279.3 Q 503.2 280.0, 504.3 280.0 Q 505.0 280.0, 505.6 279.9 Q 506.2 279.7, 506.9 279.4 L 507.3 280.4 Q 506.5 280.8, 505.8 281.0 Q 505.0 281.2, 504.2 281.2 Q 502.4 281.2, 501.4 280.1 Q 500.3 279.0, 500.3 277.0 M 504.2 273.9 Q 503.3 273.9, 502.7 274.4 Q 502.1 275.0, 501.9 276.0 L 506.0 276.0 Q 505.9 274.9, 505.5 274.4 Q 505.0 273.9, 504.2 273.9 " fill="#000000"/>
<path class="legend" d="M 509.3 279.4 Q 510.0 279.7, 510.5 279.8 Q 511.1 280.0, 511.6 280.0 Q 512.3 280.0, 512.7 279.7 Q 513.2 279.4, 513.2 278.8 Q 513.2 278.4, 512.9 278.2 Q 512.7 277.9, 512.5 277.8 Q 512.2 277.7, 511.5 277.5 Q 511.4 277.4, 510.6 277.2 Q 509.9 276.9, 509.5 276.4 Q 509.1 275.8, 509.1 275.0 Q 509.1 274.1, 509.9 273.4 Q 510.6 272.7, 512.1 272.7 Q 512.8 272.7, 513.3 272.9 Q 513.9 273.0, 514.5 273.2 L 514.1 274.4 Q 513.5 274.2, 513.1 274.1 Q 512.6 274.0, 512.1 274.0 Q 511.4 274.0, 511.0 274.3 Q 510.6 274.6, 510.6 275.0 Q 510.6 275.5, 510.9 275.7 Q 511.2 275.9, 511.9 276.2 Q 512.1 276.2, 512.2 276.3 L 512.6 276.4 Q 513.3 276.6, 513.7 276.9 Q 514.1 277.1, 514.4 277.5 Q 514.7 278.0, 514.7 278.7 Q 514.7 279.9, 513.8 280.6 Q 513.0 281.2, 511.6 281.2 Q 510.9 281.2, 510.2 281.1 Q 509.5 280.9, 508.8 280.6 L 509.3 279.4 " fill="#000000"/>
<path class="bond-0 atom-0 atom-1" d="M 684.8,258.0 L 655.4,201.6" style="fill:none;fill-rule:evenodd;stroke:#000000;stroke-width:2.0px;stroke-linecap:butt;stroke-linejoin:miter;stroke-opacity:1"/>
<path class="bond-1 atom-1 atom-2" d="M 655.4,201.6 L 679.1,140.6" style="fill:none;fill-rule:evenodd;stroke:#000000;stroke-width:2.0px;stroke-linecap:butt;stroke-linejoin:miter;stroke-opacity:1"/>
<path class="bond-2 atom-2 atom-3" d="M 679.1,140.6 L 622.4,107.4" style="fill:none;fill-rule:evenodd;stroke:#000000;stroke-width:2.0px;stroke-linecap:butt;stroke-linejoin:miter;stroke-opacity:1"/>
<path class="bond-3 atom-3 atom-4" d="M 622.4,107.4 L 616.5,43.7" style="fill:none;fill-rule:evenodd;stroke:#000000;stroke-width:2.0px;stroke-linecap:butt;stroke-linejoin:miter;stroke-opacity:1"/>
<path class="bond-4 atom-4 atom-5" d="M 616.5,43.7 L 641.8,35.4" style="fill:none;fill-rule:evenodd;stroke:#000000;stroke-width:2.0px;stroke-linecap:butt;stroke-linejoin:miter;stroke-opacity:1"/>
<path class="bond-4 atom-4 atom-5" d="M 641.8,35.4 L 667.1,27.1" style="fill:none;fill-rule:evenodd;stroke:#FF0000;stroke-width:2.0px;stroke-linecap:butt;stroke-linejoin:miter;stroke-opacity:1"/>
<path class="bond-5 atom-5 atom-6" d="M 687.3,30.3 L 709.5,44.9" style="fill:none;fill-rule:evenodd;stroke:#FF0000;stroke-width:2.0px;stroke-linecap:butt;stroke-linejoin:miter;stroke-opacity:1"/>
<path class="bond-5 atom-5 atom-6" d="M 709.5,44.9 L 731.8,59.4" style="fill:none;fill-rule:evenodd;stroke:#000000;stroke-width:2.0px;stroke-linecap:butt;stroke-linejoin:miter;stroke-opacity:1"/>
<path class="bond-6 atom-6 atom-7" d="M 731.8,59.4 L 758.9,73.9" style="fill:none;fill-rule:evenodd;stroke:#000000;stroke-width:2.0px;stroke-linecap:butt;stroke-linejoin:miter;stroke-opacity:1"/>
<path class="bond-6 atom-6 atom-7" d="M 758.9,73.9 L 786.0,88.3" style="fill:none;fill-rule:evenodd;stroke:#FF0000;stroke-width:2.0px;stroke-linecap:butt;stroke-linejoin:miter;stroke-opacity:1"/>
<path class="bond-7 atom-7 atom-8" d="M 806.2,93.8 L 833.8,94.0" style="fill:none;fill-rule:evenodd;stroke:#FF0000;stroke-width:2.0px;stroke-linecap:butt;stroke-linejoin:miter;stroke-opacity:1"/>
<path class="bond-7 atom-7 atom-8" d="M 833.8,94.0 L 861.3,94.2" style="fill:none;fill-rule:evenodd;stroke:#000000;stroke-width:2.0px;stroke-linecap:butt;stroke-linejoin:miter;stroke-opacity:1"/>
<path class="bond-8 atom-8 atom-9" d="M 861.3,94.2 L 883.5,154.9" style="fill:none;fill-rule:evenodd;stroke:#000000;stroke-width:2.0px;stroke-linecap:butt;stroke-linejoin:miter;stroke-opacity:1"/>
<path class="bond-9 atom-9 atom-10" d="M 883.5,154.9 L 834.2,196.0" style="fill:none;fill-rule:evenodd;stroke:#000000;stroke-width:2.0px;stroke-linecap:butt;stroke-linejoin:miter;stroke-opacity:1"/>
<path class="bond-10 atom-10 atom-11" d="M 834.2,196.0 L 771.0,180.2" style="fill:none;fill-rule:evenodd;stroke:#000000;stroke-width:2.0px;stroke-linecap:butt;stroke-linejoin:miter;stroke-opacity:1"/>
<path class="bond-11 atom-11 atom-12" d="M 771.0,180.2 L 746.0,240.3" style="fill:none;fill-rule:evenodd;stroke:#000000;stroke-width:2.0px;stroke-linecap:butt;stroke-linejoin:miter;stroke-opacity:1"/>
<path class="bond-12 atom-11 atom-13" d="M 771.0,180.2 L 743.3,118.3" style="fill:none;fill-rule:evenodd;stroke:#000000;stroke-width:2.0px;stroke-linecap:butt;stroke-linejoin:miter;stroke-opacity:1"/>
<path class="bond-13 atom-13 atom-14" d="M 743.3,118.3 L 758.2,91.2" style="fill:none;fill-rule:evenodd;stroke:#000000;stroke-width:2.0px;stroke-linecap:butt;stroke-linejoin:miter;stroke-opacity:1"/>
<path class="bond-13 atom-13 atom-14" d="M 758.2,91.2 L 773.1,64.2" style="fill:none;fill-rule:evenodd;stroke:#FF0000;stroke-width:2.0px;stroke-linecap:butt;stroke-linejoin:miter;stroke-opacity:1"/>
<path class="bond-14 atom-14 atom-15" d="M 789.4,49.8 L 831.4,36.5" style="fill:none;fill-rule:evenodd;stroke:#FF0000;stroke-width:2.0px;stroke-linecap:butt;stroke-linejoin:miter;stroke-opacity:1"/>
<path class="bond-15 atom-12 atom-0" d="M 746.0,240.3 L 684.8,258.0" style="fill:none;fill-rule:evenodd;stroke:#000000;stroke-width:2.0px;stroke-linecap:butt;stroke-linejoin:miter;stroke-opacity:1"/>
<path class="bond-16 atom-13 atom-2" d="M 743.3,118.3 L 679.1,140.6" style="fill:none;fill-rule:evenodd;stroke:#000000;stroke-width:2.0px;stroke-linecap:butt;stroke-linejoin:miter;stroke-opacity:1"/>
<path class="bond-17 atom-13 atom-6" d="M 743.3,118.3 L 731.8,59.4" style="fill:none;fill-rule:evenodd;stroke:#000000;stroke-width:2.0px;stroke-linecap:butt;stroke-linejoin:miter;stroke-opacity:1"/>
<path class="bond-18 atom-15 atom-8" d="M 845.2,44.5 L 853.3,69.3" style="fill:none;fill-rule:evenodd;stroke:#FF0000;stroke-width:2.0px;stroke-linecap:butt;stroke-linejoin:miter;stroke-opacity:1"/>
<path class="bond-18 atom-15 atom-8" d="M 853.3,69.3 L 861.3,94.2" style="fill:none;fill-rule:evenodd;stroke:#000000;stroke-width:2.0px;stroke-linecap:butt;stroke-linejoin:miter;stroke-opacity:1"/>
<path d="M 683.4,255.2 L 684.8,258.0 L 687.9,257.1" style="fill:none;stroke:#000000;stroke-width:2.0px;stroke-linecap:butt;stroke-linejoin:miter;stroke-opacity:1;"/>
<path d="M 656.9,204.4 L 655.4,201.6 L 656.6,198.5" style="fill:none;stroke:#000000;stroke-width:2.0px;stroke-linecap:butt;stroke-linejoin:miter;stroke-opacity:1;"/>
<path d="M 625.2,109.0 L 622.4,107.4 L 622.1,104.2" style="fill:none;stroke:#000000;stroke-width:2.0px;stroke-linecap:butt;stroke-linejoin:miter;stroke-opacity:1;"/>
<path d="M 616.8,46.9 L 616.5,43.7 L 617.8,43.3" style="fill:none;stroke:#000000;stroke-width:2.0px;stroke-linecap:butt;stroke-linejoin:miter;stroke-opacity:1;"/>
<path d="M 882.4,151.8 L 883.5,154.9 L 881.0,156.9" style="fill:none;stroke:#000000;stroke-width:2.0px;stroke-linecap:butt;stroke-linejoin:miter;stroke-opacity:1;"/>
<path d="M 836.7,194.0 L 834.2,196.0 L 831.1,195.3" style="fill:none;stroke:#000000;stroke-width:2.0px;stroke-linecap:butt;stroke-linejoin:miter;stroke-opacity:1;"/>
<path d="M 747.3,237.3 L 746.0,240.3 L 743.0,241.1" style="fill:none;stroke:#000000;stroke-width:2.0px;stroke-linecap:butt;stroke-linejoin:miter;stroke-opacity:1;"/>
<path class="atom-5" d="M 669.2 23.8 Q 669.2 19.6, 671.3 17.3 Q 673.3 15.0, 677.2 15.0 Q 681.0 15.0, 683.1 17.3 Q 685.1 19.6, 685.1 23.8 Q 685.1 28.0, 683.0 30.4 Q 681.0 32.8, 677.2 32.8 Q 673.4 32.8, 671.3 30.4 Q 669.2 28.0, 669.2 23.8 M 677.2 30.8 Q 679.8 30.8, 681.2 29.0 Q 682.7 27.3, 682.7 23.8 Q 682.7 20.4, 681.2 18.7 Q 679.8 17.0, 677.2 17.0 Q 674.5 17.0, 673.1 18.7 Q 671.7 20.4, 671.7 23.8 Q 671.7 27.3, 673.1 29.0 Q 674.5 30.8, 677.2 30.8 " fill="#FF0000"/>
<path class="atom-7" d="M 788.1 93.8 Q 788.1 89.6, 790.2 87.3 Q 792.2 85.0, 796.1 85.0 Q 799.9 85.0, 802.0 87.3 Q 804.0 89.6, 804.0 93.8 Q 804.0 98.0, 801.9 100.4 Q 799.9 102.7, 796.1 102.7 Q 792.3 102.7, 790.2 100.4 Q 788.1 98.0, 788.1 93.8 M 796.1 100.8 Q 798.7 100.8, 800.1 99.0 Q 801.6 97.2, 801.6 93.8 Q 801.6 90.4, 800.1 88.7 Q 798.7 86.9, 796.1 86.9 Q 793.4 86.9, 792.0 88.6 Q 790.6 90.3, 790.6 93.8 Q 790.6 97.3, 792.0 99.0 Q 793.4 100.8, 796.1 100.8 " fill="#FF0000"/>
<path class="atom-14" d="M 771.3 53.1 Q 771.3 48.9, 773.4 46.6 Q 775.4 44.3, 779.2 44.3 Q 783.1 44.3, 785.1 46.6 Q 787.2 48.9, 787.2 53.1 Q 787.2 57.3, 785.1 59.7 Q 783.0 62.0, 779.2 62.0 Q 775.4 62.0, 773.4 59.7 Q 771.3 57.3, 771.3 53.1 M 779.2 60.1 Q 781.9 60.1, 783.3 58.3 Q 784.7 56.5, 784.7 53.1 Q 784.7 49.7, 783.3 48.0 Q 781.9 46.2, 779.2 46.2 Q 776.6 46.2, 775.2 47.9 Q 773.8 49.7, 773.8 53.1 Q 773.8 56.6, 775.2 58.3 Q 776.6 60.1, 779.2 60.1 " fill="#FF0000"/>
<path class="atom-15" d="M 833.6 33.3 Q 833.6 29.2, 835.6 26.8 Q 837.7 24.5, 841.5 24.5 Q 845.4 24.5, 847.4 26.8 Q 849.5 29.2, 849.5 33.3 Q 849.5 37.5, 847.4 39.9 Q 845.3 42.3, 841.5 42.3 Q 837.7 42.3, 835.6 39.9 Q 833.6 37.5, 833.6 33.3 M 841.5 40.3 Q 844.2 40.3, 845.6 38.6 Q 847.0 36.8, 847.0 33.3 Q 847.0 29.9, 845.6 28.2 Q 844.2 26.5, 841.5 26.5 Q 838.9 26.5, 837.5 28.2 Q 836.0 29.9, 836.0 33.3 Q 836.0 36.8, 837.5 38.6 Q 838.9 40.3, 841.5 40.3 " fill="#FF0000"/>
<path class="legend" d="M 683.1 275.4 Q 683.1 272.6, 684.4 271.1 Q 685.7 269.6, 688.2 269.6 Q 690.6 269.6, 691.8 271.3 L 690.7 272.1 Q 689.8 270.9, 688.2 270.9 Q 686.5 270.9, 685.6 272.1 Q 684.7 273.2, 684.7 275.4 Q 684.7 277.6, 685.6 278.8 Q 686.6 279.9, 688.4 279.9 Q 689.6 279.9, 691.1 279.2 L 691.5 280.4 Q 691.0 280.8, 690.1 281.0 Q 689.2 281.2, 688.2 281.2 Q 685.7 281.2, 684.4 279.7 Q 683.1 278.2, 683.1 275.4 " fill="#000000"/>
<path class="legend" d="M 700.1 272.9 L 700.1 281.1 L 698.9 281.1 L 698.7 279.9 Q 697.6 281.2, 695.9 281.2 Q 694.5 281.2, 693.8 280.5 Q 693.1 279.7, 693.1 278.3 L 693.1 272.9 L 694.6 272.9 L 694.6 278.2 Q 694.6 279.2, 695.0 279.6 Q 695.4 280.0, 696.2 280.0 Q 696.9 280.0, 697.6 279.7 Q 698.2 279.4, 698.6 278.7 L 698.6 272.9 L 700.1 272.9 " fill="#000000"/>
<path class="legend" d="M 702.5 279.4 Q 703.3 279.7, 703.8 279.8 Q 704.3 280.0, 704.9 280.0 Q 705.6 280.0, 706.0 279.7 Q 706.4 279.4, 706.4 278.8 Q 706.4 278.4, 706.2 278.2 Q 706.0 277.9, 705.7 277.8 Q 705.4 277.7, 704.7 277.5 Q 704.6 277.4, 703.9 277.2 Q 703.1 276.9, 702.7 276.4 Q 702.4 275.8, 702.4 275.0 Q 702.4 274.1, 703.1 273.4 Q 703.9 272.7, 705.4 272.7 Q 706.0 272.7, 706.5 272.9 Q 707.1 273.0, 707.7 273.2 L 707.3 274.4 Q 706.8 274.2, 706.3 274.1 Q 705.9 274.0, 705.4 274.0 Q 704.6 274.0, 704.2 274.3 Q 703.9 274.6, 703.9 275.0 Q 703.9 275.5, 704.2 275.7 Q 704.5 275.9, 705.1 276.2 Q 705.3 276.2, 705.5 276.3 L 705.8 276.4 Q 706.5 276.6, 706.9 276.9 Q 707.3 277.1, 707.6 277.5 Q 707.9 278.0, 707.9 278.7 Q 707.9 279.9, 707.1 280.6 Q 706.2 281.2, 704.9 281.2 Q 704.1 281.2, 703.4 281.1 Q 702.8 280.9, 702.1 280.6 L 702.5 279.4 " fill="#000000"/>
<path class="legend" d="M 709.4 274.0 L 709.4 272.9 L 711.0 272.9 L 711.2 270.5 L 712.4 270.5 L 712.4 272.9 L 714.9 272.9 L 714.9 274.0 L 712.4 274.0 L 712.4 278.6 Q 712.4 280.0, 713.6 280.0 Q 714.0 280.0, 714.7 279.8 L 715.0 280.8 Q 714.1 281.2, 713.3 281.2 Q 712.2 281.2, 711.5 280.5 Q 710.9 279.9, 710.9 278.6 L 710.9 274.0 L 709.4 274.0 " fill="#000000"/>
<path class="legend" d="M 716.1 277.0 Q 716.1 275.0, 717.1 273.8 Q 718.1 272.7, 720.0 272.7 Q 721.8 272.7, 722.9 273.8 Q 723.9 275.0, 723.9 277.0 Q 723.9 279.0, 722.9 280.1 Q 721.8 281.2, 720.0 281.2 Q 718.1 281.2, 717.1 280.1 Q 716.1 279.0, 716.1 277.0 M 717.6 277.0 Q 717.6 278.5, 718.2 279.2 Q 718.8 280.0, 720.0 280.0 Q 721.1 280.0, 721.7 279.2 Q 722.3 278.5, 722.3 277.0 Q 722.3 275.4, 721.7 274.7 Q 721.1 273.9, 720.0 273.9 Q 718.8 273.9, 718.2 274.7 Q 717.6 275.4, 717.6 277.0 " fill="#000000"/>
<path class="legend" d="M 734.8 272.7 Q 736.2 272.7, 736.9 273.5 Q 737.6 274.2, 737.6 275.6 L 737.6 281.1 L 736.1 281.1 L 736.1 275.8 Q 736.1 274.8, 735.7 274.3 Q 735.3 273.9, 734.5 273.9 Q 733.8 273.9, 733.2 274.2 Q 732.5 274.6, 732.2 275.2 Q 732.2 275.3, 732.2 275.6 L 732.2 281.1 L 730.7 281.1 L 730.7 275.8 Q 730.7 274.8, 730.3 274.3 Q 729.9 273.9, 729.1 273.9 Q 728.4 273.9, 727.8 274.2 Q 727.2 274.6, 726.8 275.2 L 726.8 281.1 L 725.3 281.1 L 725.3 272.9 L 726.5 272.9 L 726.7 274.0 Q 727.7 272.7, 729.4 272.7 Q 731.3 272.7, 731.9 274.2 Q 733.0 272.7, 734.8 272.7 " fill="#000000"/>
<path class="legend" d="" fill="#000000"/>
<path class="legend" d="M 745.5 274.0 L 745.5 272.9 L 747.1 272.9 L 747.3 270.5 L 748.4 270.5 L 748.4 272.9 L 750.9 272.9 L 750.9 274.0 L 748.4 274.0 L 748.4 278.6 Q 748.4 280.0, 749.6 280.0 Q 750.1 280.0, 750.8 279.8 L 751.1 280.8 Q 750.2 281.2, 749.4 281.2 Q 748.3 281.2, 747.6 280.5 Q 746.9 279.9, 746.9 278.6 L 746.9 274.0 L 745.5 274.0 " fill="#000000"/>
<path class="legend" d="M 752.1 277.0 Q 752.1 274.9, 753.1 273.8 Q 754.2 272.7, 756.0 272.7 Q 757.8 272.7, 758.6 273.8 Q 759.4 274.9, 759.4 276.9 L 759.4 277.2 L 753.7 277.2 Q 753.7 278.6, 754.3 279.3 Q 755.0 280.0, 756.1 280.0 Q 756.8 280.0, 757.4 279.9 Q 757.9 279.7, 758.7 279.4 L 759.1 280.4 Q 758.3 280.8, 757.5 281.0 Q 756.8 281.2, 756.0 281.2 Q 754.2 281.2, 753.2 280.1 Q 752.1 279.0, 752.1 277.0 M 756.0 273.9 Q 755.0 273.9, 754.5 274.4 Q 753.9 275.0, 753.7 276.0 L 757.8 276.0 Q 757.7 274.9, 757.3 274.4 Q 756.8 273.9, 756.0 273.9 " fill="#000000"/>
<path class="legend" d="M 770.2 272.7 Q 771.6 272.7, 772.3 273.5 Q 773.0 274.2, 773.0 275.6 L 773.0 281.1 L 771.5 281.1 L 771.5 275.8 Q 771.5 274.8, 771.1 274.3 Q 770.7 273.9, 769.9 273.9 Q 769.2 273.9, 768.6 274.2 Q 768.0 274.6, 767.6 275.2 Q 767.6 275.3, 767.6 275.6 L 767.6 281.1 L 766.1 281.1 L 766.1 275.8 Q 766.1 274.8, 765.7 274.3 Q 765.3 273.9, 764.5 273.9 Q 763.8 273.9, 763.2 274.2 Q 762.6 274.6, 762.2 275.2 L 762.2 281.1 L 760.7 281.1 L 760.7 272.9 L 761.9 272.9 L 762.1 274.0 Q 763.2 272.7, 764.8 272.7 Q 766.7 272.7, 767.3 274.2 Q 768.4 272.7, 770.2 272.7 " fill="#000000"/>
<path class="legend" d="M 778.7 272.7 Q 780.4 272.7, 781.4 273.8 Q 782.3 274.8, 782.3 276.8 Q 782.3 278.9, 781.2 280.1 Q 780.1 281.2, 778.1 281.2 Q 777.2 281.2, 776.4 281.0 L 776.4 285.0 L 774.9 285.0 L 774.9 272.9 L 776.1 272.9 L 776.3 273.8 Q 776.7 273.3, 777.3 273.0 Q 778.0 272.7, 778.7 272.7 M 778.1 280.0 Q 779.4 280.0, 780.1 279.2 Q 780.8 278.3, 780.8 276.8 Q 780.8 275.4, 780.2 274.7 Q 779.7 273.9, 778.6 273.9 Q 777.8 273.9, 777.2 274.3 Q 776.6 274.8, 776.4 275.5 L 776.4 279.8 Q 777.2 280.0, 778.1 280.0 " fill="#000000"/>
<path class="legend" d="M 783.7 268.9 L 785.2 268.9 L 785.2 281.1 L 783.7 281.1 L 783.7 268.9 " fill="#000000"/>
<path class="legend" d="M 787.2 278.9 Q 787.2 277.5, 788.3 276.8 Q 789.3 276.1, 791.3 276.1 L 792.5 276.1 L 792.5 275.8 Q 792.5 274.8, 792.1 274.3 Q 791.7 273.9, 790.6 273.9 Q 790.0 273.9, 789.5 274.0 Q 788.9 274.1, 788.1 274.5 L 787.7 273.4 Q 789.2 272.7, 790.7 272.7 Q 792.4 272.7, 793.2 273.5 Q 794.0 274.2, 794.0 275.8 L 794.0 281.1 L 792.8 281.1 Q 792.8 281.0, 792.8 280.8 Q 792.7 280.5, 792.6 280.1 Q 791.5 281.3, 789.9 281.3 Q 788.7 281.3, 788.0 280.6 Q 787.2 280.0, 787.2 278.9 M 788.7 278.8 Q 788.7 279.4, 789.1 279.8 Q 789.5 280.1, 790.2 280.1 Q 790.9 280.1, 791.5 279.8 Q 792.1 279.5, 792.5 279.0 L 792.5 277.2 L 791.4 277.2 Q 790.1 277.2, 789.4 277.6 Q 788.7 278.0, 788.7 278.8 " fill="#000000"/>
<path class="legend" d="M 795.9 274.0 L 795.9 272.9 L 797.5 272.9 L 797.7 270.5 L 798.8 270.5 L 798.8 272.9 L 801.4 272.9 L 801.4 274.0 L 798.8 274.0 L 798.8 278.6 Q 798.8 280.0, 800.0 280.0 Q 800.5 280.0, 801.2 279.8 L 801.5 280.8 Q 800.6 281.2, 799.8 281.2 Q 798.7 281.2, 798.0 280.5 Q 797.3 279.9, 797.3 278.6 L 797.3 274.0 L 795.9 274.0 " fill="#000000"/>
<path class="legend" d="M 802.6 277.0 Q 802.6 274.9, 803.6 273.8 Q 804.6 272.7, 806.4 272.7 Q 808.2 272.7, 809.0 273.8 Q 809.8 274.9, 809.8 276.9 L 809.8 277.2 L 804.1 277.2 Q 804.1 278.6, 804.7 279.3 Q 805.4 280.0, 806.5 280.0 Q 807.2 280.0, 807.8 279.9 Q 808.4 279.7, 809.1 279.4 L 809.5 280.4 Q 808.7 280.8, 808.0 281.0 Q 807.2 281.2, 806.5 281.2 Q 804.6 281.2, 803.6 280.1 Q 802.6 279.0, 802.6 277.0 M 806.4 273.9 Q 805.5 273.9, 804.9 274.4 Q 804.3 275.0, 804.2 276.0 L 808.3 276.0 Q 808.1 274.9, 807.7 274.4 Q 807.2 273.9, 806.4 273.9 " fill="#000000"/>
<path class="legend" d="M 811.6 279.4 Q 812.3 279.7, 812.8 279.8 Q 813.3 280.0, 813.9 280.0 Q 814.6 280.0, 815.0 279.7 Q 815.4 279.4, 815.4 278.8 Q 815.4 278.4, 815.2 278.2 Q 815.0 277.9, 814.7 277.8 Q 814.5 277.7, 813.8 277.5 Q 813.6 277.4, 812.9 277.2 Q 812.2 276.9, 811.8 276.4 Q 811.4 275.8, 811.4 275.0 Q 811.4 274.1, 812.2 273.4 Q 812.9 272.7, 814.4 272.7 Q 815.0 272.7, 815.6 272.9 Q 816.1 273.0, 816.7 273.2 L 816.3 274.4 Q 815.8 274.2, 815.4 274.1 Q 814.9 274.0, 814.4 274.0 Q 813.7 274.0, 813.3 274.3 Q 812.9 274.6, 812.9 275.0 Q 812.9 275.5, 813.2 275.7 Q 813.5 275.9, 814.2 276.2 Q 814.3 276.2, 814.5 276.3 L 814.9 276.4 Q 815.5 276.6, 815.9 276.9 Q 816.4 277.1, 816.6 277.5 Q 816.9 278.0, 816.9 278.7 Q 816.9 279.9, 816.1 280.6 Q 815.3 281.2, 813.9 281.2 Q 813.1 281.2, 812.5 281.1 Q 811.8 280.9, 811.1 280.6 L 811.6 279.4 " fill="#000000"/>
</svg>