<svg xmlns="http://www.w3.org/2000/svg" xmlns:rdkit="http://www.rdkit.org/xml" xmlns:xlink="http://www.w3.org/1999/xlink" version="1.1" baseProfile="full" xml:space="preserve" width="500px" height="250px" viewBox="0 0 500 250">
<!-- END OF HEADER -->
<rect style="opacity:1.0;fill:#FFFFFF;stroke:none" width="500.0" height="250.0" x="0.0" y="0.0"> </rect>
<path class="bond-0 atom-0 atom-1" d="M 47.8,94.5 L 51.4,96.6 L 51.4,100.8 L 33.6,111.1 L 30.0,104.8 Z" style="fill:#FF0000;fill-rule:evenodd;fill-opacity:1;stroke:#FF0000;stroke-width:0.0px;stroke-linecap:butt;stroke-linejoin:miter;stroke-opacity:1;"/>
<path class="bond-1 atom-1 atom-2" d="M 55.0,73.9 L 55.1,94.5 L 51.4,96.6 L 47.8,94.5 L 47.8,73.9 Z" style="fill:#FF0000;fill-rule:evenodd;fill-opacity:1;stroke:#FF0000;stroke-width:0.0px;stroke-linecap:butt;stroke-linejoin:miter;stroke-opacity:1;"/>
<path class="bond-2 atom-1 atom-3" d="M 55.1,94.5 L 71.1,103.7 L 71.1,107.9 L 67.4,110.0 L 51.4,100.8 L 51.4,96.6 Z" style="fill:#FF0000;fill-rule:evenodd;fill-opacity:1;stroke:#FF0000;stroke-width:0.0px;stroke-linecap:butt;stroke-linejoin:miter;stroke-opacity:1;"/>
<path class="bond-3 atom-3 atom-4" d="M 71.1,107.9 L 74.7,110.0 L 74.7,128.5 L 67.5,132.7 L 67.4,110.0 Z" style="fill:#FF0000;fill-rule:evenodd;fill-opacity:1;stroke:#FF0000;stroke-width:0.0px;stroke-linecap:butt;stroke-linejoin:miter;stroke-opacity:1;"/>
<path class="bond-33 atom-3 atom-33" d="M 90.7,92.4 L 90.7,100.7 L 74.7,110.0 L 71.1,107.9 L 71.1,103.7 Z" style="fill:#FF0000;fill-rule:evenodd;fill-opacity:1;stroke:#FF0000;stroke-width:0.0px;stroke-linecap:butt;stroke-linejoin:miter;stroke-opacity:1;"/>
<path class="bond-4 atom-4 atom-5" d="M 74.7,128.5 L 90.7,137.7 L 90.7,146.0 L 67.5,132.7 Z" style="fill:#FF0000;fill-rule:evenodd;fill-opacity:1;stroke:#FF0000;stroke-width:0.0px;stroke-linecap:butt;stroke-linejoin:miter;stroke-opacity:1;"/>
<path class="bond-5 atom-5 atom-6" d="M 106.7,128.5 L 110.4,130.6 L 110.4,134.7 L 90.7,146.0 L 90.7,137.7 Z" style="fill:#FF0000;fill-rule:evenodd;fill-opacity:1;stroke:#FF0000;stroke-width:0.0px;stroke-linecap:butt;stroke-linejoin:miter;stroke-opacity:1;"/>
<path class="bond-6 atom-6 atom-7" d="M 114.0,128.5 L 130.0,137.7 L 130.0,146.0 L 110.4,134.7 L 110.4,130.6 Z" style="fill:#FF0000;fill-rule:evenodd;fill-opacity:1;stroke:#FF0000;stroke-width:0.0px;stroke-linecap:butt;stroke-linejoin:miter;stroke-opacity:1;"/>
<path class="bond-31 atom-6 atom-32" d="M 114.0,105.7 L 114.0,128.5 L 110.4,130.6 L 106.7,128.5 L 106.7,109.9 Z" style="fill:#FF0000;fill-rule:evenodd;fill-opacity:1;stroke:#FF0000;stroke-width:0.0px;stroke-linecap:butt;stroke-linejoin:miter;stroke-opacity:1;"/>
<path class="bond-7 atom-7 atom-8" d="M 146.0,128.4 L 149.6,130.5 L 149.6,134.7 L 130.0,146.0 L 130.0,137.7 Z" style="fill:#FF0000;fill-rule:evenodd;fill-opacity:1;stroke:#FF0000;stroke-width:0.0px;stroke-linecap:butt;stroke-linejoin:miter;stroke-opacity:1;"/>
<path class="bond-8 atom-8 atom-9" d="M 153.2,107.8 L 153.3,128.4 L 149.6,130.5 L 146.0,128.4 L 146.0,107.8 Z" style="fill:#FF0000;fill-rule:evenodd;fill-opacity:1;stroke:#FF0000;stroke-width:0.0px;stroke-linecap:butt;stroke-linejoin:miter;stroke-opacity:1;"/>
<path class="bond-9 atom-8 atom-10" d="M 153.3,128.4 L 169.3,137.6 L 169.3,146.0 L 149.6,134.7 L 149.6,130.5 Z" style="fill:#FF0000;fill-rule:evenodd;fill-opacity:1;stroke:#FF0000;stroke-width:0.0px;stroke-linecap:butt;stroke-linejoin:miter;stroke-opacity:1;"/>
<path class="bond-10 atom-10 atom-11" d="M 188.9,126.3 L 188.9,134.7 L 169.3,146.0 L 169.3,137.6 Z" style="fill:#FF0000;fill-rule:evenodd;fill-opacity:1;stroke:#FF0000;stroke-width:0.0px;stroke-linecap:butt;stroke-linejoin:miter;stroke-opacity:1;"/>
<path class="bond-11 atom-11 atom-12" d="M 188.9,126.3 L 208.5,137.6 L 208.5,146.0 L 188.9,134.7 Z" style="fill:#FF0000;fill-rule:evenodd;fill-opacity:1;stroke:#FF0000;stroke-width:0.0px;stroke-linecap:butt;stroke-linejoin:miter;stroke-opacity:1;"/>
<path class="bond-12 atom-12 atom-13" d="M 228.2,126.3 L 228.2,134.6 L 208.5,146.0 L 208.5,137.6 Z" style="fill:#FF0000;fill-rule:evenodd;fill-opacity:1;stroke:#FF0000;stroke-width:0.0px;stroke-linecap:butt;stroke-linejoin:miter;stroke-opacity:1;"/>
<path class="bond-13 atom-13 atom-14" d="M 228.2,126.3 L 247.8,137.6 L 247.8,146.0 L 228.2,134.6 Z" style="fill:#FF0000;fill-rule:evenodd;fill-opacity:1;stroke:#FF0000;stroke-width:0.0px;stroke-linecap:butt;stroke-linejoin:miter;stroke-opacity:1;"/>
<path class="bond-14 atom-14 atom-15" d="M 267.4,126.2 L 267.4,134.6 L 247.8,146.0 L 247.8,137.6 Z" style="fill:#4C4CFF;fill-rule:evenodd;fill-opacity:1;stroke:#4C4CFF;stroke-width:0.0px;stroke-linecap:butt;stroke-linejoin:miter;stroke-opacity:1;"/>
<path class="bond-15 atom-15 atom-16" d="M 267.4,126.2 L 287.1,137.5 L 287.1,145.9 L 267.4,134.6 Z" style="fill:#FF0000;fill-rule:evenodd;fill-opacity:1;stroke:#FF0000;stroke-width:0.0px;stroke-linecap:butt;stroke-linejoin:miter;stroke-opacity:1;"/>
<path class="bond-16 atom-16 atom-17" d="M 306.7,126.2 L 306.7,134.6 L 287.1,145.9 L 287.1,137.5 Z" style="fill:#FF0000;fill-rule:evenodd;fill-opacity:1;stroke:#FF0000;stroke-width:0.0px;stroke-linecap:butt;stroke-linejoin:miter;stroke-opacity:1;"/>
<path class="bond-17 atom-17 atom-18" d="M 306.7,126.2 L 326.3,137.5 L 326.3,145.9 L 306.7,134.6 Z" style="fill:#FF0000;fill-rule:evenodd;fill-opacity:1;stroke:#FF0000;stroke-width:0.0px;stroke-linecap:butt;stroke-linejoin:miter;stroke-opacity:1;"/>
<path class="bond-18 atom-18 atom-19" d="M 346.0,126.2 L 346.0,134.5 L 326.3,145.9 L 326.3,137.5 Z" style="fill:#FF0000;fill-rule:evenodd;fill-opacity:1;stroke:#FF0000;stroke-width:0.0px;stroke-linecap:butt;stroke-linejoin:miter;stroke-opacity:1;"/>
<path class="bond-19 atom-19 atom-20" d="M 346.0,126.2 L 365.6,137.5 L 365.6,145.8 L 346.0,134.5 Z" style="fill:#FF0000;fill-rule:evenodd;fill-opacity:1;stroke:#FF0000;stroke-width:0.0px;stroke-linecap:butt;stroke-linejoin:miter;stroke-opacity:1;"/>
<path class="bond-20 atom-20 atom-21" d="M 385.2,126.1 L 385.2,134.5 L 365.6,145.8 L 365.6,137.5 Z" style="fill:#FF0000;fill-rule:evenodd;fill-opacity:1;stroke:#FF0000;stroke-width:0.0px;stroke-linecap:butt;stroke-linejoin:miter;stroke-opacity:1;"/>
<path class="bond-21 atom-21 atom-22" d="M 385.2,126.1 L 404.5,137.2 L 404.9,141.6 L 400.8,143.5 L 385.2,134.5 Z" style="fill:#FF0000;fill-rule:evenodd;fill-opacity:1;stroke:#FF0000;stroke-width:0.0px;stroke-linecap:butt;stroke-linejoin:miter;stroke-opacity:1;"/>
<path class="bond-22 atom-22 atom-23" d="M 404.9,141.6 L 408.0,144.9 L 404.7,162.0 L 396.6,165.7 L 400.8,143.5 Z" style="fill:#FF0000;fill-rule:evenodd;fill-opacity:1;stroke:#FF0000;stroke-width:0.0px;stroke-linecap:butt;stroke-linejoin:miter;stroke-opacity:1;"/>
<path class="bond-34 atom-22 atom-27" d="M 421.5,122.5 L 422.3,131.3 L 416.3,136.6 L 404.9,141.6 L 404.5,137.2 Z" style="fill:#FF0000;fill-rule:evenodd;fill-opacity:1;stroke:#FF0000;stroke-width:0.0px;stroke-linecap:butt;stroke-linejoin:miter;stroke-opacity:1;"/>
<path class="bond-35 atom-22 atom-30" d="M 426.0,135.4 L 424.5,142.9 L 408.0,144.9 L 404.9,141.6 L 416.3,136.6 Z" style="fill:#FF0000;fill-rule:evenodd;fill-opacity:1;stroke:#FF0000;stroke-width:0.0px;stroke-linecap:butt;stroke-linejoin:miter;stroke-opacity:1;"/>
<path class="bond-23 atom-23 atom-24" d="M 404.7,162.0 L 421.5,171.7 L 421.9,176.1 L 421.2,179.8 L 396.6,165.7 Z" style="fill:#FF0000;fill-rule:evenodd;fill-opacity:1;stroke:#FF0000;stroke-width:0.0px;stroke-linecap:butt;stroke-linejoin:miter;stroke-opacity:1;"/>
<path class="bond-24 atom-24 atom-25" d="M 435.7,159.3 L 442.3,163.1 L 433.0,171.3 L 421.9,176.1 L 421.5,171.7 Z" style="fill:#FF0000;fill-rule:evenodd;fill-opacity:1;stroke:#FF0000;stroke-width:0.0px;stroke-linecap:butt;stroke-linejoin:miter;stroke-opacity:1;"/>
<path class="bond-36 atom-24 atom-31" d="M 439.3,170.6 L 445.5,177.2 L 421.2,179.8 L 421.9,176.1 L 433.0,171.3 Z" style="fill:#FF0000;fill-rule:evenodd;fill-opacity:1;stroke:#FF0000;stroke-width:0.0px;stroke-linecap:butt;stroke-linejoin:miter;stroke-opacity:1;"/>
<path class="bond-25 atom-25 atom-26" d="M 443.1,139.1 L 446.2,142.4 L 442.3,163.1 L 435.7,159.3 L 439.1,141.0 Z" style="fill:#FF0000;fill-rule:evenodd;fill-opacity:1;stroke:#FF0000;stroke-width:0.0px;stroke-linecap:butt;stroke-linejoin:miter;stroke-opacity:1;"/>
<path class="bond-26 atom-26 atom-27" d="M 421.5,122.5 L 443.9,135.3 L 443.1,139.1 L 439.1,141.0 L 422.3,131.3 Z" style="fill:#FF0000;fill-rule:evenodd;fill-opacity:1;stroke:#FF0000;stroke-width:0.0px;stroke-linecap:butt;stroke-linejoin:miter;stroke-opacity:1;"/>
<path class="bond-27 atom-26 atom-28" d="M 475.0,131.7 L 452.5,141.6 L 446.2,142.4 L 443.1,139.1 L 443.9,135.3 Z" style="fill:#FF0000;fill-rule:evenodd;fill-opacity:1;stroke:#FF0000;stroke-width:0.0px;stroke-linecap:butt;stroke-linejoin:miter;stroke-opacity:1;"/>
<path class="bond-28 atom-28 atom-29" d="M 475.0,131.7 L 450.0,153.4 L 446.6,151.5 L 446.2,147.1 L 452.5,141.6 Z" style="fill:#FF0000;fill-rule:evenodd;fill-opacity:1;stroke:#FF0000;stroke-width:0.0px;stroke-linecap:butt;stroke-linejoin:miter;stroke-opacity:1;"/>
<path class="bond-29 atom-29 atom-30" d="M 426.0,135.4 L 446.2,147.1 L 446.6,151.5 L 442.6,153.4 L 424.5,142.9 Z" style="fill:#FF0000;fill-rule:evenodd;fill-opacity:1;stroke:#FF0000;stroke-width:0.0px;stroke-linecap:butt;stroke-linejoin:miter;stroke-opacity:1;"/>
<path class="bond-30 atom-29 atom-31" d="M 446.6,151.5 L 450.0,153.4 L 445.5,177.2 L 439.3,170.6 L 442.6,153.4 Z" style="fill:#FF0000;fill-rule:evenodd;fill-opacity:1;stroke:#FF0000;stroke-width:0.0px;stroke-linecap:butt;stroke-linejoin:miter;stroke-opacity:1;"/>
<path class="bond-32 atom-32 atom-33" d="M 90.7,92.4 L 114.0,105.7 L 106.7,109.9 L 90.7,100.7 Z" style="fill:#FF0000;fill-rule:evenodd;fill-opacity:1;stroke:#FF0000;stroke-width:0.0px;stroke-linecap:butt;stroke-linejoin:miter;stroke-opacity:1;"/>
<ellipse cx="31.8" cy="107.9" rx="6.8" ry="6.8" class="atom-0" style="fill:#FF0000;fill-rule:evenodd;stroke:#FF0000;stroke-width:1.0px;stroke-linecap:butt;stroke-linejoin:miter;stroke-opacity:1"/>
<ellipse cx="51.4" cy="96.6" rx="6.8" ry="6.8" class="atom-1" style="fill:#FF0000;fill-rule:evenodd;stroke:#FF0000;stroke-width:1.0px;stroke-linecap:butt;stroke-linejoin:miter;stroke-opacity:1"/>
<ellipse cx="51.4" cy="73.9" rx="6.8" ry="6.8" class="atom-2" style="fill:#FF0000;fill-rule:evenodd;stroke:#FF0000;stroke-width:1.0px;stroke-linecap:butt;stroke-linejoin:miter;stroke-opacity:1"/>
<ellipse cx="71.1" cy="107.9" rx="6.8" ry="6.8" class="atom-3" style="fill:#FF0000;fill-rule:evenodd;stroke:#FF0000;stroke-width:1.0px;stroke-linecap:butt;stroke-linejoin:miter;stroke-opacity:1"/>
<ellipse cx="71.1" cy="130.6" rx="6.8" ry="6.8" class="atom-4" style="fill:#FF0000;fill-rule:evenodd;stroke:#FF0000;stroke-width:1.0px;stroke-linecap:butt;stroke-linejoin:miter;stroke-opacity:1"/>
<ellipse cx="90.7" cy="141.9" rx="6.8" ry="6.8" class="atom-5" style="fill:#FF0000;fill-rule:evenodd;stroke:#FF0000;stroke-width:1.0px;stroke-linecap:butt;stroke-linejoin:miter;stroke-opacity:1"/>
<ellipse cx="110.4" cy="130.6" rx="6.8" ry="6.8" class="atom-6" style="fill:#FF0000;fill-rule:evenodd;stroke:#FF0000;stroke-width:1.0px;stroke-linecap:butt;stroke-linejoin:miter;stroke-opacity:1"/>
<ellipse cx="130.0" cy="141.9" rx="6.8" ry="6.8" class="atom-7" style="fill:#FF0000;fill-rule:evenodd;stroke:#FF0000;stroke-width:1.0px;stroke-linecap:butt;stroke-linejoin:miter;stroke-opacity:1"/>
<ellipse cx="149.6" cy="130.5" rx="6.8" ry="6.8" class="atom-8" style="fill:#FF0000;fill-rule:evenodd;stroke:#FF0000;stroke-width:1.0px;stroke-linecap:butt;stroke-linejoin:miter;stroke-opacity:1"/>
<ellipse cx="149.6" cy="107.9" rx="6.8" ry="7.0" class="atom-9" style="fill:#FF0000;fill-rule:evenodd;stroke:#FF0000;stroke-width:1.0px;stroke-linecap:butt;stroke-linejoin:miter;stroke-opacity:1"/>
<ellipse cx="169.3" cy="147.1" rx="6.8" ry="14.3" class="atom-10" style="fill:#FF0000;fill-rule:evenodd;stroke:#FF0000;stroke-width:1.0px;stroke-linecap:butt;stroke-linejoin:miter;stroke-opacity:1"/>
<ellipse cx="188.9" cy="130.5" rx="6.8" ry="6.8" class="atom-11" style="fill:#FF0000;fill-rule:evenodd;stroke:#FF0000;stroke-width:1.0px;stroke-linecap:butt;stroke-linejoin:miter;stroke-opacity:1"/>
<ellipse cx="208.5" cy="141.8" rx="6.8" ry="6.8" class="atom-12" style="fill:#FF0000;fill-rule:evenodd;stroke:#FF0000;stroke-width:1.0px;stroke-linecap:butt;stroke-linejoin:miter;stroke-opacity:1"/>
<ellipse cx="228.2" cy="130.4" rx="6.8" ry="6.8" class="atom-13" style="fill:#FF0000;fill-rule:evenodd;stroke:#FF0000;stroke-width:1.0px;stroke-linecap:butt;stroke-linejoin:miter;stroke-opacity:1"/>
<ellipse cx="247.8" cy="141.8" rx="6.8" ry="6.8" class="atom-14" style="fill:#FF0000;fill-rule:evenodd;stroke:#FF0000;stroke-width:1.0px;stroke-linecap:butt;stroke-linejoin:miter;stroke-opacity:1"/>
<ellipse cx="267.4" cy="130.4" rx="6.8" ry="6.8" class="atom-15" style="fill:#FF0000;fill-rule:evenodd;stroke:#FF0000;stroke-width:1.0px;stroke-linecap:butt;stroke-linejoin:miter;stroke-opacity:1"/>
<ellipse cx="287.1" cy="141.7" rx="6.8" ry="6.8" class="atom-16" style="fill:#FF0000;fill-rule:evenodd;stroke:#FF0000;stroke-width:1.0px;stroke-linecap:butt;stroke-linejoin:miter;stroke-opacity:1"/>
<ellipse cx="306.7" cy="130.4" rx="6.8" ry="6.8" class="atom-17" style="fill:#FF0000;fill-rule:evenodd;stroke:#FF0000;stroke-width:1.0px;stroke-linecap:butt;stroke-linejoin:miter;stroke-opacity:1"/>
<ellipse cx="326.3" cy="141.7" rx="6.8" ry="6.8" class="atom-18" style="fill:#FF0000;fill-rule:evenodd;stroke:#FF0000;stroke-width:1.0px;stroke-linecap:butt;stroke-linejoin:miter;stroke-opacity:1"/>
<ellipse cx="346.0" cy="130.3" rx="6.8" ry="6.8" class="atom-19" style="fill:#FF0000;fill-rule:evenodd;stroke:#FF0000;stroke-width:1.0px;stroke-linecap:butt;stroke-linejoin:miter;stroke-opacity:1"/>
<ellipse cx="365.6" cy="141.7" rx="6.8" ry="6.8" class="atom-20" style="fill:#FF0000;fill-rule:evenodd;stroke:#FF0000;stroke-width:1.0px;stroke-linecap:butt;stroke-linejoin:miter;stroke-opacity:1"/>
<ellipse cx="385.2" cy="125.0" rx="6.8" ry="14.3" class="atom-21" style="fill:#FF0000;fill-rule:evenodd;stroke:#FF0000;stroke-width:1.0px;stroke-linecap:butt;stroke-linejoin:miter;stroke-opacity:1"/>
<ellipse cx="404.9" cy="141.6" rx="6.8" ry="6.8" class="atom-22" style="fill:#FF0000;fill-rule:evenodd;stroke:#FF0000;stroke-width:1.0px;stroke-linecap:butt;stroke-linejoin:miter;stroke-opacity:1"/>
<ellipse cx="400.6" cy="163.9" rx="6.8" ry="6.8" class="atom-23" style="fill:#FF0000;fill-rule:evenodd;stroke:#FF0000;stroke-width:1.0px;stroke-linecap:butt;stroke-linejoin:miter;stroke-opacity:1"/>
<ellipse cx="421.9" cy="176.1" rx="6.8" ry="6.8" class="atom-24" style="fill:#FF0000;fill-rule:evenodd;stroke:#FF0000;stroke-width:1.0px;stroke-linecap:butt;stroke-linejoin:miter;stroke-opacity:1"/>
<ellipse cx="439.0" cy="161.2" rx="6.8" ry="6.8" class="atom-25" style="fill:#FF0000;fill-rule:evenodd;stroke:#FF0000;stroke-width:1.0px;stroke-linecap:butt;stroke-linejoin:miter;stroke-opacity:1"/>
<ellipse cx="443.1" cy="139.1" rx="6.8" ry="6.8" class="atom-26" style="fill:#FF0000;fill-rule:evenodd;stroke:#FF0000;stroke-width:1.0px;stroke-linecap:butt;stroke-linejoin:miter;stroke-opacity:1"/>
<ellipse cx="421.9" cy="126.9" rx="6.8" ry="6.8" class="atom-27" style="fill:#FF0000;fill-rule:evenodd;stroke:#FF0000;stroke-width:1.0px;stroke-linecap:butt;stroke-linejoin:miter;stroke-opacity:1"/>
<ellipse cx="463.7" cy="136.6" rx="6.8" ry="6.8" class="atom-28" style="fill:#FF0000;fill-rule:evenodd;stroke:#FF0000;stroke-width:1.0px;stroke-linecap:butt;stroke-linejoin:miter;stroke-opacity:1"/>
<ellipse cx="446.6" cy="151.5" rx="6.8" ry="6.8" class="atom-29" style="fill:#FF0000;fill-rule:evenodd;stroke:#FF0000;stroke-width:1.0px;stroke-linecap:butt;stroke-linejoin:miter;stroke-opacity:1"/>
<ellipse cx="425.2" cy="139.2" rx="6.8" ry="6.8" class="atom-30" style="fill:#FF0000;fill-rule:evenodd;stroke:#FF0000;stroke-width:1.0px;stroke-linecap:butt;stroke-linejoin:miter;stroke-opacity:1"/>
<ellipse cx="442.4" cy="173.9" rx="6.8" ry="6.8" class="atom-31" style="fill:#FF0000;fill-rule:evenodd;stroke:#FF0000;stroke-width:1.0px;stroke-linecap:butt;stroke-linejoin:miter;stroke-opacity:1"/>
<ellipse cx="110.3" cy="107.8" rx="6.8" ry="6.8" class="atom-32" style="fill:#FF0000;fill-rule:evenodd;stroke:#FF0000;stroke-width:1.0px;stroke-linecap:butt;stroke-linejoin:miter;stroke-opacity:1"/>
<ellipse cx="90.7" cy="96.6" rx="6.8" ry="6.8" class="atom-33" style="fill:#FF0000;fill-rule:evenodd;stroke:#FF0000;stroke-width:1.0px;stroke-linecap:butt;stroke-linejoin:miter;stroke-opacity:1"/>
<path class="bond-0 atom-0 atom-1" d="M 31.8,107.9 L 39.4,103.5" style="fill:none;fill-rule:evenodd;stroke:#000000;stroke-width:2.0px;stroke-linecap:butt;stroke-linejoin:miter;stroke-opacity:1"/>
<path class="bond-0 atom-0 atom-1" d="M 39.4,103.5 L 47.0,99.1" style="fill:none;fill-rule:evenodd;stroke:#0000FF;stroke-width:2.0px;stroke-linecap:butt;stroke-linejoin:miter;stroke-opacity:1"/>
<path class="bond-1 atom-1 atom-2" d="M 51.4,91.0 L 51.4,82.5" style="fill:none;fill-rule:evenodd;stroke:#0000FF;stroke-width:2.0px;stroke-linecap:butt;stroke-linejoin:miter;stroke-opacity:1"/>
<path class="bond-1 atom-1 atom-2" d="M 51.4,82.5 L 51.4,73.9" style="fill:none;fill-rule:evenodd;stroke:#000000;stroke-width:2.0px;stroke-linecap:butt;stroke-linejoin:miter;stroke-opacity:1"/>
<path class="bond-2 atom-1 atom-3" d="M 55.8,99.1 L 63.4,103.5" style="fill:none;fill-rule:evenodd;stroke:#0000FF;stroke-width:2.0px;stroke-linecap:butt;stroke-linejoin:miter;stroke-opacity:1"/>
<path class="bond-2 atom-1 atom-3" d="M 63.4,103.5 L 71.1,107.9" style="fill:none;fill-rule:evenodd;stroke:#000000;stroke-width:2.0px;stroke-linecap:butt;stroke-linejoin:miter;stroke-opacity:1"/>
<path class="bond-3 atom-3 atom-4" d="M 71.1,107.9 L 71.1,130.6" style="fill:none;fill-rule:evenodd;stroke:#000000;stroke-width:2.0px;stroke-linecap:butt;stroke-linejoin:miter;stroke-opacity:1"/>
<path class="bond-3 atom-3 atom-4" d="M 74.5,109.8 L 74.5,128.6" style="fill:none;fill-rule:evenodd;stroke:#000000;stroke-width:2.0px;stroke-linecap:butt;stroke-linejoin:miter;stroke-opacity:1"/>
<path class="bond-4 atom-4 atom-5" d="M 71.1,130.6 L 90.7,141.9" style="fill:none;fill-rule:evenodd;stroke:#000000;stroke-width:2.0px;stroke-linecap:butt;stroke-linejoin:miter;stroke-opacity:1"/>
<path class="bond-5 atom-5 atom-6" d="M 90.7,141.9 L 110.4,130.6" style="fill:none;fill-rule:evenodd;stroke:#000000;stroke-width:2.0px;stroke-linecap:butt;stroke-linejoin:miter;stroke-opacity:1"/>
<path class="bond-5 atom-5 atom-6" d="M 90.7,137.9 L 107.0,128.6" style="fill:none;fill-rule:evenodd;stroke:#000000;stroke-width:2.0px;stroke-linecap:butt;stroke-linejoin:miter;stroke-opacity:1"/>
<path class="bond-6 atom-6 atom-7" d="M 110.4,130.6 L 130.0,141.9" style="fill:none;fill-rule:evenodd;stroke:#000000;stroke-width:2.0px;stroke-linecap:butt;stroke-linejoin:miter;stroke-opacity:1"/>
<path class="bond-7 atom-7 atom-8" d="M 130.0,141.9 L 149.6,130.5" style="fill:none;fill-rule:evenodd;stroke:#000000;stroke-width:2.0px;stroke-linecap:butt;stroke-linejoin:miter;stroke-opacity:1"/>
<path class="bond-8 atom-8 atom-9" d="M 151.3,131.5 L 151.3,122.5" style="fill:none;fill-rule:evenodd;stroke:#000000;stroke-width:2.0px;stroke-linecap:butt;stroke-linejoin:miter;stroke-opacity:1"/>
<path class="bond-8 atom-8 atom-9" d="M 151.3,122.5 L 151.3,113.6" style="fill:none;fill-rule:evenodd;stroke:#FF0000;stroke-width:2.0px;stroke-linecap:butt;stroke-linejoin:miter;stroke-opacity:1"/>
<path class="bond-8 atom-8 atom-9" d="M 147.9,131.5 L 147.9,122.5" style="fill:none;fill-rule:evenodd;stroke:#000000;stroke-width:2.0px;stroke-linecap:butt;stroke-linejoin:miter;stroke-opacity:1"/>
<path class="bond-8 atom-8 atom-9" d="M 147.9,122.5 L 147.9,113.6" style="fill:none;fill-rule:evenodd;stroke:#FF0000;stroke-width:2.0px;stroke-linecap:butt;stroke-linejoin:miter;stroke-opacity:1"/>
<path class="bond-9 atom-8 atom-10" d="M 149.6,130.5 L 157.2,134.9" style="fill:none;fill-rule:evenodd;stroke:#000000;stroke-width:2.0px;stroke-linecap:butt;stroke-linejoin:miter;stroke-opacity:1"/>
<path class="bond-9 atom-8 atom-10" d="M 157.2,134.9 L 164.9,139.3" style="fill:none;fill-rule:evenodd;stroke:#0000FF;stroke-width:2.0px;stroke-linecap:butt;stroke-linejoin:miter;stroke-opacity:1"/>
<path class="bond-10 atom-10 atom-11" d="M 173.7,139.3 L 181.3,134.9" style="fill:none;fill-rule:evenodd;stroke:#0000FF;stroke-width:2.0px;stroke-linecap:butt;stroke-linejoin:miter;stroke-opacity:1"/>
<path class="bond-10 atom-10 atom-11" d="M 181.3,134.9 L 188.9,130.5" style="fill:none;fill-rule:evenodd;stroke:#000000;stroke-width:2.0px;stroke-linecap:butt;stroke-linejoin:miter;stroke-opacity:1"/>
<path class="bond-11 atom-11 atom-12" d="M 188.9,130.5 L 208.5,141.8" style="fill:none;fill-rule:evenodd;stroke:#000000;stroke-width:2.0px;stroke-linecap:butt;stroke-linejoin:miter;stroke-opacity:1"/>
<path class="bond-12 atom-12 atom-13" d="M 208.5,141.8 L 228.2,130.4" style="fill:none;fill-rule:evenodd;stroke:#000000;stroke-width:2.0px;stroke-linecap:butt;stroke-linejoin:miter;stroke-opacity:1"/>
<path class="bond-13 atom-13 atom-14" d="M 228.2,130.4 L 247.8,141.8" style="fill:none;fill-rule:evenodd;stroke:#000000;stroke-width:2.0px;stroke-linecap:butt;stroke-linejoin:miter;stroke-opacity:1"/>
<path class="bond-14 atom-14 atom-15" d="M 247.8,141.8 L 267.4,130.4" style="fill:none;fill-rule:evenodd;stroke:#000000;stroke-width:2.0px;stroke-linecap:butt;stroke-linejoin:miter;stroke-opacity:1"/>
<path class="bond-15 atom-15 atom-16" d="M 267.4,130.4 L 287.1,141.7" style="fill:none;fill-rule:evenodd;stroke:#000000;stroke-width:2.0px;stroke-linecap:butt;stroke-linejoin:miter;stroke-opacity:1"/>
<path class="bond-16 atom-16 atom-17" d="M 287.1,141.7 L 306.7,130.4" style="fill:none;fill-rule:evenodd;stroke:#000000;stroke-width:2.0px;stroke-linecap:butt;stroke-linejoin:miter;stroke-opacity:1"/>
<path class="bond-17 atom-17 atom-18" d="M 306.7,130.4 L 326.3,141.7" style="fill:none;fill-rule:evenodd;stroke:#000000;stroke-width:2.0px;stroke-linecap:butt;stroke-linejoin:miter;stroke-opacity:1"/>
<path class="bond-18 atom-18 atom-19" d="M 326.3,141.7 L 346.0,130.3" style="fill:none;fill-rule:evenodd;stroke:#000000;stroke-width:2.0px;stroke-linecap:butt;stroke-linejoin:miter;stroke-opacity:1"/>
<path class="bond-19 atom-19 atom-20" d="M 346.0,130.3 L 365.6,141.7" style="fill:none;fill-rule:evenodd;stroke:#000000;stroke-width:2.0px;stroke-linecap:butt;stroke-linejoin:miter;stroke-opacity:1"/>
<path class="bond-20 atom-20 atom-21" d="M 365.6,141.7 L 373.2,137.2" style="fill:none;fill-rule:evenodd;stroke:#000000;stroke-width:2.0px;stroke-linecap:butt;stroke-linejoin:miter;stroke-opacity:1"/>
<path class="bond-20 atom-20 atom-21" d="M 373.2,137.2 L 380.8,132.8" style="fill:none;fill-rule:evenodd;stroke:#0000FF;stroke-width:2.0px;stroke-linecap:butt;stroke-linejoin:miter;stroke-opacity:1"/>
<path class="bond-21 atom-21 atom-22" d="M 389.6,132.8 L 397.3,137.2" style="fill:none;fill-rule:evenodd;stroke:#0000FF;stroke-width:2.0px;stroke-linecap:butt;stroke-linejoin:miter;stroke-opacity:1"/>
<path class="bond-21 atom-21 atom-22" d="M 397.3,137.2 L 404.9,141.6" style="fill:none;fill-rule:evenodd;stroke:#000000;stroke-width:2.0px;stroke-linecap:butt;stroke-linejoin:miter;stroke-opacity:1"/>
<path class="bond-22 atom-22 atom-23" d="M 404.9,141.6 L 400.6,163.9" style="fill:none;fill-rule:evenodd;stroke:#000000;stroke-width:2.0px;stroke-linecap:butt;stroke-linejoin:miter;stroke-opacity:1"/>
<path class="bond-23 atom-23 atom-24" d="M 400.6,163.9 L 421.9,176.1" style="fill:none;fill-rule:evenodd;stroke:#000000;stroke-width:2.0px;stroke-linecap:butt;stroke-linejoin:miter;stroke-opacity:1"/>
<path class="bond-24 atom-24 atom-25" d="M 421.9,176.1 L 439.0,161.2" style="fill:none;fill-rule:evenodd;stroke:#000000;stroke-width:2.0px;stroke-linecap:butt;stroke-linejoin:miter;stroke-opacity:1"/>
<path class="bond-25 atom-25 atom-26" d="M 439.0,161.2 L 443.1,139.1" style="fill:none;fill-rule:evenodd;stroke:#000000;stroke-width:2.0px;stroke-linecap:butt;stroke-linejoin:miter;stroke-opacity:1"/>
<path class="bond-26 atom-26 atom-27" d="M 443.1,139.1 L 421.9,126.9" style="fill:none;fill-rule:evenodd;stroke:#000000;stroke-width:2.0px;stroke-linecap:butt;stroke-linejoin:miter;stroke-opacity:1"/>
<path class="bond-27 atom-26 atom-28" d="M 443.1,139.1 L 463.7,136.6" style="fill:none;fill-rule:evenodd;stroke:#000000;stroke-width:2.0px;stroke-linecap:butt;stroke-linejoin:miter;stroke-opacity:1"/>
<path class="bond-28 atom-28 atom-29" d="M 463.7,136.6 L 446.6,151.5" style="fill:none;fill-rule:evenodd;stroke:#000000;stroke-width:2.0px;stroke-linecap:butt;stroke-linejoin:miter;stroke-opacity:1"/>
<path class="bond-29 atom-29 atom-30" d="M 446.6,151.5 L 425.2,139.2" style="fill:none;fill-rule:evenodd;stroke:#000000;stroke-width:2.0px;stroke-linecap:butt;stroke-linejoin:miter;stroke-opacity:1"/>
<path class="bond-30 atom-29 atom-31" d="M 446.6,151.5 L 442.4,173.9" style="fill:none;fill-rule:evenodd;stroke:#000000;stroke-width:2.0px;stroke-linecap:butt;stroke-linejoin:miter;stroke-opacity:1"/>
<path class="bond-31 atom-6 atom-32" d="M 110.4,130.6 L 110.3,107.8" style="fill:none;fill-rule:evenodd;stroke:#000000;stroke-width:2.0px;stroke-linecap:butt;stroke-linejoin:miter;stroke-opacity:1"/>
<path class="bond-32 atom-32 atom-33" d="M 110.3,107.8 L 90.7,96.6" style="fill:none;fill-rule:evenodd;stroke:#000000;stroke-width:2.0px;stroke-linecap:butt;stroke-linejoin:miter;stroke-opacity:1"/>
<path class="bond-32 atom-32 atom-33" d="M 107.0,109.8 L 90.7,100.5" style="fill:none;fill-rule:evenodd;stroke:#000000;stroke-width:2.0px;stroke-linecap:butt;stroke-linejoin:miter;stroke-opacity:1"/>
<path class="bond-33 atom-33 atom-3" d="M 90.7,96.6 L 71.1,107.9" style="fill:none;fill-rule:evenodd;stroke:#000000;stroke-width:2.0px;stroke-linecap:butt;stroke-linejoin:miter;stroke-opacity:1"/>
<path class="bond-34 atom-27 atom-22" d="M 421.9,126.9 L 404.9,141.6" style="fill:none;fill-rule:evenodd;stroke:#000000;stroke-width:2.0px;stroke-linecap:butt;stroke-linejoin:miter;stroke-opacity:1"/>
<path class="bond-35 atom-30 atom-22" d="M 425.2,139.2 L 404.9,141.6" style="fill:none;fill-rule:evenodd;stroke:#000000;stroke-width:2.0px;stroke-linecap:butt;stroke-linejoin:miter;stroke-opacity:1"/>
<path class="bond-36 atom-31 atom-24" d="M 442.4,173.9 L 421.9,176.1" style="fill:none;fill-rule:evenodd;stroke:#000000;stroke-width:2.0px;stroke-linecap:butt;stroke-linejoin:miter;stroke-opacity:1"/>
<path d="M 71.1,129.5 L 71.1,130.6 L 72.1,131.2" style="fill:none;stroke:#000000;stroke-width:2.0px;stroke-linecap:butt;stroke-linejoin:miter;stroke-opacity:1;"/>
<path d="M 89.8,141.3 L 90.7,141.9 L 91.7,141.3" style="fill:none;stroke:#000000;stroke-width:2.0px;stroke-linecap:butt;stroke-linejoin:miter;stroke-opacity:1;"/>
<path d="M 129.0,141.3 L 130.0,141.9 L 131.0,141.3" style="fill:none;stroke:#000000;stroke-width:2.0px;stroke-linecap:butt;stroke-linejoin:miter;stroke-opacity:1;"/>
<path d="M 148.6,131.1 L 149.6,130.5 L 150.0,130.7" style="fill:none;stroke:#000000;stroke-width:2.0px;stroke-linecap:butt;stroke-linejoin:miter;stroke-opacity:1;"/>
<path d="M 188.5,130.7 L 188.9,130.5 L 189.9,131.0" style="fill:none;stroke:#000000;stroke-width:2.0px;stroke-linecap:butt;stroke-linejoin:miter;stroke-opacity:1;"/>
<path d="M 207.6,141.2 L 208.5,141.8 L 209.5,141.2" style="fill:none;stroke:#000000;stroke-width:2.0px;stroke-linecap:butt;stroke-linejoin:miter;stroke-opacity:1;"/>
<path d="M 227.2,131.0 L 228.2,130.4 L 229.1,131.0" style="fill:none;stroke:#000000;stroke-width:2.0px;stroke-linecap:butt;stroke-linejoin:miter;stroke-opacity:1;"/>
<path d="M 246.8,141.2 L 247.8,141.8 L 248.8,141.2" style="fill:none;stroke:#000000;stroke-width:2.0px;stroke-linecap:butt;stroke-linejoin:miter;stroke-opacity:1;"/>
<path d="M 266.4,131.0 L 267.4,130.4 L 268.4,131.0" style="fill:none;stroke:#000000;stroke-width:2.0px;stroke-linecap:butt;stroke-linejoin:miter;stroke-opacity:1;"/>
<path d="M 286.1,141.2 L 287.1,141.7 L 288.1,141.2" style="fill:none;stroke:#000000;stroke-width:2.0px;stroke-linecap:butt;stroke-linejoin:miter;stroke-opacity:1;"/>
<path d="M 305.7,130.9 L 306.7,130.4 L 307.7,130.9" style="fill:none;stroke:#000000;stroke-width:2.0px;stroke-linecap:butt;stroke-linejoin:miter;stroke-opacity:1;"/>
<path d="M 325.4,141.1 L 326.3,141.7 L 327.3,141.1" style="fill:none;stroke:#000000;stroke-width:2.0px;stroke-linecap:butt;stroke-linejoin:miter;stroke-opacity:1;"/>
<path d="M 345.0,130.9 L 346.0,130.3 L 346.9,130.9" style="fill:none;stroke:#000000;stroke-width:2.0px;stroke-linecap:butt;stroke-linejoin:miter;stroke-opacity:1;"/>
<path d="M 364.6,141.1 L 365.6,141.7 L 366.0,141.4" style="fill:none;stroke:#000000;stroke-width:2.0px;stroke-linecap:butt;stroke-linejoin:miter;stroke-opacity:1;"/>
<path d="M 400.8,162.8 L 400.6,163.9 L 401.7,164.5" style="fill:none;stroke:#000000;stroke-width:2.0px;stroke-linecap:butt;stroke-linejoin:miter;stroke-opacity:1;"/>
<path d="M 438.2,162.0 L 439.0,161.2 L 439.2,160.1" style="fill:none;stroke:#000000;stroke-width:2.0px;stroke-linecap:butt;stroke-linejoin:miter;stroke-opacity:1;"/>
<path d="M 423.0,127.5 L 421.9,126.9 L 421.1,127.6" style="fill:none;stroke:#000000;stroke-width:2.0px;stroke-linecap:butt;stroke-linejoin:miter;stroke-opacity:1;"/>
<path d="M 462.7,136.8 L 463.7,136.6 L 462.9,137.4" style="fill:none;stroke:#000000;stroke-width:2.0px;stroke-linecap:butt;stroke-linejoin:miter;stroke-opacity:1;"/>
<path d="M 426.3,139.8 L 425.2,139.2 L 424.2,139.3" style="fill:none;stroke:#000000;stroke-width:2.0px;stroke-linecap:butt;stroke-linejoin:miter;stroke-opacity:1;"/>
<path d="M 442.6,172.8 L 442.4,173.9 L 441.4,174.0" style="fill:none;stroke:#000000;stroke-width:2.0px;stroke-linecap:butt;stroke-linejoin:miter;stroke-opacity:1;"/>
<path d="M 110.4,109.0 L 110.3,107.8 L 109.4,107.3" style="fill:none;stroke:#000000;stroke-width:2.0px;stroke-linecap:butt;stroke-linejoin:miter;stroke-opacity:1;"/>
<path d="M 91.7,97.1 L 90.7,96.6 L 89.7,97.1" style="fill:none;stroke:#000000;stroke-width:2.0px;stroke-linecap:butt;stroke-linejoin:miter;stroke-opacity:1;"/>
<path class="atom-1" d="M 49.3 91.8 L 52.5 96.9 Q 52.8 97.4, 53.3 98.3 Q 53.8 99.2, 53.8 99.2 L 53.8 91.8 L 55.1 91.8 L 55.1 101.4 L 53.8 101.4 L 50.4 95.8 Q 50.0 95.2, 49.6 94.4 Q 49.1 93.7, 49.0 93.4 L 49.0 101.4 L 47.8 101.4 L 47.8 91.8 L 49.3 91.8 " fill="#0000FF"/>
<path class="atom-9" d="M 145.2 107.9 Q 145.2 105.5, 146.3 104.3 Q 147.5 103.0, 149.6 103.0 Q 151.7 103.0, 152.9 104.3 Q 154.0 105.5, 154.0 107.9 Q 154.0 110.2, 152.9 111.5 Q 151.7 112.9, 149.6 112.9 Q 147.5 112.9, 146.3 111.5 Q 145.2 110.2, 145.2 107.9 M 149.6 111.8 Q 151.1 111.8, 151.9 110.8 Q 152.7 109.8, 152.7 107.9 Q 152.7 106.0, 151.9 105.0 Q 151.1 104.1, 149.6 104.1 Q 148.1 104.1, 147.3 105.0 Q 146.5 106.0, 146.5 107.9 Q 146.5 109.8, 147.3 110.8 Q 148.1 111.8, 149.6 111.8 " fill="#FF0000"/>
<path class="atom-10" d="M 167.1 137.0 L 170.3 142.1 Q 170.6 142.6, 171.1 143.5 Q 171.6 144.4, 171.6 144.5 L 171.6 137.0 L 172.9 137.0 L 172.9 146.6 L 171.6 146.6 L 168.2 141.1 Q 167.8 140.4, 167.4 139.7 Q 167.0 138.9, 166.9 138.7 L 166.9 146.6 L 165.6 146.6 L 165.6 137.0 L 167.1 137.0 " fill="#0000FF"/>
<path class="atom-10" d="M 165.5 147.6 L 166.8 147.6 L 166.8 151.7 L 171.7 151.7 L 171.7 147.6 L 173.0 147.6 L 173.0 157.2 L 171.7 157.2 L 171.7 152.8 L 166.8 152.8 L 166.8 157.2 L 165.5 157.2 L 165.5 147.6 " fill="#0000FF"/>
<path class="atom-21" d="M 383.1 125.5 L 386.3 130.6 Q 386.6 131.1, 387.1 132.0 Q 387.6 132.9, 387.6 133.0 L 387.6 125.5 L 388.9 125.5 L 388.9 135.1 L 387.6 135.1 L 384.2 129.5 Q 383.8 128.9, 383.4 128.1 Q 383.0 127.4, 382.8 127.1 L 382.8 135.1 L 381.6 135.1 L 381.6 125.5 L 383.1 125.5 " fill="#0000FF"/>
<path class="atom-21" d="M 381.5 114.9 L 382.8 114.9 L 382.8 119.0 L 387.7 119.0 L 387.7 114.9 L 389.0 114.9 L 389.0 124.5 L 387.7 124.5 L 387.7 120.1 L 382.8 120.1 L 382.8 124.5 L 381.5 124.5 L 381.5 114.9 " fill="#0000FF"/>
</svg>