<svg xmlns="http://www.w3.org/2000/svg" xmlns:rdkit="http://www.rdkit.org/xml" xmlns:xlink="http://www.w3.org/1999/xlink" version="1.1" baseProfile="full" xml:space="preserve" width="500px" height="250px" viewBox="0 0 500 250">
<!-- END OF HEADER -->
<rect style="opacity:1.0;fill:#FFFFFF;stroke:none" width="500.0" height="250.0" x="0.0" y="0.0"> </rect>
<path class="bond-0 atom-0 atom-1" d="M 47.8,96.0 L 51.4,98.1 L 51.4,102.3 L 33.6,112.6 L 30.0,106.3 Z" style="fill:#FF0000;fill-rule:evenodd;fill-opacity:1;stroke:#FF0000;stroke-width:0.0px;stroke-linecap:butt;stroke-linejoin:miter;stroke-opacity:1;"/>
<path class="bond-1 atom-1 atom-2" d="M 55.0,75.4 L 55.1,96.0 L 51.4,98.1 L 47.8,96.0 L 47.8,75.4 Z" style="fill:#FF0000;fill-rule:evenodd;fill-opacity:1;stroke:#FF0000;stroke-width:0.0px;stroke-linecap:butt;stroke-linejoin:miter;stroke-opacity:1;"/>
<path class="bond-2 atom-1 atom-3" d="M 55.1,96.0 L 71.1,105.2 L 71.1,109.4 L 67.4,111.5 L 51.4,102.3 L 51.4,98.1 Z" style="fill:#FF0000;fill-rule:evenodd;fill-opacity:1;stroke:#FF0000;stroke-width:0.0px;stroke-linecap:butt;stroke-linejoin:miter;stroke-opacity:1;"/>
<path class="bond-3 atom-3 atom-4" d="M 71.1,109.4 L 74.7,111.5 L 74.7,130.0 L 67.5,134.2 L 67.4,111.5 Z" style="fill:#FF0000;fill-rule:evenodd;fill-opacity:1;stroke:#FF0000;stroke-width:0.0px;stroke-linecap:butt;stroke-linejoin:miter;stroke-opacity:1;"/>
<path class="bond-33 atom-3 atom-33" d="M 90.7,93.9 L 90.7,102.3 L 74.7,111.5 L 71.1,109.4 L 71.1,105.2 Z" style="fill:#FF0000;fill-rule:evenodd;fill-opacity:1;stroke:#FF0000;stroke-width:0.0px;stroke-linecap:butt;stroke-linejoin:miter;stroke-opacity:1;"/>
<path class="bond-4 atom-4 atom-5" d="M 74.7,130.0 L 90.7,139.2 L 90.7,147.6 L 67.5,134.2 Z" style="fill:#FF0000;fill-rule:evenodd;fill-opacity:1;stroke:#FF0000;stroke-width:0.0px;stroke-linecap:butt;stroke-linejoin:miter;stroke-opacity:1;"/>
<path class="bond-5 atom-5 atom-6" d="M 106.7,130.0 L 110.4,132.1 L 110.4,136.3 L 90.7,147.6 L 90.7,139.2 Z" style="fill:#FF0000;fill-rule:evenodd;fill-opacity:1;stroke:#FF0000;stroke-width:0.0px;stroke-linecap:butt;stroke-linejoin:miter;stroke-opacity:1;"/>
<path class="bond-6 atom-6 atom-7" d="M 114.0,130.0 L 130.0,139.2 L 130.0,147.6 L 110.4,136.3 L 110.4,132.1 Z" style="fill:#FF0000;fill-rule:evenodd;fill-opacity:1;stroke:#FF0000;stroke-width:0.0px;stroke-linecap:butt;stroke-linejoin:miter;stroke-opacity:1;"/>
<path class="bond-31 atom-6 atom-32" d="M 114.0,107.3 L 114.0,130.0 L 110.4,132.1 L 106.7,130.0 L 106.7,111.5 Z" style="fill:#FF0000;fill-rule:evenodd;fill-opacity:1;stroke:#FF0000;stroke-width:0.0px;stroke-linecap:butt;stroke-linejoin:miter;stroke-opacity:1;"/>
<path class="bond-7 atom-7 atom-8" d="M 146.0,129.9 L 149.6,132.0 L 149.6,136.2 L 130.0,147.6 L 130.0,139.2 Z" style="fill:#FF0000;fill-rule:evenodd;fill-opacity:1;stroke:#FF0000;stroke-width:0.0px;stroke-linecap:butt;stroke-linejoin:miter;stroke-opacity:1;"/>
<path class="bond-8 atom-8 atom-9" d="M 153.2,109.4 L 153.3,129.9 L 149.6,132.0 L 146.0,129.9 L 146.0,109.4 Z" style="fill:#FF0000;fill-rule:evenodd;fill-opacity:1;stroke:#FF0000;stroke-width:0.0px;stroke-linecap:butt;stroke-linejoin:miter;stroke-opacity:1;"/>
<path class="bond-9 atom-8 atom-10" d="M 153.3,129.9 L 169.3,139.2 L 169.3,147.5 L 149.6,136.2 L 149.6,132.0 Z" style="fill:#FF0000;fill-rule:evenodd;fill-opacity:1;stroke:#FF0000;stroke-width:0.0px;stroke-linecap:butt;stroke-linejoin:miter;stroke-opacity:1;"/>
<path class="bond-10 atom-10 atom-11" d="M 188.9,127.8 L 188.9,136.2 L 169.3,147.5 L 169.3,139.2 Z" style="fill:#FF0000;fill-rule:evenodd;fill-opacity:1;stroke:#FF0000;stroke-width:0.0px;stroke-linecap:butt;stroke-linejoin:miter;stroke-opacity:1;"/>
<path class="bond-11 atom-11 atom-12" d="M 188.9,127.8 L 208.5,139.1 L 208.5,147.5 L 188.9,136.2 Z" style="fill:#FF0000;fill-rule:evenodd;fill-opacity:1;stroke:#FF0000;stroke-width:0.0px;stroke-linecap:butt;stroke-linejoin:miter;stroke-opacity:1;"/>
<path class="bond-12 atom-12 atom-13" d="M 228.2,127.8 L 228.2,136.2 L 208.5,147.5 L 208.5,139.1 Z" style="fill:#FF0000;fill-rule:evenodd;fill-opacity:1;stroke:#FF0000;stroke-width:0.0px;stroke-linecap:butt;stroke-linejoin:miter;stroke-opacity:1;"/>
<path class="bond-13 atom-13 atom-14" d="M 228.2,127.8 L 247.8,139.1 L 247.8,147.5 L 228.2,136.2 Z" style="fill:#FF0000;fill-rule:evenodd;fill-opacity:1;stroke:#FF0000;stroke-width:0.0px;stroke-linecap:butt;stroke-linejoin:miter;stroke-opacity:1;"/>
<path class="bond-14 atom-14 atom-15" d="M 267.4,127.8 L 267.4,136.1 L 247.8,147.5 L 247.8,139.1 Z" style="fill:#FF0000;fill-rule:evenodd;fill-opacity:1;stroke:#FF0000;stroke-width:0.0px;stroke-linecap:butt;stroke-linejoin:miter;stroke-opacity:1;"/>
<path class="bond-15 atom-15 atom-16" d="M 267.4,127.8 L 287.1,139.1 L 287.1,147.5 L 267.4,136.1 Z" style="fill:#FF0000;fill-rule:evenodd;fill-opacity:1;stroke:#FF0000;stroke-width:0.0px;stroke-linecap:butt;stroke-linejoin:miter;stroke-opacity:1;"/>
<path class="bond-16 atom-16 atom-17" d="M 306.7,127.7 L 306.7,136.1 L 287.1,147.5 L 287.1,139.1 Z" style="fill:#FF0000;fill-rule:evenodd;fill-opacity:1;stroke:#FF0000;stroke-width:0.0px;stroke-linecap:butt;stroke-linejoin:miter;stroke-opacity:1;"/>
<path class="bond-17 atom-17 atom-18" d="M 306.7,127.7 L 326.3,139.0 L 326.3,147.4 L 306.7,136.1 Z" style="fill:#FF0000;fill-rule:evenodd;fill-opacity:1;stroke:#FF0000;stroke-width:0.0px;stroke-linecap:butt;stroke-linejoin:miter;stroke-opacity:1;"/>
<path class="bond-18 atom-18 atom-19" d="M 346.0,127.7 L 346.0,136.1 L 326.3,147.4 L 326.3,139.0 Z" style="fill:#FF0000;fill-rule:evenodd;fill-opacity:1;stroke:#FF0000;stroke-width:0.0px;stroke-linecap:butt;stroke-linejoin:miter;stroke-opacity:1;"/>
<path class="bond-19 atom-19 atom-20" d="M 346.0,127.7 L 365.6,139.0 L 365.6,147.4 L 346.0,136.1 Z" style="fill:#FF0000;fill-rule:evenodd;fill-opacity:1;stroke:#FF0000;stroke-width:0.0px;stroke-linecap:butt;stroke-linejoin:miter;stroke-opacity:1;"/>
<path class="bond-20 atom-20 atom-21" d="M 385.2,127.6 L 385.2,136.0 L 365.6,147.4 L 365.6,139.0 Z" style="fill:#4C4CFF;fill-rule:evenodd;fill-opacity:1;stroke:#4C4CFF;stroke-width:0.0px;stroke-linecap:butt;stroke-linejoin:miter;stroke-opacity:1;"/>
<path class="bond-21 atom-21 atom-22" d="M 385.2,127.6 L 404.5,138.7 L 404.9,143.2 L 400.8,145.0 L 385.2,136.0 Z" style="fill:#4C4CFF;fill-rule:evenodd;fill-opacity:1;stroke:#4C4CFF;stroke-width:0.0px;stroke-linecap:butt;stroke-linejoin:miter;stroke-opacity:1;"/>
<path class="bond-22 atom-22 atom-23" d="M 404.9,143.2 L 408.0,146.4 L 404.7,163.6 L 396.6,167.3 L 400.8,145.0 Z" style="fill:#4C4CFF;fill-rule:evenodd;fill-opacity:1;stroke:#4C4CFF;stroke-width:0.0px;stroke-linecap:butt;stroke-linejoin:miter;stroke-opacity:1;"/>
<path class="bond-34 atom-22 atom-27" d="M 421.5,124.0 L 422.3,132.9 L 416.3,138.1 L 404.9,143.2 L 404.5,138.7 Z" style="fill:#4C4CFF;fill-rule:evenodd;fill-opacity:1;stroke:#4C4CFF;stroke-width:0.0px;stroke-linecap:butt;stroke-linejoin:miter;stroke-opacity:1;"/>
<path class="bond-35 atom-22 atom-30" d="M 426.0,136.9 L 424.5,144.4 L 408.0,146.4 L 404.9,143.2 L 416.3,138.1 Z" style="fill:#4C4CFF;fill-rule:evenodd;fill-opacity:1;stroke:#4C4CFF;stroke-width:0.0px;stroke-linecap:butt;stroke-linejoin:miter;stroke-opacity:1;"/>
<path class="bond-23 atom-23 atom-24" d="M 404.7,163.6 L 421.5,173.2 L 421.9,177.6 L 421.2,181.4 L 396.6,167.3 Z" style="fill:#4C4CFF;fill-rule:evenodd;fill-opacity:1;stroke:#4C4CFF;stroke-width:0.0px;stroke-linecap:butt;stroke-linejoin:miter;stroke-opacity:1;"/>
<path class="bond-24 atom-24 atom-25" d="M 435.7,160.8 L 442.3,164.7 L 433.0,172.8 L 421.9,177.6 L 421.5,173.2 Z" style="fill:#4C4CFF;fill-rule:evenodd;fill-opacity:1;stroke:#4C4CFF;stroke-width:0.0px;stroke-linecap:butt;stroke-linejoin:miter;stroke-opacity:1;"/>
<path class="bond-36 atom-24 atom-31" d="M 439.3,172.1 L 445.5,178.7 L 421.2,181.4 L 421.9,177.6 L 433.0,172.8 Z" style="fill:#4C4CFF;fill-rule:evenodd;fill-opacity:1;stroke:#4C4CFF;stroke-width:0.0px;stroke-linecap:butt;stroke-linejoin:miter;stroke-opacity:1;"/>
<path class="bond-25 atom-25 atom-26" d="M 443.1,140.6 L 446.2,143.9 L 442.3,164.7 L 435.7,160.8 L 439.1,142.5 Z" style="fill:#4C4CFF;fill-rule:evenodd;fill-opacity:1;stroke:#4C4CFF;stroke-width:0.0px;stroke-linecap:butt;stroke-linejoin:miter;stroke-opacity:1;"/>
<path class="bond-26 atom-26 atom-27" d="M 421.5,124.0 L 443.9,136.9 L 443.1,140.6 L 439.1,142.5 L 422.3,132.9 Z" style="fill:#4C4CFF;fill-rule:evenodd;fill-opacity:1;stroke:#4C4CFF;stroke-width:0.0px;stroke-linecap:butt;stroke-linejoin:miter;stroke-opacity:1;"/>
<path class="bond-27 atom-26 atom-28" d="M 475.0,133.2 L 452.5,143.2 L 446.2,143.9 L 443.1,140.6 L 443.9,136.9 Z" style="fill:#4C4CFF;fill-rule:evenodd;fill-opacity:1;stroke:#4C4CFF;stroke-width:0.0px;stroke-linecap:butt;stroke-linejoin:miter;stroke-opacity:1;"/>
<path class="bond-28 atom-28 atom-29" d="M 475.0,133.2 L 450.0,155.0 L 446.6,153.1 L 446.2,148.6 L 452.5,143.2 Z" style="fill:#4C4CFF;fill-rule:evenodd;fill-opacity:1;stroke:#4C4CFF;stroke-width:0.0px;stroke-linecap:butt;stroke-linejoin:miter;stroke-opacity:1;"/>
<path class="bond-29 atom-29 atom-30" d="M 426.0,136.9 L 446.2,148.6 L 446.6,153.1 L 442.6,154.9 L 424.5,144.4 Z" style="fill:#4C4CFF;fill-rule:evenodd;fill-opacity:1;stroke:#4C4CFF;stroke-width:0.0px;stroke-linecap:butt;stroke-linejoin:miter;stroke-opacity:1;"/>
<path class="bond-30 atom-29 atom-31" d="M 446.6,153.1 L 450.0,155.0 L 445.5,178.7 L 439.3,172.1 L 442.6,154.9 Z" style="fill:#4C4CFF;fill-rule:evenodd;fill-opacity:1;stroke:#4C4CFF;stroke-width:0.0px;stroke-linecap:butt;stroke-linejoin:miter;stroke-opacity:1;"/>
<path class="bond-32 atom-32 atom-33" d="M 90.7,93.9 L 114.0,107.3 L 106.7,111.5 L 90.7,102.3 Z" style="fill:#FF0000;fill-rule:evenodd;fill-opacity:1;stroke:#FF0000;stroke-width:0.0px;stroke-linecap:butt;stroke-linejoin:miter;stroke-opacity:1;"/>
<ellipse cx="31.8" cy="109.5" rx="6.8" ry="6.8" class="atom-0" style="fill:#FF0000;fill-rule:evenodd;stroke:#FF0000;stroke-width:1.0px;stroke-linecap:butt;stroke-linejoin:miter;stroke-opacity:1"/>
<ellipse cx="51.4" cy="98.1" rx="6.8" ry="6.8" class="atom-1" style="fill:#FF0000;fill-rule:evenodd;stroke:#FF0000;stroke-width:1.0px;stroke-linecap:butt;stroke-linejoin:miter;stroke-opacity:1"/>
<ellipse cx="51.4" cy="75.4" rx="6.8" ry="6.8" class="atom-2" style="fill:#FF0000;fill-rule:evenodd;stroke:#FF0000;stroke-width:1.0px;stroke-linecap:butt;stroke-linejoin:miter;stroke-opacity:1"/>
<ellipse cx="71.1" cy="109.4" rx="6.8" ry="6.8" class="atom-3" style="fill:#FF0000;fill-rule:evenodd;stroke:#FF0000;stroke-width:1.0px;stroke-linecap:butt;stroke-linejoin:miter;stroke-opacity:1"/>
<ellipse cx="71.1" cy="132.1" rx="6.8" ry="6.8" class="atom-4" style="fill:#FF0000;fill-rule:evenodd;stroke:#FF0000;stroke-width:1.0px;stroke-linecap:butt;stroke-linejoin:miter;stroke-opacity:1"/>
<ellipse cx="90.7" cy="143.4" rx="6.8" ry="6.8" class="atom-5" style="fill:#FF0000;fill-rule:evenodd;stroke:#FF0000;stroke-width:1.0px;stroke-linecap:butt;stroke-linejoin:miter;stroke-opacity:1"/>
<ellipse cx="110.4" cy="132.1" rx="6.8" ry="6.8" class="atom-6" style="fill:#FF0000;fill-rule:evenodd;stroke:#FF0000;stroke-width:1.0px;stroke-linecap:butt;stroke-linejoin:miter;stroke-opacity:1"/>
<ellipse cx="130.0" cy="143.4" rx="6.8" ry="6.8" class="atom-7" style="fill:#FF0000;fill-rule:evenodd;stroke:#FF0000;stroke-width:1.0px;stroke-linecap:butt;stroke-linejoin:miter;stroke-opacity:1"/>
<ellipse cx="149.6" cy="132.0" rx="6.8" ry="6.8" class="atom-8" style="fill:#FF0000;fill-rule:evenodd;stroke:#FF0000;stroke-width:1.0px;stroke-linecap:butt;stroke-linejoin:miter;stroke-opacity:1"/>
<ellipse cx="149.6" cy="109.4" rx="6.8" ry="7.0" class="atom-9" style="fill:#FF0000;fill-rule:evenodd;stroke:#FF0000;stroke-width:1.0px;stroke-linecap:butt;stroke-linejoin:miter;stroke-opacity:1"/>
<ellipse cx="169.3" cy="148.7" rx="6.8" ry="14.3" class="atom-10" style="fill:#FF0000;fill-rule:evenodd;stroke:#FF0000;stroke-width:1.0px;stroke-linecap:butt;stroke-linejoin:miter;stroke-opacity:1"/>
<ellipse cx="188.9" cy="132.0" rx="6.8" ry="6.8" class="atom-11" style="fill:#FF0000;fill-rule:evenodd;stroke:#FF0000;stroke-width:1.0px;stroke-linecap:butt;stroke-linejoin:miter;stroke-opacity:1"/>
<ellipse cx="208.5" cy="143.3" rx="6.8" ry="6.8" class="atom-12" style="fill:#FF0000;fill-rule:evenodd;stroke:#FF0000;stroke-width:1.0px;stroke-linecap:butt;stroke-linejoin:miter;stroke-opacity:1"/>
<ellipse cx="228.2" cy="132.0" rx="6.8" ry="6.8" class="atom-13" style="fill:#FF0000;fill-rule:evenodd;stroke:#FF0000;stroke-width:1.0px;stroke-linecap:butt;stroke-linejoin:miter;stroke-opacity:1"/>
<ellipse cx="247.8" cy="143.3" rx="6.8" ry="6.8" class="atom-14" style="fill:#FF0000;fill-rule:evenodd;stroke:#FF0000;stroke-width:1.0px;stroke-linecap:butt;stroke-linejoin:miter;stroke-opacity:1"/>
<ellipse cx="267.4" cy="131.9" rx="6.8" ry="6.8" class="atom-15" style="fill:#FF0000;fill-rule:evenodd;stroke:#FF0000;stroke-width:1.0px;stroke-linecap:butt;stroke-linejoin:miter;stroke-opacity:1"/>
<ellipse cx="287.1" cy="143.3" rx="6.8" ry="6.8" class="atom-16" style="fill:#FF0000;fill-rule:evenodd;stroke:#FF0000;stroke-width:1.0px;stroke-linecap:butt;stroke-linejoin:miter;stroke-opacity:1"/>
<ellipse cx="306.7" cy="131.9" rx="6.8" ry="6.8" class="atom-17" style="fill:#FF0000;fill-rule:evenodd;stroke:#FF0000;stroke-width:1.0px;stroke-linecap:butt;stroke-linejoin:miter;stroke-opacity:1"/>
<ellipse cx="326.3" cy="143.2" rx="6.8" ry="6.8" class="atom-18" style="fill:#FF0000;fill-rule:evenodd;stroke:#FF0000;stroke-width:1.0px;stroke-linecap:butt;stroke-linejoin:miter;stroke-opacity:1"/>
<ellipse cx="346.0" cy="131.9" rx="6.8" ry="6.8" class="atom-19" style="fill:#FF0000;fill-rule:evenodd;stroke:#FF0000;stroke-width:1.0px;stroke-linecap:butt;stroke-linejoin:miter;stroke-opacity:1"/>
<ellipse cx="365.6" cy="143.2" rx="6.8" ry="6.8" class="atom-20" style="fill:#FF0000;fill-rule:evenodd;stroke:#FF0000;stroke-width:1.0px;stroke-linecap:butt;stroke-linejoin:miter;stroke-opacity:1"/>
<ellipse cx="110.3" cy="109.4" rx="6.8" ry="6.8" class="atom-32" style="fill:#FF0000;fill-rule:evenodd;stroke:#FF0000;stroke-width:1.0px;stroke-linecap:butt;stroke-linejoin:miter;stroke-opacity:1"/>
<ellipse cx="90.7" cy="98.1" rx="6.8" ry="6.8" class="atom-33" style="fill:#FF0000;fill-rule:evenodd;stroke:#FF0000;stroke-width:1.0px;stroke-linecap:butt;stroke-linejoin:miter;stroke-opacity:1"/>
<path class="bond-0 atom-0 atom-1" d="M 31.8,109.5 L 39.4,105.0" style="fill:none;fill-rule:evenodd;stroke:#000000;stroke-width:2.0px;stroke-linecap:butt;stroke-linejoin:miter;stroke-opacity:1"/>
<path class="bond-0 atom-0 atom-1" d="M 39.4,105.0 L 47.0,100.6" style="fill:none;fill-rule:evenodd;stroke:#0000FF;stroke-width:2.0px;stroke-linecap:butt;stroke-linejoin:miter;stroke-opacity:1"/>
<path class="bond-1 atom-1 atom-2" d="M 51.4,92.5 L 51.4,84.0" style="fill:none;fill-rule:evenodd;stroke:#0000FF;stroke-width:2.0px;stroke-linecap:butt;stroke-linejoin:miter;stroke-opacity:1"/>
<path class="bond-1 atom-1 atom-2" d="M 51.4,84.0 L 51.4,75.4" style="fill:none;fill-rule:evenodd;stroke:#000000;stroke-width:2.0px;stroke-linecap:butt;stroke-linejoin:miter;stroke-opacity:1"/>
<path class="bond-2 atom-1 atom-3" d="M 55.8,100.6 L 63.4,105.0" style="fill:none;fill-rule:evenodd;stroke:#0000FF;stroke-width:2.0px;stroke-linecap:butt;stroke-linejoin:miter;stroke-opacity:1"/>
<path class="bond-2 atom-1 atom-3" d="M 63.4,105.0 L 71.1,109.4" style="fill:none;fill-rule:evenodd;stroke:#000000;stroke-width:2.0px;stroke-linecap:butt;stroke-linejoin:miter;stroke-opacity:1"/>
<path class="bond-3 atom-3 atom-4" d="M 71.1,109.4 L 71.1,132.1" style="fill:none;fill-rule:evenodd;stroke:#000000;stroke-width:2.0px;stroke-linecap:butt;stroke-linejoin:miter;stroke-opacity:1"/>
<path class="bond-3 atom-3 atom-4" d="M 74.5,111.4 L 74.5,130.2" style="fill:none;fill-rule:evenodd;stroke:#000000;stroke-width:2.0px;stroke-linecap:butt;stroke-linejoin:miter;stroke-opacity:1"/>
<path class="bond-4 atom-4 atom-5" d="M 71.1,132.1 L 90.7,143.4" style="fill:none;fill-rule:evenodd;stroke:#000000;stroke-width:2.0px;stroke-linecap:butt;stroke-linejoin:miter;stroke-opacity:1"/>
<path class="bond-5 atom-5 atom-6" d="M 90.7,143.4 L 110.4,132.1" style="fill:none;fill-rule:evenodd;stroke:#000000;stroke-width:2.0px;stroke-linecap:butt;stroke-linejoin:miter;stroke-opacity:1"/>
<path class="bond-5 atom-5 atom-6" d="M 90.7,139.5 L 107.0,130.1" style="fill:none;fill-rule:evenodd;stroke:#000000;stroke-width:2.0px;stroke-linecap:butt;stroke-linejoin:miter;stroke-opacity:1"/>
<path class="bond-6 atom-6 atom-7" d="M 110.4,132.1 L 130.0,143.4" style="fill:none;fill-rule:evenodd;stroke:#000000;stroke-width:2.0px;stroke-linecap:butt;stroke-linejoin:miter;stroke-opacity:1"/>
<path class="bond-7 atom-7 atom-8" d="M 130.0,143.4 L 149.6,132.0" style="fill:none;fill-rule:evenodd;stroke:#000000;stroke-width:2.0px;stroke-linecap:butt;stroke-linejoin:miter;stroke-opacity:1"/>
<path class="bond-8 atom-8 atom-9" d="M 151.3,133.0 L 151.3,124.1" style="fill:none;fill-rule:evenodd;stroke:#000000;stroke-width:2.0px;stroke-linecap:butt;stroke-linejoin:miter;stroke-opacity:1"/>
<path class="bond-8 atom-8 atom-9" d="M 151.3,124.1 L 151.3,115.1" style="fill:none;fill-rule:evenodd;stroke:#FF0000;stroke-width:2.0px;stroke-linecap:butt;stroke-linejoin:miter;stroke-opacity:1"/>
<path class="bond-8 atom-8 atom-9" d="M 147.9,133.0 L 147.9,124.1" style="fill:none;fill-rule:evenodd;stroke:#000000;stroke-width:2.0px;stroke-linecap:butt;stroke-linejoin:miter;stroke-opacity:1"/>
<path class="bond-8 atom-8 atom-9" d="M 147.9,124.1 L 147.9,115.1" style="fill:none;fill-rule:evenodd;stroke:#FF0000;stroke-width:2.0px;stroke-linecap:butt;stroke-linejoin:miter;stroke-opacity:1"/>
<path class="bond-9 atom-8 atom-10" d="M 149.6,132.0 L 157.2,136.4" style="fill:none;fill-rule:evenodd;stroke:#000000;stroke-width:2.0px;stroke-linecap:butt;stroke-linejoin:miter;stroke-opacity:1"/>
<path class="bond-9 atom-8 atom-10" d="M 157.2,136.4 L 164.9,140.8" style="fill:none;fill-rule:evenodd;stroke:#0000FF;stroke-width:2.0px;stroke-linecap:butt;stroke-linejoin:miter;stroke-opacity:1"/>
<path class="bond-10 atom-10 atom-11" d="M 173.7,140.8 L 181.3,136.4" style="fill:none;fill-rule:evenodd;stroke:#0000FF;stroke-width:2.0px;stroke-linecap:butt;stroke-linejoin:miter;stroke-opacity:1"/>
<path class="bond-10 atom-10 atom-11" d="M 181.3,136.4 L 188.9,132.0" style="fill:none;fill-rule:evenodd;stroke:#000000;stroke-width:2.0px;stroke-linecap:butt;stroke-linejoin:miter;stroke-opacity:1"/>
<path class="bond-11 atom-11 atom-12" d="M 188.9,132.0 L 208.5,143.3" style="fill:none;fill-rule:evenodd;stroke:#000000;stroke-width:2.0px;stroke-linecap:butt;stroke-linejoin:miter;stroke-opacity:1"/>
<path class="bond-12 atom-12 atom-13" d="M 208.5,143.3 L 228.2,132.0" style="fill:none;fill-rule:evenodd;stroke:#000000;stroke-width:2.0px;stroke-linecap:butt;stroke-linejoin:miter;stroke-opacity:1"/>
<path class="bond-13 atom-13 atom-14" d="M 228.2,132.0 L 247.8,143.3" style="fill:none;fill-rule:evenodd;stroke:#000000;stroke-width:2.0px;stroke-linecap:butt;stroke-linejoin:miter;stroke-opacity:1"/>
<path class="bond-14 atom-14 atom-15" d="M 247.8,143.3 L 267.4,131.9" style="fill:none;fill-rule:evenodd;stroke:#000000;stroke-width:2.0px;stroke-linecap:butt;stroke-linejoin:miter;stroke-opacity:1"/>
<path class="bond-15 atom-15 atom-16" d="M 267.4,131.9 L 287.1,143.3" style="fill:none;fill-rule:evenodd;stroke:#000000;stroke-width:2.0px;stroke-linecap:butt;stroke-linejoin:miter;stroke-opacity:1"/>
<path class="bond-16 atom-16 atom-17" d="M 287.1,143.3 L 306.7,131.9" style="fill:none;fill-rule:evenodd;stroke:#000000;stroke-width:2.0px;stroke-linecap:butt;stroke-linejoin:miter;stroke-opacity:1"/>
<path class="bond-17 atom-17 atom-18" d="M 306.7,131.9 L 326.3,143.2" style="fill:none;fill-rule:evenodd;stroke:#000000;stroke-width:2.0px;stroke-linecap:butt;stroke-linejoin:miter;stroke-opacity:1"/>
<path class="bond-18 atom-18 atom-19" d="M 326.3,143.2 L 346.0,131.9" style="fill:none;fill-rule:evenodd;stroke:#000000;stroke-width:2.0px;stroke-linecap:butt;stroke-linejoin:miter;stroke-opacity:1"/>
<path class="bond-19 atom-19 atom-20" d="M 346.0,131.9 L 365.6,143.2" style="fill:none;fill-rule:evenodd;stroke:#000000;stroke-width:2.0px;stroke-linecap:butt;stroke-linejoin:miter;stroke-opacity:1"/>
<path class="bond-20 atom-20 atom-21" d="M 365.6,143.2 L 373.2,138.8" style="fill:none;fill-rule:evenodd;stroke:#000000;stroke-width:2.0px;stroke-linecap:butt;stroke-linejoin:miter;stroke-opacity:1"/>
<path class="bond-20 atom-20 atom-21" d="M 373.2,138.8 L 380.8,134.4" style="fill:none;fill-rule:evenodd;stroke:#0000FF;stroke-width:2.0px;stroke-linecap:butt;stroke-linejoin:miter;stroke-opacity:1"/>
<path class="bond-21 atom-21 atom-22" d="M 389.6,134.4 L 397.3,138.8" style="fill:none;fill-rule:evenodd;stroke:#0000FF;stroke-width:2.0px;stroke-linecap:butt;stroke-linejoin:miter;stroke-opacity:1"/>
<path class="bond-21 atom-21 atom-22" d="M 397.3,138.8 L 404.9,143.2" style="fill:none;fill-rule:evenodd;stroke:#000000;stroke-width:2.0px;stroke-linecap:butt;stroke-linejoin:miter;stroke-opacity:1"/>
<path class="bond-22 atom-22 atom-23" d="M 404.9,143.2 L 400.6,165.4" style="fill:none;fill-rule:evenodd;stroke:#000000;stroke-width:2.0px;stroke-linecap:butt;stroke-linejoin:miter;stroke-opacity:1"/>
<path class="bond-23 atom-23 atom-24" d="M 400.6,165.4 L 421.9,177.6" style="fill:none;fill-rule:evenodd;stroke:#000000;stroke-width:2.0px;stroke-linecap:butt;stroke-linejoin:miter;stroke-opacity:1"/>
<path class="bond-24 atom-24 atom-25" d="M 421.9,177.6 L 439.0,162.7" style="fill:none;fill-rule:evenodd;stroke:#000000;stroke-width:2.0px;stroke-linecap:butt;stroke-linejoin:miter;stroke-opacity:1"/>
<path class="bond-25 atom-25 atom-26" d="M 439.0,162.7 L 443.1,140.6" style="fill:none;fill-rule:evenodd;stroke:#000000;stroke-width:2.0px;stroke-linecap:butt;stroke-linejoin:miter;stroke-opacity:1"/>
<path class="bond-26 atom-26 atom-27" d="M 443.1,140.6 L 421.9,128.4" style="fill:none;fill-rule:evenodd;stroke:#000000;stroke-width:2.0px;stroke-linecap:butt;stroke-linejoin:miter;stroke-opacity:1"/>
<path class="bond-27 atom-26 atom-28" d="M 443.1,140.6 L 463.7,138.2" style="fill:none;fill-rule:evenodd;stroke:#000000;stroke-width:2.0px;stroke-linecap:butt;stroke-linejoin:miter;stroke-opacity:1"/>
<path class="bond-28 atom-28 atom-29" d="M 463.7,138.2 L 446.6,153.1" style="fill:none;fill-rule:evenodd;stroke:#000000;stroke-width:2.0px;stroke-linecap:butt;stroke-linejoin:miter;stroke-opacity:1"/>
<path class="bond-29 atom-29 atom-30" d="M 446.6,153.1 L 425.2,140.7" style="fill:none;fill-rule:evenodd;stroke:#000000;stroke-width:2.0px;stroke-linecap:butt;stroke-linejoin:miter;stroke-opacity:1"/>
<path class="bond-30 atom-29 atom-31" d="M 446.6,153.1 L 442.4,175.4" style="fill:none;fill-rule:evenodd;stroke:#000000;stroke-width:2.0px;stroke-linecap:butt;stroke-linejoin:miter;stroke-opacity:1"/>
<path class="bond-31 atom-6 atom-32" d="M 110.4,132.1 L 110.3,109.4" style="fill:none;fill-rule:evenodd;stroke:#000000;stroke-width:2.0px;stroke-linecap:butt;stroke-linejoin:miter;stroke-opacity:1"/>
<path class="bond-32 atom-32 atom-33" d="M 110.3,109.4 L 90.7,98.1" style="fill:none;fill-rule:evenodd;stroke:#000000;stroke-width:2.0px;stroke-linecap:butt;stroke-linejoin:miter;stroke-opacity:1"/>
<path class="bond-32 atom-32 atom-33" d="M 107.0,111.3 L 90.7,102.0" style="fill:none;fill-rule:evenodd;stroke:#000000;stroke-width:2.0px;stroke-linecap:butt;stroke-linejoin:miter;stroke-opacity:1"/>
<path class="bond-33 atom-33 atom-3" d="M 90.7,98.1 L 71.1,109.4" style="fill:none;fill-rule:evenodd;stroke:#000000;stroke-width:2.0px;stroke-linecap:butt;stroke-linejoin:miter;stroke-opacity:1"/>
<path class="bond-34 atom-27 atom-22" d="M 421.9,128.4 L 404.9,143.2" style="fill:none;fill-rule:evenodd;stroke:#000000;stroke-width:2.0px;stroke-linecap:butt;stroke-linejoin:miter;stroke-opacity:1"/>
<path class="bond-35 atom-30 atom-22" d="M 425.2,140.7 L 404.9,143.2" style="fill:none;fill-rule:evenodd;stroke:#000000;stroke-width:2.0px;stroke-linecap:butt;stroke-linejoin:miter;stroke-opacity:1"/>
<path class="bond-36 atom-31 atom-24" d="M 442.4,175.4 L 421.9,177.6" style="fill:none;fill-rule:evenodd;stroke:#000000;stroke-width:2.0px;stroke-linecap:butt;stroke-linejoin:miter;stroke-opacity:1"/>
<path d="M 71.1,131.0 L 71.1,132.1 L 72.1,132.7" style="fill:none;stroke:#000000;stroke-width:2.0px;stroke-linecap:butt;stroke-linejoin:miter;stroke-opacity:1;"/>
<path d="M 89.8,142.8 L 90.7,143.4 L 91.7,142.8" style="fill:none;stroke:#000000;stroke-width:2.0px;stroke-linecap:butt;stroke-linejoin:miter;stroke-opacity:1;"/>
<path d="M 129.0,142.8 L 130.0,143.4 L 131.0,142.8" style="fill:none;stroke:#000000;stroke-width:2.0px;stroke-linecap:butt;stroke-linejoin:miter;stroke-opacity:1;"/>
<path d="M 148.6,132.6 L 149.6,132.0 L 150.0,132.3" style="fill:none;stroke:#000000;stroke-width:2.0px;stroke-linecap:butt;stroke-linejoin:miter;stroke-opacity:1;"/>
<path d="M 188.5,132.2 L 188.9,132.0 L 189.9,132.6" style="fill:none;stroke:#000000;stroke-width:2.0px;stroke-linecap:butt;stroke-linejoin:miter;stroke-opacity:1;"/>
<path d="M 207.6,142.8 L 208.5,143.3 L 209.5,142.8" style="fill:none;stroke:#000000;stroke-width:2.0px;stroke-linecap:butt;stroke-linejoin:miter;stroke-opacity:1;"/>
<path d="M 227.2,132.5 L 228.2,132.0 L 229.1,132.5" style="fill:none;stroke:#000000;stroke-width:2.0px;stroke-linecap:butt;stroke-linejoin:miter;stroke-opacity:1;"/>
<path d="M 246.8,142.7 L 247.8,143.3 L 248.8,142.7" style="fill:none;stroke:#000000;stroke-width:2.0px;stroke-linecap:butt;stroke-linejoin:miter;stroke-opacity:1;"/>
<path d="M 266.4,132.5 L 267.4,131.9 L 268.4,132.5" style="fill:none;stroke:#000000;stroke-width:2.0px;stroke-linecap:butt;stroke-linejoin:miter;stroke-opacity:1;"/>
<path d="M 286.1,142.7 L 287.1,143.3 L 288.1,142.7" style="fill:none;stroke:#000000;stroke-width:2.0px;stroke-linecap:butt;stroke-linejoin:miter;stroke-opacity:1;"/>
<path d="M 305.7,132.5 L 306.7,131.9 L 307.7,132.5" style="fill:none;stroke:#000000;stroke-width:2.0px;stroke-linecap:butt;stroke-linejoin:miter;stroke-opacity:1;"/>
<path d="M 325.4,142.7 L 326.3,143.2 L 327.3,142.7" style="fill:none;stroke:#000000;stroke-width:2.0px;stroke-linecap:butt;stroke-linejoin:miter;stroke-opacity:1;"/>
<path d="M 345.0,132.4 L 346.0,131.9 L 346.9,132.4" style="fill:none;stroke:#000000;stroke-width:2.0px;stroke-linecap:butt;stroke-linejoin:miter;stroke-opacity:1;"/>
<path d="M 364.6,142.6 L 365.6,143.2 L 366.0,143.0" style="fill:none;stroke:#000000;stroke-width:2.0px;stroke-linecap:butt;stroke-linejoin:miter;stroke-opacity:1;"/>
<path d="M 400.8,164.3 L 400.6,165.4 L 401.7,166.0" style="fill:none;stroke:#000000;stroke-width:2.0px;stroke-linecap:butt;stroke-linejoin:miter;stroke-opacity:1;"/>
<path d="M 438.2,163.5 L 439.0,162.7 L 439.2,161.6" style="fill:none;stroke:#000000;stroke-width:2.0px;stroke-linecap:butt;stroke-linejoin:miter;stroke-opacity:1;"/>
<path d="M 423.0,129.1 L 421.9,128.4 L 421.1,129.2" style="fill:none;stroke:#000000;stroke-width:2.0px;stroke-linecap:butt;stroke-linejoin:miter;stroke-opacity:1;"/>
<path d="M 462.7,138.3 L 463.7,138.2 L 462.9,138.9" style="fill:none;stroke:#000000;stroke-width:2.0px;stroke-linecap:butt;stroke-linejoin:miter;stroke-opacity:1;"/>
<path d="M 426.3,141.3 L 425.2,140.7 L 424.2,140.8" style="fill:none;stroke:#000000;stroke-width:2.0px;stroke-linecap:butt;stroke-linejoin:miter;stroke-opacity:1;"/>
<path d="M 442.6,174.3 L 442.4,175.4 L 441.4,175.5" style="fill:none;stroke:#000000;stroke-width:2.0px;stroke-linecap:butt;stroke-linejoin:miter;stroke-opacity:1;"/>
<path d="M 110.4,110.5 L 110.3,109.4 L 109.4,108.8" style="fill:none;stroke:#000000;stroke-width:2.0px;stroke-linecap:butt;stroke-linejoin:miter;stroke-opacity:1;"/>
<path d="M 91.7,98.7 L 90.7,98.1 L 89.7,98.7" style="fill:none;stroke:#000000;stroke-width:2.0px;stroke-linecap:butt;stroke-linejoin:miter;stroke-opacity:1;"/>
<path class="atom-1" d="M 49.3 93.3 L 52.5 98.4 Q 52.8 98.9, 53.3 99.8 Q 53.8 100.7, 53.8 100.8 L 53.8 93.3 L 55.1 93.3 L 55.1 102.9 L 53.8 102.9 L 50.4 97.3 Q 50.0 96.7, 49.6 95.9 Q 49.1 95.2, 49.0 95.0 L 49.0 102.9 L 47.8 102.9 L 47.8 93.3 L 49.3 93.3 " fill="#0000FF"/>
<path class="atom-9" d="M 145.2 109.4 Q 145.2 107.1, 146.3 105.8 Q 147.5 104.5, 149.6 104.5 Q 151.7 104.5, 152.9 105.8 Q 154.0 107.1, 154.0 109.4 Q 154.0 111.7, 152.9 113.1 Q 151.7 114.4, 149.6 114.4 Q 147.5 114.4, 146.3 113.1 Q 145.2 111.7, 145.2 109.4 M 149.6 113.3 Q 151.1 113.3, 151.9 112.3 Q 152.7 111.3, 152.7 109.4 Q 152.7 107.5, 151.9 106.6 Q 151.1 105.6, 149.6 105.6 Q 148.1 105.6, 147.3 106.5 Q 146.5 107.5, 146.5 109.4 Q 146.5 111.3, 147.3 112.3 Q 148.1 113.3, 149.6 113.3 " fill="#FF0000"/>
<path class="atom-10" d="M 167.1 138.5 L 170.3 143.6 Q 170.6 144.1, 171.1 145.1 Q 171.6 146.0, 171.6 146.0 L 171.6 138.5 L 172.9 138.5 L 172.9 148.2 L 171.6 148.2 L 168.2 142.6 Q 167.8 141.9, 167.4 141.2 Q 167.0 140.4, 166.9 140.2 L 166.9 148.2 L 165.6 148.2 L 165.6 138.5 L 167.1 138.5 " fill="#0000FF"/>
<path class="atom-10" d="M 165.5 149.1 L 166.8 149.1 L 166.8 153.2 L 171.7 153.2 L 171.7 149.1 L 173.0 149.1 L 173.0 158.8 L 171.7 158.8 L 171.7 154.3 L 166.8 154.3 L 166.8 158.8 L 165.5 158.8 L 165.5 149.1 " fill="#0000FF"/>
<path class="atom-21" d="M 383.1 127.0 L 386.3 132.1 Q 386.6 132.6, 387.1 133.5 Q 387.6 134.4, 387.6 134.5 L 387.6 127.0 L 388.9 127.0 L 388.9 136.6 L 387.6 136.6 L 384.2 131.1 Q 383.8 130.4, 383.4 129.7 Q 383.0 128.9, 382.8 128.7 L 382.8 136.6 L 381.6 136.6 L 381.6 127.0 L 383.1 127.0 " fill="#0000FF"/>
<path class="atom-21" d="M 381.5 116.4 L 382.8 116.4 L 382.8 120.5 L 387.7 120.5 L 387.7 116.4 L 389.0 116.4 L 389.0 126.0 L 387.7 126.0 L 387.7 121.6 L 382.8 121.6 L 382.8 126.0 L 381.5 126.0 L 381.5 116.4 " fill="#0000FF"/>
</svg>