<svg xmlns="http://www.w3.org/2000/svg" xmlns:rdkit="http://www.rdkit.org/xml" xmlns:xlink="http://www.w3.org/1999/xlink" version="1.1" baseProfile="full" xml:space="preserve" width="500px" height="250px" viewBox="0 0 500 250">
<!-- END OF HEADER -->
<rect style="opacity:1.0;fill:#FFFFFF;stroke:none" width="500.0" height="250.0" x="0.0" y="0.0"> </rect>
<path class="bond-0 atom-0 atom-1" d="M 52.6,78.0 L 52.6,96.9 L 49.3,98.9 L 46.0,96.9 L 46.0,78.0 Z" style="fill:#FF0000;fill-rule:evenodd;fill-opacity:1;stroke:#FF0000;stroke-width:0.0px;stroke-linecap:butt;stroke-linejoin:miter;stroke-opacity:1;"/>
<path class="bond-1 atom-1 atom-2" d="M 46.0,96.9 L 49.3,98.9 L 49.3,102.7 L 32.9,112.2 L 29.6,106.4 Z" style="fill:#FF0000;fill-rule:evenodd;fill-opacity:1;stroke:#FF0000;stroke-width:0.0px;stroke-linecap:butt;stroke-linejoin:miter;stroke-opacity:1;"/>
<path class="bond-2 atom-1 atom-3" d="M 52.6,96.9 L 67.4,105.4 L 67.4,109.3 L 64.0,111.2 L 49.3,102.7 L 49.3,98.9 Z" style="fill:#FF0000;fill-rule:evenodd;fill-opacity:1;stroke:#FF0000;stroke-width:0.0px;stroke-linecap:butt;stroke-linejoin:miter;stroke-opacity:1;"/>
<path class="bond-3 atom-3 atom-4" d="M 67.4,109.3 L 70.7,111.2 L 70.7,128.2 L 64.0,132.1 L 64.0,111.2 Z" style="fill:#FF0000;fill-rule:evenodd;fill-opacity:1;stroke:#FF0000;stroke-width:0.0px;stroke-linecap:butt;stroke-linejoin:miter;stroke-opacity:1;"/>
<path class="bond-35 atom-3 atom-35" d="M 85.4,95.0 L 85.4,102.7 L 70.7,111.2 L 67.4,109.3 L 67.4,105.4 Z" style="fill:#FF0000;fill-rule:evenodd;fill-opacity:1;stroke:#FF0000;stroke-width:0.0px;stroke-linecap:butt;stroke-linejoin:miter;stroke-opacity:1;"/>
<path class="bond-4 atom-4 atom-5" d="M 70.7,128.2 L 85.5,136.7 L 85.5,144.4 L 64.0,132.1 Z" style="fill:#FF0000;fill-rule:evenodd;fill-opacity:1;stroke:#FF0000;stroke-width:0.0px;stroke-linecap:butt;stroke-linejoin:miter;stroke-opacity:1;"/>
<path class="bond-5 atom-5 atom-6" d="M 100.2,128.2 L 103.5,130.1 L 103.5,134.0 L 85.5,144.4 L 85.5,136.7 Z" style="fill:#FF0000;fill-rule:evenodd;fill-opacity:1;stroke:#FF0000;stroke-width:0.0px;stroke-linecap:butt;stroke-linejoin:miter;stroke-opacity:1;"/>
<path class="bond-6 atom-6 atom-7" d="M 106.9,128.2 L 121.6,136.7 L 121.6,144.4 L 103.5,134.0 L 103.5,130.1 Z" style="fill:#FF0000;fill-rule:evenodd;fill-opacity:1;stroke:#FF0000;stroke-width:0.0px;stroke-linecap:butt;stroke-linejoin:miter;stroke-opacity:1;"/>
<path class="bond-33 atom-6 atom-34" d="M 106.8,107.3 L 106.9,128.2 L 103.5,130.1 L 100.2,128.2 L 100.2,111.2 Z" style="fill:#FF0000;fill-rule:evenodd;fill-opacity:1;stroke:#FF0000;stroke-width:0.0px;stroke-linecap:butt;stroke-linejoin:miter;stroke-opacity:1;"/>
<path class="bond-7 atom-7 atom-8" d="M 136.3,128.2 L 139.6,130.1 L 139.6,133.9 L 121.6,144.4 L 121.6,136.7 Z" style="fill:#FF0000;fill-rule:evenodd;fill-opacity:1;stroke:#FF0000;stroke-width:0.0px;stroke-linecap:butt;stroke-linejoin:miter;stroke-opacity:1;"/>
<path class="bond-8 atom-8 atom-9" d="M 142.9,109.2 L 143.0,128.2 L 139.6,130.1 L 136.3,128.2 L 136.3,109.2 Z" style="fill:#FF0000;fill-rule:evenodd;fill-opacity:1;stroke:#FF0000;stroke-width:0.0px;stroke-linecap:butt;stroke-linejoin:miter;stroke-opacity:1;"/>
<path class="bond-9 atom-8 atom-10" d="M 143.0,128.2 L 157.7,136.6 L 157.7,144.3 L 139.6,133.9 L 139.6,130.1 Z" style="fill:#FF0000;fill-rule:evenodd;fill-opacity:1;stroke:#FF0000;stroke-width:0.0px;stroke-linecap:butt;stroke-linejoin:miter;stroke-opacity:1;"/>
<path class="bond-10 atom-10 atom-11" d="M 175.7,126.2 L 175.7,133.9 L 157.7,144.3 L 157.7,136.6 Z" style="fill:#FF0000;fill-rule:evenodd;fill-opacity:1;stroke:#FF0000;stroke-width:0.0px;stroke-linecap:butt;stroke-linejoin:miter;stroke-opacity:1;"/>
<path class="bond-11 atom-11 atom-12" d="M 175.7,126.2 L 193.8,136.6 L 193.8,144.3 L 175.7,133.9 Z" style="fill:#FF0000;fill-rule:evenodd;fill-opacity:1;stroke:#FF0000;stroke-width:0.0px;stroke-linecap:butt;stroke-linejoin:miter;stroke-opacity:1;"/>
<path class="bond-12 atom-12 atom-13" d="M 211.9,126.2 L 211.9,133.9 L 193.8,144.3 L 193.8,136.6 Z" style="fill:#FF0000;fill-rule:evenodd;fill-opacity:1;stroke:#FF0000;stroke-width:0.0px;stroke-linecap:butt;stroke-linejoin:miter;stroke-opacity:1;"/>
<path class="bond-13 atom-13 atom-14" d="M 211.9,126.2 L 229.9,136.6 L 229.9,144.3 L 211.9,133.9 Z" style="fill:#FF0000;fill-rule:evenodd;fill-opacity:1;stroke:#FF0000;stroke-width:0.0px;stroke-linecap:butt;stroke-linejoin:miter;stroke-opacity:1;"/>
<path class="bond-14 atom-14 atom-15" d="M 248.0,126.1 L 248.0,133.8 L 229.9,144.3 L 229.9,136.6 Z" style="fill:#FF0000;fill-rule:evenodd;fill-opacity:1;stroke:#FF0000;stroke-width:0.0px;stroke-linecap:butt;stroke-linejoin:miter;stroke-opacity:1;"/>
<path class="bond-15 atom-15 atom-16" d="M 248.0,126.1 L 266.0,136.6 L 266.0,144.3 L 248.0,133.8 Z" style="fill:#FF0000;fill-rule:evenodd;fill-opacity:1;stroke:#FF0000;stroke-width:0.0px;stroke-linecap:butt;stroke-linejoin:miter;stroke-opacity:1;"/>
<path class="bond-16 atom-16 atom-17" d="M 284.1,126.1 L 284.1,133.8 L 266.0,144.3 L 266.0,136.6 Z" style="fill:#FF0000;fill-rule:evenodd;fill-opacity:1;stroke:#FF0000;stroke-width:0.0px;stroke-linecap:butt;stroke-linejoin:miter;stroke-opacity:1;"/>
<path class="bond-17 atom-17 atom-18" d="M 284.1,126.1 L 302.2,136.5 L 302.2,144.2 L 284.1,133.8 Z" style="fill:#FF0000;fill-rule:evenodd;fill-opacity:1;stroke:#FF0000;stroke-width:0.0px;stroke-linecap:butt;stroke-linejoin:miter;stroke-opacity:1;"/>
<path class="bond-18 atom-18 atom-19" d="M 320.2,126.1 L 320.2,133.8 L 302.2,144.2 L 302.2,136.5 Z" style="fill:#FF0000;fill-rule:evenodd;fill-opacity:1;stroke:#FF0000;stroke-width:0.0px;stroke-linecap:butt;stroke-linejoin:miter;stroke-opacity:1;"/>
<path class="bond-19 atom-19 atom-20" d="M 320.2,126.1 L 338.3,136.5 L 338.3,144.2 L 320.2,133.8 Z" style="fill:#FF0000;fill-rule:evenodd;fill-opacity:1;stroke:#FF0000;stroke-width:0.0px;stroke-linecap:butt;stroke-linejoin:miter;stroke-opacity:1;"/>
<path class="bond-20 atom-20 atom-21" d="M 356.3,126.0 L 356.3,133.8 L 338.3,144.2 L 338.3,136.5 Z" style="fill:#4C4CFF;fill-rule:evenodd;fill-opacity:1;stroke:#4C4CFF;stroke-width:0.0px;stroke-linecap:butt;stroke-linejoin:miter;stroke-opacity:1;"/>
<path class="bond-21 atom-21 atom-22" d="M 356.3,126.0 L 374.4,136.5 L 374.4,144.2 L 356.3,133.8 Z" style="fill:#4C4CFF;fill-rule:evenodd;fill-opacity:1;stroke:#4C4CFF;stroke-width:0.0px;stroke-linecap:butt;stroke-linejoin:miter;stroke-opacity:1;"/>
<path class="bond-22 atom-22 atom-23" d="M 392.4,126.0 L 392.4,133.7 L 374.4,144.2 L 374.4,136.5 Z" style="fill:#4C4CFF;fill-rule:evenodd;fill-opacity:1;stroke:#4C4CFF;stroke-width:0.0px;stroke-linecap:butt;stroke-linejoin:miter;stroke-opacity:1;"/>
<path class="bond-23 atom-23 atom-24" d="M 392.4,126.0 L 410.1,136.2 L 410.5,140.3 L 406.8,142.0 L 392.4,133.7 Z" style="fill:#FF0000;fill-rule:evenodd;fill-opacity:1;stroke:#FF0000;stroke-width:0.0px;stroke-linecap:butt;stroke-linejoin:miter;stroke-opacity:1;"/>
<path class="bond-24 atom-24 atom-25" d="M 410.5,140.3 L 413.3,143.3 L 410.3,159.0 L 402.9,162.5 L 406.8,142.0 Z" style="fill:#FF0000;fill-rule:evenodd;fill-opacity:1;stroke:#FF0000;stroke-width:0.0px;stroke-linecap:butt;stroke-linejoin:miter;stroke-opacity:1;"/>
<path class="bond-36 atom-24 atom-29" d="M 425.8,122.7 L 426.6,130.8 L 421.0,135.6 L 410.5,140.3 L 410.1,136.2 Z" style="fill:#FF0000;fill-rule:evenodd;fill-opacity:1;stroke:#FF0000;stroke-width:0.0px;stroke-linecap:butt;stroke-linejoin:miter;stroke-opacity:1;"/>
<path class="bond-37 atom-24 atom-32" d="M 429.9,134.6 L 428.5,141.5 L 413.3,143.3 L 410.5,140.3 L 421.0,135.6 Z" style="fill:#FF0000;fill-rule:evenodd;fill-opacity:1;stroke:#FF0000;stroke-width:0.0px;stroke-linecap:butt;stroke-linejoin:miter;stroke-opacity:1;"/>
<path class="bond-25 atom-25 atom-26" d="M 410.3,159.0 L 425.8,167.9 L 426.2,172.0 L 425.5,175.4 L 402.9,162.5 Z" style="fill:#FF0000;fill-rule:evenodd;fill-opacity:1;stroke:#FF0000;stroke-width:0.0px;stroke-linecap:butt;stroke-linejoin:miter;stroke-opacity:1;"/>
<path class="bond-26 atom-26 atom-27" d="M 438.8,156.5 L 445.0,160.0 L 436.4,167.5 L 426.2,172.0 L 425.8,167.9 Z" style="fill:#FF0000;fill-rule:evenodd;fill-opacity:1;stroke:#FF0000;stroke-width:0.0px;stroke-linecap:butt;stroke-linejoin:miter;stroke-opacity:1;"/>
<path class="bond-38 atom-26 atom-33" d="M 442.2,166.9 L 447.8,173.0 L 425.5,175.4 L 426.2,172.0 L 436.4,167.5 Z" style="fill:#FF0000;fill-rule:evenodd;fill-opacity:1;stroke:#FF0000;stroke-width:0.0px;stroke-linecap:butt;stroke-linejoin:miter;stroke-opacity:1;"/>
<path class="bond-27 atom-27 atom-28" d="M 445.7,137.9 L 448.5,141.0 L 445.0,160.0 L 438.8,156.5 L 442.0,139.7 Z" style="fill:#FF0000;fill-rule:evenodd;fill-opacity:1;stroke:#FF0000;stroke-width:0.0px;stroke-linecap:butt;stroke-linejoin:miter;stroke-opacity:1;"/>
<path class="bond-28 atom-28 atom-29" d="M 425.8,122.7 L 446.4,134.5 L 445.7,137.9 L 442.0,139.7 L 426.6,130.8 Z" style="fill:#FF0000;fill-rule:evenodd;fill-opacity:1;stroke:#FF0000;stroke-width:0.0px;stroke-linecap:butt;stroke-linejoin:miter;stroke-opacity:1;"/>
<path class="bond-29 atom-28 atom-30" d="M 475.0,131.1 L 454.3,140.3 L 448.5,141.0 L 445.7,137.9 L 446.4,134.5 Z" style="fill:#FF0000;fill-rule:evenodd;fill-opacity:1;stroke:#FF0000;stroke-width:0.0px;stroke-linecap:butt;stroke-linejoin:miter;stroke-opacity:1;"/>
<path class="bond-30 atom-30 atom-31" d="M 475.0,131.1 L 452.0,151.1 L 448.9,149.4 L 448.5,145.3 L 454.3,140.3 Z" style="fill:#FF0000;fill-rule:evenodd;fill-opacity:1;stroke:#FF0000;stroke-width:0.0px;stroke-linecap:butt;stroke-linejoin:miter;stroke-opacity:1;"/>
<path class="bond-31 atom-31 atom-32" d="M 429.9,134.6 L 448.5,145.3 L 448.9,149.4 L 445.2,151.1 L 428.5,141.5 Z" style="fill:#FF0000;fill-rule:evenodd;fill-opacity:1;stroke:#FF0000;stroke-width:0.0px;stroke-linecap:butt;stroke-linejoin:miter;stroke-opacity:1;"/>
<path class="bond-32 atom-31 atom-33" d="M 448.9,149.4 L 452.0,151.1 L 447.8,173.0 L 442.2,166.9 L 445.2,151.1 Z" style="fill:#FF0000;fill-rule:evenodd;fill-opacity:1;stroke:#FF0000;stroke-width:0.0px;stroke-linecap:butt;stroke-linejoin:miter;stroke-opacity:1;"/>
<path class="bond-34 atom-34 atom-35" d="M 85.4,95.0 L 106.8,107.3 L 100.2,111.2 L 85.4,102.7 Z" style="fill:#FF0000;fill-rule:evenodd;fill-opacity:1;stroke:#FF0000;stroke-width:0.0px;stroke-linecap:butt;stroke-linejoin:miter;stroke-opacity:1;"/>
<ellipse cx="49.3" cy="78.0" rx="6.3" ry="6.3" class="atom-0" style="fill:#FF0000;fill-rule:evenodd;stroke:#FF0000;stroke-width:1.0px;stroke-linecap:butt;stroke-linejoin:miter;stroke-opacity:1"/>
<ellipse cx="49.3" cy="98.9" rx="6.3" ry="6.3" class="atom-1" style="fill:#FF0000;fill-rule:evenodd;stroke:#FF0000;stroke-width:1.0px;stroke-linecap:butt;stroke-linejoin:miter;stroke-opacity:1"/>
<ellipse cx="31.3" cy="109.3" rx="6.3" ry="6.3" class="atom-2" style="fill:#FF0000;fill-rule:evenodd;stroke:#FF0000;stroke-width:1.0px;stroke-linecap:butt;stroke-linejoin:miter;stroke-opacity:1"/>
<ellipse cx="67.4" cy="109.3" rx="6.3" ry="6.3" class="atom-3" style="fill:#FF0000;fill-rule:evenodd;stroke:#FF0000;stroke-width:1.0px;stroke-linecap:butt;stroke-linejoin:miter;stroke-opacity:1"/>
<ellipse cx="67.4" cy="130.2" rx="6.3" ry="6.3" class="atom-4" style="fill:#FF0000;fill-rule:evenodd;stroke:#FF0000;stroke-width:1.0px;stroke-linecap:butt;stroke-linejoin:miter;stroke-opacity:1"/>
<ellipse cx="85.5" cy="140.5" rx="6.3" ry="6.3" class="atom-5" style="fill:#FF0000;fill-rule:evenodd;stroke:#FF0000;stroke-width:1.0px;stroke-linecap:butt;stroke-linejoin:miter;stroke-opacity:1"/>
<ellipse cx="103.5" cy="130.1" rx="6.3" ry="6.3" class="atom-6" style="fill:#FF0000;fill-rule:evenodd;stroke:#FF0000;stroke-width:1.0px;stroke-linecap:butt;stroke-linejoin:miter;stroke-opacity:1"/>
<ellipse cx="121.6" cy="140.5" rx="6.3" ry="6.3" class="atom-7" style="fill:#FF0000;fill-rule:evenodd;stroke:#FF0000;stroke-width:1.0px;stroke-linecap:butt;stroke-linejoin:miter;stroke-opacity:1"/>
<ellipse cx="139.6" cy="130.1" rx="6.3" ry="6.3" class="atom-8" style="fill:#FF0000;fill-rule:evenodd;stroke:#FF0000;stroke-width:1.0px;stroke-linecap:butt;stroke-linejoin:miter;stroke-opacity:1"/>
<ellipse cx="139.6" cy="109.3" rx="6.3" ry="6.4" class="atom-9" style="fill:#FF0000;fill-rule:evenodd;stroke:#FF0000;stroke-width:1.0px;stroke-linecap:butt;stroke-linejoin:miter;stroke-opacity:1"/>
<ellipse cx="157.7" cy="145.4" rx="6.3" ry="13.2" class="atom-10" style="fill:#FF0000;fill-rule:evenodd;stroke:#FF0000;stroke-width:1.0px;stroke-linecap:butt;stroke-linejoin:miter;stroke-opacity:1"/>
<ellipse cx="175.7" cy="130.0" rx="6.3" ry="6.3" class="atom-11" style="fill:#FF0000;fill-rule:evenodd;stroke:#FF0000;stroke-width:1.0px;stroke-linecap:butt;stroke-linejoin:miter;stroke-opacity:1"/>
<ellipse cx="193.8" cy="140.5" rx="6.3" ry="6.3" class="atom-12" style="fill:#FF0000;fill-rule:evenodd;stroke:#FF0000;stroke-width:1.0px;stroke-linecap:butt;stroke-linejoin:miter;stroke-opacity:1"/>
<ellipse cx="211.9" cy="130.0" rx="6.3" ry="6.3" class="atom-13" style="fill:#FF0000;fill-rule:evenodd;stroke:#FF0000;stroke-width:1.0px;stroke-linecap:butt;stroke-linejoin:miter;stroke-opacity:1"/>
<ellipse cx="229.9" cy="140.4" rx="6.3" ry="6.3" class="atom-14" style="fill:#FF0000;fill-rule:evenodd;stroke:#FF0000;stroke-width:1.0px;stroke-linecap:butt;stroke-linejoin:miter;stroke-opacity:1"/>
<ellipse cx="248.0" cy="130.0" rx="6.3" ry="6.3" class="atom-15" style="fill:#FF0000;fill-rule:evenodd;stroke:#FF0000;stroke-width:1.0px;stroke-linecap:butt;stroke-linejoin:miter;stroke-opacity:1"/>
<ellipse cx="266.0" cy="140.4" rx="6.3" ry="6.3" class="atom-16" style="fill:#FF0000;fill-rule:evenodd;stroke:#FF0000;stroke-width:1.0px;stroke-linecap:butt;stroke-linejoin:miter;stroke-opacity:1"/>
<ellipse cx="284.1" cy="130.0" rx="6.3" ry="6.3" class="atom-17" style="fill:#FF0000;fill-rule:evenodd;stroke:#FF0000;stroke-width:1.0px;stroke-linecap:butt;stroke-linejoin:miter;stroke-opacity:1"/>
<ellipse cx="302.2" cy="140.4" rx="6.3" ry="6.3" class="atom-18" style="fill:#FF0000;fill-rule:evenodd;stroke:#FF0000;stroke-width:1.0px;stroke-linecap:butt;stroke-linejoin:miter;stroke-opacity:1"/>
<ellipse cx="320.2" cy="129.9" rx="6.3" ry="6.3" class="atom-19" style="fill:#FF0000;fill-rule:evenodd;stroke:#FF0000;stroke-width:1.0px;stroke-linecap:butt;stroke-linejoin:miter;stroke-opacity:1"/>
<ellipse cx="338.3" cy="140.3" rx="6.3" ry="6.3" class="atom-20" style="fill:#FF0000;fill-rule:evenodd;stroke:#FF0000;stroke-width:1.0px;stroke-linecap:butt;stroke-linejoin:miter;stroke-opacity:1"/>
<ellipse cx="392.4" cy="125.0" rx="6.3" ry="13.2" class="atom-23" style="fill:#FF0000;fill-rule:evenodd;stroke:#FF0000;stroke-width:1.0px;stroke-linecap:butt;stroke-linejoin:miter;stroke-opacity:1"/>
<ellipse cx="410.5" cy="140.3" rx="6.3" ry="6.3" class="atom-24" style="fill:#FF0000;fill-rule:evenodd;stroke:#FF0000;stroke-width:1.0px;stroke-linecap:butt;stroke-linejoin:miter;stroke-opacity:1"/>
<ellipse cx="406.6" cy="160.8" rx="6.3" ry="6.3" class="atom-25" style="fill:#FF0000;fill-rule:evenodd;stroke:#FF0000;stroke-width:1.0px;stroke-linecap:butt;stroke-linejoin:miter;stroke-opacity:1"/>
<ellipse cx="426.2" cy="172.0" rx="6.3" ry="6.3" class="atom-26" style="fill:#FF0000;fill-rule:evenodd;stroke:#FF0000;stroke-width:1.0px;stroke-linecap:butt;stroke-linejoin:miter;stroke-opacity:1"/>
<ellipse cx="441.9" cy="158.3" rx="6.3" ry="6.3" class="atom-27" style="fill:#FF0000;fill-rule:evenodd;stroke:#FF0000;stroke-width:1.0px;stroke-linecap:butt;stroke-linejoin:miter;stroke-opacity:1"/>
<ellipse cx="445.7" cy="137.9" rx="6.3" ry="6.3" class="atom-28" style="fill:#FF0000;fill-rule:evenodd;stroke:#FF0000;stroke-width:1.0px;stroke-linecap:butt;stroke-linejoin:miter;stroke-opacity:1"/>
<ellipse cx="426.2" cy="126.7" rx="6.3" ry="6.3" class="atom-29" style="fill:#FF0000;fill-rule:evenodd;stroke:#FF0000;stroke-width:1.0px;stroke-linecap:butt;stroke-linejoin:miter;stroke-opacity:1"/>
<ellipse cx="464.6" cy="135.7" rx="6.3" ry="6.3" class="atom-30" style="fill:#FF0000;fill-rule:evenodd;stroke:#FF0000;stroke-width:1.0px;stroke-linecap:butt;stroke-linejoin:miter;stroke-opacity:1"/>
<ellipse cx="448.9" cy="149.4" rx="6.3" ry="6.3" class="atom-31" style="fill:#FF0000;fill-rule:evenodd;stroke:#FF0000;stroke-width:1.0px;stroke-linecap:butt;stroke-linejoin:miter;stroke-opacity:1"/>
<ellipse cx="429.2" cy="138.0" rx="6.3" ry="6.3" class="atom-32" style="fill:#FF0000;fill-rule:evenodd;stroke:#FF0000;stroke-width:1.0px;stroke-linecap:butt;stroke-linejoin:miter;stroke-opacity:1"/>
<ellipse cx="445.0" cy="170.0" rx="6.3" ry="6.3" class="atom-33" style="fill:#FF0000;fill-rule:evenodd;stroke:#FF0000;stroke-width:1.0px;stroke-linecap:butt;stroke-linejoin:miter;stroke-opacity:1"/>
<ellipse cx="103.5" cy="109.2" rx="6.3" ry="6.3" class="atom-34" style="fill:#FF0000;fill-rule:evenodd;stroke:#FF0000;stroke-width:1.0px;stroke-linecap:butt;stroke-linejoin:miter;stroke-opacity:1"/>
<ellipse cx="85.4" cy="98.9" rx="6.3" ry="6.3" class="atom-35" style="fill:#FF0000;fill-rule:evenodd;stroke:#FF0000;stroke-width:1.0px;stroke-linecap:butt;stroke-linejoin:miter;stroke-opacity:1"/>
<path class="bond-0 atom-0 atom-1" d="M 49.3,78.0 L 49.3,85.9" style="fill:none;fill-rule:evenodd;stroke:#000000;stroke-width:2.0px;stroke-linecap:butt;stroke-linejoin:miter;stroke-opacity:1"/>
<path class="bond-0 atom-0 atom-1" d="M 49.3,85.9 L 49.3,93.7" style="fill:none;fill-rule:evenodd;stroke:#0000FF;stroke-width:2.0px;stroke-linecap:butt;stroke-linejoin:miter;stroke-opacity:1"/>
<path class="bond-1 atom-1 atom-2" d="M 45.3,101.2 L 38.3,105.3" style="fill:none;fill-rule:evenodd;stroke:#0000FF;stroke-width:2.0px;stroke-linecap:butt;stroke-linejoin:miter;stroke-opacity:1"/>
<path class="bond-1 atom-1 atom-2" d="M 38.3,105.3 L 31.3,109.3" style="fill:none;fill-rule:evenodd;stroke:#000000;stroke-width:2.0px;stroke-linecap:butt;stroke-linejoin:miter;stroke-opacity:1"/>
<path class="bond-2 atom-1 atom-3" d="M 53.4,101.2 L 60.4,105.2" style="fill:none;fill-rule:evenodd;stroke:#0000FF;stroke-width:2.0px;stroke-linecap:butt;stroke-linejoin:miter;stroke-opacity:1"/>
<path class="bond-2 atom-1 atom-3" d="M 60.4,105.2 L 67.4,109.3" style="fill:none;fill-rule:evenodd;stroke:#000000;stroke-width:2.0px;stroke-linecap:butt;stroke-linejoin:miter;stroke-opacity:1"/>
<path class="bond-3 atom-3 atom-4" d="M 67.4,109.3 L 67.4,130.2" style="fill:none;fill-rule:evenodd;stroke:#000000;stroke-width:2.0px;stroke-linecap:butt;stroke-linejoin:miter;stroke-opacity:1"/>
<path class="bond-3 atom-3 atom-4" d="M 70.5,111.1 L 70.5,128.3" style="fill:none;fill-rule:evenodd;stroke:#000000;stroke-width:2.0px;stroke-linecap:butt;stroke-linejoin:miter;stroke-opacity:1"/>
<path class="bond-4 atom-4 atom-5" d="M 67.4,130.2 L 85.5,140.5" style="fill:none;fill-rule:evenodd;stroke:#000000;stroke-width:2.0px;stroke-linecap:butt;stroke-linejoin:miter;stroke-opacity:1"/>
<path class="bond-5 atom-5 atom-6" d="M 85.5,140.5 L 103.5,130.1" style="fill:none;fill-rule:evenodd;stroke:#000000;stroke-width:2.0px;stroke-linecap:butt;stroke-linejoin:miter;stroke-opacity:1"/>
<path class="bond-5 atom-5 atom-6" d="M 85.5,136.9 L 100.4,128.3" style="fill:none;fill-rule:evenodd;stroke:#000000;stroke-width:2.0px;stroke-linecap:butt;stroke-linejoin:miter;stroke-opacity:1"/>
<path class="bond-6 atom-6 atom-7" d="M 103.5,130.1 L 121.6,140.5" style="fill:none;fill-rule:evenodd;stroke:#000000;stroke-width:2.0px;stroke-linecap:butt;stroke-linejoin:miter;stroke-opacity:1"/>
<path class="bond-7 atom-7 atom-8" d="M 121.6,140.5 L 139.6,130.1" style="fill:none;fill-rule:evenodd;stroke:#000000;stroke-width:2.0px;stroke-linecap:butt;stroke-linejoin:miter;stroke-opacity:1"/>
<path class="bond-8 atom-8 atom-9" d="M 141.2,131.0 L 141.2,122.8" style="fill:none;fill-rule:evenodd;stroke:#000000;stroke-width:2.0px;stroke-linecap:butt;stroke-linejoin:miter;stroke-opacity:1"/>
<path class="bond-8 atom-8 atom-9" d="M 141.2,122.8 L 141.2,114.5" style="fill:none;fill-rule:evenodd;stroke:#FF0000;stroke-width:2.0px;stroke-linecap:butt;stroke-linejoin:miter;stroke-opacity:1"/>
<path class="bond-8 atom-8 atom-9" d="M 138.1,131.0 L 138.1,122.8" style="fill:none;fill-rule:evenodd;stroke:#000000;stroke-width:2.0px;stroke-linecap:butt;stroke-linejoin:miter;stroke-opacity:1"/>
<path class="bond-8 atom-8 atom-9" d="M 138.1,122.8 L 138.0,114.5" style="fill:none;fill-rule:evenodd;stroke:#FF0000;stroke-width:2.0px;stroke-linecap:butt;stroke-linejoin:miter;stroke-opacity:1"/>
<path class="bond-9 atom-8 atom-10" d="M 139.6,130.1 L 146.6,134.1" style="fill:none;fill-rule:evenodd;stroke:#000000;stroke-width:2.0px;stroke-linecap:butt;stroke-linejoin:miter;stroke-opacity:1"/>
<path class="bond-9 atom-8 atom-10" d="M 146.6,134.1 L 153.6,138.2" style="fill:none;fill-rule:evenodd;stroke:#0000FF;stroke-width:2.0px;stroke-linecap:butt;stroke-linejoin:miter;stroke-opacity:1"/>
<path class="bond-10 atom-10 atom-11" d="M 161.7,138.1 L 168.7,134.1" style="fill:none;fill-rule:evenodd;stroke:#0000FF;stroke-width:2.0px;stroke-linecap:butt;stroke-linejoin:miter;stroke-opacity:1"/>
<path class="bond-10 atom-10 atom-11" d="M 168.7,134.1 L 175.7,130.0" style="fill:none;fill-rule:evenodd;stroke:#000000;stroke-width:2.0px;stroke-linecap:butt;stroke-linejoin:miter;stroke-opacity:1"/>
<path class="bond-11 atom-11 atom-12" d="M 175.7,130.0 L 193.8,140.5" style="fill:none;fill-rule:evenodd;stroke:#000000;stroke-width:2.0px;stroke-linecap:butt;stroke-linejoin:miter;stroke-opacity:1"/>
<path class="bond-12 atom-12 atom-13" d="M 193.8,140.5 L 211.9,130.0" style="fill:none;fill-rule:evenodd;stroke:#000000;stroke-width:2.0px;stroke-linecap:butt;stroke-linejoin:miter;stroke-opacity:1"/>
<path class="bond-13 atom-13 atom-14" d="M 211.9,130.0 L 229.9,140.4" style="fill:none;fill-rule:evenodd;stroke:#000000;stroke-width:2.0px;stroke-linecap:butt;stroke-linejoin:miter;stroke-opacity:1"/>
<path class="bond-14 atom-14 atom-15" d="M 229.9,140.4 L 248.0,130.0" style="fill:none;fill-rule:evenodd;stroke:#000000;stroke-width:2.0px;stroke-linecap:butt;stroke-linejoin:miter;stroke-opacity:1"/>
<path class="bond-15 atom-15 atom-16" d="M 248.0,130.0 L 266.0,140.4" style="fill:none;fill-rule:evenodd;stroke:#000000;stroke-width:2.0px;stroke-linecap:butt;stroke-linejoin:miter;stroke-opacity:1"/>
<path class="bond-16 atom-16 atom-17" d="M 266.0,140.4 L 284.1,130.0" style="fill:none;fill-rule:evenodd;stroke:#000000;stroke-width:2.0px;stroke-linecap:butt;stroke-linejoin:miter;stroke-opacity:1"/>
<path class="bond-17 atom-17 atom-18" d="M 284.1,130.0 L 302.2,140.4" style="fill:none;fill-rule:evenodd;stroke:#000000;stroke-width:2.0px;stroke-linecap:butt;stroke-linejoin:miter;stroke-opacity:1"/>
<path class="bond-18 atom-18 atom-19" d="M 302.2,140.4 L 320.2,129.9" style="fill:none;fill-rule:evenodd;stroke:#000000;stroke-width:2.0px;stroke-linecap:butt;stroke-linejoin:miter;stroke-opacity:1"/>
<path class="bond-19 atom-19 atom-20" d="M 320.2,129.9 L 338.3,140.3" style="fill:none;fill-rule:evenodd;stroke:#000000;stroke-width:2.0px;stroke-linecap:butt;stroke-linejoin:miter;stroke-opacity:1"/>
<path class="bond-20 atom-20 atom-21" d="M 338.3,140.3 L 356.3,129.9" style="fill:none;fill-rule:evenodd;stroke:#000000;stroke-width:2.0px;stroke-linecap:butt;stroke-linejoin:miter;stroke-opacity:1"/>
<path class="bond-21 atom-21 atom-22" d="M 356.3,129.9 L 374.4,140.3" style="fill:none;fill-rule:evenodd;stroke:#000000;stroke-width:2.0px;stroke-linecap:butt;stroke-linejoin:miter;stroke-opacity:1"/>
<path class="bond-22 atom-22 atom-23" d="M 374.4,140.3 L 381.4,136.2" style="fill:none;fill-rule:evenodd;stroke:#000000;stroke-width:2.0px;stroke-linecap:butt;stroke-linejoin:miter;stroke-opacity:1"/>
<path class="bond-22 atom-22 atom-23" d="M 381.4,136.2 L 388.4,132.2" style="fill:none;fill-rule:evenodd;stroke:#0000FF;stroke-width:2.0px;stroke-linecap:butt;stroke-linejoin:miter;stroke-opacity:1"/>
<path class="bond-23 atom-23 atom-24" d="M 396.5,132.2 L 403.5,136.2" style="fill:none;fill-rule:evenodd;stroke:#0000FF;stroke-width:2.0px;stroke-linecap:butt;stroke-linejoin:miter;stroke-opacity:1"/>
<path class="bond-23 atom-23 atom-24" d="M 403.5,136.2 L 410.5,140.3" style="fill:none;fill-rule:evenodd;stroke:#000000;stroke-width:2.0px;stroke-linecap:butt;stroke-linejoin:miter;stroke-opacity:1"/>
<path class="bond-24 atom-24 atom-25" d="M 410.5,140.3 L 406.6,160.8" style="fill:none;fill-rule:evenodd;stroke:#000000;stroke-width:2.0px;stroke-linecap:butt;stroke-linejoin:miter;stroke-opacity:1"/>
<path class="bond-25 atom-25 atom-26" d="M 406.6,160.8 L 426.2,172.0" style="fill:none;fill-rule:evenodd;stroke:#000000;stroke-width:2.0px;stroke-linecap:butt;stroke-linejoin:miter;stroke-opacity:1"/>
<path class="bond-26 atom-26 atom-27" d="M 426.2,172.0 L 441.9,158.3" style="fill:none;fill-rule:evenodd;stroke:#000000;stroke-width:2.0px;stroke-linecap:butt;stroke-linejoin:miter;stroke-opacity:1"/>
<path class="bond-27 atom-27 atom-28" d="M 441.9,158.3 L 445.7,137.9" style="fill:none;fill-rule:evenodd;stroke:#000000;stroke-width:2.0px;stroke-linecap:butt;stroke-linejoin:miter;stroke-opacity:1"/>
<path class="bond-28 atom-28 atom-29" d="M 445.7,137.9 L 426.2,126.7" style="fill:none;fill-rule:evenodd;stroke:#000000;stroke-width:2.0px;stroke-linecap:butt;stroke-linejoin:miter;stroke-opacity:1"/>
<path class="bond-29 atom-28 atom-30" d="M 445.7,137.9 L 464.6,135.7" style="fill:none;fill-rule:evenodd;stroke:#000000;stroke-width:2.0px;stroke-linecap:butt;stroke-linejoin:miter;stroke-opacity:1"/>
<path class="bond-30 atom-30 atom-31" d="M 464.6,135.7 L 448.9,149.4" style="fill:none;fill-rule:evenodd;stroke:#000000;stroke-width:2.0px;stroke-linecap:butt;stroke-linejoin:miter;stroke-opacity:1"/>
<path class="bond-31 atom-31 atom-32" d="M 448.9,149.4 L 429.2,138.0" style="fill:none;fill-rule:evenodd;stroke:#000000;stroke-width:2.0px;stroke-linecap:butt;stroke-linejoin:miter;stroke-opacity:1"/>
<path class="bond-32 atom-31 atom-33" d="M 448.9,149.4 L 445.0,170.0" style="fill:none;fill-rule:evenodd;stroke:#000000;stroke-width:2.0px;stroke-linecap:butt;stroke-linejoin:miter;stroke-opacity:1"/>
<path class="bond-33 atom-6 atom-34" d="M 103.5,130.1 L 103.5,109.2" style="fill:none;fill-rule:evenodd;stroke:#000000;stroke-width:2.0px;stroke-linecap:butt;stroke-linejoin:miter;stroke-opacity:1"/>
<path class="bond-34 atom-34 atom-35" d="M 103.5,109.2 L 85.4,98.9" style="fill:none;fill-rule:evenodd;stroke:#000000;stroke-width:2.0px;stroke-linecap:butt;stroke-linejoin:miter;stroke-opacity:1"/>
<path class="bond-34 atom-34 atom-35" d="M 100.4,111.0 L 85.4,102.5" style="fill:none;fill-rule:evenodd;stroke:#000000;stroke-width:2.0px;stroke-linecap:butt;stroke-linejoin:miter;stroke-opacity:1"/>
<path class="bond-35 atom-35 atom-3" d="M 85.4,98.9 L 67.4,109.3" style="fill:none;fill-rule:evenodd;stroke:#000000;stroke-width:2.0px;stroke-linecap:butt;stroke-linejoin:miter;stroke-opacity:1"/>
<path class="bond-36 atom-29 atom-24" d="M 426.2,126.7 L 410.5,140.3" style="fill:none;fill-rule:evenodd;stroke:#000000;stroke-width:2.0px;stroke-linecap:butt;stroke-linejoin:miter;stroke-opacity:1"/>
<path class="bond-37 atom-32 atom-24" d="M 429.2,138.0 L 410.5,140.3" style="fill:none;fill-rule:evenodd;stroke:#000000;stroke-width:2.0px;stroke-linecap:butt;stroke-linejoin:miter;stroke-opacity:1"/>
<path class="bond-38 atom-33 atom-26" d="M 445.0,170.0 L 426.2,172.0" style="fill:none;fill-rule:evenodd;stroke:#000000;stroke-width:2.0px;stroke-linecap:butt;stroke-linejoin:miter;stroke-opacity:1"/>
<path d="M 67.4,129.1 L 67.4,130.2 L 68.3,130.7" style="fill:none;stroke:#000000;stroke-width:2.0px;stroke-linecap:butt;stroke-linejoin:miter;stroke-opacity:1;"/>
<path d="M 84.6,140.0 L 85.5,140.5 L 86.4,140.0" style="fill:none;stroke:#000000;stroke-width:2.0px;stroke-linecap:butt;stroke-linejoin:miter;stroke-opacity:1;"/>
<path d="M 120.7,140.0 L 121.6,140.5 L 122.5,140.0" style="fill:none;stroke:#000000;stroke-width:2.0px;stroke-linecap:butt;stroke-linejoin:miter;stroke-opacity:1;"/>
<path d="M 138.7,130.6 L 139.6,130.1 L 140.0,130.3" style="fill:none;stroke:#000000;stroke-width:2.0px;stroke-linecap:butt;stroke-linejoin:miter;stroke-opacity:1;"/>
<path d="M 175.4,130.3 L 175.7,130.0 L 176.6,130.6" style="fill:none;stroke:#000000;stroke-width:2.0px;stroke-linecap:butt;stroke-linejoin:miter;stroke-opacity:1;"/>
<path d="M 192.9,139.9 L 193.8,140.5 L 194.7,139.9" style="fill:none;stroke:#000000;stroke-width:2.0px;stroke-linecap:butt;stroke-linejoin:miter;stroke-opacity:1;"/>
<path d="M 211.0,130.5 L 211.9,130.0 L 212.8,130.5" style="fill:none;stroke:#000000;stroke-width:2.0px;stroke-linecap:butt;stroke-linejoin:miter;stroke-opacity:1;"/>
<path d="M 229.0,139.9 L 229.9,140.4 L 230.8,139.9" style="fill:none;stroke:#000000;stroke-width:2.0px;stroke-linecap:butt;stroke-linejoin:miter;stroke-opacity:1;"/>
<path d="M 247.1,130.5 L 248.0,130.0 L 248.9,130.5" style="fill:none;stroke:#000000;stroke-width:2.0px;stroke-linecap:butt;stroke-linejoin:miter;stroke-opacity:1;"/>
<path d="M 265.1,139.9 L 266.0,140.4 L 266.9,139.9" style="fill:none;stroke:#000000;stroke-width:2.0px;stroke-linecap:butt;stroke-linejoin:miter;stroke-opacity:1;"/>
<path d="M 283.2,130.5 L 284.1,130.0 L 285.0,130.5" style="fill:none;stroke:#000000;stroke-width:2.0px;stroke-linecap:butt;stroke-linejoin:miter;stroke-opacity:1;"/>
<path d="M 301.3,139.9 L 302.2,140.4 L 303.1,139.9" style="fill:none;stroke:#000000;stroke-width:2.0px;stroke-linecap:butt;stroke-linejoin:miter;stroke-opacity:1;"/>
<path d="M 319.3,130.5 L 320.2,129.9 L 321.1,130.5" style="fill:none;stroke:#000000;stroke-width:2.0px;stroke-linecap:butt;stroke-linejoin:miter;stroke-opacity:1;"/>
<path d="M 337.4,139.8 L 338.3,140.3 L 339.2,139.8" style="fill:none;stroke:#000000;stroke-width:2.0px;stroke-linecap:butt;stroke-linejoin:miter;stroke-opacity:1;"/>
<path d="M 355.4,130.4 L 356.3,129.9 L 357.2,130.4" style="fill:none;stroke:#000000;stroke-width:2.0px;stroke-linecap:butt;stroke-linejoin:miter;stroke-opacity:1;"/>
<path d="M 373.5,139.8 L 374.4,140.3 L 374.7,140.1" style="fill:none;stroke:#000000;stroke-width:2.0px;stroke-linecap:butt;stroke-linejoin:miter;stroke-opacity:1;"/>
<path d="M 406.8,159.7 L 406.6,160.8 L 407.6,161.3" style="fill:none;stroke:#000000;stroke-width:2.0px;stroke-linecap:butt;stroke-linejoin:miter;stroke-opacity:1;"/>
<path d="M 441.1,159.0 L 441.9,158.3 L 442.1,157.3" style="fill:none;stroke:#000000;stroke-width:2.0px;stroke-linecap:butt;stroke-linejoin:miter;stroke-opacity:1;"/>
<path d="M 427.1,127.3 L 426.2,126.7 L 425.4,127.4" style="fill:none;stroke:#000000;stroke-width:2.0px;stroke-linecap:butt;stroke-linejoin:miter;stroke-opacity:1;"/>
<path d="M 463.7,135.8 L 464.6,135.7 L 463.9,136.4" style="fill:none;stroke:#000000;stroke-width:2.0px;stroke-linecap:butt;stroke-linejoin:miter;stroke-opacity:1;"/>
<path d="M 430.2,138.6 L 429.2,138.0 L 428.3,138.1" style="fill:none;stroke:#000000;stroke-width:2.0px;stroke-linecap:butt;stroke-linejoin:miter;stroke-opacity:1;"/>
<path d="M 445.2,168.9 L 445.0,170.0 L 444.1,170.1" style="fill:none;stroke:#000000;stroke-width:2.0px;stroke-linecap:butt;stroke-linejoin:miter;stroke-opacity:1;"/>
<path d="M 103.5,110.3 L 103.5,109.2 L 102.6,108.7" style="fill:none;stroke:#000000;stroke-width:2.0px;stroke-linecap:butt;stroke-linejoin:miter;stroke-opacity:1;"/>
<path d="M 86.3,99.4 L 85.4,98.9 L 84.5,99.4" style="fill:none;stroke:#000000;stroke-width:2.0px;stroke-linecap:butt;stroke-linejoin:miter;stroke-opacity:1;"/>
<path class="atom-1" d="M 47.3 94.4 L 50.2 99.1 Q 50.5 99.6, 51.0 100.4 Q 51.5 101.3, 51.5 101.3 L 51.5 94.4 L 52.7 94.4 L 52.7 103.3 L 51.5 103.3 L 48.3 98.2 Q 48.0 97.6, 47.6 96.9 Q 47.2 96.2, 47.1 96.0 L 47.1 103.3 L 45.9 103.3 L 45.9 94.4 L 47.3 94.4 " fill="#0000FF"/>
<path class="atom-9" d="M 135.5 109.3 Q 135.5 107.1, 136.6 105.9 Q 137.6 104.8, 139.6 104.8 Q 141.6 104.8, 142.6 105.9 Q 143.7 107.1, 143.7 109.3 Q 143.7 111.4, 142.6 112.6 Q 141.5 113.8, 139.6 113.8 Q 137.7 113.8, 136.6 112.6 Q 135.5 111.4, 135.5 109.3 M 139.6 112.8 Q 141.0 112.8, 141.7 111.9 Q 142.4 111.0, 142.4 109.3 Q 142.4 107.5, 141.7 106.6 Q 141.0 105.8, 139.6 105.8 Q 138.3 105.8, 137.5 106.6 Q 136.8 107.5, 136.8 109.3 Q 136.8 111.0, 137.5 111.9 Q 138.3 112.8, 139.6 112.8 " fill="#FF0000"/>
<path class="atom-10" d="M 155.7 136.1 L 158.6 140.8 Q 158.9 141.2, 159.4 142.1 Q 159.8 142.9, 159.9 142.9 L 159.9 136.1 L 161.1 136.1 L 161.1 144.9 L 159.8 144.9 L 156.7 139.8 Q 156.4 139.2, 156.0 138.5 Q 155.6 137.8, 155.5 137.6 L 155.5 144.9 L 154.3 144.9 L 154.3 136.1 L 155.7 136.1 " fill="#0000FF"/>
<path class="atom-10" d="M 154.2 145.8 L 155.4 145.8 L 155.4 149.6 L 160.0 149.6 L 160.0 145.8 L 161.2 145.8 L 161.2 154.7 L 160.0 154.7 L 160.0 150.6 L 155.4 150.6 L 155.4 154.7 L 154.2 154.7 L 154.2 145.8 " fill="#0000FF"/>
<path class="atom-23" d="M 390.5 125.4 L 393.4 130.1 Q 393.7 130.6, 394.1 131.4 Q 394.6 132.3, 394.6 132.3 L 394.6 125.4 L 395.8 125.4 L 395.8 134.3 L 394.6 134.3 L 391.5 129.2 Q 391.1 128.6, 390.7 127.9 Q 390.3 127.2, 390.2 127.0 L 390.2 134.3 L 389.1 134.3 L 389.1 125.4 L 390.5 125.4 " fill="#0000FF"/>
<path class="atom-23" d="M 389.0 115.7 L 390.2 115.7 L 390.2 119.4 L 394.7 119.4 L 394.7 115.7 L 395.9 115.7 L 395.9 124.5 L 394.7 124.5 L 394.7 120.4 L 390.2 120.4 L 390.2 124.5 L 389.0 124.5 L 389.0 115.7 " fill="#0000FF"/>
</svg>