<svg xmlns="http://www.w3.org/2000/svg" xmlns:rdkit="http://www.rdkit.org/xml" xmlns:xlink="http://www.w3.org/1999/xlink" version="1.1" baseProfile="full" xml:space="preserve" width="500px" height="250px" viewBox="0 0 500 250">
<!-- END OF HEADER -->
<rect style="opacity:1.0;fill:#FFFFFF;stroke:none" width="500.0" height="250.0" x="0.0" y="0.0"> </rect>
<path class="bond-0 atom-0 atom-1" d="M 52.6,79.4 L 52.6,98.3 L 49.3,100.3 L 46.0,98.4 L 46.0,79.4 Z" style="fill:#FF0000;fill-rule:evenodd;fill-opacity:1;stroke:#FF0000;stroke-width:0.0px;stroke-linecap:butt;stroke-linejoin:miter;stroke-opacity:1;"/>
<path class="bond-1 atom-1 atom-2" d="M 46.0,98.4 L 49.3,100.3 L 49.3,104.1 L 32.9,113.6 L 29.6,107.8 Z" style="fill:#FF0000;fill-rule:evenodd;fill-opacity:1;stroke:#FF0000;stroke-width:0.0px;stroke-linecap:butt;stroke-linejoin:miter;stroke-opacity:1;"/>
<path class="bond-2 atom-1 atom-3" d="M 52.6,98.3 L 67.4,106.8 L 67.4,110.7 L 64.0,112.6 L 49.3,104.1 L 49.3,100.3 Z" style="fill:#FF0000;fill-rule:evenodd;fill-opacity:1;stroke:#FF0000;stroke-width:0.0px;stroke-linecap:butt;stroke-linejoin:miter;stroke-opacity:1;"/>
<path class="bond-3 atom-3 atom-4" d="M 67.4,110.7 L 70.7,112.6 L 70.7,129.6 L 64.0,133.5 L 64.0,112.6 Z" style="fill:#FF0000;fill-rule:evenodd;fill-opacity:1;stroke:#FF0000;stroke-width:0.0px;stroke-linecap:butt;stroke-linejoin:miter;stroke-opacity:1;"/>
<path class="bond-35 atom-3 atom-35" d="M 85.4,96.4 L 85.4,104.1 L 70.7,112.6 L 67.4,110.7 L 67.4,106.8 Z" style="fill:#FF0000;fill-rule:evenodd;fill-opacity:1;stroke:#FF0000;stroke-width:0.0px;stroke-linecap:butt;stroke-linejoin:miter;stroke-opacity:1;"/>
<path class="bond-4 atom-4 atom-5" d="M 70.7,129.6 L 85.5,138.1 L 85.5,145.8 L 64.0,133.5 Z" style="fill:#FF0000;fill-rule:evenodd;fill-opacity:1;stroke:#FF0000;stroke-width:0.0px;stroke-linecap:butt;stroke-linejoin:miter;stroke-opacity:1;"/>
<path class="bond-5 atom-5 atom-6" d="M 100.2,129.6 L 103.5,131.5 L 103.5,135.4 L 85.5,145.8 L 85.5,138.1 Z" style="fill:#FF0000;fill-rule:evenodd;fill-opacity:1;stroke:#FF0000;stroke-width:0.0px;stroke-linecap:butt;stroke-linejoin:miter;stroke-opacity:1;"/>
<path class="bond-6 atom-6 atom-7" d="M 106.9,129.6 L 121.6,138.1 L 121.6,145.8 L 103.5,135.4 L 103.5,131.5 Z" style="fill:#FF0000;fill-rule:evenodd;fill-opacity:1;stroke:#FF0000;stroke-width:0.0px;stroke-linecap:butt;stroke-linejoin:miter;stroke-opacity:1;"/>
<path class="bond-33 atom-6 atom-34" d="M 106.8,108.7 L 106.9,129.6 L 103.5,131.5 L 100.2,129.6 L 100.2,112.6 Z" style="fill:#FF0000;fill-rule:evenodd;fill-opacity:1;stroke:#FF0000;stroke-width:0.0px;stroke-linecap:butt;stroke-linejoin:miter;stroke-opacity:1;"/>
<path class="bond-7 atom-7 atom-8" d="M 136.3,129.6 L 139.6,131.5 L 139.6,135.3 L 121.6,145.8 L 121.6,138.1 Z" style="fill:#FF0000;fill-rule:evenodd;fill-opacity:1;stroke:#FF0000;stroke-width:0.0px;stroke-linecap:butt;stroke-linejoin:miter;stroke-opacity:1;"/>
<path class="bond-8 atom-8 atom-9" d="M 142.9,110.6 L 143.0,129.6 L 139.6,131.5 L 136.3,129.6 L 136.3,110.6 Z" style="fill:#FF0000;fill-rule:evenodd;fill-opacity:1;stroke:#FF0000;stroke-width:0.0px;stroke-linecap:butt;stroke-linejoin:miter;stroke-opacity:1;"/>
<path class="bond-9 atom-8 atom-10" d="M 143.0,129.6 L 157.7,138.0 L 157.7,145.8 L 139.6,135.3 L 139.6,131.5 Z" style="fill:#FF0000;fill-rule:evenodd;fill-opacity:1;stroke:#FF0000;stroke-width:0.0px;stroke-linecap:butt;stroke-linejoin:miter;stroke-opacity:1;"/>
<path class="bond-10 atom-10 atom-11" d="M 175.7,127.6 L 175.7,135.3 L 157.7,145.8 L 157.7,138.0 Z" style="fill:#FF0000;fill-rule:evenodd;fill-opacity:1;stroke:#FF0000;stroke-width:0.0px;stroke-linecap:butt;stroke-linejoin:miter;stroke-opacity:1;"/>
<path class="bond-11 atom-11 atom-12" d="M 175.7,127.6 L 193.8,138.0 L 193.8,145.7 L 175.7,135.3 Z" style="fill:#FF0000;fill-rule:evenodd;fill-opacity:1;stroke:#FF0000;stroke-width:0.0px;stroke-linecap:butt;stroke-linejoin:miter;stroke-opacity:1;"/>
<path class="bond-12 atom-12 atom-13" d="M 211.9,127.6 L 211.9,135.3 L 193.8,145.7 L 193.8,138.0 Z" style="fill:#FF0000;fill-rule:evenodd;fill-opacity:1;stroke:#FF0000;stroke-width:0.0px;stroke-linecap:butt;stroke-linejoin:miter;stroke-opacity:1;"/>
<path class="bond-13 atom-13 atom-14" d="M 211.9,127.6 L 229.9,138.0 L 229.9,145.7 L 211.9,135.3 Z" style="fill:#FF0000;fill-rule:evenodd;fill-opacity:1;stroke:#FF0000;stroke-width:0.0px;stroke-linecap:butt;stroke-linejoin:miter;stroke-opacity:1;"/>
<path class="bond-14 atom-14 atom-15" d="M 248.0,127.5 L 248.0,135.3 L 229.9,145.7 L 229.9,138.0 Z" style="fill:#FF0000;fill-rule:evenodd;fill-opacity:1;stroke:#FF0000;stroke-width:0.0px;stroke-linecap:butt;stroke-linejoin:miter;stroke-opacity:1;"/>
<path class="bond-15 atom-15 atom-16" d="M 248.0,127.5 L 266.0,138.0 L 266.0,145.7 L 248.0,135.3 Z" style="fill:#FF0000;fill-rule:evenodd;fill-opacity:1;stroke:#FF0000;stroke-width:0.0px;stroke-linecap:butt;stroke-linejoin:miter;stroke-opacity:1;"/>
<path class="bond-16 atom-16 atom-17" d="M 284.1,127.5 L 284.1,135.2 L 266.0,145.7 L 266.0,138.0 Z" style="fill:#FF0000;fill-rule:evenodd;fill-opacity:1;stroke:#FF0000;stroke-width:0.0px;stroke-linecap:butt;stroke-linejoin:miter;stroke-opacity:1;"/>
<path class="bond-17 atom-17 atom-18" d="M 284.1,127.5 L 302.2,137.9 L 302.2,145.6 L 284.1,135.2 Z" style="fill:#FF0000;fill-rule:evenodd;fill-opacity:1;stroke:#FF0000;stroke-width:0.0px;stroke-linecap:butt;stroke-linejoin:miter;stroke-opacity:1;"/>
<path class="bond-18 atom-18 atom-19" d="M 320.2,127.5 L 320.2,135.2 L 302.2,145.6 L 302.2,137.9 Z" style="fill:#FF0000;fill-rule:evenodd;fill-opacity:1;stroke:#FF0000;stroke-width:0.0px;stroke-linecap:butt;stroke-linejoin:miter;stroke-opacity:1;"/>
<path class="bond-19 atom-19 atom-20" d="M 320.2,127.5 L 338.3,137.9 L 338.3,145.6 L 320.2,135.2 Z" style="fill:#FF0000;fill-rule:evenodd;fill-opacity:1;stroke:#FF0000;stroke-width:0.0px;stroke-linecap:butt;stroke-linejoin:miter;stroke-opacity:1;"/>
<path class="bond-20 atom-20 atom-21" d="M 356.3,127.5 L 356.3,135.2 L 338.3,145.6 L 338.3,137.9 Z" style="fill:#4C4CFF;fill-rule:evenodd;fill-opacity:1;stroke:#4C4CFF;stroke-width:0.0px;stroke-linecap:butt;stroke-linejoin:miter;stroke-opacity:1;"/>
<path class="bond-21 atom-21 atom-22" d="M 356.3,127.5 L 374.4,137.9 L 374.4,145.6 L 356.3,135.2 Z" style="fill:#4C4CFF;fill-rule:evenodd;fill-opacity:1;stroke:#4C4CFF;stroke-width:0.0px;stroke-linecap:butt;stroke-linejoin:miter;stroke-opacity:1;"/>
<path class="bond-22 atom-22 atom-23" d="M 392.4,127.4 L 392.4,135.1 L 374.4,145.6 L 374.4,137.9 Z" style="fill:#4C4CFF;fill-rule:evenodd;fill-opacity:1;stroke:#4C4CFF;stroke-width:0.0px;stroke-linecap:butt;stroke-linejoin:miter;stroke-opacity:1;"/>
<path class="bond-23 atom-23 atom-24" d="M 392.4,127.4 L 410.1,137.6 L 410.5,141.7 L 406.8,143.4 L 392.4,135.1 Z" style="fill:#4C4CFF;fill-rule:evenodd;fill-opacity:1;stroke:#4C4CFF;stroke-width:0.0px;stroke-linecap:butt;stroke-linejoin:miter;stroke-opacity:1;"/>
<path class="bond-24 atom-24 atom-25" d="M 410.5,141.7 L 413.3,144.7 L 410.3,160.5 L 402.9,163.9 L 406.8,143.4 Z" style="fill:#4C4CFF;fill-rule:evenodd;fill-opacity:1;stroke:#4C4CFF;stroke-width:0.0px;stroke-linecap:butt;stroke-linejoin:miter;stroke-opacity:1;"/>
<path class="bond-36 atom-24 atom-29" d="M 425.8,124.1 L 426.6,132.2 L 421.0,137.1 L 410.5,141.7 L 410.1,137.6 Z" style="fill:#4C4CFF;fill-rule:evenodd;fill-opacity:1;stroke:#4C4CFF;stroke-width:0.0px;stroke-linecap:butt;stroke-linejoin:miter;stroke-opacity:1;"/>
<path class="bond-37 atom-24 atom-32" d="M 429.9,136.0 L 428.5,142.9 L 413.3,144.7 L 410.5,141.7 L 421.0,137.1 Z" style="fill:#4C4CFF;fill-rule:evenodd;fill-opacity:1;stroke:#4C4CFF;stroke-width:0.0px;stroke-linecap:butt;stroke-linejoin:miter;stroke-opacity:1;"/>
<path class="bond-25 atom-25 atom-26" d="M 410.3,160.5 L 425.8,169.3 L 426.2,173.4 L 425.5,176.8 L 402.9,163.9 Z" style="fill:#4C4CFF;fill-rule:evenodd;fill-opacity:1;stroke:#4C4CFF;stroke-width:0.0px;stroke-linecap:butt;stroke-linejoin:miter;stroke-opacity:1;"/>
<path class="bond-26 atom-26 atom-27" d="M 438.8,158.0 L 445.0,161.5 L 436.4,168.9 L 426.2,173.4 L 425.8,169.3 Z" style="fill:#4C4CFF;fill-rule:evenodd;fill-opacity:1;stroke:#4C4CFF;stroke-width:0.0px;stroke-linecap:butt;stroke-linejoin:miter;stroke-opacity:1;"/>
<path class="bond-38 atom-26 atom-33" d="M 442.2,168.3 L 447.8,174.4 L 425.5,176.8 L 426.2,173.4 L 436.4,168.9 Z" style="fill:#4C4CFF;fill-rule:evenodd;fill-opacity:1;stroke:#4C4CFF;stroke-width:0.0px;stroke-linecap:butt;stroke-linejoin:miter;stroke-opacity:1;"/>
<path class="bond-27 atom-27 atom-28" d="M 445.7,139.4 L 448.5,142.4 L 445.0,161.5 L 438.8,158.0 L 442.0,141.1 Z" style="fill:#4C4CFF;fill-rule:evenodd;fill-opacity:1;stroke:#4C4CFF;stroke-width:0.0px;stroke-linecap:butt;stroke-linejoin:miter;stroke-opacity:1;"/>
<path class="bond-28 atom-28 atom-29" d="M 425.8,124.1 L 446.4,135.9 L 445.7,139.4 L 442.0,141.1 L 426.6,132.2 Z" style="fill:#4C4CFF;fill-rule:evenodd;fill-opacity:1;stroke:#4C4CFF;stroke-width:0.0px;stroke-linecap:butt;stroke-linejoin:miter;stroke-opacity:1;"/>
<path class="bond-29 atom-28 atom-30" d="M 475.0,132.5 L 454.3,141.7 L 448.5,142.4 L 445.7,139.4 L 446.4,135.9 Z" style="fill:#4C4CFF;fill-rule:evenodd;fill-opacity:1;stroke:#4C4CFF;stroke-width:0.0px;stroke-linecap:butt;stroke-linejoin:miter;stroke-opacity:1;"/>
<path class="bond-30 atom-30 atom-31" d="M 475.0,132.5 L 452.0,152.6 L 448.9,150.8 L 448.5,146.7 L 454.3,141.7 Z" style="fill:#4C4CFF;fill-rule:evenodd;fill-opacity:1;stroke:#4C4CFF;stroke-width:0.0px;stroke-linecap:butt;stroke-linejoin:miter;stroke-opacity:1;"/>
<path class="bond-31 atom-31 atom-32" d="M 429.9,136.0 L 448.5,146.7 L 448.9,150.8 L 445.2,152.5 L 428.5,142.9 Z" style="fill:#4C4CFF;fill-rule:evenodd;fill-opacity:1;stroke:#4C4CFF;stroke-width:0.0px;stroke-linecap:butt;stroke-linejoin:miter;stroke-opacity:1;"/>
<path class="bond-32 atom-31 atom-33" d="M 448.9,150.8 L 452.0,152.6 L 447.8,174.4 L 442.2,168.3 L 445.2,152.5 Z" style="fill:#4C4CFF;fill-rule:evenodd;fill-opacity:1;stroke:#4C4CFF;stroke-width:0.0px;stroke-linecap:butt;stroke-linejoin:miter;stroke-opacity:1;"/>
<path class="bond-34 atom-34 atom-35" d="M 85.4,96.4 L 106.8,108.7 L 100.2,112.6 L 85.4,104.1 Z" style="fill:#FF0000;fill-rule:evenodd;fill-opacity:1;stroke:#FF0000;stroke-width:0.0px;stroke-linecap:butt;stroke-linejoin:miter;stroke-opacity:1;"/>
<ellipse cx="49.3" cy="79.4" rx="6.3" ry="6.3" class="atom-0" style="fill:#FF0000;fill-rule:evenodd;stroke:#FF0000;stroke-width:1.0px;stroke-linecap:butt;stroke-linejoin:miter;stroke-opacity:1"/>
<ellipse cx="49.3" cy="100.3" rx="6.3" ry="6.3" class="atom-1" style="fill:#FF0000;fill-rule:evenodd;stroke:#FF0000;stroke-width:1.0px;stroke-linecap:butt;stroke-linejoin:miter;stroke-opacity:1"/>
<ellipse cx="31.3" cy="110.7" rx="6.3" ry="6.3" class="atom-2" style="fill:#FF0000;fill-rule:evenodd;stroke:#FF0000;stroke-width:1.0px;stroke-linecap:butt;stroke-linejoin:miter;stroke-opacity:1"/>
<ellipse cx="67.4" cy="110.7" rx="6.3" ry="6.3" class="atom-3" style="fill:#FF0000;fill-rule:evenodd;stroke:#FF0000;stroke-width:1.0px;stroke-linecap:butt;stroke-linejoin:miter;stroke-opacity:1"/>
<ellipse cx="67.4" cy="131.6" rx="6.3" ry="6.3" class="atom-4" style="fill:#FF0000;fill-rule:evenodd;stroke:#FF0000;stroke-width:1.0px;stroke-linecap:butt;stroke-linejoin:miter;stroke-opacity:1"/>
<ellipse cx="85.5" cy="141.9" rx="6.3" ry="6.3" class="atom-5" style="fill:#FF0000;fill-rule:evenodd;stroke:#FF0000;stroke-width:1.0px;stroke-linecap:butt;stroke-linejoin:miter;stroke-opacity:1"/>
<ellipse cx="103.5" cy="131.5" rx="6.3" ry="6.3" class="atom-6" style="fill:#FF0000;fill-rule:evenodd;stroke:#FF0000;stroke-width:1.0px;stroke-linecap:butt;stroke-linejoin:miter;stroke-opacity:1"/>
<ellipse cx="121.6" cy="141.9" rx="6.3" ry="6.3" class="atom-7" style="fill:#FF0000;fill-rule:evenodd;stroke:#FF0000;stroke-width:1.0px;stroke-linecap:butt;stroke-linejoin:miter;stroke-opacity:1"/>
<ellipse cx="139.6" cy="131.5" rx="6.3" ry="6.3" class="atom-8" style="fill:#FF0000;fill-rule:evenodd;stroke:#FF0000;stroke-width:1.0px;stroke-linecap:butt;stroke-linejoin:miter;stroke-opacity:1"/>
<ellipse cx="139.6" cy="110.7" rx="6.3" ry="6.4" class="atom-9" style="fill:#FF0000;fill-rule:evenodd;stroke:#FF0000;stroke-width:1.0px;stroke-linecap:butt;stroke-linejoin:miter;stroke-opacity:1"/>
<ellipse cx="157.7" cy="146.8" rx="6.3" ry="13.2" class="atom-10" style="fill:#FF0000;fill-rule:evenodd;stroke:#FF0000;stroke-width:1.0px;stroke-linecap:butt;stroke-linejoin:miter;stroke-opacity:1"/>
<ellipse cx="175.7" cy="131.5" rx="6.3" ry="6.3" class="atom-11" style="fill:#FF0000;fill-rule:evenodd;stroke:#FF0000;stroke-width:1.0px;stroke-linecap:butt;stroke-linejoin:miter;stroke-opacity:1"/>
<ellipse cx="193.8" cy="141.9" rx="6.3" ry="6.3" class="atom-12" style="fill:#FF0000;fill-rule:evenodd;stroke:#FF0000;stroke-width:1.0px;stroke-linecap:butt;stroke-linejoin:miter;stroke-opacity:1"/>
<ellipse cx="211.9" cy="131.4" rx="6.3" ry="6.3" class="atom-13" style="fill:#FF0000;fill-rule:evenodd;stroke:#FF0000;stroke-width:1.0px;stroke-linecap:butt;stroke-linejoin:miter;stroke-opacity:1"/>
<ellipse cx="229.9" cy="141.8" rx="6.3" ry="6.3" class="atom-14" style="fill:#FF0000;fill-rule:evenodd;stroke:#FF0000;stroke-width:1.0px;stroke-linecap:butt;stroke-linejoin:miter;stroke-opacity:1"/>
<ellipse cx="248.0" cy="131.4" rx="6.3" ry="6.3" class="atom-15" style="fill:#FF0000;fill-rule:evenodd;stroke:#FF0000;stroke-width:1.0px;stroke-linecap:butt;stroke-linejoin:miter;stroke-opacity:1"/>
<ellipse cx="266.0" cy="141.8" rx="6.3" ry="6.3" class="atom-16" style="fill:#FF0000;fill-rule:evenodd;stroke:#FF0000;stroke-width:1.0px;stroke-linecap:butt;stroke-linejoin:miter;stroke-opacity:1"/>
<ellipse cx="284.1" cy="131.4" rx="6.3" ry="6.3" class="atom-17" style="fill:#FF0000;fill-rule:evenodd;stroke:#FF0000;stroke-width:1.0px;stroke-linecap:butt;stroke-linejoin:miter;stroke-opacity:1"/>
<ellipse cx="302.2" cy="141.8" rx="6.3" ry="6.3" class="atom-18" style="fill:#FF0000;fill-rule:evenodd;stroke:#FF0000;stroke-width:1.0px;stroke-linecap:butt;stroke-linejoin:miter;stroke-opacity:1"/>
<ellipse cx="320.2" cy="131.3" rx="6.3" ry="6.3" class="atom-19" style="fill:#FF0000;fill-rule:evenodd;stroke:#FF0000;stroke-width:1.0px;stroke-linecap:butt;stroke-linejoin:miter;stroke-opacity:1"/>
<ellipse cx="338.3" cy="141.8" rx="6.3" ry="6.3" class="atom-20" style="fill:#FF0000;fill-rule:evenodd;stroke:#FF0000;stroke-width:1.0px;stroke-linecap:butt;stroke-linejoin:miter;stroke-opacity:1"/>
<ellipse cx="103.5" cy="110.6" rx="6.3" ry="6.3" class="atom-34" style="fill:#FF0000;fill-rule:evenodd;stroke:#FF0000;stroke-width:1.0px;stroke-linecap:butt;stroke-linejoin:miter;stroke-opacity:1"/>
<ellipse cx="85.4" cy="100.3" rx="6.3" ry="6.3" class="atom-35" style="fill:#FF0000;fill-rule:evenodd;stroke:#FF0000;stroke-width:1.0px;stroke-linecap:butt;stroke-linejoin:miter;stroke-opacity:1"/>
<path class="bond-0 atom-0 atom-1" d="M 49.3,79.4 L 49.3,87.3" style="fill:none;fill-rule:evenodd;stroke:#000000;stroke-width:2.0px;stroke-linecap:butt;stroke-linejoin:miter;stroke-opacity:1"/>
<path class="bond-0 atom-0 atom-1" d="M 49.3,87.3 L 49.3,95.2" style="fill:none;fill-rule:evenodd;stroke:#0000FF;stroke-width:2.0px;stroke-linecap:butt;stroke-linejoin:miter;stroke-opacity:1"/>
<path class="bond-1 atom-1 atom-2" d="M 45.3,102.6 L 38.3,106.7" style="fill:none;fill-rule:evenodd;stroke:#0000FF;stroke-width:2.0px;stroke-linecap:butt;stroke-linejoin:miter;stroke-opacity:1"/>
<path class="bond-1 atom-1 atom-2" d="M 38.3,106.7 L 31.3,110.7" style="fill:none;fill-rule:evenodd;stroke:#000000;stroke-width:2.0px;stroke-linecap:butt;stroke-linejoin:miter;stroke-opacity:1"/>
<path class="bond-2 atom-1 atom-3" d="M 53.4,102.6 L 60.4,106.6" style="fill:none;fill-rule:evenodd;stroke:#0000FF;stroke-width:2.0px;stroke-linecap:butt;stroke-linejoin:miter;stroke-opacity:1"/>
<path class="bond-2 atom-1 atom-3" d="M 60.4,106.6 L 67.4,110.7" style="fill:none;fill-rule:evenodd;stroke:#000000;stroke-width:2.0px;stroke-linecap:butt;stroke-linejoin:miter;stroke-opacity:1"/>
<path class="bond-3 atom-3 atom-4" d="M 67.4,110.7 L 67.4,131.6" style="fill:none;fill-rule:evenodd;stroke:#000000;stroke-width:2.0px;stroke-linecap:butt;stroke-linejoin:miter;stroke-opacity:1"/>
<path class="bond-3 atom-3 atom-4" d="M 70.5,112.5 L 70.5,129.8" style="fill:none;fill-rule:evenodd;stroke:#000000;stroke-width:2.0px;stroke-linecap:butt;stroke-linejoin:miter;stroke-opacity:1"/>
<path class="bond-4 atom-4 atom-5" d="M 67.4,131.6 L 85.5,141.9" style="fill:none;fill-rule:evenodd;stroke:#000000;stroke-width:2.0px;stroke-linecap:butt;stroke-linejoin:miter;stroke-opacity:1"/>
<path class="bond-5 atom-5 atom-6" d="M 85.5,141.9 L 103.5,131.5" style="fill:none;fill-rule:evenodd;stroke:#000000;stroke-width:2.0px;stroke-linecap:butt;stroke-linejoin:miter;stroke-opacity:1"/>
<path class="bond-5 atom-5 atom-6" d="M 85.5,138.3 L 100.4,129.7" style="fill:none;fill-rule:evenodd;stroke:#000000;stroke-width:2.0px;stroke-linecap:butt;stroke-linejoin:miter;stroke-opacity:1"/>
<path class="bond-6 atom-6 atom-7" d="M 103.5,131.5 L 121.6,141.9" style="fill:none;fill-rule:evenodd;stroke:#000000;stroke-width:2.0px;stroke-linecap:butt;stroke-linejoin:miter;stroke-opacity:1"/>
<path class="bond-7 atom-7 atom-8" d="M 121.6,141.9 L 139.6,131.5" style="fill:none;fill-rule:evenodd;stroke:#000000;stroke-width:2.0px;stroke-linecap:butt;stroke-linejoin:miter;stroke-opacity:1"/>
<path class="bond-8 atom-8 atom-9" d="M 141.2,132.4 L 141.2,124.2" style="fill:none;fill-rule:evenodd;stroke:#000000;stroke-width:2.0px;stroke-linecap:butt;stroke-linejoin:miter;stroke-opacity:1"/>
<path class="bond-8 atom-8 atom-9" d="M 141.2,124.2 L 141.2,115.9" style="fill:none;fill-rule:evenodd;stroke:#FF0000;stroke-width:2.0px;stroke-linecap:butt;stroke-linejoin:miter;stroke-opacity:1"/>
<path class="bond-8 atom-8 atom-9" d="M 138.1,132.4 L 138.1,124.2" style="fill:none;fill-rule:evenodd;stroke:#000000;stroke-width:2.0px;stroke-linecap:butt;stroke-linejoin:miter;stroke-opacity:1"/>
<path class="bond-8 atom-8 atom-9" d="M 138.1,124.2 L 138.0,115.9" style="fill:none;fill-rule:evenodd;stroke:#FF0000;stroke-width:2.0px;stroke-linecap:butt;stroke-linejoin:miter;stroke-opacity:1"/>
<path class="bond-9 atom-8 atom-10" d="M 139.6,131.5 L 146.6,135.5" style="fill:none;fill-rule:evenodd;stroke:#000000;stroke-width:2.0px;stroke-linecap:butt;stroke-linejoin:miter;stroke-opacity:1"/>
<path class="bond-9 atom-8 atom-10" d="M 146.6,135.5 L 153.6,139.6" style="fill:none;fill-rule:evenodd;stroke:#0000FF;stroke-width:2.0px;stroke-linecap:butt;stroke-linejoin:miter;stroke-opacity:1"/>
<path class="bond-10 atom-10 atom-11" d="M 161.7,139.6 L 168.7,135.5" style="fill:none;fill-rule:evenodd;stroke:#0000FF;stroke-width:2.0px;stroke-linecap:butt;stroke-linejoin:miter;stroke-opacity:1"/>
<path class="bond-10 atom-10 atom-11" d="M 168.7,135.5 L 175.7,131.5" style="fill:none;fill-rule:evenodd;stroke:#000000;stroke-width:2.0px;stroke-linecap:butt;stroke-linejoin:miter;stroke-opacity:1"/>
<path class="bond-11 atom-11 atom-12" d="M 175.7,131.5 L 193.8,141.9" style="fill:none;fill-rule:evenodd;stroke:#000000;stroke-width:2.0px;stroke-linecap:butt;stroke-linejoin:miter;stroke-opacity:1"/>
<path class="bond-12 atom-12 atom-13" d="M 193.8,141.9 L 211.9,131.4" style="fill:none;fill-rule:evenodd;stroke:#000000;stroke-width:2.0px;stroke-linecap:butt;stroke-linejoin:miter;stroke-opacity:1"/>
<path class="bond-13 atom-13 atom-14" d="M 211.9,131.4 L 229.9,141.8" style="fill:none;fill-rule:evenodd;stroke:#000000;stroke-width:2.0px;stroke-linecap:butt;stroke-linejoin:miter;stroke-opacity:1"/>
<path class="bond-14 atom-14 atom-15" d="M 229.9,141.8 L 248.0,131.4" style="fill:none;fill-rule:evenodd;stroke:#000000;stroke-width:2.0px;stroke-linecap:butt;stroke-linejoin:miter;stroke-opacity:1"/>
<path class="bond-15 atom-15 atom-16" d="M 248.0,131.4 L 266.0,141.8" style="fill:none;fill-rule:evenodd;stroke:#000000;stroke-width:2.0px;stroke-linecap:butt;stroke-linejoin:miter;stroke-opacity:1"/>
<path class="bond-16 atom-16 atom-17" d="M 266.0,141.8 L 284.1,131.4" style="fill:none;fill-rule:evenodd;stroke:#000000;stroke-width:2.0px;stroke-linecap:butt;stroke-linejoin:miter;stroke-opacity:1"/>
<path class="bond-17 atom-17 atom-18" d="M 284.1,131.4 L 302.2,141.8" style="fill:none;fill-rule:evenodd;stroke:#000000;stroke-width:2.0px;stroke-linecap:butt;stroke-linejoin:miter;stroke-opacity:1"/>
<path class="bond-18 atom-18 atom-19" d="M 302.2,141.8 L 320.2,131.3" style="fill:none;fill-rule:evenodd;stroke:#000000;stroke-width:2.0px;stroke-linecap:butt;stroke-linejoin:miter;stroke-opacity:1"/>
<path class="bond-19 atom-19 atom-20" d="M 320.2,131.3 L 338.3,141.8" style="fill:none;fill-rule:evenodd;stroke:#000000;stroke-width:2.0px;stroke-linecap:butt;stroke-linejoin:miter;stroke-opacity:1"/>
<path class="bond-20 atom-20 atom-21" d="M 338.3,141.8 L 356.3,131.3" style="fill:none;fill-rule:evenodd;stroke:#000000;stroke-width:2.0px;stroke-linecap:butt;stroke-linejoin:miter;stroke-opacity:1"/>
<path class="bond-21 atom-21 atom-22" d="M 356.3,131.3 L 374.4,141.7" style="fill:none;fill-rule:evenodd;stroke:#000000;stroke-width:2.0px;stroke-linecap:butt;stroke-linejoin:miter;stroke-opacity:1"/>
<path class="bond-22 atom-22 atom-23" d="M 374.4,141.7 L 381.4,137.7" style="fill:none;fill-rule:evenodd;stroke:#000000;stroke-width:2.0px;stroke-linecap:butt;stroke-linejoin:miter;stroke-opacity:1"/>
<path class="bond-22 atom-22 atom-23" d="M 381.4,137.7 L 388.4,133.6" style="fill:none;fill-rule:evenodd;stroke:#0000FF;stroke-width:2.0px;stroke-linecap:butt;stroke-linejoin:miter;stroke-opacity:1"/>
<path class="bond-23 atom-23 atom-24" d="M 396.5,133.6 L 403.5,137.6" style="fill:none;fill-rule:evenodd;stroke:#0000FF;stroke-width:2.0px;stroke-linecap:butt;stroke-linejoin:miter;stroke-opacity:1"/>
<path class="bond-23 atom-23 atom-24" d="M 403.5,137.6 L 410.5,141.7" style="fill:none;fill-rule:evenodd;stroke:#000000;stroke-width:2.0px;stroke-linecap:butt;stroke-linejoin:miter;stroke-opacity:1"/>
<path class="bond-24 atom-24 atom-25" d="M 410.5,141.7 L 406.6,162.2" style="fill:none;fill-rule:evenodd;stroke:#000000;stroke-width:2.0px;stroke-linecap:butt;stroke-linejoin:miter;stroke-opacity:1"/>
<path class="bond-25 atom-25 atom-26" d="M 406.6,162.2 L 426.2,173.4" style="fill:none;fill-rule:evenodd;stroke:#000000;stroke-width:2.0px;stroke-linecap:butt;stroke-linejoin:miter;stroke-opacity:1"/>
<path class="bond-26 atom-26 atom-27" d="M 426.2,173.4 L 441.9,159.7" style="fill:none;fill-rule:evenodd;stroke:#000000;stroke-width:2.0px;stroke-linecap:butt;stroke-linejoin:miter;stroke-opacity:1"/>
<path class="bond-27 atom-27 atom-28" d="M 441.9,159.7 L 445.7,139.4" style="fill:none;fill-rule:evenodd;stroke:#000000;stroke-width:2.0px;stroke-linecap:butt;stroke-linejoin:miter;stroke-opacity:1"/>
<path class="bond-28 atom-28 atom-29" d="M 445.7,139.4 L 426.2,128.2" style="fill:none;fill-rule:evenodd;stroke:#000000;stroke-width:2.0px;stroke-linecap:butt;stroke-linejoin:miter;stroke-opacity:1"/>
<path class="bond-29 atom-28 atom-30" d="M 445.7,139.4 L 464.6,137.1" style="fill:none;fill-rule:evenodd;stroke:#000000;stroke-width:2.0px;stroke-linecap:butt;stroke-linejoin:miter;stroke-opacity:1"/>
<path class="bond-30 atom-30 atom-31" d="M 464.6,137.1 L 448.9,150.8" style="fill:none;fill-rule:evenodd;stroke:#000000;stroke-width:2.0px;stroke-linecap:butt;stroke-linejoin:miter;stroke-opacity:1"/>
<path class="bond-31 atom-31 atom-32" d="M 448.9,150.8 L 429.2,139.4" style="fill:none;fill-rule:evenodd;stroke:#000000;stroke-width:2.0px;stroke-linecap:butt;stroke-linejoin:miter;stroke-opacity:1"/>
<path class="bond-32 atom-31 atom-33" d="M 448.9,150.8 L 445.0,171.4" style="fill:none;fill-rule:evenodd;stroke:#000000;stroke-width:2.0px;stroke-linecap:butt;stroke-linejoin:miter;stroke-opacity:1"/>
<path class="bond-33 atom-6 atom-34" d="M 103.5,131.5 L 103.5,110.6" style="fill:none;fill-rule:evenodd;stroke:#000000;stroke-width:2.0px;stroke-linecap:butt;stroke-linejoin:miter;stroke-opacity:1"/>
<path class="bond-34 atom-34 atom-35" d="M 103.5,110.6 L 85.4,100.3" style="fill:none;fill-rule:evenodd;stroke:#000000;stroke-width:2.0px;stroke-linecap:butt;stroke-linejoin:miter;stroke-opacity:1"/>
<path class="bond-34 atom-34 atom-35" d="M 100.4,112.4 L 85.4,103.9" style="fill:none;fill-rule:evenodd;stroke:#000000;stroke-width:2.0px;stroke-linecap:butt;stroke-linejoin:miter;stroke-opacity:1"/>
<path class="bond-35 atom-35 atom-3" d="M 85.4,100.3 L 67.4,110.7" style="fill:none;fill-rule:evenodd;stroke:#000000;stroke-width:2.0px;stroke-linecap:butt;stroke-linejoin:miter;stroke-opacity:1"/>
<path class="bond-36 atom-29 atom-24" d="M 426.2,128.2 L 410.5,141.7" style="fill:none;fill-rule:evenodd;stroke:#000000;stroke-width:2.0px;stroke-linecap:butt;stroke-linejoin:miter;stroke-opacity:1"/>
<path class="bond-37 atom-32 atom-24" d="M 429.2,139.4 L 410.5,141.7" style="fill:none;fill-rule:evenodd;stroke:#000000;stroke-width:2.0px;stroke-linecap:butt;stroke-linejoin:miter;stroke-opacity:1"/>
<path class="bond-38 atom-33 atom-26" d="M 445.0,171.4 L 426.2,173.4" style="fill:none;fill-rule:evenodd;stroke:#000000;stroke-width:2.0px;stroke-linecap:butt;stroke-linejoin:miter;stroke-opacity:1"/>
<path d="M 67.4,130.5 L 67.4,131.6 L 68.3,132.1" style="fill:none;stroke:#000000;stroke-width:2.0px;stroke-linecap:butt;stroke-linejoin:miter;stroke-opacity:1;"/>
<path d="M 84.6,141.4 L 85.5,141.9 L 86.4,141.4" style="fill:none;stroke:#000000;stroke-width:2.0px;stroke-linecap:butt;stroke-linejoin:miter;stroke-opacity:1;"/>
<path d="M 120.7,141.4 L 121.6,141.9 L 122.5,141.4" style="fill:none;stroke:#000000;stroke-width:2.0px;stroke-linecap:butt;stroke-linejoin:miter;stroke-opacity:1;"/>
<path d="M 138.7,132.0 L 139.6,131.5 L 140.0,131.7" style="fill:none;stroke:#000000;stroke-width:2.0px;stroke-linecap:butt;stroke-linejoin:miter;stroke-opacity:1;"/>
<path d="M 175.4,131.7 L 175.7,131.5 L 176.6,132.0" style="fill:none;stroke:#000000;stroke-width:2.0px;stroke-linecap:butt;stroke-linejoin:miter;stroke-opacity:1;"/>
<path d="M 192.9,141.3 L 193.8,141.9 L 194.7,141.3" style="fill:none;stroke:#000000;stroke-width:2.0px;stroke-linecap:butt;stroke-linejoin:miter;stroke-opacity:1;"/>
<path d="M 211.0,132.0 L 211.9,131.4 L 212.8,132.0" style="fill:none;stroke:#000000;stroke-width:2.0px;stroke-linecap:butt;stroke-linejoin:miter;stroke-opacity:1;"/>
<path d="M 229.0,141.3 L 229.9,141.8 L 230.8,141.3" style="fill:none;stroke:#000000;stroke-width:2.0px;stroke-linecap:butt;stroke-linejoin:miter;stroke-opacity:1;"/>
<path d="M 247.1,131.9 L 248.0,131.4 L 248.9,131.9" style="fill:none;stroke:#000000;stroke-width:2.0px;stroke-linecap:butt;stroke-linejoin:miter;stroke-opacity:1;"/>
<path d="M 265.1,141.3 L 266.0,141.8 L 266.9,141.3" style="fill:none;stroke:#000000;stroke-width:2.0px;stroke-linecap:butt;stroke-linejoin:miter;stroke-opacity:1;"/>
<path d="M 283.2,131.9 L 284.1,131.4 L 285.0,131.9" style="fill:none;stroke:#000000;stroke-width:2.0px;stroke-linecap:butt;stroke-linejoin:miter;stroke-opacity:1;"/>
<path d="M 301.3,141.3 L 302.2,141.8 L 303.1,141.3" style="fill:none;stroke:#000000;stroke-width:2.0px;stroke-linecap:butt;stroke-linejoin:miter;stroke-opacity:1;"/>
<path d="M 319.3,131.9 L 320.2,131.3 L 321.1,131.9" style="fill:none;stroke:#000000;stroke-width:2.0px;stroke-linecap:butt;stroke-linejoin:miter;stroke-opacity:1;"/>
<path d="M 337.4,141.2 L 338.3,141.8 L 339.2,141.2" style="fill:none;stroke:#000000;stroke-width:2.0px;stroke-linecap:butt;stroke-linejoin:miter;stroke-opacity:1;"/>
<path d="M 355.4,131.8 L 356.3,131.3 L 357.2,131.8" style="fill:none;stroke:#000000;stroke-width:2.0px;stroke-linecap:butt;stroke-linejoin:miter;stroke-opacity:1;"/>
<path d="M 373.5,141.2 L 374.4,141.7 L 374.7,141.5" style="fill:none;stroke:#000000;stroke-width:2.0px;stroke-linecap:butt;stroke-linejoin:miter;stroke-opacity:1;"/>
<path d="M 406.8,161.1 L 406.6,162.2 L 407.6,162.7" style="fill:none;stroke:#000000;stroke-width:2.0px;stroke-linecap:butt;stroke-linejoin:miter;stroke-opacity:1;"/>
<path d="M 441.1,160.4 L 441.9,159.7 L 442.1,158.7" style="fill:none;stroke:#000000;stroke-width:2.0px;stroke-linecap:butt;stroke-linejoin:miter;stroke-opacity:1;"/>
<path d="M 427.1,128.7 L 426.2,128.2 L 425.4,128.8" style="fill:none;stroke:#000000;stroke-width:2.0px;stroke-linecap:butt;stroke-linejoin:miter;stroke-opacity:1;"/>
<path d="M 463.7,137.2 L 464.6,137.1 L 463.9,137.8" style="fill:none;stroke:#000000;stroke-width:2.0px;stroke-linecap:butt;stroke-linejoin:miter;stroke-opacity:1;"/>
<path d="M 430.2,140.0 L 429.2,139.4 L 428.3,139.5" style="fill:none;stroke:#000000;stroke-width:2.0px;stroke-linecap:butt;stroke-linejoin:miter;stroke-opacity:1;"/>
<path d="M 445.2,170.3 L 445.0,171.4 L 444.1,171.5" style="fill:none;stroke:#000000;stroke-width:2.0px;stroke-linecap:butt;stroke-linejoin:miter;stroke-opacity:1;"/>
<path d="M 103.5,111.7 L 103.5,110.6 L 102.6,110.1" style="fill:none;stroke:#000000;stroke-width:2.0px;stroke-linecap:butt;stroke-linejoin:miter;stroke-opacity:1;"/>
<path d="M 86.3,100.8 L 85.4,100.3 L 84.5,100.8" style="fill:none;stroke:#000000;stroke-width:2.0px;stroke-linecap:butt;stroke-linejoin:miter;stroke-opacity:1;"/>
<path class="atom-1" d="M 47.3 95.8 L 50.2 100.5 Q 50.5 101.0, 51.0 101.8 Q 51.5 102.7, 51.5 102.7 L 51.5 95.8 L 52.7 95.8 L 52.7 104.7 L 51.5 104.7 L 48.3 99.6 Q 48.0 99.0, 47.6 98.3 Q 47.2 97.6, 47.1 97.4 L 47.1 104.7 L 45.9 104.7 L 45.9 95.8 L 47.3 95.8 " fill="#0000FF"/>
<path class="atom-9" d="M 135.5 110.7 Q 135.5 108.5, 136.6 107.3 Q 137.6 106.2, 139.6 106.2 Q 141.6 106.2, 142.6 107.3 Q 143.7 108.5, 143.7 110.7 Q 143.7 112.8, 142.6 114.0 Q 141.5 115.3, 139.6 115.3 Q 137.7 115.3, 136.6 114.0 Q 135.5 112.8, 135.5 110.7 M 139.6 114.3 Q 141.0 114.3, 141.7 113.4 Q 142.4 112.4, 142.4 110.7 Q 142.4 108.9, 141.7 108.1 Q 141.0 107.2, 139.6 107.2 Q 138.3 107.2, 137.5 108.0 Q 136.8 108.9, 136.8 110.7 Q 136.8 112.5, 137.5 113.4 Q 138.3 114.3, 139.6 114.3 " fill="#FF0000"/>
<path class="atom-10" d="M 155.7 137.5 L 158.6 142.2 Q 158.9 142.6, 159.4 143.5 Q 159.8 144.3, 159.9 144.4 L 159.9 137.5 L 161.1 137.5 L 161.1 146.3 L 159.8 146.3 L 156.7 141.2 Q 156.4 140.6, 156.0 139.9 Q 155.6 139.2, 155.5 139.0 L 155.5 146.3 L 154.3 146.3 L 154.3 137.5 L 155.7 137.5 " fill="#0000FF"/>
<path class="atom-10" d="M 154.2 147.2 L 155.4 147.2 L 155.4 151.0 L 160.0 151.0 L 160.0 147.2 L 161.2 147.2 L 161.2 156.1 L 160.0 156.1 L 160.0 152.0 L 155.4 152.0 L 155.4 156.1 L 154.2 156.1 L 154.2 147.2 " fill="#0000FF"/>
<path class="atom-23" d="M 390.5 126.8 L 393.4 131.5 Q 393.7 132.0, 394.1 132.8 Q 394.6 133.7, 394.6 133.7 L 394.6 126.8 L 395.8 126.8 L 395.8 135.7 L 394.6 135.7 L 391.5 130.6 Q 391.1 130.0, 390.7 129.3 Q 390.3 128.6, 390.2 128.4 L 390.2 135.7 L 389.1 135.7 L 389.1 126.8 L 390.5 126.8 " fill="#0000FF"/>
<path class="atom-23" d="M 389.0 117.1 L 390.2 117.1 L 390.2 120.9 L 394.7 120.9 L 394.7 117.1 L 395.9 117.1 L 395.9 125.9 L 394.7 125.9 L 394.7 121.9 L 390.2 121.9 L 390.2 125.9 L 389.0 125.9 L 389.0 117.1 " fill="#0000FF"/>
</svg>