<svg xmlns="http://www.w3.org/2000/svg" xmlns:rdkit="http://www.rdkit.org/xml" xmlns:xlink="http://www.w3.org/1999/xlink" version="1.1" baseProfile="full" xml:space="preserve" width="450px" height="450px" viewBox="0 0 450 450">
<!-- END OF HEADER -->
<rect style="opacity:1.0;fill:#FFFFFF;stroke:none" width="450.0" height="450.0" x="0.0" y="0.0"> </rect>
<path class="bond-0 atom-0 atom-1" d="M 252.9,164.2 L 252.9,212.8 L 239.3,212.8 L 239.3,164.2 Z" style="fill:#FFFFAA;fill-rule:evenodd;fill-opacity:1;stroke:#FFFFAA;stroke-width:2.0px;stroke-linecap:butt;stroke-linejoin:miter;stroke-miterlimit:10;stroke-opacity:1;"/>
<path class="bond-1 atom-1 atom-2" d="M 249.5,218.7 L 207.3,243.1 L 200.5,231.3 L 242.7,206.9 Z" style="fill:#FFFFAA;fill-rule:evenodd;fill-opacity:1;stroke:#FFFFAA;stroke-width:2.0px;stroke-linecap:butt;stroke-linejoin:miter;stroke-miterlimit:10;stroke-opacity:1;"/>
<path class="bond-2 atom-2 atom-3" d="M 210.7,237.2 L 210.7,285.8 L 197.1,285.8 L 197.1,237.2 Z" style="fill:#FFFFAA;fill-rule:evenodd;fill-opacity:1;stroke:#FFFFAA;stroke-width:2.0px;stroke-linecap:butt;stroke-linejoin:miter;stroke-miterlimit:10;stroke-opacity:1;"/>
<path class="bond-4 atom-4 atom-5" d="M 155.0,212.8 L 155.0,164.2 L 168.6,164.2 L 168.6,212.8 Z" style="fill:#FFCC99;fill-rule:evenodd;fill-opacity:1;stroke:#FFCC99;stroke-width:2.0px;stroke-linecap:butt;stroke-linejoin:miter;stroke-miterlimit:10;stroke-opacity:1;"/>
<path class="bond-6 atom-6 atom-0" d="M 207.3,134.0 L 249.5,158.3 L 242.7,170.1 L 200.5,145.8 Z" style="fill:#FFFFAA;fill-rule:evenodd;fill-opacity:1;stroke:#FFFFAA;stroke-width:2.0px;stroke-linecap:butt;stroke-linejoin:miter;stroke-miterlimit:10;stroke-opacity:1;"/>
<path class="bond-7 atom-7 atom-1" d="M 284.8,243.1 L 242.7,218.7 L 249.5,206.9 L 291.6,231.3 Z" style="fill:#FFFFAA;fill-rule:evenodd;fill-opacity:1;stroke:#FFFFAA;stroke-width:2.0px;stroke-linecap:butt;stroke-linejoin:miter;stroke-miterlimit:10;stroke-opacity:1;"/>
<path class="bond-8 atom-8 atom-7" d="M 333.7,218.7 L 291.6,243.1 L 284.8,231.3 L 326.9,206.9 Z" style="fill:#FFFFAA;fill-rule:evenodd;fill-opacity:1;stroke:#FFFFAA;stroke-width:2.0px;stroke-linecap:butt;stroke-linejoin:miter;stroke-miterlimit:10;stroke-opacity:1;"/>
<path class="bond-9 atom-9 atom-8" d="M 337.1,164.2 L 337.1,212.8 L 323.5,212.8 L 323.5,164.2 Z" style="fill:#FFFFAA;fill-rule:evenodd;fill-opacity:1;stroke:#FFFFAA;stroke-width:2.0px;stroke-linecap:butt;stroke-linejoin:miter;stroke-miterlimit:10;stroke-opacity:1;"/>
<path class="bond-10 atom-10 atom-9" d="M 291.6,134.0 L 333.7,158.3 L 326.9,170.1 L 284.8,145.8 Z" style="fill:#FFFFAA;fill-rule:evenodd;fill-opacity:1;stroke:#FFFFAA;stroke-width:2.0px;stroke-linecap:butt;stroke-linejoin:miter;stroke-miterlimit:10;stroke-opacity:1;"/>
<path class="bond-11 atom-9 atom-11" d="M 326.9,158.3 L 369.0,134.0 L 375.8,145.8 L 333.7,170.1 Z" style="fill:#FFFFAA;fill-rule:evenodd;fill-opacity:1;stroke:#FFFFAA;stroke-width:2.0px;stroke-linecap:butt;stroke-linejoin:miter;stroke-miterlimit:10;stroke-opacity:1;"/>
<path class="bond-12 atom-0 atom-10" d="M 242.7,158.3 L 284.8,134.0 L 291.6,145.8 L 249.5,170.1 Z" style="fill:#FFFFAA;fill-rule:evenodd;fill-opacity:1;stroke:#FFFFAA;stroke-width:2.0px;stroke-linecap:butt;stroke-linejoin:miter;stroke-miterlimit:10;stroke-opacity:1;"/>
<path class="bond-13 atom-11 atom-12" d="M 375.8,134.0 L 417.9,158.3 L 411.1,170.1 L 369.0,145.8 Z" style="fill:#FFFFAA;fill-rule:evenodd;fill-opacity:1;stroke:#FFFFAA;stroke-width:2.0px;stroke-linecap:butt;stroke-linejoin:miter;stroke-miterlimit:10;stroke-opacity:1;"/>
<path class="bond-14 atom-4 atom-13" d="M 165.2,218.7 L 123.1,243.1 L 116.3,231.3 L 158.4,206.9 Z" style="fill:#FFCC99;fill-rule:evenodd;fill-opacity:1;stroke:#FFCC99;stroke-width:2.0px;stroke-linecap:butt;stroke-linejoin:miter;stroke-miterlimit:10;stroke-opacity:1;"/>
<path class="bond-15 atom-13 atom-14" d="M 116.3,243.1 L 74.2,218.7 L 81.0,206.9 L 123.1,231.3 Z" style="fill:#FFCC99;fill-rule:evenodd;fill-opacity:1;stroke:#FFCC99;stroke-width:2.0px;stroke-linecap:butt;stroke-linejoin:miter;stroke-miterlimit:10;stroke-opacity:1;"/>
<path class="bond-16 atom-15 atom-13" d="M 112.9,285.8 L 112.9,237.2 L 126.5,237.2 L 126.5,285.8 Z" style="fill:#FFCC99;fill-rule:evenodd;fill-opacity:1;stroke:#FFCC99;stroke-width:2.0px;stroke-linecap:butt;stroke-linejoin:miter;stroke-miterlimit:10;stroke-opacity:1;"/>
<path class="bond-17 atom-14 atom-16" d="M 81.0,218.7 L 38.9,243.1 L 32.1,231.3 L 74.2,206.9 Z" style="fill:#FFCC99;fill-rule:evenodd;fill-opacity:1;stroke:#FFCC99;stroke-width:2.0px;stroke-linecap:butt;stroke-linejoin:miter;stroke-miterlimit:10;stroke-opacity:1;"/>
<path class="bond-18 atom-17 atom-15" d="M 74.2,304.2 L 116.3,279.9 L 123.1,291.7 L 81.0,316.0 Z" style="fill:#FFCC99;fill-rule:evenodd;fill-opacity:1;stroke:#FFCC99;stroke-width:2.0px;stroke-linecap:butt;stroke-linejoin:miter;stroke-miterlimit:10;stroke-opacity:1;"/>
<path class="bond-19 atom-16 atom-18" d="M 42.3,237.2 L 42.3,285.8 L 28.7,285.8 L 28.7,237.2 Z" style="fill:#FFCC99;fill-rule:evenodd;fill-opacity:1;stroke:#FFCC99;stroke-width:2.0px;stroke-linecap:butt;stroke-linejoin:miter;stroke-miterlimit:10;stroke-opacity:1;"/>
<path class="bond-20 atom-18 atom-17" d="M 38.9,279.9 L 81.0,304.2 L 74.2,316.0 L 32.1,291.7 Z" style="fill:#FFCC99;fill-rule:evenodd;fill-opacity:1;stroke:#FFCC99;stroke-width:2.0px;stroke-linecap:butt;stroke-linejoin:miter;stroke-miterlimit:10;stroke-opacity:1;"/>
<ellipse cx="246.1" cy="164.2" rx="13.0" ry="13.0" class="atom-0" style="fill:#FFFFAA;fill-rule:evenodd;stroke:#FFFFAA;stroke-width:1.0px;stroke-linecap:butt;stroke-linejoin:miter;stroke-opacity:1"/>
<ellipse cx="246.1" cy="212.8" rx="13.0" ry="13.0" class="atom-1" style="fill:#FFFFAA;fill-rule:evenodd;stroke:#FFFFAA;stroke-width:1.0px;stroke-linecap:butt;stroke-linejoin:miter;stroke-opacity:1"/>
<ellipse cx="203.9" cy="237.2" rx="13.0" ry="13.0" class="atom-2" style="fill:#FFFFAA;fill-rule:evenodd;stroke:#FFFFAA;stroke-width:1.0px;stroke-linecap:butt;stroke-linejoin:miter;stroke-opacity:1"/>
<ellipse cx="203.9" cy="285.9" rx="13.0" ry="13.0" class="atom-3" style="fill:#FFFFAA;fill-rule:evenodd;stroke:#FFFFAA;stroke-width:1.0px;stroke-linecap:butt;stroke-linejoin:miter;stroke-opacity:1"/>
<ellipse cx="161.8" cy="212.8" rx="13.0" ry="13.0" class="atom-4" style="fill:#FFCC99;fill-rule:evenodd;stroke:#FFCC99;stroke-width:1.0px;stroke-linecap:butt;stroke-linejoin:miter;stroke-opacity:1"/>
<ellipse cx="161.8" cy="164.2" rx="13.0" ry="13.0" class="atom-5" style="fill:#FFCC99;fill-rule:evenodd;stroke:#FFCC99;stroke-width:1.0px;stroke-linecap:butt;stroke-linejoin:miter;stroke-opacity:1"/>
<ellipse cx="203.9" cy="139.9" rx="13.0" ry="13.0" class="atom-6" style="fill:#FFFFAA;fill-rule:evenodd;stroke:#FFFFAA;stroke-width:1.0px;stroke-linecap:butt;stroke-linejoin:miter;stroke-opacity:1"/>
<ellipse cx="288.2" cy="237.2" rx="13.0" ry="13.0" class="atom-7" style="fill:#FFFFAA;fill-rule:evenodd;stroke:#FFFFAA;stroke-width:1.0px;stroke-linecap:butt;stroke-linejoin:miter;stroke-opacity:1"/>
<ellipse cx="330.3" cy="212.8" rx="13.0" ry="13.0" class="atom-8" style="fill:#FFFFAA;fill-rule:evenodd;stroke:#FFFFAA;stroke-width:1.0px;stroke-linecap:butt;stroke-linejoin:miter;stroke-opacity:1"/>
<ellipse cx="330.3" cy="164.2" rx="13.0" ry="13.0" class="atom-9" style="fill:#FFFFAA;fill-rule:evenodd;stroke:#FFFFAA;stroke-width:1.0px;stroke-linecap:butt;stroke-linejoin:miter;stroke-opacity:1"/>
<ellipse cx="288.2" cy="139.9" rx="13.0" ry="13.0" class="atom-10" style="fill:#FFFFAA;fill-rule:evenodd;stroke:#FFFFAA;stroke-width:1.0px;stroke-linecap:butt;stroke-linejoin:miter;stroke-opacity:1"/>
<ellipse cx="372.4" cy="139.9" rx="13.0" ry="13.0" class="atom-11" style="fill:#FFFFAA;fill-rule:evenodd;stroke:#FFFFAA;stroke-width:1.0px;stroke-linecap:butt;stroke-linejoin:miter;stroke-opacity:1"/>
<ellipse cx="414.5" cy="164.2" rx="13.0" ry="13.0" class="atom-12" style="fill:#FFFFAA;fill-rule:evenodd;stroke:#FFFFAA;stroke-width:1.0px;stroke-linecap:butt;stroke-linejoin:miter;stroke-opacity:1"/>
<ellipse cx="119.7" cy="237.2" rx="13.0" ry="13.0" class="atom-13" style="fill:#FFCC99;fill-rule:evenodd;stroke:#FFCC99;stroke-width:1.0px;stroke-linecap:butt;stroke-linejoin:miter;stroke-opacity:1"/>
<ellipse cx="77.6" cy="212.8" rx="13.0" ry="13.0" class="atom-14" style="fill:#FFCC99;fill-rule:evenodd;stroke:#FFCC99;stroke-width:1.0px;stroke-linecap:butt;stroke-linejoin:miter;stroke-opacity:1"/>
<ellipse cx="119.7" cy="285.8" rx="13.0" ry="13.0" class="atom-15" style="fill:#FFCC99;fill-rule:evenodd;stroke:#FFCC99;stroke-width:1.0px;stroke-linecap:butt;stroke-linejoin:miter;stroke-opacity:1"/>
<ellipse cx="35.5" cy="237.2" rx="13.0" ry="13.0" class="atom-16" style="fill:#FFCC99;fill-rule:evenodd;stroke:#FFCC99;stroke-width:1.0px;stroke-linecap:butt;stroke-linejoin:miter;stroke-opacity:1"/>
<ellipse cx="77.6" cy="310.1" rx="13.0" ry="13.0" class="atom-17" style="fill:#FFCC99;fill-rule:evenodd;stroke:#FFCC99;stroke-width:1.0px;stroke-linecap:butt;stroke-linejoin:miter;stroke-opacity:1"/>
<ellipse cx="35.5" cy="285.8" rx="13.0" ry="13.0" class="atom-18" style="fill:#FFCC99;fill-rule:evenodd;stroke:#FFCC99;stroke-width:1.0px;stroke-linecap:butt;stroke-linejoin:miter;stroke-opacity:1"/>
<path class="bond-0 atom-0 atom-1" d="M 246.1,164.2 L 246.1,212.8" style="fill:none;fill-rule:evenodd;stroke:#000000;stroke-width:2.0px;stroke-linecap:butt;stroke-linejoin:miter;stroke-opacity:1"/>
<path class="bond-0 atom-0 atom-1" d="M 253.4,168.4 L 253.4,208.6" style="fill:none;fill-rule:evenodd;stroke:#000000;stroke-width:2.0px;stroke-linecap:butt;stroke-linejoin:miter;stroke-opacity:1"/>
<path class="bond-1 atom-1 atom-2" d="M 246.1,212.8 L 203.9,237.2" style="fill:none;fill-rule:evenodd;stroke:#000000;stroke-width:2.0px;stroke-linecap:butt;stroke-linejoin:miter;stroke-opacity:1"/>
<path class="bond-2 atom-2 atom-3" d="M 200.3,235.1 L 200.3,256.1" style="fill:none;fill-rule:evenodd;stroke:#000000;stroke-width:2.0px;stroke-linecap:butt;stroke-linejoin:miter;stroke-opacity:1"/>
<path class="bond-2 atom-2 atom-3" d="M 200.3,256.1 L 200.3,277.2" style="fill:none;fill-rule:evenodd;stroke:#FF0000;stroke-width:2.0px;stroke-linecap:butt;stroke-linejoin:miter;stroke-opacity:1"/>
<path class="bond-2 atom-2 atom-3" d="M 207.6,235.1 L 207.6,256.1" style="fill:none;fill-rule:evenodd;stroke:#000000;stroke-width:2.0px;stroke-linecap:butt;stroke-linejoin:miter;stroke-opacity:1"/>
<path class="bond-2 atom-2 atom-3" d="M 207.6,256.1 L 207.6,277.2" style="fill:none;fill-rule:evenodd;stroke:#FF0000;stroke-width:2.0px;stroke-linecap:butt;stroke-linejoin:miter;stroke-opacity:1"/>
<path class="bond-3 atom-2 atom-4" d="M 203.9,237.2 L 186.3,227.0" style="fill:none;fill-rule:evenodd;stroke:#000000;stroke-width:2.0px;stroke-linecap:butt;stroke-linejoin:miter;stroke-opacity:1"/>
<path class="bond-3 atom-2 atom-4" d="M 186.3,227.0 L 168.7,216.8" style="fill:none;fill-rule:evenodd;stroke:#0000FF;stroke-width:2.0px;stroke-linecap:butt;stroke-linejoin:miter;stroke-opacity:1"/>
<path class="bond-4 atom-4 atom-5" d="M 161.8,204.4 L 161.8,184.3" style="fill:none;fill-rule:evenodd;stroke:#0000FF;stroke-width:2.0px;stroke-linecap:butt;stroke-linejoin:miter;stroke-opacity:1"/>
<path class="bond-4 atom-4 atom-5" d="M 161.8,184.3 L 161.8,164.2" style="fill:none;fill-rule:evenodd;stroke:#000000;stroke-width:2.0px;stroke-linecap:butt;stroke-linejoin:miter;stroke-opacity:1"/>
<path class="bond-5 atom-5 atom-6" d="M 161.8,164.2 L 179.5,154.0" style="fill:none;fill-rule:evenodd;stroke:#000000;stroke-width:2.0px;stroke-linecap:butt;stroke-linejoin:miter;stroke-opacity:1"/>
<path class="bond-5 atom-5 atom-6" d="M 179.5,154.0 L 197.1,143.8" style="fill:none;fill-rule:evenodd;stroke:#0000FF;stroke-width:2.0px;stroke-linecap:butt;stroke-linejoin:miter;stroke-opacity:1"/>
<path class="bond-5 atom-5 atom-6" d="M 169.1,168.4 L 184.9,159.3" style="fill:none;fill-rule:evenodd;stroke:#000000;stroke-width:2.0px;stroke-linecap:butt;stroke-linejoin:miter;stroke-opacity:1"/>
<path class="bond-5 atom-5 atom-6" d="M 184.9,159.3 L 200.8,150.2" style="fill:none;fill-rule:evenodd;stroke:#0000FF;stroke-width:2.0px;stroke-linecap:butt;stroke-linejoin:miter;stroke-opacity:1"/>
<path class="bond-6 atom-6 atom-0" d="M 210.8,143.8 L 228.4,154.0" style="fill:none;fill-rule:evenodd;stroke:#0000FF;stroke-width:2.0px;stroke-linecap:butt;stroke-linejoin:miter;stroke-opacity:1"/>
<path class="bond-6 atom-6 atom-0" d="M 228.4,154.0 L 246.1,164.2" style="fill:none;fill-rule:evenodd;stroke:#000000;stroke-width:2.0px;stroke-linecap:butt;stroke-linejoin:miter;stroke-opacity:1"/>
<path class="bond-7 atom-7 atom-1" d="M 288.2,237.2 L 246.1,212.8" style="fill:none;fill-rule:evenodd;stroke:#000000;stroke-width:2.0px;stroke-linecap:butt;stroke-linejoin:miter;stroke-opacity:1"/>
<path class="bond-8 atom-8 atom-7" d="M 330.3,212.8 L 288.2,237.2" style="fill:none;fill-rule:evenodd;stroke:#000000;stroke-width:2.0px;stroke-linecap:butt;stroke-linejoin:miter;stroke-opacity:1"/>
<path class="bond-8 atom-8 atom-7" d="M 323.0,208.6 L 288.2,228.7" style="fill:none;fill-rule:evenodd;stroke:#000000;stroke-width:2.0px;stroke-linecap:butt;stroke-linejoin:miter;stroke-opacity:1"/>
<path class="bond-9 atom-9 atom-8" d="M 330.3,164.2 L 330.3,212.8" style="fill:none;fill-rule:evenodd;stroke:#000000;stroke-width:2.0px;stroke-linecap:butt;stroke-linejoin:miter;stroke-opacity:1"/>
<path class="bond-10 atom-10 atom-9" d="M 288.2,139.9 L 330.3,164.2" style="fill:none;fill-rule:evenodd;stroke:#000000;stroke-width:2.0px;stroke-linecap:butt;stroke-linejoin:miter;stroke-opacity:1"/>
<path class="bond-10 atom-10 atom-9" d="M 288.2,148.3 L 323.0,168.4" style="fill:none;fill-rule:evenodd;stroke:#000000;stroke-width:2.0px;stroke-linecap:butt;stroke-linejoin:miter;stroke-opacity:1"/>
<path class="bond-11 atom-9 atom-11" d="M 330.3,164.2 L 372.4,139.9" style="fill:none;fill-rule:evenodd;stroke:#000000;stroke-width:2.0px;stroke-linecap:butt;stroke-linejoin:miter;stroke-opacity:1"/>
<path class="bond-12 atom-0 atom-10" d="M 246.1,164.2 L 288.2,139.9" style="fill:none;fill-rule:evenodd;stroke:#000000;stroke-width:2.0px;stroke-linecap:butt;stroke-linejoin:miter;stroke-opacity:1"/>
<path class="bond-13 atom-11 atom-12" d="M 372.4,139.9 L 414.5,164.2" style="fill:none;fill-rule:evenodd;stroke:#000000;stroke-width:2.0px;stroke-linecap:butt;stroke-linejoin:miter;stroke-opacity:1"/>
<path class="bond-14 atom-4 atom-13" d="M 155.0,216.8 L 137.3,227.0" style="fill:none;fill-rule:evenodd;stroke:#0000FF;stroke-width:2.0px;stroke-linecap:butt;stroke-linejoin:miter;stroke-opacity:1"/>
<path class="bond-14 atom-4 atom-13" d="M 137.3,227.0 L 119.7,237.2" style="fill:none;fill-rule:evenodd;stroke:#000000;stroke-width:2.0px;stroke-linecap:butt;stroke-linejoin:miter;stroke-opacity:1"/>
<path class="bond-15 atom-13 atom-14" d="M 119.7,237.2 L 77.6,212.8" style="fill:none;fill-rule:evenodd;stroke:#000000;stroke-width:2.0px;stroke-linecap:butt;stroke-linejoin:miter;stroke-opacity:1"/>
<path class="bond-15 atom-13 atom-14" d="M 112.4,241.4 L 77.6,221.3" style="fill:none;fill-rule:evenodd;stroke:#000000;stroke-width:2.0px;stroke-linecap:butt;stroke-linejoin:miter;stroke-opacity:1"/>
<path class="bond-16 atom-15 atom-13" d="M 119.7,285.8 L 119.7,237.2" style="fill:none;fill-rule:evenodd;stroke:#000000;stroke-width:2.0px;stroke-linecap:butt;stroke-linejoin:miter;stroke-opacity:1"/>
<path class="bond-17 atom-14 atom-16" d="M 77.6,212.8 L 35.5,237.2" style="fill:none;fill-rule:evenodd;stroke:#000000;stroke-width:2.0px;stroke-linecap:butt;stroke-linejoin:miter;stroke-opacity:1"/>
<path class="bond-18 atom-17 atom-15" d="M 77.6,310.1 L 119.7,285.8" style="fill:none;fill-rule:evenodd;stroke:#000000;stroke-width:2.0px;stroke-linecap:butt;stroke-linejoin:miter;stroke-opacity:1"/>
<path class="bond-18 atom-17 atom-15" d="M 77.6,301.7 L 112.4,281.6" style="fill:none;fill-rule:evenodd;stroke:#000000;stroke-width:2.0px;stroke-linecap:butt;stroke-linejoin:miter;stroke-opacity:1"/>
<path class="bond-19 atom-16 atom-18" d="M 35.5,237.2 L 35.5,285.8" style="fill:none;fill-rule:evenodd;stroke:#000000;stroke-width:2.0px;stroke-linecap:butt;stroke-linejoin:miter;stroke-opacity:1"/>
<path class="bond-19 atom-16 atom-18" d="M 42.8,241.4 L 42.8,281.6" style="fill:none;fill-rule:evenodd;stroke:#000000;stroke-width:2.0px;stroke-linecap:butt;stroke-linejoin:miter;stroke-opacity:1"/>
<path class="bond-20 atom-18 atom-17" d="M 35.5,285.8 L 77.6,310.1" style="fill:none;fill-rule:evenodd;stroke:#000000;stroke-width:2.0px;stroke-linecap:butt;stroke-linejoin:miter;stroke-opacity:1"/>
<path d="M 206.0,235.9 L 203.9,237.2 L 203.1,236.6" style="fill:none;stroke:#000000;stroke-width:2.0px;stroke-linecap:butt;stroke-linejoin:miter;stroke-miterlimit:10;stroke-opacity:1;"/>
<path d="M 161.8,165.2 L 161.8,164.2 L 162.7,163.7" style="fill:none;stroke:#000000;stroke-width:2.0px;stroke-linecap:butt;stroke-linejoin:miter;stroke-miterlimit:10;stroke-opacity:1;"/>
<path d="M 286.1,235.9 L 288.2,237.2 L 290.3,235.9" style="fill:none;stroke:#000000;stroke-width:2.0px;stroke-linecap:butt;stroke-linejoin:miter;stroke-miterlimit:10;stroke-opacity:1;"/>
<path d="M 328.2,214.1 L 330.3,212.8 L 330.3,210.4" style="fill:none;stroke:#000000;stroke-width:2.0px;stroke-linecap:butt;stroke-linejoin:miter;stroke-miterlimit:10;stroke-opacity:1;"/>
<path d="M 290.3,141.1 L 288.2,139.9 L 286.1,141.1" style="fill:none;stroke:#000000;stroke-width:2.0px;stroke-linecap:butt;stroke-linejoin:miter;stroke-miterlimit:10;stroke-opacity:1;"/>
<path d="M 370.3,141.1 L 372.4,139.9 L 374.5,141.1" style="fill:none;stroke:#000000;stroke-width:2.0px;stroke-linecap:butt;stroke-linejoin:miter;stroke-miterlimit:10;stroke-opacity:1;"/>
<path d="M 79.7,214.1 L 77.6,212.8 L 75.5,214.1" style="fill:none;stroke:#000000;stroke-width:2.0px;stroke-linecap:butt;stroke-linejoin:miter;stroke-miterlimit:10;stroke-opacity:1;"/>
<path d="M 119.7,283.4 L 119.7,285.8 L 117.6,287.0" style="fill:none;stroke:#000000;stroke-width:2.0px;stroke-linecap:butt;stroke-linejoin:miter;stroke-miterlimit:10;stroke-opacity:1;"/>
<path d="M 37.6,235.9 L 35.5,237.2 L 35.5,239.6" style="fill:none;stroke:#000000;stroke-width:2.0px;stroke-linecap:butt;stroke-linejoin:miter;stroke-miterlimit:10;stroke-opacity:1;"/>
<path d="M 79.7,308.9 L 77.6,310.1 L 75.5,308.9" style="fill:none;stroke:#000000;stroke-width:2.0px;stroke-linecap:butt;stroke-linejoin:miter;stroke-miterlimit:10;stroke-opacity:1;"/>
<path d="M 35.5,283.4 L 35.5,285.8 L 37.6,287.0" style="fill:none;stroke:#000000;stroke-width:2.0px;stroke-linecap:butt;stroke-linejoin:miter;stroke-miterlimit:10;stroke-opacity:1;"/>
<path class="atom-3" d="M 197.6 285.8 Q 197.6 282.5, 199.3 280.7 Q 200.9 278.8, 203.9 278.8 Q 207.0 278.8, 208.6 280.7 Q 210.3 282.5, 210.3 285.8 Q 210.3 289.2, 208.6 291.1 Q 207.0 293.0, 203.9 293.0 Q 200.9 293.0, 199.3 291.1 Q 197.6 289.2, 197.6 285.8 M 203.9 291.4 Q 206.0 291.4, 207.2 290.0 Q 208.3 288.6, 208.3 285.8 Q 208.3 283.1, 207.2 281.8 Q 206.0 280.4, 203.9 280.4 Q 201.8 280.4, 200.7 281.7 Q 199.6 283.1, 199.6 285.8 Q 199.6 288.6, 200.7 290.0 Q 201.8 291.4, 203.9 291.4 " fill="#FF0000"/>
<path class="atom-4" d="M 158.8 206.0 L 163.3 213.3 Q 163.7 214.0, 164.5 215.3 Q 165.2 216.6, 165.2 216.7 L 165.2 206.0 L 167.0 206.0 L 167.0 219.7 L 165.2 219.7 L 160.3 211.8 Q 159.8 210.8, 159.1 209.7 Q 158.6 208.7, 158.4 208.3 L 158.4 219.7 L 156.6 219.7 L 156.6 206.0 L 158.8 206.0 " fill="#0000FF"/>
<path class="atom-6" d="M 200.9 133.0 L 205.4 140.3 Q 205.9 141.0, 206.6 142.3 Q 207.3 143.6, 207.3 143.7 L 207.3 133.0 L 209.2 133.0 L 209.2 146.8 L 207.3 146.8 L 202.4 138.8 Q 201.9 137.9, 201.3 136.8 Q 200.7 135.7, 200.5 135.4 L 200.5 146.8 L 198.7 146.8 L 198.7 133.0 L 200.9 133.0 " fill="#0000FF"/>
</svg>