<svg xmlns="http://www.w3.org/2000/svg" xmlns:rdkit="http://www.rdkit.org/xml" xmlns:xlink="http://www.w3.org/1999/xlink" version="1.1" baseProfile="full" xml:space="preserve" width="450px" height="450px" viewBox="0 0 450 450">
<!-- END OF HEADER -->
<rect style="opacity:1.0;fill:#FFFFFF;stroke:none" width="450.0" height="450.0" x="0.0" y="0.0"> </rect>
<path class="bond-0 atom-0 atom-1" d="M 252.9,167.6 L 252.9,216.2 L 239.3,216.2 L 239.3,167.6 Z" style="fill:#FFFFAA;fill-rule:evenodd;fill-opacity:1;stroke:#FFFFAA;stroke-width:2.0px;stroke-linecap:butt;stroke-linejoin:miter;stroke-miterlimit:10;stroke-opacity:1;"/>
<path class="bond-1 atom-1 atom-2" d="M 249.5,222.1 L 207.3,246.4 L 200.5,234.6 L 242.7,210.3 Z" style="fill:#FFFFAA;fill-rule:evenodd;fill-opacity:1;stroke:#FFFFAA;stroke-width:2.0px;stroke-linecap:butt;stroke-linejoin:miter;stroke-miterlimit:10;stroke-opacity:1;"/>
<path class="bond-2 atom-2 atom-3" d="M 210.7,240.5 L 210.7,289.2 L 197.1,289.2 L 197.1,240.5 Z" style="fill:#FFFFAA;fill-rule:evenodd;fill-opacity:1;stroke:#FFFFAA;stroke-width:2.0px;stroke-linecap:butt;stroke-linejoin:miter;stroke-miterlimit:10;stroke-opacity:1;"/>
<path class="bond-4 atom-4 atom-5" d="M 155.0,216.2 L 155.0,167.6 L 168.6,167.6 L 168.6,216.2 Z" style="fill:#FFCC99;fill-rule:evenodd;fill-opacity:1;stroke:#FFCC99;stroke-width:2.0px;stroke-linecap:butt;stroke-linejoin:miter;stroke-miterlimit:10;stroke-opacity:1;"/>
<path class="bond-6 atom-6 atom-0" d="M 207.3,137.4 L 249.5,161.7 L 242.7,173.5 L 200.5,149.1 Z" style="fill:#FFFFAA;fill-rule:evenodd;fill-opacity:1;stroke:#FFFFAA;stroke-width:2.0px;stroke-linecap:butt;stroke-linejoin:miter;stroke-miterlimit:10;stroke-opacity:1;"/>
<path class="bond-7 atom-7 atom-1" d="M 284.8,246.4 L 242.7,222.1 L 249.5,210.3 L 291.6,234.6 Z" style="fill:#FFFFAA;fill-rule:evenodd;fill-opacity:1;stroke:#FFFFAA;stroke-width:2.0px;stroke-linecap:butt;stroke-linejoin:miter;stroke-miterlimit:10;stroke-opacity:1;"/>
<path class="bond-8 atom-8 atom-7" d="M 333.7,222.1 L 291.6,246.4 L 284.8,234.6 L 326.9,210.3 Z" style="fill:#FFFFAA;fill-rule:evenodd;fill-opacity:1;stroke:#FFFFAA;stroke-width:2.0px;stroke-linecap:butt;stroke-linejoin:miter;stroke-miterlimit:10;stroke-opacity:1;"/>
<path class="bond-9 atom-9 atom-8" d="M 337.1,167.6 L 337.1,216.2 L 323.5,216.2 L 323.5,167.6 Z" style="fill:#FFFFAA;fill-rule:evenodd;fill-opacity:1;stroke:#FFFFAA;stroke-width:2.0px;stroke-linecap:butt;stroke-linejoin:miter;stroke-miterlimit:10;stroke-opacity:1;"/>
<path class="bond-10 atom-10 atom-9" d="M 291.6,137.4 L 333.7,161.7 L 326.9,173.5 L 284.8,149.1 Z" style="fill:#FFFFAA;fill-rule:evenodd;fill-opacity:1;stroke:#FFFFAA;stroke-width:2.0px;stroke-linecap:butt;stroke-linejoin:miter;stroke-miterlimit:10;stroke-opacity:1;"/>
<path class="bond-11 atom-9 atom-11" d="M 326.9,161.7 L 369.0,137.4 L 375.8,149.1 L 333.7,173.5 Z" style="fill:#FFFFAA;fill-rule:evenodd;fill-opacity:1;stroke:#FFFFAA;stroke-width:2.0px;stroke-linecap:butt;stroke-linejoin:miter;stroke-miterlimit:10;stroke-opacity:1;"/>
<path class="bond-12 atom-0 atom-10" d="M 242.7,161.7 L 284.8,137.4 L 291.6,149.1 L 249.5,173.5 Z" style="fill:#FFFFAA;fill-rule:evenodd;fill-opacity:1;stroke:#FFFFAA;stroke-width:2.0px;stroke-linecap:butt;stroke-linejoin:miter;stroke-miterlimit:10;stroke-opacity:1;"/>
<path class="bond-13 atom-11 atom-12" d="M 375.8,137.4 L 417.9,161.7 L 411.1,173.5 L 369.0,149.1 Z" style="fill:#FFFFAA;fill-rule:evenodd;fill-opacity:1;stroke:#FFFFAA;stroke-width:2.0px;stroke-linecap:butt;stroke-linejoin:miter;stroke-miterlimit:10;stroke-opacity:1;"/>
<path class="bond-14 atom-4 atom-13" d="M 165.2,222.1 L 123.1,246.4 L 116.3,234.6 L 158.4,210.3 Z" style="fill:#FFCC99;fill-rule:evenodd;fill-opacity:1;stroke:#FFCC99;stroke-width:2.0px;stroke-linecap:butt;stroke-linejoin:miter;stroke-miterlimit:10;stroke-opacity:1;"/>
<path class="bond-15 atom-13 atom-14" d="M 116.3,246.4 L 74.2,222.1 L 81.0,210.3 L 123.1,234.6 Z" style="fill:#FFCC99;fill-rule:evenodd;fill-opacity:1;stroke:#FFCC99;stroke-width:2.0px;stroke-linecap:butt;stroke-linejoin:miter;stroke-miterlimit:10;stroke-opacity:1;"/>
<path class="bond-16 atom-15 atom-13" d="M 112.9,289.2 L 112.9,240.5 L 126.5,240.5 L 126.5,289.2 Z" style="fill:#FFCC99;fill-rule:evenodd;fill-opacity:1;stroke:#FFCC99;stroke-width:2.0px;stroke-linecap:butt;stroke-linejoin:miter;stroke-miterlimit:10;stroke-opacity:1;"/>
<path class="bond-17 atom-14 atom-16" d="M 81.0,222.1 L 38.9,246.4 L 32.1,234.6 L 74.2,210.3 Z" style="fill:#FFCC99;fill-rule:evenodd;fill-opacity:1;stroke:#FFCC99;stroke-width:2.0px;stroke-linecap:butt;stroke-linejoin:miter;stroke-miterlimit:10;stroke-opacity:1;"/>
<path class="bond-18 atom-17 atom-15" d="M 74.2,307.6 L 116.3,283.3 L 123.1,295.1 L 81.0,319.4 Z" style="fill:#FFCC99;fill-rule:evenodd;fill-opacity:1;stroke:#FFCC99;stroke-width:2.0px;stroke-linecap:butt;stroke-linejoin:miter;stroke-miterlimit:10;stroke-opacity:1;"/>
<path class="bond-19 atom-16 atom-18" d="M 42.3,240.5 L 42.3,289.2 L 28.7,289.2 L 28.7,240.5 Z" style="fill:#FFCC99;fill-rule:evenodd;fill-opacity:1;stroke:#FFCC99;stroke-width:2.0px;stroke-linecap:butt;stroke-linejoin:miter;stroke-miterlimit:10;stroke-opacity:1;"/>
<path class="bond-20 atom-18 atom-17" d="M 38.9,283.3 L 81.0,307.6 L 74.2,319.4 L 32.1,295.1 Z" style="fill:#FFCC99;fill-rule:evenodd;fill-opacity:1;stroke:#FFCC99;stroke-width:2.0px;stroke-linecap:butt;stroke-linejoin:miter;stroke-miterlimit:10;stroke-opacity:1;"/>
<ellipse cx="246.1" cy="167.6" rx="13.0" ry="13.0" class="atom-0" style="fill:#FFFFAA;fill-rule:evenodd;stroke:#FFFFAA;stroke-width:1.0px;stroke-linecap:butt;stroke-linejoin:miter;stroke-opacity:1"/>
<ellipse cx="246.1" cy="216.2" rx="13.0" ry="13.0" class="atom-1" style="fill:#FFFFAA;fill-rule:evenodd;stroke:#FFFFAA;stroke-width:1.0px;stroke-linecap:butt;stroke-linejoin:miter;stroke-opacity:1"/>
<ellipse cx="203.9" cy="240.5" rx="13.0" ry="13.0" class="atom-2" style="fill:#FFFFAA;fill-rule:evenodd;stroke:#FFFFAA;stroke-width:1.0px;stroke-linecap:butt;stroke-linejoin:miter;stroke-opacity:1"/>
<ellipse cx="203.9" cy="289.3" rx="13.0" ry="13.0" class="atom-3" style="fill:#FFFFAA;fill-rule:evenodd;stroke:#FFFFAA;stroke-width:1.0px;stroke-linecap:butt;stroke-linejoin:miter;stroke-opacity:1"/>
<ellipse cx="161.8" cy="216.2" rx="13.0" ry="13.0" class="atom-4" style="fill:#FFCC99;fill-rule:evenodd;stroke:#FFCC99;stroke-width:1.0px;stroke-linecap:butt;stroke-linejoin:miter;stroke-opacity:1"/>
<ellipse cx="161.8" cy="167.6" rx="13.0" ry="13.0" class="atom-5" style="fill:#FFCC99;fill-rule:evenodd;stroke:#FFCC99;stroke-width:1.0px;stroke-linecap:butt;stroke-linejoin:miter;stroke-opacity:1"/>
<ellipse cx="203.9" cy="143.3" rx="13.0" ry="13.0" class="atom-6" style="fill:#FFFFAA;fill-rule:evenodd;stroke:#FFFFAA;stroke-width:1.0px;stroke-linecap:butt;stroke-linejoin:miter;stroke-opacity:1"/>
<ellipse cx="288.2" cy="240.5" rx="13.0" ry="13.0" class="atom-7" style="fill:#FFFFAA;fill-rule:evenodd;stroke:#FFFFAA;stroke-width:1.0px;stroke-linecap:butt;stroke-linejoin:miter;stroke-opacity:1"/>
<ellipse cx="330.3" cy="216.2" rx="13.0" ry="13.0" class="atom-8" style="fill:#FFFFAA;fill-rule:evenodd;stroke:#FFFFAA;stroke-width:1.0px;stroke-linecap:butt;stroke-linejoin:miter;stroke-opacity:1"/>
<ellipse cx="330.3" cy="167.6" rx="13.0" ry="13.0" class="atom-9" style="fill:#FFFFAA;fill-rule:evenodd;stroke:#FFFFAA;stroke-width:1.0px;stroke-linecap:butt;stroke-linejoin:miter;stroke-opacity:1"/>
<ellipse cx="288.2" cy="143.3" rx="13.0" ry="13.0" class="atom-10" style="fill:#FFFFAA;fill-rule:evenodd;stroke:#FFFFAA;stroke-width:1.0px;stroke-linecap:butt;stroke-linejoin:miter;stroke-opacity:1"/>
<ellipse cx="372.4" cy="143.3" rx="13.0" ry="13.0" class="atom-11" style="fill:#FFFFAA;fill-rule:evenodd;stroke:#FFFFAA;stroke-width:1.0px;stroke-linecap:butt;stroke-linejoin:miter;stroke-opacity:1"/>
<ellipse cx="414.5" cy="167.6" rx="13.0" ry="13.0" class="atom-12" style="fill:#FFFFAA;fill-rule:evenodd;stroke:#FFFFAA;stroke-width:1.0px;stroke-linecap:butt;stroke-linejoin:miter;stroke-opacity:1"/>
<ellipse cx="119.7" cy="240.5" rx="13.0" ry="13.0" class="atom-13" style="fill:#FFCC99;fill-rule:evenodd;stroke:#FFCC99;stroke-width:1.0px;stroke-linecap:butt;stroke-linejoin:miter;stroke-opacity:1"/>
<ellipse cx="77.6" cy="216.2" rx="13.0" ry="13.0" class="atom-14" style="fill:#FFCC99;fill-rule:evenodd;stroke:#FFCC99;stroke-width:1.0px;stroke-linecap:butt;stroke-linejoin:miter;stroke-opacity:1"/>
<ellipse cx="119.7" cy="289.2" rx="13.0" ry="13.0" class="atom-15" style="fill:#FFCC99;fill-rule:evenodd;stroke:#FFCC99;stroke-width:1.0px;stroke-linecap:butt;stroke-linejoin:miter;stroke-opacity:1"/>
<ellipse cx="35.5" cy="240.5" rx="13.0" ry="13.0" class="atom-16" style="fill:#FFCC99;fill-rule:evenodd;stroke:#FFCC99;stroke-width:1.0px;stroke-linecap:butt;stroke-linejoin:miter;stroke-opacity:1"/>
<ellipse cx="77.6" cy="313.5" rx="13.0" ry="13.0" class="atom-17" style="fill:#FFCC99;fill-rule:evenodd;stroke:#FFCC99;stroke-width:1.0px;stroke-linecap:butt;stroke-linejoin:miter;stroke-opacity:1"/>
<ellipse cx="35.5" cy="289.2" rx="13.0" ry="13.0" class="atom-18" style="fill:#FFCC99;fill-rule:evenodd;stroke:#FFCC99;stroke-width:1.0px;stroke-linecap:butt;stroke-linejoin:miter;stroke-opacity:1"/>
<path class="bond-0 atom-0 atom-1" d="M 246.1,167.6 L 246.1,216.2" style="fill:none;fill-rule:evenodd;stroke:#000000;stroke-width:2.0px;stroke-linecap:butt;stroke-linejoin:miter;stroke-opacity:1"/>
<path class="bond-0 atom-0 atom-1" d="M 253.4,171.8 L 253.4,212.0" style="fill:none;fill-rule:evenodd;stroke:#000000;stroke-width:2.0px;stroke-linecap:butt;stroke-linejoin:miter;stroke-opacity:1"/>
<path class="bond-1 atom-1 atom-2" d="M 246.1,216.2 L 203.9,240.5" style="fill:none;fill-rule:evenodd;stroke:#000000;stroke-width:2.0px;stroke-linecap:butt;stroke-linejoin:miter;stroke-opacity:1"/>
<path class="bond-2 atom-2 atom-3" d="M 200.3,238.4 L 200.3,259.5" style="fill:none;fill-rule:evenodd;stroke:#000000;stroke-width:2.0px;stroke-linecap:butt;stroke-linejoin:miter;stroke-opacity:1"/>
<path class="bond-2 atom-2 atom-3" d="M 200.3,259.5 L 200.3,280.6" style="fill:none;fill-rule:evenodd;stroke:#FF0000;stroke-width:2.0px;stroke-linecap:butt;stroke-linejoin:miter;stroke-opacity:1"/>
<path class="bond-2 atom-2 atom-3" d="M 207.6,238.4 L 207.6,259.5" style="fill:none;fill-rule:evenodd;stroke:#000000;stroke-width:2.0px;stroke-linecap:butt;stroke-linejoin:miter;stroke-opacity:1"/>
<path class="bond-2 atom-2 atom-3" d="M 207.6,259.5 L 207.6,280.6" style="fill:none;fill-rule:evenodd;stroke:#FF0000;stroke-width:2.0px;stroke-linecap:butt;stroke-linejoin:miter;stroke-opacity:1"/>
<path class="bond-3 atom-2 atom-4" d="M 203.9,240.5 L 186.3,230.3" style="fill:none;fill-rule:evenodd;stroke:#000000;stroke-width:2.0px;stroke-linecap:butt;stroke-linejoin:miter;stroke-opacity:1"/>
<path class="bond-3 atom-2 atom-4" d="M 186.3,230.3 L 168.7,220.1" style="fill:none;fill-rule:evenodd;stroke:#0000FF;stroke-width:2.0px;stroke-linecap:butt;stroke-linejoin:miter;stroke-opacity:1"/>
<path class="bond-4 atom-4 atom-5" d="M 161.8,207.7 L 161.8,187.6" style="fill:none;fill-rule:evenodd;stroke:#0000FF;stroke-width:2.0px;stroke-linecap:butt;stroke-linejoin:miter;stroke-opacity:1"/>
<path class="bond-4 atom-4 atom-5" d="M 161.8,187.6 L 161.8,167.6" style="fill:none;fill-rule:evenodd;stroke:#000000;stroke-width:2.0px;stroke-linecap:butt;stroke-linejoin:miter;stroke-opacity:1"/>
<path class="bond-5 atom-5 atom-6" d="M 161.8,167.6 L 179.5,157.4" style="fill:none;fill-rule:evenodd;stroke:#000000;stroke-width:2.0px;stroke-linecap:butt;stroke-linejoin:miter;stroke-opacity:1"/>
<path class="bond-5 atom-5 atom-6" d="M 179.5,157.4 L 197.1,147.2" style="fill:none;fill-rule:evenodd;stroke:#0000FF;stroke-width:2.0px;stroke-linecap:butt;stroke-linejoin:miter;stroke-opacity:1"/>
<path class="bond-5 atom-5 atom-6" d="M 169.1,171.8 L 184.9,162.6" style="fill:none;fill-rule:evenodd;stroke:#000000;stroke-width:2.0px;stroke-linecap:butt;stroke-linejoin:miter;stroke-opacity:1"/>
<path class="bond-5 atom-5 atom-6" d="M 184.9,162.6 L 200.8,153.5" style="fill:none;fill-rule:evenodd;stroke:#0000FF;stroke-width:2.0px;stroke-linecap:butt;stroke-linejoin:miter;stroke-opacity:1"/>
<path class="bond-6 atom-6 atom-0" d="M 210.8,147.2 L 228.4,157.4" style="fill:none;fill-rule:evenodd;stroke:#0000FF;stroke-width:2.0px;stroke-linecap:butt;stroke-linejoin:miter;stroke-opacity:1"/>
<path class="bond-6 atom-6 atom-0" d="M 228.4,157.4 L 246.1,167.6" style="fill:none;fill-rule:evenodd;stroke:#000000;stroke-width:2.0px;stroke-linecap:butt;stroke-linejoin:miter;stroke-opacity:1"/>
<path class="bond-7 atom-7 atom-1" d="M 288.2,240.5 L 246.1,216.2" style="fill:none;fill-rule:evenodd;stroke:#000000;stroke-width:2.0px;stroke-linecap:butt;stroke-linejoin:miter;stroke-opacity:1"/>
<path class="bond-8 atom-8 atom-7" d="M 330.3,216.2 L 288.2,240.5" style="fill:none;fill-rule:evenodd;stroke:#000000;stroke-width:2.0px;stroke-linecap:butt;stroke-linejoin:miter;stroke-opacity:1"/>
<path class="bond-8 atom-8 atom-7" d="M 323.0,212.0 L 288.2,232.1" style="fill:none;fill-rule:evenodd;stroke:#000000;stroke-width:2.0px;stroke-linecap:butt;stroke-linejoin:miter;stroke-opacity:1"/>
<path class="bond-9 atom-9 atom-8" d="M 330.3,167.6 L 330.3,216.2" style="fill:none;fill-rule:evenodd;stroke:#000000;stroke-width:2.0px;stroke-linecap:butt;stroke-linejoin:miter;stroke-opacity:1"/>
<path class="bond-10 atom-10 atom-9" d="M 288.2,143.3 L 330.3,167.6" style="fill:none;fill-rule:evenodd;stroke:#000000;stroke-width:2.0px;stroke-linecap:butt;stroke-linejoin:miter;stroke-opacity:1"/>
<path class="bond-10 atom-10 atom-9" d="M 288.2,151.7 L 323.0,171.8" style="fill:none;fill-rule:evenodd;stroke:#000000;stroke-width:2.0px;stroke-linecap:butt;stroke-linejoin:miter;stroke-opacity:1"/>
<path class="bond-11 atom-9 atom-11" d="M 330.3,167.6 L 372.4,143.3" style="fill:none;fill-rule:evenodd;stroke:#000000;stroke-width:2.0px;stroke-linecap:butt;stroke-linejoin:miter;stroke-opacity:1"/>
<path class="bond-12 atom-0 atom-10" d="M 246.1,167.6 L 288.2,143.3" style="fill:none;fill-rule:evenodd;stroke:#000000;stroke-width:2.0px;stroke-linecap:butt;stroke-linejoin:miter;stroke-opacity:1"/>
<path class="bond-13 atom-11 atom-12" d="M 372.4,143.3 L 414.5,167.6" style="fill:none;fill-rule:evenodd;stroke:#000000;stroke-width:2.0px;stroke-linecap:butt;stroke-linejoin:miter;stroke-opacity:1"/>
<path class="bond-14 atom-4 atom-13" d="M 155.0,220.1 L 137.3,230.3" style="fill:none;fill-rule:evenodd;stroke:#0000FF;stroke-width:2.0px;stroke-linecap:butt;stroke-linejoin:miter;stroke-opacity:1"/>
<path class="bond-14 atom-4 atom-13" d="M 137.3,230.3 L 119.7,240.5" style="fill:none;fill-rule:evenodd;stroke:#000000;stroke-width:2.0px;stroke-linecap:butt;stroke-linejoin:miter;stroke-opacity:1"/>
<path class="bond-15 atom-13 atom-14" d="M 119.7,240.5 L 77.6,216.2" style="fill:none;fill-rule:evenodd;stroke:#000000;stroke-width:2.0px;stroke-linecap:butt;stroke-linejoin:miter;stroke-opacity:1"/>
<path class="bond-15 atom-13 atom-14" d="M 112.4,244.7 L 77.6,224.6" style="fill:none;fill-rule:evenodd;stroke:#000000;stroke-width:2.0px;stroke-linecap:butt;stroke-linejoin:miter;stroke-opacity:1"/>
<path class="bond-16 atom-15 atom-13" d="M 119.7,289.2 L 119.7,240.5" style="fill:none;fill-rule:evenodd;stroke:#000000;stroke-width:2.0px;stroke-linecap:butt;stroke-linejoin:miter;stroke-opacity:1"/>
<path class="bond-17 atom-14 atom-16" d="M 77.6,216.2 L 35.5,240.5" style="fill:none;fill-rule:evenodd;stroke:#000000;stroke-width:2.0px;stroke-linecap:butt;stroke-linejoin:miter;stroke-opacity:1"/>
<path class="bond-18 atom-17 atom-15" d="M 77.6,313.5 L 119.7,289.2" style="fill:none;fill-rule:evenodd;stroke:#000000;stroke-width:2.0px;stroke-linecap:butt;stroke-linejoin:miter;stroke-opacity:1"/>
<path class="bond-18 atom-17 atom-15" d="M 77.6,305.0 L 112.4,284.9" style="fill:none;fill-rule:evenodd;stroke:#000000;stroke-width:2.0px;stroke-linecap:butt;stroke-linejoin:miter;stroke-opacity:1"/>
<path class="bond-19 atom-16 atom-18" d="M 35.5,240.5 L 35.5,289.2" style="fill:none;fill-rule:evenodd;stroke:#000000;stroke-width:2.0px;stroke-linecap:butt;stroke-linejoin:miter;stroke-opacity:1"/>
<path class="bond-19 atom-16 atom-18" d="M 42.8,244.7 L 42.8,284.9" style="fill:none;fill-rule:evenodd;stroke:#000000;stroke-width:2.0px;stroke-linecap:butt;stroke-linejoin:miter;stroke-opacity:1"/>
<path class="bond-20 atom-18 atom-17" d="M 35.5,289.2 L 77.6,313.5" style="fill:none;fill-rule:evenodd;stroke:#000000;stroke-width:2.0px;stroke-linecap:butt;stroke-linejoin:miter;stroke-opacity:1"/>
<path d="M 206.0,239.3 L 203.9,240.5 L 203.1,240.0" style="fill:none;stroke:#000000;stroke-width:2.0px;stroke-linecap:butt;stroke-linejoin:miter;stroke-miterlimit:10;stroke-opacity:1;"/>
<path d="M 161.8,168.6 L 161.8,167.6 L 162.7,167.1" style="fill:none;stroke:#000000;stroke-width:2.0px;stroke-linecap:butt;stroke-linejoin:miter;stroke-miterlimit:10;stroke-opacity:1;"/>
<path d="M 286.1,239.3 L 288.2,240.5 L 290.3,239.3" style="fill:none;stroke:#000000;stroke-width:2.0px;stroke-linecap:butt;stroke-linejoin:miter;stroke-miterlimit:10;stroke-opacity:1;"/>
<path d="M 328.2,217.4 L 330.3,216.2 L 330.3,213.8" style="fill:none;stroke:#000000;stroke-width:2.0px;stroke-linecap:butt;stroke-linejoin:miter;stroke-miterlimit:10;stroke-opacity:1;"/>
<path d="M 290.3,144.5 L 288.2,143.3 L 286.1,144.5" style="fill:none;stroke:#000000;stroke-width:2.0px;stroke-linecap:butt;stroke-linejoin:miter;stroke-miterlimit:10;stroke-opacity:1;"/>
<path d="M 370.3,144.5 L 372.4,143.3 L 374.5,144.5" style="fill:none;stroke:#000000;stroke-width:2.0px;stroke-linecap:butt;stroke-linejoin:miter;stroke-miterlimit:10;stroke-opacity:1;"/>
<path d="M 79.7,217.4 L 77.6,216.2 L 75.5,217.4" style="fill:none;stroke:#000000;stroke-width:2.0px;stroke-linecap:butt;stroke-linejoin:miter;stroke-miterlimit:10;stroke-opacity:1;"/>
<path d="M 119.7,286.7 L 119.7,289.2 L 117.6,290.4" style="fill:none;stroke:#000000;stroke-width:2.0px;stroke-linecap:butt;stroke-linejoin:miter;stroke-miterlimit:10;stroke-opacity:1;"/>
<path d="M 37.6,239.3 L 35.5,240.5 L 35.5,243.0" style="fill:none;stroke:#000000;stroke-width:2.0px;stroke-linecap:butt;stroke-linejoin:miter;stroke-miterlimit:10;stroke-opacity:1;"/>
<path d="M 79.7,312.3 L 77.6,313.5 L 75.5,312.3" style="fill:none;stroke:#000000;stroke-width:2.0px;stroke-linecap:butt;stroke-linejoin:miter;stroke-miterlimit:10;stroke-opacity:1;"/>
<path d="M 35.5,286.7 L 35.5,289.2 L 37.6,290.4" style="fill:none;stroke:#000000;stroke-width:2.0px;stroke-linecap:butt;stroke-linejoin:miter;stroke-miterlimit:10;stroke-opacity:1;"/>
<path class="atom-3" d="M 197.6 289.2 Q 197.6 285.9, 199.3 284.0 Q 200.9 282.2, 203.9 282.2 Q 207.0 282.2, 208.6 284.0 Q 210.3 285.9, 210.3 289.2 Q 210.3 292.5, 208.6 294.4 Q 207.0 296.3, 203.9 296.3 Q 200.9 296.3, 199.3 294.4 Q 197.6 292.6, 197.6 289.2 M 203.9 294.8 Q 206.0 294.8, 207.2 293.4 Q 208.3 292.0, 208.3 289.2 Q 208.3 286.5, 207.2 285.1 Q 206.0 283.7, 203.9 283.7 Q 201.8 283.7, 200.7 285.1 Q 199.6 286.5, 199.6 289.2 Q 199.6 292.0, 200.7 293.4 Q 201.8 294.8, 203.9 294.8 " fill="#FF0000"/>
<path class="atom-4" d="M 158.8 209.3 L 163.3 216.6 Q 163.7 217.3, 164.5 218.6 Q 165.2 219.9, 165.2 220.0 L 165.2 209.3 L 167.0 209.3 L 167.0 223.1 L 165.2 223.1 L 160.3 215.1 Q 159.8 214.2, 159.1 213.1 Q 158.6 212.0, 158.4 211.7 L 158.4 223.1 L 156.6 223.1 L 156.6 209.3 L 158.8 209.3 " fill="#0000FF"/>
<path class="atom-6" d="M 200.9 136.4 L 205.4 143.7 Q 205.9 144.4, 206.6 145.7 Q 207.3 147.0, 207.3 147.1 L 207.3 136.4 L 209.2 136.4 L 209.2 150.1 L 207.3 150.1 L 202.4 142.2 Q 201.9 141.2, 201.3 140.2 Q 200.7 139.1, 200.5 138.8 L 200.5 150.1 L 198.7 150.1 L 198.7 136.4 L 200.9 136.4 " fill="#0000FF"/>
<path class="note" d="M 239.2 170.8 Q 239.8 170.8, 240.3 171.0 Q 240.8 171.3, 241.1 171.8 Q 241.4 172.2, 241.4 172.9 Q 241.4 173.6, 241.0 174.1 Q 240.7 174.6, 240.1 174.9 Q 239.5 175.1, 238.9 175.1 Q 238.3 175.1, 237.7 174.9 Q 237.1 174.7, 236.7 174.2 L 237.3 173.6 Q 237.6 174.0, 238.1 174.2 Q 238.5 174.4, 238.9 174.4 Q 239.5 174.4, 240.0 174.0 Q 240.4 173.6, 240.4 172.9 Q 240.4 172.2, 240.0 171.8 Q 239.5 171.5, 238.9 171.5 Q 238.3 171.5, 237.6 171.7 L 237.1 171.5 L 237.4 168.2 L 240.9 168.2 L 240.8 169.0 L 238.2 169.0 L 238.0 171.0 Q 238.6 170.8, 239.2 170.8 " fill="#000000"/>
<path class="note" d="M 237.3 214.8 L 238.8 214.8 L 238.8 209.7 L 237.2 210.2 L 237.0 209.6 L 239.1 208.7 L 239.8 208.8 L 239.8 214.8 L 241.1 214.8 L 241.1 215.6 L 237.3 215.6 L 237.3 214.8 " fill="#000000"/>
<path class="note" d="M 201.6 230.3 Q 201.9 229.7, 202.5 229.3 Q 203.1 228.9, 203.9 228.9 Q 205.0 228.9, 205.6 229.5 Q 206.1 230.1, 206.1 231.1 Q 206.1 232.1, 205.4 233.0 Q 204.6 234.0, 203.1 235.1 L 206.3 235.1 L 206.3 235.9 L 201.6 235.9 L 201.6 235.2 Q 202.9 234.3, 203.7 233.7 Q 204.4 233.0, 204.8 232.4 Q 205.2 231.7, 205.2 231.1 Q 205.2 230.5, 204.8 230.1 Q 204.5 229.7, 203.9 229.7 Q 203.4 229.7, 203.0 229.9 Q 202.6 230.2, 202.4 230.7 L 201.6 230.3 " fill="#000000"/>
<path class="note" d="M 204.9 305.2 Q 205.6 305.4, 205.9 305.9 Q 206.3 306.3, 206.3 307.0 Q 206.3 307.5, 206.0 308.0 Q 205.7 308.4, 205.1 308.7 Q 204.6 308.9, 203.9 308.9 Q 203.2 308.9, 202.6 308.7 Q 202.1 308.4, 201.6 307.9 L 202.2 307.3 Q 202.6 307.8, 203.0 308.0 Q 203.3 308.2, 203.9 308.2 Q 204.5 308.2, 204.9 307.8 Q 205.3 307.5, 205.3 307.0 Q 205.3 306.3, 204.9 305.9 Q 204.5 305.6, 203.6 305.6 L 203.2 305.6 L 203.2 304.9 L 203.6 304.9 Q 204.3 304.9, 204.7 304.6 Q 205.1 304.3, 205.1 303.6 Q 205.1 303.2, 204.8 302.9 Q 204.5 302.7, 203.9 302.7 Q 203.3 302.7, 203.0 302.9 Q 202.6 303.1, 202.4 303.6 L 201.7 303.2 Q 201.9 302.7, 202.5 302.3 Q 203.1 301.9, 203.9 301.9 Q 204.9 301.9, 205.5 302.4 Q 206.1 302.8, 206.1 303.6 Q 206.1 304.2, 205.8 304.6 Q 205.5 305.0, 204.9 305.2 " fill="#000000"/>
<path class="note" d="M 173.6 206.0 Q 173.8 205.3, 174.4 205.0 Q 175.0 204.6, 175.9 204.6 Q 176.9 204.6, 177.5 205.2 Q 178.1 205.7, 178.1 206.7 Q 178.1 207.8, 177.3 208.7 Q 176.6 209.7, 175.0 210.8 L 178.2 210.8 L 178.2 211.6 L 173.5 211.6 L 173.5 210.9 Q 174.8 210.0, 175.6 209.3 Q 176.4 208.7, 176.7 208.0 Q 177.1 207.4, 177.1 206.8 Q 177.1 206.1, 176.8 205.8 Q 176.4 205.4, 175.9 205.4 Q 175.3 205.4, 174.9 205.6 Q 174.6 205.8, 174.3 206.3 L 173.6 206.0 " fill="#000000"/>
<path class="note" d="M 154.8 167.1 Q 153.5 167.1, 152.9 166.1 Q 152.3 165.2, 152.3 163.5 Q 152.3 161.9, 152.9 161.0 Q 153.5 160.0, 154.8 160.0 Q 156.1 160.0, 156.7 161.0 Q 157.3 161.9, 157.3 163.5 Q 157.3 165.2, 156.7 166.1 Q 156.1 167.1, 154.8 167.1 M 154.8 166.3 Q 155.6 166.3, 156.0 165.6 Q 156.3 164.9, 156.3 163.5 Q 156.3 162.2, 156.0 161.5 Q 155.6 160.8, 154.8 160.8 Q 154.1 160.8, 153.7 161.5 Q 153.3 162.2, 153.3 163.5 Q 153.3 164.9, 153.7 165.6 Q 154.1 166.3, 154.8 166.3 " fill="#000000"/>
<path class="note" d="M 204.2 126.2 Q 204.9 126.2, 205.3 126.5 Q 205.8 126.8, 206.1 127.2 Q 206.3 127.7, 206.3 128.3 Q 206.3 129.0, 206.0 129.5 Q 205.7 130.0, 205.2 130.3 Q 204.7 130.6, 204.0 130.6 Q 202.8 130.6, 202.2 129.8 Q 201.6 128.9, 201.6 127.3 Q 201.6 125.5, 202.3 124.5 Q 203.1 123.6, 204.5 123.6 Q 205.0 123.6, 205.3 123.7 Q 205.7 123.8, 206.1 124.0 L 205.7 124.6 Q 205.2 124.3, 204.6 124.3 Q 203.6 124.3, 203.1 125.0 Q 202.6 125.6, 202.5 126.9 Q 202.9 126.6, 203.3 126.4 Q 203.8 126.2, 204.2 126.2 M 204.0 129.8 Q 204.4 129.8, 204.7 129.6 Q 205.0 129.4, 205.2 129.1 Q 205.4 128.7, 205.4 128.3 Q 205.4 127.7, 205.0 127.4 Q 204.7 127.0, 204.1 127.0 Q 203.7 127.0, 203.2 127.2 Q 202.8 127.3, 202.5 127.6 Q 202.6 128.8, 202.9 129.3 Q 203.3 129.8, 204.0 129.8 " fill="#000000"/>
<path class="note" d="M 288.2 252.2 Q 286.9 252.2, 286.3 251.3 Q 285.7 250.3, 285.7 248.7 Q 285.7 247.0, 286.3 246.1 Q 286.9 245.1, 288.2 245.1 Q 289.5 245.1, 290.1 246.1 Q 290.7 247.0, 290.7 248.7 Q 290.7 250.3, 290.1 251.3 Q 289.4 252.2, 288.2 252.2 M 288.2 251.4 Q 288.9 251.4, 289.3 250.7 Q 289.7 250.0, 289.7 248.7 Q 289.7 247.3, 289.3 246.6 Q 288.9 245.9, 288.2 245.9 Q 287.4 245.9, 287.0 246.6 Q 286.6 247.3, 286.6 248.7 Q 286.6 250.0, 287.0 250.7 Q 287.4 251.4, 288.2 251.4 " fill="#000000"/>
<path class="note" d="M 333.1 222.9 L 334.6 222.9 L 334.6 217.8 L 333.0 218.3 L 332.7 217.7 L 334.9 216.8 L 335.6 216.9 L 335.6 222.9 L 336.9 222.9 L 336.9 223.7 L 333.1 223.7 L 333.1 222.9 " fill="#000000"/>
<path class="note" d="M 338.1 222.9 L 339.6 222.9 L 339.6 217.8 L 338.0 218.3 L 337.7 217.7 L 339.8 216.8 L 340.5 216.9 L 340.5 222.9 L 341.9 222.9 L 341.9 223.7 L 338.1 223.7 L 338.1 222.9 " fill="#000000"/>
<path class="note" d="M 331.4 159.3 Q 332.0 159.6, 332.4 160.0 Q 332.7 160.4, 332.7 161.1 Q 332.7 161.6, 332.4 162.1 Q 332.1 162.5, 331.6 162.8 Q 331.0 163.0, 330.3 163.0 Q 329.2 163.0, 328.5 162.5 Q 327.9 162.0, 327.9 161.1 Q 327.9 160.5, 328.2 160.1 Q 328.4 159.6, 329.0 159.3 Q 328.6 159.1, 328.4 158.7 Q 328.1 158.3, 328.1 157.7 Q 328.1 156.9, 328.7 156.5 Q 329.3 156.0, 330.3 156.0 Q 331.3 156.0, 331.9 156.5 Q 332.5 156.9, 332.5 157.7 Q 332.5 158.2, 332.2 158.6 Q 331.9 159.0, 331.4 159.3 M 330.3 156.7 Q 329.7 156.7, 329.4 157.0 Q 329.1 157.3, 329.1 157.7 Q 329.1 158.1, 329.3 158.3 Q 329.5 158.6, 329.8 158.7 Q 330.1 158.9, 330.7 159.1 Q 331.1 158.8, 331.3 158.5 Q 331.5 158.1, 331.5 157.7 Q 331.5 157.3, 331.2 157.0 Q 330.9 156.7, 330.3 156.7 M 330.3 162.3 Q 331.0 162.3, 331.4 162.0 Q 331.8 161.6, 331.8 161.0 Q 331.8 160.7, 331.5 160.4 Q 331.3 160.2, 331.0 160.1 Q 330.7 159.9, 330.2 159.8 L 329.8 159.6 Q 329.3 159.9, 329.0 160.3 Q 328.8 160.6, 328.8 161.0 Q 328.8 161.6, 329.2 162.0 Q 329.7 162.3, 330.3 162.3 " fill="#000000"/>
<path class="note" d="M 289.5 132.5 L 285.9 132.5 L 285.9 131.7 L 290.5 131.7 L 290.5 132.4 L 287.7 138.6 L 286.7 138.6 L 289.5 132.5 " fill="#000000"/>
<path class="note" d="M 372.3 131.7 Q 373.6 131.7, 374.2 132.5 Q 374.8 133.3, 374.8 135.0 Q 374.8 136.8, 374.0 137.8 Q 373.3 138.7, 371.8 138.7 Q 371.4 138.7, 371.0 138.6 Q 370.6 138.5, 370.3 138.3 L 370.7 137.7 Q 371.2 137.9, 371.8 137.9 Q 372.8 137.9, 373.3 137.3 Q 373.8 136.7, 373.8 135.4 Q 373.5 135.7, 373.0 135.9 Q 372.6 136.0, 372.1 136.0 Q 371.5 136.0, 371.0 135.8 Q 370.6 135.5, 370.3 135.0 Q 370.0 134.6, 370.0 134.0 Q 370.0 133.3, 370.3 132.8 Q 370.6 132.2, 371.1 132.0 Q 371.7 131.7, 372.3 131.7 M 371.0 134.0 Q 371.0 134.6, 371.3 134.9 Q 371.7 135.3, 372.3 135.3 Q 372.7 135.3, 373.1 135.1 Q 373.5 134.9, 373.8 134.6 Q 373.8 133.5, 373.4 133.0 Q 373.1 132.5, 372.3 132.5 Q 372.0 132.5, 371.6 132.7 Q 371.3 132.9, 371.2 133.2 Q 371.0 133.5, 371.0 134.0 " fill="#000000"/>
<path class="note" d="M 405.8 177.3 L 407.3 177.3 L 407.3 172.1 L 405.7 172.7 L 405.4 172.1 L 407.6 171.1 L 408.2 171.3 L 408.2 177.3 L 409.6 177.3 L 409.6 178.1 L 405.8 178.1 L 405.8 177.3 " fill="#000000"/>
<path class="note" d="M 413.0 178.1 Q 411.7 178.1, 411.1 177.2 Q 410.5 176.3, 410.5 174.6 Q 410.5 173.0, 411.1 172.0 Q 411.7 171.1, 413.0 171.1 Q 414.3 171.1, 414.9 172.0 Q 415.5 173.0, 415.5 174.6 Q 415.5 176.3, 414.9 177.2 Q 414.3 178.1, 413.0 178.1 M 413.0 177.4 Q 413.7 177.4, 414.1 176.7 Q 414.5 176.0, 414.5 174.6 Q 414.5 173.3, 414.1 172.6 Q 413.7 171.9, 413.0 171.9 Q 412.2 171.9, 411.8 172.6 Q 411.4 173.3, 411.4 174.6 Q 411.4 176.0, 411.8 176.7 Q 412.2 177.4, 413.0 177.4 " fill="#000000"/>
<path class="note" d="M 120.7 232.3 Q 121.4 232.5, 121.7 232.9 Q 122.0 233.3, 122.0 234.0 Q 122.0 234.6, 121.7 235.1 Q 121.4 235.5, 120.9 235.8 Q 120.4 236.0, 119.7 236.0 Q 118.9 236.0, 118.4 235.7 Q 117.8 235.5, 117.4 235.0 L 117.9 234.4 Q 118.4 234.9, 118.7 235.0 Q 119.1 235.2, 119.7 235.2 Q 120.3 235.2, 120.7 234.9 Q 121.0 234.5, 121.0 234.0 Q 121.0 233.3, 120.6 233.0 Q 120.3 232.7, 119.4 232.7 L 118.9 232.7 L 118.9 232.0 L 119.4 232.0 Q 120.1 232.0, 120.5 231.6 Q 120.9 231.3, 120.9 230.7 Q 120.9 230.2, 120.6 230.0 Q 120.2 229.7, 119.7 229.7 Q 119.1 229.7, 118.7 229.9 Q 118.4 230.1, 118.1 230.6 L 117.4 230.3 Q 117.7 229.7, 118.3 229.3 Q 118.9 228.9, 119.7 228.9 Q 120.7 228.9, 121.3 229.4 Q 121.9 229.9, 121.9 230.7 Q 121.9 231.2, 121.6 231.6 Q 121.3 232.0, 120.7 232.3 " fill="#000000"/>
<path class="note" d="M 79.4 209.2 L 80.2 209.2 L 80.2 210.0 L 79.4 210.0 L 79.4 211.5 L 78.5 211.5 L 78.5 210.0 L 74.9 210.0 L 74.9 209.3 L 78.0 204.7 L 79.4 204.7 L 79.4 209.2 M 76.1 209.2 L 78.5 209.2 L 78.5 205.3 L 76.1 209.2 " fill="#000000"/>
<path class="note" d="M 127.8 293.0 Q 128.4 293.3, 128.8 293.7 Q 129.2 294.1, 129.2 294.8 Q 129.2 295.4, 128.9 295.8 Q 128.6 296.3, 128.0 296.5 Q 127.5 296.8, 126.8 296.8 Q 125.6 296.8, 125.0 296.3 Q 124.3 295.7, 124.3 294.8 Q 124.3 294.2, 124.6 293.8 Q 124.9 293.4, 125.5 293.1 Q 125.0 292.8, 124.8 292.4 Q 124.5 292.1, 124.5 291.5 Q 124.5 290.7, 125.1 290.2 Q 125.7 289.7, 126.7 289.7 Q 127.7 289.7, 128.3 290.2 Q 128.9 290.7, 128.9 291.5 Q 128.9 292.0, 128.6 292.4 Q 128.3 292.7, 127.8 293.0 M 126.7 290.5 Q 126.2 290.5, 125.8 290.7 Q 125.5 291.0, 125.5 291.5 Q 125.5 291.8, 125.7 292.1 Q 125.9 292.3, 126.2 292.5 Q 126.6 292.6, 127.2 292.8 Q 127.6 292.5, 127.7 292.2 Q 127.9 291.9, 127.9 291.5 Q 127.9 291.0, 127.6 290.7 Q 127.3 290.5, 126.7 290.5 M 126.8 296.1 Q 127.4 296.1, 127.8 295.7 Q 128.2 295.4, 128.2 294.8 Q 128.2 294.4, 128.0 294.2 Q 127.8 294.0, 127.5 293.8 Q 127.2 293.7, 126.6 293.5 L 126.2 293.4 Q 125.7 293.7, 125.5 294.0 Q 125.3 294.3, 125.3 294.8 Q 125.3 295.4, 125.7 295.7 Q 126.1 296.1, 126.8 296.1 " fill="#000000"/>
<path class="note" d="M 28.6 235.6 Q 29.2 235.6, 29.7 235.9 Q 30.2 236.1, 30.5 236.6 Q 30.8 237.1, 30.8 237.7 Q 30.8 238.4, 30.4 239.0 Q 30.1 239.5, 29.5 239.7 Q 29.0 240.0, 28.3 240.0 Q 27.7 240.0, 27.1 239.8 Q 26.5 239.5, 26.1 239.1 L 26.7 238.5 Q 27.0 238.8, 27.5 239.0 Q 27.9 239.2, 28.3 239.2 Q 29.0 239.2, 29.4 238.8 Q 29.8 238.4, 29.8 237.8 Q 29.8 237.0, 29.4 236.7 Q 29.0 236.3, 28.3 236.3 Q 27.7 236.3, 27.0 236.6 L 26.5 236.3 L 26.8 233.0 L 30.4 233.0 L 30.3 233.8 L 27.6 233.8 L 27.4 235.8 Q 28.0 235.6, 28.6 235.6 " fill="#000000"/>
<path class="note" d="M 78.9 318.9 L 75.3 318.9 L 75.3 318.1 L 79.9 318.1 L 79.9 318.8 L 77.1 325.0 L 76.2 325.0 L 78.9 318.9 " fill="#000000"/>
<path class="note" d="M 28.8 292.4 Q 29.4 292.4, 29.8 292.7 Q 30.3 292.9, 30.6 293.4 Q 30.8 293.9, 30.8 294.5 Q 30.8 295.1, 30.5 295.7 Q 30.2 296.2, 29.7 296.5 Q 29.2 296.8, 28.5 296.8 Q 27.3 296.8, 26.7 295.9 Q 26.1 295.1, 26.1 293.5 Q 26.1 291.6, 26.8 290.7 Q 27.6 289.7, 29.1 289.7 Q 29.5 289.7, 29.8 289.8 Q 30.2 289.9, 30.6 290.1 L 30.2 290.8 Q 29.7 290.5, 29.1 290.5 Q 28.1 290.5, 27.6 291.1 Q 27.1 291.8, 27.0 293.1 Q 27.4 292.7, 27.8 292.6 Q 28.3 292.4, 28.8 292.4 M 28.5 296.0 Q 28.9 296.0, 29.2 295.8 Q 29.5 295.6, 29.7 295.2 Q 29.9 294.9, 29.9 294.5 Q 29.9 293.9, 29.5 293.5 Q 29.2 293.2, 28.6 293.2 Q 28.2 293.2, 27.7 293.3 Q 27.3 293.5, 27.0 293.8 Q 27.1 294.9, 27.4 295.5 Q 27.8 296.0, 28.5 296.0 " fill="#000000"/>
</svg>