<svg xmlns="http://www.w3.org/2000/svg" xmlns:rdkit="http://www.rdkit.org/xml" xmlns:xlink="http://www.w3.org/1999/xlink" version="1.1" baseProfile="full" xml:space="preserve" width="300px" height="300px" viewBox="0 0 300 300">
<!-- END OF HEADER -->
<rect style="opacity:1.0;fill:#FFFFFF;stroke:none" width="300.0" height="300.0" x="0.0" y="0.0"> </rect>
<path class="bond-0 atom-0 atom-1" d="M 260.8,285.0 L 260.9,263.8" style="fill:none;fill-rule:evenodd;stroke:#000000;stroke-width:2.0px;stroke-linecap:butt;stroke-linejoin:miter;stroke-opacity:1"/>
<path class="bond-1 atom-1 atom-2" d="M 260.9,263.8 L 242.6,253.2" style="fill:none;fill-rule:evenodd;stroke:#000000;stroke-width:2.0px;stroke-linecap:butt;stroke-linejoin:miter;stroke-opacity:1"/>
<path class="bond-2 atom-2 atom-3" d="M 242.6,253.2 L 242.6,232.0" style="fill:none;fill-rule:evenodd;stroke:#000000;stroke-width:2.0px;stroke-linecap:butt;stroke-linejoin:miter;stroke-opacity:1"/>
<path class="bond-3 atom-3 atom-4" d="M 242.6,232.0 L 224.3,221.3" style="fill:none;fill-rule:evenodd;stroke:#000000;stroke-width:2.0px;stroke-linecap:butt;stroke-linejoin:miter;stroke-opacity:1"/>
<path class="bond-4 atom-4 atom-5" d="M 224.3,221.3 L 224.4,200.1" style="fill:none;fill-rule:evenodd;stroke:#000000;stroke-width:2.0px;stroke-linecap:butt;stroke-linejoin:miter;stroke-opacity:1"/>
<path class="bond-5 atom-5 atom-6" d="M 224.4,200.1 L 206.1,189.5" style="fill:none;fill-rule:evenodd;stroke:#000000;stroke-width:2.0px;stroke-linecap:butt;stroke-linejoin:miter;stroke-opacity:1"/>
<path class="bond-6 atom-6 atom-7" d="M 206.1,189.5 L 206.2,168.3" style="fill:none;fill-rule:evenodd;stroke:#000000;stroke-width:2.0px;stroke-linecap:butt;stroke-linejoin:miter;stroke-opacity:1"/>
<path class="bond-7 atom-7 atom-8" d="M 206.2,168.3 L 187.9,157.6" style="fill:none;fill-rule:evenodd;stroke:#000000;stroke-width:2.0px;stroke-linecap:butt;stroke-linejoin:miter;stroke-opacity:1"/>
<path class="bond-8 atom-8 atom-9" d="M 187.9,157.6 L 169.5,168.1" style="fill:none;fill-rule:evenodd;stroke:#000000;stroke-width:2.0px;stroke-linecap:butt;stroke-linejoin:miter;stroke-opacity:1"/>
<path class="bond-8 atom-8 atom-9" d="M 184.7,155.8 L 169.5,164.5" style="fill:none;fill-rule:evenodd;stroke:#000000;stroke-width:2.0px;stroke-linecap:butt;stroke-linejoin:miter;stroke-opacity:1"/>
<path class="bond-9 atom-9 atom-10" d="M 169.5,168.1 L 151.2,157.5" style="fill:none;fill-rule:evenodd;stroke:#000000;stroke-width:2.0px;stroke-linecap:butt;stroke-linejoin:miter;stroke-opacity:1"/>
<path class="bond-10 atom-10 atom-11" d="M 151.2,157.5 L 151.2,136.3" style="fill:none;fill-rule:evenodd;stroke:#000000;stroke-width:2.0px;stroke-linecap:butt;stroke-linejoin:miter;stroke-opacity:1"/>
<path class="bond-10 atom-10 atom-11" d="M 154.3,155.7 L 154.4,138.1" style="fill:none;fill-rule:evenodd;stroke:#000000;stroke-width:2.0px;stroke-linecap:butt;stroke-linejoin:miter;stroke-opacity:1"/>
<path class="bond-11 atom-11 atom-12" d="M 151.2,136.3 L 144.1,132.2" style="fill:none;fill-rule:evenodd;stroke:#000000;stroke-width:2.0px;stroke-linecap:butt;stroke-linejoin:miter;stroke-opacity:1"/>
<path class="bond-11 atom-11 atom-12" d="M 144.1,132.2 L 137.0,128.0" style="fill:none;fill-rule:evenodd;stroke:#0000FF;stroke-width:2.0px;stroke-linecap:butt;stroke-linejoin:miter;stroke-opacity:1"/>
<path class="bond-12 atom-12 atom-13" d="M 132.9,120.4 L 133.0,112.4" style="fill:none;fill-rule:evenodd;stroke:#0000FF;stroke-width:2.0px;stroke-linecap:butt;stroke-linejoin:miter;stroke-opacity:1"/>
<path class="bond-12 atom-12 atom-13" d="M 133.0,112.4 L 133.0,104.4" style="fill:none;fill-rule:evenodd;stroke:#000000;stroke-width:2.0px;stroke-linecap:butt;stroke-linejoin:miter;stroke-opacity:1"/>
<path class="bond-13 atom-13 atom-14" d="M 133.0,106.3 L 140.2,102.2" style="fill:none;fill-rule:evenodd;stroke:#000000;stroke-width:2.0px;stroke-linecap:butt;stroke-linejoin:miter;stroke-opacity:1"/>
<path class="bond-13 atom-13 atom-14" d="M 140.2,102.2 L 147.3,98.1" style="fill:none;fill-rule:evenodd;stroke:#FF0000;stroke-width:2.0px;stroke-linecap:butt;stroke-linejoin:miter;stroke-opacity:1"/>
<path class="bond-13 atom-13 atom-14" d="M 131.4,103.5 L 138.6,99.4" style="fill:none;fill-rule:evenodd;stroke:#000000;stroke-width:2.0px;stroke-linecap:butt;stroke-linejoin:miter;stroke-opacity:1"/>
<path class="bond-13 atom-13 atom-14" d="M 138.6,99.4 L 145.8,95.3" style="fill:none;fill-rule:evenodd;stroke:#FF0000;stroke-width:2.0px;stroke-linecap:butt;stroke-linejoin:miter;stroke-opacity:1"/>
<path class="bond-14 atom-13 atom-15" d="M 133.0,104.4 L 114.7,93.8" style="fill:none;fill-rule:evenodd;stroke:#000000;stroke-width:2.0px;stroke-linecap:butt;stroke-linejoin:miter;stroke-opacity:1"/>
<path class="bond-15 atom-15 atom-16" d="M 114.7,93.8 L 108.3,98.4 L 107.5,97.0 Z" style="fill:#000000;fill-rule:evenodd;fill-opacity:1;stroke:#000000;stroke-width:0.5px;stroke-linecap:butt;stroke-linejoin:miter;stroke-opacity:1;"/>
<path class="bond-15 atom-15 atom-16" d="M 108.3,98.4 L 100.3,100.2 L 101.9,102.9 Z" style="fill:#0000FF;fill-rule:evenodd;fill-opacity:1;stroke:#0000FF;stroke-width:0.5px;stroke-linecap:butt;stroke-linejoin:miter;stroke-opacity:1;"/>
<path class="bond-15 atom-15 atom-16" d="M 108.3,98.4 L 107.5,97.0 L 100.3,100.2 Z" style="fill:#0000FF;fill-rule:evenodd;fill-opacity:1;stroke:#0000FF;stroke-width:0.5px;stroke-linecap:butt;stroke-linejoin:miter;stroke-opacity:1;"/>
<path class="bond-16 atom-15 atom-17" d="M 114.7,93.8 L 114.8,72.6" style="fill:none;fill-rule:evenodd;stroke:#000000;stroke-width:2.0px;stroke-linecap:butt;stroke-linejoin:miter;stroke-opacity:1"/>
<path class="bond-17 atom-17 atom-18" d="M 114.8,72.6 L 108.0,68.7" style="fill:none;fill-rule:evenodd;stroke:#000000;stroke-width:2.0px;stroke-linecap:butt;stroke-linejoin:miter;stroke-opacity:1"/>
<path class="bond-17 atom-17 atom-18" d="M 108.0,68.7 L 101.3,64.7" style="fill:none;fill-rule:evenodd;stroke:#FF0000;stroke-width:2.0px;stroke-linecap:butt;stroke-linejoin:miter;stroke-opacity:1"/>
<path class="bond-18 atom-18 atom-19" d="M 96.5,56.7 L 96.5,51.3" style="fill:none;fill-rule:evenodd;stroke:#FF0000;stroke-width:2.0px;stroke-linecap:butt;stroke-linejoin:miter;stroke-opacity:1"/>
<path class="bond-18 atom-18 atom-19" d="M 96.5,51.3 L 96.5,45.9" style="fill:none;fill-rule:evenodd;stroke:#FF7F00;stroke-width:2.0px;stroke-linecap:butt;stroke-linejoin:miter;stroke-opacity:1"/>
<path class="bond-19 atom-19 atom-20" d="M 98.1,35.5 L 98.2,30.2" style="fill:none;fill-rule:evenodd;stroke:#FF7F00;stroke-width:2.0px;stroke-linecap:butt;stroke-linejoin:miter;stroke-opacity:1"/>
<path class="bond-19 atom-19 atom-20" d="M 98.2,30.2 L 98.2,24.9" style="fill:none;fill-rule:evenodd;stroke:#FF0000;stroke-width:2.0px;stroke-linecap:butt;stroke-linejoin:miter;stroke-opacity:1"/>
<path class="bond-19 atom-19 atom-20" d="M 95.0,35.5 L 95.0,30.2" style="fill:none;fill-rule:evenodd;stroke:#FF7F00;stroke-width:2.0px;stroke-linecap:butt;stroke-linejoin:miter;stroke-opacity:1"/>
<path class="bond-19 atom-19 atom-20" d="M 95.0,30.2 L 95.0,24.9" style="fill:none;fill-rule:evenodd;stroke:#FF0000;stroke-width:2.0px;stroke-linecap:butt;stroke-linejoin:miter;stroke-opacity:1"/>
<path class="bond-20 atom-19 atom-21" d="M 93.0,40.7 L 86.6,40.7" style="fill:none;fill-rule:evenodd;stroke:#FF7F00;stroke-width:2.0px;stroke-linecap:butt;stroke-linejoin:miter;stroke-opacity:1"/>
<path class="bond-20 atom-19 atom-21" d="M 86.6,40.7 L 80.2,40.7" style="fill:none;fill-rule:evenodd;stroke:#FF0000;stroke-width:2.0px;stroke-linecap:butt;stroke-linejoin:miter;stroke-opacity:1"/>
<path class="bond-21 atom-19 atom-22" d="M 100.1,40.8 L 106.5,40.8" style="fill:none;fill-rule:evenodd;stroke:#FF7F00;stroke-width:2.0px;stroke-linecap:butt;stroke-linejoin:miter;stroke-opacity:1"/>
<path class="bond-21 atom-19 atom-22" d="M 106.5,40.8 L 112.9,40.8" style="fill:none;fill-rule:evenodd;stroke:#FF0000;stroke-width:2.0px;stroke-linecap:butt;stroke-linejoin:miter;stroke-opacity:1"/>
<path class="bond-22 atom-11 atom-23" d="M 151.2,136.3 L 169.6,125.8" style="fill:none;fill-rule:evenodd;stroke:#000000;stroke-width:2.0px;stroke-linecap:butt;stroke-linejoin:miter;stroke-opacity:1"/>
<path class="bond-23 atom-23 atom-24" d="M 169.6,125.8 L 187.9,136.4" style="fill:none;fill-rule:evenodd;stroke:#000000;stroke-width:2.0px;stroke-linecap:butt;stroke-linejoin:miter;stroke-opacity:1"/>
<path class="bond-23 atom-23 atom-24" d="M 169.6,129.4 L 184.7,138.2" style="fill:none;fill-rule:evenodd;stroke:#000000;stroke-width:2.0px;stroke-linecap:butt;stroke-linejoin:miter;stroke-opacity:1"/>
<path class="bond-24 atom-25 atom-26" d="M 57.0,207.2 L 63.7,203.3" style="fill:none;fill-rule:evenodd;stroke:#FF0000;stroke-width:2.0px;stroke-linecap:butt;stroke-linejoin:miter;stroke-opacity:1"/>
<path class="bond-24 atom-25 atom-26" d="M 63.7,203.3 L 70.5,199.4" style="fill:none;fill-rule:evenodd;stroke:#000000;stroke-width:2.0px;stroke-linecap:butt;stroke-linejoin:miter;stroke-opacity:1"/>
<path class="bond-25 atom-26 atom-27" d="M 72.1,200.3 L 72.1,192.0" style="fill:none;fill-rule:evenodd;stroke:#000000;stroke-width:2.0px;stroke-linecap:butt;stroke-linejoin:miter;stroke-opacity:1"/>
<path class="bond-25 atom-26 atom-27" d="M 72.1,192.0 L 72.1,183.6" style="fill:none;fill-rule:evenodd;stroke:#FF0000;stroke-width:2.0px;stroke-linecap:butt;stroke-linejoin:miter;stroke-opacity:1"/>
<path class="bond-25 atom-26 atom-27" d="M 68.9,200.3 L 68.9,192.0" style="fill:none;fill-rule:evenodd;stroke:#000000;stroke-width:2.0px;stroke-linecap:butt;stroke-linejoin:miter;stroke-opacity:1"/>
<path class="bond-25 atom-26 atom-27" d="M 68.9,192.0 L 68.9,183.6" style="fill:none;fill-rule:evenodd;stroke:#FF0000;stroke-width:2.0px;stroke-linecap:butt;stroke-linejoin:miter;stroke-opacity:1"/>
<path class="bond-26 atom-26 atom-28" d="M 70.5,199.4 L 88.8,210.0" style="fill:none;fill-rule:evenodd;stroke:#000000;stroke-width:2.0px;stroke-linecap:butt;stroke-linejoin:miter;stroke-opacity:1"/>
<path class="bond-27 atom-28 atom-29" d="M 88.8,210.0 L 85.0,216.6" style="fill:none;fill-rule:evenodd;stroke:#000000;stroke-width:2.0px;stroke-linecap:butt;stroke-linejoin:miter;stroke-opacity:1"/>
<path class="bond-27 atom-28 atom-29" d="M 85.0,216.6 L 81.2,223.2" style="fill:none;fill-rule:evenodd;stroke:#33CCCC;stroke-width:2.0px;stroke-linecap:butt;stroke-linejoin:miter;stroke-opacity:1"/>
<path class="bond-28 atom-28 atom-30" d="M 88.8,210.0 L 92.6,216.6" style="fill:none;fill-rule:evenodd;stroke:#000000;stroke-width:2.0px;stroke-linecap:butt;stroke-linejoin:miter;stroke-opacity:1"/>
<path class="bond-28 atom-28 atom-30" d="M 92.6,216.6 L 96.4,223.2" style="fill:none;fill-rule:evenodd;stroke:#33CCCC;stroke-width:2.0px;stroke-linecap:butt;stroke-linejoin:miter;stroke-opacity:1"/>
<path class="bond-29 atom-28 atom-31" d="M 88.8,210.0 L 96.3,205.7" style="fill:none;fill-rule:evenodd;stroke:#000000;stroke-width:2.0px;stroke-linecap:butt;stroke-linejoin:miter;stroke-opacity:1"/>
<path class="bond-29 atom-28 atom-31" d="M 96.3,205.7 L 103.8,201.4" style="fill:none;fill-rule:evenodd;stroke:#33CCCC;stroke-width:2.0px;stroke-linecap:butt;stroke-linejoin:miter;stroke-opacity:1"/>
<path class="bond-30 atom-24 atom-8" d="M 187.9,136.4 L 187.9,157.6" style="fill:none;fill-rule:evenodd;stroke:#000000;stroke-width:2.0px;stroke-linecap:butt;stroke-linejoin:miter;stroke-opacity:1"/>
<path d="M 260.9,264.9 L 260.9,263.8 L 260.0,263.3" style="fill:none;stroke:#000000;stroke-width:2.0px;stroke-linecap:butt;stroke-linejoin:miter;stroke-opacity:1;"/>
<path d="M 243.5,253.7 L 242.6,253.2 L 242.6,252.1" style="fill:none;stroke:#000000;stroke-width:2.0px;stroke-linecap:butt;stroke-linejoin:miter;stroke-opacity:1;"/>
<path d="M 242.6,233.0 L 242.6,232.0 L 241.7,231.4" style="fill:none;stroke:#000000;stroke-width:2.0px;stroke-linecap:butt;stroke-linejoin:miter;stroke-opacity:1;"/>
<path d="M 225.2,221.8 L 224.3,221.3 L 224.3,220.2" style="fill:none;stroke:#000000;stroke-width:2.0px;stroke-linecap:butt;stroke-linejoin:miter;stroke-opacity:1;"/>
<path d="M 224.4,201.2 L 224.4,200.1 L 223.5,199.6" style="fill:none;stroke:#000000;stroke-width:2.0px;stroke-linecap:butt;stroke-linejoin:miter;stroke-opacity:1;"/>
<path d="M 207.0,190.0 L 206.1,189.5 L 206.1,188.4" style="fill:none;stroke:#000000;stroke-width:2.0px;stroke-linecap:butt;stroke-linejoin:miter;stroke-opacity:1;"/>
<path d="M 206.2,169.3 L 206.2,168.3 L 205.3,167.7" style="fill:none;stroke:#000000;stroke-width:2.0px;stroke-linecap:butt;stroke-linejoin:miter;stroke-opacity:1;"/>
<path d="M 170.4,167.6 L 169.5,168.1 L 168.6,167.6" style="fill:none;stroke:#000000;stroke-width:2.0px;stroke-linecap:butt;stroke-linejoin:miter;stroke-opacity:1;"/>
<path d="M 152.1,158.0 L 151.2,157.5 L 151.2,156.4" style="fill:none;stroke:#000000;stroke-width:2.0px;stroke-linecap:butt;stroke-linejoin:miter;stroke-opacity:1;"/>
<path d="M 133.0,104.8 L 133.0,104.4 L 132.1,103.9" style="fill:none;stroke:#000000;stroke-width:2.0px;stroke-linecap:butt;stroke-linejoin:miter;stroke-opacity:1;"/>
<path d="M 115.6,94.3 L 114.7,93.8 L 114.7,92.7" style="fill:none;stroke:#000000;stroke-width:2.0px;stroke-linecap:butt;stroke-linejoin:miter;stroke-opacity:1;"/>
<path d="M 114.8,73.7 L 114.8,72.6 L 114.4,72.4" style="fill:none;stroke:#000000;stroke-width:2.0px;stroke-linecap:butt;stroke-linejoin:miter;stroke-opacity:1;"/>
<path d="M 168.7,126.3 L 169.6,125.8 L 170.5,126.3" style="fill:none;stroke:#000000;stroke-width:2.0px;stroke-linecap:butt;stroke-linejoin:miter;stroke-opacity:1;"/>
<path d="M 187.0,135.9 L 187.9,136.4 L 187.9,137.5" style="fill:none;stroke:#000000;stroke-width:2.0px;stroke-linecap:butt;stroke-linejoin:miter;stroke-opacity:1;"/>
<path d="M 70.2,199.6 L 70.5,199.4 L 71.4,199.9" style="fill:none;stroke:#000000;stroke-width:2.0px;stroke-linecap:butt;stroke-linejoin:miter;stroke-opacity:1;"/>
<path class="atom-12" d="M 120.7 121.1 L 121.9 121.1 L 121.9 125.0 L 126.5 125.0 L 126.5 121.1 L 127.7 121.1 L 127.7 130.1 L 126.5 130.1 L 126.5 126.0 L 121.9 126.0 L 121.9 130.1 L 120.7 130.1 L 120.7 121.1 " fill="#0000FF"/>
<path class="atom-12" d="M 130.9 121.1 L 133.9 125.9 Q 134.2 126.4, 134.6 127.2 Q 135.1 128.1, 135.1 128.1 L 135.1 121.1 L 136.3 121.1 L 136.3 130.1 L 135.1 130.1 L 131.9 124.9 Q 131.6 124.3, 131.2 123.6 Q 130.8 122.9, 130.7 122.7 L 130.7 130.1 L 129.5 130.1 L 129.5 121.1 L 130.9 121.1 " fill="#0000FF"/>
<path class="atom-14" d="M 147.3 93.9 Q 147.3 91.8, 148.3 90.6 Q 149.4 89.4, 151.4 89.4 Q 153.4 89.4, 154.4 90.6 Q 155.5 91.8, 155.5 93.9 Q 155.5 96.1, 154.4 97.4 Q 153.4 98.6, 151.4 98.6 Q 149.4 98.6, 148.3 97.4 Q 147.3 96.1, 147.3 93.9 M 151.4 97.6 Q 152.8 97.6, 153.5 96.7 Q 154.2 95.7, 154.2 93.9 Q 154.2 92.2, 153.5 91.3 Q 152.8 90.4, 151.4 90.4 Q 150.0 90.4, 149.3 91.3 Q 148.5 92.2, 148.5 93.9 Q 148.5 95.8, 149.3 96.7 Q 150.0 97.6, 151.4 97.6 " fill="#FF0000"/>
<path class="atom-16" d="M 78.9 99.8 L 80.1 99.8 L 80.1 103.6 L 84.7 103.6 L 84.7 99.8 L 86.0 99.8 L 86.0 108.8 L 84.7 108.8 L 84.7 104.7 L 80.1 104.7 L 80.1 108.8 L 78.9 108.8 L 78.9 99.8 " fill="#0000FF"/>
<path class="atom-16" d="M 87.7 108.5 Q 87.9 107.9, 88.5 107.6 Q 89.0 107.3, 89.7 107.3 Q 90.6 107.3, 91.1 107.8 Q 91.6 108.3, 91.6 109.1 Q 91.6 110.0, 91.0 110.8 Q 90.3 111.7, 89.0 112.6 L 91.7 112.6 L 91.7 113.3 L 87.7 113.3 L 87.7 112.7 Q 88.8 112.0, 89.5 111.4 Q 90.1 110.8, 90.5 110.3 Q 90.8 109.7, 90.8 109.2 Q 90.8 108.6, 90.5 108.3 Q 90.2 108.0, 89.7 108.0 Q 89.2 108.0, 88.9 108.2 Q 88.6 108.4, 88.4 108.8 L 87.7 108.5 " fill="#0000FF"/>
<path class="atom-16" d="M 94.3 99.8 L 97.3 104.6 Q 97.6 105.0, 98.0 105.9 Q 98.5 106.7, 98.5 106.8 L 98.5 99.8 L 99.7 99.8 L 99.7 108.8 L 98.5 108.8 L 95.3 103.6 Q 94.9 103.0, 94.5 102.3 Q 94.2 101.6, 94.1 101.4 L 94.1 108.8 L 92.9 108.8 L 92.9 99.8 L 94.3 99.8 " fill="#0000FF"/>
<path class="atom-18" d="M 92.3 62.0 Q 92.3 59.8, 93.4 58.6 Q 94.5 57.4, 96.5 57.4 Q 98.4 57.4, 99.5 58.6 Q 100.6 59.8, 100.6 62.0 Q 100.6 64.1, 99.5 65.4 Q 98.4 66.6, 96.5 66.6 Q 94.5 66.6, 93.4 65.4 Q 92.3 64.2, 92.3 62.0 M 96.5 65.6 Q 97.8 65.6, 98.6 64.7 Q 99.3 63.8, 99.3 62.0 Q 99.3 60.2, 98.6 59.3 Q 97.8 58.4, 96.5 58.4 Q 95.1 58.4, 94.3 59.3 Q 93.6 60.2, 93.6 62.0 Q 93.6 63.8, 94.3 64.7 Q 95.1 65.6, 96.5 65.6 " fill="#FF0000"/>
<path class="atom-19" d="M 96.3 36.2 Q 97.8 36.2, 98.6 36.9 Q 99.4 37.6, 99.4 38.9 Q 99.4 40.1, 98.6 40.8 Q 97.8 41.5, 96.3 41.5 L 94.9 41.5 L 94.9 45.2 L 93.7 45.2 L 93.7 36.2 L 96.3 36.2 M 96.3 40.5 Q 97.2 40.5, 97.7 40.1 Q 98.1 39.7, 98.1 38.9 Q 98.1 38.1, 97.7 37.7 Q 97.2 37.3, 96.3 37.3 L 94.9 37.3 L 94.9 40.5 L 96.3 40.5 " fill="#FF7F00"/>
<path class="atom-20" d="M 92.5 19.6 Q 92.5 17.4, 93.5 16.2 Q 94.6 15.0, 96.6 15.0 Q 98.6 15.0, 99.7 16.2 Q 100.7 17.4, 100.7 19.6 Q 100.7 21.8, 99.7 23.0 Q 98.6 24.2, 96.6 24.2 Q 94.6 24.2, 93.5 23.0 Q 92.5 21.8, 92.5 19.6 M 96.6 23.2 Q 98.0 23.2, 98.7 22.3 Q 99.5 21.4, 99.5 19.6 Q 99.5 17.8, 98.7 16.9 Q 98.0 16.0, 96.6 16.0 Q 95.2 16.0, 94.5 16.9 Q 93.7 17.8, 93.7 19.6 Q 93.7 21.4, 94.5 22.3 Q 95.2 23.2, 96.6 23.2 " fill="#FF0000"/>
<path class="atom-21" d="M 62.3 36.2 L 63.5 36.2 L 63.5 40.0 L 68.1 40.0 L 68.1 36.2 L 69.4 36.2 L 69.4 45.2 L 68.1 45.2 L 68.1 41.1 L 63.5 41.1 L 63.5 45.2 L 62.3 45.2 L 62.3 36.2 " fill="#FF0000"/>
<path class="atom-21" d="M 71.2 40.7 Q 71.2 38.5, 72.3 37.3 Q 73.3 36.1, 75.3 36.1 Q 77.3 36.1, 78.4 37.3 Q 79.5 38.5, 79.5 40.7 Q 79.5 42.9, 78.4 44.1 Q 77.3 45.4, 75.3 45.4 Q 73.4 45.4, 72.3 44.1 Q 71.2 42.9, 71.2 40.7 M 75.3 44.3 Q 76.7 44.3, 77.4 43.4 Q 78.2 42.5, 78.2 40.7 Q 78.2 38.9, 77.4 38.0 Q 76.7 37.1, 75.3 37.1 Q 74.0 37.1, 73.2 38.0 Q 72.5 38.9, 72.5 40.7 Q 72.5 42.5, 73.2 43.4 Q 74.0 44.3, 75.3 44.3 " fill="#FF0000"/>
<path class="atom-22" d="M 113.6 40.8 Q 113.6 38.7, 114.7 37.5 Q 115.7 36.3, 117.7 36.3 Q 119.7 36.3, 120.8 37.5 Q 121.8 38.7, 121.8 40.8 Q 121.8 43.0, 120.8 44.3 Q 119.7 45.5, 117.7 45.5 Q 115.7 45.5, 114.7 44.3 Q 113.6 43.0, 113.6 40.8 M 117.7 44.5 Q 119.1 44.5, 119.8 43.6 Q 120.6 42.6, 120.6 40.8 Q 120.6 39.1, 119.8 38.2 Q 119.1 37.3, 117.7 37.3 Q 116.3 37.3, 115.6 38.2 Q 114.9 39.1, 114.9 40.8 Q 114.9 42.7, 115.6 43.6 Q 116.3 44.5, 117.7 44.5 " fill="#FF0000"/>
<path class="atom-22" d="M 123.2 36.4 L 124.5 36.4 L 124.5 40.2 L 129.1 40.2 L 129.1 36.4 L 130.3 36.4 L 130.3 45.4 L 129.1 45.4 L 129.1 41.2 L 124.5 41.2 L 124.5 45.4 L 123.2 45.4 L 123.2 36.4 " fill="#FF0000"/>
<path class="atom-25" d="M 39.1 205.5 L 40.3 205.5 L 40.3 209.4 L 44.9 209.4 L 44.9 205.5 L 46.2 205.5 L 46.2 214.5 L 44.9 214.5 L 44.9 210.4 L 40.3 210.4 L 40.3 214.5 L 39.1 214.5 L 39.1 205.5 " fill="#FF0000"/>
<path class="atom-25" d="M 48.0 210.0 Q 48.0 207.8, 49.1 206.6 Q 50.2 205.4, 52.1 205.4 Q 54.1 205.4, 55.2 206.6 Q 56.3 207.8, 56.3 210.0 Q 56.3 212.2, 55.2 213.4 Q 54.1 214.7, 52.1 214.7 Q 50.2 214.7, 49.1 213.4 Q 48.0 212.2, 48.0 210.0 M 52.1 213.7 Q 53.5 213.7, 54.3 212.7 Q 55.0 211.8, 55.0 210.0 Q 55.0 208.2, 54.3 207.3 Q 53.5 206.4, 52.1 206.4 Q 50.8 206.4, 50.0 207.3 Q 49.3 208.2, 49.3 210.0 Q 49.3 211.8, 50.0 212.7 Q 50.8 213.7, 52.1 213.7 " fill="#FF0000"/>
<path class="atom-27" d="M 66.4 178.2 Q 66.4 176.1, 67.5 174.9 Q 68.5 173.7, 70.5 173.7 Q 72.5 173.7, 73.6 174.9 Q 74.7 176.1, 74.7 178.2 Q 74.7 180.4, 73.6 181.7 Q 72.5 182.9, 70.5 182.9 Q 68.5 182.9, 67.5 181.7 Q 66.4 180.4, 66.4 178.2 M 70.5 181.9 Q 71.9 181.9, 72.6 181.0 Q 73.4 180.0, 73.4 178.2 Q 73.4 176.5, 72.6 175.6 Q 71.9 174.7, 70.5 174.7 Q 69.1 174.7, 68.4 175.6 Q 67.7 176.5, 67.7 178.2 Q 67.7 180.1, 68.4 181.0 Q 69.1 181.9, 70.5 181.9 " fill="#FF0000"/>
<path class="atom-29" d="M 75.6 223.9 L 80.9 223.9 L 80.9 224.9 L 76.8 224.9 L 76.8 227.6 L 80.5 227.6 L 80.5 228.7 L 76.8 228.7 L 76.8 232.9 L 75.6 232.9 L 75.6 223.9 " fill="#33CCCC"/>
<path class="atom-30" d="M 96.7 223.9 L 102.1 223.9 L 102.1 224.9 L 98.0 224.9 L 98.0 227.6 L 101.6 227.6 L 101.6 228.7 L 98.0 228.7 L 98.0 232.9 L 96.7 232.9 L 96.7 223.9 " fill="#33CCCC"/>
<path class="atom-31" d="M 104.5 194.9 L 109.9 194.9 L 109.9 196.0 L 105.7 196.0 L 105.7 198.7 L 109.4 198.7 L 109.4 199.7 L 105.7 199.7 L 105.7 203.9 L 104.5 203.9 L 104.5 194.9 " fill="#33CCCC"/>
<metadata>
<rdkit:mol xmlns:rdkit="http://www.rdkit.org/xml" version="0.9">
<rdkit:atom idx="1" atom-smiles="[CH3]" drawing-x="260.8" drawing-y="285.0" x="5.40934" y="-6.15458" z="0"/>
<rdkit:atom idx="2" atom-smiles="[CH2]" drawing-x="260.9" drawing-y="263.8" x="5.41294" y="-5.15478" z="0"/>
<rdkit:atom idx="3" atom-smiles="[CH2]" drawing-x="242.6" drawing-y="253.2" x="4.54874" y="-4.65158" z="0"/>
<rdkit:atom idx="4" atom-smiles="[CH2]" drawing-x="242.6" drawing-y="232.0" x="4.55234" y="-3.65158" z="0"/>
<rdkit:atom idx="5" atom-smiles="[CH2]" drawing-x="224.3" drawing-y="221.3" x="3.68814" y="-3.14858" z="0"/>
<rdkit:atom idx="6" atom-smiles="[CH2]" drawing-x="224.4" drawing-y="200.1" x="3.69174" y="-2.14858" z="0"/>
<rdkit:atom idx="7" atom-smiles="[CH2]" drawing-x="206.1" drawing-y="189.5" x="2.82754" y="-1.64538" z="0"/>
<rdkit:atom idx="8" atom-smiles="[CH2]" drawing-x="206.2" drawing-y="168.3" x="2.83114" y="-0.645577" z="0"/>
<rdkit:atom idx="9" atom-smiles="[c]" drawing-x="187.9" drawing-y="157.6" x="1.96714" y="-0.142377" z="0"/>
<rdkit:atom idx="10" atom-smiles="[cH]" drawing-x="169.5" drawing-y="168.1" x="1.09914" y="-0.639376" z="0"/>
<rdkit:atom idx="11" atom-smiles="[cH]" drawing-x="151.2" drawing-y="157.5" x="0.23514" y="-0.136177" z="0"/>
<rdkit:atom idx="12" atom-smiles="[c]" drawing-x="151.2" drawing-y="136.3" x="0.23854" y="0.863824" z="0"/>
<rdkit:atom idx="13" atom-smiles="[NH]" drawing-x="132.9" drawing-y="125.6" x="-0.62566" y="1.36682" z="0"/>
<rdkit:atom idx="14" atom-smiles="[C]" drawing-x="133.0" drawing-y="104.4" x="-0.62206" y="2.36682" z="0"/>
<rdkit:atom idx="15" atom-smiles="[O]" drawing-x="151.4" drawing-y="93.9" x="0.24574" y="2.86362" z="0"/>
<rdkit:atom idx="16" atom-smiles="[C@@H]" drawing-x="114.7" drawing-y="93.8" x="-1.48626" y="2.87002" z="0"/>
<rdkit:atom idx="17" atom-smiles="[NH2]" drawing-x="96.3" drawing-y="104.3" x="-2.35406" y="2.37302" z="0"/>
<rdkit:atom idx="18" atom-smiles="[CH2]" drawing-x="114.8" drawing-y="72.6" x="-1.48266" y="3.86982" z="0"/>
<rdkit:atom idx="19" atom-smiles="[O]" drawing-x="96.5" drawing-y="61.9" x="-2.34686" y="4.37302" z="0"/>
<rdkit:atom idx="20" atom-smiles="[P]" drawing-x="96.5" drawing-y="40.7" x="-2.34326" y="5.37302" z="0"/>
<rdkit:atom idx="21" atom-smiles="[O]" drawing-x="96.6" drawing-y="19.6" x="-2.33966" y="6.37302" z="0"/>
<rdkit:atom idx="22" atom-smiles="[OH]" drawing-x="75.3" drawing-y="40.7" x="-3.34326" y="5.37662" z="0"/>
<rdkit:atom idx="23" atom-smiles="[OH]" drawing-x="117.7" drawing-y="40.8" x="-1.34326" y="5.36942" z="0"/>
<rdkit:atom idx="24" atom-smiles="[cH]" drawing-x="169.6" drawing-y="125.8" x="1.10634" y="1.36082" z="0"/>
<rdkit:atom idx="25" atom-smiles="[cH]" drawing-x="187.9" drawing-y="136.4" x="1.97054" y="0.857623" z="0"/>
<rdkit:atom idx="26" atom-smiles="[OH]" drawing-x="52.1" drawing-y="210.0" x="-4.4377" y="-2.61414" z="0"/>
<rdkit:atom idx="27" atom-smiles="[C]" drawing-x="70.5" drawing-y="199.4" x="-3.5713" y="-2.11494" z="0"/>
<rdkit:atom idx="28" atom-smiles="[O]" drawing-x="70.5" drawing-y="178.2" x="-3.5705" y="-1.11494" z="0"/>
<rdkit:atom idx="29" atom-smiles="[C]" drawing-x="88.8" drawing-y="210.0" x="-2.7057" y="-2.61554" z="0"/>
<rdkit:atom idx="30" atom-smiles="[F]" drawing-x="78.2" drawing-y="228.4" x="-3.2065" y="-3.48114" z="0"/>
<rdkit:atom idx="31" atom-smiles="[F]" drawing-x="99.4" drawing-y="228.4" x="-2.2065" y="-3.48194" z="0"/>
<rdkit:atom idx="32" atom-smiles="[F]" drawing-x="107.2" drawing-y="199.4" x="-1.8393" y="-2.11634" z="0"/>
<rdkit:bond idx="1" begin-atom-idx="1" end-atom-idx="2" bond-smiles="-"/>
<rdkit:bond idx="2" begin-atom-idx="2" end-atom-idx="3" bond-smiles="-"/>
<rdkit:bond idx="3" begin-atom-idx="3" end-atom-idx="4" bond-smiles="-"/>
<rdkit:bond idx="4" begin-atom-idx="4" end-atom-idx="5" bond-smiles="-"/>
<rdkit:bond idx="5" begin-atom-idx="5" end-atom-idx="6" bond-smiles="-"/>
<rdkit:bond idx="6" begin-atom-idx="6" end-atom-idx="7" bond-smiles="-"/>
<rdkit:bond idx="7" begin-atom-idx="7" end-atom-idx="8" bond-smiles="-"/>
<rdkit:bond idx="8" begin-atom-idx="8" end-atom-idx="9" bond-smiles="-"/>
<rdkit:bond idx="9" begin-atom-idx="9" end-atom-idx="10" bond-smiles=":"/>
<rdkit:bond idx="10" begin-atom-idx="10" end-atom-idx="11" bond-smiles=":"/>
<rdkit:bond idx="11" begin-atom-idx="11" end-atom-idx="12" bond-smiles=":"/>
<rdkit:bond idx="12" begin-atom-idx="12" end-atom-idx="13" bond-smiles="-"/>
<rdkit:bond idx="13" begin-atom-idx="13" end-atom-idx="14" bond-smiles="-"/>
<rdkit:bond idx="14" begin-atom-idx="14" end-atom-idx="15" bond-smiles="="/>
<rdkit:bond idx="15" begin-atom-idx="14" end-atom-idx="16" bond-smiles="-"/>
<rdkit:bond idx="16" begin-atom-idx="16" end-atom-idx="17" bond-smiles="-"/>
<rdkit:bond idx="17" begin-atom-idx="16" end-atom-idx="18" bond-smiles="-"/>
<rdkit:bond idx="18" begin-atom-idx="18" end-atom-idx="19" bond-smiles="-"/>
<rdkit:bond idx="19" begin-atom-idx="19" end-atom-idx="20" bond-smiles="-"/>
<rdkit:bond idx="20" begin-atom-idx="20" end-atom-idx="21" bond-smiles="="/>
<rdkit:bond idx="21" begin-atom-idx="20" end-atom-idx="22" bond-smiles="-"/>
<rdkit:bond idx="22" begin-atom-idx="20" end-atom-idx="23" bond-smiles="-"/>
<rdkit:bond idx="23" begin-atom-idx="12" end-atom-idx="24" bond-smiles=":"/>
<rdkit:bond idx="24" begin-atom-idx="24" end-atom-idx="25" bond-smiles=":"/>
<rdkit:bond idx="25" begin-atom-idx="26" end-atom-idx="27" bond-smiles="-"/>
<rdkit:bond idx="26" begin-atom-idx="27" end-atom-idx="28" bond-smiles="="/>
<rdkit:bond idx="27" begin-atom-idx="27" end-atom-idx="29" bond-smiles="-"/>
<rdkit:bond idx="28" begin-atom-idx="29" end-atom-idx="30" bond-smiles="-"/>
<rdkit:bond idx="29" begin-atom-idx="29" end-atom-idx="31" bond-smiles="-"/>
<rdkit:bond idx="30" begin-atom-idx="29" end-atom-idx="32" bond-smiles="-"/>
<rdkit:bond idx="31" begin-atom-idx="25" end-atom-idx="9" bond-smiles=":"/>
</rdkit:mol></metadata>
</svg>