<svg xmlns="http://www.w3.org/2000/svg" xmlns:rdkit="http://www.rdkit.org/xml" xmlns:xlink="http://www.w3.org/1999/xlink" version="1.1" baseProfile="full" xml:space="preserve" width="600px" height="200px" viewBox="0 0 600 200">
<!-- END OF HEADER -->
<rect style="opacity:1.0;fill:#FFFFFF;stroke:none" width="600.0" height="200.0" x="0.0" y="0.0"> </rect>
<path class="bond-0 atom-0 atom-1" d="M 168.5,59.5 L 146.9,77.6" style="fill:none;fill-rule:evenodd;stroke:#191919;stroke-width:2.0px;stroke-linecap:butt;stroke-linejoin:miter;stroke-opacity:1"/>
<path class="bond-0 atom-0 atom-1" d="M 146.9,77.6 L 125.3,95.7" style="fill:none;fill-rule:evenodd;stroke:#000000;stroke-width:2.0px;stroke-linecap:butt;stroke-linejoin:miter;stroke-opacity:1"/>
<path class="bond-1 atom-1 atom-2" d="M 125.3,95.7 L 144.6,111.9" style="fill:none;fill-rule:evenodd;stroke:#000000;stroke-width:2.0px;stroke-linecap:butt;stroke-linejoin:miter;stroke-opacity:1"/>
<path class="bond-1 atom-1 atom-2" d="M 144.6,111.9 L 164.0,128.2" style="fill:none;fill-rule:evenodd;stroke:#191919;stroke-width:2.0px;stroke-linecap:butt;stroke-linejoin:miter;stroke-opacity:1"/>
<path class="bond-2 atom-1 atom-3" d="M 125.3,95.7 L 113.7,115.7" style="fill:none;fill-rule:evenodd;stroke:#000000;stroke-width:2.0px;stroke-linecap:butt;stroke-linejoin:miter;stroke-opacity:1"/>
<path class="bond-2 atom-1 atom-3" d="M 113.7,115.7 L 102.1,135.8" style="fill:none;fill-rule:evenodd;stroke:#FF0000;stroke-width:2.0px;stroke-linecap:butt;stroke-linejoin:miter;stroke-opacity:1"/>
<path class="bond-3 atom-3 atom-4" d="M 86.8,146.0 L 62.4,146.0" style="fill:none;fill-rule:evenodd;stroke:#FF0000;stroke-width:2.0px;stroke-linecap:butt;stroke-linejoin:miter;stroke-opacity:1"/>
<path class="bond-3 atom-3 atom-4" d="M 62.4,146.0 L 38.1,146.0" style="fill:none;fill-rule:evenodd;stroke:#000000;stroke-width:2.0px;stroke-linecap:butt;stroke-linejoin:miter;stroke-opacity:1"/>
<path class="bond-4 atom-4 atom-5" d="M 38.1,146.0 L 9.1,95.7" style="fill:none;fill-rule:evenodd;stroke:#000000;stroke-width:2.0px;stroke-linecap:butt;stroke-linejoin:miter;stroke-opacity:1"/>
<path class="bond-5 atom-5 atom-6" d="M 9.1,95.7 L 38.1,45.4" style="fill:none;fill-rule:evenodd;stroke:#000000;stroke-width:2.0px;stroke-linecap:butt;stroke-linejoin:miter;stroke-opacity:1"/>
<path class="bond-6 atom-6 atom-7" d="M 38.1,45.4 L 96.2,45.4" style="fill:none;fill-rule:evenodd;stroke:#000000;stroke-width:2.0px;stroke-linecap:butt;stroke-linejoin:miter;stroke-opacity:1"/>
<path class="bond-6 atom-6 atom-7" d="M 43.2,54.1 L 91.2,54.1" style="fill:none;fill-rule:evenodd;stroke:#000000;stroke-width:2.0px;stroke-linecap:butt;stroke-linejoin:miter;stroke-opacity:1"/>
<path class="bond-7 atom-7 atom-1" d="M 96.2,45.4 L 125.3,95.7" style="fill:none;fill-rule:evenodd;stroke:#000000;stroke-width:2.0px;stroke-linecap:butt;stroke-linejoin:miter;stroke-opacity:1"/>
<path d="M 39.3,146.0 L 38.1,146.0 L 36.7,143.5" style="fill:none;stroke:#000000;stroke-width:2.0px;stroke-linecap:butt;stroke-linejoin:miter;stroke-opacity:1;"/>
<path d="M 10.5,98.2 L 9.1,95.7 L 10.5,93.2" style="fill:none;stroke:#000000;stroke-width:2.0px;stroke-linecap:butt;stroke-linejoin:miter;stroke-opacity:1;"/>
<path d="M 36.7,47.9 L 38.1,45.4 L 41.0,45.4" style="fill:none;stroke:#000000;stroke-width:2.0px;stroke-linecap:butt;stroke-linejoin:miter;stroke-opacity:1;"/>
<path d="M 93.3,45.4 L 96.2,45.4 L 97.7,47.9" style="fill:none;stroke:#000000;stroke-width:2.0px;stroke-linecap:butt;stroke-linejoin:miter;stroke-opacity:1;"/>
<path class="atom-0" d="M 166.7 56.5 L 169.1 54.1 L 165.9 53.4 L 166.4 51.8 L 169.3 53.3 L 168.9 50.0 L 170.6 50.0 L 170.1 53.2 L 173.1 51.8 L 173.7 53.4 L 170.4 54.0 L 172.7 56.5 L 171.3 57.5 L 169.7 54.5 L 168.1 57.5 L 166.7 56.5 " fill="#191919"/>
<path class="atom-0" d="M 175.0 64.0 L 177.3 64.0 L 177.3 66.3 L 175.0 66.3 L 175.0 64.0 M 175.0 56.0 L 177.3 56.0 L 177.3 58.4 L 175.0 58.4 L 175.0 56.0 " fill="#191919"/>
<path class="atom-0" d="M 180.7 64.9 L 184.3 64.9 L 184.3 52.6 L 180.3 53.8 L 179.7 52.5 L 184.8 50.2 L 186.4 50.5 L 186.4 64.9 L 189.7 64.9 L 189.7 66.7 L 180.7 66.7 L 180.7 64.9 " fill="#191919"/>
<path class="atom-2" d="M 166.7 131.2 L 169.1 128.8 L 165.9 128.1 L 166.4 126.5 L 169.3 127.9 L 168.9 124.7 L 170.6 124.7 L 170.1 127.9 L 173.1 126.5 L 173.7 128.1 L 170.4 128.7 L 172.7 131.2 L 171.3 132.2 L 169.7 129.1 L 168.1 132.2 L 166.7 131.2 " fill="#191919"/>
<path class="atom-2" d="M 175.1 138.7 L 177.4 138.7 L 177.4 141.0 L 175.1 141.0 L 175.1 138.7 M 175.1 130.7 L 177.4 130.7 L 177.4 133.0 L 175.1 133.0 L 175.1 130.7 " fill="#191919"/>
<path class="atom-2" d="M 179.9 128.1 Q 180.5 126.5, 181.9 125.7 Q 183.4 124.8, 185.4 124.8 Q 187.8 124.8, 189.2 126.1 Q 190.6 127.5, 190.6 129.9 Q 190.6 132.3, 188.8 134.6 Q 187.0 136.9, 183.3 139.6 L 190.9 139.6 L 190.9 141.4 L 179.8 141.4 L 179.8 139.9 Q 182.9 137.7, 184.7 136.0 Q 186.5 134.4, 187.4 133.0 Q 188.3 131.5, 188.3 130.0 Q 188.3 128.4, 187.5 127.5 Q 186.7 126.6, 185.4 126.6 Q 184.0 126.6, 183.1 127.2 Q 182.3 127.7, 181.6 128.9 L 179.9 128.1 " fill="#191919"/>
<path class="atom-3" d="M 88.7 146.1 Q 88.7 142.1, 90.6 139.9 Q 92.6 137.7, 96.2 137.7 Q 99.9 137.7, 101.8 139.9 Q 103.8 142.1, 103.8 146.1 Q 103.8 150.1, 101.8 152.3 Q 99.8 154.6, 96.2 154.6 Q 92.6 154.6, 90.6 152.3 Q 88.7 150.1, 88.7 146.1 M 96.2 152.7 Q 98.7 152.7, 100.1 151.1 Q 101.4 149.4, 101.4 146.1 Q 101.4 142.8, 100.1 141.2 Q 98.7 139.6, 96.2 139.6 Q 93.7 139.6, 92.3 141.2 Q 91.0 142.8, 91.0 146.1 Q 91.0 149.4, 92.3 151.1 Q 93.7 152.7, 96.2 152.7 " fill="#FF0000"/>
<path class="bond-0 atom-1 atom-0" d="M 327.8,93.2 L 328.2,93.6" style="fill:none;fill-rule:evenodd;stroke:#000000;stroke-width:1.0px;stroke-linecap:butt;stroke-linejoin:miter;stroke-opacity:1"/>
<path class="bond-0 atom-1 atom-0" d="M 330.3,90.7 L 331.1,91.6" style="fill:none;fill-rule:evenodd;stroke:#000000;stroke-width:1.0px;stroke-linecap:butt;stroke-linejoin:miter;stroke-opacity:1"/>
<path class="bond-0 atom-1 atom-0" d="M 332.9,88.2 L 334.0,89.5" style="fill:none;fill-rule:evenodd;stroke:#000000;stroke-width:1.0px;stroke-linecap:butt;stroke-linejoin:miter;stroke-opacity:1"/>
<path class="bond-0 atom-1 atom-0" d="M 335.4,85.7 L 336.9,87.4" style="fill:none;fill-rule:evenodd;stroke:#000000;stroke-width:1.0px;stroke-linecap:butt;stroke-linejoin:miter;stroke-opacity:1"/>
<path class="bond-0 atom-1 atom-0" d="M 338.0,83.2 L 339.8,85.4" style="fill:none;fill-rule:evenodd;stroke:#000000;stroke-width:1.0px;stroke-linecap:butt;stroke-linejoin:miter;stroke-opacity:1"/>
<path class="bond-0 atom-1 atom-0" d="M 340.5,80.6 L 342.8,83.3" style="fill:none;fill-rule:evenodd;stroke:#000000;stroke-width:1.0px;stroke-linecap:butt;stroke-linejoin:miter;stroke-opacity:1"/>
<path class="bond-0 atom-1 atom-0" d="M 343.1,78.1 L 345.7,81.2" style="fill:none;fill-rule:evenodd;stroke:#000000;stroke-width:1.0px;stroke-linecap:butt;stroke-linejoin:miter;stroke-opacity:1"/>
<path class="bond-0 atom-1 atom-0" d="M 345.6,75.6 L 348.6,79.2" style="fill:none;fill-rule:evenodd;stroke:#191919;stroke-width:1.0px;stroke-linecap:butt;stroke-linejoin:miter;stroke-opacity:1"/>
<path class="bond-0 atom-1 atom-0" d="M 348.1,73.1 L 351.5,77.1" style="fill:none;fill-rule:evenodd;stroke:#191919;stroke-width:1.0px;stroke-linecap:butt;stroke-linejoin:miter;stroke-opacity:1"/>
<path class="bond-0 atom-1 atom-0" d="M 350.7,70.6 L 354.4,75.0" style="fill:none;fill-rule:evenodd;stroke:#191919;stroke-width:1.0px;stroke-linecap:butt;stroke-linejoin:miter;stroke-opacity:1"/>
<path class="bond-0 atom-1 atom-0" d="M 353.2,68.1 L 357.3,73.0" style="fill:none;fill-rule:evenodd;stroke:#191919;stroke-width:1.0px;stroke-linecap:butt;stroke-linejoin:miter;stroke-opacity:1"/>
<path class="bond-0 atom-1 atom-0" d="M 355.8,65.6 L 360.2,70.9" style="fill:none;fill-rule:evenodd;stroke:#191919;stroke-width:1.0px;stroke-linecap:butt;stroke-linejoin:miter;stroke-opacity:1"/>
<path class="bond-0 atom-1 atom-0" d="M 358.3,63.1 L 363.2,68.8" style="fill:none;fill-rule:evenodd;stroke:#191919;stroke-width:1.0px;stroke-linecap:butt;stroke-linejoin:miter;stroke-opacity:1"/>
<path class="bond-0 atom-1 atom-0" d="M 360.8,60.5 L 366.1,66.8" style="fill:none;fill-rule:evenodd;stroke:#191919;stroke-width:1.0px;stroke-linecap:butt;stroke-linejoin:miter;stroke-opacity:1"/>
<path class="bond-0 atom-1 atom-0" d="M 363.4,58.0 L 369.0,64.7" style="fill:none;fill-rule:evenodd;stroke:#191919;stroke-width:1.0px;stroke-linecap:butt;stroke-linejoin:miter;stroke-opacity:1"/>
<path class="bond-1 atom-1 atom-2" d="M 325.3,95.7 L 344.6,111.9" style="fill:none;fill-rule:evenodd;stroke:#000000;stroke-width:2.0px;stroke-linecap:butt;stroke-linejoin:miter;stroke-opacity:1"/>
<path class="bond-1 atom-1 atom-2" d="M 344.6,111.9 L 364.0,128.2" style="fill:none;fill-rule:evenodd;stroke:#191919;stroke-width:2.0px;stroke-linecap:butt;stroke-linejoin:miter;stroke-opacity:1"/>
<path class="bond-2 atom-1 atom-3" d="M 325.3,95.7 L 313.7,115.7" style="fill:none;fill-rule:evenodd;stroke:#000000;stroke-width:2.0px;stroke-linecap:butt;stroke-linejoin:miter;stroke-opacity:1"/>
<path class="bond-2 atom-1 atom-3" d="M 313.7,115.7 L 302.1,135.8" style="fill:none;fill-rule:evenodd;stroke:#FF0000;stroke-width:2.0px;stroke-linecap:butt;stroke-linejoin:miter;stroke-opacity:1"/>
<path class="bond-3 atom-3 atom-4" d="M 286.8,146.0 L 262.4,146.0" style="fill:none;fill-rule:evenodd;stroke:#FF0000;stroke-width:2.0px;stroke-linecap:butt;stroke-linejoin:miter;stroke-opacity:1"/>
<path class="bond-3 atom-3 atom-4" d="M 262.4,146.0 L 238.1,146.0" style="fill:none;fill-rule:evenodd;stroke:#000000;stroke-width:2.0px;stroke-linecap:butt;stroke-linejoin:miter;stroke-opacity:1"/>
<path class="bond-4 atom-4 atom-5" d="M 238.1,146.0 L 209.1,95.7" style="fill:none;fill-rule:evenodd;stroke:#000000;stroke-width:2.0px;stroke-linecap:butt;stroke-linejoin:miter;stroke-opacity:1"/>
<path class="bond-5 atom-5 atom-6" d="M 209.1,95.7 L 238.1,45.4" style="fill:none;fill-rule:evenodd;stroke:#000000;stroke-width:2.0px;stroke-linecap:butt;stroke-linejoin:miter;stroke-opacity:1"/>
<path class="bond-6 atom-6 atom-7" d="M 238.1,45.4 L 296.2,45.4" style="fill:none;fill-rule:evenodd;stroke:#000000;stroke-width:2.0px;stroke-linecap:butt;stroke-linejoin:miter;stroke-opacity:1"/>
<path class="bond-6 atom-6 atom-7" d="M 243.2,54.1 L 291.2,54.1" style="fill:none;fill-rule:evenodd;stroke:#000000;stroke-width:2.0px;stroke-linecap:butt;stroke-linejoin:miter;stroke-opacity:1"/>
<path class="bond-7 atom-7 atom-1" d="M 296.2,45.4 L 325.3,95.7" style="fill:none;fill-rule:evenodd;stroke:#000000;stroke-width:2.0px;stroke-linecap:butt;stroke-linejoin:miter;stroke-opacity:1"/>
<path d="M 239.3,146.0 L 238.1,146.0 L 236.7,143.5" style="fill:none;stroke:#000000;stroke-width:2.0px;stroke-linecap:butt;stroke-linejoin:miter;stroke-opacity:1;"/>
<path d="M 210.5,98.2 L 209.1,95.7 L 210.5,93.2" style="fill:none;stroke:#000000;stroke-width:2.0px;stroke-linecap:butt;stroke-linejoin:miter;stroke-opacity:1;"/>
<path d="M 236.7,47.9 L 238.1,45.4 L 241.0,45.4" style="fill:none;stroke:#000000;stroke-width:2.0px;stroke-linecap:butt;stroke-linejoin:miter;stroke-opacity:1;"/>
<path d="M 293.3,45.4 L 296.2,45.4 L 297.7,47.9" style="fill:none;stroke:#000000;stroke-width:2.0px;stroke-linecap:butt;stroke-linejoin:miter;stroke-opacity:1;"/>
<path class="atom-0" d="M 366.7 56.5 L 369.1 54.1 L 365.9 53.4 L 366.4 51.8 L 369.3 53.3 L 368.9 50.0 L 370.6 50.0 L 370.1 53.2 L 373.1 51.8 L 373.7 53.4 L 370.4 54.0 L 372.7 56.5 L 371.3 57.5 L 369.7 54.5 L 368.1 57.5 L 366.7 56.5 " fill="#191919"/>
<path class="atom-0" d="M 375.0 64.0 L 377.3 64.0 L 377.3 66.3 L 375.0 66.3 L 375.0 64.0 M 375.0 56.0 L 377.3 56.0 L 377.3 58.4 L 375.0 58.4 L 375.0 56.0 " fill="#191919"/>
<path class="atom-0" d="M 380.7 64.9 L 384.3 64.9 L 384.3 52.6 L 380.3 53.8 L 379.7 52.5 L 384.8 50.2 L 386.4 50.5 L 386.4 64.9 L 389.7 64.9 L 389.7 66.7 L 380.7 66.7 L 380.7 64.9 " fill="#191919"/>
<path class="atom-2" d="M 366.7 131.2 L 369.1 128.8 L 365.9 128.1 L 366.4 126.5 L 369.3 127.9 L 368.9 124.7 L 370.6 124.7 L 370.1 127.9 L 373.1 126.5 L 373.7 128.1 L 370.4 128.7 L 372.7 131.2 L 371.3 132.2 L 369.7 129.1 L 368.1 132.2 L 366.7 131.2 " fill="#191919"/>
<path class="atom-2" d="M 375.1 138.7 L 377.4 138.7 L 377.4 141.0 L 375.1 141.0 L 375.1 138.7 M 375.1 130.7 L 377.4 130.7 L 377.4 133.0 L 375.1 133.0 L 375.1 130.7 " fill="#191919"/>
<path class="atom-2" d="M 379.9 128.1 Q 380.5 126.5, 381.9 125.7 Q 383.4 124.8, 385.4 124.8 Q 387.8 124.8, 389.2 126.1 Q 390.6 127.5, 390.6 129.9 Q 390.6 132.3, 388.8 134.6 Q 387.0 136.9, 383.3 139.6 L 390.9 139.6 L 390.9 141.4 L 379.8 141.4 L 379.8 139.9 Q 382.9 137.7, 384.7 136.0 Q 386.5 134.4, 387.4 133.0 Q 388.3 131.5, 388.3 130.0 Q 388.3 128.4, 387.5 127.5 Q 386.7 126.6, 385.4 126.6 Q 384.0 126.6, 383.1 127.2 Q 382.3 127.7, 381.6 128.9 L 379.9 128.1 " fill="#191919"/>
<path class="atom-3" d="M 288.7 146.1 Q 288.7 142.1, 290.6 139.9 Q 292.6 137.7, 296.2 137.7 Q 299.9 137.7, 301.8 139.9 Q 303.8 142.1, 303.8 146.1 Q 303.8 150.1, 301.8 152.3 Q 299.8 154.6, 296.2 154.6 Q 292.6 154.6, 290.6 152.3 Q 288.7 150.1, 288.7 146.1 M 296.2 152.7 Q 298.7 152.7, 300.1 151.1 Q 301.4 149.4, 301.4 146.1 Q 301.4 142.8, 300.1 141.2 Q 298.7 139.6, 296.2 139.6 Q 293.7 139.6, 292.3 141.2 Q 291.0 142.8, 291.0 146.1 Q 291.0 149.4, 292.3 151.1 Q 293.7 152.7, 296.2 152.7 " fill="#FF0000"/>
</svg>