<svg xmlns="http://www.w3.org/2000/svg" xmlns:rdkit="http://www.rdkit.org/xml" xmlns:xlink="http://www.w3.org/1999/xlink" version="1.1" baseProfile="full" xml:space="preserve" width="800px" height="400px" viewBox="0 0 800 400">
<!-- END OF HEADER -->
<rect style="opacity:1.0;fill:#FFFFFF;stroke:none" width="800.0" height="400.0" x="0.0" y="0.0"> </rect>
<path class="bond-0 atom-0 atom-1" d="M 102.2,142.4 L 75.6,96.2" style="fill:none;fill-rule:evenodd;stroke:#000000;stroke-width:2.0px;stroke-linecap:butt;stroke-linejoin:miter;stroke-opacity:1"/>
<path class="bond-0 atom-0 atom-1" d="M 106.9,134.4 L 84.8,96.2" style="fill:none;fill-rule:evenodd;stroke:#000000;stroke-width:2.0px;stroke-linecap:butt;stroke-linejoin:miter;stroke-opacity:1"/>
<path class="bond-1 atom-1 atom-2" d="M 75.6,96.2 L 52.0,96.2" style="fill:none;fill-rule:evenodd;stroke:#000000;stroke-width:2.0px;stroke-linecap:butt;stroke-linejoin:miter;stroke-opacity:1"/>
<path class="bond-1 atom-1 atom-2" d="M 52.0,96.2 L 28.5,96.2" style="fill:none;fill-rule:evenodd;stroke:#33CCCC;stroke-width:2.0px;stroke-linecap:butt;stroke-linejoin:miter;stroke-opacity:1"/>
<path class="bond-2 atom-1 atom-3" d="M 75.6,96.2 L 102.2,50.0" style="fill:none;fill-rule:evenodd;stroke:#000000;stroke-width:2.0px;stroke-linecap:butt;stroke-linejoin:miter;stroke-opacity:1"/>
<path class="bond-3 atom-3 atom-4" d="M 102.2,50.0 L 155.6,50.0" style="fill:none;fill-rule:evenodd;stroke:#000000;stroke-width:2.0px;stroke-linecap:butt;stroke-linejoin:miter;stroke-opacity:1"/>
<path class="bond-3 atom-3 atom-4" d="M 106.9,58.0 L 151.0,58.0" style="fill:none;fill-rule:evenodd;stroke:#000000;stroke-width:2.0px;stroke-linecap:butt;stroke-linejoin:miter;stroke-opacity:1"/>
<path class="bond-4 atom-4 atom-5" d="M 155.6,50.0 L 182.2,96.2" style="fill:none;fill-rule:evenodd;stroke:#000000;stroke-width:2.0px;stroke-linecap:butt;stroke-linejoin:miter;stroke-opacity:1"/>
<path class="bond-5 atom-5 atom-6" d="M 182.2,96.2 L 171.6,114.7" style="fill:none;fill-rule:evenodd;stroke:#000000;stroke-width:2.0px;stroke-linecap:butt;stroke-linejoin:miter;stroke-opacity:1"/>
<path class="bond-5 atom-5 atom-6" d="M 171.6,114.7 L 160.9,133.1" style="fill:none;fill-rule:evenodd;stroke:#0000FF;stroke-width:2.0px;stroke-linecap:butt;stroke-linejoin:miter;stroke-opacity:1"/>
<path class="bond-5 atom-5 atom-6" d="M 173.0,96.2 L 163.5,112.7" style="fill:none;fill-rule:evenodd;stroke:#000000;stroke-width:2.0px;stroke-linecap:butt;stroke-linejoin:miter;stroke-opacity:1"/>
<path class="bond-5 atom-5 atom-6" d="M 163.5,112.7 L 154.0,129.1" style="fill:none;fill-rule:evenodd;stroke:#0000FF;stroke-width:2.0px;stroke-linecap:butt;stroke-linejoin:miter;stroke-opacity:1"/>
<path class="bond-6 atom-6 atom-0" d="M 148.1,142.4 L 125.2,142.4" style="fill:none;fill-rule:evenodd;stroke:#0000FF;stroke-width:2.0px;stroke-linecap:butt;stroke-linejoin:miter;stroke-opacity:1"/>
<path class="bond-6 atom-6 atom-0" d="M 125.2,142.4 L 102.2,142.4" style="fill:none;fill-rule:evenodd;stroke:#000000;stroke-width:2.0px;stroke-linecap:butt;stroke-linejoin:miter;stroke-opacity:1"/>
<path d="M 100.9,140.1 L 102.2,142.4 L 103.4,142.4" style="fill:none;stroke:#000000;stroke-width:2.0px;stroke-linecap:butt;stroke-linejoin:miter;stroke-opacity:1;"/>
<path d="M 100.9,52.4 L 102.2,50.0 L 104.9,50.0" style="fill:none;stroke:#000000;stroke-width:2.0px;stroke-linecap:butt;stroke-linejoin:miter;stroke-opacity:1;"/>
<path d="M 152.9,50.0 L 155.6,50.0 L 156.9,52.4" style="fill:none;stroke:#000000;stroke-width:2.0px;stroke-linecap:butt;stroke-linejoin:miter;stroke-opacity:1;"/>
<path d="M 180.9,93.9 L 182.2,96.2 L 181.7,97.1" style="fill:none;stroke:#000000;stroke-width:2.0px;stroke-linecap:butt;stroke-linejoin:miter;stroke-opacity:1;"/>
<path class="atom-2" d="M 17.8 88.7 L 26.7 88.7 L 26.7 90.4 L 19.8 90.4 L 19.8 95.0 L 26.0 95.0 L 26.0 96.7 L 19.8 96.7 L 19.8 103.8 L 17.8 103.8 L 17.8 88.7 " fill="#33CCCC"/>
<path class="atom-6" d="M 152.2 134.9 L 157.2 142.9 Q 157.7 143.6, 158.5 145.1 Q 159.2 146.5, 159.3 146.6 L 159.3 134.9 L 161.3 134.9 L 161.3 150.0 L 159.2 150.0 L 153.9 141.2 Q 153.3 140.2, 152.6 139.0 Q 152.0 137.8, 151.8 137.5 L 151.8 150.0 L 149.8 150.0 L 149.8 134.9 L 152.2 134.9 " fill="#0000FF"/>
<path class="bond-0 atom-0 atom-1" d="M 327.3,149.2 L 281.1,122.5" style="fill:none;fill-rule:evenodd;stroke:#000000;stroke-width:2.0px;stroke-linecap:butt;stroke-linejoin:miter;stroke-opacity:1"/>
<path class="bond-0 atom-0 atom-1" d="M 327.3,139.9 L 289.1,117.9" style="fill:none;fill-rule:evenodd;stroke:#000000;stroke-width:2.0px;stroke-linecap:butt;stroke-linejoin:miter;stroke-opacity:1"/>
<path class="bond-1 atom-1 atom-2" d="M 281.1,122.5 L 259.4,135.1" style="fill:none;fill-rule:evenodd;stroke:#000000;stroke-width:2.0px;stroke-linecap:butt;stroke-linejoin:miter;stroke-opacity:1"/>
<path class="bond-1 atom-1 atom-2" d="M 259.4,135.1 L 237.7,147.6" style="fill:none;fill-rule:evenodd;stroke:#00CC00;stroke-width:2.0px;stroke-linecap:butt;stroke-linejoin:miter;stroke-opacity:1"/>
<path class="bond-2 atom-1 atom-3" d="M 281.1,122.5 L 281.1,69.2" style="fill:none;fill-rule:evenodd;stroke:#000000;stroke-width:2.0px;stroke-linecap:butt;stroke-linejoin:miter;stroke-opacity:1"/>
<path class="bond-3 atom-3 atom-4" d="M 281.1,69.2 L 234.9,42.5" style="fill:none;fill-rule:evenodd;stroke:#000000;stroke-width:2.0px;stroke-linecap:butt;stroke-linejoin:miter;stroke-opacity:1"/>
<path class="bond-4 atom-3 atom-5" d="M 281.1,69.2 L 327.3,42.5" style="fill:none;fill-rule:evenodd;stroke:#000000;stroke-width:2.0px;stroke-linecap:butt;stroke-linejoin:miter;stroke-opacity:1"/>
<path class="bond-4 atom-3 atom-5" d="M 289.1,73.8 L 327.3,51.8" style="fill:none;fill-rule:evenodd;stroke:#000000;stroke-width:2.0px;stroke-linecap:butt;stroke-linejoin:miter;stroke-opacity:1"/>
<path class="bond-5 atom-5 atom-6" d="M 327.3,42.5 L 373.5,69.2" style="fill:none;fill-rule:evenodd;stroke:#000000;stroke-width:2.0px;stroke-linecap:butt;stroke-linejoin:miter;stroke-opacity:1"/>
<path class="bond-6 atom-6 atom-7" d="M 373.5,69.2 L 373.5,91.2" style="fill:none;fill-rule:evenodd;stroke:#000000;stroke-width:2.0px;stroke-linecap:butt;stroke-linejoin:miter;stroke-opacity:1"/>
<path class="bond-6 atom-6 atom-7" d="M 373.5,91.2 L 373.5,113.2" style="fill:none;fill-rule:evenodd;stroke:#0000FF;stroke-width:2.0px;stroke-linecap:butt;stroke-linejoin:miter;stroke-opacity:1"/>
<path class="bond-6 atom-6 atom-7" d="M 365.5,73.8 L 365.5,93.5" style="fill:none;fill-rule:evenodd;stroke:#000000;stroke-width:2.0px;stroke-linecap:butt;stroke-linejoin:miter;stroke-opacity:1"/>
<path class="bond-6 atom-6 atom-7" d="M 365.5,93.5 L 365.5,113.2" style="fill:none;fill-rule:evenodd;stroke:#0000FF;stroke-width:2.0px;stroke-linecap:butt;stroke-linejoin:miter;stroke-opacity:1"/>
<path class="bond-7 atom-7 atom-0" d="M 366.0,126.8 L 346.7,138.0" style="fill:none;fill-rule:evenodd;stroke:#0000FF;stroke-width:2.0px;stroke-linecap:butt;stroke-linejoin:miter;stroke-opacity:1"/>
<path class="bond-7 atom-7 atom-0" d="M 346.7,138.0 L 327.3,149.2" style="fill:none;fill-rule:evenodd;stroke:#000000;stroke-width:2.0px;stroke-linecap:butt;stroke-linejoin:miter;stroke-opacity:1"/>
<path d="M 325.0,147.8 L 327.3,149.2 L 328.3,148.6" style="fill:none;stroke:#000000;stroke-width:2.0px;stroke-linecap:butt;stroke-linejoin:miter;stroke-opacity:1;"/>
<path d="M 325.0,43.9 L 327.3,42.5 L 329.6,43.9" style="fill:none;stroke:#000000;stroke-width:2.0px;stroke-linecap:butt;stroke-linejoin:miter;stroke-opacity:1;"/>
<path d="M 371.2,67.9 L 373.5,69.2 L 373.5,70.3" style="fill:none;stroke:#000000;stroke-width:2.0px;stroke-linecap:butt;stroke-linejoin:miter;stroke-opacity:1;"/>
<path class="atom-2" d="M 220.8 149.7 Q 220.8 145.9, 222.5 144.0 Q 224.3 142.0, 227.7 142.0 Q 230.8 142.0, 232.4 144.2 L 231.0 145.4 Q 229.8 143.8, 227.7 143.8 Q 225.4 143.8, 224.2 145.3 Q 223.0 146.8, 223.0 149.7 Q 223.0 152.7, 224.2 154.2 Q 225.5 155.8, 227.9 155.8 Q 229.6 155.8, 231.5 154.8 L 232.1 156.4 Q 231.3 156.9, 230.1 157.2 Q 228.9 157.5, 227.6 157.5 Q 224.3 157.5, 222.5 155.5 Q 220.8 153.5, 220.8 149.7 " fill="#00CC00"/>
<path class="atom-2" d="M 234.0 141.1 L 235.9 141.1 L 235.9 157.3 L 234.0 157.3 L 234.0 141.1 " fill="#00CC00"/>
<path class="atom-7" d="M 370.1 115.0 L 375.1 123.0 Q 375.6 123.8, 376.4 125.2 Q 377.2 126.6, 377.2 126.7 L 377.2 115.0 L 379.2 115.0 L 379.2 130.1 L 377.1 130.1 L 371.8 121.3 Q 371.2 120.3, 370.6 119.1 Q 369.9 118.0, 369.7 117.6 L 369.7 130.1 L 367.8 130.1 L 367.8 115.0 L 370.1 115.0 " fill="#0000FF"/>
<path class="bond-0 atom-0 atom-1" d="M 510.9,142.4 L 484.3,96.2" style="fill:none;fill-rule:evenodd;stroke:#000000;stroke-width:2.0px;stroke-linecap:butt;stroke-linejoin:miter;stroke-opacity:1"/>
<path class="bond-0 atom-0 atom-1" d="M 515.5,134.4 L 493.5,96.2" style="fill:none;fill-rule:evenodd;stroke:#000000;stroke-width:2.0px;stroke-linecap:butt;stroke-linejoin:miter;stroke-opacity:1"/>
<path class="bond-1 atom-1 atom-2" d="M 484.3,96.2 L 461.9,96.2" style="fill:none;fill-rule:evenodd;stroke:#000000;stroke-width:2.0px;stroke-linecap:butt;stroke-linejoin:miter;stroke-opacity:1"/>
<path class="bond-1 atom-1 atom-2" d="M 461.9,96.2 L 439.6,96.2" style="fill:none;fill-rule:evenodd;stroke:#FF0000;stroke-width:2.0px;stroke-linecap:butt;stroke-linejoin:miter;stroke-opacity:1"/>
<path class="bond-2 atom-1 atom-3" d="M 484.3,96.2 L 510.9,50.0" style="fill:none;fill-rule:evenodd;stroke:#000000;stroke-width:2.0px;stroke-linecap:butt;stroke-linejoin:miter;stroke-opacity:1"/>
<path class="bond-3 atom-3 atom-4" d="M 510.9,50.0 L 564.2,50.0" style="fill:none;fill-rule:evenodd;stroke:#000000;stroke-width:2.0px;stroke-linecap:butt;stroke-linejoin:miter;stroke-opacity:1"/>
<path class="bond-3 atom-3 atom-4" d="M 515.5,58.0 L 559.6,58.0" style="fill:none;fill-rule:evenodd;stroke:#000000;stroke-width:2.0px;stroke-linecap:butt;stroke-linejoin:miter;stroke-opacity:1"/>
<path class="bond-4 atom-4 atom-5" d="M 564.2,50.0 L 590.9,96.2" style="fill:none;fill-rule:evenodd;stroke:#000000;stroke-width:2.0px;stroke-linecap:butt;stroke-linejoin:miter;stroke-opacity:1"/>
<path class="bond-5 atom-5 atom-6" d="M 590.9,96.2 L 580.3,114.7" style="fill:none;fill-rule:evenodd;stroke:#000000;stroke-width:2.0px;stroke-linecap:butt;stroke-linejoin:miter;stroke-opacity:1"/>
<path class="bond-5 atom-5 atom-6" d="M 580.3,114.7 L 569.6,133.1" style="fill:none;fill-rule:evenodd;stroke:#0000FF;stroke-width:2.0px;stroke-linecap:butt;stroke-linejoin:miter;stroke-opacity:1"/>
<path class="bond-5 atom-5 atom-6" d="M 581.7,96.2 L 572.2,112.7" style="fill:none;fill-rule:evenodd;stroke:#000000;stroke-width:2.0px;stroke-linecap:butt;stroke-linejoin:miter;stroke-opacity:1"/>
<path class="bond-5 atom-5 atom-6" d="M 572.2,112.7 L 562.7,129.1" style="fill:none;fill-rule:evenodd;stroke:#0000FF;stroke-width:2.0px;stroke-linecap:butt;stroke-linejoin:miter;stroke-opacity:1"/>
<path class="bond-6 atom-6 atom-0" d="M 556.8,142.4 L 533.8,142.4" style="fill:none;fill-rule:evenodd;stroke:#0000FF;stroke-width:2.0px;stroke-linecap:butt;stroke-linejoin:miter;stroke-opacity:1"/>
<path class="bond-6 atom-6 atom-0" d="M 533.8,142.4 L 510.9,142.4" style="fill:none;fill-rule:evenodd;stroke:#000000;stroke-width:2.0px;stroke-linecap:butt;stroke-linejoin:miter;stroke-opacity:1"/>
<path d="M 509.6,140.1 L 510.9,142.4 L 512.1,142.4" style="fill:none;stroke:#000000;stroke-width:2.0px;stroke-linecap:butt;stroke-linejoin:miter;stroke-opacity:1;"/>
<path d="M 509.6,52.4 L 510.9,50.0 L 513.6,50.0" style="fill:none;stroke:#000000;stroke-width:2.0px;stroke-linecap:butt;stroke-linejoin:miter;stroke-opacity:1;"/>
<path d="M 561.6,50.0 L 564.2,50.0 L 565.6,52.4" style="fill:none;stroke:#000000;stroke-width:2.0px;stroke-linecap:butt;stroke-linejoin:miter;stroke-opacity:1;"/>
<path d="M 589.6,93.9 L 590.9,96.2 L 590.4,97.1" style="fill:none;stroke:#000000;stroke-width:2.0px;stroke-linecap:butt;stroke-linejoin:miter;stroke-opacity:1;"/>
<path class="atom-2" d="M 409.1 88.8 L 411.1 88.8 L 411.1 95.2 L 418.9 95.2 L 418.9 88.8 L 420.9 88.8 L 420.9 103.9 L 418.9 103.9 L 418.9 96.9 L 411.1 96.9 L 411.1 103.9 L 409.1 103.9 L 409.1 88.8 " fill="#FF0000"/>
<path class="atom-2" d="M 424.0 96.3 Q 424.0 92.6, 425.8 90.6 Q 427.6 88.6, 430.9 88.6 Q 434.3 88.6, 436.1 90.6 Q 437.9 92.6, 437.9 96.3 Q 437.9 99.9, 436.1 102.0 Q 434.2 104.1, 430.9 104.1 Q 427.6 104.1, 425.8 102.0 Q 424.0 100.0, 424.0 96.3 M 430.9 102.4 Q 433.2 102.4, 434.5 100.9 Q 435.7 99.3, 435.7 96.3 Q 435.7 93.3, 434.5 91.8 Q 433.2 90.3, 430.9 90.3 Q 428.6 90.3, 427.4 91.8 Q 426.1 93.3, 426.1 96.3 Q 426.1 99.3, 427.4 100.9 Q 428.6 102.4, 430.9 102.4 " fill="#FF0000"/>
<path class="atom-6" d="M 560.9 134.9 L 565.9 142.9 Q 566.3 143.6, 567.1 145.1 Q 567.9 146.5, 568.0 146.6 L 568.0 134.9 L 570.0 134.9 L 570.0 150.0 L 567.9 150.0 L 562.6 141.2 Q 562.0 140.2, 561.3 139.0 Q 560.7 137.8, 560.5 137.5 L 560.5 150.0 L 558.5 150.0 L 558.5 134.9 L 560.9 134.9 " fill="#0000FF"/>
<path class="bond-0 atom-0 atom-1" d="M 722.5,149.5 L 676.3,122.9" style="fill:none;fill-rule:evenodd;stroke:#000000;stroke-width:2.0px;stroke-linecap:butt;stroke-linejoin:miter;stroke-opacity:1"/>
<path class="bond-0 atom-0 atom-1" d="M 722.5,140.3 L 684.3,118.3" style="fill:none;fill-rule:evenodd;stroke:#000000;stroke-width:2.0px;stroke-linecap:butt;stroke-linejoin:miter;stroke-opacity:1"/>
<path class="bond-1 atom-1 atom-2" d="M 676.3,122.9 L 656.3,134.4" style="fill:none;fill-rule:evenodd;stroke:#000000;stroke-width:2.0px;stroke-linecap:butt;stroke-linejoin:miter;stroke-opacity:1"/>
<path class="bond-1 atom-1 atom-2" d="M 656.3,134.4 L 636.4,145.9" style="fill:none;fill-rule:evenodd;stroke:#33CCCC;stroke-width:2.0px;stroke-linecap:butt;stroke-linejoin:miter;stroke-opacity:1"/>
<path class="bond-2 atom-1 atom-3" d="M 676.3,122.9 L 676.3,69.6" style="fill:none;fill-rule:evenodd;stroke:#000000;stroke-width:2.0px;stroke-linecap:butt;stroke-linejoin:miter;stroke-opacity:1"/>
<path class="bond-3 atom-3 atom-4" d="M 676.3,69.6 L 630.1,42.9" style="fill:none;fill-rule:evenodd;stroke:#000000;stroke-width:2.0px;stroke-linecap:butt;stroke-linejoin:miter;stroke-opacity:1"/>
<path class="bond-4 atom-3 atom-5" d="M 676.3,69.6 L 722.5,42.9" style="fill:none;fill-rule:evenodd;stroke:#000000;stroke-width:2.0px;stroke-linecap:butt;stroke-linejoin:miter;stroke-opacity:1"/>
<path class="bond-4 atom-3 atom-5" d="M 684.3,74.2 L 722.5,52.1" style="fill:none;fill-rule:evenodd;stroke:#000000;stroke-width:2.0px;stroke-linecap:butt;stroke-linejoin:miter;stroke-opacity:1"/>
<path class="bond-5 atom-5 atom-6" d="M 722.5,42.9 L 768.7,69.6" style="fill:none;fill-rule:evenodd;stroke:#000000;stroke-width:2.0px;stroke-linecap:butt;stroke-linejoin:miter;stroke-opacity:1"/>
<path class="bond-6 atom-6 atom-7" d="M 768.7,69.6 L 768.7,91.6" style="fill:none;fill-rule:evenodd;stroke:#000000;stroke-width:2.0px;stroke-linecap:butt;stroke-linejoin:miter;stroke-opacity:1"/>
<path class="bond-6 atom-6 atom-7" d="M 768.7,91.6 L 768.7,113.6" style="fill:none;fill-rule:evenodd;stroke:#0000FF;stroke-width:2.0px;stroke-linecap:butt;stroke-linejoin:miter;stroke-opacity:1"/>
<path class="bond-6 atom-6 atom-7" d="M 760.7,74.2 L 760.7,93.9" style="fill:none;fill-rule:evenodd;stroke:#000000;stroke-width:2.0px;stroke-linecap:butt;stroke-linejoin:miter;stroke-opacity:1"/>
<path class="bond-6 atom-6 atom-7" d="M 760.7,93.9 L 760.7,113.6" style="fill:none;fill-rule:evenodd;stroke:#0000FF;stroke-width:2.0px;stroke-linecap:butt;stroke-linejoin:miter;stroke-opacity:1"/>
<path class="bond-7 atom-7 atom-0" d="M 761.2,127.2 L 741.8,138.4" style="fill:none;fill-rule:evenodd;stroke:#0000FF;stroke-width:2.0px;stroke-linecap:butt;stroke-linejoin:miter;stroke-opacity:1"/>
<path class="bond-7 atom-7 atom-0" d="M 741.8,138.4 L 722.5,149.5" style="fill:none;fill-rule:evenodd;stroke:#000000;stroke-width:2.0px;stroke-linecap:butt;stroke-linejoin:miter;stroke-opacity:1"/>
<path d="M 720.2,148.2 L 722.5,149.5 L 723.4,149.0" style="fill:none;stroke:#000000;stroke-width:2.0px;stroke-linecap:butt;stroke-linejoin:miter;stroke-opacity:1;"/>
<path d="M 720.2,44.2 L 722.5,42.9 L 724.8,44.2" style="fill:none;stroke:#000000;stroke-width:2.0px;stroke-linecap:butt;stroke-linejoin:miter;stroke-opacity:1;"/>
<path d="M 766.3,68.2 L 768.7,69.6 L 768.7,70.7" style="fill:none;stroke:#000000;stroke-width:2.0px;stroke-linecap:butt;stroke-linejoin:miter;stroke-opacity:1;"/>
<path class="atom-2" d="M 625.6 142.0 L 634.6 142.0 L 634.6 143.7 L 627.6 143.7 L 627.6 148.3 L 633.8 148.3 L 633.8 150.1 L 627.6 150.1 L 627.6 157.1 L 625.6 157.1 L 625.6 142.0 " fill="#33CCCC"/>
<path class="atom-7" d="M 765.3 115.3 L 770.3 123.3 Q 770.8 124.1, 771.5 125.6 Q 772.3 127.0, 772.4 127.1 L 772.4 115.3 L 774.4 115.3 L 774.4 130.4 L 772.3 130.4 L 767.0 121.7 Q 766.4 120.7, 765.7 119.5 Q 765.1 118.3, 764.9 118.0 L 764.9 130.4 L 762.9 130.4 L 762.9 115.3 L 765.3 115.3 " fill="#0000FF"/>
<path class="bond-0 atom-0 atom-1" d="M 173.5,326.3 L 127.3,353.0" style="fill:none;fill-rule:evenodd;stroke:#000000;stroke-width:2.0px;stroke-linecap:butt;stroke-linejoin:miter;stroke-opacity:1"/>
<path class="bond-0 atom-0 atom-1" d="M 165.5,321.7 L 127.3,343.7" style="fill:none;fill-rule:evenodd;stroke:#000000;stroke-width:2.0px;stroke-linecap:butt;stroke-linejoin:miter;stroke-opacity:1"/>
<path class="bond-1 atom-1 atom-2" d="M 127.3,353.0 L 81.1,326.3" style="fill:none;fill-rule:evenodd;stroke:#000000;stroke-width:2.0px;stroke-linecap:butt;stroke-linejoin:miter;stroke-opacity:1"/>
<path class="bond-2 atom-2 atom-3" d="M 81.1,326.3 L 59.4,338.8" style="fill:none;fill-rule:evenodd;stroke:#000000;stroke-width:2.0px;stroke-linecap:butt;stroke-linejoin:miter;stroke-opacity:1"/>
<path class="bond-2 atom-2 atom-3" d="M 59.4,338.8 L 37.7,351.4" style="fill:none;fill-rule:evenodd;stroke:#00CC00;stroke-width:2.0px;stroke-linecap:butt;stroke-linejoin:miter;stroke-opacity:1"/>
<path class="bond-3 atom-2 atom-4" d="M 81.1,326.3 L 81.1,273.0" style="fill:none;fill-rule:evenodd;stroke:#000000;stroke-width:2.0px;stroke-linecap:butt;stroke-linejoin:miter;stroke-opacity:1"/>
<path class="bond-3 atom-2 atom-4" d="M 89.1,321.7 L 89.1,277.6" style="fill:none;fill-rule:evenodd;stroke:#000000;stroke-width:2.0px;stroke-linecap:butt;stroke-linejoin:miter;stroke-opacity:1"/>
<path class="bond-4 atom-4 atom-5" d="M 81.1,273.0 L 61.2,261.4" style="fill:none;fill-rule:evenodd;stroke:#000000;stroke-width:2.0px;stroke-linecap:butt;stroke-linejoin:miter;stroke-opacity:1"/>
<path class="bond-4 atom-4 atom-5" d="M 61.2,261.4 L 41.2,249.9" style="fill:none;fill-rule:evenodd;stroke:#33CCCC;stroke-width:2.0px;stroke-linecap:butt;stroke-linejoin:miter;stroke-opacity:1"/>
<path class="bond-5 atom-4 atom-6" d="M 81.1,273.0 L 127.3,246.3" style="fill:none;fill-rule:evenodd;stroke:#000000;stroke-width:2.0px;stroke-linecap:butt;stroke-linejoin:miter;stroke-opacity:1"/>
<path class="bond-6 atom-6 atom-7" d="M 127.3,246.3 L 146.7,257.5" style="fill:none;fill-rule:evenodd;stroke:#000000;stroke-width:2.0px;stroke-linecap:butt;stroke-linejoin:miter;stroke-opacity:1"/>
<path class="bond-6 atom-6 atom-7" d="M 146.7,257.5 L 166.0,268.6" style="fill:none;fill-rule:evenodd;stroke:#0000FF;stroke-width:2.0px;stroke-linecap:butt;stroke-linejoin:miter;stroke-opacity:1"/>
<path class="bond-6 atom-6 atom-7" d="M 127.3,255.5 L 144.7,265.6" style="fill:none;fill-rule:evenodd;stroke:#000000;stroke-width:2.0px;stroke-linecap:butt;stroke-linejoin:miter;stroke-opacity:1"/>
<path class="bond-6 atom-6 atom-7" d="M 144.7,265.6 L 162.0,275.6" style="fill:none;fill-rule:evenodd;stroke:#0000FF;stroke-width:2.0px;stroke-linecap:butt;stroke-linejoin:miter;stroke-opacity:1"/>
<path class="bond-7 atom-7 atom-0" d="M 173.5,282.3 L 173.5,304.3" style="fill:none;fill-rule:evenodd;stroke:#0000FF;stroke-width:2.0px;stroke-linecap:butt;stroke-linejoin:miter;stroke-opacity:1"/>
<path class="bond-7 atom-7 atom-0" d="M 173.5,304.3 L 173.5,326.3" style="fill:none;fill-rule:evenodd;stroke:#000000;stroke-width:2.0px;stroke-linecap:butt;stroke-linejoin:miter;stroke-opacity:1"/>
<path d="M 171.2,327.6 L 173.5,326.3 L 173.5,325.2" style="fill:none;stroke:#000000;stroke-width:2.0px;stroke-linecap:butt;stroke-linejoin:miter;stroke-opacity:1;"/>
<path d="M 129.6,351.6 L 127.3,353.0 L 125.0,351.6" style="fill:none;stroke:#000000;stroke-width:2.0px;stroke-linecap:butt;stroke-linejoin:miter;stroke-opacity:1;"/>
<path d="M 125.0,247.6 L 127.3,246.3 L 128.3,246.9" style="fill:none;stroke:#000000;stroke-width:2.0px;stroke-linecap:butt;stroke-linejoin:miter;stroke-opacity:1;"/>
<path class="atom-3" d="M 20.8 353.5 Q 20.8 349.7, 22.5 347.8 Q 24.3 345.8, 27.7 345.8 Q 30.8 345.8, 32.4 348.0 L 31.0 349.1 Q 29.8 347.5, 27.7 347.5 Q 25.4 347.5, 24.2 349.1 Q 23.0 350.6, 23.0 353.5 Q 23.0 356.5, 24.2 358.0 Q 25.5 359.5, 27.9 359.5 Q 29.6 359.5, 31.5 358.5 L 32.1 360.1 Q 31.3 360.6, 30.1 360.9 Q 28.9 361.2, 27.6 361.2 Q 24.3 361.2, 22.5 359.2 Q 20.8 357.2, 20.8 353.5 " fill="#00CC00"/>
<path class="atom-3" d="M 34.0 344.9 L 35.9 344.9 L 35.9 361.1 L 34.0 361.1 L 34.0 344.9 " fill="#00CC00"/>
<path class="atom-5" d="M 30.5 238.8 L 39.4 238.8 L 39.4 240.5 L 32.5 240.5 L 32.5 245.1 L 38.7 245.1 L 38.7 246.8 L 32.5 246.8 L 32.5 253.9 L 30.5 253.9 L 30.5 238.8 " fill="#33CCCC"/>
<path class="atom-7" d="M 170.1 265.4 L 175.1 273.4 Q 175.6 274.2, 176.4 275.6 Q 177.2 277.1, 177.2 277.2 L 177.2 265.4 L 179.2 265.4 L 179.2 280.5 L 177.1 280.5 L 171.8 271.8 Q 171.2 270.8, 170.6 269.6 Q 169.9 268.4, 169.7 268.0 L 169.7 280.5 L 167.8 280.5 L 167.8 265.4 L 170.1 265.4 " fill="#0000FF"/>
</svg>