<svg xmlns="http://www.w3.org/2000/svg" xmlns:rdkit="http://www.rdkit.org/xml" xmlns:xlink="http://www.w3.org/1999/xlink" version="1.1" baseProfile="full" xml:space="preserve" width="800px" height="200px" viewBox="0 0 800 200">
<!-- END OF HEADER -->
<rect style="opacity:1.0;fill:#FFFFFF;stroke:none" width="800.0" height="200.0" x="0.0" y="0.0"> </rect>
<path class="bond-0 atom-0 atom-1" d="M 22.8,123.2 L 84.1,123.2" style="fill:none;fill-rule:evenodd;stroke:#000000;stroke-width:2.0px;stroke-linecap:butt;stroke-linejoin:miter;stroke-opacity:1"/>
<path class="bond-1 atom-0 atom-3" d="M 22.8,123.2 L 22.8,101.0" style="fill:none;fill-rule:evenodd;stroke:#000000;stroke-width:2.0px;stroke-linecap:butt;stroke-linejoin:miter;stroke-opacity:1"/>
<path class="bond-1 atom-0 atom-3" d="M 22.8,101.0 L 22.8,78.8" style="fill:none;fill-rule:evenodd;stroke:#FF0000;stroke-width:2.0px;stroke-linecap:butt;stroke-linejoin:miter;stroke-opacity:1"/>
<path class="bond-2 atom-1 atom-2" d="M 84.1,123.2 L 84.1,62.0" style="fill:none;fill-rule:evenodd;stroke:#000000;stroke-width:2.0px;stroke-linecap:butt;stroke-linejoin:miter;stroke-opacity:1"/>
<path class="bond-3 atom-1 atom-7" d="M 84.1,123.2 L 103.1,134.2" style="fill:none;fill-rule:evenodd;stroke:#000000;stroke-width:2.0px;stroke-linecap:butt;stroke-linejoin:miter;stroke-opacity:1"/>
<path class="bond-3 atom-1 atom-7" d="M 103.1,134.2 L 122.1,145.2" style="fill:none;fill-rule:evenodd;stroke:#FF0000;stroke-width:2.0px;stroke-linecap:butt;stroke-linejoin:miter;stroke-opacity:1"/>
<path class="bond-4 atom-2 atom-3" d="M 84.1,62.0 L 61.0,62.0" style="fill:none;fill-rule:evenodd;stroke:#000000;stroke-width:2.0px;stroke-linecap:butt;stroke-linejoin:miter;stroke-opacity:1"/>
<path class="bond-4 atom-2 atom-3" d="M 61.0,62.0 L 37.9,62.0" style="fill:none;fill-rule:evenodd;stroke:#FF0000;stroke-width:2.0px;stroke-linecap:butt;stroke-linejoin:miter;stroke-opacity:1"/>
<path class="bond-5 atom-2 atom-4" d="M 84.1,62.0 L 137.1,31.4" style="fill:none;fill-rule:evenodd;stroke:#000000;stroke-width:2.0px;stroke-linecap:butt;stroke-linejoin:miter;stroke-opacity:1"/>
<path class="bond-6 atom-4 atom-5" d="M 137.1,31.4 L 190.2,62.0" style="fill:none;fill-rule:evenodd;stroke:#000000;stroke-width:2.0px;stroke-linecap:butt;stroke-linejoin:miter;stroke-opacity:1"/>
<path class="bond-6 atom-4 atom-5" d="M 137.1,42.0 L 181.0,67.3" style="fill:none;fill-rule:evenodd;stroke:#000000;stroke-width:2.0px;stroke-linecap:butt;stroke-linejoin:miter;stroke-opacity:1"/>
<path class="bond-7 atom-5 atom-6" d="M 190.2,62.0 L 190.2,123.2" style="fill:none;fill-rule:evenodd;stroke:#000000;stroke-width:2.0px;stroke-linecap:butt;stroke-linejoin:miter;stroke-opacity:1"/>
<path class="bond-8 atom-6 atom-7" d="M 190.2,123.2 L 171.2,134.2" style="fill:none;fill-rule:evenodd;stroke:#000000;stroke-width:2.0px;stroke-linecap:butt;stroke-linejoin:miter;stroke-opacity:1"/>
<path class="bond-8 atom-6 atom-7" d="M 171.2,134.2 L 152.1,145.2" style="fill:none;fill-rule:evenodd;stroke:#FF0000;stroke-width:2.0px;stroke-linecap:butt;stroke-linejoin:miter;stroke-opacity:1"/>
<path d="M 25.9,123.2 L 22.8,123.2 L 22.8,122.1" style="fill:none;stroke:#000000;stroke-width:2.0px;stroke-linecap:butt;stroke-linejoin:miter;stroke-opacity:1;"/>
<path d="M 134.5,32.9 L 137.1,31.4 L 139.8,32.9" style="fill:none;stroke:#000000;stroke-width:2.0px;stroke-linecap:butt;stroke-linejoin:miter;stroke-opacity:1;"/>
<path d="M 187.5,60.5 L 190.2,62.0 L 190.2,65.1" style="fill:none;stroke:#000000;stroke-width:2.0px;stroke-linecap:butt;stroke-linejoin:miter;stroke-opacity:1;"/>
<path d="M 190.2,120.2 L 190.2,123.2 L 189.2,123.8" style="fill:none;stroke:#000000;stroke-width:2.0px;stroke-linecap:butt;stroke-linejoin:miter;stroke-opacity:1;"/>
<path class="atom-3" d="M 9.8 62.1 Q 9.8 55.3, 13.2 51.5 Q 16.5 47.7, 22.8 47.7 Q 29.1 47.7, 32.5 51.5 Q 35.8 55.3, 35.8 62.1 Q 35.8 69.0, 32.4 72.9 Q 29.0 76.8, 22.8 76.8 Q 16.6 76.8, 13.2 72.9 Q 9.8 69.0, 9.8 62.1 M 22.8 73.6 Q 27.1 73.6, 29.5 70.7 Q 31.8 67.8, 31.8 62.1 Q 31.8 56.5, 29.5 53.7 Q 27.1 50.9, 22.8 50.9 Q 18.5 50.9, 16.1 53.7 Q 13.8 56.5, 13.8 62.1 Q 13.8 67.8, 16.1 70.7 Q 18.5 73.6, 22.8 73.6 " fill="#FF0000"/>
<path class="atom-7" d="M 124.1 154.0 Q 124.1 147.2, 127.5 143.4 Q 130.8 139.6, 137.1 139.6 Q 143.4 139.6, 146.8 143.4 Q 150.1 147.2, 150.1 154.0 Q 150.1 160.8, 146.7 164.8 Q 143.3 168.6, 137.1 168.6 Q 130.9 168.6, 127.5 164.8 Q 124.1 160.9, 124.1 154.0 M 137.1 165.4 Q 141.4 165.4, 143.8 162.6 Q 146.1 159.6, 146.1 154.0 Q 146.1 148.4, 143.8 145.6 Q 141.4 142.8, 137.1 142.8 Q 132.8 142.8, 130.4 145.6 Q 128.1 148.4, 128.1 154.0 Q 128.1 159.7, 130.4 162.6 Q 132.8 165.4, 137.1 165.4 " fill="#FF0000"/>
<path class="bond-0 atom-0 atom-1" d="M 220.4,92.6 L 273.5,123.2" style="fill:none;fill-rule:evenodd;stroke:#000000;stroke-width:2.0px;stroke-linecap:butt;stroke-linejoin:miter;stroke-opacity:1"/>
<path class="bond-1 atom-0 atom-2" d="M 220.4,92.6 L 273.5,62.0" style="fill:none;fill-rule:evenodd;stroke:#000000;stroke-width:2.0px;stroke-linecap:butt;stroke-linejoin:miter;stroke-opacity:1"/>
<path class="bond-2 atom-1 atom-2" d="M 273.5,123.2 L 273.5,62.0" style="fill:none;fill-rule:evenodd;stroke:#000000;stroke-width:2.0px;stroke-linecap:butt;stroke-linejoin:miter;stroke-opacity:1"/>
<path class="bond-3 atom-1 atom-6" d="M 273.5,123.2 L 292.5,134.2" style="fill:none;fill-rule:evenodd;stroke:#000000;stroke-width:2.0px;stroke-linecap:butt;stroke-linejoin:miter;stroke-opacity:1"/>
<path class="bond-3 atom-1 atom-6" d="M 292.5,134.2 L 311.5,145.2" style="fill:none;fill-rule:evenodd;stroke:#FF0000;stroke-width:2.0px;stroke-linecap:butt;stroke-linejoin:miter;stroke-opacity:1"/>
<path class="bond-4 atom-2 atom-3" d="M 273.5,62.0 L 326.5,31.4" style="fill:none;fill-rule:evenodd;stroke:#000000;stroke-width:2.0px;stroke-linecap:butt;stroke-linejoin:miter;stroke-opacity:1"/>
<path class="bond-5 atom-3 atom-4" d="M 326.5,31.4 L 379.6,62.0" style="fill:none;fill-rule:evenodd;stroke:#000000;stroke-width:2.0px;stroke-linecap:butt;stroke-linejoin:miter;stroke-opacity:1"/>
<path class="bond-5 atom-3 atom-4" d="M 326.5,42.0 L 370.4,67.3" style="fill:none;fill-rule:evenodd;stroke:#000000;stroke-width:2.0px;stroke-linecap:butt;stroke-linejoin:miter;stroke-opacity:1"/>
<path class="bond-6 atom-4 atom-5" d="M 379.6,62.0 L 379.6,123.2" style="fill:none;fill-rule:evenodd;stroke:#000000;stroke-width:2.0px;stroke-linecap:butt;stroke-linejoin:miter;stroke-opacity:1"/>
<path class="bond-7 atom-5 atom-6" d="M 379.6,123.2 L 360.6,134.2" style="fill:none;fill-rule:evenodd;stroke:#000000;stroke-width:2.0px;stroke-linecap:butt;stroke-linejoin:miter;stroke-opacity:1"/>
<path class="bond-7 atom-5 atom-6" d="M 360.6,134.2 L 341.5,145.2" style="fill:none;fill-rule:evenodd;stroke:#FF0000;stroke-width:2.0px;stroke-linecap:butt;stroke-linejoin:miter;stroke-opacity:1"/>
<path d="M 223.1,94.2 L 220.4,92.6 L 223.1,91.1" style="fill:none;stroke:#000000;stroke-width:2.0px;stroke-linecap:butt;stroke-linejoin:miter;stroke-opacity:1;"/>
<path d="M 323.9,32.9 L 326.5,31.4 L 329.2,32.9" style="fill:none;stroke:#000000;stroke-width:2.0px;stroke-linecap:butt;stroke-linejoin:miter;stroke-opacity:1;"/>
<path d="M 376.9,60.5 L 379.6,62.0 L 379.6,65.1" style="fill:none;stroke:#000000;stroke-width:2.0px;stroke-linecap:butt;stroke-linejoin:miter;stroke-opacity:1;"/>
<path d="M 379.6,120.2 L 379.6,123.2 L 378.6,123.8" style="fill:none;stroke:#000000;stroke-width:2.0px;stroke-linecap:butt;stroke-linejoin:miter;stroke-opacity:1;"/>
<path class="atom-6" d="M 313.5 154.0 Q 313.5 147.2, 316.9 143.4 Q 320.2 139.6, 326.5 139.6 Q 332.8 139.6, 336.2 143.4 Q 339.5 147.2, 339.5 154.0 Q 339.5 160.8, 336.1 164.8 Q 332.7 168.6, 326.5 168.6 Q 320.3 168.6, 316.9 164.8 Q 313.5 160.9, 313.5 154.0 M 326.5 165.4 Q 330.8 165.4, 333.2 162.6 Q 335.5 159.6, 335.5 154.0 Q 335.5 148.4, 333.2 145.6 Q 330.8 142.8, 326.5 142.8 Q 322.2 142.8, 319.8 145.6 Q 317.5 148.4, 317.5 154.0 Q 317.5 159.7, 319.8 162.6 Q 322.2 165.4, 326.5 165.4 " fill="#FF0000"/>
<path class="bond-0 atom-0 atom-1" d="M 437.9,123.2 L 461.0,123.2" style="fill:none;fill-rule:evenodd;stroke:#FF0000;stroke-width:2.0px;stroke-linecap:butt;stroke-linejoin:miter;stroke-opacity:1"/>
<path class="bond-0 atom-0 atom-1" d="M 461.0,123.2 L 484.1,123.2" style="fill:none;fill-rule:evenodd;stroke:#000000;stroke-width:2.0px;stroke-linecap:butt;stroke-linejoin:miter;stroke-opacity:1"/>
<path class="bond-1 atom-0 atom-3" d="M 422.8,106.9 L 422.8,84.4" style="fill:none;fill-rule:evenodd;stroke:#FF0000;stroke-width:2.0px;stroke-linecap:butt;stroke-linejoin:miter;stroke-opacity:1"/>
<path class="bond-1 atom-0 atom-3" d="M 422.8,84.4 L 422.8,62.0" style="fill:none;fill-rule:evenodd;stroke:#000000;stroke-width:2.0px;stroke-linecap:butt;stroke-linejoin:miter;stroke-opacity:1"/>
<path class="bond-2 atom-1 atom-2" d="M 484.1,123.2 L 484.1,62.0" style="fill:none;fill-rule:evenodd;stroke:#000000;stroke-width:2.0px;stroke-linecap:butt;stroke-linejoin:miter;stroke-opacity:1"/>
<path class="bond-3 atom-1 atom-7" d="M 484.1,123.2 L 503.1,134.2" style="fill:none;fill-rule:evenodd;stroke:#000000;stroke-width:2.0px;stroke-linecap:butt;stroke-linejoin:miter;stroke-opacity:1"/>
<path class="bond-3 atom-1 atom-7" d="M 503.1,134.2 L 522.1,145.2" style="fill:none;fill-rule:evenodd;stroke:#FF0000;stroke-width:2.0px;stroke-linecap:butt;stroke-linejoin:miter;stroke-opacity:1"/>
<path class="bond-4 atom-2 atom-3" d="M 484.1,62.0 L 422.8,62.0" style="fill:none;fill-rule:evenodd;stroke:#000000;stroke-width:2.0px;stroke-linecap:butt;stroke-linejoin:miter;stroke-opacity:1"/>
<path class="bond-5 atom-2 atom-4" d="M 484.1,62.0 L 537.1,31.4" style="fill:none;fill-rule:evenodd;stroke:#000000;stroke-width:2.0px;stroke-linecap:butt;stroke-linejoin:miter;stroke-opacity:1"/>
<path class="bond-6 atom-4 atom-5" d="M 537.1,31.4 L 590.2,62.0" style="fill:none;fill-rule:evenodd;stroke:#000000;stroke-width:2.0px;stroke-linecap:butt;stroke-linejoin:miter;stroke-opacity:1"/>
<path class="bond-6 atom-4 atom-5" d="M 537.1,42.0 L 581.0,67.3" style="fill:none;fill-rule:evenodd;stroke:#000000;stroke-width:2.0px;stroke-linecap:butt;stroke-linejoin:miter;stroke-opacity:1"/>
<path class="bond-7 atom-5 atom-6" d="M 590.2,62.0 L 590.2,123.2" style="fill:none;fill-rule:evenodd;stroke:#000000;stroke-width:2.0px;stroke-linecap:butt;stroke-linejoin:miter;stroke-opacity:1"/>
<path class="bond-8 atom-6 atom-7" d="M 590.2,123.2 L 571.2,134.2" style="fill:none;fill-rule:evenodd;stroke:#000000;stroke-width:2.0px;stroke-linecap:butt;stroke-linejoin:miter;stroke-opacity:1"/>
<path class="bond-8 atom-6 atom-7" d="M 571.2,134.2 L 552.2,145.2" style="fill:none;fill-rule:evenodd;stroke:#FF0000;stroke-width:2.0px;stroke-linecap:butt;stroke-linejoin:miter;stroke-opacity:1"/>
<path d="M 422.8,63.1 L 422.8,62.0 L 425.9,62.0" style="fill:none;stroke:#000000;stroke-width:2.0px;stroke-linecap:butt;stroke-linejoin:miter;stroke-opacity:1;"/>
<path d="M 534.5,32.9 L 537.1,31.4 L 539.8,32.9" style="fill:none;stroke:#000000;stroke-width:2.0px;stroke-linecap:butt;stroke-linejoin:miter;stroke-opacity:1;"/>
<path d="M 587.5,60.5 L 590.2,62.0 L 590.2,65.1" style="fill:none;stroke:#000000;stroke-width:2.0px;stroke-linecap:butt;stroke-linejoin:miter;stroke-opacity:1;"/>
<path d="M 590.2,120.2 L 590.2,123.2 L 589.2,123.8" style="fill:none;stroke:#000000;stroke-width:2.0px;stroke-linecap:butt;stroke-linejoin:miter;stroke-opacity:1;"/>
<path class="atom-0" d="M 409.8 123.3 Q 409.8 116.5, 413.2 112.7 Q 416.5 108.9, 422.8 108.9 Q 429.1 108.9, 432.5 112.7 Q 435.8 116.5, 435.8 123.3 Q 435.8 130.2, 432.4 134.1 Q 429.0 138.0, 422.8 138.0 Q 416.6 138.0, 413.2 134.1 Q 409.8 130.2, 409.8 123.3 M 422.8 134.8 Q 427.1 134.8, 429.5 131.9 Q 431.8 129.0, 431.8 123.3 Q 431.8 117.8, 429.5 115.0 Q 427.1 112.1, 422.8 112.1 Q 418.5 112.1, 416.1 114.9 Q 413.8 117.7, 413.8 123.3 Q 413.8 129.0, 416.1 131.9 Q 418.5 134.8, 422.8 134.8 " fill="#FF0000"/>
<path class="atom-7" d="M 524.1 154.0 Q 524.1 147.2, 527.5 143.4 Q 530.8 139.6, 537.1 139.6 Q 543.4 139.6, 546.8 143.4 Q 550.1 147.2, 550.1 154.0 Q 550.1 160.8, 546.7 164.8 Q 543.3 168.6, 537.1 168.6 Q 530.9 168.6, 527.5 164.8 Q 524.1 160.9, 524.1 154.0 M 537.1 165.4 Q 541.4 165.4, 543.8 162.6 Q 546.1 159.6, 546.1 154.0 Q 546.1 148.4, 543.8 145.6 Q 541.4 142.8, 537.1 142.8 Q 532.8 142.8, 530.4 145.6 Q 528.1 148.4, 528.1 154.0 Q 528.1 159.7, 530.4 162.6 Q 532.8 165.4, 537.1 165.4 " fill="#FF0000"/>
</svg>