<svg xmlns="http://www.w3.org/2000/svg" xmlns:rdkit="http://www.rdkit.org/xml" xmlns:xlink="http://www.w3.org/1999/xlink" version="1.1" baseProfile="full" xml:space="preserve" width="800px" height="400px" viewBox="0 0 800 400">
<!-- END OF HEADER -->
<rect style="opacity:1.0;fill:#FFFFFF;stroke:none" width="800.0" height="400.0" x="0.0" y="0.0"> </rect>
<path class="bond-0 atom-0 atom-1" d="M 176.8,100.0 L 160.2,100.0" style="fill:none;fill-rule:evenodd;stroke:#33CCCC;stroke-width:2.0px;stroke-linecap:butt;stroke-linejoin:miter;stroke-opacity:1"/>
<path class="bond-0 atom-0 atom-1" d="M 160.2,100.0 L 143.6,100.0" style="fill:none;fill-rule:evenodd;stroke:#000000;stroke-width:2.0px;stroke-linecap:butt;stroke-linejoin:miter;stroke-opacity:1"/>
<path class="bond-1 atom-1 atom-2" d="M 143.6,100.0 L 124.9,132.5" style="fill:none;fill-rule:evenodd;stroke:#000000;stroke-width:2.0px;stroke-linecap:butt;stroke-linejoin:miter;stroke-opacity:1"/>
<path class="bond-1 atom-1 atom-2" d="M 137.1,100.0 L 121.6,126.9" style="fill:none;fill-rule:evenodd;stroke:#000000;stroke-width:2.0px;stroke-linecap:butt;stroke-linejoin:miter;stroke-opacity:1"/>
<path class="bond-2 atom-2 atom-3" d="M 124.9,132.5 L 87.3,132.5" style="fill:none;fill-rule:evenodd;stroke:#000000;stroke-width:2.0px;stroke-linecap:butt;stroke-linejoin:miter;stroke-opacity:1"/>
<path class="bond-3 atom-3 atom-4" d="M 87.3,132.5 L 68.6,100.0" style="fill:none;fill-rule:evenodd;stroke:#000000;stroke-width:2.0px;stroke-linecap:butt;stroke-linejoin:miter;stroke-opacity:1"/>
<path class="bond-3 atom-3 atom-4" d="M 90.6,126.9 L 75.1,100.0" style="fill:none;fill-rule:evenodd;stroke:#000000;stroke-width:2.0px;stroke-linecap:butt;stroke-linejoin:miter;stroke-opacity:1"/>
<path class="bond-4 atom-4 atom-5" d="M 68.6,100.0 L 52.9,100.0" style="fill:none;fill-rule:evenodd;stroke:#000000;stroke-width:2.0px;stroke-linecap:butt;stroke-linejoin:miter;stroke-opacity:1"/>
<path class="bond-4 atom-4 atom-5" d="M 52.9,100.0 L 37.2,100.0" style="fill:none;fill-rule:evenodd;stroke:#FF0000;stroke-width:2.0px;stroke-linecap:butt;stroke-linejoin:miter;stroke-opacity:1"/>
<path class="bond-5 atom-4 atom-6" d="M 68.6,100.0 L 87.3,67.5" style="fill:none;fill-rule:evenodd;stroke:#000000;stroke-width:2.0px;stroke-linecap:butt;stroke-linejoin:miter;stroke-opacity:1"/>
<path class="bond-6 atom-6 atom-7" d="M 87.3,67.5 L 124.9,67.5" style="fill:none;fill-rule:evenodd;stroke:#000000;stroke-width:2.0px;stroke-linecap:butt;stroke-linejoin:miter;stroke-opacity:1"/>
<path class="bond-6 atom-6 atom-7" d="M 90.6,73.1 L 121.6,73.1" style="fill:none;fill-rule:evenodd;stroke:#000000;stroke-width:2.0px;stroke-linecap:butt;stroke-linejoin:miter;stroke-opacity:1"/>
<path class="bond-7 atom-7 atom-1" d="M 124.9,67.5 L 143.6,100.0" style="fill:none;fill-rule:evenodd;stroke:#000000;stroke-width:2.0px;stroke-linecap:butt;stroke-linejoin:miter;stroke-opacity:1"/>
<path d="M 125.8,130.9 L 124.9,132.5 L 123.0,132.5" style="fill:none;stroke:#000000;stroke-width:2.0px;stroke-linecap:butt;stroke-linejoin:miter;stroke-opacity:1;"/>
<path d="M 89.2,132.5 L 87.3,132.5 L 86.4,130.9" style="fill:none;stroke:#000000;stroke-width:2.0px;stroke-linecap:butt;stroke-linejoin:miter;stroke-opacity:1;"/>
<path d="M 86.4,69.1 L 87.3,67.5 L 89.2,67.5" style="fill:none;stroke:#000000;stroke-width:2.0px;stroke-linecap:butt;stroke-linejoin:miter;stroke-opacity:1;"/>
<path d="M 123.0,67.5 L 124.9,67.5 L 125.8,69.1" style="fill:none;stroke:#000000;stroke-width:2.0px;stroke-linecap:butt;stroke-linejoin:miter;stroke-opacity:1;"/>
<path class="atom-0" d="M 178.0 94.7 L 184.3 94.7 L 184.3 95.9 L 179.5 95.9 L 179.5 99.1 L 183.8 99.1 L 183.8 100.4 L 179.5 100.4 L 179.5 105.3 L 178.0 105.3 L 178.0 94.7 " fill="#33CCCC"/>
<path class="atom-5" d="M 15.7 94.7 L 17.1 94.7 L 17.1 99.3 L 22.5 99.3 L 22.5 94.7 L 24.0 94.7 L 24.0 105.4 L 22.5 105.4 L 22.5 100.5 L 17.1 100.5 L 17.1 105.4 L 15.7 105.4 L 15.7 94.7 " fill="#FF0000"/>
<path class="atom-5" d="M 26.2 100.0 Q 26.2 97.5, 27.4 96.1 Q 28.7 94.6, 31.0 94.6 Q 33.4 94.6, 34.7 96.1 Q 35.9 97.5, 35.9 100.0 Q 35.9 102.6, 34.6 104.1 Q 33.4 105.5, 31.0 105.5 Q 28.7 105.5, 27.4 104.1 Q 26.2 102.6, 26.2 100.0 M 31.0 104.3 Q 32.7 104.3, 33.5 103.3 Q 34.4 102.2, 34.4 100.0 Q 34.4 97.9, 33.5 96.9 Q 32.7 95.8, 31.0 95.8 Q 29.4 95.8, 28.5 96.9 Q 27.7 97.9, 27.7 100.0 Q 27.7 102.2, 28.5 103.3 Q 29.4 104.3, 31.0 104.3 " fill="#FF0000"/>
<path class="bond-0 atom-0 atom-1" d="M 220.1,110.2 L 236.4,107.8" style="fill:none;fill-rule:evenodd;stroke:#33CCCC;stroke-width:2.0px;stroke-linecap:butt;stroke-linejoin:miter;stroke-opacity:1"/>
<path class="bond-0 atom-0 atom-1" d="M 236.4,107.8 L 252.8,105.4" style="fill:none;fill-rule:evenodd;stroke:#000000;stroke-width:2.0px;stroke-linecap:butt;stroke-linejoin:miter;stroke-opacity:1"/>
<path class="bond-1 atom-1 atom-2" d="M 252.8,105.4 L 266.7,70.5" style="fill:none;fill-rule:evenodd;stroke:#000000;stroke-width:2.0px;stroke-linecap:butt;stroke-linejoin:miter;stroke-opacity:1"/>
<path class="bond-1 atom-1 atom-2" d="M 259.2,104.5 L 270.7,75.6" style="fill:none;fill-rule:evenodd;stroke:#000000;stroke-width:2.0px;stroke-linecap:butt;stroke-linejoin:miter;stroke-opacity:1"/>
<path class="bond-2 atom-2 atom-3" d="M 266.7,70.5 L 303.8,65.1" style="fill:none;fill-rule:evenodd;stroke:#000000;stroke-width:2.0px;stroke-linecap:butt;stroke-linejoin:miter;stroke-opacity:1"/>
<path class="bond-3 atom-3 atom-4" d="M 303.8,65.1 L 327.1,94.6" style="fill:none;fill-rule:evenodd;stroke:#000000;stroke-width:2.0px;stroke-linecap:butt;stroke-linejoin:miter;stroke-opacity:1"/>
<path class="bond-3 atom-3 atom-4" d="M 301.4,71.2 L 320.7,95.5" style="fill:none;fill-rule:evenodd;stroke:#000000;stroke-width:2.0px;stroke-linecap:butt;stroke-linejoin:miter;stroke-opacity:1"/>
<path class="bond-4 atom-4 atom-5" d="M 327.1,94.6 L 342.6,92.3" style="fill:none;fill-rule:evenodd;stroke:#000000;stroke-width:2.0px;stroke-linecap:butt;stroke-linejoin:miter;stroke-opacity:1"/>
<path class="bond-4 atom-4 atom-5" d="M 342.6,92.3 L 358.1,90.0" style="fill:none;fill-rule:evenodd;stroke:#FF0000;stroke-width:2.0px;stroke-linecap:butt;stroke-linejoin:miter;stroke-opacity:1"/>
<path class="bond-5 atom-5 atom-6" d="M 369.6,95.9 L 378.5,107.3" style="fill:none;fill-rule:evenodd;stroke:#FF0000;stroke-width:2.0px;stroke-linecap:butt;stroke-linejoin:miter;stroke-opacity:1"/>
<path class="bond-5 atom-5 atom-6" d="M 378.5,107.3 L 387.5,118.6" style="fill:none;fill-rule:evenodd;stroke:#000000;stroke-width:2.0px;stroke-linecap:butt;stroke-linejoin:miter;stroke-opacity:1"/>
<path class="bond-6 atom-4 atom-7" d="M 327.1,94.6 L 313.2,129.5" style="fill:none;fill-rule:evenodd;stroke:#000000;stroke-width:2.0px;stroke-linecap:butt;stroke-linejoin:miter;stroke-opacity:1"/>
<path class="bond-7 atom-7 atom-8" d="M 313.2,129.5 L 276.1,134.9" style="fill:none;fill-rule:evenodd;stroke:#000000;stroke-width:2.0px;stroke-linecap:butt;stroke-linejoin:miter;stroke-opacity:1"/>
<path class="bond-7 atom-7 atom-8" d="M 309.2,124.4 L 278.5,128.8" style="fill:none;fill-rule:evenodd;stroke:#000000;stroke-width:2.0px;stroke-linecap:butt;stroke-linejoin:miter;stroke-opacity:1"/>
<path class="bond-8 atom-8 atom-1" d="M 276.1,134.9 L 252.8,105.4" style="fill:none;fill-rule:evenodd;stroke:#000000;stroke-width:2.0px;stroke-linecap:butt;stroke-linejoin:miter;stroke-opacity:1"/>
<path d="M 266.0,72.3 L 266.7,70.5 L 268.5,70.3" style="fill:none;stroke:#000000;stroke-width:2.0px;stroke-linecap:butt;stroke-linejoin:miter;stroke-opacity:1;"/>
<path d="M 302.0,65.4 L 303.8,65.1 L 305.0,66.6" style="fill:none;stroke:#000000;stroke-width:2.0px;stroke-linecap:butt;stroke-linejoin:miter;stroke-opacity:1;"/>
<path d="M 313.9,127.7 L 313.2,129.5 L 311.4,129.7" style="fill:none;stroke:#000000;stroke-width:2.0px;stroke-linecap:butt;stroke-linejoin:miter;stroke-opacity:1;"/>
<path d="M 277.9,134.6 L 276.1,134.9 L 274.9,133.4" style="fill:none;stroke:#000000;stroke-width:2.0px;stroke-linecap:butt;stroke-linejoin:miter;stroke-opacity:1;"/>
<path class="atom-0" d="M 212.5 105.5 L 218.8 105.5 L 218.8 106.8 L 213.9 106.8 L 213.9 110.0 L 218.3 110.0 L 218.3 111.2 L 213.9 111.2 L 213.9 116.2 L 212.5 116.2 L 212.5 105.5 " fill="#33CCCC"/>
<path class="atom-5" d="M 359.4 89.2 Q 359.4 86.6, 360.6 85.2 Q 361.9 83.8, 364.2 83.8 Q 366.6 83.8, 367.9 85.2 Q 369.1 86.6, 369.1 89.2 Q 369.1 91.8, 367.8 93.2 Q 366.6 94.7, 364.2 94.7 Q 361.9 94.7, 360.6 93.2 Q 359.4 91.8, 359.4 89.2 M 364.2 93.5 Q 365.9 93.5, 366.7 92.4 Q 367.6 91.3, 367.6 89.2 Q 367.6 87.1, 366.7 86.0 Q 365.9 85.0, 364.2 85.0 Q 362.6 85.0, 361.7 86.0 Q 360.9 87.1, 360.9 89.2 Q 360.9 91.3, 361.7 92.4 Q 362.6 93.5, 364.2 93.5 " fill="#FF0000"/>
<path class="bond-0 atom-0 atom-1" d="M 566.5,100.0 L 550.8,100.0" style="fill:none;fill-rule:evenodd;stroke:#FF0000;stroke-width:2.0px;stroke-linecap:butt;stroke-linejoin:miter;stroke-opacity:1"/>
<path class="bond-0 atom-0 atom-1" d="M 550.8,100.0 L 535.1,100.0" style="fill:none;fill-rule:evenodd;stroke:#000000;stroke-width:2.0px;stroke-linecap:butt;stroke-linejoin:miter;stroke-opacity:1"/>
<path class="bond-1 atom-1 atom-2" d="M 535.1,100.0 L 516.3,132.5" style="fill:none;fill-rule:evenodd;stroke:#000000;stroke-width:2.0px;stroke-linecap:butt;stroke-linejoin:miter;stroke-opacity:1"/>
<path class="bond-1 atom-1 atom-2" d="M 528.6,100.0 L 513.1,126.9" style="fill:none;fill-rule:evenodd;stroke:#000000;stroke-width:2.0px;stroke-linecap:butt;stroke-linejoin:miter;stroke-opacity:1"/>
<path class="bond-2 atom-2 atom-3" d="M 516.3,132.5 L 478.8,132.5" style="fill:none;fill-rule:evenodd;stroke:#000000;stroke-width:2.0px;stroke-linecap:butt;stroke-linejoin:miter;stroke-opacity:1"/>
<path class="bond-3 atom-3 atom-4" d="M 478.8,132.5 L 460.0,100.0" style="fill:none;fill-rule:evenodd;stroke:#000000;stroke-width:2.0px;stroke-linecap:butt;stroke-linejoin:miter;stroke-opacity:1"/>
<path class="bond-3 atom-3 atom-4" d="M 482.0,126.9 L 466.5,100.0" style="fill:none;fill-rule:evenodd;stroke:#000000;stroke-width:2.0px;stroke-linecap:butt;stroke-linejoin:miter;stroke-opacity:1"/>
<path class="bond-4 atom-4 atom-5" d="M 460.0,100.0 L 442.2,100.0" style="fill:none;fill-rule:evenodd;stroke:#000000;stroke-width:2.0px;stroke-linecap:butt;stroke-linejoin:miter;stroke-opacity:1"/>
<path class="bond-4 atom-4 atom-5" d="M 442.2,100.0 L 424.4,100.0" style="fill:none;fill-rule:evenodd;stroke:#00CC00;stroke-width:2.0px;stroke-linecap:butt;stroke-linejoin:miter;stroke-opacity:1"/>
<path class="bond-5 atom-4 atom-6" d="M 460.0,100.0 L 478.8,67.5" style="fill:none;fill-rule:evenodd;stroke:#000000;stroke-width:2.0px;stroke-linecap:butt;stroke-linejoin:miter;stroke-opacity:1"/>
<path class="bond-6 atom-6 atom-7" d="M 478.8,67.5 L 516.3,67.5" style="fill:none;fill-rule:evenodd;stroke:#000000;stroke-width:2.0px;stroke-linecap:butt;stroke-linejoin:miter;stroke-opacity:1"/>
<path class="bond-6 atom-6 atom-7" d="M 482.0,73.1 L 513.1,73.1" style="fill:none;fill-rule:evenodd;stroke:#000000;stroke-width:2.0px;stroke-linecap:butt;stroke-linejoin:miter;stroke-opacity:1"/>
<path class="bond-7 atom-7 atom-1" d="M 516.3,67.5 L 535.1,100.0" style="fill:none;fill-rule:evenodd;stroke:#000000;stroke-width:2.0px;stroke-linecap:butt;stroke-linejoin:miter;stroke-opacity:1"/>
<path d="M 517.3,130.9 L 516.3,132.5 L 514.5,132.5" style="fill:none;stroke:#000000;stroke-width:2.0px;stroke-linecap:butt;stroke-linejoin:miter;stroke-opacity:1;"/>
<path d="M 480.7,132.5 L 478.8,132.5 L 477.8,130.9" style="fill:none;stroke:#000000;stroke-width:2.0px;stroke-linecap:butt;stroke-linejoin:miter;stroke-opacity:1;"/>
<path d="M 477.8,69.1 L 478.8,67.5 L 480.7,67.5" style="fill:none;stroke:#000000;stroke-width:2.0px;stroke-linecap:butt;stroke-linejoin:miter;stroke-opacity:1;"/>
<path d="M 514.5,67.5 L 516.3,67.5 L 517.3,69.1" style="fill:none;stroke:#000000;stroke-width:2.0px;stroke-linecap:butt;stroke-linejoin:miter;stroke-opacity:1;"/>
<path class="atom-0" d="M 567.8 100.0 Q 567.8 97.5, 569.0 96.1 Q 570.3 94.6, 572.6 94.6 Q 575.0 94.6, 576.3 96.1 Q 577.5 97.5, 577.5 100.0 Q 577.5 102.6, 576.2 104.1 Q 575.0 105.5, 572.6 105.5 Q 570.3 105.5, 569.0 104.1 Q 567.8 102.6, 567.8 100.0 M 572.6 104.3 Q 574.3 104.3, 575.1 103.3 Q 576.0 102.2, 576.0 100.0 Q 576.0 97.9, 575.1 96.9 Q 574.3 95.8, 572.6 95.8 Q 571.0 95.8, 570.1 96.9 Q 569.3 97.9, 569.3 100.0 Q 569.3 102.2, 570.1 103.3 Q 571.0 104.3, 572.6 104.3 " fill="#FF0000"/>
<path class="atom-0" d="M 579.2 94.7 L 580.6 94.7 L 580.6 99.3 L 586.0 99.3 L 586.0 94.7 L 587.5 94.7 L 587.5 105.4 L 586.0 105.4 L 586.0 100.5 L 580.6 100.5 L 580.6 105.4 L 579.2 105.4 L 579.2 94.7 " fill="#FF0000"/>
<path class="atom-5" d="M 412.5 100.4 Q 412.5 97.7, 413.7 96.3 Q 415.0 94.9, 417.3 94.9 Q 419.5 94.9, 420.7 96.5 L 419.7 97.3 Q 418.9 96.2, 417.3 96.2 Q 415.7 96.2, 414.9 97.3 Q 414.0 98.3, 414.0 100.4 Q 414.0 102.5, 414.9 103.6 Q 415.8 104.6, 417.5 104.6 Q 418.7 104.6, 420.0 103.9 L 420.5 105.1 Q 419.9 105.4, 419.1 105.6 Q 418.2 105.8, 417.3 105.8 Q 415.0 105.8, 413.7 104.4 Q 412.5 103.0, 412.5 100.4 " fill="#00CC00"/>
<path class="atom-5" d="M 421.8 94.3 L 423.2 94.3 L 423.2 105.7 L 421.8 105.7 L 421.8 94.3 " fill="#00CC00"/>
<path class="bond-0 atom-0 atom-1" d="M 621.0,110.6 L 638.6,108.0" style="fill:none;fill-rule:evenodd;stroke:#00CC00;stroke-width:2.0px;stroke-linecap:butt;stroke-linejoin:miter;stroke-opacity:1"/>
<path class="bond-0 atom-0 atom-1" d="M 638.6,108.0 L 656.2,105.4" style="fill:none;fill-rule:evenodd;stroke:#000000;stroke-width:2.0px;stroke-linecap:butt;stroke-linejoin:miter;stroke-opacity:1"/>
<path class="bond-1 atom-1 atom-2" d="M 656.2,105.4 L 670.1,70.5" style="fill:none;fill-rule:evenodd;stroke:#000000;stroke-width:2.0px;stroke-linecap:butt;stroke-linejoin:miter;stroke-opacity:1"/>
<path class="bond-1 atom-1 atom-2" d="M 662.6,104.5 L 674.1,75.6" style="fill:none;fill-rule:evenodd;stroke:#000000;stroke-width:2.0px;stroke-linecap:butt;stroke-linejoin:miter;stroke-opacity:1"/>
<path class="bond-2 atom-2 atom-3" d="M 670.1,70.5 L 707.2,65.1" style="fill:none;fill-rule:evenodd;stroke:#000000;stroke-width:2.0px;stroke-linecap:butt;stroke-linejoin:miter;stroke-opacity:1"/>
<path class="bond-3 atom-3 atom-4" d="M 707.2,65.1 L 730.5,94.6" style="fill:none;fill-rule:evenodd;stroke:#000000;stroke-width:2.0px;stroke-linecap:butt;stroke-linejoin:miter;stroke-opacity:1"/>
<path class="bond-3 atom-3 atom-4" d="M 704.8,71.2 L 724.1,95.5" style="fill:none;fill-rule:evenodd;stroke:#000000;stroke-width:2.0px;stroke-linecap:butt;stroke-linejoin:miter;stroke-opacity:1"/>
<path class="bond-4 atom-4 atom-5" d="M 730.5,94.6 L 746.0,92.3" style="fill:none;fill-rule:evenodd;stroke:#000000;stroke-width:2.0px;stroke-linecap:butt;stroke-linejoin:miter;stroke-opacity:1"/>
<path class="bond-4 atom-4 atom-5" d="M 746.0,92.3 L 761.5,90.0" style="fill:none;fill-rule:evenodd;stroke:#FF0000;stroke-width:2.0px;stroke-linecap:butt;stroke-linejoin:miter;stroke-opacity:1"/>
<path class="bond-5 atom-5 atom-6" d="M 773.0,95.9 L 782.0,107.3" style="fill:none;fill-rule:evenodd;stroke:#FF0000;stroke-width:2.0px;stroke-linecap:butt;stroke-linejoin:miter;stroke-opacity:1"/>
<path class="bond-5 atom-5 atom-6" d="M 782.0,107.3 L 790.9,118.6" style="fill:none;fill-rule:evenodd;stroke:#000000;stroke-width:2.0px;stroke-linecap:butt;stroke-linejoin:miter;stroke-opacity:1"/>
<path class="bond-6 atom-4 atom-7" d="M 730.5,94.6 L 716.6,129.5" style="fill:none;fill-rule:evenodd;stroke:#000000;stroke-width:2.0px;stroke-linecap:butt;stroke-linejoin:miter;stroke-opacity:1"/>
<path class="bond-7 atom-7 atom-8" d="M 716.6,129.5 L 679.5,134.9" style="fill:none;fill-rule:evenodd;stroke:#000000;stroke-width:2.0px;stroke-linecap:butt;stroke-linejoin:miter;stroke-opacity:1"/>
<path class="bond-7 atom-7 atom-8" d="M 712.6,124.4 L 681.9,128.8" style="fill:none;fill-rule:evenodd;stroke:#000000;stroke-width:2.0px;stroke-linecap:butt;stroke-linejoin:miter;stroke-opacity:1"/>
<path class="bond-8 atom-8 atom-1" d="M 679.5,134.9 L 656.2,105.4" style="fill:none;fill-rule:evenodd;stroke:#000000;stroke-width:2.0px;stroke-linecap:butt;stroke-linejoin:miter;stroke-opacity:1"/>
<path d="M 669.4,72.3 L 670.1,70.5 L 671.9,70.3" style="fill:none;stroke:#000000;stroke-width:2.0px;stroke-linecap:butt;stroke-linejoin:miter;stroke-opacity:1;"/>
<path d="M 705.4,65.4 L 707.2,65.1 L 708.4,66.6" style="fill:none;stroke:#000000;stroke-width:2.0px;stroke-linecap:butt;stroke-linejoin:miter;stroke-opacity:1;"/>
<path d="M 717.3,127.7 L 716.6,129.5 L 714.8,129.7" style="fill:none;stroke:#000000;stroke-width:2.0px;stroke-linecap:butt;stroke-linejoin:miter;stroke-opacity:1;"/>
<path d="M 681.3,134.6 L 679.5,134.9 L 678.3,133.4" style="fill:none;stroke:#000000;stroke-width:2.0px;stroke-linecap:butt;stroke-linejoin:miter;stroke-opacity:1;"/>
<path class="atom-0" d="M 609.1 111.2 Q 609.1 108.6, 610.3 107.2 Q 611.6 105.8, 613.9 105.8 Q 616.1 105.8, 617.3 107.3 L 616.3 108.2 Q 615.4 107.0, 613.9 107.0 Q 612.3 107.0, 611.5 108.1 Q 610.6 109.2, 610.6 111.2 Q 610.6 113.3, 611.5 114.4 Q 612.4 115.5, 614.1 115.5 Q 615.3 115.5, 616.6 114.8 L 617.0 115.9 Q 616.5 116.3, 615.7 116.5 Q 614.8 116.7, 613.9 116.7 Q 611.6 116.7, 610.3 115.3 Q 609.1 113.9, 609.1 111.2 " fill="#00CC00"/>
<path class="atom-0" d="M 618.4 105.2 L 619.8 105.2 L 619.8 116.6 L 618.4 116.6 L 618.4 105.2 " fill="#00CC00"/>
<path class="atom-5" d="M 762.8 89.2 Q 762.8 86.6, 764.0 85.2 Q 765.3 83.8, 767.6 83.8 Q 770.0 83.8, 771.3 85.2 Q 772.5 86.6, 772.5 89.2 Q 772.5 91.8, 771.2 93.2 Q 770.0 94.7, 767.6 94.7 Q 765.3 94.7, 764.0 93.2 Q 762.8 91.8, 762.8 89.2 M 767.6 93.5 Q 769.3 93.5, 770.1 92.4 Q 771.0 91.3, 771.0 89.2 Q 771.0 87.1, 770.1 86.0 Q 769.3 85.0, 767.6 85.0 Q 766.0 85.0, 765.1 86.0 Q 764.3 87.1, 764.3 89.2 Q 764.3 91.3, 765.1 92.4 Q 766.0 93.5, 767.6 93.5 " fill="#FF0000"/>
<path class="bond-0 atom-0 atom-1" d="M 167.8,314.2 L 152.1,309.1" style="fill:none;fill-rule:evenodd;stroke:#33CCCC;stroke-width:2.0px;stroke-linecap:butt;stroke-linejoin:miter;stroke-opacity:1"/>
<path class="bond-0 atom-0 atom-1" d="M 152.1,309.1 L 136.5,304.0" style="fill:none;fill-rule:evenodd;stroke:#000000;stroke-width:2.0px;stroke-linecap:butt;stroke-linejoin:miter;stroke-opacity:1"/>
<path class="bond-1 atom-1 atom-2" d="M 136.5,304.0 L 124.9,268.3" style="fill:none;fill-rule:evenodd;stroke:#000000;stroke-width:2.0px;stroke-linecap:butt;stroke-linejoin:miter;stroke-opacity:1"/>
<path class="bond-1 atom-1 atom-2" d="M 129.9,301.9 L 120.8,274.0" style="fill:none;fill-rule:evenodd;stroke:#000000;stroke-width:2.0px;stroke-linecap:butt;stroke-linejoin:miter;stroke-opacity:1"/>
<path class="bond-2 atom-2 atom-3" d="M 124.9,268.3 L 87.3,268.3" style="fill:none;fill-rule:evenodd;stroke:#000000;stroke-width:2.0px;stroke-linecap:butt;stroke-linejoin:miter;stroke-opacity:1"/>
<path class="bond-3 atom-3 atom-4" d="M 87.3,268.3 L 75.7,304.0" style="fill:none;fill-rule:evenodd;stroke:#000000;stroke-width:2.0px;stroke-linecap:butt;stroke-linejoin:miter;stroke-opacity:1"/>
<path class="bond-3 atom-3 atom-4" d="M 91.4,274.0 L 82.4,301.9" style="fill:none;fill-rule:evenodd;stroke:#000000;stroke-width:2.0px;stroke-linecap:butt;stroke-linejoin:miter;stroke-opacity:1"/>
<path class="bond-4 atom-4 atom-5" d="M 75.7,304.0 L 60.9,308.8" style="fill:none;fill-rule:evenodd;stroke:#000000;stroke-width:2.0px;stroke-linecap:butt;stroke-linejoin:miter;stroke-opacity:1"/>
<path class="bond-4 atom-4 atom-5" d="M 60.9,308.8 L 46.2,313.6" style="fill:none;fill-rule:evenodd;stroke:#FF0000;stroke-width:2.0px;stroke-linecap:butt;stroke-linejoin:miter;stroke-opacity:1"/>
<path class="bond-5 atom-4 atom-6" d="M 75.7,304.0 L 88.6,313.4" style="fill:none;fill-rule:evenodd;stroke:#000000;stroke-width:2.0px;stroke-linecap:butt;stroke-linejoin:miter;stroke-opacity:1"/>
<path class="bond-5 atom-4 atom-6" d="M 88.6,313.4 L 101.5,322.7" style="fill:none;fill-rule:evenodd;stroke:#CCCC00;stroke-width:2.0px;stroke-linecap:butt;stroke-linejoin:miter;stroke-opacity:1"/>
<path class="bond-6 atom-6 atom-1" d="M 110.8,322.7 L 123.6,313.4" style="fill:none;fill-rule:evenodd;stroke:#CCCC00;stroke-width:2.0px;stroke-linecap:butt;stroke-linejoin:miter;stroke-opacity:1"/>
<path class="bond-6 atom-6 atom-1" d="M 123.6,313.4 L 136.5,304.0" style="fill:none;fill-rule:evenodd;stroke:#000000;stroke-width:2.0px;stroke-linecap:butt;stroke-linejoin:miter;stroke-opacity:1"/>
<path d="M 125.5,270.1 L 124.9,268.3 L 123.0,268.3" style="fill:none;stroke:#000000;stroke-width:2.0px;stroke-linecap:butt;stroke-linejoin:miter;stroke-opacity:1;"/>
<path d="M 89.2,268.3 L 87.3,268.3 L 86.8,270.1" style="fill:none;stroke:#000000;stroke-width:2.0px;stroke-linecap:butt;stroke-linejoin:miter;stroke-opacity:1;"/>
<path class="atom-0" d="M 169.0 310.3 L 175.3 310.3 L 175.3 311.5 L 170.4 311.5 L 170.4 314.8 L 174.8 314.8 L 174.8 316.0 L 170.4 316.0 L 170.4 320.9 L 169.0 320.9 L 169.0 310.3 " fill="#33CCCC"/>
<path class="atom-5" d="M 24.7 310.4 L 26.1 310.4 L 26.1 314.9 L 31.5 314.9 L 31.5 310.4 L 33.0 310.4 L 33.0 321.0 L 31.5 321.0 L 31.5 316.1 L 26.1 316.1 L 26.1 321.0 L 24.7 321.0 L 24.7 310.4 " fill="#FF0000"/>
<path class="atom-5" d="M 35.2 315.7 Q 35.2 313.1, 36.4 311.7 Q 37.7 310.3, 40.0 310.3 Q 42.4 310.3, 43.7 311.7 Q 44.9 313.1, 44.9 315.7 Q 44.9 318.2, 43.6 319.7 Q 42.4 321.2, 40.0 321.2 Q 37.7 321.2, 36.4 319.7 Q 35.2 318.3, 35.2 315.7 M 40.0 320.0 Q 41.7 320.0, 42.5 318.9 Q 43.4 317.8, 43.4 315.7 Q 43.4 313.6, 42.5 312.5 Q 41.7 311.5, 40.0 311.5 Q 38.4 311.5, 37.5 312.5 Q 36.7 313.6, 36.7 315.7 Q 36.7 317.8, 37.5 318.9 Q 38.4 320.0, 40.0 320.0 " fill="#FF0000"/>
<path class="atom-6" d="M 103.1 329.7 Q 103.2 329.8, 103.7 330.0 Q 104.2 330.2, 104.8 330.3 Q 105.3 330.5, 105.9 330.5 Q 106.9 330.5, 107.4 330.0 Q 108.0 329.5, 108.0 328.6 Q 108.0 328.0, 107.7 327.7 Q 107.4 327.3, 107.0 327.1 Q 106.5 326.9, 105.8 326.7 Q 104.8 326.4, 104.3 326.2 Q 103.7 325.9, 103.3 325.3 Q 102.9 324.7, 102.9 323.8 Q 102.9 322.4, 103.8 321.6 Q 104.7 320.8, 106.5 320.8 Q 107.8 320.8, 109.2 321.4 L 108.8 322.5 Q 107.6 322.0, 106.6 322.0 Q 105.6 322.0, 105.0 322.4 Q 104.4 322.9, 104.4 323.6 Q 104.4 324.2, 104.7 324.5 Q 105.0 324.9, 105.4 325.1 Q 105.9 325.2, 106.6 325.5 Q 107.6 325.8, 108.1 326.1 Q 108.7 326.4, 109.1 327.0 Q 109.5 327.6, 109.5 328.6 Q 109.5 330.1, 108.5 330.9 Q 107.6 331.7, 105.9 331.7 Q 105.0 331.7, 104.2 331.5 Q 103.5 331.3, 102.7 330.9 L 103.1 329.7 " fill="#CCCC00"/>
<path class="bond-0 atom-0 atom-1" d="M 373.9,327.8 L 366.8,314.7" style="fill:none;fill-rule:evenodd;stroke:#000000;stroke-width:2.0px;stroke-linecap:butt;stroke-linejoin:miter;stroke-opacity:1"/>
<path class="bond-0 atom-0 atom-1" d="M 366.8,314.7 L 359.7,301.5" style="fill:none;fill-rule:evenodd;stroke:#FF0000;stroke-width:2.0px;stroke-linecap:butt;stroke-linejoin:miter;stroke-opacity:1"/>
<path class="bond-1 atom-1 atom-2" d="M 349.9,294.6 L 334.2,294.1" style="fill:none;fill-rule:evenodd;stroke:#FF0000;stroke-width:2.0px;stroke-linecap:butt;stroke-linejoin:miter;stroke-opacity:1"/>
<path class="bond-1 atom-1 atom-2" d="M 334.2,294.1 L 318.5,293.7" style="fill:none;fill-rule:evenodd;stroke:#000000;stroke-width:2.0px;stroke-linecap:butt;stroke-linejoin:miter;stroke-opacity:1"/>
<path class="bond-2 atom-2 atom-3" d="M 318.5,293.7 L 297.4,262.7" style="fill:none;fill-rule:evenodd;stroke:#000000;stroke-width:2.0px;stroke-linecap:butt;stroke-linejoin:miter;stroke-opacity:1"/>
<path class="bond-2 atom-2 atom-3" d="M 311.6,293.5 L 295.0,269.3" style="fill:none;fill-rule:evenodd;stroke:#000000;stroke-width:2.0px;stroke-linecap:butt;stroke-linejoin:miter;stroke-opacity:1"/>
<path class="bond-3 atom-3 atom-4" d="M 297.4,262.7 L 261.3,273.3" style="fill:none;fill-rule:evenodd;stroke:#000000;stroke-width:2.0px;stroke-linecap:butt;stroke-linejoin:miter;stroke-opacity:1"/>
<path class="bond-4 atom-4 atom-5" d="M 261.3,273.3 L 260.3,310.8" style="fill:none;fill-rule:evenodd;stroke:#000000;stroke-width:2.0px;stroke-linecap:butt;stroke-linejoin:miter;stroke-opacity:1"/>
<path class="bond-4 atom-4 atom-5" d="M 266.8,277.5 L 266.0,306.9" style="fill:none;fill-rule:evenodd;stroke:#000000;stroke-width:2.0px;stroke-linecap:butt;stroke-linejoin:miter;stroke-opacity:1"/>
<path class="bond-5 atom-5 atom-6" d="M 260.3,310.8 L 247.0,319.9" style="fill:none;fill-rule:evenodd;stroke:#000000;stroke-width:2.0px;stroke-linecap:butt;stroke-linejoin:miter;stroke-opacity:1"/>
<path class="bond-5 atom-5 atom-6" d="M 247.0,319.9 L 233.7,329.0" style="fill:none;fill-rule:evenodd;stroke:#33CCCC;stroke-width:2.0px;stroke-linecap:butt;stroke-linejoin:miter;stroke-opacity:1"/>
<path class="bond-6 atom-5 atom-7" d="M 260.3,310.8 L 275.6,316.3" style="fill:none;fill-rule:evenodd;stroke:#000000;stroke-width:2.0px;stroke-linecap:butt;stroke-linejoin:miter;stroke-opacity:1"/>
<path class="bond-6 atom-5 atom-7" d="M 275.6,316.3 L 291.0,321.8" style="fill:none;fill-rule:evenodd;stroke:#CCCC00;stroke-width:2.0px;stroke-linecap:butt;stroke-linejoin:miter;stroke-opacity:1"/>
<path class="bond-7 atom-7 atom-2" d="M 300.3,317.4 L 309.4,305.5" style="fill:none;fill-rule:evenodd;stroke:#CCCC00;stroke-width:2.0px;stroke-linecap:butt;stroke-linejoin:miter;stroke-opacity:1"/>
<path class="bond-7 atom-7 atom-2" d="M 309.4,305.5 L 318.5,293.7" style="fill:none;fill-rule:evenodd;stroke:#000000;stroke-width:2.0px;stroke-linecap:butt;stroke-linejoin:miter;stroke-opacity:1"/>
<path d="M 298.4,264.3 L 297.4,262.7 L 295.6,263.2" style="fill:none;stroke:#000000;stroke-width:2.0px;stroke-linecap:butt;stroke-linejoin:miter;stroke-opacity:1;"/>
<path d="M 263.1,272.7 L 261.3,273.3 L 261.3,275.2" style="fill:none;stroke:#000000;stroke-width:2.0px;stroke-linecap:butt;stroke-linejoin:miter;stroke-opacity:1;"/>
<path class="atom-1" d="M 351.2 294.8 Q 351.2 292.2, 352.4 290.8 Q 353.7 289.4, 356.1 289.4 Q 358.4 289.4, 359.7 290.8 Q 360.9 292.2, 360.9 294.8 Q 360.9 297.4, 359.7 298.9 Q 358.4 300.3, 356.1 300.3 Q 353.7 300.3, 352.4 298.9 Q 351.2 297.4, 351.2 294.8 M 356.1 299.1 Q 357.7 299.1, 358.6 298.0 Q 359.4 296.9, 359.4 294.8 Q 359.4 292.7, 358.6 291.7 Q 357.7 290.6, 356.1 290.6 Q 354.4 290.6, 353.6 291.6 Q 352.7 292.7, 352.7 294.8 Q 352.7 296.9, 353.6 298.0 Q 354.4 299.1, 356.1 299.1 " fill="#FF0000"/>
<path class="atom-6" d="M 226.1 326.7 L 232.4 326.7 L 232.4 327.9 L 227.5 327.9 L 227.5 331.1 L 231.9 331.1 L 231.9 332.3 L 227.5 332.3 L 227.5 337.3 L 226.1 337.3 L 226.1 326.7 " fill="#33CCCC"/>
<path class="atom-7" d="M 292.6 327.1 Q 292.7 327.1, 293.2 327.3 Q 293.7 327.5, 294.3 327.7 Q 294.8 327.8, 295.4 327.8 Q 296.4 327.8, 296.9 327.3 Q 297.5 326.8, 297.5 326.0 Q 297.5 325.4, 297.2 325.0 Q 296.9 324.6, 296.5 324.5 Q 296.0 324.3, 295.3 324.0 Q 294.4 323.7, 293.8 323.5 Q 293.2 323.2, 292.8 322.6 Q 292.4 322.1, 292.4 321.1 Q 292.4 319.8, 293.3 318.9 Q 294.2 318.1, 296.0 318.1 Q 297.3 318.1, 298.7 318.7 L 298.3 319.9 Q 297.1 319.3, 296.1 319.3 Q 295.1 319.3, 294.5 319.8 Q 293.9 320.2, 293.9 320.9 Q 293.9 321.5, 294.2 321.8 Q 294.5 322.2, 294.9 322.4 Q 295.4 322.6, 296.1 322.8 Q 297.1 323.1, 297.6 323.4 Q 298.2 323.7, 298.6 324.3 Q 299.0 324.9, 299.0 326.0 Q 299.0 327.4, 298.0 328.2 Q 297.1 329.0, 295.4 329.0 Q 294.5 329.0, 293.8 328.8 Q 293.0 328.6, 292.2 328.3 L 292.6 327.1 " fill="#CCCC00"/>
<path class="bond-0 atom-0 atom-1" d="M 565.1,313.9 L 550.0,309.0" style="fill:none;fill-rule:evenodd;stroke:#00CC00;stroke-width:2.0px;stroke-linecap:butt;stroke-linejoin:miter;stroke-opacity:1"/>
<path class="bond-0 atom-0 atom-1" d="M 550.0,309.0 L 534.8,304.0" style="fill:none;fill-rule:evenodd;stroke:#000000;stroke-width:2.0px;stroke-linecap:butt;stroke-linejoin:miter;stroke-opacity:1"/>
<path class="bond-1 atom-1 atom-2" d="M 534.8,304.0 L 523.2,268.3" style="fill:none;fill-rule:evenodd;stroke:#000000;stroke-width:2.0px;stroke-linecap:butt;stroke-linejoin:miter;stroke-opacity:1"/>
<path class="bond-1 atom-1 atom-2" d="M 528.2,301.9 L 519.1,274.0" style="fill:none;fill-rule:evenodd;stroke:#000000;stroke-width:2.0px;stroke-linecap:butt;stroke-linejoin:miter;stroke-opacity:1"/>
<path class="bond-2 atom-2 atom-3" d="M 523.2,268.3 L 485.6,268.3" style="fill:none;fill-rule:evenodd;stroke:#000000;stroke-width:2.0px;stroke-linecap:butt;stroke-linejoin:miter;stroke-opacity:1"/>
<path class="bond-3 atom-3 atom-4" d="M 485.6,268.3 L 474.0,304.0" style="fill:none;fill-rule:evenodd;stroke:#000000;stroke-width:2.0px;stroke-linecap:butt;stroke-linejoin:miter;stroke-opacity:1"/>
<path class="bond-3 atom-3 atom-4" d="M 489.7,274.0 L 480.7,301.9" style="fill:none;fill-rule:evenodd;stroke:#000000;stroke-width:2.0px;stroke-linecap:butt;stroke-linejoin:miter;stroke-opacity:1"/>
<path class="bond-4 atom-4 atom-5" d="M 474.0,304.0 L 459.2,308.8" style="fill:none;fill-rule:evenodd;stroke:#000000;stroke-width:2.0px;stroke-linecap:butt;stroke-linejoin:miter;stroke-opacity:1"/>
<path class="bond-4 atom-4 atom-5" d="M 459.2,308.8 L 444.5,313.6" style="fill:none;fill-rule:evenodd;stroke:#FF0000;stroke-width:2.0px;stroke-linecap:butt;stroke-linejoin:miter;stroke-opacity:1"/>
<path class="bond-5 atom-4 atom-6" d="M 474.0,304.0 L 486.9,313.4" style="fill:none;fill-rule:evenodd;stroke:#000000;stroke-width:2.0px;stroke-linecap:butt;stroke-linejoin:miter;stroke-opacity:1"/>
<path class="bond-5 atom-4 atom-6" d="M 486.9,313.4 L 499.8,322.7" style="fill:none;fill-rule:evenodd;stroke:#CCCC00;stroke-width:2.0px;stroke-linecap:butt;stroke-linejoin:miter;stroke-opacity:1"/>
<path class="bond-6 atom-6 atom-1" d="M 509.1,322.7 L 521.9,313.4" style="fill:none;fill-rule:evenodd;stroke:#CCCC00;stroke-width:2.0px;stroke-linecap:butt;stroke-linejoin:miter;stroke-opacity:1"/>
<path class="bond-6 atom-6 atom-1" d="M 521.9,313.4 L 534.8,304.0" style="fill:none;fill-rule:evenodd;stroke:#000000;stroke-width:2.0px;stroke-linecap:butt;stroke-linejoin:miter;stroke-opacity:1"/>
<path d="M 523.8,270.1 L 523.2,268.3 L 521.3,268.3" style="fill:none;stroke:#000000;stroke-width:2.0px;stroke-linecap:butt;stroke-linejoin:miter;stroke-opacity:1;"/>
<path d="M 487.5,268.3 L 485.6,268.3 L 485.1,270.1" style="fill:none;stroke:#000000;stroke-width:2.0px;stroke-linecap:butt;stroke-linejoin:miter;stroke-opacity:1;"/>
<path class="atom-0" d="M 566.4 316.0 Q 566.4 313.4, 567.6 312.0 Q 568.9 310.6, 571.2 310.6 Q 573.4 310.6, 574.6 312.1 L 573.6 312.9 Q 572.7 311.8, 571.2 311.8 Q 569.6 311.8, 568.8 312.9 Q 567.9 314.0, 567.9 316.0 Q 567.9 318.1, 568.8 319.2 Q 569.7 320.3, 571.4 320.3 Q 572.6 320.3, 573.9 319.6 L 574.3 320.7 Q 573.8 321.0, 572.9 321.2 Q 572.1 321.5, 571.2 321.5 Q 568.9 321.5, 567.6 320.0 Q 566.4 318.6, 566.4 316.0 " fill="#00CC00"/>
<path class="atom-0" d="M 575.7 309.9 L 577.0 309.9 L 577.0 321.3 L 575.7 321.3 L 575.7 309.9 " fill="#00CC00"/>
<path class="atom-5" d="M 423.0 310.4 L 424.4 310.4 L 424.4 314.9 L 429.8 314.9 L 429.8 310.4 L 431.3 310.4 L 431.3 321.0 L 429.8 321.0 L 429.8 316.1 L 424.4 316.1 L 424.4 321.0 L 423.0 321.0 L 423.0 310.4 " fill="#FF0000"/>
<path class="atom-5" d="M 433.5 315.7 Q 433.5 313.1, 434.7 311.7 Q 436.0 310.3, 438.3 310.3 Q 440.7 310.3, 442.0 311.7 Q 443.2 313.1, 443.2 315.7 Q 443.2 318.2, 441.9 319.7 Q 440.7 321.2, 438.3 321.2 Q 436.0 321.2, 434.7 319.7 Q 433.5 318.3, 433.5 315.7 M 438.3 320.0 Q 440.0 320.0, 440.8 318.9 Q 441.7 317.8, 441.7 315.7 Q 441.7 313.6, 440.8 312.5 Q 440.0 311.5, 438.3 311.5 Q 436.7 311.5, 435.8 312.5 Q 435.0 313.6, 435.0 315.7 Q 435.0 317.8, 435.8 318.9 Q 436.7 320.0, 438.3 320.0 " fill="#FF0000"/>
<path class="atom-6" d="M 501.4 329.7 Q 501.5 329.8, 502.0 330.0 Q 502.5 330.2, 503.1 330.3 Q 503.6 330.5, 504.2 330.5 Q 505.2 330.5, 505.7 330.0 Q 506.3 329.5, 506.3 328.6 Q 506.3 328.0, 506.0 327.7 Q 505.7 327.3, 505.3 327.1 Q 504.8 326.9, 504.1 326.7 Q 503.1 326.4, 502.6 326.2 Q 502.0 325.9, 501.6 325.3 Q 501.2 324.7, 501.2 323.8 Q 501.2 322.4, 502.1 321.6 Q 503.0 320.8, 504.8 320.8 Q 506.1 320.8, 507.5 321.4 L 507.1 322.5 Q 505.9 322.0, 504.9 322.0 Q 503.9 322.0, 503.3 322.4 Q 502.7 322.9, 502.7 323.6 Q 502.7 324.2, 503.0 324.5 Q 503.3 324.9, 503.7 325.1 Q 504.2 325.2, 504.9 325.5 Q 505.9 325.8, 506.4 326.1 Q 507.0 326.4, 507.4 327.0 Q 507.8 327.6, 507.8 328.6 Q 507.8 330.1, 506.8 330.9 Q 505.9 331.7, 504.2 331.7 Q 503.3 331.7, 502.5 331.5 Q 501.8 331.3, 501.0 330.9 L 501.4 329.7 " fill="#CCCC00"/>
<path class="bond-0 atom-0 atom-1" d="M 771.9,311.3 L 756.5,307.1" style="fill:none;fill-rule:evenodd;stroke:#00CC00;stroke-width:2.0px;stroke-linecap:butt;stroke-linejoin:miter;stroke-opacity:1"/>
<path class="bond-0 atom-0 atom-1" d="M 756.5,307.1 L 741.0,302.9" style="fill:none;fill-rule:evenodd;stroke:#000000;stroke-width:2.0px;stroke-linecap:butt;stroke-linejoin:miter;stroke-opacity:1"/>
<path class="bond-1 atom-1 atom-2" d="M 741.0,302.9 L 727.6,267.9" style="fill:none;fill-rule:evenodd;stroke:#000000;stroke-width:2.0px;stroke-linecap:butt;stroke-linejoin:miter;stroke-opacity:1"/>
<path class="bond-1 atom-1 atom-2" d="M 734.3,301.1 L 723.8,273.7" style="fill:none;fill-rule:evenodd;stroke:#000000;stroke-width:2.0px;stroke-linecap:butt;stroke-linejoin:miter;stroke-opacity:1"/>
<path class="bond-2 atom-2 atom-3" d="M 727.6,267.9 L 690.1,269.8" style="fill:none;fill-rule:evenodd;stroke:#000000;stroke-width:2.0px;stroke-linecap:butt;stroke-linejoin:miter;stroke-opacity:1"/>
<path class="bond-3 atom-3 atom-4" d="M 690.1,269.8 L 680.4,306.0" style="fill:none;fill-rule:evenodd;stroke:#000000;stroke-width:2.0px;stroke-linecap:butt;stroke-linejoin:miter;stroke-opacity:1"/>
<path class="bond-3 atom-3 atom-4" d="M 694.5,275.2 L 686.9,303.6" style="fill:none;fill-rule:evenodd;stroke:#000000;stroke-width:2.0px;stroke-linecap:butt;stroke-linejoin:miter;stroke-opacity:1"/>
<path class="bond-4 atom-4 atom-5" d="M 680.4,306.0 L 665.9,311.6" style="fill:none;fill-rule:evenodd;stroke:#000000;stroke-width:2.0px;stroke-linecap:butt;stroke-linejoin:miter;stroke-opacity:1"/>
<path class="bond-4 atom-4 atom-5" d="M 665.9,311.6 L 651.4,317.1" style="fill:none;fill-rule:evenodd;stroke:#FF0000;stroke-width:2.0px;stroke-linecap:butt;stroke-linejoin:miter;stroke-opacity:1"/>
<path class="bond-5 atom-5 atom-6" d="M 639.2,314.5 L 627.7,305.1" style="fill:none;fill-rule:evenodd;stroke:#FF0000;stroke-width:2.0px;stroke-linecap:butt;stroke-linejoin:miter;stroke-opacity:1"/>
<path class="bond-5 atom-5 atom-6" d="M 627.7,305.1 L 616.2,295.8" style="fill:none;fill-rule:evenodd;stroke:#000000;stroke-width:2.0px;stroke-linecap:butt;stroke-linejoin:miter;stroke-opacity:1"/>
<path class="bond-6 atom-4 atom-7" d="M 680.4,306.0 L 693.8,314.8" style="fill:none;fill-rule:evenodd;stroke:#000000;stroke-width:2.0px;stroke-linecap:butt;stroke-linejoin:miter;stroke-opacity:1"/>
<path class="bond-6 atom-4 atom-7" d="M 693.8,314.8 L 707.2,323.5" style="fill:none;fill-rule:evenodd;stroke:#CCCC00;stroke-width:2.0px;stroke-linecap:butt;stroke-linejoin:miter;stroke-opacity:1"/>
<path class="bond-7 atom-7 atom-1" d="M 716.5,322.8 L 728.8,312.9" style="fill:none;fill-rule:evenodd;stroke:#CCCC00;stroke-width:2.0px;stroke-linecap:butt;stroke-linejoin:miter;stroke-opacity:1"/>
<path class="bond-7 atom-7 atom-1" d="M 728.8,312.9 L 741.0,302.9" style="fill:none;fill-rule:evenodd;stroke:#000000;stroke-width:2.0px;stroke-linecap:butt;stroke-linejoin:miter;stroke-opacity:1"/>
<path d="M 728.3,269.6 L 727.6,267.9 L 725.7,268.0" style="fill:none;stroke:#000000;stroke-width:2.0px;stroke-linecap:butt;stroke-linejoin:miter;stroke-opacity:1;"/>
<path d="M 692.0,269.7 L 690.1,269.8 L 689.6,271.6" style="fill:none;stroke:#000000;stroke-width:2.0px;stroke-linecap:butt;stroke-linejoin:miter;stroke-opacity:1;"/>
<path class="atom-0" d="M 773.2 313.1 Q 773.2 310.4, 774.4 309.1 Q 775.7 307.7, 778.0 307.7 Q 780.2 307.7, 781.4 309.2 L 780.4 310.0 Q 779.5 308.9, 778.0 308.9 Q 776.4 308.9, 775.5 310.0 Q 774.7 311.0, 774.7 313.1 Q 774.7 315.2, 775.6 316.3 Q 776.5 317.3, 778.2 317.3 Q 779.3 317.3, 780.7 316.6 L 781.1 317.8 Q 780.6 318.1, 779.7 318.3 Q 778.9 318.5, 778.0 318.5 Q 775.7 318.5, 774.4 317.1 Q 773.2 315.7, 773.2 313.1 " fill="#00CC00"/>
<path class="atom-0" d="M 782.5 307.0 L 783.8 307.0 L 783.8 318.4 L 782.5 318.4 L 782.5 307.0 " fill="#00CC00"/>
<path class="atom-5" d="M 640.4 319.5 Q 640.4 316.9, 641.7 315.5 Q 642.9 314.1, 645.3 314.1 Q 647.7 314.1, 648.9 315.5 Q 650.2 316.9, 650.2 319.5 Q 650.2 322.1, 648.9 323.5 Q 647.6 325.0, 645.3 325.0 Q 643.0 325.0, 641.7 323.5 Q 640.4 322.1, 640.4 319.5 M 645.3 323.8 Q 646.9 323.8, 647.8 322.7 Q 648.7 321.6, 648.7 319.5 Q 648.7 317.4, 647.8 316.3 Q 646.9 315.3, 645.3 315.3 Q 643.7 315.3, 642.8 316.3 Q 641.9 317.4, 641.9 319.5 Q 641.9 321.6, 642.8 322.7 Q 643.7 323.8, 645.3 323.8 " fill="#FF0000"/>
<path class="atom-7" d="M 708.8 330.2 Q 708.9 330.2, 709.4 330.4 Q 709.9 330.6, 710.5 330.8 Q 711.0 330.9, 711.6 330.9 Q 712.6 330.9, 713.2 330.4 Q 713.7 329.9, 713.7 329.1 Q 713.7 328.5, 713.4 328.1 Q 713.2 327.8, 712.7 327.6 Q 712.3 327.4, 711.5 327.1 Q 710.6 326.9, 710.0 326.6 Q 709.4 326.3, 709.0 325.8 Q 708.6 325.2, 708.6 324.2 Q 708.6 322.9, 709.5 322.1 Q 710.5 321.2, 712.3 321.2 Q 713.5 321.2, 714.9 321.8 L 714.5 323.0 Q 713.3 322.4, 712.3 322.4 Q 711.3 322.4, 710.7 322.9 Q 710.1 323.3, 710.1 324.0 Q 710.1 324.6, 710.4 325.0 Q 710.7 325.3, 711.1 325.5 Q 711.6 325.7, 712.3 325.9 Q 713.3 326.2, 713.8 326.5 Q 714.4 326.8, 714.8 327.4 Q 715.2 328.0, 715.2 329.1 Q 715.2 330.5, 714.2 331.3 Q 713.3 332.1, 711.6 332.1 Q 710.7 332.1, 710.0 331.9 Q 709.3 331.7, 708.4 331.4 L 708.8 330.2 " fill="#CCCC00"/>
</svg>