<svg xmlns="http://www.w3.org/2000/svg" xmlns:rdkit="http://www.rdkit.org/xml" xmlns:xlink="http://www.w3.org/1999/xlink" version="1.1" baseProfile="full" xml:space="preserve" width="600px" height="600px" viewBox="0 0 600 600">
<!-- END OF HEADER -->
<rect style="opacity:1.0;fill:#FFFFFF;stroke:none" width="600.0" height="600.0" x="0.0" y="0.0"> </rect>
<path class="bond-0 atom-0 atom-1" d="M 86.5,116.6 L 72.7,92.7" style="fill:none;fill-rule:evenodd;stroke:#000000;stroke-width:2.0px;stroke-linecap:butt;stroke-linejoin:miter;stroke-opacity:1"/>
<path class="bond-0 atom-0 atom-1" d="M 88.9,112.4 L 77.5,92.7" style="fill:none;fill-rule:evenodd;stroke:#000000;stroke-width:2.0px;stroke-linecap:butt;stroke-linejoin:miter;stroke-opacity:1"/>
<path class="bond-1 atom-1 atom-2" d="M 72.7,92.7 L 61.2,92.7" style="fill:none;fill-rule:evenodd;stroke:#000000;stroke-width:2.0px;stroke-linecap:butt;stroke-linejoin:miter;stroke-opacity:1"/>
<path class="bond-1 atom-1 atom-2" d="M 61.2,92.7 L 49.6,92.7" style="fill:none;fill-rule:evenodd;stroke:#FF0000;stroke-width:2.0px;stroke-linecap:butt;stroke-linejoin:miter;stroke-opacity:1"/>
<path class="bond-2 atom-1 atom-3" d="M 72.7,92.7 L 86.5,68.8" style="fill:none;fill-rule:evenodd;stroke:#000000;stroke-width:2.0px;stroke-linecap:butt;stroke-linejoin:miter;stroke-opacity:1"/>
<path class="bond-3 atom-3 atom-4" d="M 86.5,68.8 L 98.4,68.8" style="fill:none;fill-rule:evenodd;stroke:#000000;stroke-width:2.0px;stroke-linecap:butt;stroke-linejoin:miter;stroke-opacity:1"/>
<path class="bond-3 atom-3 atom-4" d="M 98.4,68.8 L 110.2,68.8" style="fill:none;fill-rule:evenodd;stroke:#0000FF;stroke-width:2.0px;stroke-linecap:butt;stroke-linejoin:miter;stroke-opacity:1"/>
<path class="bond-3 atom-3 atom-4" d="M 88.9,72.9 L 99.6,72.9" style="fill:none;fill-rule:evenodd;stroke:#000000;stroke-width:2.0px;stroke-linecap:butt;stroke-linejoin:miter;stroke-opacity:1"/>
<path class="bond-3 atom-3 atom-4" d="M 99.6,72.9 L 110.2,72.9" style="fill:none;fill-rule:evenodd;stroke:#0000FF;stroke-width:2.0px;stroke-linecap:butt;stroke-linejoin:miter;stroke-opacity:1"/>
<path class="bond-4 atom-4 atom-5" d="M 116.9,73.6 L 122.4,83.1" style="fill:none;fill-rule:evenodd;stroke:#0000FF;stroke-width:2.0px;stroke-linecap:butt;stroke-linejoin:miter;stroke-opacity:1"/>
<path class="bond-4 atom-4 atom-5" d="M 122.4,83.1 L 127.9,92.7" style="fill:none;fill-rule:evenodd;stroke:#000000;stroke-width:2.0px;stroke-linecap:butt;stroke-linejoin:miter;stroke-opacity:1"/>
<path class="bond-5 atom-5 atom-6" d="M 127.9,92.7 L 114.1,116.6" style="fill:none;fill-rule:evenodd;stroke:#000000;stroke-width:2.0px;stroke-linecap:butt;stroke-linejoin:miter;stroke-opacity:1"/>
<path class="bond-5 atom-5 atom-6" d="M 123.1,92.7 L 111.7,112.4" style="fill:none;fill-rule:evenodd;stroke:#000000;stroke-width:2.0px;stroke-linecap:butt;stroke-linejoin:miter;stroke-opacity:1"/>
<path class="bond-6 atom-5 atom-7" d="M 127.9,92.7 L 139.8,92.7" style="fill:none;fill-rule:evenodd;stroke:#000000;stroke-width:2.0px;stroke-linecap:butt;stroke-linejoin:miter;stroke-opacity:1"/>
<path class="bond-6 atom-5 atom-7" d="M 139.8,92.7 L 151.6,92.7" style="fill:none;fill-rule:evenodd;stroke:#0000FF;stroke-width:2.0px;stroke-linecap:butt;stroke-linejoin:miter;stroke-opacity:1"/>
<path class="bond-7 atom-6 atom-0" d="M 114.1,116.6 L 86.5,116.6" style="fill:none;fill-rule:evenodd;stroke:#000000;stroke-width:2.0px;stroke-linecap:butt;stroke-linejoin:miter;stroke-opacity:1"/>
<path d="M 85.8,115.4 L 86.5,116.6 L 87.9,116.6" style="fill:none;stroke:#000000;stroke-width:2.0px;stroke-linecap:butt;stroke-linejoin:miter;stroke-opacity:1;"/>
<path d="M 85.8,70.0 L 86.5,68.8 L 87.1,68.8" style="fill:none;stroke:#000000;stroke-width:2.0px;stroke-linecap:butt;stroke-linejoin:miter;stroke-opacity:1;"/>
<path d="M 114.8,115.4 L 114.1,116.6 L 112.7,116.6" style="fill:none;stroke:#000000;stroke-width:2.0px;stroke-linecap:butt;stroke-linejoin:miter;stroke-opacity:1;"/>
<path class="atom-2" d="M 41.5 92.7 Q 41.5 90.8, 42.4 89.8 Q 43.4 88.7, 45.1 88.7 Q 46.8 88.7, 47.8 89.8 Q 48.7 90.8, 48.7 92.7 Q 48.7 94.6, 47.8 95.7 Q 46.8 96.8, 45.1 96.8 Q 43.4 96.8, 42.4 95.7 Q 41.5 94.6, 41.5 92.7 M 45.1 95.9 Q 46.3 95.9, 46.9 95.1 Q 47.6 94.3, 47.6 92.7 Q 47.6 91.2, 46.9 90.4 Q 46.3 89.6, 45.1 89.6 Q 43.9 89.6, 43.3 90.4 Q 42.6 91.2, 42.6 92.7 Q 42.6 94.3, 43.3 95.1 Q 43.9 95.9, 45.1 95.9 " fill="#FF0000"/>
<path class="atom-4" d="M 112.4 64.9 L 114.9 69.0 Q 115.2 69.4, 115.6 70.2 Q 116.0 70.9, 116.0 70.9 L 116.0 64.9 L 117.1 64.9 L 117.1 72.7 L 116.0 72.7 L 113.3 68.2 Q 112.9 67.6, 112.6 67.0 Q 112.3 66.4, 112.2 66.2 L 112.2 72.7 L 111.1 72.7 L 111.1 64.9 L 112.4 64.9 " fill="#0000FF"/>
<path class="atom-7" d="M 153.8 88.8 L 156.3 92.9 Q 156.6 93.3, 157.0 94.1 Q 157.4 94.8, 157.4 94.8 L 157.4 88.8 L 158.5 88.8 L 158.5 96.6 L 157.4 96.6 L 154.7 92.1 Q 154.3 91.5, 154.0 90.9 Q 153.7 90.3, 153.6 90.1 L 153.6 96.6 L 152.5 96.6 L 152.5 88.8 L 153.8 88.8 " fill="#0000FF"/>
<path class="atom-0" d="M 83.8,116.6 L 83.7,116.6 L 83.7,116.7 L 83.7,116.7 L 83.7,116.8 L 83.7,116.8 L 83.7,116.9 L 83.7,116.9 L 83.6,116.9 L 83.6,117.0 L 83.6,117.0 L 83.5,117.0 L 83.5,117.1 L 83.4,117.1 L 83.4,117.1 L 83.4,117.1 L 83.3,117.1 L 83.3,117.1 L 83.2,117.1 L 83.2,117.1 L 83.1,117.1 L 83.1,117.1 L 83.0,117.1 L 83.0,117.1 L 82.9,117.1 L 82.9,117.0 L 82.9,117.0 L 82.8,117.0 L 82.8,117.0 L 82.8,116.9 L 82.7,116.9 L 82.7,116.8 L 82.7,116.8 L 82.7,116.7 L 82.7,116.7 L 82.7,116.7 L 82.6,116.6 L 82.6,116.6 L 82.7,116.5 L 82.7,116.5 L 82.7,116.4 L 82.7,116.4 L 82.7,116.3 L 82.7,116.3 L 82.8,116.2 L 82.8,116.2 L 82.8,116.2 L 82.9,116.1 L 82.9,116.1 L 82.9,116.1 L 83.0,116.1 L 83.0,116.1 L 83.1,116.0 L 83.1,116.0 L 83.2,116.0 L 83.2,116.0 L 83.3,116.0 L 83.3,116.0 L 83.4,116.1 L 83.4,116.1 L 83.4,116.1 L 83.5,116.1 L 83.5,116.1 L 83.6,116.2 L 83.6,116.2 L 83.6,116.2 L 83.7,116.3 L 83.7,116.3 L 83.7,116.4 L 83.7,116.4 L 83.7,116.4 L 83.7,116.5 L 83.7,116.5 L 83.8,116.6 L 83.2,116.6 Z" style="fill:#000000;fill-rule:evenodd;fill-opacity:1;stroke:#000000;stroke-width:0.0px;stroke-linecap:butt;stroke-linejoin:miter;stroke-opacity:1;"/>
<path class="atom-2" d="M 40.4,92.7 L 40.4,92.7 L 40.4,92.8 L 40.4,92.8 L 40.4,92.9 L 40.4,92.9 L 40.3,93.0 L 40.3,93.0 L 40.3,93.0 L 40.3,93.1 L 40.2,93.1 L 40.2,93.1 L 40.1,93.2 L 40.1,93.2 L 40.1,93.2 L 40.0,93.2 L 40.0,93.2 L 39.9,93.2 L 39.9,93.2 L 39.8,93.2 L 39.8,93.2 L 39.7,93.2 L 39.7,93.2 L 39.6,93.2 L 39.6,93.2 L 39.6,93.1 L 39.5,93.1 L 39.5,93.1 L 39.5,93.0 L 39.4,93.0 L 39.4,93.0 L 39.4,92.9 L 39.4,92.9 L 39.3,92.8 L 39.3,92.8 L 39.3,92.7 L 39.3,92.7 L 39.3,92.7 L 39.3,92.6 L 39.3,92.6 L 39.3,92.5 L 39.4,92.5 L 39.4,92.4 L 39.4,92.4 L 39.4,92.3 L 39.5,92.3 L 39.5,92.3 L 39.5,92.2 L 39.6,92.2 L 39.6,92.2 L 39.6,92.2 L 39.7,92.2 L 39.7,92.1 L 39.8,92.1 L 39.8,92.1 L 39.9,92.1 L 39.9,92.1 L 40.0,92.1 L 40.0,92.1 L 40.1,92.2 L 40.1,92.2 L 40.1,92.2 L 40.2,92.2 L 40.2,92.3 L 40.3,92.3 L 40.3,92.3 L 40.3,92.4 L 40.3,92.4 L 40.4,92.4 L 40.4,92.5 L 40.4,92.5 L 40.4,92.6 L 40.4,92.6 L 40.4,92.7 L 39.9,92.7 Z" style="fill:#000000;fill-rule:evenodd;fill-opacity:1;stroke:#000000;stroke-width:0.0px;stroke-linecap:butt;stroke-linejoin:miter;stroke-opacity:1;"/>
<path class="atom-3" d="M 83.8,68.8 L 83.7,68.8 L 83.7,68.9 L 83.7,68.9 L 83.7,69.0 L 83.7,69.0 L 83.7,69.0 L 83.7,69.1 L 83.6,69.1 L 83.6,69.2 L 83.6,69.2 L 83.5,69.2 L 83.5,69.2 L 83.4,69.3 L 83.4,69.3 L 83.4,69.3 L 83.3,69.3 L 83.3,69.3 L 83.2,69.3 L 83.2,69.3 L 83.1,69.3 L 83.1,69.3 L 83.0,69.3 L 83.0,69.3 L 82.9,69.3 L 82.9,69.2 L 82.9,69.2 L 82.8,69.2 L 82.8,69.1 L 82.8,69.1 L 82.7,69.1 L 82.7,69.0 L 82.7,69.0 L 82.7,68.9 L 82.7,68.9 L 82.7,68.8 L 82.6,68.8 L 82.6,68.8 L 82.7,68.7 L 82.7,68.7 L 82.7,68.6 L 82.7,68.6 L 82.7,68.5 L 82.7,68.5 L 82.8,68.4 L 82.8,68.4 L 82.8,68.4 L 82.9,68.3 L 82.9,68.3 L 82.9,68.3 L 83.0,68.3 L 83.0,68.3 L 83.1,68.2 L 83.1,68.2 L 83.2,68.2 L 83.2,68.2 L 83.3,68.2 L 83.3,68.2 L 83.4,68.2 L 83.4,68.3 L 83.4,68.3 L 83.5,68.3 L 83.5,68.3 L 83.6,68.4 L 83.6,68.4 L 83.6,68.4 L 83.7,68.5 L 83.7,68.5 L 83.7,68.5 L 83.7,68.6 L 83.7,68.6 L 83.7,68.7 L 83.7,68.7 L 83.8,68.8 L 83.2,68.8 Z" style="fill:#000000;fill-rule:evenodd;fill-opacity:1;stroke:#000000;stroke-width:0.0px;stroke-linecap:butt;stroke-linejoin:miter;stroke-opacity:1;"/>
<path class="atom-6" d="M 118.0,116.6 L 118.0,116.6 L 118.0,116.7 L 118.0,116.7 L 117.9,116.8 L 117.9,116.8 L 117.9,116.9 L 117.9,116.9 L 117.9,116.9 L 117.8,117.0 L 117.8,117.0 L 117.7,117.0 L 117.7,117.1 L 117.7,117.1 L 117.6,117.1 L 117.6,117.1 L 117.5,117.1 L 117.5,117.1 L 117.4,117.1 L 117.4,117.1 L 117.3,117.1 L 117.3,117.1 L 117.2,117.1 L 117.2,117.1 L 117.2,117.1 L 117.1,117.0 L 117.1,117.0 L 117.0,117.0 L 117.0,117.0 L 117.0,116.9 L 117.0,116.9 L 116.9,116.8 L 116.9,116.8 L 116.9,116.7 L 116.9,116.7 L 116.9,116.7 L 116.9,116.6 L 116.9,116.6 L 116.9,116.5 L 116.9,116.5 L 116.9,116.4 L 116.9,116.4 L 116.9,116.3 L 117.0,116.3 L 117.0,116.2 L 117.0,116.2 L 117.0,116.2 L 117.1,116.1 L 117.1,116.1 L 117.2,116.1 L 117.2,116.1 L 117.2,116.1 L 117.3,116.0 L 117.3,116.0 L 117.4,116.0 L 117.4,116.0 L 117.5,116.0 L 117.5,116.0 L 117.6,116.1 L 117.6,116.1 L 117.7,116.1 L 117.7,116.1 L 117.7,116.1 L 117.8,116.2 L 117.8,116.2 L 117.9,116.2 L 117.9,116.3 L 117.9,116.3 L 117.9,116.4 L 117.9,116.4 L 118.0,116.4 L 118.0,116.5 L 118.0,116.5 L 118.0,116.6 L 117.4,116.6 Z" style="fill:#000000;fill-rule:evenodd;fill-opacity:1;stroke:#000000;stroke-width:0.0px;stroke-linecap:butt;stroke-linejoin:miter;stroke-opacity:1;"/>
<path class="atom-7" d="M 160.7,93.8 L 160.7,93.8 L 160.7,93.9 L 160.7,93.9 L 160.7,94.0 L 160.6,94.0 L 160.6,94.1 L 160.6,94.1 L 160.6,94.1 L 160.5,94.2 L 160.5,94.2 L 160.5,94.2 L 160.4,94.3 L 160.4,94.3 L 160.3,94.3 L 160.3,94.3 L 160.2,94.3 L 160.2,94.3 L 160.1,94.3 L 160.1,94.3 L 160.1,94.3 L 160.0,94.3 L 160.0,94.3 L 159.9,94.3 L 159.9,94.3 L 159.8,94.2 L 159.8,94.2 L 159.8,94.2 L 159.7,94.2 L 159.7,94.1 L 159.7,94.1 L 159.6,94.0 L 159.6,94.0 L 159.6,93.9 L 159.6,93.9 L 159.6,93.9 L 159.6,93.8 L 159.6,93.8 L 159.6,93.7 L 159.6,93.7 L 159.6,93.6 L 159.6,93.6 L 159.6,93.5 L 159.7,93.5 L 159.7,93.5 L 159.7,93.4 L 159.8,93.4 L 159.8,93.3 L 159.8,93.3 L 159.9,93.3 L 159.9,93.3 L 160.0,93.3 L 160.0,93.2 L 160.1,93.2 L 160.1,93.2 L 160.1,93.2 L 160.2,93.2 L 160.2,93.2 L 160.3,93.3 L 160.3,93.3 L 160.4,93.3 L 160.4,93.3 L 160.5,93.3 L 160.5,93.4 L 160.5,93.4 L 160.6,93.4 L 160.6,93.5 L 160.6,93.5 L 160.6,93.6 L 160.7,93.6 L 160.7,93.6 L 160.7,93.7 L 160.7,93.7 L 160.7,93.8 L 160.1,93.8 Z" style="fill:#000000;fill-rule:evenodd;fill-opacity:1;stroke:#000000;stroke-width:0.0px;stroke-linecap:butt;stroke-linejoin:miter;stroke-opacity:1;"/>
<path class="atom-7" d="M 160.7,91.6 L 160.7,91.6 L 160.7,91.7 L 160.7,91.7 L 160.7,91.8 L 160.6,91.8 L 160.6,91.8 L 160.6,91.9 L 160.6,91.9 L 160.5,92.0 L 160.5,92.0 L 160.5,92.0 L 160.4,92.0 L 160.4,92.1 L 160.3,92.1 L 160.3,92.1 L 160.2,92.1 L 160.2,92.1 L 160.1,92.1 L 160.1,92.1 L 160.1,92.1 L 160.0,92.1 L 160.0,92.1 L 159.9,92.1 L 159.9,92.1 L 159.8,92.0 L 159.8,92.0 L 159.8,92.0 L 159.7,91.9 L 159.7,91.9 L 159.7,91.9 L 159.6,91.8 L 159.6,91.8 L 159.6,91.7 L 159.6,91.7 L 159.6,91.6 L 159.6,91.6 L 159.6,91.6 L 159.6,91.5 L 159.6,91.5 L 159.6,91.4 L 159.6,91.4 L 159.6,91.3 L 159.7,91.3 L 159.7,91.2 L 159.7,91.2 L 159.8,91.2 L 159.8,91.1 L 159.8,91.1 L 159.9,91.1 L 159.9,91.1 L 160.0,91.1 L 160.0,91.0 L 160.1,91.0 L 160.1,91.0 L 160.1,91.0 L 160.2,91.0 L 160.2,91.0 L 160.3,91.0 L 160.3,91.1 L 160.4,91.1 L 160.4,91.1 L 160.5,91.1 L 160.5,91.2 L 160.5,91.2 L 160.6,91.2 L 160.6,91.3 L 160.6,91.3 L 160.6,91.3 L 160.7,91.4 L 160.7,91.4 L 160.7,91.5 L 160.7,91.5 L 160.7,91.6 L 160.1,91.6 Z" style="fill:#000000;fill-rule:evenodd;fill-opacity:1;stroke:#000000;stroke-width:0.0px;stroke-linecap:butt;stroke-linejoin:miter;stroke-opacity:1;"/>
<path class="legend" d="M 22.8 189.8 L 21.4 189.8 L 20.2 180.6 L 17.2 189.8 L 15.6 189.8 L 12.6 180.6 L 11.4 189.8 L 10.0 189.8 L 11.4 178.6 L 13.3 178.6 L 16.4 187.6 L 19.5 178.6 L 21.4 178.6 L 22.8 189.8 " fill="#000000"/>
<path class="legend" d="M 24.5 187.6 Q 24.5 186.3, 25.5 185.6 Q 26.5 184.9, 28.5 184.9 L 29.7 184.9 L 29.7 184.6 Q 29.7 183.6, 29.2 183.1 Q 28.8 182.7, 27.8 182.7 Q 27.2 182.7, 26.7 182.8 Q 26.1 182.9, 25.4 183.3 L 24.9 182.3 Q 26.4 181.5, 27.8 181.5 Q 29.6 181.5, 30.4 182.3 Q 31.2 183.0, 31.2 184.6 L 31.2 189.8 L 30.0 189.8 Q 30.0 189.7, 29.9 189.5 Q 29.9 189.3, 29.8 188.9 Q 28.6 190.0, 27.1 190.0 Q 25.9 190.0, 25.2 189.4 Q 24.5 188.7, 24.5 187.6 M 25.9 187.6 Q 25.9 188.2, 26.3 188.5 Q 26.7 188.8, 27.4 188.8 Q 28.0 188.8, 28.6 188.5 Q 29.3 188.2, 29.7 187.7 L 29.7 186.0 L 28.6 186.0 Q 27.3 186.0, 26.6 186.4 Q 25.9 186.8, 25.9 187.6 " fill="#000000"/>
<path class="legend" d="M 35.9 185.6 L 33.2 181.7 L 34.9 181.7 L 36.9 184.4 L 38.8 181.7 L 40.4 181.7 L 37.7 185.6 L 40.7 189.8 L 38.9 189.8 L 36.8 186.7 L 34.6 189.8 L 33.0 189.8 L 35.9 185.6 " fill="#000000"/>
<path class="legend" d="M 41.4 188.2 L 43.0 188.2 L 43.0 189.8 L 41.4 189.8 L 41.4 188.2 " fill="#000000"/>
<path class="legend" d="" fill="#000000"/>
<path class="legend" d="M 51.0 188.1 Q 51.7 188.4, 52.2 188.6 Q 52.7 188.7, 53.3 188.7 Q 54.0 188.7, 54.4 188.4 Q 54.8 188.1, 54.8 187.5 Q 54.8 187.2, 54.6 186.9 Q 54.4 186.7, 54.1 186.6 Q 53.9 186.5, 53.1 186.2 Q 53.0 186.2, 52.3 186.0 Q 51.6 185.7, 51.2 185.2 Q 50.8 184.6, 50.8 183.8 Q 50.8 182.9, 51.6 182.2 Q 52.3 181.5, 53.8 181.5 Q 54.4 181.5, 54.9 181.7 Q 55.5 181.8, 56.1 182.1 L 55.7 183.2 Q 55.2 183.0, 54.7 182.9 Q 54.3 182.8, 53.8 182.8 Q 53.0 182.8, 52.7 183.1 Q 52.3 183.3, 52.3 183.8 Q 52.3 184.3, 52.6 184.5 Q 52.9 184.7, 53.6 184.9 Q 53.7 185.0, 53.9 185.0 L 54.3 185.2 Q 54.9 185.4, 55.3 185.6 Q 55.7 185.9, 56.0 186.3 Q 56.3 186.8, 56.3 187.5 Q 56.3 188.7, 55.5 189.3 Q 54.6 190.0, 53.3 190.0 Q 52.5 190.0, 51.9 189.8 Q 51.2 189.6, 50.5 189.3 L 51.0 188.1 " fill="#000000"/>
<path class="legend" d="M 64.7 181.7 L 64.7 189.8 L 63.4 189.8 L 63.3 188.7 Q 62.2 190.0, 60.5 190.0 Q 59.1 190.0, 58.4 189.2 Q 57.7 188.5, 57.7 187.1 L 57.7 181.7 L 59.2 181.7 L 59.2 186.9 Q 59.2 187.9, 59.6 188.4 Q 60.0 188.8, 60.8 188.8 Q 61.5 188.8, 62.2 188.4 Q 62.8 188.1, 63.2 187.5 L 63.2 181.7 L 64.7 181.7 " fill="#000000"/>
<path class="legend" d="M 70.4 181.5 Q 72.1 181.5, 73.0 182.6 Q 74.0 183.6, 74.0 185.6 Q 74.0 187.6, 72.8 188.8 Q 71.7 189.9, 69.8 189.9 Q 68.5 189.9, 67.3 189.5 L 66.6 189.3 L 66.6 177.8 L 68.1 177.8 L 68.1 182.6 Q 68.9 181.5, 70.4 181.5 M 69.8 188.8 Q 71.0 188.8, 71.7 187.9 Q 72.4 187.1, 72.4 185.6 Q 72.4 184.2, 71.9 183.5 Q 71.3 182.7, 70.3 182.7 Q 69.5 182.7, 68.9 183.1 Q 68.3 183.6, 68.1 184.4 L 68.1 188.5 Q 68.9 188.8, 69.8 188.8 " fill="#000000"/>
<path class="legend" d="M 75.8 188.1 Q 76.5 188.4, 77.0 188.6 Q 77.5 188.7, 78.1 188.7 Q 78.8 188.7, 79.2 188.4 Q 79.6 188.1, 79.6 187.5 Q 79.6 187.2, 79.4 186.9 Q 79.1 186.7, 78.9 186.6 Q 78.6 186.5, 77.9 186.2 Q 77.8 186.2, 77.1 186.0 Q 76.3 185.7, 75.9 185.2 Q 75.6 184.6, 75.6 183.8 Q 75.6 182.9, 76.3 182.2 Q 77.1 181.5, 78.6 181.5 Q 79.2 181.5, 79.7 181.7 Q 80.3 181.8, 80.9 182.1 L 80.5 183.2 Q 80.0 183.0, 79.5 182.9 Q 79.1 182.8, 78.6 182.8 Q 77.8 182.8, 77.4 183.1 Q 77.1 183.3, 77.1 183.8 Q 77.1 184.3, 77.4 184.5 Q 77.7 184.7, 78.3 184.9 Q 78.5 185.0, 78.6 185.0 L 79.0 185.2 Q 79.7 185.4, 80.1 185.6 Q 80.5 185.9, 80.8 186.3 Q 81.1 186.8, 81.1 187.5 Q 81.1 188.7, 80.2 189.3 Q 79.4 190.0, 78.1 190.0 Q 77.3 190.0, 76.6 189.8 Q 76.0 189.6, 75.3 189.3 L 75.8 188.1 " fill="#000000"/>
<path class="legend" d="M 82.5 182.8 L 82.5 181.7 L 84.1 181.7 L 84.3 179.3 L 85.4 179.3 L 85.4 181.7 L 87.9 181.7 L 87.9 182.8 L 85.4 182.8 L 85.4 187.3 Q 85.4 188.7, 86.6 188.7 Q 87.1 188.7, 87.8 188.5 L 88.0 189.5 Q 87.2 189.9, 86.3 189.9 Q 85.3 189.9, 84.6 189.3 Q 83.9 188.6, 83.9 187.4 L 83.9 182.8 L 82.5 182.8 " fill="#000000"/>
<path class="legend" d="M 90.3 181.7 L 90.4 182.8 Q 91.3 181.5, 92.7 181.5 Q 93.1 181.5, 93.7 181.7 L 93.5 183.0 Q 92.8 182.9, 92.4 182.9 Q 91.8 182.9, 91.3 183.1 Q 90.9 183.4, 90.5 184.0 L 90.5 189.8 L 89.0 189.8 L 89.0 181.7 L 90.3 181.7 " fill="#000000"/>
<path class="legend" d="M 101.5 181.7 L 101.5 189.8 L 100.3 189.8 L 100.1 188.7 Q 99.0 190.0, 97.3 190.0 Q 96.0 190.0, 95.3 189.2 Q 94.6 188.5, 94.6 187.1 L 94.6 181.7 L 96.1 181.7 L 96.1 186.9 Q 96.1 187.9, 96.4 188.4 Q 96.8 188.8, 97.6 188.8 Q 98.4 188.8, 99.0 188.4 Q 99.6 188.1, 100.0 187.5 L 100.0 181.7 L 101.5 181.7 " fill="#000000"/>
<path class="legend" d="M 103.4 185.7 Q 103.4 183.8, 104.4 182.7 Q 105.4 181.5, 107.3 181.5 Q 109.1 181.5, 110.1 182.9 L 109.1 183.6 Q 108.7 183.2, 108.3 182.9 Q 107.9 182.7, 107.3 182.7 Q 106.2 182.7, 105.5 183.5 Q 104.9 184.2, 104.9 185.7 Q 104.9 187.2, 105.6 188.0 Q 106.2 188.8, 107.4 188.8 Q 108.1 188.8, 108.5 188.6 Q 109.0 188.5, 109.5 188.2 L 110.0 189.2 Q 108.8 189.9, 107.3 189.9 Q 105.4 189.9, 104.4 188.8 Q 103.4 187.7, 103.4 185.7 " fill="#000000"/>
<path class="legend" d="M 111.1 182.8 L 111.1 181.7 L 112.7 181.7 L 112.9 179.3 L 114.0 179.3 L 114.0 181.7 L 116.5 181.7 L 116.5 182.8 L 114.0 182.8 L 114.0 187.3 Q 114.0 188.7, 115.2 188.7 Q 115.7 188.7, 116.4 188.5 L 116.6 189.5 Q 115.8 189.9, 114.9 189.9 Q 113.9 189.9, 113.2 189.3 Q 112.5 188.6, 112.5 187.4 L 112.5 182.8 L 111.1 182.8 " fill="#000000"/>
<path class="legend" d="M 124.6 181.7 L 124.6 189.8 L 123.3 189.8 L 123.2 188.7 Q 122.1 190.0, 120.4 190.0 Q 119.0 190.0, 118.3 189.2 Q 117.6 188.5, 117.6 187.1 L 117.6 181.7 L 119.1 181.7 L 119.1 186.9 Q 119.1 187.9, 119.5 188.4 Q 119.9 188.8, 120.7 188.8 Q 121.4 188.8, 122.1 188.4 Q 122.7 188.1, 123.1 187.5 L 123.1 181.7 L 124.6 181.7 " fill="#000000"/>
<path class="legend" d="M 127.7 181.7 L 127.8 182.8 Q 128.7 181.5, 130.1 181.5 Q 130.5 181.5, 131.1 181.7 L 130.9 183.0 Q 130.2 182.9, 129.8 182.9 Q 129.2 182.9, 128.7 183.1 Q 128.3 183.4, 128.0 184.0 L 128.0 189.8 L 126.5 189.8 L 126.5 181.7 L 127.7 181.7 " fill="#000000"/>
<path class="legend" d="M 132.0 185.7 Q 132.0 183.7, 133.0 182.6 Q 134.0 181.5, 135.8 181.5 Q 137.6 181.5, 138.4 182.6 Q 139.2 183.7, 139.2 185.7 L 139.2 185.9 L 133.5 185.9 Q 133.5 187.3, 134.2 188.0 Q 134.8 188.8, 135.9 188.8 Q 136.6 188.8, 137.2 188.6 Q 137.7 188.5, 138.5 188.1 L 138.9 189.2 Q 138.1 189.6, 137.3 189.8 Q 136.6 189.9, 135.9 189.9 Q 134.0 189.9, 133.0 188.8 Q 132.0 187.7, 132.0 185.7 M 135.8 182.7 Q 134.9 182.7, 134.3 183.2 Q 133.7 183.8, 133.6 184.8 L 137.6 184.8 Q 137.5 183.7, 137.1 183.2 Q 136.6 182.7, 135.8 182.7 " fill="#000000"/>
<path class="legend" d="" fill="#000000"/>
<path class="legend" d="M 155.7 181.5 Q 157.1 181.5, 157.8 182.3 Q 158.5 183.0, 158.5 184.4 L 158.5 189.8 L 157.0 189.8 L 157.0 184.5 Q 157.0 183.6, 156.6 183.1 Q 156.2 182.7, 155.4 182.7 Q 154.7 182.7, 154.1 183.0 Q 153.5 183.4, 153.1 184.0 Q 153.1 184.1, 153.1 184.4 L 153.1 189.8 L 151.7 189.8 L 151.7 184.5 Q 151.7 183.6, 151.3 183.1 Q 150.9 182.7, 150.1 182.7 Q 149.4 182.7, 148.8 183.0 Q 148.2 183.4, 147.8 184.0 L 147.8 189.8 L 146.3 189.8 L 146.3 181.7 L 147.5 181.7 L 147.7 182.8 Q 148.7 181.5, 150.4 181.5 Q 152.3 181.5, 152.9 183.0 Q 154.0 181.5, 155.7 181.5 " fill="#000000"/>
<path class="legend" d="M 160.3 187.6 Q 160.3 186.3, 161.4 185.6 Q 162.4 184.9, 164.3 184.9 L 165.5 184.9 L 165.5 184.6 Q 165.5 183.6, 165.1 183.1 Q 164.7 182.7, 163.7 182.7 Q 163.0 182.7, 162.5 182.8 Q 162.0 182.9, 161.2 183.3 L 160.8 182.3 Q 162.3 181.5, 163.7 181.5 Q 165.4 181.5, 166.2 182.3 Q 167.0 183.0, 167.0 184.6 L 167.0 189.8 L 165.9 189.8 Q 165.8 189.7, 165.8 189.5 Q 165.7 189.3, 165.6 188.9 Q 164.5 190.0, 163.0 190.0 Q 161.8 190.0, 161.0 189.4 Q 160.3 188.7, 160.3 187.6 M 161.8 187.6 Q 161.8 188.2, 162.2 188.5 Q 162.6 188.8, 163.3 188.8 Q 163.9 188.8, 164.5 188.5 Q 165.1 188.2, 165.5 187.7 L 165.5 186.0 L 164.4 186.0 Q 163.1 186.0, 162.4 186.4 Q 161.8 186.8, 161.8 187.6 " fill="#000000"/>
<path class="legend" d="M 168.8 182.8 L 168.8 181.7 L 170.4 181.7 L 170.6 179.3 L 171.8 179.3 L 171.8 181.7 L 174.2 181.7 L 174.2 182.8 L 171.8 182.8 L 171.8 187.3 Q 171.8 188.7, 172.9 188.7 Q 173.4 188.7, 174.1 188.5 L 174.4 189.5 Q 173.5 189.9, 172.7 189.9 Q 171.6 189.9, 170.9 189.3 Q 170.3 188.6, 170.3 187.4 L 170.3 182.8 L 168.8 182.8 " fill="#000000"/>
<path class="legend" d="M 175.4 185.7 Q 175.4 183.8, 176.4 182.7 Q 177.3 181.5, 179.3 181.5 Q 181.1 181.5, 182.1 182.9 L 181.1 183.6 Q 180.7 183.2, 180.3 182.9 Q 179.8 182.7, 179.3 182.7 Q 178.1 182.7, 177.5 183.5 Q 176.9 184.2, 176.9 185.7 Q 176.9 187.2, 177.5 188.0 Q 178.2 188.8, 179.4 188.8 Q 180.0 188.8, 180.5 188.6 Q 180.9 188.5, 181.5 188.2 L 181.9 189.2 Q 180.8 189.9, 179.3 189.9 Q 177.3 189.9, 176.4 188.8 Q 175.4 187.7, 175.4 185.7 " fill="#000000"/>
<path class="legend" d="M 187.3 181.5 Q 188.6 181.5, 189.3 182.3 Q 190.0 183.0, 190.0 184.4 L 190.0 189.8 L 188.5 189.8 L 188.5 184.5 Q 188.5 183.6, 188.1 183.1 Q 187.8 182.7, 186.9 182.7 Q 186.2 182.7, 185.6 183.0 Q 185.0 183.4, 184.6 184.0 L 184.6 189.8 L 183.1 189.8 L 183.1 177.8 L 184.6 177.8 L 184.6 182.7 Q 185.6 181.5, 187.3 181.5 " fill="#000000"/>
<path class="bond-0 atom-0 atom-1" d="M 349.2,93.0 L 337.3,93.0" style="fill:none;fill-rule:evenodd;stroke:#0000FF;stroke-width:2.0px;stroke-linecap:butt;stroke-linejoin:miter;stroke-opacity:1"/>
<path class="bond-0 atom-0 atom-1" d="M 337.3,93.0 L 325.5,93.0" style="fill:none;fill-rule:evenodd;stroke:#000000;stroke-width:2.0px;stroke-linecap:butt;stroke-linejoin:miter;stroke-opacity:1"/>
<path class="bond-1 atom-1 atom-2" d="M 325.5,93.0 L 311.7,116.9" style="fill:none;fill-rule:evenodd;stroke:#000000;stroke-width:2.0px;stroke-linecap:butt;stroke-linejoin:miter;stroke-opacity:1"/>
<path class="bond-1 atom-1 atom-2" d="M 320.7,93.0 L 309.3,112.7" style="fill:none;fill-rule:evenodd;stroke:#000000;stroke-width:2.0px;stroke-linecap:butt;stroke-linejoin:miter;stroke-opacity:1"/>
<path class="bond-2 atom-2 atom-3" d="M 311.7,116.9 L 284.1,116.9" style="fill:none;fill-rule:evenodd;stroke:#000000;stroke-width:2.0px;stroke-linecap:butt;stroke-linejoin:miter;stroke-opacity:1"/>
<path class="bond-3 atom-3 atom-4" d="M 284.1,116.9 L 270.3,93.0" style="fill:none;fill-rule:evenodd;stroke:#000000;stroke-width:2.0px;stroke-linecap:butt;stroke-linejoin:miter;stroke-opacity:1"/>
<path class="bond-3 atom-3 atom-4" d="M 286.5,112.7 L 275.1,93.0" style="fill:none;fill-rule:evenodd;stroke:#000000;stroke-width:2.0px;stroke-linecap:butt;stroke-linejoin:miter;stroke-opacity:1"/>
<path class="bond-4 atom-4 atom-5" d="M 270.3,93.0 L 258.7,93.0" style="fill:none;fill-rule:evenodd;stroke:#000000;stroke-width:2.0px;stroke-linecap:butt;stroke-linejoin:miter;stroke-opacity:1"/>
<path class="bond-4 atom-4 atom-5" d="M 258.7,93.0 L 247.2,93.0" style="fill:none;fill-rule:evenodd;stroke:#FF0000;stroke-width:2.0px;stroke-linecap:butt;stroke-linejoin:miter;stroke-opacity:1"/>
<path class="bond-5 atom-4 atom-6" d="M 270.3,93.0 L 284.1,69.1" style="fill:none;fill-rule:evenodd;stroke:#000000;stroke-width:2.0px;stroke-linecap:butt;stroke-linejoin:miter;stroke-opacity:1"/>
<path class="bond-6 atom-6 atom-7" d="M 284.1,69.1 L 295.9,69.1" style="fill:none;fill-rule:evenodd;stroke:#000000;stroke-width:2.0px;stroke-linecap:butt;stroke-linejoin:miter;stroke-opacity:1"/>
<path class="bond-6 atom-6 atom-7" d="M 295.9,69.1 L 307.8,69.1" style="fill:none;fill-rule:evenodd;stroke:#0000FF;stroke-width:2.0px;stroke-linecap:butt;stroke-linejoin:miter;stroke-opacity:1"/>
<path class="bond-6 atom-6 atom-7" d="M 286.5,73.2 L 297.1,73.2" style="fill:none;fill-rule:evenodd;stroke:#000000;stroke-width:2.0px;stroke-linecap:butt;stroke-linejoin:miter;stroke-opacity:1"/>
<path class="bond-6 atom-6 atom-7" d="M 297.1,73.2 L 307.8,73.2" style="fill:none;fill-rule:evenodd;stroke:#0000FF;stroke-width:2.0px;stroke-linecap:butt;stroke-linejoin:miter;stroke-opacity:1"/>
<path class="bond-7 atom-7 atom-1" d="M 314.5,73.9 L 320.0,83.4" style="fill:none;fill-rule:evenodd;stroke:#0000FF;stroke-width:2.0px;stroke-linecap:butt;stroke-linejoin:miter;stroke-opacity:1"/>
<path class="bond-7 atom-7 atom-1" d="M 320.0,83.4 L 325.5,93.0" style="fill:none;fill-rule:evenodd;stroke:#000000;stroke-width:2.0px;stroke-linecap:butt;stroke-linejoin:miter;stroke-opacity:1"/>
<path d="M 312.4,115.7 L 311.7,116.9 L 310.3,116.9" style="fill:none;stroke:#000000;stroke-width:2.0px;stroke-linecap:butt;stroke-linejoin:miter;stroke-opacity:1;"/>
<path d="M 285.5,116.9 L 284.1,116.9 L 283.4,115.7" style="fill:none;stroke:#000000;stroke-width:2.0px;stroke-linecap:butt;stroke-linejoin:miter;stroke-opacity:1;"/>
<path d="M 283.4,70.2 L 284.1,69.1 L 284.7,69.1" style="fill:none;stroke:#000000;stroke-width:2.0px;stroke-linecap:butt;stroke-linejoin:miter;stroke-opacity:1;"/>
<path class="atom-0" d="M 351.3 89.0 L 353.9 93.2 Q 354.2 93.6, 354.6 94.3 Q 355.0 95.1, 355.0 95.1 L 355.0 89.0 L 356.0 89.0 L 356.0 96.9 L 355.0 96.9 L 352.2 92.3 Q 351.9 91.8, 351.6 91.2 Q 351.2 90.6, 351.1 90.4 L 351.1 96.9 L 350.1 96.9 L 350.1 89.0 L 351.3 89.0 " fill="#0000FF"/>
<path class="atom-0" d="M 357.5 89.0 L 358.6 89.0 L 358.6 92.4 L 362.6 92.4 L 362.6 89.0 L 363.6 89.0 L 363.6 96.9 L 362.6 96.9 L 362.6 93.3 L 358.6 93.3 L 358.6 96.9 L 357.5 96.9 L 357.5 89.0 " fill="#0000FF"/>
<path class="atom-0" d="M 365.2 96.6 Q 365.4 96.1, 365.8 95.8 Q 366.3 95.6, 366.9 95.6 Q 367.7 95.6, 368.1 96.0 Q 368.6 96.4, 368.6 97.1 Q 368.6 97.9, 368.0 98.6 Q 367.4 99.3, 366.3 100.2 L 368.6 100.2 L 368.6 100.8 L 365.2 100.8 L 365.2 100.3 Q 366.1 99.6, 366.7 99.1 Q 367.3 98.6, 367.5 98.1 Q 367.8 97.7, 367.8 97.2 Q 367.8 96.7, 367.6 96.4 Q 367.3 96.1, 366.9 96.1 Q 366.5 96.1, 366.2 96.3 Q 365.9 96.5, 365.7 96.8 L 365.2 96.6 " fill="#0000FF"/>
<path class="atom-5" d="M 231.4 89.1 L 232.4 89.1 L 232.4 92.4 L 236.4 92.4 L 236.4 89.1 L 237.5 89.1 L 237.5 96.9 L 236.4 96.9 L 236.4 93.3 L 232.4 93.3 L 232.4 96.9 L 231.4 96.9 L 231.4 89.1 " fill="#FF0000"/>
<path class="atom-5" d="M 239.1 93.0 Q 239.1 91.1, 240.0 90.1 Q 240.9 89.0, 242.7 89.0 Q 244.4 89.0, 245.3 90.1 Q 246.3 91.1, 246.3 93.0 Q 246.3 94.9, 245.3 96.0 Q 244.4 97.0, 242.7 97.0 Q 240.9 97.0, 240.0 96.0 Q 239.1 94.9, 239.1 93.0 M 242.7 96.1 Q 243.9 96.1, 244.5 95.3 Q 245.2 94.5, 245.2 93.0 Q 245.2 91.4, 244.5 90.7 Q 243.9 89.9, 242.7 89.9 Q 241.5 89.9, 240.8 90.7 Q 240.2 91.4, 240.2 93.0 Q 240.2 94.6, 240.8 95.3 Q 241.5 96.1, 242.7 96.1 " fill="#FF0000"/>
<path class="atom-7" d="M 309.9 65.1 L 312.5 69.3 Q 312.8 69.7, 313.2 70.4 Q 313.6 71.2, 313.6 71.2 L 313.6 65.1 L 314.6 65.1 L 314.6 73.0 L 313.6 73.0 L 310.8 68.4 Q 310.5 67.9, 310.2 67.3 Q 309.8 66.7, 309.7 66.5 L 309.7 73.0 L 308.7 73.0 L 308.7 65.1 L 309.9 65.1 " fill="#0000FF"/>
<path class="legend" d="M 283.8 184.2 Q 283.8 181.4, 285.2 179.9 Q 286.5 178.4, 289.0 178.4 Q 291.3 178.4, 292.6 180.0 L 291.5 180.9 Q 290.6 179.7, 289.0 179.7 Q 287.3 179.7, 286.4 180.9 Q 285.5 182.0, 285.5 184.2 Q 285.5 186.4, 286.4 187.6 Q 287.4 188.7, 289.2 188.7 Q 290.4 188.7, 291.9 188.0 L 292.3 189.2 Q 291.7 189.6, 290.8 189.8 Q 289.9 190.0, 289.0 190.0 Q 286.5 190.0, 285.2 188.5 Q 283.8 187.0, 283.8 184.2 " fill="#000000"/>
<path class="legend" d="M 293.9 185.7 Q 293.9 183.7, 294.9 182.6 Q 296.0 181.5, 297.8 181.5 Q 299.7 181.5, 300.7 182.6 Q 301.7 183.7, 301.7 185.7 Q 301.7 187.7, 300.7 188.9 Q 299.7 190.0, 297.8 190.0 Q 296.0 190.0, 294.9 188.9 Q 293.9 187.7, 293.9 185.7 M 295.5 185.7 Q 295.5 187.2, 296.1 188.0 Q 296.7 188.8, 297.8 188.8 Q 299.0 188.8, 299.6 188.0 Q 300.2 187.2, 300.2 185.7 Q 300.2 184.2, 299.6 183.5 Q 299.0 182.7, 297.8 182.7 Q 296.7 182.7, 296.1 183.5 Q 295.5 184.2, 295.5 185.7 " fill="#000000"/>
<path class="legend" d="M 304.4 181.6 L 304.6 182.8 Q 305.5 181.5, 306.9 181.5 Q 307.3 181.5, 307.9 181.6 L 307.7 183.0 Q 307.0 182.8, 306.6 182.8 Q 305.9 182.8, 305.5 183.1 Q 305.1 183.4, 304.7 184.0 L 304.7 189.9 L 303.2 189.9 L 303.2 181.6 L 304.4 181.6 " fill="#000000"/>
<path class="legend" d="M 308.9 185.7 Q 308.9 183.7, 309.9 182.6 Q 310.9 181.5, 312.7 181.5 Q 314.5 181.5, 315.3 182.6 Q 316.2 183.6, 316.2 185.7 L 316.2 185.9 L 310.4 185.9 Q 310.4 187.3, 311.1 188.1 Q 311.7 188.8, 312.9 188.8 Q 313.5 188.8, 314.1 188.7 Q 314.7 188.5, 315.4 188.2 L 315.8 189.2 Q 315.0 189.6, 314.3 189.8 Q 313.5 190.0, 312.8 190.0 Q 310.9 190.0, 309.9 188.9 Q 308.9 187.7, 308.9 185.7 M 312.7 182.7 Q 311.8 182.7, 311.2 183.2 Q 310.6 183.8, 310.5 184.8 L 314.6 184.8 Q 314.5 183.7, 314.0 183.2 Q 313.6 182.7, 312.7 182.7 " fill="#000000"/>
<path class="bond-0 atom-0 atom-1" d="M 69.9,257.9 L 73.3,257.9 L 85.4,278.9 L 82.0,284.8 L 68.2,260.9 Z" style="fill:#FF7F7F;fill-rule:evenodd;fill-opacity:1;stroke:#FF7F7F;stroke-width:0.0px;stroke-linecap:butt;stroke-linejoin:miter;stroke-opacity:1;"/>
<path class="bond-11 atom-0 atom-7" d="M 109.6,278.9 L 113.0,284.8 L 82.0,284.8 L 85.4,278.9 Z" style="fill:#FF7F7F;fill-rule:evenodd;fill-opacity:1;stroke:#FF7F7F;stroke-width:0.0px;stroke-linecap:butt;stroke-linejoin:miter;stroke-opacity:1;"/>
<path class="bond-1 atom-1 atom-2" d="M 42.3,255.0 L 68.2,255.0 L 69.9,257.9 L 68.2,260.9 L 42.3,260.9 Z" style="fill:#FF7F7F;fill-rule:evenodd;fill-opacity:1;stroke:#FF7F7F;stroke-width:0.0px;stroke-linecap:butt;stroke-linejoin:miter;stroke-opacity:1;"/>
<path class="bond-2 atom-1 atom-3" d="M 82.0,231.1 L 85.4,236.9 L 73.3,257.9 L 69.9,257.9 L 68.2,255.0 Z" style="fill:#FF7F7F;fill-rule:evenodd;fill-opacity:1;stroke:#FF7F7F;stroke-width:0.0px;stroke-linecap:butt;stroke-linejoin:miter;stroke-opacity:1;"/>
<path class="bond-3 atom-3 atom-4" d="M 82.0,231.1 L 113.0,231.1 L 109.6,236.9 L 85.4,236.9 Z" style="fill:#FF7F7F;fill-rule:evenodd;fill-opacity:1;stroke:#FF7F7F;stroke-width:0.0px;stroke-linecap:butt;stroke-linejoin:miter;stroke-opacity:1;"/>
<path class="bond-4 atom-4 atom-5" d="M 113.0,231.1 L 126.8,255.0 L 125.1,257.9 L 121.7,257.9 L 109.6,236.9 Z" style="fill:#FF7F7F;fill-rule:evenodd;fill-opacity:1;stroke:#FF7F7F;stroke-width:0.0px;stroke-linecap:butt;stroke-linejoin:miter;stroke-opacity:1;"/>
<path class="bond-5 atom-5 atom-6" d="M 152.7,255.0 L 152.7,260.9 L 126.8,260.9 L 125.1,257.9 L 126.8,255.0 Z" style="fill:#FF7F7F;fill-rule:evenodd;fill-opacity:1;stroke:#FF7F7F;stroke-width:0.0px;stroke-linecap:butt;stroke-linejoin:miter;stroke-opacity:1;"/>
<path class="bond-6 atom-5 atom-7" d="M 121.7,257.9 L 125.1,257.9 L 126.8,260.9 L 113.0,284.8 L 109.6,278.9 Z" style="fill:#FF7F7F;fill-rule:evenodd;fill-opacity:1;stroke:#FF7F7F;stroke-width:0.0px;stroke-linecap:butt;stroke-linejoin:miter;stroke-opacity:1;"/>
<ellipse cx="83.7" cy="281.8" rx="5.5" ry="5.5" class="atom-0" style="fill:#FF7F7F;fill-rule:evenodd;stroke:#FF7F7F;stroke-width:1.0px;stroke-linecap:butt;stroke-linejoin:miter;stroke-opacity:1"/>
<ellipse cx="69.9" cy="257.9" rx="5.5" ry="5.5" class="atom-1" style="fill:#FF7F7F;fill-rule:evenodd;stroke:#FF7F7F;stroke-width:1.0px;stroke-linecap:butt;stroke-linejoin:miter;stroke-opacity:1"/>
<ellipse cx="38.4" cy="258.0" rx="10.5" ry="5.7" class="atom-2" style="fill:#FF7F7F;fill-rule:evenodd;stroke:#FF7F7F;stroke-width:1.0px;stroke-linecap:butt;stroke-linejoin:miter;stroke-opacity:1"/>
<ellipse cx="83.7" cy="234.0" rx="5.5" ry="5.5" class="atom-3" style="fill:#FF7F7F;fill-rule:evenodd;stroke:#FF7F7F;stroke-width:1.0px;stroke-linecap:butt;stroke-linejoin:miter;stroke-opacity:1"/>
<ellipse cx="111.3" cy="234.0" rx="5.5" ry="5.5" class="atom-4" style="fill:#FF7F7F;fill-rule:evenodd;stroke:#FF7F7F;stroke-width:1.0px;stroke-linecap:butt;stroke-linejoin:miter;stroke-opacity:1"/>
<ellipse cx="125.1" cy="257.9" rx="5.5" ry="5.5" class="atom-5" style="fill:#FF7F7F;fill-rule:evenodd;stroke:#FF7F7F;stroke-width:1.0px;stroke-linecap:butt;stroke-linejoin:miter;stroke-opacity:1"/>
<ellipse cx="159.0" cy="259.9" rx="13.1" ry="8.3" class="atom-6" style="fill:#FF7F7F;fill-rule:evenodd;stroke:#FF7F7F;stroke-width:1.0px;stroke-linecap:butt;stroke-linejoin:miter;stroke-opacity:1"/>
<ellipse cx="111.3" cy="281.8" rx="5.5" ry="5.5" class="atom-7" style="fill:#FF7F7F;fill-rule:evenodd;stroke:#FF7F7F;stroke-width:1.0px;stroke-linecap:butt;stroke-linejoin:miter;stroke-opacity:1"/>
<path class="bond-0 atom-0 atom-1" d="M 83.7,281.8 L 69.9,257.9" style="fill:none;fill-rule:evenodd;stroke:#000000;stroke-width:2.0px;stroke-linecap:butt;stroke-linejoin:miter;stroke-opacity:1"/>
<path class="bond-0 atom-0 atom-1" d="M 86.1,277.7 L 74.7,257.9" style="fill:none;fill-rule:evenodd;stroke:#000000;stroke-width:2.0px;stroke-linecap:butt;stroke-linejoin:miter;stroke-opacity:1"/>
<path class="bond-1 atom-1 atom-2" d="M 69.9,257.9 L 58.3,257.9" style="fill:none;fill-rule:evenodd;stroke:#000000;stroke-width:2.0px;stroke-linecap:butt;stroke-linejoin:miter;stroke-opacity:1"/>
<path class="bond-1 atom-1 atom-2" d="M 58.3,257.9 L 46.8,257.9" style="fill:none;fill-rule:evenodd;stroke:#FF0000;stroke-width:2.0px;stroke-linecap:butt;stroke-linejoin:miter;stroke-opacity:1"/>
<path class="bond-2 atom-1 atom-3" d="M 69.9,257.9 L 83.7,234.0" style="fill:none;fill-rule:evenodd;stroke:#000000;stroke-width:2.0px;stroke-linecap:butt;stroke-linejoin:miter;stroke-opacity:1"/>
<path class="bond-3 atom-3 atom-4" d="M 83.7,234.0 L 95.6,234.0" style="fill:none;fill-rule:evenodd;stroke:#000000;stroke-width:2.0px;stroke-linecap:butt;stroke-linejoin:miter;stroke-opacity:1"/>
<path class="bond-3 atom-3 atom-4" d="M 95.6,234.0 L 107.4,234.0" style="fill:none;fill-rule:evenodd;stroke:#0000FF;stroke-width:2.0px;stroke-linecap:butt;stroke-linejoin:miter;stroke-opacity:1"/>
<path class="bond-3 atom-3 atom-4" d="M 86.1,238.1 L 96.8,238.1" style="fill:none;fill-rule:evenodd;stroke:#000000;stroke-width:2.0px;stroke-linecap:butt;stroke-linejoin:miter;stroke-opacity:1"/>
<path class="bond-3 atom-3 atom-4" d="M 96.8,238.1 L 107.4,238.1" style="fill:none;fill-rule:evenodd;stroke:#0000FF;stroke-width:2.0px;stroke-linecap:butt;stroke-linejoin:miter;stroke-opacity:1"/>
<path class="bond-4 atom-4 atom-5" d="M 114.1,238.8 L 119.6,248.4" style="fill:none;fill-rule:evenodd;stroke:#0000FF;stroke-width:2.0px;stroke-linecap:butt;stroke-linejoin:miter;stroke-opacity:1"/>
<path class="bond-4 atom-4 atom-5" d="M 119.6,248.4 L 125.1,257.9" style="fill:none;fill-rule:evenodd;stroke:#000000;stroke-width:2.0px;stroke-linecap:butt;stroke-linejoin:miter;stroke-opacity:1"/>
<path class="bond-5 atom-5 atom-6" d="M 125.1,257.9 L 137.0,257.9" style="fill:none;fill-rule:evenodd;stroke:#000000;stroke-width:2.0px;stroke-linecap:butt;stroke-linejoin:miter;stroke-opacity:1"/>
<path class="bond-5 atom-5 atom-6" d="M 137.0,257.9 L 148.8,257.9" style="fill:none;fill-rule:evenodd;stroke:#0000FF;stroke-width:2.0px;stroke-linecap:butt;stroke-linejoin:miter;stroke-opacity:1"/>
<path class="bond-6 atom-5 atom-7" d="M 125.1,257.9 L 111.3,281.8" style="fill:none;fill-rule:evenodd;stroke:#000000;stroke-width:2.0px;stroke-linecap:butt;stroke-linejoin:miter;stroke-opacity:1"/>
<path class="bond-6 atom-5 atom-7" d="M 120.3,257.9 L 108.9,277.7" style="fill:none;fill-rule:evenodd;stroke:#000000;stroke-width:2.0px;stroke-linecap:butt;stroke-linejoin:miter;stroke-opacity:1"/>
<path class="bond-7 atom-7 atom-8" d="M 111.3,281.8 L 116.8,291.4" style="fill:none;fill-rule:evenodd;stroke:#000000;stroke-width:2.0px;stroke-linecap:butt;stroke-linejoin:miter;stroke-opacity:1"/>
<path class="bond-7 atom-7 atom-8" d="M 116.8,291.4 L 122.3,300.9" style="fill:none;fill-rule:evenodd;stroke:#0000FF;stroke-width:2.0px;stroke-linecap:butt;stroke-linejoin:miter;stroke-opacity:1"/>
<path class="bond-8 atom-8 atom-9" d="M 122.3,310.5 L 116.8,320.1" style="fill:none;fill-rule:evenodd;stroke:#0000FF;stroke-width:2.0px;stroke-linecap:butt;stroke-linejoin:miter;stroke-opacity:1"/>
<path class="bond-8 atom-8 atom-9" d="M 116.8,320.1 L 111.3,329.6" style="fill:none;fill-rule:evenodd;stroke:#000000;stroke-width:2.0px;stroke-linecap:butt;stroke-linejoin:miter;stroke-opacity:1"/>
<path class="bond-9 atom-9 atom-10" d="M 112.5,327.5 L 100.3,327.5" style="fill:none;fill-rule:evenodd;stroke:#000000;stroke-width:2.0px;stroke-linecap:butt;stroke-linejoin:miter;stroke-opacity:1"/>
<path class="bond-9 atom-9 atom-10" d="M 100.3,327.5 L 88.2,327.5" style="fill:none;fill-rule:evenodd;stroke:#FF0000;stroke-width:2.0px;stroke-linecap:butt;stroke-linejoin:miter;stroke-opacity:1"/>
<path class="bond-9 atom-9 atom-10" d="M 112.5,331.7 L 100.3,331.7" style="fill:none;fill-rule:evenodd;stroke:#000000;stroke-width:2.0px;stroke-linecap:butt;stroke-linejoin:miter;stroke-opacity:1"/>
<path class="bond-9 atom-9 atom-10" d="M 100.3,331.7 L 88.2,331.7" style="fill:none;fill-rule:evenodd;stroke:#FF0000;stroke-width:2.0px;stroke-linecap:butt;stroke-linejoin:miter;stroke-opacity:1"/>
<path class="bond-10 atom-9 atom-11" d="M 111.3,329.6 L 125.1,353.5" style="fill:none;fill-rule:evenodd;stroke:#000000;stroke-width:2.0px;stroke-linecap:butt;stroke-linejoin:miter;stroke-opacity:1"/>
<path class="bond-11 atom-7 atom-0" d="M 111.3,281.8 L 83.7,281.8" style="fill:none;fill-rule:evenodd;stroke:#000000;stroke-width:2.0px;stroke-linecap:butt;stroke-linejoin:miter;stroke-opacity:1"/>
<path d="M 83.0,280.6 L 83.7,281.8 L 85.1,281.8" style="fill:none;stroke:#000000;stroke-width:2.0px;stroke-linecap:butt;stroke-linejoin:miter;stroke-opacity:1;"/>
<path d="M 83.0,235.2 L 83.7,234.0 L 84.3,234.0" style="fill:none;stroke:#000000;stroke-width:2.0px;stroke-linecap:butt;stroke-linejoin:miter;stroke-opacity:1;"/>
<path d="M 111.6,329.1 L 111.3,329.6 L 112.0,330.8" style="fill:none;stroke:#000000;stroke-width:2.0px;stroke-linecap:butt;stroke-linejoin:miter;stroke-opacity:1;"/>
<path class="atom-2" d="M 31.0 254.0 L 32.0 254.0 L 32.0 257.4 L 36.0 257.4 L 36.0 254.0 L 37.1 254.0 L 37.1 261.9 L 36.0 261.9 L 36.0 258.3 L 32.0 258.3 L 32.0 261.9 L 31.0 261.9 L 31.0 254.0 " fill="#FF0000"/>
<path class="atom-2" d="M 38.7 257.9 Q 38.7 256.1, 39.6 255.0 Q 40.6 254.0, 42.3 254.0 Q 44.0 254.0, 45.0 255.0 Q 45.9 256.1, 45.9 257.9 Q 45.9 259.8, 44.9 260.9 Q 44.0 262.0, 42.3 262.0 Q 40.6 262.0, 39.6 260.9 Q 38.7 259.8, 38.7 257.9 M 42.3 261.1 Q 43.5 261.1, 44.1 260.3 Q 44.8 259.5, 44.8 257.9 Q 44.8 256.4, 44.1 255.6 Q 43.5 254.8, 42.3 254.8 Q 41.1 254.8, 40.4 255.6 Q 39.8 256.4, 39.8 257.9 Q 39.8 259.5, 40.4 260.3 Q 41.1 261.1, 42.3 261.1 " fill="#FF0000"/>
<path class="atom-4" d="M 109.6 230.1 L 112.1 234.2 Q 112.4 234.6, 112.8 235.4 Q 113.2 236.1, 113.2 236.2 L 113.2 230.1 L 114.3 230.1 L 114.3 237.9 L 113.2 237.9 L 110.4 233.4 Q 110.1 232.9, 109.8 232.2 Q 109.4 231.6, 109.3 231.5 L 109.3 237.9 L 108.3 237.9 L 108.3 230.1 L 109.6 230.1 " fill="#0000FF"/>
<path class="atom-6" d="M 151.0 254.0 L 153.5 258.1 Q 153.8 258.5, 154.2 259.3 Q 154.6 260.0, 154.6 260.1 L 154.6 254.0 L 155.7 254.0 L 155.7 261.8 L 154.6 261.8 L 151.8 257.3 Q 151.5 256.8, 151.2 256.2 Q 150.8 255.5, 150.7 255.4 L 150.7 261.8 L 149.7 261.8 L 149.7 254.0 L 151.0 254.0 " fill="#0000FF"/>
<path class="atom-6" d="M 157.2 254.0 L 158.2 254.0 L 158.2 257.3 L 162.2 257.3 L 162.2 254.0 L 163.3 254.0 L 163.3 261.8 L 162.2 261.8 L 162.2 258.2 L 158.2 258.2 L 158.2 261.8 L 157.2 261.8 L 157.2 254.0 " fill="#0000FF"/>
<path class="atom-6" d="M 164.8 261.5 Q 165.0 261.1, 165.4 260.8 Q 165.9 260.5, 166.5 260.5 Q 167.3 260.5, 167.7 260.9 Q 168.2 261.4, 168.2 262.1 Q 168.2 262.9, 167.6 263.6 Q 167.0 264.3, 165.9 265.1 L 168.3 265.1 L 168.3 265.7 L 164.8 265.7 L 164.8 265.2 Q 165.7 264.6, 166.3 264.0 Q 166.9 263.5, 167.2 263.1 Q 167.4 262.6, 167.4 262.1 Q 167.4 261.6, 167.2 261.4 Q 167.0 261.1, 166.5 261.1 Q 166.1 261.1, 165.8 261.3 Q 165.6 261.4, 165.4 261.8 L 164.8 261.5 " fill="#0000FF"/>
<path class="atom-8" d="M 123.4 301.8 L 125.9 305.9 Q 126.2 306.4, 126.6 307.1 Q 127.0 307.8, 127.0 307.9 L 127.0 301.8 L 128.1 301.8 L 128.1 309.6 L 127.0 309.6 L 124.2 305.1 Q 123.9 304.6, 123.6 304.0 Q 123.2 303.4, 123.1 303.2 L 123.1 309.6 L 122.1 309.6 L 122.1 301.8 L 123.4 301.8 " fill="#0000FF"/>
<path class="atom-8" d="M 129.6 301.8 L 130.6 301.8 L 130.6 305.1 L 134.6 305.1 L 134.6 301.8 L 135.7 301.8 L 135.7 309.6 L 134.6 309.6 L 134.6 306.0 L 130.6 306.0 L 130.6 309.6 L 129.6 309.6 L 129.6 301.8 " fill="#0000FF"/>
<path class="atom-10" d="M 80.1 329.6 Q 80.1 327.8, 81.0 326.7 Q 82.0 325.7, 83.7 325.7 Q 85.4 325.7, 86.4 326.7 Q 87.3 327.8, 87.3 329.6 Q 87.3 331.5, 86.3 332.6 Q 85.4 333.7, 83.7 333.7 Q 82.0 333.7, 81.0 332.6 Q 80.1 331.6, 80.1 329.6 M 83.7 332.8 Q 84.9 332.8, 85.5 332.0 Q 86.2 331.2, 86.2 329.6 Q 86.2 328.1, 85.5 327.3 Q 84.9 326.5, 83.7 326.5 Q 82.5 326.5, 81.9 327.3 Q 81.2 328.1, 81.2 329.6 Q 81.2 331.2, 81.9 332.0 Q 82.5 332.8, 83.7 332.8 " fill="#FF0000"/>
<path class="legend" d="M 10.0 384.8 Q 10.0 383.7, 10.9 383.1 Q 11.8 382.5, 13.4 382.5 L 14.4 382.5 L 14.4 382.3 Q 14.4 381.4, 14.0 381.0 Q 13.7 380.7, 12.8 380.7 Q 12.3 380.7, 11.9 380.8 Q 11.4 380.9, 10.8 381.2 L 10.4 380.3 Q 11.6 379.7, 12.9 379.7 Q 14.3 379.7, 15.0 380.3 Q 15.7 380.9, 15.7 382.3 L 15.7 386.7 L 14.7 386.7 Q 14.7 386.6, 14.6 386.4 Q 14.6 386.2, 14.5 385.9 Q 13.6 386.9, 12.3 386.9 Q 11.2 386.9, 10.6 386.3 Q 10.0 385.8, 10.0 384.8 M 11.3 384.8 Q 11.3 385.3, 11.6 385.6 Q 11.9 385.9, 12.5 385.9 Q 13.0 385.9, 13.6 385.6 Q 14.1 385.4, 14.4 384.9 L 14.4 383.5 L 13.5 383.5 Q 12.4 383.5, 11.8 383.8 Q 11.3 384.1, 11.3 384.8 " fill="#000000"/>
<path class="legend" d="M 17.2 376.5 L 18.4 376.5 L 18.4 386.7 L 17.2 386.7 L 17.2 376.5 " fill="#000000"/>
<path class="legend" d="M 26.3 376.5 L 26.3 386.7 L 25.3 386.7 L 25.1 385.8 Q 24.4 386.8, 23.1 386.8 Q 21.7 386.8, 20.9 385.9 Q 20.1 385.0, 20.1 383.4 Q 20.1 381.6, 21.0 380.7 Q 22.0 379.7, 23.6 379.7 Q 24.3 379.7, 25.1 379.9 L 25.1 376.5 L 26.3 376.5 M 23.2 385.8 Q 23.9 385.8, 24.4 385.4 Q 24.9 385.1, 25.1 384.4 L 25.1 380.9 Q 24.4 380.7, 23.6 380.7 Q 22.6 380.7, 22.0 381.4 Q 21.4 382.1, 21.4 383.4 Q 21.4 384.5, 21.8 385.2 Q 22.3 385.8, 23.2 385.8 " fill="#000000"/>
<path class="legend" d="M 27.9 383.2 Q 27.9 381.6, 28.7 380.6 Q 29.6 379.7, 31.1 379.7 Q 32.6 379.7, 33.3 380.6 Q 34.0 381.5, 34.0 383.2 L 34.0 383.4 L 29.2 383.4 Q 29.2 384.6, 29.7 385.2 Q 30.3 385.8, 31.2 385.8 Q 31.8 385.8, 32.3 385.7 Q 32.8 385.6, 33.4 385.3 L 33.7 386.2 Q 33.0 386.5, 32.4 386.7 Q 31.8 386.8, 31.2 386.8 Q 29.6 386.8, 28.8 385.9 Q 27.9 384.9, 27.9 383.2 M 31.1 380.7 Q 30.3 380.7, 29.9 381.1 Q 29.4 381.6, 29.2 382.5 L 32.7 382.5 Q 32.6 381.6, 32.2 381.1 Q 31.8 380.7, 31.1 380.7 " fill="#000000"/>
<path class="legend" d="M 38.6 379.7 Q 39.7 379.7, 40.3 380.3 Q 40.9 381.0, 40.9 382.1 L 40.9 386.7 L 39.6 386.7 L 39.6 382.2 Q 39.6 381.4, 39.3 381.1 Q 39.0 380.7, 38.3 380.7 Q 37.6 380.7, 37.1 381.0 Q 36.6 381.3, 36.3 381.8 L 36.3 386.7 L 35.0 386.7 L 35.0 376.5 L 36.3 376.5 L 36.3 380.7 Q 37.2 379.7, 38.6 379.7 " fill="#000000"/>
<path class="legend" d="M 47.7 379.8 L 48.9 379.8 L 45.4 390.0 L 44.2 390.0 L 45.3 386.7 L 44.8 386.7 L 42.4 379.8 L 43.7 379.8 L 45.7 385.6 L 47.7 379.8 " fill="#000000"/>
<path class="legend" d="M 55.8 376.5 L 55.8 386.7 L 54.8 386.7 L 54.6 385.8 Q 53.8 386.8, 52.6 386.8 Q 51.1 386.8, 50.3 385.9 Q 49.5 385.0, 49.5 383.4 Q 49.5 381.6, 50.5 380.7 Q 51.4 379.7, 53.1 379.7 Q 53.8 379.7, 54.5 379.9 L 54.5 376.5 L 55.8 376.5 M 52.6 385.8 Q 53.3 385.8, 53.8 385.4 Q 54.3 385.1, 54.5 384.4 L 54.5 380.9 Q 53.9 380.7, 53.1 380.7 Q 52.0 380.7, 51.4 381.4 Q 50.8 382.1, 50.8 383.4 Q 50.8 384.5, 51.3 385.2 Q 51.8 385.8, 52.6 385.8 " fill="#000000"/>
<path class="legend" d="M 57.4 383.2 Q 57.4 381.6, 58.2 380.6 Q 59.1 379.7, 60.6 379.7 Q 62.1 379.7, 62.8 380.6 Q 63.5 381.5, 63.5 383.2 L 63.5 383.4 L 58.6 383.4 Q 58.7 384.6, 59.2 385.2 Q 59.7 385.8, 60.7 385.8 Q 61.2 385.8, 61.7 385.7 Q 62.2 385.6, 62.8 385.3 L 63.2 386.2 Q 62.5 386.5, 61.9 386.7 Q 61.3 386.8, 60.6 386.8 Q 59.1 386.8, 58.2 385.9 Q 57.4 384.9, 57.4 383.2 M 60.6 380.7 Q 59.8 380.7, 59.3 381.1 Q 58.8 381.6, 58.7 382.5 L 62.1 382.5 Q 62.0 381.6, 61.7 381.1 Q 61.3 380.7, 60.6 380.7 " fill="#000000"/>
<path class="legend" d="" fill="#000000"/>
<path class="legend" d="M 69.4 383.2 Q 69.4 381.6, 70.3 380.6 Q 71.1 379.7, 72.7 379.7 Q 74.3 379.7, 75.1 380.6 Q 76.0 381.6, 76.0 383.2 Q 76.0 384.9, 75.1 385.9 Q 74.3 386.8, 72.7 386.8 Q 71.1 386.8, 70.3 385.9 Q 69.4 384.9, 69.4 383.2 M 70.7 383.2 Q 70.7 384.5, 71.2 385.2 Q 71.7 385.8, 72.7 385.8 Q 73.6 385.8, 74.2 385.2 Q 74.7 384.5, 74.7 383.2 Q 74.7 382.0, 74.2 381.3 Q 73.6 380.7, 72.7 380.7 Q 71.7 380.7, 71.2 381.3 Q 70.7 382.0, 70.7 383.2 " fill="#000000"/>
<path class="legend" d="M 77.1 380.8 L 77.1 379.8 L 78.3 379.8 L 78.3 378.8 Q 78.3 377.6, 78.9 377.1 Q 79.5 376.5, 80.5 376.5 Q 80.9 376.5, 81.3 376.6 Q 81.7 376.7, 82.1 376.9 L 81.8 377.8 Q 81.1 377.5, 80.6 377.5 Q 80.1 377.5, 79.8 377.8 Q 79.5 378.1, 79.5 378.7 L 79.5 379.8 L 81.7 379.8 L 81.7 380.8 L 79.5 380.8 L 79.5 388.8 L 78.3 388.8 L 78.3 380.8 L 77.1 380.8 " fill="#000000"/>
<path class="legend" d="M 82.3 380.8 L 82.3 379.8 L 83.5 379.8 L 83.5 378.8 Q 83.5 377.6, 84.1 377.1 Q 84.7 376.5, 85.7 376.5 Q 86.1 376.5, 86.5 376.6 Q 86.9 376.7, 87.3 376.9 L 86.9 377.8 Q 86.3 377.5, 85.8 377.5 Q 85.3 377.5, 85.0 377.8 Q 84.7 378.1, 84.7 378.7 L 84.7 379.8 L 86.9 379.8 L 86.9 380.8 L 84.7 380.8 L 84.7 388.8 L 83.5 388.8 L 83.5 380.8 L 82.3 380.8 " fill="#000000"/>
<path class="legend" d="" fill="#000000"/>
<path class="legend" d="M 92.4 384.8 Q 92.4 383.7, 93.3 383.1 Q 94.2 382.5, 95.8 382.5 L 96.8 382.5 L 96.8 382.3 Q 96.8 381.4, 96.5 381.0 Q 96.1 380.7, 95.3 380.7 Q 94.7 380.7, 94.3 380.8 Q 93.9 380.9, 93.2 381.2 L 92.8 380.3 Q 94.1 379.7, 95.3 379.7 Q 96.8 379.7, 97.4 380.3 Q 98.1 380.9, 98.1 382.3 L 98.1 386.7 L 97.1 386.7 Q 97.1 386.6, 97.1 386.4 Q 97.0 386.2, 96.9 385.9 Q 96.0 386.9, 94.7 386.9 Q 93.7 386.9, 93.0 386.3 Q 92.4 385.8, 92.4 384.8 M 93.7 384.8 Q 93.7 385.3, 94.0 385.6 Q 94.3 385.9, 94.9 385.9 Q 95.5 385.9, 96.0 385.6 Q 96.5 385.4, 96.8 384.9 L 96.8 383.5 L 95.9 383.5 Q 94.8 383.5, 94.2 383.8 Q 93.7 384.1, 93.7 384.8 " fill="#000000"/>
<path class="legend" d="M 100.6 379.8 L 100.8 380.8 Q 101.5 379.7, 102.7 379.7 Q 103.1 379.7, 103.6 379.8 L 103.4 381.0 Q 102.8 380.8, 102.5 380.8 Q 101.9 380.8, 101.5 381.0 Q 101.2 381.3, 100.9 381.8 L 100.9 386.7 L 99.6 386.7 L 99.6 379.8 L 100.6 379.8 " fill="#000000"/>
<path class="legend" d="M 104.3 383.2 Q 104.3 381.6, 105.1 380.6 Q 106.0 379.7, 107.5 379.7 Q 109.1 379.7, 110.0 380.6 Q 110.8 381.6, 110.8 383.2 Q 110.8 384.9, 110.0 385.9 Q 109.1 386.8, 107.5 386.8 Q 106.0 386.8, 105.1 385.9 Q 104.3 384.9, 104.3 383.2 M 105.6 383.2 Q 105.6 384.5, 106.1 385.2 Q 106.6 385.8, 107.5 385.8 Q 108.5 385.8, 109.0 385.2 Q 109.5 384.5, 109.5 383.2 Q 109.5 382.0, 109.0 381.3 Q 108.5 380.7, 107.5 380.7 Q 106.6 380.7, 106.1 381.3 Q 105.6 382.0, 105.6 383.2 " fill="#000000"/>
<path class="legend" d="M 119.9 379.7 Q 121.1 379.7, 121.6 380.3 Q 122.2 380.9, 122.2 382.1 L 122.2 386.7 L 121.0 386.7 L 121.0 382.2 Q 121.0 381.4, 120.6 381.1 Q 120.3 380.7, 119.6 380.7 Q 119.0 380.7, 118.5 381.0 Q 118.0 381.3, 117.7 381.8 Q 117.7 381.9, 117.7 382.1 L 117.7 386.7 L 116.5 386.7 L 116.5 382.2 Q 116.5 381.4, 116.1 381.1 Q 115.8 380.7, 115.1 380.7 Q 114.5 380.7, 114.0 381.0 Q 113.5 381.3, 113.2 381.8 L 113.2 386.7 L 111.9 386.7 L 111.9 379.8 L 113.0 379.8 L 113.1 380.8 Q 114.0 379.7, 115.4 379.7 Q 117.0 379.7, 117.5 380.9 Q 118.4 379.7, 119.9 379.7 " fill="#000000"/>
<path class="legend" d="M 123.8 384.8 Q 123.8 383.7, 124.6 383.1 Q 125.5 382.5, 127.1 382.5 L 128.2 382.5 L 128.2 382.3 Q 128.2 381.4, 127.8 381.0 Q 127.5 380.7, 126.6 380.7 Q 126.0 380.7, 125.6 380.8 Q 125.2 380.9, 124.5 381.2 L 124.1 380.3 Q 125.4 379.7, 126.6 379.7 Q 128.1 379.7, 128.8 380.3 Q 129.4 380.9, 129.4 382.3 L 129.4 386.7 L 128.4 386.7 Q 128.4 386.6, 128.4 386.4 Q 128.4 386.2, 128.3 385.9 Q 127.3 386.9, 126.0 386.9 Q 125.0 386.9, 124.4 386.3 Q 123.8 385.8, 123.8 384.8 M 125.0 384.8 Q 125.0 385.3, 125.3 385.6 Q 125.7 385.9, 126.3 385.9 Q 126.8 385.9, 127.3 385.6 Q 127.8 385.4, 128.2 384.9 L 128.2 383.5 L 127.2 383.5 Q 126.1 383.5, 125.6 383.8 Q 125.0 384.1, 125.0 384.8 " fill="#000000"/>
<path class="legend" d="M 131.0 380.8 L 131.0 379.8 L 132.3 379.8 L 132.5 377.8 L 133.4 377.8 L 133.4 379.8 L 135.5 379.8 L 135.5 380.8 L 133.4 380.8 L 133.4 384.6 Q 133.4 385.8, 134.4 385.8 Q 134.8 385.8, 135.4 385.6 L 135.6 386.5 Q 134.9 386.8, 134.2 386.8 Q 133.3 386.8, 132.7 386.2 Q 132.2 385.7, 132.2 384.7 L 132.2 380.8 L 131.0 380.8 " fill="#000000"/>
<path class="legend" d="M 136.5 377.2 L 137.7 377.2 L 137.7 378.4 L 136.5 378.4 L 136.5 377.2 M 136.5 379.8 L 137.7 379.8 L 137.7 386.7 L 136.5 386.7 L 136.5 379.8 " fill="#000000"/>
<path class="legend" d="M 139.3 383.2 Q 139.3 381.6, 140.2 380.6 Q 141.0 379.7, 142.6 379.7 Q 144.2 379.7, 145.0 380.8 L 144.2 381.5 Q 143.9 381.1, 143.5 380.9 Q 143.1 380.7, 142.6 380.7 Q 141.7 380.7, 141.1 381.3 Q 140.6 382.0, 140.6 383.2 Q 140.6 384.5, 141.2 385.2 Q 141.7 385.8, 142.7 385.8 Q 143.3 385.8, 143.7 385.7 Q 144.1 385.6, 144.5 385.3 L 144.9 386.2 Q 143.9 386.8, 142.6 386.8 Q 141.0 386.8, 140.2 385.8 Q 139.3 384.9, 139.3 383.2 " fill="#000000"/>
<path class="legend" d="" fill="#000000"/>
<path class="legend" d="M 150.8 383.2 Q 150.8 381.6, 151.6 380.6 Q 152.5 379.7, 154.1 379.7 Q 155.7 379.7, 156.5 380.8 L 155.6 381.5 Q 155.3 381.1, 154.9 380.9 Q 154.6 380.7, 154.1 380.7 Q 153.1 380.7, 152.6 381.3 Q 152.1 382.0, 152.1 383.2 Q 152.1 384.5, 152.6 385.2 Q 153.2 385.8, 154.2 385.8 Q 154.7 385.8, 155.1 385.7 Q 155.5 385.6, 156.0 385.3 L 156.3 386.2 Q 155.4 386.8, 154.1 386.8 Q 152.5 386.8, 151.6 385.8 Q 150.8 384.9, 150.8 383.2 " fill="#000000"/>
<path class="legend" d="M 157.3 384.8 Q 157.3 383.7, 158.2 383.1 Q 159.1 382.5, 160.7 382.5 L 161.7 382.5 L 161.7 382.3 Q 161.7 381.4, 161.3 381.0 Q 161.0 380.7, 160.1 380.7 Q 159.6 380.7, 159.2 380.8 Q 158.7 380.9, 158.1 381.2 L 157.7 380.3 Q 158.9 379.7, 160.2 379.7 Q 161.6 379.7, 162.3 380.3 Q 163.0 380.9, 163.0 382.3 L 163.0 386.7 L 162.0 386.7 Q 162.0 386.6, 161.9 386.4 Q 161.9 386.2, 161.8 385.9 Q 160.8 386.9, 159.6 386.9 Q 158.5 386.9, 157.9 386.3 Q 157.3 385.8, 157.3 384.8 M 158.6 384.8 Q 158.6 385.3, 158.9 385.6 Q 159.2 385.9, 159.8 385.9 Q 160.3 385.9, 160.8 385.6 Q 161.4 385.4, 161.7 384.9 L 161.7 383.5 L 160.8 383.5 Q 159.7 383.5, 159.1 383.8 Q 158.6 384.1, 158.6 384.8 " fill="#000000"/>
<path class="legend" d="M 165.5 379.8 L 165.7 380.8 Q 166.4 379.7, 167.6 379.7 Q 167.9 379.7, 168.4 379.8 L 168.2 381.0 Q 167.7 380.8, 167.3 380.8 Q 166.8 380.8, 166.4 381.0 Q 166.0 381.3, 165.7 381.8 L 165.7 386.7 L 164.5 386.7 L 164.5 379.8 L 165.5 379.8 " fill="#000000"/>
<path class="legend" d="M 172.4 379.7 Q 173.8 379.7, 174.6 380.6 Q 175.4 381.5, 175.4 383.1 Q 175.4 384.9, 174.4 385.8 Q 173.5 386.8, 171.8 386.8 Q 170.8 386.8, 169.7 386.4 L 169.1 386.3 L 169.1 376.5 L 170.4 376.5 L 170.4 380.6 Q 171.1 379.7, 172.4 379.7 M 171.8 385.8 Q 172.9 385.8, 173.5 385.1 Q 174.1 384.4, 174.1 383.1 Q 174.1 382.0, 173.6 381.3 Q 173.1 380.7, 172.3 380.7 Q 171.6 380.7, 171.1 381.1 Q 170.6 381.4, 170.4 382.1 L 170.4 385.6 Q 171.1 385.8, 171.8 385.8 " fill="#000000"/>
<path class="legend" d="M 176.5 383.2 Q 176.5 381.6, 177.3 380.6 Q 178.2 379.7, 179.8 379.7 Q 181.3 379.7, 182.2 380.6 Q 183.0 381.6, 183.0 383.2 Q 183.0 384.9, 182.2 385.9 Q 181.3 386.8, 179.8 386.8 Q 178.2 386.8, 177.3 385.9 Q 176.5 384.9, 176.5 383.2 M 177.8 383.2 Q 177.8 384.5, 178.3 385.2 Q 178.8 385.8, 179.8 385.8 Q 180.7 385.8, 181.2 385.2 Q 181.7 384.5, 181.7 383.2 Q 181.7 382.0, 181.2 381.3 Q 180.7 380.7, 179.8 380.7 Q 178.8 380.7, 178.3 381.3 Q 177.8 382.0, 177.8 383.2 " fill="#000000"/>
<path class="legend" d="M 187.7 379.7 Q 188.8 379.7, 189.4 380.3 Q 190.0 381.0, 190.0 382.1 L 190.0 386.7 L 188.7 386.7 L 188.7 382.2 Q 188.7 381.4, 188.4 381.1 Q 188.1 380.7, 187.4 380.7 Q 186.8 380.7, 186.3 381.0 Q 185.7 381.3, 185.4 381.8 L 185.4 386.7 L 184.1 386.7 L 184.1 379.8 L 185.2 379.8 L 185.3 380.8 Q 186.2 379.7, 187.7 379.7 " fill="#000000"/>
<path class="bond-0 atom-0 atom-1" d="M 270.0,286.7 L 278.6,281.7" style="fill:none;fill-rule:evenodd;stroke:#191919;stroke-width:2.0px;stroke-linecap:butt;stroke-linejoin:miter;stroke-opacity:1"/>
<path class="bond-0 atom-0 atom-1" d="M 278.6,281.7 L 287.3,276.8" style="fill:none;fill-rule:evenodd;stroke:#0000FF;stroke-width:2.0px;stroke-linecap:butt;stroke-linejoin:miter;stroke-opacity:1"/>
<path class="bond-1 atom-1 atom-2" d="M 295.0,276.8 L 305.0,282.5" style="fill:none;fill-rule:evenodd;stroke:#0000FF;stroke-width:2.0px;stroke-linecap:butt;stroke-linejoin:miter;stroke-opacity:1"/>
<path class="bond-1 atom-1 atom-2" d="M 305.0,282.5 L 315.1,288.3" style="fill:none;fill-rule:evenodd;stroke:#000000;stroke-width:2.0px;stroke-linecap:butt;stroke-linejoin:miter;stroke-opacity:1"/>
<path class="bond-2 atom-2 atom-3" d="M 315.1,288.3 L 339.0,274.5" style="fill:none;fill-rule:evenodd;stroke:#000000;stroke-width:2.0px;stroke-linecap:butt;stroke-linejoin:miter;stroke-opacity:1"/>
<path class="bond-3 atom-2 atom-4" d="M 313.0,287.1 L 313.0,299.1" style="fill:none;fill-rule:evenodd;stroke:#000000;stroke-width:2.0px;stroke-linecap:butt;stroke-linejoin:miter;stroke-opacity:1"/>
<path class="bond-3 atom-2 atom-4" d="M 313.0,299.1 L 313.0,311.1" style="fill:none;fill-rule:evenodd;stroke:#FF0000;stroke-width:2.0px;stroke-linecap:butt;stroke-linejoin:miter;stroke-opacity:1"/>
<path class="bond-3 atom-2 atom-4" d="M 317.1,287.1 L 317.1,299.1" style="fill:none;fill-rule:evenodd;stroke:#000000;stroke-width:2.0px;stroke-linecap:butt;stroke-linejoin:miter;stroke-opacity:1"/>
<path class="bond-3 atom-2 atom-4" d="M 317.1,299.1 L 317.1,311.1" style="fill:none;fill-rule:evenodd;stroke:#FF0000;stroke-width:2.0px;stroke-linecap:butt;stroke-linejoin:miter;stroke-opacity:1"/>
<path d="M 314.6,288.0 L 315.1,288.3 L 316.3,287.6" style="fill:none;stroke:#000000;stroke-width:2.0px;stroke-linecap:butt;stroke-linejoin:miter;stroke-opacity:1;"/>
<path class="atom-0" d="M 261.1 286.3 Q 261.2 285.8, 261.7 285.6 Q 262.1 285.3, 262.8 285.3 Q 263.6 285.3, 264.0 285.7 Q 264.4 286.1, 264.4 286.9 Q 264.4 287.6, 263.9 288.4 Q 263.3 289.1, 262.1 289.9 L 264.5 289.9 L 264.5 290.5 L 261.0 290.5 L 261.0 290.0 Q 262.0 289.3, 262.6 288.8 Q 263.1 288.3, 263.4 287.8 Q 263.7 287.4, 263.7 286.9 Q 263.7 286.4, 263.5 286.1 Q 263.2 285.9, 262.8 285.9 Q 262.4 285.9, 262.1 286.0 Q 261.8 286.2, 261.6 286.6 L 261.1 286.3 " fill="#191919"/>
<path class="atom-0" d="M 265.8 287.4 L 266.9 286.3 L 265.4 286.0 L 265.6 285.2 L 267.0 285.9 L 266.8 284.4 L 267.7 284.3 L 267.4 285.9 L 268.9 285.2 L 269.1 286.0 L 267.6 286.3 L 268.7 287.4 L 268.0 287.9 L 267.2 286.5 L 266.4 287.9 L 265.8 287.4 " fill="#191919"/>
<path class="atom-1" d="M 289.4 270.6 L 292.0 274.7 Q 292.2 275.2, 292.6 275.9 Q 293.1 276.6, 293.1 276.7 L 293.1 270.6 L 294.1 270.6 L 294.1 278.4 L 293.0 278.4 L 290.3 273.9 Q 290.0 273.4, 289.6 272.8 Q 289.3 272.2, 289.2 272.0 L 289.2 278.4 L 288.2 278.4 L 288.2 270.6 L 289.4 270.6 " fill="#0000FF"/>
<path class="atom-1" d="M 288.1 262.0 L 289.2 262.0 L 289.2 265.3 L 293.2 265.3 L 293.2 262.0 L 294.2 262.0 L 294.2 269.8 L 293.2 269.8 L 293.2 266.2 L 289.2 266.2 L 289.2 269.8 L 288.1 269.8 L 288.1 262.0 " fill="#0000FF"/>
<path class="atom-4" d="M 311.5 315.9 Q 311.5 314.1, 312.4 313.0 Q 313.3 312.0, 315.1 312.0 Q 316.8 312.0, 317.7 313.0 Q 318.6 314.1, 318.6 315.9 Q 318.6 317.8, 317.7 318.9 Q 316.8 320.0, 315.1 320.0 Q 313.3 320.0, 312.4 318.9 Q 311.5 317.8, 311.5 315.9 M 315.1 319.1 Q 316.2 319.1, 316.9 318.3 Q 317.5 317.5, 317.5 315.9 Q 317.5 314.4, 316.9 313.6 Q 316.2 312.8, 315.1 312.8 Q 313.9 312.8, 313.2 313.6 Q 312.6 314.4, 312.6 315.9 Q 312.6 317.5, 313.2 318.3 Q 313.9 319.1, 315.1 319.1 " fill="#FF0000"/>
<path class="legend" d="M 257.3 374.1 L 260.7 374.1 L 260.7 375.2 L 258.6 375.2 L 258.6 388.4 L 260.7 388.4 L 260.7 389.5 L 257.3 389.5 L 257.3 374.1 " fill="#000000"/>
<path class="legend" d="M 261.7 377.3 Q 262.1 376.2, 263.1 375.6 Q 264.1 375.0, 265.5 375.0 Q 267.2 375.0, 268.1 375.9 Q 269.1 376.8, 269.1 378.5 Q 269.1 380.2, 267.8 381.7 Q 266.6 383.3, 264.0 385.2 L 269.3 385.2 L 269.3 386.4 L 261.6 386.4 L 261.6 385.4 Q 263.8 383.9, 265.0 382.8 Q 266.3 381.6, 266.9 380.6 Q 267.5 379.6, 267.5 378.6 Q 267.5 377.5, 266.9 376.9 Q 266.4 376.3, 265.5 376.3 Q 264.5 376.3, 263.9 376.6 Q 263.3 377.0, 262.9 377.8 L 261.7 377.3 " fill="#000000"/>
<path class="legend" d="M 271.4 379.4 L 273.1 377.7 L 270.9 377.3 L 271.2 376.1 L 273.2 377.2 L 273.0 374.9 L 274.2 374.9 L 273.8 377.2 L 275.9 376.2 L 276.2 377.3 L 274.0 377.7 L 275.6 379.4 L 274.6 380.1 L 273.5 378.0 L 272.4 380.1 L 271.4 379.4 " fill="#000000"/>
<path class="legend" d="M 280.8 374.1 L 280.8 389.5 L 277.4 389.5 L 277.4 388.4 L 279.4 388.4 L 279.4 375.2 L 277.4 375.2 L 277.4 374.1 L 280.8 374.1 " fill="#000000"/>
<path class="legend" d="M 284.6 375.1 L 288.3 381.1 Q 288.6 381.7, 289.2 382.8 Q 289.8 383.9, 289.9 383.9 L 289.9 375.1 L 291.4 375.1 L 291.4 386.4 L 289.8 386.4 L 285.8 379.9 Q 285.4 379.1, 284.9 378.2 Q 284.4 377.4, 284.2 377.1 L 284.2 386.4 L 282.8 386.4 L 282.8 375.1 L 284.6 375.1 " fill="#000000"/>
<path class="legend" d="M 293.3 380.8 Q 293.3 378.0, 294.6 376.5 Q 296.0 375.0, 298.5 375.0 Q 300.8 375.0, 302.1 376.6 L 301.0 377.5 Q 300.1 376.3, 298.5 376.3 Q 296.8 376.3, 295.9 377.5 Q 295.0 378.6, 295.0 380.8 Q 295.0 383.0, 295.9 384.2 Q 296.8 385.3, 298.7 385.3 Q 299.9 385.3, 301.4 384.6 L 301.8 385.8 Q 301.2 386.1, 300.3 386.4 Q 299.4 386.6, 298.4 386.6 Q 296.0 386.6, 294.6 385.1 Q 293.3 383.6, 293.3 380.8 " fill="#000000"/>
<path class="legend" d="M 303.4 381.9 Q 303.4 379.6, 304.0 377.7 Q 304.7 375.8, 306.0 373.8 L 306.9 374.4 Q 305.8 376.3, 305.3 378.0 Q 304.8 379.7, 304.8 381.9 Q 304.8 384.0, 305.3 385.8 Q 305.8 387.5, 306.9 389.4 L 306.0 390.0 Q 304.7 388.0, 304.0 386.1 Q 303.4 384.2, 303.4 381.9 " fill="#000000"/>
<path class="legend" d="M 307.9 380.8 Q 307.9 378.0, 309.2 376.5 Q 310.6 375.0, 313.1 375.0 Q 315.4 375.0, 316.7 376.6 L 315.6 377.5 Q 314.7 376.3, 313.1 376.3 Q 311.4 376.3, 310.4 377.5 Q 309.5 378.6, 309.5 380.8 Q 309.5 383.0, 310.5 384.2 Q 311.4 385.3, 313.2 385.3 Q 314.5 385.3, 315.9 384.6 L 316.4 385.8 Q 315.8 386.1, 314.9 386.4 Q 314.0 386.6, 313.0 386.6 Q 310.6 386.6, 309.2 385.1 Q 307.9 383.6, 307.9 380.8 " fill="#000000"/>
<path class="legend" d="M 321.5 381.9 Q 321.5 384.2, 320.8 386.1 Q 320.1 388.0, 318.8 390.0 L 317.9 389.4 Q 319.0 387.5, 319.5 385.8 Q 320.0 384.0, 320.0 381.9 Q 320.0 379.7, 319.5 378.0 Q 319.0 376.3, 317.9 374.4 L 318.8 373.8 Q 320.1 375.8, 320.8 377.7 Q 321.5 379.6, 321.5 381.9 " fill="#000000"/>
<path class="legend" d="M 322.9 379.5 L 330.2 379.5 L 330.2 380.6 L 322.9 380.6 L 322.9 379.5 M 322.9 382.9 L 330.2 382.9 L 330.2 384.1 L 322.9 384.1 L 322.9 382.9 " fill="#000000"/>
<path class="legend" d="M 332.3 380.8 Q 332.3 378.0, 333.7 376.5 Q 335.0 375.0, 337.5 375.0 Q 340.0 375.0, 341.4 376.5 Q 342.7 378.0, 342.7 380.8 Q 342.7 383.5, 341.4 385.1 Q 340.0 386.6, 337.5 386.6 Q 335.0 386.6, 333.7 385.1 Q 332.3 383.5, 332.3 380.8 M 337.5 385.3 Q 339.3 385.3, 340.2 384.2 Q 341.1 383.0, 341.1 380.8 Q 341.1 378.5, 340.2 377.4 Q 339.3 376.3, 337.5 376.3 Q 335.8 376.3, 334.9 377.4 Q 333.9 378.5, 333.9 380.8 Q 333.9 383.0, 334.9 384.2 Q 335.8 385.3, 337.5 385.3 " fill="#000000"/>
<path class="bond-0 atom-0 atom-1" d="M 52.0,481.8 L 55.4,481.8 L 67.5,502.8 L 64.1,508.7 L 50.3,484.8 Z" style="fill:#FF7F7F;fill-rule:evenodd;fill-opacity:1;stroke:#FF7F7F;stroke-width:0.0px;stroke-linecap:butt;stroke-linejoin:miter;stroke-opacity:1;"/>
<path class="bond-11 atom-0 atom-10" d="M 91.7,502.8 L 95.1,508.7 L 64.1,508.7 L 67.5,502.8 Z" style="fill:#FF7F7F;fill-rule:evenodd;fill-opacity:1;stroke:#FF7F7F;stroke-width:0.0px;stroke-linecap:butt;stroke-linejoin:miter;stroke-opacity:1;"/>
<path class="bond-1 atom-1 atom-2" d="M 24.4,478.9 L 50.3,478.9 L 52.0,481.8 L 50.3,484.8 L 24.4,484.8 Z" style="fill:#FF7F7F;fill-rule:evenodd;fill-opacity:1;stroke:#FF7F7F;stroke-width:0.0px;stroke-linecap:butt;stroke-linejoin:miter;stroke-opacity:1;"/>
<path class="bond-2 atom-1 atom-3" d="M 64.1,455.0 L 67.5,460.9 L 55.4,481.8 L 52.0,481.8 L 50.3,478.9 Z" style="fill:#FF7F7F;fill-rule:evenodd;fill-opacity:1;stroke:#FF7F7F;stroke-width:0.0px;stroke-linecap:butt;stroke-linejoin:miter;stroke-opacity:1;"/>
<path class="bond-3 atom-3 atom-4" d="M 64.1,455.0 L 95.1,455.0 L 91.7,460.9 L 67.5,460.9 Z" style="fill:#FF7F7F;fill-rule:evenodd;fill-opacity:1;stroke:#FF7F7F;stroke-width:0.0px;stroke-linecap:butt;stroke-linejoin:miter;stroke-opacity:1;"/>
<path class="bond-4 atom-4 atom-5" d="M 95.1,455.0 L 108.9,478.9 L 107.2,481.8 L 103.8,481.8 L 91.7,460.9 Z" style="fill:#FF7F7F;fill-rule:evenodd;fill-opacity:1;stroke:#FF7F7F;stroke-width:0.0px;stroke-linecap:butt;stroke-linejoin:miter;stroke-opacity:1;"/>
<path class="bond-5 atom-5 atom-6" d="M 134.8,478.9 L 134.8,484.8 L 108.9,484.8 L 107.2,481.8 L 108.9,478.9 Z" style="fill:#FF7F7F;fill-rule:evenodd;fill-opacity:1;stroke:#FF7F7F;stroke-width:0.0px;stroke-linecap:butt;stroke-linejoin:miter;stroke-opacity:1;"/>
<path class="bond-9 atom-5 atom-10" d="M 103.8,481.8 L 107.2,481.8 L 108.9,484.8 L 95.1,508.7 L 91.7,502.8 Z" style="fill:#FF7F7F;fill-rule:evenodd;fill-opacity:1;stroke:#FF7F7F;stroke-width:0.0px;stroke-linecap:butt;stroke-linejoin:miter;stroke-opacity:1;"/>
<ellipse cx="65.8" cy="505.7" rx="5.5" ry="5.5" class="atom-0" style="fill:#FF7F7F;fill-rule:evenodd;stroke:#FF7F7F;stroke-width:1.0px;stroke-linecap:butt;stroke-linejoin:miter;stroke-opacity:1"/>
<ellipse cx="52.0" cy="481.8" rx="5.5" ry="5.5" class="atom-1" style="fill:#FF7F7F;fill-rule:evenodd;stroke:#FF7F7F;stroke-width:1.0px;stroke-linecap:butt;stroke-linejoin:miter;stroke-opacity:1"/>
<ellipse cx="20.5" cy="481.9" rx="10.5" ry="5.7" class="atom-2" style="fill:#FF7F7F;fill-rule:evenodd;stroke:#FF7F7F;stroke-width:1.0px;stroke-linecap:butt;stroke-linejoin:miter;stroke-opacity:1"/>
<ellipse cx="65.8" cy="457.9" rx="5.5" ry="5.5" class="atom-3" style="fill:#FF7F7F;fill-rule:evenodd;stroke:#FF7F7F;stroke-width:1.0px;stroke-linecap:butt;stroke-linejoin:miter;stroke-opacity:1"/>
<ellipse cx="93.4" cy="457.9" rx="5.5" ry="5.5" class="atom-4" style="fill:#FF7F7F;fill-rule:evenodd;stroke:#FF7F7F;stroke-width:1.0px;stroke-linecap:butt;stroke-linejoin:miter;stroke-opacity:1"/>
<ellipse cx="107.2" cy="481.8" rx="5.5" ry="5.5" class="atom-5" style="fill:#FF7F7F;fill-rule:evenodd;stroke:#FF7F7F;stroke-width:1.0px;stroke-linecap:butt;stroke-linejoin:miter;stroke-opacity:1"/>
<ellipse cx="138.6" cy="481.8" rx="9.6" ry="5.5" class="atom-6" style="fill:#FF7F7F;fill-rule:evenodd;stroke:#FF7F7F;stroke-width:1.0px;stroke-linecap:butt;stroke-linejoin:miter;stroke-opacity:1"/>
<ellipse cx="93.4" cy="505.7" rx="5.5" ry="5.5" class="atom-10" style="fill:#FF7F7F;fill-rule:evenodd;stroke:#FF7F7F;stroke-width:1.0px;stroke-linecap:butt;stroke-linejoin:miter;stroke-opacity:1"/>
<path class="bond-0 atom-0 atom-1" d="M 65.8,505.7 L 52.0,481.8" style="fill:none;fill-rule:evenodd;stroke:#000000;stroke-width:2.0px;stroke-linecap:butt;stroke-linejoin:miter;stroke-opacity:1"/>
<path class="bond-0 atom-0 atom-1" d="M 68.2,501.6 L 56.8,481.8" style="fill:none;fill-rule:evenodd;stroke:#000000;stroke-width:2.0px;stroke-linecap:butt;stroke-linejoin:miter;stroke-opacity:1"/>
<path class="bond-1 atom-1 atom-2" d="M 52.0,481.8 L 40.4,481.8" style="fill:none;fill-rule:evenodd;stroke:#000000;stroke-width:2.0px;stroke-linecap:butt;stroke-linejoin:miter;stroke-opacity:1"/>
<path class="bond-1 atom-1 atom-2" d="M 40.4,481.8 L 28.9,481.8" style="fill:none;fill-rule:evenodd;stroke:#FF0000;stroke-width:2.0px;stroke-linecap:butt;stroke-linejoin:miter;stroke-opacity:1"/>
<path class="bond-2 atom-1 atom-3" d="M 52.0,481.8 L 65.8,457.9" style="fill:none;fill-rule:evenodd;stroke:#000000;stroke-width:2.0px;stroke-linecap:butt;stroke-linejoin:miter;stroke-opacity:1"/>
<path class="bond-3 atom-3 atom-4" d="M 65.8,457.9 L 77.7,457.9" style="fill:none;fill-rule:evenodd;stroke:#000000;stroke-width:2.0px;stroke-linecap:butt;stroke-linejoin:miter;stroke-opacity:1"/>
<path class="bond-3 atom-3 atom-4" d="M 77.7,457.9 L 89.5,457.9" style="fill:none;fill-rule:evenodd;stroke:#0000FF;stroke-width:2.0px;stroke-linecap:butt;stroke-linejoin:miter;stroke-opacity:1"/>
<path class="bond-3 atom-3 atom-4" d="M 68.2,462.0 L 78.9,462.0" style="fill:none;fill-rule:evenodd;stroke:#000000;stroke-width:2.0px;stroke-linecap:butt;stroke-linejoin:miter;stroke-opacity:1"/>
<path class="bond-3 atom-3 atom-4" d="M 78.9,462.0 L 89.5,462.0" style="fill:none;fill-rule:evenodd;stroke:#0000FF;stroke-width:2.0px;stroke-linecap:butt;stroke-linejoin:miter;stroke-opacity:1"/>
<path class="bond-4 atom-4 atom-5" d="M 96.2,462.7 L 101.7,472.3" style="fill:none;fill-rule:evenodd;stroke:#0000FF;stroke-width:2.0px;stroke-linecap:butt;stroke-linejoin:miter;stroke-opacity:1"/>
<path class="bond-4 atom-4 atom-5" d="M 101.7,472.3 L 107.2,481.8" style="fill:none;fill-rule:evenodd;stroke:#000000;stroke-width:2.0px;stroke-linecap:butt;stroke-linejoin:miter;stroke-opacity:1"/>
<path class="bond-5 atom-5 atom-6" d="M 107.2,481.8 L 119.1,481.8" style="fill:none;fill-rule:evenodd;stroke:#000000;stroke-width:2.0px;stroke-linecap:butt;stroke-linejoin:miter;stroke-opacity:1"/>
<path class="bond-5 atom-5 atom-6" d="M 119.1,481.8 L 130.9,481.8" style="fill:none;fill-rule:evenodd;stroke:#0000FF;stroke-width:2.0px;stroke-linecap:butt;stroke-linejoin:miter;stroke-opacity:1"/>
<path class="bond-6 atom-6 atom-7" d="M 137.6,486.6 L 143.1,496.2" style="fill:none;fill-rule:evenodd;stroke:#0000FF;stroke-width:2.0px;stroke-linecap:butt;stroke-linejoin:miter;stroke-opacity:1"/>
<path class="bond-6 atom-6 atom-7" d="M 143.1,496.2 L 148.6,505.7" style="fill:none;fill-rule:evenodd;stroke:#000000;stroke-width:2.0px;stroke-linecap:butt;stroke-linejoin:miter;stroke-opacity:1"/>
<path class="bond-7 atom-7 atom-8" d="M 148.6,505.7 L 176.2,505.7" style="fill:none;fill-rule:evenodd;stroke:#000000;stroke-width:2.0px;stroke-linecap:butt;stroke-linejoin:miter;stroke-opacity:1"/>
<path class="bond-8 atom-8 atom-9" d="M 176.2,505.7 L 190.0,529.6" style="fill:none;fill-rule:evenodd;stroke:#000000;stroke-width:2.0px;stroke-linecap:butt;stroke-linejoin:miter;stroke-opacity:1"/>
<path class="bond-9 atom-5 atom-10" d="M 107.2,481.8 L 93.4,505.7" style="fill:none;fill-rule:evenodd;stroke:#000000;stroke-width:2.0px;stroke-linecap:butt;stroke-linejoin:miter;stroke-opacity:1"/>
<path class="bond-9 atom-5 atom-10" d="M 102.4,481.8 L 91.0,501.6" style="fill:none;fill-rule:evenodd;stroke:#000000;stroke-width:2.0px;stroke-linecap:butt;stroke-linejoin:miter;stroke-opacity:1"/>
<path class="bond-10 atom-10 atom-11" d="M 93.4,505.7 L 107.2,529.6" style="fill:none;fill-rule:evenodd;stroke:#000000;stroke-width:2.0px;stroke-linecap:butt;stroke-linejoin:miter;stroke-opacity:1"/>
<path class="bond-11 atom-10 atom-0" d="M 93.4,505.7 L 65.8,505.7" style="fill:none;fill-rule:evenodd;stroke:#000000;stroke-width:2.0px;stroke-linecap:butt;stroke-linejoin:miter;stroke-opacity:1"/>
<path d="M 65.1,504.5 L 65.8,505.7 L 67.2,505.7" style="fill:none;stroke:#000000;stroke-width:2.0px;stroke-linecap:butt;stroke-linejoin:miter;stroke-opacity:1;"/>
<path d="M 65.1,459.1 L 65.8,457.9 L 66.4,457.9" style="fill:none;stroke:#000000;stroke-width:2.0px;stroke-linecap:butt;stroke-linejoin:miter;stroke-opacity:1;"/>
<path d="M 148.3,505.2 L 148.6,505.7 L 150.0,505.7" style="fill:none;stroke:#000000;stroke-width:2.0px;stroke-linecap:butt;stroke-linejoin:miter;stroke-opacity:1;"/>
<path d="M 174.8,505.7 L 176.2,505.7 L 176.9,506.9" style="fill:none;stroke:#000000;stroke-width:2.0px;stroke-linecap:butt;stroke-linejoin:miter;stroke-opacity:1;"/>
<path class="atom-2" d="M 13.1 477.9 L 14.1 477.9 L 14.1 481.3 L 18.1 481.3 L 18.1 477.9 L 19.2 477.9 L 19.2 485.8 L 18.1 485.8 L 18.1 482.2 L 14.1 482.2 L 14.1 485.8 L 13.1 485.8 L 13.1 477.9 " fill="#FF0000"/>
<path class="atom-2" d="M 20.8 481.8 Q 20.8 480.0, 21.7 478.9 Q 22.7 477.9, 24.4 477.9 Q 26.1 477.9, 27.1 478.9 Q 28.0 480.0, 28.0 481.8 Q 28.0 483.7, 27.0 484.8 Q 26.1 485.9, 24.4 485.9 Q 22.7 485.9, 21.7 484.8 Q 20.8 483.7, 20.8 481.8 M 24.4 485.0 Q 25.6 485.0, 26.2 484.2 Q 26.9 483.4, 26.9 481.8 Q 26.9 480.3, 26.2 479.5 Q 25.6 478.7, 24.4 478.7 Q 23.2 478.7, 22.5 479.5 Q 21.9 480.3, 21.9 481.8 Q 21.9 483.4, 22.5 484.2 Q 23.2 485.0, 24.4 485.0 " fill="#FF0000"/>
<path class="atom-4" d="M 91.7 454.0 L 94.2 458.1 Q 94.5 458.5, 94.9 459.3 Q 95.3 460.0, 95.3 460.1 L 95.3 454.0 L 96.4 454.0 L 96.4 461.8 L 95.3 461.8 L 92.5 457.3 Q 92.2 456.8, 91.9 456.2 Q 91.5 455.5, 91.4 455.4 L 91.4 461.8 L 90.4 461.8 L 90.4 454.0 L 91.7 454.0 " fill="#0000FF"/>
<path class="atom-6" d="M 133.1 477.9 L 135.6 482.0 Q 135.9 482.5, 136.3 483.2 Q 136.7 483.9, 136.7 484.0 L 136.7 477.9 L 137.8 477.9 L 137.8 485.7 L 136.7 485.7 L 133.9 481.2 Q 133.6 480.7, 133.3 480.1 Q 132.9 479.4, 132.8 479.3 L 132.8 485.7 L 131.8 485.7 L 131.8 477.9 L 133.1 477.9 " fill="#0000FF"/>
<path class="atom-6" d="M 139.3 477.9 L 140.3 477.9 L 140.3 481.2 L 144.3 481.2 L 144.3 477.9 L 145.4 477.9 L 145.4 485.7 L 144.3 485.7 L 144.3 482.1 L 140.3 482.1 L 140.3 485.7 L 139.3 485.7 L 139.3 477.9 " fill="#0000FF"/>
<path class="legend" d="M 46.8 583.8 Q 46.8 582.5, 47.9 581.8 Q 48.9 581.1, 50.8 581.1 L 52.1 581.1 L 52.1 580.8 Q 52.1 579.7, 51.6 579.3 Q 51.2 578.9, 50.2 578.9 Q 49.5 578.9, 49.0 579.0 Q 48.5 579.1, 47.7 579.5 L 47.3 578.4 Q 48.8 577.7, 50.2 577.7 Q 52.0 577.7, 52.8 578.4 Q 53.6 579.2, 53.6 580.8 L 53.6 586.1 L 52.4 586.1 Q 52.4 586.0, 52.3 585.8 Q 52.3 585.5, 52.2 585.1 Q 51.0 586.3, 49.5 586.3 Q 48.3 586.3, 47.5 585.6 Q 46.8 584.9, 46.8 583.8 M 48.3 583.8 Q 48.3 584.4, 48.7 584.8 Q 49.1 585.1, 49.8 585.1 Q 50.4 585.1, 51.0 584.8 Q 51.6 584.5, 52.1 584.0 L 52.1 582.2 L 50.9 582.2 Q 49.6 582.2, 49.0 582.6 Q 48.3 583.0, 48.3 583.8 " fill="#000000"/>
<path class="legend" d="M 55.3 573.9 L 56.8 573.9 L 56.8 586.1 L 55.3 586.1 L 55.3 573.9 " fill="#000000"/>
<path class="legend" d="M 58.7 586.1 L 58.7 573.9 L 60.2 573.9 L 60.2 586.1 L 58.7 586.1 M 62.2 581.3 L 65.7 586.1 L 63.9 586.1 L 60.5 581.4 L 63.4 577.8 L 65.1 577.8 L 62.2 581.3 " fill="#000000"/>
<path class="legend" d="M 72.6 577.8 L 74.1 577.8 L 69.8 590.0 L 68.5 590.0 L 69.8 586.1 L 69.2 586.1 L 66.3 577.8 L 67.8 577.8 L 70.2 584.8 L 72.6 577.8 " fill="#000000"/>
<path class="legend" d="M 74.7 573.9 L 76.2 573.9 L 76.2 586.1 L 74.7 586.1 L 74.7 573.9 " fill="#000000"/>
<path class="legend" d="" fill="#000000"/>
<path class="legend" d="M 84.0 581.9 Q 84.0 579.9, 85.0 578.8 Q 86.0 577.7, 87.9 577.7 Q 89.8 577.7, 90.8 578.8 Q 91.8 579.9, 91.8 581.9 Q 91.8 583.9, 90.8 585.1 Q 89.8 586.2, 87.9 586.2 Q 86.0 586.2, 85.0 585.1 Q 84.0 583.9, 84.0 581.9 M 85.5 581.9 Q 85.5 583.4, 86.1 584.2 Q 86.8 585.0, 87.9 585.0 Q 89.0 585.0, 89.6 584.2 Q 90.3 583.4, 90.3 581.9 Q 90.3 580.4, 89.6 579.7 Q 89.0 578.9, 87.9 578.9 Q 86.8 578.9, 86.1 579.7 Q 85.5 580.4, 85.5 581.9 " fill="#000000"/>
<path class="legend" d="M 93.1 579.0 L 93.1 577.8 L 94.5 577.8 L 94.5 576.6 Q 94.5 575.2, 95.2 574.6 Q 96.0 573.9, 97.1 573.9 Q 97.7 573.9, 98.1 574.0 Q 98.6 574.1, 99.1 574.3 L 98.6 575.4 Q 97.9 575.1, 97.3 575.1 Q 96.7 575.1, 96.3 575.5 Q 96.0 575.8, 96.0 576.5 L 96.0 577.8 L 98.5 577.8 L 98.5 579.0 L 96.0 579.0 L 96.0 588.6 L 94.5 588.6 L 94.5 579.0 L 93.1 579.0 " fill="#000000"/>
<path class="legend" d="M 99.2 579.0 L 99.2 577.8 L 100.6 577.8 L 100.6 576.6 Q 100.6 575.2, 101.4 574.6 Q 102.1 573.9, 103.3 573.9 Q 103.8 573.9, 104.3 574.0 Q 104.7 574.1, 105.2 574.3 L 104.8 575.4 Q 104.0 575.1, 103.4 575.1 Q 102.8 575.1, 102.5 575.5 Q 102.1 575.8, 102.1 576.5 L 102.1 577.8 L 104.7 577.8 L 104.7 579.0 L 102.1 579.0 L 102.1 588.6 L 100.6 588.6 L 100.6 579.0 L 99.2 579.0 " fill="#000000"/>
<path class="legend" d="" fill="#000000"/>
<path class="legend" d="M 111.2 583.8 Q 111.2 582.5, 112.3 581.8 Q 113.3 581.1, 115.3 581.1 L 116.5 581.1 L 116.5 580.8 Q 116.5 579.7, 116.0 579.3 Q 115.6 578.9, 114.6 578.9 Q 113.9 578.9, 113.4 579.0 Q 112.9 579.1, 112.1 579.5 L 111.7 578.4 Q 113.2 577.7, 114.6 577.7 Q 116.4 577.7, 117.2 578.4 Q 118.0 579.2, 118.0 580.8 L 118.0 586.1 L 116.8 586.1 Q 116.8 586.0, 116.7 585.8 Q 116.7 585.5, 116.6 585.1 Q 115.4 586.3, 113.9 586.3 Q 112.7 586.3, 111.9 585.6 Q 111.2 584.9, 111.2 583.8 M 112.7 583.8 Q 112.7 584.4, 113.1 584.8 Q 113.5 585.1, 114.2 585.1 Q 114.8 585.1, 115.4 584.8 Q 116.1 584.5, 116.5 584.0 L 116.5 582.2 L 115.3 582.2 Q 114.0 582.2, 113.4 582.6 Q 112.7 583.0, 112.7 583.8 " fill="#000000"/>
<path class="legend" d="M 129.2 577.7 Q 130.6 577.7, 131.3 578.4 Q 132.0 579.2, 132.0 580.6 L 132.0 586.1 L 130.5 586.1 L 130.5 580.7 Q 130.5 579.8, 130.1 579.3 Q 129.8 578.9, 128.9 578.9 Q 128.2 578.9, 127.6 579.2 Q 127.0 579.6, 126.6 580.2 Q 126.6 580.3, 126.6 580.6 L 126.6 586.1 L 125.1 586.1 L 125.1 580.7 Q 125.1 579.8, 124.8 579.3 Q 124.4 578.9, 123.6 578.9 Q 122.8 578.9, 122.2 579.2 Q 121.6 579.6, 121.2 580.2 L 121.2 586.1 L 119.7 586.1 L 119.7 577.8 L 121.0 577.8 L 121.1 579.0 Q 122.2 577.7, 123.8 577.7 Q 125.8 577.7, 126.4 579.1 Q 127.5 577.7, 129.2 577.7 " fill="#000000"/>
<path class="legend" d="M 133.8 574.7 L 135.3 574.7 L 135.3 576.1 L 133.8 576.1 L 133.8 574.7 M 133.8 577.8 L 135.3 577.8 L 135.3 586.1 L 133.8 586.1 L 133.8 577.8 " fill="#000000"/>
<path class="legend" d="M 141.5 577.7 Q 142.8 577.7, 143.5 578.4 Q 144.2 579.2, 144.2 580.6 L 144.2 586.1 L 142.7 586.1 L 142.7 580.7 Q 142.7 579.8, 142.3 579.3 Q 141.9 578.9, 141.1 578.9 Q 140.3 578.9, 139.7 579.2 Q 139.1 579.6, 138.7 580.2 L 138.7 586.1 L 137.2 586.1 L 137.2 577.8 L 138.4 577.8 L 138.6 579.0 Q 139.7 577.7, 141.5 577.7 " fill="#000000"/>
<path class="legend" d="M 145.9 581.9 Q 145.9 579.9, 146.9 578.8 Q 147.9 577.7, 149.8 577.7 Q 151.6 577.7, 152.4 578.8 Q 153.2 579.9, 153.2 581.9 L 153.2 582.1 L 147.5 582.1 Q 147.5 583.5, 148.1 584.3 Q 148.7 585.0, 149.9 585.0 Q 150.5 585.0, 151.1 584.9 Q 151.7 584.7, 152.5 584.4 L 152.9 585.4 Q 152.1 585.8, 151.3 586.0 Q 150.6 586.2, 149.8 586.2 Q 148.0 586.2, 146.9 585.1 Q 145.9 584.0, 145.9 581.9 M 149.8 578.9 Q 148.8 578.9, 148.3 579.4 Q 147.7 580.0, 147.5 581.0 L 151.6 581.0 Q 151.5 579.9, 151.1 579.4 Q 150.6 578.9, 149.8 578.9 " fill="#000000"/>
<path class="bond-0 atom-0 atom-1" d="M 267.3,492.3 L 278.6,487.5" style="fill:none;fill-rule:evenodd;stroke:#191919;stroke-width:2.0px;stroke-linecap:butt;stroke-linejoin:miter;stroke-opacity:1"/>
<path class="bond-0 atom-0 atom-1" d="M 278.6,487.5 L 289.9,482.7" style="fill:none;fill-rule:evenodd;stroke:#000000;stroke-width:2.0px;stroke-linecap:butt;stroke-linejoin:miter;stroke-opacity:1"/>
<path class="bond-1 atom-1 atom-2" d="M 289.9,482.7 L 312.0,499.3" style="fill:none;fill-rule:evenodd;stroke:#000000;stroke-width:2.0px;stroke-linecap:butt;stroke-linejoin:miter;stroke-opacity:1"/>
<path class="bond-2 atom-2 atom-3" d="M 312.0,499.3 L 337.4,488.5" style="fill:none;fill-rule:evenodd;stroke:#000000;stroke-width:2.0px;stroke-linecap:butt;stroke-linejoin:miter;stroke-opacity:1"/>
<path d="M 289.3,482.9 L 289.9,482.7 L 291.0,483.5" style="fill:none;stroke:#000000;stroke-width:2.0px;stroke-linecap:butt;stroke-linejoin:miter;stroke-opacity:1;"/>
<path d="M 310.9,498.5 L 312.0,499.3 L 313.2,498.8" style="fill:none;stroke:#000000;stroke-width:2.0px;stroke-linecap:butt;stroke-linejoin:miter;stroke-opacity:1;"/>
<path class="atom-0" d="M 263.0 492.6 L 264.2 491.5 L 262.6 491.2 L 262.9 490.4 L 264.3 491.1 L 264.1 489.5 L 264.9 489.5 L 264.7 491.1 L 266.1 490.4 L 266.3 491.2 L 264.8 491.4 L 265.9 492.6 L 265.2 493.1 L 264.5 491.7 L 263.7 493.1 L 263.0 492.6 " fill="#191919"/>
<path class="legend" d="M 272.4 574.5 L 275.8 574.5 L 275.8 575.7 L 273.8 575.7 L 273.8 588.8 L 275.8 588.8 L 275.8 590.0 L 272.4 590.0 L 272.4 574.5 " fill="#000000"/>
<path class="legend" d="M 281.0 587.0 Q 278.9 587.0, 277.8 585.5 Q 276.8 584.0, 276.8 581.2 Q 276.8 578.5, 277.8 577.0 Q 278.9 575.5, 281.0 575.5 Q 283.1 575.5, 284.1 577.0 Q 285.1 578.5, 285.1 581.2 Q 285.1 584.0, 284.1 585.5 Q 283.0 587.0, 281.0 587.0 M 281.0 585.8 Q 282.2 585.8, 282.9 584.6 Q 283.5 583.5, 283.5 581.2 Q 283.5 579.0, 282.9 577.9 Q 282.2 576.7, 281.0 576.7 Q 279.7 576.7, 279.1 577.9 Q 278.4 579.0, 278.4 581.2 Q 278.4 583.5, 279.1 584.6 Q 279.7 585.8, 281.0 585.8 " fill="#000000"/>
<path class="legend" d="M 287.4 579.9 L 289.0 578.2 L 286.8 577.7 L 287.1 576.6 L 289.2 577.6 L 288.9 575.4 L 290.1 575.4 L 289.8 577.6 L 291.8 576.7 L 292.2 577.7 L 289.9 578.2 L 291.5 579.9 L 290.6 580.6 L 289.5 578.5 L 288.3 580.6 L 287.4 579.9 " fill="#000000"/>
<path class="legend" d="M 296.7 574.5 L 296.7 590.0 L 293.3 590.0 L 293.3 588.8 L 295.4 588.8 L 295.4 575.7 L 293.3 575.7 L 293.3 574.5 L 296.7 574.5 " fill="#000000"/>
<path class="legend" d="M 298.8 581.2 Q 298.8 578.4, 300.1 576.9 Q 301.4 575.5, 303.9 575.5 Q 306.2 575.5, 307.5 577.1 L 306.4 578.0 Q 305.5 576.8, 303.9 576.8 Q 302.2 576.8, 301.3 577.9 Q 300.4 579.1, 300.4 581.2 Q 300.4 583.5, 301.3 584.6 Q 302.3 585.8, 304.1 585.8 Q 305.3 585.8, 306.8 585.0 L 307.2 586.2 Q 306.6 586.6, 305.7 586.8 Q 304.9 587.1, 303.9 587.1 Q 301.4 587.1, 300.1 585.6 Q 298.8 584.0, 298.8 581.2 " fill="#000000"/>
<path class="legend" d="M 308.8 581.2 Q 308.8 578.4, 310.1 576.9 Q 311.4 575.5, 313.9 575.5 Q 316.3 575.5, 317.5 577.1 L 316.5 578.0 Q 315.6 576.8, 313.9 576.8 Q 312.2 576.8, 311.3 577.9 Q 310.4 579.1, 310.4 581.2 Q 310.4 583.5, 311.4 584.6 Q 312.3 585.8, 314.1 585.8 Q 315.4 585.8, 316.8 585.0 L 317.3 586.2 Q 316.7 586.6, 315.8 586.8 Q 314.9 587.1, 313.9 587.1 Q 311.4 587.1, 310.1 585.6 Q 308.8 584.0, 308.8 581.2 " fill="#000000"/>
<path class="legend" d="M 318.8 581.2 Q 318.8 578.4, 320.2 576.9 Q 321.5 575.5, 324.0 575.5 Q 326.3 575.5, 327.6 577.1 L 326.5 578.0 Q 325.6 576.8, 324.0 576.8 Q 322.3 576.8, 321.4 577.9 Q 320.5 579.1, 320.5 581.2 Q 320.5 583.5, 321.4 584.6 Q 322.3 585.8, 324.2 585.8 Q 325.4 585.8, 326.9 585.0 L 327.3 586.2 Q 326.7 586.6, 325.8 586.8 Q 324.9 587.1, 323.9 587.1 Q 321.5 587.1, 320.2 585.6 Q 318.8 584.0, 318.8 581.2 " fill="#000000"/>
<path class="bond-0 atom-0 atom-1" d="M 492.1,491.9 L 504.5,491.9" style="fill:none;fill-rule:evenodd;stroke:#191919;stroke-width:2.0px;stroke-linecap:butt;stroke-linejoin:miter;stroke-opacity:1"/>
<path class="bond-0 atom-0 atom-1" d="M 504.5,491.9 L 516.9,491.9" style="fill:none;fill-rule:evenodd;stroke:#000000;stroke-width:2.0px;stroke-linecap:butt;stroke-linejoin:miter;stroke-opacity:1"/>
<path class="atom-0" d="M 483.1 489.9 Q 483.3 489.4, 483.7 489.1 Q 484.2 488.9, 484.8 488.9 Q 485.6 488.9, 486.0 489.3 Q 486.5 489.7, 486.5 490.5 Q 486.5 491.2, 485.9 491.9 Q 485.4 492.7, 484.2 493.5 L 486.6 493.5 L 486.6 494.1 L 483.1 494.1 L 483.1 493.6 Q 484.1 492.9, 484.6 492.4 Q 485.2 491.9, 485.5 491.4 Q 485.8 491.0, 485.8 490.5 Q 485.8 490.0, 485.5 489.7 Q 485.3 489.4, 484.8 489.4 Q 484.4 489.4, 484.1 489.6 Q 483.9 489.8, 483.7 490.2 L 483.1 489.9 " fill="#191919"/>
<path class="atom-0" d="M 487.8 491.0 L 489.0 489.9 L 487.5 489.5 L 487.7 488.8 L 489.1 489.5 L 488.9 487.9 L 489.7 487.9 L 489.5 489.5 L 490.9 488.8 L 491.2 489.5 L 489.6 489.8 L 490.7 491.0 L 490.0 491.5 L 489.3 490.0 L 488.5 491.5 L 487.8 491.0 " fill="#191919"/>
<path class="legend" d="M 483.0 574.5 L 486.4 574.5 L 486.4 575.7 L 484.4 575.7 L 484.4 588.8 L 486.4 588.8 L 486.4 590.0 L 483.0 590.0 L 483.0 574.5 " fill="#000000"/>
<path class="legend" d="M 487.4 577.7 Q 487.8 576.7, 488.8 576.1 Q 489.8 575.5, 491.1 575.5 Q 492.8 575.5, 493.8 576.4 Q 494.8 577.3, 494.8 579.0 Q 494.8 580.6, 493.5 582.2 Q 492.3 583.8, 489.7 585.6 L 495.0 585.6 L 495.0 586.9 L 487.3 586.9 L 487.3 585.8 Q 489.4 584.3, 490.7 583.2 Q 491.9 582.1, 492.6 581.1 Q 493.2 580.1, 493.2 579.0 Q 493.2 578.0, 492.6 577.3 Q 492.1 576.7, 491.1 576.7 Q 490.2 576.7, 489.6 577.1 Q 489.0 577.5, 488.6 578.3 L 487.4 577.7 " fill="#000000"/>
<path class="legend" d="M 497.0 579.9 L 498.7 578.2 L 496.5 577.7 L 496.8 576.6 L 498.9 577.6 L 498.6 575.4 L 499.8 575.4 L 499.4 577.6 L 501.5 576.7 L 501.8 577.7 L 499.6 578.2 L 501.2 579.9 L 500.2 580.6 L 499.1 578.5 L 498.0 580.6 L 497.0 579.9 " fill="#000000"/>
<path class="legend" d="M 506.3 574.5 L 506.3 590.0 L 502.9 590.0 L 502.9 588.8 L 505.0 588.8 L 505.0 575.7 L 502.9 575.7 L 502.9 574.5 L 506.3 574.5 " fill="#000000"/>
<path class="legend" d="M 508.2 581.2 Q 508.2 578.4, 509.5 576.9 Q 510.9 575.5, 513.4 575.5 Q 515.7 575.5, 517.0 577.1 L 515.9 578.0 Q 515.0 576.8, 513.4 576.8 Q 511.7 576.8, 510.8 577.9 Q 509.9 579.1, 509.9 581.2 Q 509.9 583.5, 510.8 584.6 Q 511.7 585.8, 513.6 585.8 Q 514.8 585.8, 516.3 585.0 L 516.7 586.2 Q 516.1 586.6, 515.2 586.8 Q 514.3 587.1, 513.3 587.1 Q 510.9 587.1, 509.5 585.6 Q 508.2 584.0, 508.2 581.2 " fill="#000000"/>
</svg>