<svg xmlns="http://www.w3.org/2000/svg" xmlns:rdkit="http://www.rdkit.org/xml" xmlns:xlink="http://www.w3.org/1999/xlink" version="1.1" baseProfile="full" xml:space="preserve" width="750px" height="750px" viewBox="0 0 750 750">
<!-- END OF HEADER -->
<rect style="opacity:1.0;fill:#FFFFFF;stroke:none" width="250.0" height="250.0" x="0.0" y="0.0"> </rect>
<path class="bond-0 atom-0 atom-1" d="M 174.8,104.5 L 145.1,141.6" style="fill:none;fill-rule:evenodd;stroke:#000000;stroke-width:2.0px;stroke-linecap:butt;stroke-linejoin:miter;stroke-opacity:1"/>
<path class="bond-0 atom-0 atom-1" d="M 166.7,103.2 L 142.1,133.9" style="fill:none;fill-rule:evenodd;stroke:#000000;stroke-width:2.0px;stroke-linecap:butt;stroke-linejoin:miter;stroke-opacity:1"/>
<path class="bond-1 atom-1 atom-2" d="M 145.1,141.6 L 98.0,134.3" style="fill:none;fill-rule:evenodd;stroke:#000000;stroke-width:2.0px;stroke-linecap:butt;stroke-linejoin:miter;stroke-opacity:1"/>
<path class="bond-2 atom-2 atom-3" d="M 98.0,134.3 L 80.8,90.0" style="fill:none;fill-rule:evenodd;stroke:#000000;stroke-width:2.0px;stroke-linecap:butt;stroke-linejoin:miter;stroke-opacity:1"/>
<path class="bond-2 atom-2 atom-3" d="M 103.2,127.9 L 89.0,91.2" style="fill:none;fill-rule:evenodd;stroke:#000000;stroke-width:2.0px;stroke-linecap:butt;stroke-linejoin:miter;stroke-opacity:1"/>
<path class="bond-3 atom-3 atom-4" d="M 80.8,90.0 L 62.5,91.0" style="fill:none;fill-rule:evenodd;stroke:#000000;stroke-width:2.0px;stroke-linecap:butt;stroke-linejoin:miter;stroke-opacity:1"/>
<path class="bond-3 atom-3 atom-4" d="M 62.5,91.0 L 44.1,92.1" style="fill:none;fill-rule:evenodd;stroke:#FF0000;stroke-width:2.0px;stroke-linecap:butt;stroke-linejoin:miter;stroke-opacity:1"/>
<path class="bond-4 atom-4 atom-5" d="M 30.1,104.8 L 25.6,121.8" style="fill:none;fill-rule:evenodd;stroke:#FF0000;stroke-width:2.0px;stroke-linecap:butt;stroke-linejoin:miter;stroke-opacity:1"/>
<path class="bond-4 atom-4 atom-5" d="M 25.6,121.8 L 21.1,138.7" style="fill:none;fill-rule:evenodd;stroke:#000000;stroke-width:2.0px;stroke-linecap:butt;stroke-linejoin:miter;stroke-opacity:1"/>
<path class="bond-5 atom-5 atom-6" d="M 21.1,138.7 L 35.7,148.1" style="fill:none;fill-rule:evenodd;stroke:#000000;stroke-width:2.0px;stroke-linecap:butt;stroke-linejoin:miter;stroke-opacity:1"/>
<path class="bond-5 atom-5 atom-6" d="M 35.7,148.1 L 50.3,157.5" style="fill:none;fill-rule:evenodd;stroke:#FF0000;stroke-width:2.0px;stroke-linecap:butt;stroke-linejoin:miter;stroke-opacity:1"/>
<path class="bond-6 atom-3 atom-7" d="M 80.8,90.0 L 110.5,52.9" style="fill:none;fill-rule:evenodd;stroke:#000000;stroke-width:2.0px;stroke-linecap:butt;stroke-linejoin:miter;stroke-opacity:1"/>
<path class="bond-7 atom-7 atom-8" d="M 110.5,52.9 L 157.7,60.1" style="fill:none;fill-rule:evenodd;stroke:#000000;stroke-width:2.0px;stroke-linecap:butt;stroke-linejoin:miter;stroke-opacity:1"/>
<path class="bond-7 atom-7 atom-8" d="M 113.5,60.6 L 152.5,66.5" style="fill:none;fill-rule:evenodd;stroke:#000000;stroke-width:2.0px;stroke-linecap:butt;stroke-linejoin:miter;stroke-opacity:1"/>
<path class="bond-8 atom-8 atom-0" d="M 157.7,60.1 L 174.8,104.5" style="fill:none;fill-rule:evenodd;stroke:#000000;stroke-width:2.0px;stroke-linecap:butt;stroke-linejoin:miter;stroke-opacity:1"/>
<path class="bond-9 atom-6 atom-2" d="M 72.0,155.6 L 85.0,145.0" style="fill:none;fill-rule:evenodd;stroke:#FF0000;stroke-width:2.0px;stroke-linecap:butt;stroke-linejoin:miter;stroke-opacity:1"/>
<path class="bond-9 atom-6 atom-2" d="M 85.0,145.0 L 98.0,134.3" style="fill:none;fill-rule:evenodd;stroke:#000000;stroke-width:2.0px;stroke-linecap:butt;stroke-linejoin:miter;stroke-opacity:1"/>
<path class="bond-10 atom-9 atom-0" d="M 213.4,110.4 L 194.1,107.4" style="fill:none;fill-rule:evenodd;stroke:#191919;stroke-width:2.0px;stroke-linecap:butt;stroke-linejoin:miter;stroke-opacity:1"/>
<path class="bond-10 atom-9 atom-0" d="M 194.1,107.4 L 174.8,104.5" style="fill:none;fill-rule:evenodd;stroke:#000000;stroke-width:2.0px;stroke-linecap:butt;stroke-linejoin:miter;stroke-opacity:1"/>
<path d="M 146.6,139.8 L 145.1,141.6 L 142.8,141.3" style="fill:none;stroke:#000000;stroke-width:2.0px;stroke-linecap:butt;stroke-linejoin:miter;stroke-opacity:1;"/>
<path d="M 21.4,137.9 L 21.1,138.7 L 21.9,139.2" style="fill:none;stroke:#000000;stroke-width:2.0px;stroke-linecap:butt;stroke-linejoin:miter;stroke-opacity:1;"/>
<path d="M 109.1,54.8 L 110.5,52.9 L 112.9,53.3" style="fill:none;stroke:#000000;stroke-width:2.0px;stroke-linecap:butt;stroke-linejoin:miter;stroke-opacity:1;"/>
<path d="M 155.3,59.7 L 157.7,60.1 L 158.5,62.3" style="fill:none;stroke:#000000;stroke-width:2.0px;stroke-linecap:butt;stroke-linejoin:miter;stroke-opacity:1;"/>
<path class="atom-4" d="M 24.0 92.8 Q 24.0 87.9, 26.4 85.2 Q 28.8 82.5, 33.3 82.5 Q 37.7 82.5, 40.1 85.2 Q 42.5 87.9, 42.5 92.8 Q 42.5 97.7, 40.1 100.5 Q 37.7 103.3, 33.3 103.3 Q 28.8 103.3, 26.4 100.5 Q 24.0 97.7, 24.0 92.8 M 33.3 101.0 Q 36.3 101.0, 38.0 98.9 Q 39.7 96.8, 39.7 92.8 Q 39.7 88.8, 38.0 86.8 Q 36.3 84.8, 33.3 84.8 Q 30.2 84.8, 28.5 86.8 Q 26.8 88.8, 26.8 92.8 Q 26.8 96.9, 28.5 98.9 Q 30.2 101.0, 33.3 101.0 " fill="#FF0000"/>
<path class="atom-6" d="M 51.9 164.6 Q 51.9 159.7, 54.3 157.0 Q 56.7 154.3, 61.2 154.3 Q 65.6 154.3, 68.0 157.0 Q 70.4 159.7, 70.4 164.6 Q 70.4 169.5, 68.0 172.3 Q 65.6 175.1, 61.2 175.1 Q 56.7 175.1, 54.3 172.3 Q 51.9 169.5, 51.9 164.6 M 61.2 172.8 Q 64.2 172.8, 65.9 170.7 Q 67.6 168.6, 67.6 164.6 Q 67.6 160.6, 65.9 158.6 Q 64.2 156.6, 61.2 156.6 Q 58.1 156.6, 56.4 158.6 Q 54.7 160.6, 54.7 164.6 Q 54.7 168.7, 56.4 170.7 Q 58.1 172.8, 61.2 172.8 " fill="#FF0000"/>
<path class="atom-9" d="M 225.9 121.9 L 221.0 113.5 L 220.9 113.5 L 217.7 113.5 L 217.7 121.9 L 214.9 121.9 L 214.9 101.6 L 220.9 101.6 Q 224.4 101.6, 226.1 103.2 Q 227.9 104.8, 227.9 107.6 Q 227.9 109.7, 226.8 111.2 Q 225.8 112.6, 223.7 113.2 L 228.9 121.9 L 225.9 121.9 M 217.7 111.3 L 220.9 111.3 Q 222.9 111.3, 223.9 110.3 Q 225.0 109.4, 225.0 107.6 Q 225.0 105.8, 223.9 104.9 Q 222.9 103.9, 220.9 103.9 L 217.7 103.9 L 217.7 111.3 " fill="#191919"/>
<path class="legend" d="M 108.5 223.2 L 110.4 223.2 L 110.4 235.7 L 116.9 235.7 L 116.9 237.3 L 108.5 237.3 L 108.5 223.2 " fill="#000000"/>
<path class="legend" d="M 118.5 225.9 Q 119.0 224.5, 120.2 223.8 Q 121.5 223.0, 123.2 223.0 Q 125.3 223.0, 126.5 224.2 Q 127.7 225.3, 127.7 227.4 Q 127.7 229.5, 126.2 231.5 Q 124.6 233.4, 121.4 235.7 L 128.0 235.7 L 128.0 237.3 L 118.4 237.3 L 118.4 236.0 Q 121.1 234.1, 122.6 232.7 Q 124.2 231.3, 125.0 230.1 Q 125.7 228.8, 125.7 227.5 Q 125.7 226.1, 125.0 225.4 Q 124.4 224.6, 123.2 224.6 Q 122.0 224.6, 121.3 225.1 Q 120.5 225.5, 120.0 226.6 L 118.5 225.9 " fill="#000000"/>
<path class="legend" d="M 135.3 237.5 Q 132.7 237.5, 131.4 235.6 Q 130.1 233.7, 130.1 230.2 Q 130.1 226.8, 131.4 224.9 Q 132.7 223.0, 135.3 223.0 Q 137.9 223.0, 139.2 224.9 Q 140.5 226.8, 140.5 230.2 Q 140.5 233.7, 139.2 235.6 Q 137.9 237.5, 135.3 237.5 M 135.3 235.9 Q 136.8 235.9, 137.6 234.5 Q 138.5 233.0, 138.5 230.2 Q 138.5 227.5, 137.6 226.0 Q 136.8 224.6, 135.3 224.6 Q 133.8 224.6, 132.9 226.0 Q 132.1 227.5, 132.1 230.2 Q 132.1 233.0, 132.9 234.5 Q 133.8 235.9, 135.3 235.9 " fill="#000000"/>
<path class="bond-0 atom-0 atom-1" d="M 683.4,101.0 L 653.7,138.1" style="fill:none;fill-rule:evenodd;stroke:#000000;stroke-width:2.0px;stroke-linecap:butt;stroke-linejoin:miter;stroke-opacity:1"/>
<path class="bond-0 atom-0 atom-1" d="M 675.3,99.8 L 650.7,130.4" style="fill:none;fill-rule:evenodd;stroke:#000000;stroke-width:2.0px;stroke-linecap:butt;stroke-linejoin:miter;stroke-opacity:1"/>
<path class="bond-1 atom-1 atom-2" d="M 653.7,138.1 L 606.6,130.9" style="fill:none;fill-rule:evenodd;stroke:#000000;stroke-width:2.0px;stroke-linecap:butt;stroke-linejoin:miter;stroke-opacity:1"/>
<path class="bond-2 atom-2 atom-3" d="M 606.6,130.9 L 589.4,86.5" style="fill:none;fill-rule:evenodd;stroke:#000000;stroke-width:2.0px;stroke-linecap:butt;stroke-linejoin:miter;stroke-opacity:1"/>
<path class="bond-2 atom-2 atom-3" d="M 611.8,124.5 L 597.5,87.8" style="fill:none;fill-rule:evenodd;stroke:#000000;stroke-width:2.0px;stroke-linecap:butt;stroke-linejoin:miter;stroke-opacity:1"/>
<path class="bond-3 atom-3 atom-4" d="M 589.4,86.5 L 571.3,83.8" style="fill:none;fill-rule:evenodd;stroke:#000000;stroke-width:2.0px;stroke-linecap:butt;stroke-linejoin:miter;stroke-opacity:1"/>
<path class="bond-3 atom-3 atom-4" d="M 571.3,83.8 L 553.2,81.0" style="fill:none;fill-rule:evenodd;stroke:#FF0000;stroke-width:2.0px;stroke-linecap:butt;stroke-linejoin:miter;stroke-opacity:1"/>
<path class="bond-4 atom-4 atom-5" d="M 532.6,91.5 L 522.6,103.9" style="fill:none;fill-rule:evenodd;stroke:#FF0000;stroke-width:2.0px;stroke-linecap:butt;stroke-linejoin:miter;stroke-opacity:1"/>
<path class="bond-4 atom-4 atom-5" d="M 522.6,103.9 L 512.6,116.4" style="fill:none;fill-rule:evenodd;stroke:#000000;stroke-width:2.0px;stroke-linecap:butt;stroke-linejoin:miter;stroke-opacity:1"/>
<path class="bond-5 atom-5 atom-6" d="M 512.6,116.4 L 529.7,160.8" style="fill:none;fill-rule:evenodd;stroke:#000000;stroke-width:2.0px;stroke-linecap:butt;stroke-linejoin:miter;stroke-opacity:1"/>
<path class="bond-6 atom-6 atom-7" d="M 529.7,160.8 L 547.9,163.6" style="fill:none;fill-rule:evenodd;stroke:#000000;stroke-width:2.0px;stroke-linecap:butt;stroke-linejoin:miter;stroke-opacity:1"/>
<path class="bond-6 atom-6 atom-7" d="M 547.9,163.6 L 566.0,166.4" style="fill:none;fill-rule:evenodd;stroke:#FF0000;stroke-width:2.0px;stroke-linecap:butt;stroke-linejoin:miter;stroke-opacity:1"/>
<path class="bond-7 atom-3 atom-8" d="M 589.4,86.5 L 619.1,49.5" style="fill:none;fill-rule:evenodd;stroke:#000000;stroke-width:2.0px;stroke-linecap:butt;stroke-linejoin:miter;stroke-opacity:1"/>
<path class="bond-8 atom-8 atom-9" d="M 619.1,49.5 L 666.2,56.6" style="fill:none;fill-rule:evenodd;stroke:#000000;stroke-width:2.0px;stroke-linecap:butt;stroke-linejoin:miter;stroke-opacity:1"/>
<path class="bond-8 atom-8 atom-9" d="M 622.1,57.1 L 661.1,63.0" style="fill:none;fill-rule:evenodd;stroke:#000000;stroke-width:2.0px;stroke-linecap:butt;stroke-linejoin:miter;stroke-opacity:1"/>
<path class="bond-9 atom-9 atom-0" d="M 666.2,56.6 L 683.4,101.0" style="fill:none;fill-rule:evenodd;stroke:#000000;stroke-width:2.0px;stroke-linecap:butt;stroke-linejoin:miter;stroke-opacity:1"/>
<path class="bond-10 atom-7 atom-2" d="M 586.3,156.2 L 596.4,143.6" style="fill:none;fill-rule:evenodd;stroke:#FF0000;stroke-width:2.0px;stroke-linecap:butt;stroke-linejoin:miter;stroke-opacity:1"/>
<path class="bond-10 atom-7 atom-2" d="M 596.4,143.6 L 606.6,130.9" style="fill:none;fill-rule:evenodd;stroke:#000000;stroke-width:2.0px;stroke-linecap:butt;stroke-linejoin:miter;stroke-opacity:1"/>
<path class="bond-11 atom-10 atom-0" d="M 722.0,107.0 L 702.7,104.0" style="fill:none;fill-rule:evenodd;stroke:#191919;stroke-width:2.0px;stroke-linecap:butt;stroke-linejoin:miter;stroke-opacity:1"/>
<path class="bond-11 atom-10 atom-0" d="M 702.7,104.0 L 683.4,101.0" style="fill:none;fill-rule:evenodd;stroke:#000000;stroke-width:2.0px;stroke-linecap:butt;stroke-linejoin:miter;stroke-opacity:1"/>
<path d="M 655.2,136.3 L 653.7,138.1 L 651.3,137.7" style="fill:none;stroke:#000000;stroke-width:2.0px;stroke-linecap:butt;stroke-linejoin:miter;stroke-opacity:1;"/>
<path d="M 513.1,115.8 L 512.6,116.4 L 513.4,118.6" style="fill:none;stroke:#000000;stroke-width:2.0px;stroke-linecap:butt;stroke-linejoin:miter;stroke-opacity:1;"/>
<path d="M 528.9,158.6 L 529.7,160.8 L 530.7,161.0" style="fill:none;stroke:#000000;stroke-width:2.0px;stroke-linecap:butt;stroke-linejoin:miter;stroke-opacity:1;"/>
<path d="M 617.7,51.3 L 619.1,49.5 L 621.5,49.8" style="fill:none;stroke:#000000;stroke-width:2.0px;stroke-linecap:butt;stroke-linejoin:miter;stroke-opacity:1;"/>
<path d="M 663.9,56.3 L 666.2,56.6 L 667.1,58.8" style="fill:none;stroke:#000000;stroke-width:2.0px;stroke-linecap:butt;stroke-linejoin:miter;stroke-opacity:1;"/>
<path class="atom-4" d="M 533.0 79.4 Q 533.0 74.6, 535.4 71.8 Q 537.8 69.1, 542.3 69.1 Q 546.8 69.1, 549.2 71.8 Q 551.6 74.6, 551.6 79.4 Q 551.6 84.3, 549.2 87.1 Q 546.7 89.9, 542.3 89.9 Q 537.9 89.9, 535.4 87.1 Q 533.0 84.4, 533.0 79.4 M 542.3 87.6 Q 545.4 87.6, 547.1 85.6 Q 548.7 83.5, 548.7 79.4 Q 548.7 75.4, 547.1 73.4 Q 545.4 71.4, 542.3 71.4 Q 539.2 71.4, 537.5 73.4 Q 535.9 75.4, 535.9 79.4 Q 535.9 83.5, 537.5 85.6 Q 539.2 87.6, 542.3 87.6 " fill="#FF0000"/>
<path class="atom-7" d="M 567.6 168.1 Q 567.6 163.2, 570.0 160.5 Q 572.4 157.8, 576.8 157.8 Q 581.3 157.8, 583.7 160.5 Q 586.1 163.2, 586.1 168.1 Q 586.1 173.0, 583.7 175.8 Q 581.3 178.5, 576.8 178.5 Q 572.4 178.5, 570.0 175.8 Q 567.6 173.0, 567.6 168.1 M 576.8 176.3 Q 579.9 176.3, 581.6 174.2 Q 583.3 172.1, 583.3 168.1 Q 583.3 164.1, 581.6 162.1 Q 579.9 160.1, 576.8 160.1 Q 573.8 160.1, 572.1 162.1 Q 570.4 164.1, 570.4 168.1 Q 570.4 172.1, 572.1 174.2 Q 573.8 176.3, 576.8 176.3 " fill="#FF0000"/>
<path class="atom-10" d="M 734.4 118.4 L 729.6 110.1 L 729.5 110.1 L 726.3 110.1 L 726.3 118.4 L 723.5 118.4 L 723.5 98.2 L 729.5 98.2 Q 732.9 98.2, 734.7 99.7 Q 736.4 101.3, 736.4 104.1 Q 736.4 106.2, 735.4 107.7 Q 734.3 109.1, 732.3 109.7 L 737.4 118.4 L 734.4 118.4 M 726.3 107.8 L 729.5 107.8 Q 731.5 107.8, 732.5 106.8 Q 733.6 105.9, 733.6 104.1 Q 733.6 102.3, 732.5 101.4 Q 731.5 100.4, 729.5 100.4 L 726.3 100.4 L 726.3 107.8 " fill="#191919"/>
<path class="legend" d="M 609.5 223.3 L 611.4 223.3 L 611.4 235.8 L 617.9 235.8 L 617.9 237.5 L 609.5 237.5 L 609.5 223.3 " fill="#000000"/>
<path class="legend" d="M 619.4 226.0 Q 619.9 224.7, 621.1 223.9 Q 622.4 223.2, 624.1 223.2 Q 626.2 223.2, 627.4 224.3 Q 628.6 225.5, 628.6 227.6 Q 628.6 229.7, 627.1 231.6 Q 625.5 233.6, 622.3 235.9 L 628.9 235.9 L 628.9 237.5 L 619.3 237.5 L 619.3 236.2 Q 622.0 234.3, 623.5 232.9 Q 625.1 231.5, 625.9 230.2 Q 626.6 229.0, 626.6 227.7 Q 626.6 226.3, 626.0 225.5 Q 625.3 224.8, 624.1 224.8 Q 623.0 224.8, 622.2 225.2 Q 621.4 225.7, 620.9 226.7 L 619.4 226.0 " fill="#000000"/>
<path class="legend" d="M 631.7 235.9 L 634.8 235.9 L 634.8 225.3 L 631.4 226.4 L 631.0 225.2 L 635.3 223.3 L 636.7 223.5 L 636.7 235.9 L 639.5 235.9 L 639.5 237.5 L 631.7 237.5 L 631.7 235.9 " fill="#000000"/>
<path class="bond-0 atom-0 atom-1" d="M 433.6,371.6 L 403.5,408.5" style="fill:none;fill-rule:evenodd;stroke:#000000;stroke-width:2.0px;stroke-linecap:butt;stroke-linejoin:miter;stroke-opacity:1"/>
<path class="bond-0 atom-0 atom-1" d="M 425.4,370.3 L 400.5,400.8" style="fill:none;fill-rule:evenodd;stroke:#000000;stroke-width:2.0px;stroke-linecap:butt;stroke-linejoin:miter;stroke-opacity:1"/>
<path class="bond-1 atom-1 atom-2" d="M 403.5,408.5 L 356.5,400.9" style="fill:none;fill-rule:evenodd;stroke:#000000;stroke-width:2.0px;stroke-linecap:butt;stroke-linejoin:miter;stroke-opacity:1"/>
<path class="bond-2 atom-2 atom-3" d="M 356.5,400.9 L 339.6,356.4" style="fill:none;fill-rule:evenodd;stroke:#000000;stroke-width:2.0px;stroke-linecap:butt;stroke-linejoin:miter;stroke-opacity:1"/>
<path class="bond-2 atom-2 atom-3" d="M 361.7,394.5 L 347.8,357.7" style="fill:none;fill-rule:evenodd;stroke:#000000;stroke-width:2.0px;stroke-linecap:butt;stroke-linejoin:miter;stroke-opacity:1"/>
<path class="bond-3 atom-3 atom-4" d="M 339.6,356.4 L 321.5,353.4" style="fill:none;fill-rule:evenodd;stroke:#000000;stroke-width:2.0px;stroke-linecap:butt;stroke-linejoin:miter;stroke-opacity:1"/>
<path class="bond-3 atom-3 atom-4" d="M 321.5,353.4 L 303.4,350.5" style="fill:none;fill-rule:evenodd;stroke:#FF0000;stroke-width:2.0px;stroke-linecap:butt;stroke-linejoin:miter;stroke-opacity:1"/>
<path class="bond-4 atom-4 atom-5" d="M 282.7,360.9 L 272.6,373.2" style="fill:none;fill-rule:evenodd;stroke:#FF0000;stroke-width:2.0px;stroke-linecap:butt;stroke-linejoin:miter;stroke-opacity:1"/>
<path class="bond-4 atom-4 atom-5" d="M 272.6,373.2 L 262.5,385.6" style="fill:none;fill-rule:evenodd;stroke:#000000;stroke-width:2.0px;stroke-linecap:butt;stroke-linejoin:miter;stroke-opacity:1"/>
<path class="bond-5 atom-3 atom-6" d="M 339.6,356.4 L 369.7,319.5" style="fill:none;fill-rule:evenodd;stroke:#000000;stroke-width:2.0px;stroke-linecap:butt;stroke-linejoin:miter;stroke-opacity:1"/>
<path class="bond-6 atom-6 atom-7" d="M 369.7,319.5 L 416.7,327.1" style="fill:none;fill-rule:evenodd;stroke:#000000;stroke-width:2.0px;stroke-linecap:butt;stroke-linejoin:miter;stroke-opacity:1"/>
<path class="bond-6 atom-6 atom-7" d="M 372.6,327.2 L 411.5,333.5" style="fill:none;fill-rule:evenodd;stroke:#000000;stroke-width:2.0px;stroke-linecap:butt;stroke-linejoin:miter;stroke-opacity:1"/>
<path class="bond-7 atom-7 atom-0" d="M 416.7,327.1 L 433.6,371.6" style="fill:none;fill-rule:evenodd;stroke:#000000;stroke-width:2.0px;stroke-linecap:butt;stroke-linejoin:miter;stroke-opacity:1"/>
<path class="bond-8 atom-8 atom-0" d="M 472.0,377.9 L 452.8,374.8" style="fill:none;fill-rule:evenodd;stroke:#191919;stroke-width:2.0px;stroke-linecap:butt;stroke-linejoin:miter;stroke-opacity:1"/>
<path class="bond-8 atom-8 atom-0" d="M 452.8,374.8 L 433.6,371.6" style="fill:none;fill-rule:evenodd;stroke:#000000;stroke-width:2.0px;stroke-linecap:butt;stroke-linejoin:miter;stroke-opacity:1"/>
<path d="M 405.0,406.6 L 403.5,408.5 L 401.1,408.1" style="fill:none;stroke:#000000;stroke-width:2.0px;stroke-linecap:butt;stroke-linejoin:miter;stroke-opacity:1;"/>
<path d="M 358.8,401.3 L 356.5,400.9 L 355.6,398.7" style="fill:none;stroke:#000000;stroke-width:2.0px;stroke-linecap:butt;stroke-linejoin:miter;stroke-opacity:1;"/>
<path d="M 368.2,321.4 L 369.7,319.5 L 372.1,319.9" style="fill:none;stroke:#000000;stroke-width:2.0px;stroke-linecap:butt;stroke-linejoin:miter;stroke-opacity:1;"/>
<path d="M 414.3,326.7 L 416.7,327.1 L 417.5,329.4" style="fill:none;stroke:#000000;stroke-width:2.0px;stroke-linecap:butt;stroke-linejoin:miter;stroke-opacity:1;"/>
<path class="atom-4" d="M 283.3 348.8 Q 283.3 344.0, 285.7 341.2 Q 288.1 338.5, 292.6 338.5 Q 297.1 338.5, 299.5 341.2 Q 301.9 344.0, 301.9 348.8 Q 301.9 353.7, 299.4 356.5 Q 297.0 359.3, 292.6 359.3 Q 288.1 359.3, 285.7 356.5 Q 283.3 353.8, 283.3 348.8 M 292.6 357.0 Q 295.7 357.0, 297.3 355.0 Q 299.0 352.9, 299.0 348.8 Q 299.0 344.8, 297.3 342.8 Q 295.7 340.8, 292.6 340.8 Q 289.5 340.8, 287.8 342.8 Q 286.2 344.8, 286.2 348.8 Q 286.2 352.9, 287.8 355.0 Q 289.5 357.0, 292.6 357.0 " fill="#FF0000"/>
<path class="atom-8" d="M 484.5 389.4 L 479.6 381.1 L 479.6 381.1 L 476.3 381.1 L 476.3 389.4 L 473.6 389.4 L 473.6 369.2 L 479.6 369.2 Q 483.0 369.2, 484.8 370.7 Q 486.5 372.3, 486.5 375.1 Q 486.5 377.2, 485.4 378.7 Q 484.4 380.1, 482.4 380.7 L 487.5 389.4 L 484.5 389.4 M 476.3 378.8 L 479.6 378.8 Q 481.5 378.8, 482.6 377.8 Q 483.6 376.9, 483.6 375.1 Q 483.6 373.3, 482.6 372.4 Q 481.6 371.4, 479.6 371.4 L 476.3 371.4 L 476.3 378.8 " fill="#191919"/>
<path class="legend" d="M 359.8 473.3 L 361.7 473.3 L 361.7 485.8 L 368.1 485.8 L 368.1 487.5 L 359.8 487.5 L 359.8 473.3 " fill="#000000"/>
<path class="legend" d="M 370.4 485.9 L 373.5 485.9 L 373.5 475.3 L 370.0 476.4 L 369.6 475.2 L 373.9 473.3 L 375.3 473.5 L 375.3 485.9 L 378.1 485.9 L 378.1 487.5 L 370.4 487.5 L 370.4 485.9 " fill="#000000"/>
<path class="legend" d="M 387.3 474.9 L 379.8 474.9 L 379.8 473.3 L 389.2 473.3 L 389.2 474.8 L 383.5 487.5 L 381.6 487.5 L 387.3 474.9 " fill="#000000"/>
<path class="bond-0 atom-0 atom-1" d="M 174.8,609.7 L 145.1,646.9" style="fill:none;fill-rule:evenodd;stroke:#000000;stroke-width:2.0px;stroke-linecap:butt;stroke-linejoin:miter;stroke-opacity:1"/>
<path class="bond-0 atom-0 atom-1" d="M 166.7,608.5 L 142.1,639.2" style="fill:none;fill-rule:evenodd;stroke:#000000;stroke-width:2.0px;stroke-linecap:butt;stroke-linejoin:miter;stroke-opacity:1"/>
<path class="bond-1 atom-1 atom-2" d="M 145.1,646.9 L 98.0,639.6" style="fill:none;fill-rule:evenodd;stroke:#000000;stroke-width:2.0px;stroke-linecap:butt;stroke-linejoin:miter;stroke-opacity:1"/>
<path class="bond-2 atom-2 atom-3" d="M 98.0,639.6 L 80.8,595.3" style="fill:none;fill-rule:evenodd;stroke:#000000;stroke-width:2.0px;stroke-linecap:butt;stroke-linejoin:miter;stroke-opacity:1"/>
<path class="bond-2 atom-2 atom-3" d="M 103.2,633.2 L 89.0,596.5" style="fill:none;fill-rule:evenodd;stroke:#000000;stroke-width:2.0px;stroke-linecap:butt;stroke-linejoin:miter;stroke-opacity:1"/>
<path class="bond-3 atom-3 atom-4" d="M 80.8,595.3 L 62.5,596.3" style="fill:none;fill-rule:evenodd;stroke:#000000;stroke-width:2.0px;stroke-linecap:butt;stroke-linejoin:miter;stroke-opacity:1"/>
<path class="bond-3 atom-3 atom-4" d="M 62.5,596.3 L 44.1,597.4" style="fill:none;fill-rule:evenodd;stroke:#FF0000;stroke-width:2.0px;stroke-linecap:butt;stroke-linejoin:miter;stroke-opacity:1"/>
<path class="bond-4 atom-4 atom-5" d="M 30.1,610.1 L 25.6,627.1" style="fill:none;fill-rule:evenodd;stroke:#FF0000;stroke-width:2.0px;stroke-linecap:butt;stroke-linejoin:miter;stroke-opacity:1"/>
<path class="bond-4 atom-4 atom-5" d="M 25.6,627.1 L 21.1,644.0" style="fill:none;fill-rule:evenodd;stroke:#000000;stroke-width:2.0px;stroke-linecap:butt;stroke-linejoin:miter;stroke-opacity:1"/>
<path class="bond-5 atom-5 atom-6" d="M 21.1,644.0 L 61.2,669.8" style="fill:none;fill-rule:evenodd;stroke:#000000;stroke-width:2.0px;stroke-linecap:butt;stroke-linejoin:miter;stroke-opacity:1"/>
<path class="bond-6 atom-3 atom-7" d="M 80.8,595.3 L 110.5,558.2" style="fill:none;fill-rule:evenodd;stroke:#000000;stroke-width:2.0px;stroke-linecap:butt;stroke-linejoin:miter;stroke-opacity:1"/>
<path class="bond-7 atom-7 atom-8" d="M 110.5,558.2 L 157.7,565.3" style="fill:none;fill-rule:evenodd;stroke:#000000;stroke-width:2.0px;stroke-linecap:butt;stroke-linejoin:miter;stroke-opacity:1"/>
<path class="bond-7 atom-7 atom-8" d="M 113.5,565.9 L 152.5,571.8" style="fill:none;fill-rule:evenodd;stroke:#000000;stroke-width:2.0px;stroke-linecap:butt;stroke-linejoin:miter;stroke-opacity:1"/>
<path class="bond-8 atom-8 atom-0" d="M 157.7,565.3 L 174.8,609.7" style="fill:none;fill-rule:evenodd;stroke:#000000;stroke-width:2.0px;stroke-linecap:butt;stroke-linejoin:miter;stroke-opacity:1"/>
<path class="bond-9 atom-6 atom-2" d="M 61.2,669.8 L 98.0,639.6" style="fill:none;fill-rule:evenodd;stroke:#000000;stroke-width:2.0px;stroke-linecap:butt;stroke-linejoin:miter;stroke-opacity:1"/>
<path class="bond-10 atom-9 atom-0" d="M 213.4,615.7 L 194.1,612.7" style="fill:none;fill-rule:evenodd;stroke:#191919;stroke-width:2.0px;stroke-linecap:butt;stroke-linejoin:miter;stroke-opacity:1"/>
<path class="bond-10 atom-9 atom-0" d="M 194.1,612.7 L 174.8,609.7" style="fill:none;fill-rule:evenodd;stroke:#000000;stroke-width:2.0px;stroke-linecap:butt;stroke-linejoin:miter;stroke-opacity:1"/>
<path d="M 146.6,645.0 L 145.1,646.9 L 142.8,646.5" style="fill:none;stroke:#000000;stroke-width:2.0px;stroke-linecap:butt;stroke-linejoin:miter;stroke-opacity:1;"/>
<path d="M 21.4,643.1 L 21.1,644.0 L 23.1,645.3" style="fill:none;stroke:#000000;stroke-width:2.0px;stroke-linecap:butt;stroke-linejoin:miter;stroke-opacity:1;"/>
<path d="M 59.2,668.5 L 61.2,669.8 L 63.0,668.3" style="fill:none;stroke:#000000;stroke-width:2.0px;stroke-linecap:butt;stroke-linejoin:miter;stroke-opacity:1;"/>
<path d="M 109.1,560.1 L 110.5,558.2 L 112.9,558.6" style="fill:none;stroke:#000000;stroke-width:2.0px;stroke-linecap:butt;stroke-linejoin:miter;stroke-opacity:1;"/>
<path d="M 155.3,565.0 L 157.7,565.3 L 158.5,567.6" style="fill:none;stroke:#000000;stroke-width:2.0px;stroke-linecap:butt;stroke-linejoin:miter;stroke-opacity:1;"/>
<path class="atom-4" d="M 24.0 598.1 Q 24.0 593.2, 26.4 590.5 Q 28.8 587.8, 33.3 587.8 Q 37.7 587.8, 40.1 590.5 Q 42.5 593.2, 42.5 598.1 Q 42.5 603.0, 40.1 605.8 Q 37.7 608.5, 33.3 608.5 Q 28.8 608.5, 26.4 605.8 Q 24.0 603.0, 24.0 598.1 M 33.3 606.3 Q 36.3 606.3, 38.0 604.2 Q 39.7 602.1, 39.7 598.1 Q 39.7 594.1, 38.0 592.1 Q 36.3 590.1, 33.3 590.1 Q 30.2 590.1, 28.5 592.1 Q 26.8 594.1, 26.8 598.1 Q 26.8 602.1, 28.5 604.2 Q 30.2 606.3, 33.3 606.3 " fill="#FF0000"/>
<path class="atom-9" d="M 225.9 627.1 L 221.0 618.8 L 220.9 618.8 L 217.7 618.8 L 217.7 627.1 L 214.9 627.1 L 214.9 606.9 L 220.9 606.9 Q 224.4 606.9, 226.1 608.5 Q 227.9 610.0, 227.9 612.8 Q 227.9 615.0, 226.8 616.4 Q 225.8 617.9, 223.7 618.4 L 228.9 627.1 L 225.9 627.1 M 217.7 616.5 L 220.9 616.5 Q 222.9 616.5, 223.9 615.6 Q 225.0 614.6, 225.0 612.8 Q 225.0 611.0, 223.9 610.1 Q 222.9 609.2, 220.9 609.2 L 217.7 609.2 L 217.7 616.5 " fill="#191919"/>
<path class="legend" d="M 115.3 723.3 L 117.2 723.3 L 117.2 735.8 L 123.7 735.8 L 123.7 737.5 L 115.3 737.5 L 115.3 723.3 " fill="#000000"/>
<path class="legend" d="M 125.9 735.9 L 129.0 735.9 L 129.0 725.3 L 125.6 726.4 L 125.1 725.2 L 129.5 723.3 L 130.9 723.5 L 130.9 735.9 L 133.7 735.9 L 133.7 737.5 L 125.9 737.5 L 125.9 735.9 " fill="#000000"/>
<path class="bond-0 atom-0 atom-1" d="M 677.1,608.8 L 660.0,564.5" style="fill:none;fill-rule:evenodd;stroke:#000000;stroke-width:2.0px;stroke-linecap:butt;stroke-linejoin:miter;stroke-opacity:1"/>
<path class="bond-0 atom-0 atom-1" d="M 669.0,607.5 L 654.8,570.9" style="fill:none;fill-rule:evenodd;stroke:#000000;stroke-width:2.0px;stroke-linecap:butt;stroke-linejoin:miter;stroke-opacity:1"/>
<path class="bond-1 atom-1 atom-2" d="M 660.0,564.5 L 613.0,556.9" style="fill:none;fill-rule:evenodd;stroke:#000000;stroke-width:2.0px;stroke-linecap:butt;stroke-linejoin:miter;stroke-opacity:1"/>
<path class="bond-2 atom-2 atom-3" d="M 613.0,556.9 L 583.0,594.0" style="fill:none;fill-rule:evenodd;stroke:#000000;stroke-width:2.0px;stroke-linecap:butt;stroke-linejoin:miter;stroke-opacity:1"/>
<path class="bond-2 atom-2 atom-3" d="M 616.0,564.6 L 591.2,595.3" style="fill:none;fill-rule:evenodd;stroke:#000000;stroke-width:2.0px;stroke-linecap:butt;stroke-linejoin:miter;stroke-opacity:1"/>
<path class="bond-3 atom-3 atom-4" d="M 583.0,594.0 L 564.9,591.1" style="fill:none;fill-rule:evenodd;stroke:#000000;stroke-width:2.0px;stroke-linecap:butt;stroke-linejoin:miter;stroke-opacity:1"/>
<path class="bond-3 atom-3 atom-4" d="M 564.9,591.1 L 546.9,588.2" style="fill:none;fill-rule:evenodd;stroke:#FF0000;stroke-width:2.0px;stroke-linecap:butt;stroke-linejoin:miter;stroke-opacity:1"/>
<path class="bond-4 atom-4 atom-5" d="M 531.5,574.7 L 525.2,558.4" style="fill:none;fill-rule:evenodd;stroke:#FF0000;stroke-width:2.0px;stroke-linecap:butt;stroke-linejoin:miter;stroke-opacity:1"/>
<path class="bond-4 atom-4 atom-5" d="M 525.2,558.4 L 519.0,542.1" style="fill:none;fill-rule:evenodd;stroke:#000000;stroke-width:2.0px;stroke-linecap:butt;stroke-linejoin:miter;stroke-opacity:1"/>
<path class="bond-5 atom-3 atom-6" d="M 583.0,594.0 L 600.1,638.4" style="fill:none;fill-rule:evenodd;stroke:#000000;stroke-width:2.0px;stroke-linecap:butt;stroke-linejoin:miter;stroke-opacity:1"/>
<path class="bond-6 atom-6 atom-7" d="M 600.1,638.4 L 589.9,651.0" style="fill:none;fill-rule:evenodd;stroke:#000000;stroke-width:2.0px;stroke-linecap:butt;stroke-linejoin:miter;stroke-opacity:1"/>
<path class="bond-6 atom-6 atom-7" d="M 589.9,651.0 L 579.7,663.6" style="fill:none;fill-rule:evenodd;stroke:#FF0000;stroke-width:2.0px;stroke-linecap:butt;stroke-linejoin:miter;stroke-opacity:1"/>
<path class="bond-7 atom-7 atom-8" d="M 559.3,673.7 L 541.2,670.8" style="fill:none;fill-rule:evenodd;stroke:#FF0000;stroke-width:2.0px;stroke-linecap:butt;stroke-linejoin:miter;stroke-opacity:1"/>
<path class="bond-7 atom-7 atom-8" d="M 541.2,670.8 L 523.1,667.9" style="fill:none;fill-rule:evenodd;stroke:#000000;stroke-width:2.0px;stroke-linecap:butt;stroke-linejoin:miter;stroke-opacity:1"/>
<path class="bond-8 atom-6 atom-9" d="M 600.1,638.4 L 647.1,645.9" style="fill:none;fill-rule:evenodd;stroke:#000000;stroke-width:2.0px;stroke-linecap:butt;stroke-linejoin:miter;stroke-opacity:1"/>
<path class="bond-8 atom-6 atom-9" d="M 605.3,632.0 L 644.2,638.2" style="fill:none;fill-rule:evenodd;stroke:#000000;stroke-width:2.0px;stroke-linecap:butt;stroke-linejoin:miter;stroke-opacity:1"/>
<path class="bond-9 atom-9 atom-0" d="M 647.1,645.9 L 677.1,608.8" style="fill:none;fill-rule:evenodd;stroke:#000000;stroke-width:2.0px;stroke-linecap:butt;stroke-linejoin:miter;stroke-opacity:1"/>
<path class="bond-10 atom-10 atom-0" d="M 715.5,614.9 L 696.3,611.9" style="fill:none;fill-rule:evenodd;stroke:#191919;stroke-width:2.0px;stroke-linecap:butt;stroke-linejoin:miter;stroke-opacity:1"/>
<path class="bond-10 atom-10 atom-0" d="M 696.3,611.9 L 677.1,608.8" style="fill:none;fill-rule:evenodd;stroke:#000000;stroke-width:2.0px;stroke-linecap:butt;stroke-linejoin:miter;stroke-opacity:1"/>
<path d="M 660.9,566.7 L 660.0,564.5 L 657.7,564.1" style="fill:none;stroke:#000000;stroke-width:2.0px;stroke-linecap:butt;stroke-linejoin:miter;stroke-opacity:1;"/>
<path d="M 615.4,557.3 L 613.0,556.9 L 611.5,558.8" style="fill:none;stroke:#000000;stroke-width:2.0px;stroke-linecap:butt;stroke-linejoin:miter;stroke-opacity:1;"/>
<path d="M 644.8,645.5 L 647.1,645.9 L 648.6,644.1" style="fill:none;stroke:#000000;stroke-width:2.0px;stroke-linecap:butt;stroke-linejoin:miter;stroke-opacity:1;"/>
<path class="atom-4" d="M 526.8 586.6 Q 526.8 581.7, 529.2 579.0 Q 531.6 576.3, 536.0 576.3 Q 540.5 576.3, 542.9 579.0 Q 545.3 581.7, 545.3 586.6 Q 545.3 591.5, 542.9 594.3 Q 540.5 597.1, 536.0 597.1 Q 531.6 597.1, 529.2 594.3 Q 526.8 591.5, 526.8 586.6 M 536.0 594.8 Q 539.1 594.8, 540.8 592.7 Q 542.5 590.6, 542.5 586.6 Q 542.5 582.6, 540.8 580.6 Q 539.1 578.6, 536.0 578.6 Q 533.0 578.6, 531.3 580.6 Q 529.6 582.6, 529.6 586.6 Q 529.6 590.7, 531.3 592.7 Q 533.0 594.8, 536.0 594.8 " fill="#FF0000"/>
<path class="atom-7" d="M 560.9 675.4 Q 560.9 670.6, 563.3 667.9 Q 565.7 665.2, 570.1 665.2 Q 574.6 665.2, 577.0 667.9 Q 579.4 670.6, 579.4 675.4 Q 579.4 680.4, 577.0 683.2 Q 574.6 685.9, 570.1 685.9 Q 565.7 685.9, 563.3 683.2 Q 560.9 680.4, 560.9 675.4 M 570.1 683.6 Q 573.2 683.6, 574.9 681.6 Q 576.6 679.5, 576.6 675.4 Q 576.6 671.5, 574.9 669.5 Q 573.2 667.4, 570.1 667.4 Q 567.1 667.4, 565.4 669.4 Q 563.7 671.4, 563.7 675.4 Q 563.7 679.5, 565.4 681.6 Q 567.1 683.6, 570.1 683.6 " fill="#FF0000"/>
<path class="atom-10" d="M 728.0 626.4 L 723.1 618.1 L 723.1 618.1 L 719.9 618.1 L 719.9 626.4 L 717.1 626.4 L 717.1 606.2 L 723.1 606.2 Q 726.5 606.2, 728.3 607.8 Q 730.0 609.3, 730.0 612.1 Q 730.0 614.3, 729.0 615.7 Q 727.9 617.2, 725.9 617.7 L 731.0 626.4 L 728.0 626.4 M 719.9 615.8 L 723.1 615.8 Q 725.1 615.8, 726.1 614.9 Q 727.2 613.9, 727.2 612.1 Q 727.2 610.3, 726.1 609.4 Q 725.1 608.5, 723.1 608.5 L 719.9 608.5 L 719.9 615.8 " fill="#191919"/>
<path class="legend" d="M 609.5 723.2 L 611.4 723.2 L 611.4 735.7 L 617.9 735.7 L 617.9 737.3 L 609.5 737.3 L 609.5 723.2 " fill="#000000"/>
<path class="legend" d="M 620.1 735.7 L 623.2 735.7 L 623.2 725.2 L 619.8 726.2 L 619.4 725.0 L 623.7 723.1 L 625.1 723.3 L 625.1 735.7 L 627.9 735.7 L 627.9 737.3 L 620.1 737.3 L 620.1 735.7 " fill="#000000"/>
<path class="legend" d="M 634.4 723.0 Q 636.9 723.0, 638.2 724.7 Q 639.5 726.4, 639.5 729.8 Q 639.5 733.6, 637.9 735.6 Q 636.3 737.5, 633.3 737.5 Q 632.4 737.5, 631.7 737.3 Q 630.9 737.1, 630.2 736.7 L 631.0 735.3 Q 632.0 735.9, 633.3 735.9 Q 635.3 735.9, 636.3 734.6 Q 637.3 733.3, 637.4 730.7 Q 636.7 731.3, 635.8 731.7 Q 634.9 732.0, 633.9 732.0 Q 632.7 732.0, 631.7 731.5 Q 630.7 730.9, 630.2 730.0 Q 629.6 729.0, 629.6 727.7 Q 629.6 726.4, 630.2 725.3 Q 630.9 724.2, 631.9 723.6 Q 633.0 723.0, 634.4 723.0 M 631.6 727.7 Q 631.6 729.0, 632.3 729.7 Q 633.0 730.4, 634.3 730.4 Q 635.1 730.4, 636.0 730.1 Q 636.8 729.7, 637.4 729.1 Q 637.4 726.8, 636.6 725.7 Q 635.9 724.7, 634.4 724.7 Q 633.6 724.7, 633.0 725.1 Q 632.4 725.5, 632.0 726.2 Q 631.6 726.9, 631.6 727.7 " fill="#000000"/>
<path d="M 500.0,125.0 L 275.0,125.0" style="fill:none;fill-rule:evenodd;stroke:#666666;stroke-width:4.0px;stroke-linecap:butt;stroke-linejoin:miter;stroke-opacity:1"/>
<path d="M 287.5,117.8 L 275.0,125.0 L 287.5,132.2 Z" style="fill:#666666;fill-rule:evenodd;fill-opacity:1;stroke:#666666;stroke-width:4.0px;stroke-linecap:butt;stroke-linejoin:miter;stroke-opacity:1;"/>
<path d="M 357.5 145.0 L 364.8 145.0 L 364.8 146.6 L 357.5 146.6 L 357.5 145.0 " fill="#000000"/>
<path d="M 371.7 152.3 Q 369.1 152.3, 367.8 150.4 Q 366.6 148.5, 366.6 145.1 Q 366.6 141.6, 367.8 139.7 Q 369.1 137.8, 371.7 137.8 Q 374.4 137.8, 375.6 139.7 Q 376.9 141.6, 376.9 145.1 Q 376.9 148.5, 375.6 150.4 Q 374.3 152.3, 371.7 152.3 M 371.7 150.7 Q 373.3 150.7, 374.1 149.3 Q 374.9 147.9, 374.9 145.1 Q 374.9 142.3, 374.1 140.9 Q 373.3 139.4, 371.7 139.4 Q 370.2 139.4, 369.4 140.9 Q 368.6 142.3, 368.6 145.1 Q 368.6 147.9, 369.4 149.3 Q 370.2 150.7, 371.7 150.7 " fill="#000000"/>
<path d="M 379.0 150.2 L 381.0 150.2 L 381.0 152.2 L 379.0 152.2 L 379.0 150.2 " fill="#000000"/>
<path d="M 389.8 144.7 Q 391.2 145.1, 391.8 146.0 Q 392.5 146.9, 392.5 148.3 Q 392.5 149.5, 391.9 150.4 Q 391.3 151.3, 390.2 151.9 Q 389.1 152.4, 387.7 152.4 Q 386.1 152.4, 385.0 151.8 Q 383.9 151.3, 383.0 150.2 L 384.1 149.1 Q 385.0 150.0, 385.7 150.4 Q 386.5 150.8, 387.7 150.8 Q 388.9 150.8, 389.7 150.1 Q 390.5 149.4, 390.5 148.3 Q 390.5 146.8, 389.7 146.2 Q 388.9 145.5, 387.1 145.5 L 386.1 145.5 L 386.1 144.1 L 387.0 144.1 Q 388.6 144.1, 389.4 143.4 Q 390.2 142.7, 390.2 141.5 Q 390.2 140.5, 389.5 140.0 Q 388.8 139.4, 387.7 139.4 Q 386.5 139.4, 385.8 139.9 Q 385.0 140.3, 384.5 141.3 L 383.1 140.6 Q 383.6 139.4, 384.8 138.6 Q 386.0 137.8, 387.7 137.8 Q 389.8 137.8, 391.0 138.8 Q 392.2 139.8, 392.2 141.5 Q 392.2 142.6, 391.6 143.4 Q 391.0 144.2, 389.8 144.7 " fill="#000000"/>
<path d="M 125.0,500.0 L 125.0,275.0" style="fill:none;fill-rule:evenodd;stroke:#666666;stroke-width:4.0px;stroke-linecap:butt;stroke-linejoin:miter;stroke-opacity:1"/>
<path d="M 132.2,287.5 L 125.0,275.0 L 117.8,287.5 Z" style="fill:#666666;fill-rule:evenodd;fill-opacity:1;stroke:#666666;stroke-width:4.0px;stroke-linecap:butt;stroke-linejoin:miter;stroke-opacity:1;"/>
<path d="M 140.3 370.7 Q 140.8 369.3, 142.0 368.6 Q 143.3 367.8, 145.0 367.8 Q 147.1 367.8, 148.3 369.0 Q 149.5 370.2, 149.5 372.2 Q 149.5 374.3, 148.0 376.3 Q 146.4 378.2, 143.2 380.6 L 149.8 380.6 L 149.8 382.2 L 140.2 382.2 L 140.2 380.8 Q 142.9 378.9, 144.4 377.5 Q 146.0 376.1, 146.8 374.9 Q 147.5 373.6, 147.5 372.3 Q 147.5 371.0, 146.8 370.2 Q 146.2 369.4, 145.0 369.4 Q 143.8 369.4, 143.1 369.9 Q 142.3 370.4, 141.8 371.4 L 140.3 370.7 " fill="#000000"/>
<path d="M 151.7 380.2 L 153.7 380.2 L 153.7 382.2 L 151.7 382.2 L 151.7 380.2 " fill="#000000"/>
<path d="M 160.9 382.3 Q 158.3 382.3, 157.0 380.4 Q 155.7 378.5, 155.7 375.1 Q 155.7 371.6, 157.0 369.7 Q 158.3 367.8, 160.9 367.8 Q 163.5 367.8, 164.8 369.7 Q 166.1 371.6, 166.1 375.1 Q 166.1 378.5, 164.8 380.4 Q 163.5 382.3, 160.9 382.3 M 160.9 380.7 Q 162.4 380.7, 163.3 379.3 Q 164.1 377.9, 164.1 375.1 Q 164.1 372.3, 163.3 370.9 Q 162.4 369.4, 160.9 369.4 Q 159.4 369.4, 158.5 370.9 Q 157.7 372.3, 157.7 375.1 Q 157.7 377.9, 158.5 379.3 Q 159.4 380.7, 160.9 380.7 " fill="#000000"/>
<path d="M 250.0,625.0 L 475.0,625.0" style="fill:none;fill-rule:evenodd;stroke:#666666;stroke-width:4.0px;stroke-linecap:butt;stroke-linejoin:miter;stroke-opacity:1"/>
<path d="M 462.5,632.2 L 475.0,625.0 L 462.5,617.8 Z" style="fill:#666666;fill-rule:evenodd;fill-opacity:1;stroke:#666666;stroke-width:4.0px;stroke-linecap:butt;stroke-linejoin:miter;stroke-opacity:1;"/>
<path d="M 370.8 647.3 L 372.5 647.3 L 372.5 648.9 L 370.8 648.9 L 370.8 652.2 L 369.0 652.2 L 369.0 648.9 L 361.6 648.9 L 361.6 647.6 L 367.8 638.0 L 370.8 638.0 L 370.8 647.3 M 364.0 647.3 L 369.0 647.3 L 369.0 639.3 L 364.0 647.3 " fill="#000000"/>
<path d="M 374.3 650.2 L 376.3 650.2 L 376.3 652.2 L 374.3 652.2 L 374.3 650.2 " fill="#000000"/>
<path d="M 385.6 644.7 Q 386.9 645.2, 387.6 646.1 Q 388.4 646.9, 388.4 648.3 Q 388.4 649.5, 387.7 650.4 Q 387.1 651.3, 386.0 651.9 Q 384.9 652.4, 383.4 652.4 Q 381.1 652.4, 379.7 651.3 Q 378.4 650.2, 378.4 648.3 Q 378.4 647.1, 379.0 646.3 Q 379.6 645.4, 380.8 644.7 Q 379.9 644.2, 379.4 643.4 Q 378.9 642.7, 378.9 641.5 Q 378.9 639.8, 380.1 638.8 Q 381.3 637.8, 383.4 637.8 Q 385.4 637.8, 386.6 638.8 Q 387.8 639.8, 387.8 641.5 Q 387.8 642.5, 387.3 643.3 Q 386.7 644.0, 385.6 644.7 M 383.4 639.3 Q 382.2 639.3, 381.5 639.9 Q 380.9 640.5, 380.9 641.5 Q 380.9 642.2, 381.3 642.7 Q 381.8 643.2, 382.4 643.5 Q 383.0 643.7, 384.2 644.2 Q 385.1 643.6, 385.5 642.9 Q 385.8 642.3, 385.8 641.5 Q 385.8 640.5, 385.2 639.9 Q 384.5 639.3, 383.4 639.3 M 383.4 650.9 Q 384.8 650.9, 385.6 650.2 Q 386.4 649.4, 386.4 648.3 Q 386.4 647.5, 385.9 647.0 Q 385.5 646.5, 384.9 646.3 Q 384.3 646.0, 383.1 645.6 L 382.2 645.3 Q 381.2 645.9, 380.8 646.6 Q 380.4 647.3, 380.4 648.3 Q 380.4 649.4, 381.2 650.2 Q 382.0 650.9, 383.4 650.9 " fill="#000000"/>
<path d="M 625.0,250.0 L 625.0,475.0" style="fill:none;fill-rule:evenodd;stroke:#666666;stroke-width:4.0px;stroke-linecap:butt;stroke-linejoin:miter;stroke-opacity:1"/>
<path d="M 617.8,462.5 L 625.0,475.0 L 632.2,462.5 Z" style="fill:#666666;fill-rule:evenodd;fill-opacity:1;stroke:#666666;stroke-width:4.0px;stroke-linecap:butt;stroke-linejoin:miter;stroke-opacity:1;"/>
<path d="M 640.3 370.7 Q 640.8 369.3, 642.0 368.6 Q 643.3 367.8, 645.0 367.8 Q 647.1 367.8, 648.3 369.0 Q 649.5 370.2, 649.5 372.2 Q 649.5 374.3, 648.0 376.3 Q 646.4 378.2, 643.2 380.6 L 649.8 380.6 L 649.8 382.2 L 640.2 382.2 L 640.2 380.8 Q 642.9 378.9, 644.4 377.5 Q 646.0 376.1, 646.8 374.9 Q 647.5 373.6, 647.5 372.3 Q 647.5 371.0, 646.9 370.2 Q 646.2 369.4, 645.0 369.4 Q 643.9 369.4, 643.1 369.9 Q 642.3 370.4, 641.8 371.4 L 640.3 370.7 " fill="#000000"/>
<path d="M 651.7 380.2 L 653.7 380.2 L 653.7 382.2 L 651.7 382.2 L 651.7 380.2 " fill="#000000"/>
<path d="M 660.8 373.3 Q 662.1 373.3, 663.1 373.8 Q 664.1 374.4, 664.7 375.4 Q 665.3 376.3, 665.3 377.7 Q 665.3 379.1, 664.5 380.2 Q 663.8 381.2, 662.7 381.8 Q 661.5 382.3, 660.2 382.3 Q 658.9 382.3, 657.7 381.8 Q 656.5 381.4, 655.7 380.4 L 656.9 379.2 Q 657.5 379.9, 658.4 380.3 Q 659.3 380.7, 660.3 380.7 Q 661.5 380.7, 662.4 379.9 Q 663.3 379.1, 663.3 377.7 Q 663.3 376.2, 662.4 375.5 Q 661.5 374.8, 660.1 374.8 Q 658.9 374.8, 657.5 375.3 L 656.4 374.8 L 657.1 368.0 L 664.4 368.0 L 664.2 369.6 L 658.7 369.6 L 658.3 373.8 Q 659.6 373.3, 660.8 373.3 " fill="#000000"/>
<path d="M 300.0,300.0 L 210.0,210.0" style="fill:none;fill-rule:evenodd;stroke:#666666;stroke-width:4.0px;stroke-linecap:butt;stroke-linejoin:miter;stroke-opacity:1"/>
<path d="M 225.8,214.2 L 210.0,210.0 L 214.2,225.8 Z" style="fill:#666666;fill-rule:evenodd;fill-opacity:1;stroke:#666666;stroke-width:4.0px;stroke-linecap:butt;stroke-linejoin:miter;stroke-opacity:1;"/>
<path d="M 270.3 245.7 Q 270.8 244.3, 272.0 243.6 Q 273.3 242.8, 275.0 242.8 Q 277.1 242.8, 278.3 244.0 Q 279.5 245.2, 279.5 247.2 Q 279.5 249.3, 278.0 251.3 Q 276.4 253.2, 273.2 255.6 L 279.8 255.6 L 279.8 257.2 L 270.2 257.2 L 270.2 255.8 Q 272.9 253.9, 274.4 252.5 Q 276.0 251.1, 276.8 249.9 Q 277.5 248.6, 277.5 247.3 Q 277.5 246.0, 276.9 245.2 Q 276.2 244.4, 275.0 244.4 Q 273.9 244.4, 273.1 244.9 Q 272.3 245.4, 271.8 246.4 L 270.3 245.7 " fill="#000000"/>
<path d="M 281.6 255.2 L 283.6 255.2 L 283.6 257.2 L 281.6 257.2 L 281.6 255.2 " fill="#000000"/>
<path d="M 286.4 255.6 L 289.5 255.6 L 289.5 245.0 L 286.1 246.0 L 285.6 244.9 L 289.9 242.9 L 291.4 243.2 L 291.4 255.6 L 294.1 255.6 L 294.1 257.2 L 286.4 257.2 L 286.4 255.6 " fill="#000000"/>
<path d="M 450.0,300.0 L 540.0,210.0" style="fill:none;fill-rule:evenodd;stroke:#666666;stroke-width:4.0px;stroke-linecap:butt;stroke-linejoin:miter;stroke-opacity:1"/>
<path d="M 535.8,225.8 L 540.0,210.0 L 524.2,214.2 Z" style="fill:#666666;fill-rule:evenodd;fill-opacity:1;stroke:#666666;stroke-width:4.0px;stroke-linecap:butt;stroke-linejoin:miter;stroke-opacity:1;"/>
<path d="M 454.1 245.7 Q 454.6 244.3, 455.8 243.6 Q 457.1 242.8, 458.8 242.8 Q 460.9 242.8, 462.1 244.0 Q 463.3 245.2, 463.3 247.2 Q 463.3 249.3, 461.8 251.3 Q 460.2 253.2, 457.0 255.6 L 463.6 255.6 L 463.6 257.2 L 454.0 257.2 L 454.0 255.8 Q 456.7 253.9, 458.2 252.5 Q 459.8 251.1, 460.6 249.9 Q 461.3 248.6, 461.3 247.3 Q 461.3 246.0, 460.6 245.2 Q 460.0 244.4, 458.8 244.4 Q 457.6 244.4, 456.9 244.9 Q 456.1 245.4, 455.6 246.4 L 454.1 245.7 " fill="#000000"/>
<path d="M 465.5 255.2 L 467.5 255.2 L 467.5 257.2 L 465.5 257.2 L 465.5 255.2 " fill="#000000"/>
<path d="M 478.8 252.3 L 480.4 252.3 L 480.4 253.9 L 478.8 253.9 L 478.8 257.2 L 476.9 257.2 L 476.9 253.9 L 469.6 253.9 L 469.6 252.6 L 475.8 243.0 L 478.8 243.0 L 478.8 252.3 M 471.9 252.3 L 476.9 252.3 L 476.9 244.3 L 471.9 252.3 " fill="#000000"/>
<path d="M 450.0,450.0 L 540.0,540.0" style="fill:none;fill-rule:evenodd;stroke:#666666;stroke-width:4.0px;stroke-linecap:butt;stroke-linejoin:miter;stroke-opacity:1"/>
<path d="M 524.2,535.8 L 540.0,540.0 L 535.8,524.2 Z" style="fill:#666666;fill-rule:evenodd;fill-opacity:1;stroke:#666666;stroke-width:4.0px;stroke-linecap:butt;stroke-linejoin:miter;stroke-opacity:1;"/>
<path d="M 462.6 502.3 L 464.3 502.3 L 464.3 503.9 L 462.6 503.9 L 462.6 507.2 L 460.7 507.2 L 460.7 503.9 L 453.4 503.9 L 453.4 502.6 L 459.6 493.0 L 462.6 493.0 L 462.6 502.3 M 455.7 502.3 L 460.7 502.3 L 460.7 494.3 L 455.7 502.3 " fill="#000000"/>
<path d="M 466.0 505.2 L 468.0 505.2 L 468.0 507.2 L 466.0 507.2 L 466.0 505.2 " fill="#000000"/>
<path d="M 474.9 492.8 Q 477.4 492.8, 478.6 494.6 Q 479.9 496.3, 479.9 499.7 Q 479.9 503.4, 478.3 505.4 Q 476.8 507.3, 473.8 507.3 Q 472.9 507.3, 472.1 507.1 Q 471.4 506.9, 470.7 506.5 L 471.4 505.2 Q 472.5 505.7, 473.7 505.7 Q 475.7 505.7, 476.8 504.4 Q 477.8 503.1, 477.9 500.5 Q 477.2 501.1, 476.2 501.5 Q 475.4 501.8, 474.4 501.8 Q 473.1 501.8, 472.2 501.3 Q 471.2 500.8, 470.6 499.8 Q 470.1 498.8, 470.1 497.6 Q 470.1 496.2, 470.7 495.1 Q 471.3 494.0, 472.4 493.4 Q 473.5 492.8, 474.9 492.8 M 472.1 497.5 Q 472.1 498.8, 472.8 499.5 Q 473.5 500.2, 474.7 500.2 Q 475.6 500.2, 476.4 499.9 Q 477.3 499.5, 477.9 498.9 Q 477.8 496.6, 477.1 495.5 Q 476.3 494.5, 474.8 494.5 Q 474.1 494.5, 473.4 494.9 Q 472.8 495.3, 472.4 496.0 Q 472.1 496.7, 472.1 497.5 " fill="#000000"/>
<path d="M 300.0,450.0 L 210.0,540.0" style="fill:none;fill-rule:evenodd;stroke:#666666;stroke-width:4.0px;stroke-linecap:butt;stroke-linejoin:miter;stroke-opacity:1"/>
<path d="M 214.2,524.2 L 210.0,540.0 L 225.8,535.8 Z" style="fill:#666666;fill-rule:evenodd;fill-opacity:1;stroke:#666666;stroke-width:4.0px;stroke-linecap:butt;stroke-linejoin:miter;stroke-opacity:1;"/>
<path d="M 275.0 507.3 Q 272.4 507.3, 271.1 505.4 Q 269.8 503.5, 269.8 500.1 Q 269.8 496.6, 271.1 494.7 Q 272.4 492.8, 275.0 492.8 Q 277.6 492.8, 278.9 494.7 Q 280.2 496.6, 280.2 500.1 Q 280.2 503.5, 278.9 505.4 Q 277.6 507.3, 275.0 507.3 M 275.0 505.7 Q 276.5 505.7, 277.4 504.3 Q 278.2 502.9, 278.2 500.1 Q 278.2 497.3, 277.4 495.9 Q 276.5 494.4, 275.0 494.4 Q 273.5 494.4, 272.6 495.9 Q 271.8 497.3, 271.8 500.1 Q 271.8 502.9, 272.6 504.3 Q 273.5 505.7, 275.0 505.7 " fill="#000000"/>
<path d="M 282.2 505.2 L 284.2 505.2 L 284.2 507.2 L 282.2 507.2 L 282.2 505.2 " fill="#000000"/>
<path d="M 287.0 505.6 L 290.1 505.6 L 290.1 495.0 L 286.6 496.0 L 286.2 494.9 L 290.5 492.9 L 291.9 493.2 L 291.9 505.6 L 294.7 505.6 L 294.7 507.2 L 287.0 507.2 L 287.0 505.6 " fill="#000000"/>
</svg>